<svg width="148" height="127" viewBox="0 -15 148 158" fill="none" xmlns="http://www.w3.org/2000/svg"><g filter="url(#filter0_d)"><mask id="a" fill="#fff"><path d="M28.742 27.548a3 3 0 011.639-2.673L77.923.666A3 3 0 0180.56.625l51.644 24.274a3 3 0 011.724 2.715v63.962a3 3 0 01-1.743 2.724L80.54 118.138a3.002 3.002 0 01-2.599-.04l-47.54-23.773a3 3 0 01-1.66-2.684V27.548z"/></mask><path d="M28.742 27.548a3 3 0 011.639-2.673L77.923.666A3 3 0 0180.56.625l51.644 24.274a3 3 0 011.724 2.715v63.962a3 3 0 01-1.743 2.724L80.54 118.138a3.002 3.002 0 01-2.599-.04l-47.54-23.773a3 3 0 01-1.66-2.684V27.548z" stroke="url(#paint0_linear)" stroke-width="4" mask="url(#a)"/></g><g filter="url(#filter1_d)"><g filter="url(#filter2_d)"><mask id="b" fill="#fff"><path d="M75.098 21.89h-.013c-.703 0-1.267.597-1.267 1.336 0 .738.576 1.335 1.281 1.335.703 0 1.274-.597 1.274-1.335 0-.739-.572-1.335-1.275-1.335z"/></mask><path d="M75.098 21.89h-.013c-.703 0-1.267.597-1.267 1.336 0 .738.576 1.335 1.281 1.335.703 0 1.274-.597 1.274-1.335 0-.739-.572-1.335-1.275-1.335z" fill="#A16AFC"/><path d="M75.098 21.89h-.013c-.703 0-1.267.597-1.267 1.336 0 .738.576 1.335 1.281 1.335.703 0 1.274-.597 1.274-1.335 0-.739-.572-1.335-1.275-1.335z" stroke="#1E1E1E" stroke-width="1.5" mask="url(#b)"/></g><g filter="url(#filter3_d)"><mask id="c" fill="#fff"><path d="M82.706 21.89h-3.823c-.705 0-1.275.597-1.275 1.336 0 .738.57 1.335 1.275 1.335h3.823c.705 0 1.274-.597 1.274-1.335 0-.739-.57-1.335-1.274-1.335z"/></mask><path d="M82.706 21.89h-3.823c-.705 0-1.275.597-1.275 1.336 0 .738.57 1.335 1.275 1.335h3.823c.705 0 1.274-.597 1.274-1.335 0-.739-.57-1.335-1.274-1.335z" fill="#A16AFC"/><path d="M82.706 21.89h-3.823c-.705 0-1.275.597-1.275 1.336 0 .738.57 1.335 1.275 1.335h3.823c.705 0 1.274-.597 1.274-1.335 0-.739-.57-1.335-1.274-1.335z" stroke="#1E1E1E" stroke-width="1.5" mask="url(#c)"/></g><g filter="url(#filter4_d)"><mask id="d" fill="#fff"><path d="M94.174 17.886H63.59c-4.216 0-7.646 3.592-7.646 8.01v68.083c0 5.152 4.003 9.345 8.92 9.345H92.9c4.918 0 8.92-4.193 8.92-9.345V25.9c0-4.413-3.421-8-7.63-8.01-.004 0-.01-.003-.016-.003zM92.9 95.314H64.864c-3.514 0-6.372-2.994-6.372-6.675v-1.335h40.78v1.335c0 3.68-2.859 6.675-6.372 6.675zM58.492 36.577h40.78v48.057h-40.78V36.577zm40.78-2.67h-40.78v-5.339h40.78v5.339zM92.9 100.654H64.864c-3.082 0-5.656-2.304-6.245-5.353 1.611 1.656 3.816 2.683 6.245 2.683H92.9c2.429 0 4.633-1.027 6.244-2.683-.589 3.049-3.163 5.353-6.244 5.353zm6.372-74.756h-40.78v-.002c0-2.945 2.286-5.34 5.098-5.34h30.572l.012.002c2.811 0 5.098 2.395 5.098 5.34z"/></mask><path d="M94.174 17.886H63.59c-4.216 0-7.646 3.592-7.646 8.01v68.083c0 5.152 4.003 9.345 8.92 9.345H92.9c4.918 0 8.92-4.193 8.92-9.345V25.9c0-4.413-3.421-8-7.63-8.01-.004 0-.01-.003-.016-.003zM92.9 95.314H64.864c-3.514 0-6.372-2.994-6.372-6.675v-1.335h40.78v1.335c0 3.68-2.859 6.675-6.372 6.675zM58.492 36.577h40.78v48.057h-40.78V36.577zm40.78-2.67h-40.78v-5.339h40.78v5.339zM92.9 100.654H64.864c-3.082 0-5.656-2.304-6.245-5.353 1.611 1.656 3.816 2.683 6.245 2.683H92.9c2.429 0 4.633-1.027 6.244-2.683-.589 3.049-3.163 5.353-6.244 5.353zm6.372-74.756h-40.78v-.002c0-2.945 2.286-5.34 5.098-5.34h30.572l.012.002c2.811 0 5.098 2.395 5.098 5.34z" fill="#A16AFC"/><path d="M94.174 17.886H63.59c-4.216 0-7.646 3.592-7.646 8.01v68.083c0 5.152 4.003 9.345 8.92 9.345H92.9c4.918 0 8.92-4.193 8.92-9.345V25.9c0-4.413-3.421-8-7.63-8.01-.004 0-.01-.003-.016-.003v0zM92.9 95.314H64.864c-3.514 0-6.372-2.994-6.372-6.675v-1.335h40.78v1.335c0 3.68-2.859 6.675-6.372 6.675zM58.492 36.577h40.78v48.057h-40.78V36.577zm40.78-2.67h-40.78v-5.339h40.78v5.339zM92.9 100.654H64.864c-3.082 0-5.656-2.304-6.245-5.353 1.611 1.656 3.816 2.683 6.245 2.683H92.9c2.429 0 4.633-1.027 6.244-2.683-.589 3.049-3.163 5.353-6.244 5.353zm6.372-74.756h-40.78v-.002c0-2.945 2.286-5.34 5.098-5.34h30.572l.012.002c2.811 0 5.098 2.395 5.098 5.34z" stroke="#1E1E1E" stroke-width="1.5" mask="url(#d)"/></g><g filter="url(#filter5_d)"><mask id="e" fill="#fff"><path d="M82.705 91.31c0-2.209-1.715-4.006-3.823-4.006-2.108 0-3.823 1.797-3.823 4.005s1.715 4.005 3.823 4.005c2.108 0 3.823-1.797 3.823-4.005zm-3.823 1.334c-.704 0-1.275-.598-1.275-1.335s.571-1.335 1.275-1.335c.703 0 1.274.598 1.274 1.335s-.57 1.335-1.274 1.335z"/></mask><path d="M82.705 91.31c0-2.209-1.715-4.006-3.823-4.006-2.108 0-3.823 1.797-3.823 4.005s1.715 4.005 3.823 4.005c2.108 0 3.823-1.797 3.823-4.005zm-3.823 1.334c-.704 0-1.275-.598-1.275-1.335s.571-1.335 1.275-1.335c.703 0 1.274.598 1.274 1.335s-.57 1.335-1.274 1.335z" fill="#A16AFC"/><path d="M82.705 91.31c0-2.209-1.715-4.006-3.823-4.006-2.108 0-3.823 1.797-3.823 4.005s1.715 4.005 3.823 4.005c2.108 0 3.823-1.797 3.823-4.005zm-3.823 1.334c-.704 0-1.275-.598-1.275-1.335s.571-1.335 1.275-1.335c.703 0 1.274.598 1.274 1.335s-.57 1.335-1.274 1.335z" stroke="#1E1E1E" stroke-width="1.5" mask="url(#e)"/></g><g filter="url(#filter6_d)"><mask id="f" fill="#fff"><path d="M63.593 32.57h3.822c.704 0 1.274-.596 1.274-1.335 0-.738-.57-1.335-1.274-1.335h-3.822c-.705 0-1.275.597-1.275 1.335 0 .739.57 1.335 1.275 1.335z"/></mask><path d="M63.593 32.57h3.822c.704 0 1.274-.596 1.274-1.335 0-.738-.57-1.335-1.274-1.335h-3.822c-.705 0-1.275.597-1.275 1.335 0 .739.57 1.335 1.275 1.335z" fill="#A16AFC"/><path d="M63.593 32.57h3.822c.704 0 1.274-.596 1.274-1.335 0-.738-.57-1.335-1.274-1.335h-3.822c-.705 0-1.275.597-1.275 1.335 0 .739.57 1.335 1.275 1.335z" stroke="#1E1E1E" stroke-width="1.5" mask="url(#f)"/></g><g filter="url(#filter7_d)"><mask id="g" fill="#fff"><path d="M72.512 32.57h3.822c.704 0 1.274-.596 1.274-1.335 0-.738-.57-1.335-1.275-1.335h-3.821c-.705 0-1.275.597-1.275 1.335 0 .739.57 1.335 1.275 1.335z"/></mask><path d="M72.512 32.57h3.822c.704 0 1.274-.596 1.274-1.335 0-.738-.57-1.335-1.275-1.335h-3.821c-.705 0-1.275.597-1.275 1.335 0 .739.57 1.335 1.275 1.335z" fill="#A16AFC"/><path d="M72.512 32.57h3.822c.704 0 1.274-.596 1.274-1.335 0-.738-.57-1.335-1.275-1.335h-3.821c-.705 0-1.275.597-1.275 1.335 0 .739.57 1.335 1.275 1.335z" stroke="#1E1E1E" stroke-width="1.5" mask="url(#g)"/></g><g filter="url(#filter8_d)"><mask id="h" fill="#fff"><path d="M81.432 32.57h3.821c.705 0 1.275-.596 1.275-1.335 0-.738-.57-1.335-1.275-1.335h-3.821c-.705 0-1.275.597-1.275 1.335 0 .739.57 1.335 1.275 1.335z"/></mask><path d="M81.432 32.57h3.821c.705 0 1.275-.596 1.275-1.335 0-.738-.57-1.335-1.275-1.335h-3.821c-.705 0-1.275.597-1.275 1.335 0 .739.57 1.335 1.275 1.335z" fill="#A16AFC"/><path d="M81.432 32.57h3.821c.705 0 1.275-.596 1.275-1.335 0-.738-.57-1.335-1.275-1.335h-3.821c-.705 0-1.275.597-1.275 1.335 0 .739.57 1.335 1.275 1.335z" stroke="#1E1E1E" stroke-width="1.5" mask="url(#h)"/></g><g filter="url(#filter9_d)"><mask id="i" fill="#fff"><path d="M90.35 32.57h3.822c.705 0 1.275-.596 1.275-1.335 0-.738-.57-1.335-1.275-1.335H90.35c-.704 0-1.274.597-1.274 1.335 0 .739.57 1.335 1.275 1.335z"/></mask><path d="M90.35 32.57h3.822c.705 0 1.275-.596 1.275-1.335 0-.738-.57-1.335-1.275-1.335H90.35c-.704 0-1.274.597-1.274 1.335 0 .739.57 1.335 1.275 1.335z" fill="#A16AFC"/><path d="M90.35 32.57h3.822c.705 0 1.275-.596 1.275-1.335 0-.738-.57-1.335-1.275-1.335H90.35c-.704 0-1.274.597-1.274 1.335 0 .739.57 1.335 1.275 1.335z" stroke="#1E1E1E" stroke-width="1.5" mask="url(#i)"/></g><g filter="url(#filter10_d)"><mask id="j" fill="#fff"><path d="M66.14 37.91h-5.098c-.705 0-1.274.596-1.274 1.335v5.34c0 .738.57 1.334 1.274 1.334.705 0 1.274-.596 1.274-1.334V40.58h3.823c.705 0 1.275-.597 1.275-1.335 0-.739-.57-1.335-1.275-1.335z"/></mask><path d="M66.14 37.91h-5.098c-.705 0-1.274.596-1.274 1.335v5.34c0 .738.57 1.334 1.274 1.334.705 0 1.274-.596 1.274-1.334V40.58h3.823c.705 0 1.275-.597 1.275-1.335 0-.739-.57-1.335-1.275-1.335z" fill="#A16AFC"/><path d="M66.14 37.91h-5.098c-.705 0-1.274.596-1.274 1.335v5.34c0 .738.57 1.334 1.274 1.334.705 0 1.274-.596 1.274-1.334V40.58h3.823c.705 0 1.275-.597 1.275-1.335 0-.739-.57-1.335-1.275-1.335z" stroke="#1E1E1E" stroke-width="1.5" mask="url(#j)"/></g><g filter="url(#filter11_d)"><mask id="k" fill="#fff"><path d="M96.722 37.91h-5.097c-.705 0-1.274.596-1.274 1.335 0 .738.57 1.335 1.274 1.335h3.823v4.005c0 .738.57 1.334 1.274 1.334.705 0 1.275-.596 1.275-1.334v-5.34c0-.739-.57-1.335-1.275-1.335z"/></mask><path d="M96.722 37.91h-5.097c-.705 0-1.274.596-1.274 1.335 0 .738.57 1.335 1.274 1.335h3.823v4.005c0 .738.57 1.334 1.274 1.334.705 0 1.275-.596 1.275-1.334v-5.34c0-.739-.57-1.335-1.275-1.335z" fill="#A16AFC"/><path d="M96.722 37.91h-5.097c-.705 0-1.274.596-1.274 1.335 0 .738.57 1.335 1.274 1.335h3.823v4.005c0 .738.57 1.334 1.274 1.334.705 0 1.275-.596 1.275-1.334v-5.34c0-.739-.57-1.335-1.275-1.335z" stroke="#1E1E1E" stroke-width="1.5" mask="url(#k)"/></g><g filter="url(#filter12_d)"><mask id="l" fill="#fff"><path d="M66.14 80.63h-3.824v-4.005c0-.739-.57-1.335-1.274-1.335-.705 0-1.274.596-1.274 1.334v5.34c0 .739.57 1.335 1.274 1.335h5.097c.705 0 1.275-.596 1.275-1.335 0-.738-.57-1.335-1.275-1.335z"/></mask><path d="M66.14 80.63h-3.824v-4.005c0-.739-.57-1.335-1.274-1.335-.705 0-1.274.596-1.274 1.334v5.34c0 .739.57 1.335 1.274 1.335h5.097c.705 0 1.275-.596 1.275-1.335 0-.738-.57-1.335-1.275-1.335z" fill="#A16AFC"/><path d="M66.14 80.63h-3.824v-4.005c0-.739-.57-1.335-1.274-1.335-.705 0-1.274.596-1.274 1.334v5.34c0 .739.57 1.335 1.274 1.335h5.097c.705 0 1.275-.596 1.275-1.335 0-.738-.57-1.335-1.275-1.335z" stroke="#1E1E1E" stroke-width="1.5" mask="url(#l)"/></g><g filter="url(#filter13_d)"><mask id="m" fill="#fff"><path d="M96.722 75.29c-.704 0-1.274.596-1.274 1.334v4.005h-3.823c-.705 0-1.274.597-1.274 1.335 0 .739.57 1.335 1.274 1.335h5.097c.705 0 1.275-.596 1.275-1.335v-5.34c0-.738-.57-1.334-1.275-1.334z"/></mask><path d="M96.722 75.29c-.704 0-1.274.596-1.274 1.334v4.005h-3.823c-.705 0-1.274.597-1.274 1.335 0 .739.57 1.335 1.274 1.335h5.097c.705 0 1.275-.596 1.275-1.335v-5.34c0-.738-.57-1.334-1.275-1.334z" fill="#A16AFC"/><path d="M96.722 75.29c-.704 0-1.274.596-1.274 1.334v4.005h-3.823c-.705 0-1.274.597-1.274 1.335 0 .739.57 1.335 1.274 1.335h5.097c.705 0 1.275-.596 1.275-1.335v-5.34c0-.738-.57-1.334-1.275-1.334z" stroke="#1E1E1E" stroke-width="1.5" mask="url(#m)"/></g><g filter="url(#filter14_d)"><mask id="n" fill="#fff"><path d="M76.349 61.94h1.268v1.334c0 .739.57 1.335 1.274 1.335.705 0 1.274-.596 1.274-1.335v-1.333h1.281c.705 0 1.274-.597 1.274-1.335s-.57-1.335-1.274-1.335h-1.28v-1.336c0-.739-.57-1.335-1.275-1.335s-1.274.596-1.274 1.335v1.336h-1.268c-.705 0-1.275.597-1.275 1.335s.57 1.335 1.275 1.335z"/></mask><path d="M76.349 61.94h1.268v1.334c0 .739.57 1.335 1.274 1.335.705 0 1.274-.596 1.274-1.335v-1.333h1.281c.705 0 1.274-.597 1.274-1.335s-.57-1.335-1.274-1.335h-1.28v-1.336c0-.739-.57-1.335-1.275-1.335s-1.274.596-1.274 1.335v1.336h-1.268c-.705 0-1.275.597-1.275 1.335s.57 1.335 1.275 1.335z" fill="#A16AFC"/><path d="M76.349 61.94h1.268v1.334c0 .739.57 1.335 1.274 1.335.705 0 1.274-.596 1.274-1.335v-1.333h1.281c.705 0 1.274-.597 1.274-1.335s-.57-1.335-1.274-1.335h-1.28v-1.336c0-.739-.57-1.335-1.275-1.335s-1.274.596-1.274 1.335v1.336h-1.268c-.705 0-1.275.597-1.275 1.335s.57 1.335 1.275 1.335z" stroke="#1E1E1E" stroke-width="1.5" mask="url(#n)"/></g><g filter="url(#filter15_d)"><mask id="o" fill="#fff"><path d="M82.706 75.29h-5.098c0-.739-.57-1.335-1.274-1.335-.705 0-1.275.596-1.275 1.335-.704 0-1.274.596-1.274 1.334v5.34c0 .739.57 1.335 1.275 1.335h7.646c.704 0 1.274-.596 1.274-1.335v-5.34c0-.738-.57-1.334-1.274-1.334zm-1.275 5.34h-5.097v-2.67h2.574c-.703 0-1.267.596-1.267 1.335 0 .738.576 1.334 1.281 1.334.704 0 1.275-.596 1.275-1.335 0-.738-.572-1.334-1.275-1.334h2.51v2.67z"/></mask><path d="M82.706 75.29h-5.098c0-.739-.57-1.335-1.274-1.335-.705 0-1.275.596-1.275 1.335-.704 0-1.274.596-1.274 1.334v5.34c0 .739.57 1.335 1.275 1.335h7.646c.704 0 1.274-.596 1.274-1.335v-5.34c0-.738-.57-1.334-1.274-1.334zm-1.275 5.34h-5.097v-2.67h2.574c-.703 0-1.267.596-1.267 1.335 0 .738.576 1.334 1.281 1.334.704 0 1.275-.596 1.275-1.335 0-.738-.572-1.334-1.275-1.334h2.51v2.67z" fill="#A16AFC"/><path d="M82.706 75.29h-5.098c0-.739-.57-1.335-1.274-1.335-.705 0-1.275.596-1.275 1.335-.704 0-1.274.596-1.274 1.334v5.34c0 .739.57 1.335 1.275 1.335h7.646c.704 0 1.274-.596 1.274-1.335v-5.34c0-.738-.57-1.334-1.274-1.334zm-1.275 5.34h-5.097v-2.67h2.574c-.703 0-1.267.596-1.267 1.335 0 .738.576 1.334 1.281 1.334.704 0 1.275-.596 1.275-1.335 0-.738-.572-1.334-1.275-1.334h2.51v2.67z" stroke="#1E1E1E" stroke-width="1.5" mask="url(#o)"/></g></g><defs><filter id="filter8_d" x="76.157" y="28.9" width="14.37" height="10.67" filterUnits="userSpaceOnUse" color-interpolation-filters="sRGB"><feFlood flood-opacity="0" result="BackgroundImageFix"/><feColorMatrix in="SourceAlpha" values="0 0 0 0 0 0 0 0 0 0 0 0 0 0 0 0 0 0 127 0"/><feOffset dy="3"/><feGaussianBlur stdDeviation="2"/><feColorMatrix values="0 0 0 0 0 0 0 0 0 0 0 0 0 0 0 0 0 0 0.35 0"/><feBlend in2="BackgroundImageFix" result="effect1_dropShadow"/><feBlend in="SourceGraphic" in2="effect1_dropShadow" result="shape"/></filter><filter id="filter0_d" x=".484" y=".34" width="146.912" height="126.075" filterUnits="userSpaceOnUse" color-interpolation-filters="sRGB"><feFlood flood-opacity="0" result="BackgroundImageFix"/><feColorMatrix in="SourceAlpha" values="0 0 0 0 0 0 0 0 0 0 0 0 0 0 0 0 0 0 127 0"/><feOffset dy="4"/><feGaussianBlur stdDeviation="2"/><feColorMatrix values="0 0 0 0 0 0 0 0 0 0 0 0 0 0 0 0 0 0 0.25 0"/><feBlend in2="BackgroundImageFix" result="effect1_dropShadow"/><feBlend in="SourceGraphic" in2="effect1_dropShadow" result="shape"/></filter><filter id="filter2_d" x="69.818" y="20.891" width="10.555" height="10.67" filterUnits="userSpaceOnUse" color-interpolation-filters="sRGB"><feFlood flood-opacity="0" result="BackgroundImageFix"/><feColorMatrix in="SourceAlpha" values="0 0 0 0 0 0 0 0 0 0 0 0 0 0 0 0 0 0 127 0"/><feOffset dy="3"/><feGaussianBlur stdDeviation="2"/><feColorMatrix values="0 0 0 0 0 0 0 0 0 0 0 0 0 0 0 0 0 0 0.35 0"/><feBlend in2="BackgroundImageFix" result="effect1_dropShadow"/><feBlend in="SourceGraphic" in2="effect1_dropShadow" result="shape"/></filter><filter id="filter3_d" x="73.608" y="20.891" width="14.372" height="10.67" filterUnits="userSpaceOnUse" color-interpolation-filters="sRGB"><feFlood flood-opacity="0" result="BackgroundImageFix"/><feColorMatrix in="SourceAlpha" values="0 0 0 0 0 0 0 0 0 0 0 0 0 0 0 0 0 0 127 0"/><feOffset dy="3"/><feGaussianBlur stdDeviation="2"/><feColorMatrix values="0 0 0 0 0 0 0 0 0 0 0 0 0 0 0 0 0 0 0.35 0"/><feBlend in2="BackgroundImageFix" result="effect1_dropShadow"/><feBlend in="SourceGraphic" in2="effect1_dropShadow" result="shape"/></filter><filter id="filter4_d" x="51.943" y="16.886" width="53.877" height="93.438" filterUnits="userSpaceOnUse" color-interpolation-filters="sRGB"><feFlood flood-opacity="0" result="BackgroundImageFix"/><feColorMatrix in="SourceAlpha" values="0 0 0 0 0 0 0 0 0 0 0 0 0 0 0 0 0 0 127 0"/><feOffset dy="3"/><feGaussianBlur stdDeviation="2"/><feColorMatrix values="0 0 0 0 0 0 0 0 0 0 0 0 0 0 0 0 0 0 0.35 0"/><feBlend in2="BackgroundImageFix" result="effect1_dropShadow"/><feBlend in="SourceGraphic" in2="effect1_dropShadow" result="shape"/></filter><filter id="filter5_d" x="71.059" y="86.304" width="15.646" height="16.01" filterUnits="userSpaceOnUse" color-interpolation-filters="sRGB"><feFlood flood-opacity="0" result="BackgroundImageFix"/><feColorMatrix in="SourceAlpha" values="0 0 0 0 0 0 0 0 0 0 0 0 0 0 0 0 0 0 127 0"/><feOffset dy="3"/><feGaussianBlur stdDeviation="2"/><feColorMatrix values="0 0 0 0 0 0 0 0 0 0 0 0 0 0 0 0 0 0 0.35 0"/><feBlend in2="BackgroundImageFix" result="effect1_dropShadow"/><feBlend in="SourceGraphic" in2="effect1_dropShadow" result="shape"/></filter><filter id="filter6_d" x="58.318" y="28.9" width="14.37" height="10.67" filterUnits="userSpaceOnUse" color-interpolation-filters="sRGB"><feFlood flood-opacity="0" result="BackgroundImageFix"/><feColorMatrix in="SourceAlpha" values="0 0 0 0 0 0 0 0 0 0 0 0 0 0 0 0 0 0 127 0"/><feOffset dy="3"/><feGaussianBlur stdDeviation="2"/><feColorMatrix values="0 0 0 0 0 0 0 0 0 0 0 0 0 0 0 0 0 0 0.35 0"/><feBlend in2="BackgroundImageFix" result="effect1_dropShadow"/><feBlend in="SourceGraphic" in2="effect1_dropShadow" result="shape"/></filter><filter id="filter7_d" x="67.237" y="28.9" width="14.37" height="10.67" filterUnits="userSpaceOnUse" color-interpolation-filters="sRGB"><feFlood flood-opacity="0" result="BackgroundImageFix"/><feColorMatrix in="SourceAlpha" values="0 0 0 0 0 0 0 0 0 0 0 0 0 0 0 0 0 0 127 0"/><feOffset dy="3"/><feGaussianBlur stdDeviation="2"/><feColorMatrix values="0 0 0 0 0 0 0 0 0 0 0 0 0 0 0 0 0 0 0.35 0"/><feBlend in2="BackgroundImageFix" result="effect1_dropShadow"/><feBlend in="SourceGraphic" in2="effect1_dropShadow" result="shape"/></filter><filter id="filter1_d" x="51.943" y="17.886" width="53.877" height="93.438" filterUnits="userSpaceOnUse" color-interpolation-filters="sRGB"><feFlood flood-opacity="0" result="BackgroundImageFix"/><feColorMatrix in="SourceAlpha" values="0 0 0 0 0 0 0 0 0 0 0 0 0 0 0 0 0 0 127 0"/><feOffset dy="4"/><feGaussianBlur stdDeviation="2"/><feColorMatrix values="0 0 0 0 0 0 0 0 0 0 0 0 0 0 0 0 0 0 0.25 0"/><feBlend in2="BackgroundImageFix" result="effect1_dropShadow"/><feBlend in="SourceGraphic" in2="effect1_dropShadow" result="shape"/></filter><filter id="filter9_d" x="85.076" y="28.9" width="14.37" height="10.67" filterUnits="userSpaceOnUse" color-interpolation-filters="sRGB"><feFlood flood-opacity="0" result="BackgroundImageFix"/><feColorMatrix in="SourceAlpha" values="0 0 0 0 0 0 0 0 0 0 0 0 0 0 0 0 0 0 127 0"/><feOffset dy="3"/><feGaussianBlur stdDeviation="2"/><feColorMatrix values="0 0 0 0 0 0 0 0 0 0 0 0 0 0 0 0 0 0 0.35 0"/><feBlend in2="BackgroundImageFix" result="effect1_dropShadow"/><feBlend in="SourceGraphic" in2="effect1_dropShadow" result="shape"/></filter><filter id="filter10_d" x="55.768" y="36.91" width="15.646" height="16.01" filterUnits="userSpaceOnUse" color-interpolation-filters="sRGB"><feFlood flood-opacity="0" result="BackgroundImageFix"/><feColorMatrix in="SourceAlpha" values="0 0 0 0 0 0 0 0 0 0 0 0 0 0 0 0 0 0 127 0"/><feOffset dy="3"/><feGaussianBlur stdDeviation="2"/><feColorMatrix values="0 0 0 0 0 0 0 0 0 0 0 0 0 0 0 0 0 0 0.35 0"/><feBlend in2="BackgroundImageFix" result="effect1_dropShadow"/><feBlend in="SourceGraphic" in2="effect1_dropShadow" result="shape"/></filter><filter id="filter11_d" x="86.351" y="36.91" width="15.646" height="16.01" filterUnits="userSpaceOnUse" color-interpolation-filters="sRGB"><feFlood flood-opacity="0" result="BackgroundImageFix"/><feColorMatrix in="SourceAlpha" values="0 0 0 0 0 0 0 0 0 0 0 0 0 0 0 0 0 0 127 0"/><feOffset dy="3"/><feGaussianBlur stdDeviation="2"/><feColorMatrix values="0 0 0 0 0 0 0 0 0 0 0 0 0 0 0 0 0 0 0.35 0"/><feBlend in2="BackgroundImageFix" result="effect1_dropShadow"/><feBlend in="SourceGraphic" in2="effect1_dropShadow" result="shape"/></filter><filter id="filter12_d" x="55.768" y="74.29" width="15.646" height="16.01" filterUnits="userSpaceOnUse" color-interpolation-filters="sRGB"><feFlood flood-opacity="0" result="BackgroundImageFix"/><feColorMatrix in="SourceAlpha" values="0 0 0 0 0 0 0 0 0 0 0 0 0 0 0 0 0 0 127 0"/><feOffset dy="3"/><feGaussianBlur stdDeviation="2"/><feColorMatrix values="0 0 0 0 0 0 0 0 0 0 0 0 0 0 0 0 0 0 0.35 0"/><feBlend in2="BackgroundImageFix" result="effect1_dropShadow"/><feBlend in="SourceGraphic" in2="effect1_dropShadow" result="shape"/></filter><filter id="filter13_d" x="86.351" y="74.29" width="15.646" height="16.01" filterUnits="userSpaceOnUse" color-interpolation-filters="sRGB"><feFlood flood-opacity="0" result="BackgroundImageFix"/><feColorMatrix in="SourceAlpha" values="0 0 0 0 0 0 0 0 0 0 0 0 0 0 0 0 0 0 127 0"/><feOffset dy="3"/><feGaussianBlur stdDeviation="2"/><feColorMatrix values="0 0 0 0 0 0 0 0 0 0 0 0 0 0 0 0 0 0 0.35 0"/><feBlend in2="BackgroundImageFix" result="effect1_dropShadow"/><feBlend in="SourceGraphic" in2="effect1_dropShadow" result="shape"/></filter><filter id="filter14_d" x="71.074" y="55.6" width="15.646" height="16.01" filterUnits="userSpaceOnUse" color-interpolation-filters="sRGB"><feFlood flood-opacity="0" result="BackgroundImageFix"/><feColorMatrix in="SourceAlpha" values="0 0 0 0 0 0 0 0 0 0 0 0 0 0 0 0 0 0 127 0"/><feOffset dy="3"/><feGaussianBlur stdDeviation="2"/><feColorMatrix values="0 0 0 0 0 0 0 0 0 0 0 0 0 0 0 0 0 0 0.35 0"/><feBlend in2="BackgroundImageFix" result="effect1_dropShadow"/><feBlend in="SourceGraphic" in2="effect1_dropShadow" result="shape"/></filter><filter id="filter15_d" x="69.785" y="72.955" width="18.195" height="17.345" filterUnits="userSpaceOnUse" color-interpolation-filters="sRGB"><feFlood flood-opacity="0" result="BackgroundImageFix"/><feColorMatrix in="SourceAlpha" values="0 0 0 0 0 0 0 0 0 0 0 0 0 0 0 0 0 0 127 0"/><feOffset dy="3"/><feGaussianBlur stdDeviation="2"/><feColorMatrix values="0 0 0 0 0 0 0 0 0 0 0 0 0 0 0 0 0 0 0.35 0"/><feBlend in2="BackgroundImageFix" result="effect1_dropShadow"/><feBlend in="SourceGraphic" in2="effect1_dropShadow" result="shape"/></filter><linearGradient id="paint0_linear" x1="133.928" y1="43.423" x2="32.322" y2="65.449" gradientUnits="userSpaceOnUse"><stop stop-opacity="0"/><stop offset=".771" stop-color="#A16AFC"/></linearGradient></defs></svg>