<svg width="148" height="127" viewBox="0 -12 148 146" fill="none" xmlns="http://www.w3.org/2000/svg"><g filter="url(#filter0_d)"><mask id="a" fill="#fff"><path d="M28.755 27.584a3 3 0 011.639-2.674L77.889.726a3 3 0 012.637-.042l51.593 24.25a3 3 0 011.724 2.715v63.9a3 3 0 01-1.743 2.724l-51.593 23.815a2.999 2.999 0 01-2.6-.041l-47.494-23.75a3 3 0 01-1.658-2.683v-64.03z"/></mask><path d="M28.755 27.584a3 3 0 011.639-2.674L77.889.726a3 3 0 012.637-.042l51.593 24.25a3 3 0 011.724 2.715v63.9a3 3 0 01-1.743 2.724l-51.593 23.815a2.999 2.999 0 01-2.6-.041l-47.494-23.75a3 3 0 01-1.658-2.683v-64.03z" stroke="url(#paint0_linear)" stroke-width="4" mask="url(#a)"/></g><g filter="url(#filter1_d)"><path d="M59.173 69.096c-1.747.934-3.7 1.4-5.86 1.4-1.094 0-2.1-.173-3.02-.52a7.207 7.207 0 01-2.36-1.5 7.077 7.077 0 01-1.54-2.34c-.374-.906-.56-1.913-.56-3.02 0-1.133.186-2.16.56-3.08.373-.933.886-1.726 1.54-2.38a6.799 6.799 0 012.36-1.5c.92-.36 1.926-.54 3.02-.54 1.08 0 2.093.134 3.04.4a6.16 6.16 0 012.54 1.38l-1.86 1.88a4.648 4.648 0 00-1.66-1.02c-.64-.24-1.32-.36-2.04-.36-.734 0-1.4.134-2 .4a4.4 4.4 0 00-1.52 1.08c-.427.454-.76.987-1 1.6a5.667 5.667 0 00-.34 1.98c0 .76.113 1.46.34 2.1.24.64.573 1.194 1 1.66a4.61 4.61 0 001.52 1.1c.6.267 1.266.4 2 .4.64 0 1.24-.06 1.8-.18a5.133 5.133 0 001.52-.56v-3.34h-2.9v-2.28h5.42v7.24zm16.226-4.16c0 .854-.147 1.627-.44 2.32a5.202 5.202 0 01-1.2 1.74 5.406 5.406 0 01-1.8 1.12 6.536 6.536 0 01-2.26.38 6.536 6.536 0 01-2.26-.38 5.635 5.635 0 01-1.82-1.12 5.202 5.202 0 01-1.2-1.74c-.28-.693-.42-1.466-.42-2.32v-8.96h2.52v8.88c0 .347.053.714.16 1.1.107.374.28.72.52 1.04.253.32.58.587.98.8.413.2.92.3 1.52.3s1.1-.1 1.5-.3c.413-.213.74-.48.98-.8.253-.32.433-.666.54-1.04a4.12 4.12 0 00.16-1.1v-8.88h2.52v8.96zm14.714-5.64c-.52-.56-1.027-.933-1.52-1.12a4 4 0 00-1.46-.28c-.734 0-1.4.134-2 .4a4.4 4.4 0 00-1.52 1.08c-.427.454-.76.987-1 1.6a5.667 5.667 0 00-.34 1.98c0 .76.113 1.46.34 2.1.24.64.573 1.194 1 1.66a4.61 4.61 0 001.52 1.1c.6.267 1.266.4 2 .4.573 0 1.126-.133 1.66-.4.546-.28 1.053-.72 1.52-1.32l2.08 1.48c-.64.88-1.42 1.52-2.34 1.92-.92.4-1.9.6-2.94.6-1.094 0-2.1-.173-3.02-.52a7.207 7.207 0 01-2.36-1.5 7.077 7.077 0 01-1.54-2.34c-.374-.906-.56-1.913-.56-3.02 0-1.133.186-2.16.56-3.08.373-.933.886-1.726 1.54-2.38a6.799 6.799 0 012.36-1.5c.92-.36 1.926-.54 3.02-.54.96 0 1.846.174 2.66.52.826.334 1.593.907 2.3 1.72l-1.96 1.44zm15.591 0c-.52-.56-1.027-.933-1.52-1.12a4.001 4.001 0 00-1.46-.28c-.733 0-1.4.134-2 .4a4.396 4.396 0 00-1.52 1.08c-.427.454-.76.987-1 1.6a5.667 5.667 0 00-.34 1.98c0 .76.113 1.46.34 2.1.24.64.573 1.194 1 1.66a4.63 4.63 0 001.52 1.1c.6.267 1.267.4 2 .4.573 0 1.127-.133 1.66-.4.547-.28 1.053-.72 1.52-1.32l2.08 1.48c-.64.88-1.42 1.52-2.34 1.92-.92.4-1.9.6-2.94.6-1.093 0-2.1-.173-3.02-.52a7.207 7.207 0 01-2.36-1.5 7.077 7.077 0 01-1.54-2.34c-.373-.906-.56-1.913-.56-3.02 0-1.133.187-2.16.56-3.08.373-.933.887-1.726 1.54-2.38a6.799 6.799 0 012.36-1.5c.92-.36 1.927-.54 3.02-.54.96 0 1.847.174 2.66.52.827.334 1.593.907 2.3 1.72l-1.96 1.44zm5.811-3.32h2.52v14.16h-2.52v-14.16z" fill="#1E1E1E"/><path d="M59.173 69.096l.47.882.53-.282v-.6h-1zm-8.88.88l-.37.93.009.003.008.003.353-.936zm-2.36-1.5l-.708.707.008.008.007.007.693-.722zm-1.54-2.34l.924-.38-.924.38zm0-6.1l.926.376.002-.004-.928-.372zm1.54-2.38l-.7-.714-.008.007.708.707zm2.36-1.5l.357.934.007-.003-.364-.93zm6.06-.14l-.272.963.013.003.259-.966zm2.54 1.38l.71.703.74-.748-.784-.7-.666.745zm-1.86 1.88l-.697.718.71.69.697-.704-.71-.704zm-1.66-1.02l-.351.937.006.002.345-.939zm-4.04.04l.396.918.01-.004-.406-.914zm-1.52 1.08l.728.686.005-.006.005-.005-.738-.675zm-1 1.6l-.932-.364-.003.009-.003.009.938.346zm0 4.08l-.943.334.003.009.003.008.937-.35zm1 1.66l-.738.675.738-.675zm1.52 1.1l-.414.91.008.004.406-.914zm3.8.22l-.205-.979-.005.001.21.978zm1.52-.56l.499.867.5-.289v-.578h-1zm0-3.34h1v-1h-1v1zm-2.9 0h-1v1h1v-1zm0-2.28v-1h-1v1h1zm5.42 0h1v-1h-1v1zm-.472 6.358c-1.589.85-3.378 1.282-5.388 1.282v2c2.309 0 4.426-.5 6.33-1.518l-.942-1.764zm-5.388 1.282c-.987 0-1.872-.156-2.668-.456l-.705 1.872c1.045.394 2.172.584 3.373.584v-2zm-2.651-.45a6.208 6.208 0 01-2.037-1.291l-1.385 1.443a8.204 8.204 0 002.684 1.708l.738-1.86zM48.64 67.77a6.078 6.078 0 01-1.323-2.014l-1.85.762a8.078 8.078 0 001.758 2.666l1.415-1.414zm-1.323-2.014c-.317-.77-.484-1.646-.484-2.639h-2c0 1.22.206 2.359.635 3.401l1.85-.761zm-.484-2.639c0-1.022.168-1.919.486-2.704l-1.853-.752c-.428 1.055-.633 2.212-.633 3.456h2zm.488-2.708c.328-.82.77-1.495 1.319-2.045l-1.415-1.414c-.757.757-1.342 1.668-1.76 2.716l1.856.743zm1.312-2.038a5.8 5.8 0 012.017-1.28l-.715-1.868a7.795 7.795 0 00-2.702 1.72l1.4 1.428zm2.024-1.282c.792-.31 1.674-.472 2.656-.472v-2c-1.205 0-2.337.199-3.385.609l.729 1.862zm2.656-.472c.997 0 1.918.123 2.768.363l.543-1.925a12.167 12.167 0 00-3.311-.438v2zm2.781.366c.792.212 1.5.595 2.133 1.16l1.332-1.492a7.158 7.158 0 00-2.948-1.6l-.517 1.932zm2.088-.29l-1.86 1.88 1.421 1.407 1.86-1.88-1.421-1.406zm-.453 1.867a5.646 5.646 0 00-2.012-1.241l-.69 1.877a3.65 3.65 0 011.31.799l1.392-1.435zm-2.005-1.24a6.762 6.762 0 00-2.391-.423v2c.606 0 1.167.1 1.689.297l.702-1.873zm-2.391-.423c-.857 0-1.664.157-2.407.486l.813 1.828a3.883 3.883 0 011.594-.314v-2zm-2.397.482a5.395 5.395 0 00-1.861 1.324l1.476 1.349c.33-.361.72-.639 1.178-.837l-.793-1.836zm-1.852 1.313a5.927 5.927 0 00-1.203 1.92l1.863.73c.196-.502.463-.924.797-1.28l-1.457-1.37zm-1.21 1.939a6.665 6.665 0 00-.401 2.326h2c0-.598.095-1.14.278-1.633l-1.876-.693zm-.401 2.326c0 .86.128 1.675.397 2.434l1.885-.668a5.254 5.254 0 01-.282-1.766h-2zm.403 2.451c.281.75.679 1.416 1.199 1.984l1.476-1.35a4.068 4.068 0 01-.802-1.336l-1.873.702zm1.199 1.984a5.635 5.635 0 001.844 1.336l.827-1.821a3.637 3.637 0 01-1.195-.865l-1.476 1.35zm1.851 1.339c.742.33 1.55.486 2.407.486v-2c-.61 0-1.136-.11-1.594-.314l-.813 1.828zm2.407.486c.702 0 1.373-.066 2.01-.202l-.42-1.956a7.58 7.58 0 01-1.59.158v2zm2.005-.201a6.133 6.133 0 001.814-.672l-.998-1.733c-.336.193-.74.346-1.226.447l.41 1.958zm2.315-1.539v-3.34h-2v3.34h2zm-1-4.34h-2.9v2h2.9v-2zm-1.9 1v-2.28h-2v2.28h2zm-1-1.28h5.42v-2h-5.42v2zm4.42-1v7.24h2v-7.24h-2zm16.786 5.4l.918.396.003-.006-.921-.39zm-1.2 1.74l-.688-.726.688.726zm-1.8 1.12l.343.94.008-.003.008-.003-.359-.934zm-4.52 0l-.359.934.008.003.008.002.343-.939zm-1.82-1.12l-.688.726.01.009.678-.735zm-1.2-1.74l-.927.375.004.01.005.011.918-.396zm-.42-11.28v-1h-1v1h1zm2.52 0h1v-1h-1v1zm.16 9.98l-.964.266.002.009.962-.275zm.52 1.04l-.8.6.008.01.008.01.784-.62zm.98.8l-.47.883.017.009.017.008.436-.9zm3.02 0l.447.895.012-.006-.459-.889zm.98-.8l-.784-.62-.008.01-.008.01.8.6zm.54-1.04l.962.275.002-.009-.964-.266zm.16-9.98v-1h-1v1h1zm2.52 0h1v-1h-1v1zm-1 8.96c0 .737-.126 1.376-.361 1.93l1.842.78c.352-.832.519-1.74.519-2.71h-2zm-.358 1.924a4.205 4.205 0 01-.97 1.41l1.376 1.452a6.202 6.202 0 001.43-2.07l-1.836-.792zm-.97 1.41c-.405.385-.892.69-1.471.913l.718 1.867a6.406 6.406 0 002.129-1.328L73.07 68.27zm-1.455.907a5.54 5.54 0 01-1.917.32v2c.919 0 1.79-.144 2.603-.442l-.686-1.878zm-1.917.32a5.54 5.54 0 01-1.917-.32l-.686 1.878a7.519 7.519 0 002.603.441v-2zm-1.901-.314a4.637 4.637 0 01-1.5-.922l-1.357 1.47a6.636 6.636 0 002.139 1.319l.718-1.867zm-1.491-.913a4.205 4.205 0 01-.97-1.41l-1.836.792c.343.797.82 1.491 1.43 2.07l1.376-1.452zm-.96-1.388c-.226-.559-.348-1.203-.348-1.946h-2c0 .964.158 1.867.493 2.695l1.854-.75zm-.348-1.946v-8.96h-2v8.96h2zm-1-7.96h2.52v-2h-2.52v2zm1.52-1v8.88h2v-8.88h-2zm0 8.88c0 .45.07.906.196 1.366l1.928-.532a3.146 3.146 0 01-.124-.834h-2zm.198 1.375c.142.494.371.95.682 1.365l1.6-1.2a2.176 2.176 0 01-.358-.715l-1.924.55zm.698 1.386c.348.44.785.79 1.293 1.062l.942-1.765a2.076 2.076 0 01-.667-.538l-1.568 1.24zm1.328 1.08c.585.282 1.25.4 1.956.4v-2c-.494 0-.842-.084-1.084-.2l-.872 1.8zm1.956.4c.705 0 1.37-.117 1.947-.406l-.894-1.79c-.222.112-.558.195-1.053.195v2zm1.959-.412c.525-.272.977-.63 1.321-1.089l-1.6-1.2a1.812 1.812 0 01-.639.512l.918 1.777zm1.305-1.068c.33-.417.573-.88.718-1.386l-1.924-.55a1.986 1.986 0 01-.362.695l1.568 1.24zm.72-1.395a5.13 5.13 0 00.196-1.366h-2c0 .244-.038.521-.124.834l1.928.532zm.196-1.366v-8.88h-2v8.88h2zm-1-7.88h2.52v-2h-2.52v2zm1.52-1v8.96h2v-8.96h-2zm15.714 3.32l-.733.68.606.654.719-.528-.592-.806zm-1.52-1.12l-.363.932.009.004.354-.936zm-3.46.12l.396.918.01-.004-.406-.914zm-1.52 1.08l.728.686.005-.006.005-.005-.738-.675zm-1 1.6l-.932-.364-.003.009-.003.009.938.346zm0 4.08l-.943.334.003.009.003.008.937-.35zm1 1.66l-.738.675.738-.675zm1.52 1.1l-.414.91.007.004.407-.914zm3.66 0l.447.895.009-.005-.456-.89zm1.52-1.32l.58-.815-.781-.555-.589.756.79.614zm2.08 1.48l.808.588.595-.817-.824-.586-.58.815zm-2.34 1.92l.398.917-.398-.917zm-5.96.08l-.37.93.009.003.008.003.353-.936zm-2.36-1.5l-.708.707.008.008.007.007.693-.722zm-1.54-2.34l.924-.38-.924.38zm0-6.1l.926.376.002-.004-.928-.372zm1.54-2.38l-.7-.714-.008.007.708.707zm2.36-1.5l.357.934.007-.003-.364-.93zm5.68-.02l-.392.92.008.004.01.004.374-.928zm2.3 1.72l.592.806.874-.642-.712-.82-.754.656zm-1.228.76c-.58-.626-1.211-1.115-1.898-1.375l-.708 1.87c.299.114.682.372 1.14.866l1.466-1.361zm-1.89-1.372c-.59-.23-1.2-.348-1.822-.348v2a3 3 0 011.097.212l.725-1.864zm-1.822-.348c-.857 0-1.664.157-2.407.486l.813 1.828a3.883 3.883 0 011.594-.314v-2zm-2.397.482a5.395 5.395 0 00-1.861 1.324l1.476 1.349c.33-.361.72-.639 1.178-.837l-.793-1.836zm-1.852 1.313a5.927 5.927 0 00-1.203 1.92l1.863.73c.196-.502.463-.924.797-1.28l-1.457-1.37zm-1.21 1.939a6.665 6.665 0 00-.401 2.326h2c0-.598.095-1.14.278-1.633l-1.876-.693zm-.401 2.326c0 .86.128 1.675.397 2.434l1.885-.668a5.254 5.254 0 01-.282-1.766h-2zm.403 2.451c.281.75.679 1.416 1.199 1.984l1.476-1.35a4.068 4.068 0 01-.802-1.336l-1.873.702zm1.199 1.984a5.635 5.635 0 001.844 1.336l.827-1.821a3.637 3.637 0 01-1.195-.865l-1.476 1.35zm1.851 1.339c.743.33 1.55.486 2.407.486v-2c-.61 0-1.136-.11-1.594-.314l-.813 1.828zm2.407.486a4.67 4.67 0 002.107-.505l-.895-1.79c-.4.2-.8.295-1.212.295v2zm2.116-.51c.703-.36 1.317-.907 1.853-1.596l-1.579-1.228c-.397.512-.797.845-1.186 1.044l.912 1.78zm.484-1.395l2.08 1.48 1.16-1.63-2.08-1.48-1.16 1.63zm1.85.077c-.543.748-1.186 1.268-1.93 1.591l.798 1.834c1.098-.477 2.015-1.237 2.75-2.249l-1.617-1.176zm-1.93 1.591a6.295 6.295 0 01-2.54.517v2a8.293 8.293 0 003.338-.683l-.797-1.834zm-2.54.517c-.987 0-1.872-.156-2.668-.456l-.705 1.872c1.045.394 2.172.584 3.373.584v-2zm-2.651-.45a6.207 6.207 0 01-2.037-1.291l-1.385 1.443a8.204 8.204 0 002.684 1.708l.738-1.86zM82.44 67.77a6.078 6.078 0 01-1.323-2.014l-1.85.762a8.078 8.078 0 001.758 2.666l1.415-1.414zm-1.323-2.014c-.317-.77-.484-1.646-.484-2.639h-2c0 1.22.206 2.359.635 3.401l1.85-.761zm-.484-2.639c0-1.022.168-1.919.486-2.704l-1.853-.752c-.428 1.055-.633 2.212-.633 3.456h2zm.488-2.708c.328-.82.77-1.495 1.319-2.045l-1.415-1.414c-.757.757-1.342 1.668-1.76 2.716l1.856.743zm1.312-2.038a5.8 5.8 0 012.017-1.28l-.715-1.868a7.795 7.795 0 00-2.702 1.72l1.4 1.428zm2.024-1.282c.792-.31 1.674-.472 2.656-.472v-2c-1.205 0-2.337.199-3.385.609l.729 1.862zm2.656-.472c.837 0 1.588.15 2.267.44l.785-1.84a7.712 7.712 0 00-3.052-.6v2zm2.286.448c.652.263 1.294.73 1.919 1.448l1.51-1.312c-.79-.908-1.68-1.588-2.681-1.991l-.748 1.855zm2.082-.014l-1.96 1.44 1.184 1.612 1.96-1.44-1.184-1.612zm14.223 2.246l-.733.68.607.654.718-.528-.592-.806zm-1.52-1.12l-.362.932.008.004.354-.936zm-3.46.12l.396.918.01-.004-.406-.914zm-1.52 1.08l.728.686.005-.006.005-.005-.738-.675zm-1 1.6l-.931-.364-.004.009-.003.009.938.346zm0 4.08l-.943.334.003.009.004.008.936-.35zm1 1.66l-.738.675.738-.675zm1.52 1.1l-.414.91.008.004.406-.914zm3.66 0l.447.895.009-.005-.456-.89zm1.52-1.32l.58-.815-.781-.555-.588.756.789.614zm2.08 1.48l.809.588.594-.817-.823-.586-.58.815zm-2.34 1.92l.399.917-.399-.917zm-5.96.08l-.369.93.008.003.008.003.353-.936zm-2.36-1.5l-.707.707.007.008.008.007.692-.722zm-1.54-2.34l.925-.38-.925.38zm0-6.1l.927.376.002-.004-.929-.372zm1.54-2.38l-.7-.714-.007.007.707.707zm2.36-1.5l.357.934.007-.003-.364-.93zm5.68-.02l-.392.92.009.004.009.004.374-.928zm2.3 1.72l.592.806.875-.642-.712-.82-.755.656zm-1.227.76c-.581-.626-1.212-1.115-1.899-1.375l-.708 1.87c.299.114.682.372 1.141.866l1.466-1.361zm-1.891-1.372a4.993 4.993 0 00-1.822-.348v2c.364 0 .728.069 1.098.212l.724-1.864zm-1.822-.348a5.88 5.88 0 00-2.406.486l.812 1.828a3.883 3.883 0 011.594-.314v-2zm-2.396.482a5.393 5.393 0 00-1.862 1.324l1.476 1.349c.33-.361.72-.639 1.178-.837l-.792-1.836zm-1.852 1.313a5.925 5.925 0 00-1.203 1.92l1.862.73c.196-.502.463-.924.797-1.28l-1.456-1.37zm-1.21 1.939a6.665 6.665 0 00-.402 2.326h2c0-.598.096-1.14.278-1.633l-1.876-.693zm-.402 2.326c0 .86.129 1.675.397 2.434l1.886-.668a5.254 5.254 0 01-.283-1.766h-2zm.404 2.451c.28.75.678 1.416 1.198 1.984l1.476-1.35a4.068 4.068 0 01-.802-1.336l-1.872.702zm1.198 1.984a5.636 5.636 0 001.844 1.336l.828-1.821a3.641 3.641 0 01-1.196-.865l-1.476 1.35zm1.852 1.339c.742.33 1.549.486 2.406.486v-2c-.61 0-1.136-.11-1.594-.314l-.812 1.828zm2.406.486c.735 0 1.441-.172 2.107-.505l-.894-1.79c-.4.2-.801.295-1.213.295v2zm2.116-.51c.704-.36 1.318-.907 1.853-1.596l-1.578-1.228c-.398.512-.797.845-1.187 1.044l.912 1.78zm.484-1.395l2.08 1.48 1.16-1.63-2.08-1.48-1.16 1.63zm1.851.077c-.544.748-1.187 1.268-1.93 1.591l.798 1.834c1.097-.477 2.014-1.237 2.75-2.249l-1.618-1.176zm-1.93 1.591a6.292 6.292 0 01-2.541.517v2a8.297 8.297 0 003.339-.683l-.798-1.834zm-2.541.517c-.986 0-1.872-.156-2.667-.456l-.706 1.872c1.045.394 2.173.584 3.373.584v-2zm-2.651-.45a6.208 6.208 0 01-2.037-1.291l-1.385 1.443a8.204 8.204 0 002.684 1.708l.738-1.86zm-2.022-1.277a6.08 6.08 0 01-1.322-2.014l-1.85.762a8.078 8.078 0 001.758 2.666l1.414-1.414zm-1.322-2.014c-.318-.77-.485-1.646-.485-2.639h-2c0 1.22.206 2.359.635 3.401l1.85-.761zm-.485-2.639c0-1.022.168-1.919.487-2.704l-1.854-.752c-.428 1.055-.633 2.212-.633 3.456h2zm.489-2.708c.327-.82.769-1.495 1.318-2.045l-1.414-1.414c-.757.757-1.342 1.668-1.761 2.716l1.857.743zm1.31-2.038a5.8 5.8 0 012.018-1.28l-.714-1.868a7.795 7.795 0 00-2.703 1.72l1.4 1.428zm2.025-1.282c.793-.31 1.674-.472 2.656-.472v-2c-1.205 0-2.337.199-3.384.609l.728 1.862zm2.656-.472c.837 0 1.589.15 2.268.44l.784-1.84a7.713 7.713 0 00-3.052-.6v2zm2.286.448c.652.263 1.295.73 1.919 1.448l1.51-1.312c-.789-.908-1.68-1.588-2.681-1.991l-.748 1.855zm2.082-.014l-1.96 1.44 1.184 1.612 1.96-1.44-1.184-1.612zm4.443-1.074v-1h-1v1h1zm2.52 0h1v-1h-1v1zm0 14.16v1h1v-1h-1zm-2.52 0h-1v1h1v-1zm0-13.16h2.52v-2h-2.52v2zm1.52-1v14.16h2v-14.16h-2zm1 13.16h-2.52v2h2.52v-2zm-1.52 1v-14.16h-2v14.16h2z" fill="#6ABFFC"/></g><defs><filter id="filter0_d" x=".518" y=".399" width="146.784" height="125.965" filterUnits="userSpaceOnUse" color-interpolation-filters="sRGB"><feFlood flood-opacity="0" result="BackgroundImageFix"/><feColorMatrix in="SourceAlpha" values="0 0 0 0 0 0 0 0 0 0 0 0 0 0 0 0 0 0 127 0"/><feOffset dy="4"/><feGaussianBlur stdDeviation="2"/><feColorMatrix values="0 0 0 0 0 0 0 0 0 0 0 0 0 0 0 0 0 0 0.25 0"/><feBlend in2="BackgroundImageFix" result="effect1_dropShadow"/><feBlend in="SourceGraphic" in2="effect1_dropShadow" result="shape"/></filter><filter id="filter1_d" x="40.833" y="54.616" width="78.203" height="24.88" filterUnits="userSpaceOnUse" color-interpolation-filters="sRGB"><feFlood flood-opacity="0" result="BackgroundImageFix"/><feColorMatrix in="SourceAlpha" values="0 0 0 0 0 0 0 0 0 0 0 0 0 0 0 0 0 0 127 0"/><feOffset dy="4"/><feGaussianBlur stdDeviation="2"/><feColorMatrix values="0 0 0 0 0 0 0 0 0 0 0 0 0 0 0 0 0 0 0.25 0"/><feBlend in2="BackgroundImageFix" result="effect1_dropShadow"/><feBlend in="SourceGraphic" in2="effect1_dropShadow" result="shape"/></filter><linearGradient id="paint0_linear" x1="133.843" y1="43.442" x2="32.331" y2="65.448" gradientUnits="userSpaceOnUse"><stop stop-color="#6ABFFC"/><stop offset="1" stop-opacity="0"/></linearGradient></defs></svg>