<svg width="178" height="153" viewBox="0 -15 178 198" fill="none" xmlns="http://www.w3.org/2000/svg"><g filter="url(#filter0_d)"><mask id="a" fill="#fff"><path d="M34.2 33.36a3 3 0 011.639-2.674L94.37.882A3 3 0 0197.008.84l63.549 29.87a2.999 2.999 0 011.724 2.715v78.717a3 3 0 01-1.742 2.724L96.989 144.2a3.002 3.002 0 01-2.6-.04l-58.53-29.269a3 3 0 01-1.659-2.683V33.359z"/></mask><path d="M34.2 33.36a3 3 0 011.639-2.674L94.37.882A3 3 0 0197.008.84l63.549 29.87a2.999 2.999 0 011.724 2.715v78.717a3 3 0 01-1.742 2.724L96.989 144.2a3.002 3.002 0 01-2.6-.04l-58.53-29.269a3 3 0 01-1.659-2.683V33.359z" stroke="url(#paint0_linear)" stroke-width="4" mask="url(#a)"/></g><g filter="url(#filter1_d)"><mask id="b" fill="#fff"><path d="M136.394 110.806H96.99c-.7 0-1.265.594-1.265 1.325s.566 1.325 1.265 1.325h39.404c.678 0 1.229.577 1.229 1.288v1.361H56.356v-1.361c0-.711.551-1.288 1.229-1.288h34.042c.698 0 1.264-.594 1.264-1.325s-.566-1.325-1.264-1.325h-5.365L84.06 96.763l.456-.478c2.1-2.2 5.354-2.593 7.915-.957 10.848 6.927 24.109 9.186 34.781 7.536 2.779-.431 4.103-4.07 2.001-6.27L107.12 73.45l7.984-11.695c1.134-1.662.956-3.917-.423-5.362l-3.172-3.322c-1.379-1.445-3.531-1.63-5.118-.443l-.755.566c-.568.426-.699 1.253-.293 1.848a1.228 1.228 0 001.764.307l.755-.566a1.389 1.389 0 011.859.161l3.172 3.322a1.56 1.56 0 01.153 1.948l-7.739 11.337-8.267-8.66 5.682-4.257c.568-.426.699-1.253.293-1.848a1.229 1.229 0 00-1.764-.307l-6.024 4.513-11.058-11.584a1.225 1.225 0 00-1.789 0 1.37 1.37 0 000 1.873l45.046 47.188c.61.638.168 1.657-.583 1.774-9.522 1.473-22.338-.309-33.095-7.177-3.235-2.066-7.271-1.799-10.178.567l-.44-2.81c-.303-1.93-1.878-3.331-3.745-3.331h-5.074l1.111-1.163c2.875-3.012 3.436-7.702 1.365-11.405-6.177-11.05-8.166-24.42-7.107-34.593.087-.826 1.075-1.228 1.664-.612l7.223 7.566a1.224 1.224 0 001.788 0 1.37 1.37 0 000-1.873l-7.222-7.566c-2.081-2.18-5.647-.852-5.967 2.198-.472 4.531-1.33 20.536 7.44 36.219 1.489 2.664 1.09 6.033-.972 8.192l-2.9 3.037h-.651c-1.867 0-3.443 1.401-3.745 3.331l-3.132 19.983h-5.621c-2.072 0-3.758 1.767-3.758 3.938v1.979c0 1.12.87 2.031 1.939 2.031h82.448c1.069 0 1.939-.911 1.939-2.031v-1.979c0-2.171-1.687-3.938-3.759-3.938zm-67.56-19.554c.1-.643.626-1.11 1.249-1.11h9.303c.622 0 1.148.467 1.248 1.11l3.064 19.554H65.77l3.064-19.554z"/></mask><path d="M136.394 110.806H96.99c-.7 0-1.265.594-1.265 1.325s.566 1.325 1.265 1.325h39.404c.678 0 1.229.577 1.229 1.288v1.361H56.356v-1.361c0-.711.551-1.288 1.229-1.288h34.042c.698 0 1.264-.594 1.264-1.325s-.566-1.325-1.264-1.325h-5.365L84.06 96.763l.456-.478c2.1-2.2 5.354-2.593 7.915-.957 10.848 6.927 24.109 9.186 34.781 7.536 2.779-.431 4.103-4.07 2.001-6.27L107.12 73.45l7.984-11.695c1.134-1.662.956-3.917-.423-5.362l-3.172-3.322c-1.379-1.445-3.531-1.63-5.118-.443l-.755.566c-.568.426-.699 1.253-.293 1.848a1.228 1.228 0 001.764.307l.755-.566a1.389 1.389 0 011.859.161l3.172 3.322a1.56 1.56 0 01.153 1.948l-7.739 11.337-8.267-8.66 5.682-4.257c.568-.426.699-1.253.293-1.848a1.229 1.229 0 00-1.764-.307l-6.024 4.513-11.058-11.584a1.225 1.225 0 00-1.789 0 1.37 1.37 0 000 1.873l45.046 47.188c.61.638.168 1.657-.583 1.774-9.522 1.473-22.338-.309-33.095-7.177-3.235-2.066-7.271-1.799-10.178.567l-.44-2.81c-.303-1.93-1.878-3.331-3.745-3.331h-5.074l1.111-1.163c2.875-3.012 3.436-7.702 1.365-11.405-6.177-11.05-8.166-24.42-7.107-34.593.087-.826 1.075-1.228 1.664-.612l7.223 7.566a1.224 1.224 0 001.788 0 1.37 1.37 0 000-1.873l-7.222-7.566c-2.081-2.18-5.647-.852-5.967 2.198-.472 4.531-1.33 20.536 7.44 36.219 1.489 2.664 1.09 6.033-.972 8.192l-2.9 3.037h-.651c-1.867 0-3.443 1.401-3.745 3.331l-3.132 19.983h-5.621c-2.072 0-3.758 1.767-3.758 3.938v1.979c0 1.12.87 2.031 1.939 2.031h82.448c1.069 0 1.939-.911 1.939-2.031v-1.979c0-2.171-1.687-3.938-3.759-3.938zm-67.56-19.554c.1-.643.626-1.11 1.249-1.11h9.303c.622 0 1.148.467 1.248 1.11l3.064 19.554H65.77l3.064-19.554z" fill="#A16AFC"/><path d="M136.394 110.806H96.99c-.7 0-1.265.594-1.265 1.325s.566 1.325 1.265 1.325h39.404c.678 0 1.229.577 1.229 1.288v1.361H56.356v-1.361c0-.711.551-1.288 1.229-1.288h34.042c.698 0 1.264-.594 1.264-1.325s-.566-1.325-1.264-1.325h-5.365L84.06 96.763l.456-.478c2.1-2.2 5.354-2.593 7.915-.957 10.848 6.927 24.109 9.186 34.781 7.536 2.779-.431 4.103-4.07 2.001-6.27L107.12 73.45l7.984-11.695c1.134-1.662.956-3.917-.423-5.362l-3.172-3.322c-1.379-1.445-3.531-1.63-5.118-.443l-.755.566c-.568.426-.699 1.253-.293 1.848a1.228 1.228 0 001.764.307l.755-.566a1.389 1.389 0 011.859.161l3.172 3.322a1.56 1.56 0 01.153 1.948l-7.739 11.337-8.267-8.66 5.682-4.257c.568-.426.699-1.253.293-1.848a1.229 1.229 0 00-1.764-.307l-6.024 4.513-11.058-11.584a1.225 1.225 0 00-1.789 0 1.37 1.37 0 000 1.873l45.046 47.188c.61.638.168 1.657-.583 1.774-9.522 1.473-22.338-.309-33.095-7.177-3.235-2.066-7.271-1.799-10.178.567l-.44-2.81c-.303-1.93-1.878-3.331-3.745-3.331h-5.074l1.111-1.163c2.875-3.012 3.436-7.702 1.365-11.405-6.177-11.05-8.166-24.42-7.107-34.593.087-.826 1.075-1.228 1.664-.612l7.223 7.566a1.224 1.224 0 001.788 0 1.37 1.37 0 000-1.873l-7.222-7.566c-2.081-2.18-5.647-.852-5.967 2.198-.472 4.531-1.33 20.536 7.44 36.219 1.489 2.664 1.09 6.033-.972 8.192l-2.9 3.037h-.651c-1.867 0-3.443 1.401-3.745 3.331l-3.132 19.983h-5.621c-2.072 0-3.758 1.767-3.758 3.938v1.979c0 1.12.87 2.031 1.939 2.031h82.448c1.069 0 1.939-.911 1.939-2.031v-1.979c0-2.171-1.687-3.938-3.759-3.938zm-67.56-19.554c.1-.643.626-1.11 1.249-1.11h9.303c.622 0 1.148.467 1.248 1.11l3.064 19.554H65.77l3.064-19.554z" stroke="#1E1E1E" stroke-width="1.5" mask="url(#b)"/></g><mask id="c" fill="#fff"><path d="M110.992 31.714c14.809 0 26.857 12.621 26.857 28.135 0 .913.707 1.655 1.58 1.655.873 0 1.58-.742 1.58-1.655 0-17.339-13.466-31.445-30.017-31.445-.873 0-1.58.742-1.58 1.655 0 .914.707 1.655 1.58 1.655z"/></mask><path d="M110.992 31.714c14.809 0 26.857 12.621 26.857 28.135 0 .913.707 1.655 1.58 1.655.873 0 1.58-.742 1.58-1.655 0-17.339-13.466-31.445-30.017-31.445-.873 0-1.58.742-1.58 1.655 0 .914.707 1.655 1.58 1.655z" fill="#A16AFC" stroke="#1E1E1E" stroke-width="2.5" mask="url(#c)"/><mask id="d" fill="#fff"><path d="M110.992 38.334c11.325 0 20.538 9.651 20.538 21.514 0 .914.707 1.655 1.58 1.655.873 0 1.58-.741 1.58-1.655 0-13.688-10.631-24.824-23.698-24.824-.873 0-1.58.741-1.58 1.655 0 .913.707 1.655 1.58 1.655z"/></mask><path d="M110.992 38.334c11.325 0 20.538 9.651 20.538 21.514 0 .914.707 1.655 1.58 1.655.873 0 1.58-.741 1.58-1.655 0-13.688-10.631-24.824-23.698-24.824-.873 0-1.58.741-1.58 1.655 0 .913.707 1.655 1.58 1.655z" fill="#A16AFC" stroke="#1E1E1E" stroke-width="2.5" mask="url(#d)"/><mask id="e" fill="#fff"><path d="M110.992 44.953c7.84 0 14.219 6.682 14.219 14.895 0 .914.706 1.655 1.579 1.655s1.58-.741 1.58-1.655c0-10.038-7.796-18.204-17.378-18.204-.873 0-1.58.74-1.58 1.654 0 .914.707 1.655 1.58 1.655z"/></mask><path d="M110.992 44.953c7.84 0 14.219 6.682 14.219 14.895 0 .914.706 1.655 1.579 1.655s1.58-.741 1.58-1.655c0-10.038-7.796-18.204-17.378-18.204-.873 0-1.58.74-1.58 1.654 0 .914.707 1.655 1.58 1.655z" fill="#A16AFC" stroke="#1E1E1E" stroke-width="2.5" mask="url(#e)"/><mask id="f" fill="#fff"><path d="M110.992 51.574c4.356 0 7.899 3.711 7.899 8.274 0 .914.707 1.655 1.58 1.655.873 0 1.58-.74 1.58-1.655 0-6.388-4.961-11.584-11.059-11.584-.873 0-1.58.741-1.58 1.655 0 .913.707 1.655 1.58 1.655z"/></mask><path d="M110.992 51.574c4.356 0 7.899 3.711 7.899 8.274 0 .914.707 1.655 1.58 1.655.873 0 1.58-.74 1.58-1.655 0-6.388-4.961-11.584-11.059-11.584-.873 0-1.58.741-1.58 1.655 0 .913.707 1.655 1.58 1.655z" fill="#A16AFC" stroke="#1E1E1E" stroke-width="2.5" mask="url(#f)"/><defs><filter id="filter0_d" x=".661" y=".555" width="177.149" height="151.921" filterUnits="userSpaceOnUse" color-interpolation-filters="sRGB"><feFlood flood-opacity="0" result="BackgroundImageFix"/><feColorMatrix in="SourceAlpha" values="0 0 0 0 0 0 0 0 0 0 0 0 0 0 0 0 0 0 127 0"/><feOffset dy="4"/><feGaussianBlur stdDeviation="2"/><feColorMatrix values="0 0 0 0 0 0 0 0 0 0 0 0 0 0 0 0 0 0 0.25 0"/><feBlend in2="BackgroundImageFix" result="effect1_dropShadow"/><feBlend in="SourceGraphic" in2="effect1_dropShadow" result="shape"/></filter><filter id="filter1_d" x="49.827" y="36.769" width="94.326" height="89.985" filterUnits="userSpaceOnUse" color-interpolation-filters="sRGB"><feFlood flood-opacity="0" result="BackgroundImageFix"/><feColorMatrix in="SourceAlpha" values="0 0 0 0 0 0 0 0 0 0 0 0 0 0 0 0 0 0 127 0"/><feOffset dy="4"/><feGaussianBlur stdDeviation="2"/><feColorMatrix values="0 0 0 0 0 0 0 0 0 0 0 0 0 0 0 0 0 0 0.25 0"/><feBlend in2="BackgroundImageFix" result="effect1_dropShadow"/><feBlend in="SourceGraphic" in2="effect1_dropShadow" result="shape"/></filter><linearGradient id="paint0_linear" x1="162.281" y1="53.09" x2="38.559" y2="79.911" gradientUnits="userSpaceOnUse"><stop stop-opacity="0"/><stop offset=".771" stop-color="#926EF5"/></linearGradient></defs></svg>