<svg width="166" height="143" viewBox="0 -18 166 181" fill="none" xmlns="http://www.w3.org/2000/svg"><g filter="url(#filter0_d)"><mask id="a" fill="#fff"><path d="M32.12 31.675a3 3 0 011.638-2.673l53.888-27.44a3 3 0 012.637-.042l58.519 27.506a3 3 0 011.724 2.715v72.482a3 3 0 01-1.743 2.724l-58.52 27.012a3.002 3.002 0 01-2.598-.04l-53.888-26.947a3 3 0 01-1.658-2.683V31.675z"/></mask><path d="M32.12 31.675a3 3 0 011.638-2.673l53.888-27.44a3 3 0 012.637-.042l58.519 27.506a3 3 0 011.724 2.715v72.482a3 3 0 01-1.743 2.724l-58.52 27.012a3.002 3.002 0 01-2.598-.04l-53.888-26.947a3 3 0 01-1.658-2.683V31.675z" stroke="url(#paint0_linear)" stroke-width="4" mask="url(#a)"/></g><mask id="b" fill="#fff"><path d="M136.161 45.451c-5.641.272-5.518.25-6.155.306l3.34-9.994s-10.428 4.018-13.071 4.737c-6.943-6.537-17.263-6.826-24.641-2.076-6.042 3.891-9.285 10.573-8.203 18.383-11.759-1.71-21.666-7.548-29.488-17.391l-2.474-3.113-1.849 3.556c-2.336 4.494-3.112 9.632-2.185 14.468a21.44 21.44 0 001.922 5.647l-2.122-.861-.252 3.715c-.255 3.773.945 8.178 3.21 11.781a20.801 20.801 0 002.498 3.23l-1.096-.177 1.338 4.256c1.759 5.593 5.412 9.92 10.154 12.325-4.736 2.105-8.56 3.448-14.848 5.614l-5.753 1.981 5.314 3.044c2.025 1.16 9.184 5.035 16.257 6.198 15.722 2.583 33.423.479 45.34-10.764 10.037-9.47 13.331-22.94 12.647-36.958-.104-2.122.451-4.148 1.562-5.702 2.226-3.113 8.541-12.184 8.555-12.205zm-12.756 8.908c-1.845 2.58-2.77 5.877-2.604 9.28.69 14.14-2.982 25.105-10.917 32.59-9.268 8.745-24.218 12.177-41.014 9.417-3.042-.499-6.185-1.618-8.787-2.735 5.271-1.9 9.342-3.594 15.916-6.854l9.178-4.55-10.133-.68c-4.853-.325-8.895-2.789-11.379-6.79 1.32-.08 2.59-.303 3.857-.673l9.664-2.82-9.744-2.5c-4.735-1.214-7.434-4.182-8.865-6.458a15.941 15.941 0 01-1.921-4.441c.977.274 2.116.47 3.953.66l9.02.935-7.147-5.84c-5.149-4.206-7.212-10.527-5.7-16.603 16.07 17.46 34.938 16.148 36.837 16.61-.418-4.254-.429-4.264-.538-4.67-2.433-9.006 2.898-13.58 5.302-15.128 5.022-3.233 12.993-3.72 18.514 1.607 1.193 1.15 2.805 1.602 4.314 1.209a35.044 35.044 0 003.555-1.133l-2.266 6.779 2.893.002c-.546.767-1.201 1.685-1.988 2.786z"/></mask><path d="M136.161 45.451c-5.641.272-5.518.25-6.155.306l3.34-9.994s-10.428 4.018-13.071 4.737c-6.943-6.537-17.263-6.826-24.641-2.076-6.042 3.891-9.285 10.573-8.203 18.383-11.759-1.71-21.666-7.548-29.488-17.391l-2.474-3.113-1.849 3.556c-2.336 4.494-3.112 9.632-2.185 14.468a21.44 21.44 0 001.922 5.647l-2.122-.861-.252 3.715c-.255 3.773.945 8.178 3.21 11.781a20.801 20.801 0 002.498 3.23l-1.096-.177 1.338 4.256c1.759 5.593 5.412 9.92 10.154 12.325-4.736 2.105-8.56 3.448-14.848 5.614l-5.753 1.981 5.314 3.044c2.025 1.16 9.184 5.035 16.257 6.198 15.722 2.583 33.423.479 45.34-10.764 10.037-9.47 13.331-22.94 12.647-36.958-.104-2.122.451-4.148 1.562-5.702 2.226-3.113 8.541-12.184 8.555-12.205zm-12.756 8.908c-1.845 2.58-2.77 5.877-2.604 9.28.69 14.14-2.982 25.105-10.917 32.59-9.268 8.745-24.218 12.177-41.014 9.417-3.042-.499-6.185-1.618-8.787-2.735 5.271-1.9 9.342-3.594 15.916-6.854l9.178-4.55-10.133-.68c-4.853-.325-8.895-2.789-11.379-6.79 1.32-.08 2.59-.303 3.857-.673l9.664-2.82-9.744-2.5c-4.735-1.214-7.434-4.182-8.865-6.458a15.941 15.941 0 01-1.921-4.441c.977.274 2.116.47 3.953.66l9.02.935-7.147-5.84c-5.149-4.206-7.212-10.527-5.7-16.603 16.07 17.46 34.938 16.148 36.837 16.61-.418-4.254-.429-4.264-.538-4.67-2.433-9.006 2.898-13.58 5.302-15.128 5.022-3.233 12.993-3.72 18.514 1.607 1.193 1.15 2.805 1.602 4.314 1.209a35.044 35.044 0 003.555-1.133l-2.266 6.779 2.893.002c-.546.767-1.201 1.685-1.988 2.786z" fill="#A16AFC" stroke="#1E1E1E" stroke-width="4" mask="url(#b)"/><defs><linearGradient id="paint0_linear" x1="150.526" y1="49.776" x2="36.149" y2="74.572" gradientUnits="userSpaceOnUse"><stop stop-opacity="0"/><stop offset=".771" stop-color="#A16AFC"/></linearGradient><filter id="filter0_d" x=".81" y="1.235" width="164.373" height="141" filterUnits="userSpaceOnUse" color-interpolation-filters="sRGB"><feFlood flood-opacity="0" result="BackgroundImageFix"/><feColorMatrix in="SourceAlpha" values="0 0 0 0 0 0 0 0 0 0 0 0 0 0 0 0 0 0 127 0"/><feOffset dy="4"/><feGaussianBlur stdDeviation="2"/><feColorMatrix values="0 0 0 0 0 0 0 0 0 0 0 0 0 0 0 0 0 0 0.25 0"/><feBlend in2="BackgroundImageFix" result="effect1_dropShadow"/><feBlend in="SourceGraphic" in2="effect1_dropShadow" result="shape"/></filter></defs></svg>