<svg width="313" height="268" viewBox="0 -29 313 320" fill="none" xmlns="http://www.w3.org/2000/svg"><g filter="url(#filter0_d)"><mask id="a" fill="#fff"><path d="M57.406 58.351a3 3 0 011.639-2.673L166.53.947a3 3 0 012.637-.042l116.582 54.797a2.999 2.999 0 011.724 2.715v144.441a3 3 0 01-1.743 2.724l-116.582 53.814a2.999 2.999 0 01-2.599-.041L59.064 205.607a3 3 0 01-1.658-2.683V58.351z"/></mask><path d="M57.406 58.351a3 3 0 011.639-2.673L166.53.947a3 3 0 012.637-.042l116.582 54.797a2.999 2.999 0 011.724 2.715v144.441a3 3 0 01-1.743 2.724l-116.582 53.814a2.999 2.999 0 01-2.599-.041L59.064 205.607a3 3 0 01-1.658-2.683V58.351z" stroke="url(#paint0_linear)" stroke-width="4" mask="url(#a)"/></g><g filter="url(#filter1_d)"><mask id="b" fill="#fff"><path d="M203.887 78.974c-14.551 0-25.683 20.494-31.496 55.318-5.814-34.824-16.937-55.318-31.497-55.318-24.73 0-35.997 65.971-35.997 127.266 0 2.601 2.016 4.713 4.5 4.713s4.5-2.112 4.5-4.713c0-75.879 15.964-117.839 26.997-117.839 11.213 0 26.997 33.636 26.997 108.411 0 2.602 2.016 4.714 4.5 4.714 2.483 0 4.499-2.112 4.499-4.714 0-74.775 15.785-108.411 26.997-108.411 11.042 0 26.998 41.96 26.998 117.839 0 2.601 2.015 4.713 4.499 4.713 2.484 0 4.5-2.112 4.5-4.713 0-61.295-11.267-127.266-35.997-127.266z"/></mask><path d="M203.887 78.974c-14.551 0-25.683 20.494-31.496 55.318-5.814-34.824-16.937-55.318-31.497-55.318-24.73 0-35.997 65.971-35.997 127.266 0 2.601 2.016 4.713 4.5 4.713s4.5-2.112 4.5-4.713c0-75.879 15.964-117.839 26.997-117.839 11.213 0 26.997 33.636 26.997 108.411 0 2.602 2.016 4.714 4.5 4.714 2.483 0 4.499-2.112 4.499-4.714 0-74.775 15.785-108.411 26.997-108.411 11.042 0 26.998 41.96 26.998 117.839 0 2.601 2.015 4.713 4.499 4.713 2.484 0 4.5-2.112 4.5-4.713 0-61.295-11.267-127.266-35.997-127.266z" stroke="#6ABFFC" stroke-width="3" mask="url(#b)"/></g><defs><filter id="filter0_d" x=".345" y=".62" width="311.837" height="267.052" filterUnits="userSpaceOnUse" color-interpolation-filters="sRGB"><feFlood flood-opacity="0" result="BackgroundImageFix"/><feColorMatrix in="SourceAlpha" values="0 0 0 0 0 0 0 0 0 0 0 0 0 0 0 0 0 0 127 0"/><feOffset dy="4"/><feGaussianBlur stdDeviation="2"/><feColorMatrix values="0 0 0 0 0 0 0 0 0 0 0 0 0 0 0 0 0 0 0.25 0"/><feBlend in2="BackgroundImageFix" result="effect1_dropShadow"/><feBlend in="SourceGraphic" in2="effect1_dropShadow" result="shape"/></filter><filter id="filter1_d" x="100.897" y="78.974" width="142.986" height="139.979" filterUnits="userSpaceOnUse" color-interpolation-filters="sRGB"><feFlood flood-opacity="0" result="BackgroundImageFix"/><feColorMatrix in="SourceAlpha" values="0 0 0 0 0 0 0 0 0 0 0 0 0 0 0 0 0 0 127 0"/><feOffset dy="4"/><feGaussianBlur stdDeviation="2"/><feColorMatrix values="0 0 0 0 0 0 0 0 0 0 0 0 0 0 0 0 0 0 0.25 0"/><feBlend in2="BackgroundImageFix" result="effect1_dropShadow"/><feBlend in="SourceGraphic" in2="effect1_dropShadow" result="shape"/></filter><linearGradient id="paint0_linear" x1="287.473" y1="95.257" x2="65.236" y2="143.434" gradientUnits="userSpaceOnUse"><stop stop-color="#6ABFFC"/><stop offset="1" stop-opacity="0"/></linearGradient></defs></svg>