<svg width="281" height="241" viewBox="0 -45 281 300" fill="none" xmlns="http://www.w3.org/2000/svg"><g filter="url(#filter0_d)"><mask id="a" fill="#fff"><path d="M51.748 52.81a3 3 0 011.639-2.674l96.007-48.887a3.001 3.001 0 012.638-.041L256.18 50.16a3 3 0 011.724 2.715v129.032c0 1.17-.681 2.233-1.743 2.724l-104.149 48.074a2.999 2.999 0 01-2.599-.041l-96.007-48.009a3 3 0 01-1.658-2.683V52.809z"/></mask><path d="M51.748 52.81a3 3 0 011.639-2.674l96.007-48.887a3.001 3.001 0 012.638-.041L256.18 50.16a3 3 0 011.724 2.715v129.032c0 1.17-.681 2.233-1.743 2.724l-104.149 48.074a2.999 2.999 0 01-2.599-.041l-96.007-48.009a3 3 0 01-1.658-2.683V52.809z" stroke="url(#paint0_linear)" stroke-width="4" mask="url(#a)"/></g><g filter="url(#filter1_d)"><mask id="b" fill="#fff"><path d="M143.934 120.675c1.361 0 2.465 1.157 2.465 2.584 0 1.426 1.105 2.583 2.467 2.583s2.466-1.157 2.466-2.583c-.013-3.274-1.987-6.185-4.933-7.276v-.475c0-1.428-1.104-2.584-2.465-2.584-1.363 0-2.467 1.156-2.467 2.584v.475c-3.845 1.419-5.864 5.834-4.51 9.863 1.042 3.098 3.839 5.169 6.977 5.163 1.361 0 2.465 1.157 2.465 2.584s-1.104 2.583-2.465 2.583c-1.363 0-2.467-1.156-2.467-2.583 0-1.427-1.104-2.584-2.466-2.584-1.363 0-2.467 1.157-2.467 2.584.014 3.273 1.987 6.185 4.933 7.275v.475c0 1.428 1.104 2.585 2.467 2.585 1.361 0 2.465-1.157 2.465-2.585v-.475c3.846-1.418 5.865-5.834 4.511-9.862-1.042-3.099-3.84-5.17-6.976-5.164-1.363 0-2.467-1.157-2.467-2.583 0-1.427 1.104-2.584 2.467-2.584z"/></mask><path d="M143.934 120.675c1.361 0 2.465 1.157 2.465 2.584 0 1.426 1.105 2.583 2.467 2.583s2.466-1.157 2.466-2.583c-.013-3.274-1.987-6.185-4.933-7.276v-.475c0-1.428-1.104-2.584-2.465-2.584-1.363 0-2.467 1.156-2.467 2.584v.475c-3.845 1.419-5.864 5.834-4.51 9.863 1.042 3.098 3.839 5.169 6.977 5.163 1.361 0 2.465 1.157 2.465 2.584s-1.104 2.583-2.465 2.583c-1.363 0-2.467-1.156-2.467-2.583 0-1.427-1.104-2.584-2.466-2.584-1.363 0-2.467 1.157-2.467 2.584.014 3.273 1.987 6.185 4.933 7.275v.475c0 1.428 1.104 2.585 2.467 2.585 1.361 0 2.465-1.157 2.465-2.585v-.475c3.846-1.418 5.865-5.834 4.511-9.862-1.042-3.099-3.84-5.17-6.976-5.164-1.363 0-2.467-1.157-2.467-2.583 0-1.427 1.104-2.584 2.467-2.584z" fill="#3400FE" stroke="#1E1E1E" stroke-width="1.996" mask="url(#b)"/><mask id="c" fill="#fff"><path d="M143.934 102.589c-13.621 0-24.664 11.568-24.664 25.837 0 14.268 11.043 25.835 24.664 25.835 13.62 0 24.662-11.567 24.662-25.835-.014-14.263-11.048-25.821-24.662-25.837zm0 46.505c-10.897 0-19.732-9.254-19.732-20.668 0-11.415 8.835-20.67 19.732-20.67 10.896 0 19.73 9.255 19.73 20.67-.012 11.409-8.839 20.655-19.73 20.668z"/></mask><path d="M143.934 102.589c-13.621 0-24.664 11.568-24.664 25.837 0 14.268 11.043 25.835 24.664 25.835 13.62 0 24.662-11.567 24.662-25.835-.014-14.263-11.048-25.821-24.662-25.837zm0 46.505c-10.897 0-19.732-9.254-19.732-20.668 0-11.415 8.835-20.67 19.732-20.67 10.896 0 19.73 9.255 19.73 20.67-.012 11.409-8.839 20.655-19.73 20.668z" fill="#3400FE" stroke="#1E1E1E" stroke-width="1.996" mask="url(#c)"/><mask id="d" fill="#fff"><path d="M220.542 76.847a4.74 4.74 0 00-4.809-.26c-7.826 3.717-16.35 5.54-24.94 5.334-9.865 0-24.512-4.093-38.672-8.05-13.705-3.835-26.651-7.452-35.317-7.452-10.191.036-20.238 2.524-29.366 7.273-1.66.866-2.704 2.644-2.696 4.586v7.702a57.923 57.923 0 00-7.202 3.224c-1.646.884-2.675 2.664-2.663 4.601v66.326c0 2.854 2.208 5.168 4.933 5.168.762 0 1.512-.185 2.194-.54 7.822-3.723 16.347-5.545 24.935-5.33 9.865 0 24.513 4.092 38.671 8.05 13.706 3.835 26.651 7.451 35.318 7.451 10.204-.024 20.265-2.516 29.398-7.283 1.643-.881 2.672-2.655 2.664-4.588v-7.691a59.982 59.982 0 007.17-3.211c1.659-.867 2.703-2.645 2.696-4.587V81.223c.007-1.781-.869-3.438-2.314-4.376zm-39.614 92.916c-8.02 0-20.662-3.534-34.035-7.276-14.477-4.042-29.435-8.225-39.954-8.225-9.352-.237-18.633 1.771-27.13 5.869l-.018-66.326c8.435-4.4 17.725-6.698 27.148-6.717 8.02 0 20.663 3.534 34.047 7.276 14.465 4.042 29.424 8.225 39.942 8.225 9.352.237 18.632-1.771 27.129-5.87l.016 56.581v9.746c-8.434 4.399-17.723 6.697-27.145 6.717zm32.062-19.894v-53.15c.005-1.78-.87-3.434-2.313-4.373a4.756 4.756 0 00-4.815-.259c-7.82 3.725-16.344 5.55-24.934 5.335-9.865 0-24.512-4.092-38.672-8.05-13.705-3.835-26.651-7.451-35.317-7.451a63.177 63.177 0 00-17.264 2.449v-6.066c8.43-4.391 17.713-6.69 27.129-6.718 8.02 0 20.663 3.534 34.048 7.276 14.465 4.043 29.423 8.226 39.941 8.226 9.352.232 18.63-1.774 27.13-5.865v66.321a52.136 52.136 0 01-4.933 2.325z"/></mask><path d="M220.542 76.847a4.74 4.74 0 00-4.809-.26c-7.826 3.717-16.35 5.54-24.94 5.334-9.865 0-24.512-4.093-38.672-8.05-13.705-3.835-26.651-7.452-35.317-7.452-10.191.036-20.238 2.524-29.366 7.273-1.66.866-2.704 2.644-2.696 4.586v7.702a57.923 57.923 0 00-7.202 3.224c-1.646.884-2.675 2.664-2.663 4.601v66.326c0 2.854 2.208 5.168 4.933 5.168.762 0 1.512-.185 2.194-.54 7.822-3.723 16.347-5.545 24.935-5.33 9.865 0 24.513 4.092 38.671 8.05 13.706 3.835 26.651 7.451 35.318 7.451 10.204-.024 20.265-2.516 29.398-7.283 1.643-.881 2.672-2.655 2.664-4.588v-7.691a59.982 59.982 0 007.17-3.211c1.659-.867 2.703-2.645 2.696-4.587V81.223c.007-1.781-.869-3.438-2.314-4.376zm-39.614 92.916c-8.02 0-20.662-3.534-34.035-7.276-14.477-4.042-29.435-8.225-39.954-8.225-9.352-.237-18.633 1.771-27.13 5.869l-.018-66.326c8.435-4.4 17.725-6.698 27.148-6.717 8.02 0 20.663 3.534 34.047 7.276 14.465 4.042 29.424 8.225 39.942 8.225 9.352.237 18.632-1.771 27.129-5.87l.016 56.581v9.746c-8.434 4.399-17.723 6.697-27.145 6.717zm32.062-19.894v-53.15c.005-1.78-.87-3.434-2.313-4.373a4.756 4.756 0 00-4.815-.259c-7.82 3.725-16.344 5.55-24.934 5.335-9.865 0-24.512-4.092-38.672-8.05-13.705-3.835-26.651-7.451-35.317-7.451a63.177 63.177 0 00-17.264 2.449v-6.066c8.43-4.391 17.713-6.69 27.129-6.718 8.02 0 20.663 3.534 34.048 7.276 14.465 4.043 29.423 8.226 39.941 8.226 9.352.232 18.63-1.774 27.13-5.865v66.321a52.136 52.136 0 01-4.933 2.325z" fill="#3400FE" stroke="#1E1E1E" stroke-width="1.996" mask="url(#d)"/><mask id="e" fill="#fff"><path d="M180.928 125.842h-4.932c-1.363 0-2.467 1.157-2.467 2.584s1.104 2.583 2.467 2.583h4.932c1.362 0 2.466-1.156 2.466-2.583 0-1.427-1.104-2.584-2.466-2.584z"/></mask><path d="M180.928 125.842h-4.932c-1.363 0-2.467 1.157-2.467 2.584s1.104 2.583 2.467 2.583h4.932c1.362 0 2.466-1.156 2.466-2.583 0-1.427-1.104-2.584-2.466-2.584z" fill="#3400FE" stroke="#1E1E1E" stroke-width="1.996" mask="url(#e)"/><mask id="f" fill="#fff"><path d="M111.872 125.842h-4.933c-1.363 0-2.467 1.157-2.467 2.584s1.104 2.583 2.467 2.583h4.933c1.361 0 2.465-1.156 2.465-2.583 0-1.427-1.104-2.584-2.465-2.584z"/></mask><path d="M111.872 125.842h-4.933c-1.363 0-2.467 1.157-2.467 2.584s1.104 2.583 2.467 2.583h4.933c1.361 0 2.465-1.156 2.465-2.583 0-1.427-1.104-2.584-2.465-2.584z" fill="#3400FE" stroke="#1E1E1E" stroke-width="1.996" mask="url(#f)"/></g><defs><filter id="filter0_d" x=".202" y=".923" width="280.258" height="240.058" filterUnits="userSpaceOnUse" color-interpolation-filters="sRGB"><feFlood flood-opacity="0" result="BackgroundImageFix"/><feColorMatrix in="SourceAlpha" values="0 0 0 0 0 0 0 0 0 0 0 0 0 0 0 0 0 0 127 0"/><feOffset dy="4"/><feGaussianBlur stdDeviation="2"/><feColorMatrix values="0 0 0 0 0 0 0 0 0 0 0 0 0 0 0 0 0 0 0.25 0"/><feBlend in2="BackgroundImageFix" result="effect1_dropShadow"/><feBlend in="SourceGraphic" in2="effect1_dropShadow" result="shape"/></filter><filter id="filter1_d" x="70.877" y="66.419" width="155.979" height="116.511" filterUnits="userSpaceOnUse" color-interpolation-filters="sRGB"><feFlood flood-opacity="0" result="BackgroundImageFix"/><feColorMatrix in="SourceAlpha" values="0 0 0 0 0 0 0 0 0 0 0 0 0 0 0 0 0 0 127 0"/><feOffset dy="4"/><feGaussianBlur stdDeviation="2"/><feColorMatrix values="0 0 0 0 0 0 0 0 0 0 0 0 0 0 0 0 0 0 0.25 0"/><feBlend in2="BackgroundImageFix" result="effect1_dropShadow"/><feBlend in="SourceGraphic" in2="effect1_dropShadow" result="shape"/></filter><linearGradient id="paint0_linear" x1="257.904" y1="85.688" x2="58.765" y2="128.859" gradientUnits="userSpaceOnUse"><stop stop-color="#3400FE"/><stop offset="1" stop-opacity="0"/></linearGradient></defs></svg>