<svg width="329" height="286" viewBox="0 -70 329 400" fill="none" xmlns="http://www.w3.org/2000/svg"><g filter="url(#filter0_d)"><mask id="a" fill="#fff"><path d="M59.983 62.737a3 3 0 011.624-2.666L175.028 1.536a3 3 0 012.666-.043l123.012 58.601a3 3 0 011.71 2.709v154.545a3 3 0 01-1.729 2.718l-123.012 57.549a3.001 3.001 0 01-2.628-.041L61.627 220.09a3 3 0 01-1.644-2.676V62.737z"/></mask><path d="M59.983 62.737a3 3 0 011.624-2.666L175.028 1.536a3 3 0 012.666-.043l123.012 58.601a3 3 0 011.71 2.709v154.545a3 3 0 01-1.729 2.718l-123.012 57.549a3.001 3.001 0 01-2.628-.041L61.627 220.09a3 3 0 01-1.644-2.676V62.737z" stroke="url(#paint0_linear)" stroke-width="4" mask="url(#a)"/></g><mask id="b" fill="#fff"><path d="M247.841 62.8h-14.83c-1.518 0-2.747 1.289-2.747 2.878 0 1.59 1.229 2.878 2.747 2.878h5.11a12.25 12.25 0 00-1.632 6.138v136.018c0 1.589 1.229 2.878 2.747 2.878 1.517 0 2.746-1.289 2.746-2.878V74.694c0-3.385 2.629-6.138 5.859-6.138 3.231 0 5.86 2.753 5.86 6.138v136.018c0 8.355-6.489 15.153-14.465 15.153-7.977 0-14.466-6.798-14.466-15.153V54.168c0-1.59-1.229-2.878-2.747-2.878H95.8c-1.517 0-2.747 1.288-2.747 2.878v156.544c0 11.529 8.954 20.908 19.96 20.908h126.223c11.005 0 19.959-9.379 19.959-20.908V74.694c0-6.558-5.094-11.894-11.354-11.894zM113.013 225.865c-7.976 0-14.466-6.798-14.466-15.153V57.045h120.729v153.667c0 5.957 2.392 11.341 6.221 15.153H113.013z"/></mask><path d="M247.841 62.8h-14.83c-1.518 0-2.747 1.289-2.747 2.878 0 1.59 1.229 2.878 2.747 2.878h5.11a12.25 12.25 0 00-1.632 6.138v136.018c0 1.589 1.229 2.878 2.747 2.878 1.517 0 2.746-1.289 2.746-2.878V74.694c0-3.385 2.629-6.138 5.859-6.138 3.231 0 5.86 2.753 5.86 6.138v136.018c0 8.355-6.489 15.153-14.465 15.153-7.977 0-14.466-6.798-14.466-15.153V54.168c0-1.59-1.229-2.878-2.747-2.878H95.8c-1.517 0-2.747 1.288-2.747 2.878v156.544c0 11.529 8.954 20.908 19.96 20.908h126.223c11.005 0 19.959-9.379 19.959-20.908V74.694c0-6.558-5.094-11.894-11.354-11.894zM113.013 225.865c-7.976 0-14.466-6.798-14.466-15.153V57.045h120.729v153.667c0 5.957 2.392 11.341 6.221 15.153H113.013z" fill="#A16AFC" stroke="#1E1E1E" stroke-width="3.5" mask="url(#b)"/><mask id="c" fill="#fff"><path d="M207.373 66.637h-96.922c-1.518 0-2.747 1.289-2.747 2.878V98.29c0 1.59 1.229 2.878 2.747 2.878h96.922c1.517 0 2.747-1.289 2.747-2.878V69.515c0-1.59-1.23-2.878-2.747-2.878zm-2.747 28.776h-91.428v-23.02h91.428v23.02z"/></mask><path d="M207.373 66.637h-96.922c-1.518 0-2.747 1.289-2.747 2.878V98.29c0 1.59 1.229 2.878 2.747 2.878h96.922c1.517 0 2.747-1.289 2.747-2.878V69.515c0-1.59-1.23-2.878-2.747-2.878zm-2.747 28.776h-91.428v-23.02h91.428v23.02z" fill="#A16AFC" stroke="#1E1E1E" stroke-width="3.5" mask="url(#c)"/><mask id="d" fill="#fff"><path d="M207.373 106.924h-96.922c-1.518 0-2.747 1.288-2.747 2.877 0 1.59 1.229 2.878 2.747 2.878h96.922c1.517 0 2.747-1.288 2.747-2.878 0-1.589-1.23-2.877-2.747-2.877z"/></mask><path d="M207.373 106.924h-96.922c-1.518 0-2.747 1.288-2.747 2.877 0 1.59 1.229 2.878 2.747 2.878h96.922c1.517 0 2.747-1.288 2.747-2.878 0-1.589-1.23-2.877-2.747-2.877z" fill="#A16AFC" stroke="#1E1E1E" stroke-width="3.5" mask="url(#d)"/><mask id="e" fill="#fff"><path d="M207.373 129.945h-42.967c-1.518 0-2.747 1.288-2.747 2.877 0 1.589 1.229 2.878 2.747 2.878h42.967c1.518 0 2.747-1.289 2.747-2.878 0-1.589-1.23-2.877-2.747-2.877z"/></mask><path d="M207.373 129.945h-42.967c-1.518 0-2.747 1.288-2.747 2.877 0 1.589 1.229 2.878 2.747 2.878h42.967c1.518 0 2.747-1.289 2.747-2.878 0-1.589-1.23-2.877-2.747-2.877z" fill="#A16AFC" stroke="#1E1E1E" stroke-width="3.5" mask="url(#e)"/><mask id="f" fill="#fff"><path d="M153.418 129.945h-42.967c-1.518 0-2.747 1.288-2.747 2.877 0 1.589 1.229 2.878 2.747 2.878h42.967c1.517 0 2.747-1.289 2.747-2.878 0-1.589-1.23-2.877-2.747-2.877z"/></mask><path d="M153.418 129.945h-42.967c-1.518 0-2.747 1.288-2.747 2.877 0 1.589 1.229 2.878 2.747 2.878h42.967c1.517 0 2.747-1.289 2.747-2.878 0-1.589-1.23-2.877-2.747-2.877z" fill="#A16AFC" stroke="#1E1E1E" stroke-width="3.5" mask="url(#f)"/><mask id="g" fill="#fff"><path d="M207.373 141.455h-42.967c-1.518 0-2.747 1.288-2.747 2.878 0 1.589 1.229 2.877 2.747 2.877h42.967c1.518 0 2.747-1.288 2.747-2.877 0-1.59-1.23-2.878-2.747-2.878z"/></mask><path d="M207.373 141.455h-42.967c-1.518 0-2.747 1.288-2.747 2.878 0 1.589 1.229 2.877 2.747 2.877h42.967c1.518 0 2.747-1.288 2.747-2.877 0-1.59-1.23-2.878-2.747-2.878z" fill="#A16AFC" stroke="#1E1E1E" stroke-width="3.5" mask="url(#g)"/><mask id="h" fill="#fff"><path d="M153.418 141.455h-42.967c-1.518 0-2.747 1.288-2.747 2.878 0 1.589 1.229 2.877 2.747 2.877h42.967c1.517 0 2.747-1.288 2.747-2.877 0-1.59-1.23-2.878-2.747-2.878z"/></mask><path d="M153.418 141.455h-42.967c-1.518 0-2.747 1.288-2.747 2.878 0 1.589 1.229 2.877 2.747 2.877h42.967c1.517 0 2.747-1.288 2.747-2.877 0-1.59-1.23-2.878-2.747-2.878z" fill="#A16AFC" stroke="#1E1E1E" stroke-width="3.5" mask="url(#h)"/><mask id="i" fill="#fff"><path d="M207.373 152.965h-42.967c-1.518 0-2.747 1.289-2.747 2.878 0 1.589 1.229 2.878 2.747 2.878h42.967c1.518 0 2.747-1.289 2.747-2.878 0-1.589-1.23-2.878-2.747-2.878z"/></mask><path d="M207.373 152.965h-42.967c-1.518 0-2.747 1.289-2.747 2.878 0 1.589 1.229 2.878 2.747 2.878h42.967c1.518 0 2.747-1.289 2.747-2.878 0-1.589-1.23-2.878-2.747-2.878z" fill="#A16AFC" stroke="#1E1E1E" stroke-width="3.5" mask="url(#i)"/><mask id="j" fill="#fff"><path d="M207.373 164.476h-42.967c-1.518 0-2.747 1.288-2.747 2.877 0 1.59 1.229 2.878 2.747 2.878h42.967c1.518 0 2.747-1.288 2.747-2.878 0-1.589-1.23-2.877-2.747-2.877z"/></mask><path d="M207.373 164.476h-42.967c-1.518 0-2.747 1.288-2.747 2.877 0 1.59 1.229 2.878 2.747 2.878h42.967c1.518 0 2.747-1.288 2.747-2.878 0-1.589-1.23-2.877-2.747-2.877z" fill="#A16AFC" stroke="#1E1E1E" stroke-width="3.5" mask="url(#j)"/><mask id="k" fill="#fff"><path d="M164.406 181.742h28.317c1.517 0 2.747-1.289 2.747-2.878 0-1.589-1.23-2.878-2.747-2.878h-28.317c-1.518 0-2.747 1.289-2.747 2.878 0 1.589 1.229 2.878 2.747 2.878z"/></mask><path d="M164.406 181.742h28.317c1.517 0 2.747-1.289 2.747-2.878 0-1.589-1.23-2.878-2.747-2.878h-28.317c-1.518 0-2.747 1.289-2.747 2.878 0 1.589 1.229 2.878 2.747 2.878z" fill="#A16AFC" stroke="#1E1E1E" stroke-width="3.5" mask="url(#k)"/><mask id="l" fill="#fff"><path d="M192.723 210.518h-28.317c-1.518 0-2.747 1.288-2.747 2.877 0 1.589 1.229 2.878 2.747 2.878h28.317c1.517 0 2.747-1.289 2.747-2.878 0-1.589-1.23-2.877-2.747-2.877z"/></mask><path d="M192.723 210.518h-28.317c-1.518 0-2.747 1.288-2.747 2.877 0 1.589 1.229 2.878 2.747 2.878h28.317c1.517 0 2.747-1.289 2.747-2.878 0-1.589-1.23-2.877-2.747-2.877z" fill="#A16AFC" stroke="#1E1E1E" stroke-width="3.5" mask="url(#l)"/><mask id="m" fill="#fff"><path d="M207.373 199.007h-42.967c-1.518 0-2.747 1.289-2.747 2.878 0 1.589 1.229 2.878 2.747 2.878h42.967c1.518 0 2.747-1.289 2.747-2.878 0-1.589-1.23-2.878-2.747-2.878z"/></mask><path d="M207.373 199.007h-42.967c-1.518 0-2.747 1.289-2.747 2.878 0 1.589 1.229 2.878 2.747 2.878h42.967c1.518 0 2.747-1.289 2.747-2.878 0-1.589-1.23-2.878-2.747-2.878z" fill="#A16AFC" stroke="#1E1E1E" stroke-width="3.5" mask="url(#m)"/><mask id="n" fill="#fff"><path d="M153.418 152.965h-42.967c-1.518 0-2.747 1.289-2.747 2.878v57.552c0 1.589 1.229 2.878 2.747 2.878h42.967c1.517 0 2.747-1.289 2.747-2.878v-57.552c0-1.589-1.23-2.878-2.747-2.878zm-2.747 57.553h-37.473v-51.797h37.473v51.797z"/></mask><path d="M153.418 152.965h-42.967c-1.518 0-2.747 1.289-2.747 2.878v57.552c0 1.589 1.229 2.878 2.747 2.878h42.967c1.517 0 2.747-1.289 2.747-2.878v-57.552c0-1.589-1.23-2.878-2.747-2.878zm-2.747 57.553h-37.473v-51.797h37.473v51.797z" fill="#A16AFC" stroke="#1E1E1E" stroke-width="3.5" mask="url(#n)"/><defs><linearGradient id="paint0_linear" x1="302.416" y1="102.289" x2="67.955" y2="152.438" gradientUnits="userSpaceOnUse"><stop stop-opacity="0"/><stop offset=".771" stop-color="#A16AFC"/></linearGradient><filter id="filter0_d" x=".07" y="1.202" width="328.167" height="284.696" filterUnits="userSpaceOnUse" color-interpolation-filters="sRGB"><feFlood flood-opacity="0" result="BackgroundImageFix"/><feColorMatrix in="SourceAlpha" values="0 0 0 0 0 0 0 0 0 0 0 0 0 0 0 0 0 0 127 0"/><feOffset dy="4"/><feGaussianBlur stdDeviation="2"/><feColorMatrix values="0 0 0 0 0 0 0 0 0 0 0 0 0 0 0 0 0 0 0.25 0"/><feBlend in2="BackgroundImageFix" result="effect1_dropShadow"/><feBlend in="SourceGraphic" in2="effect1_dropShadow" result="shape"/></filter></defs></svg>