<svg width="151" height="130" viewBox="0 -17 151 153" fill="none" xmlns="http://www.w3.org/2000/svg"><g filter="url(#filter0_d)"><mask id="a" fill="#fff"><path d="M29.349 28.928a3 3 0 011.638-2.673l48.624-24.76a3 3 0 012.638-.041l52.815 24.825a3 3 0 011.724 2.715v65.414a3 3 0 01-1.743 2.724l-52.816 24.38a2.999 2.999 0 01-2.6-.041L31.008 97.157a3 3 0 01-1.658-2.683V28.928z"/></mask><path d="M29.349 28.928a3 3 0 011.638-2.673l48.624-24.76a3 3 0 012.638-.041l52.815 24.825a3 3 0 011.724 2.715v65.414a3 3 0 01-1.743 2.724l-52.816 24.38a2.999 2.999 0 01-2.6-.041L31.008 97.157a3 3 0 01-1.658-2.683V28.928z" stroke="url(#paint0_linear)" stroke-width="4" mask="url(#a)"/></g><g clip-path="url(#clip0)" filter="url(#filter1_d)"><mask id="b" fill="#fff"><path d="M106.7 69.359v-2.933h.56v-3.995h.999c-.619-.901-1.749-2.605-2.323-3.924-.82-1.877-1.707-4.335-1.707-4.335v-2.495a20.36 20.36 0 012.035.245c1.432.252 2.52-1.127 2.52-1.127s-1.778.565-2.762-.377c-.585-.55-1.29-.667-1.786-.682v-.087h-.544v.102c-.022 0-.078.011-.078.011l.033 1.88.049.005v2.59h-.023s-.846 2.4-1.681 4.274c-.559 1.315-1.689 3.019-2.315 3.923h.995v3.996h.559v2.933l-6.15.086V56.151h.7l.742-1.353V51.13h-2.349v-6.81h.329l.57-1.011v-2.755H93.72v-5.36h2.14c-.511-.75-4.522-7.637-4.739-8.666.265-.132.448-.373.448-.66 0-.358-.261-.648-.634-.735V23.55c.53.026 1.778.11 3.195.354 1.864.332 3.288-1.477 3.288-1.477s-2.315.739-3.616-.494c-.988-.931-2.29-.946-2.875-.9v-.238h-.585v4.338c-.373.087-.633.377-.633.735 0 .287.178.528.428.66-.197 1.029-4.194 7.915-4.712 8.666h2.125v5.356h-1.312v2.755l.548 1.014h.335v6.811H84.77v3.668l.746 1.353h.723v3.777l-3.516-5.258v-4.034h-1.975v1.482c-.388-.814-.813-1.764-1.078-2.586-.585-1.794-1.103-4.1-1.103-4.1h-.134v-.898c.447.026 1.237.094 2.165.256 1.372.245 2.424-1.093 2.424-1.093s-1.712.547-2.673-.366c-.955-.908-2.338-.637-2.338-.637l.008.441v2.296h-.079s-.503 2.307-1.088 4.101c-.406 1.263-1.227 2.91-1.663 3.785h.828v11.816h-2.379c-.462-.95-1.062-2.261-1.409-3.32-.622-1.923-1.163-4.396-1.163-4.396h-.056v-3.9h-.57v3.904h-.056s-.544 2.465-1.17 4.395c-.437 1.346-1.294 3.121-1.779 4.041h.891v9.63H64.56v-4.65h.857v-6.981h1.495c-.943-.95-2.643-2.77-3.511-4.162-1.234-1.99-2.535-4.534-2.535-4.534h-.034v-3.393c.444.038 1.01.102 1.633.211 1.375.245 2.427-1.089 2.427-1.089s-1.715.543-2.67-.366c-.95-.912-2.33-.64-2.33-.64l.027 1.816.074.004v3.453h-.022s-1.294 2.54-2.546 4.535c-.854 1.39-2.565 3.215-3.508 4.16H55.4v6.982h.865v5.133H50.03v18.297h25.18v-7.61s.257-5.975 6.069-5.975c5.8 0 6.016 5.975 6.016 5.975v7.61h11.818v.037h10.953V69.36H106.7zM91.833 49.155h-2.505v-3.679s.172-1.021 1.23-1.021c1.052 0 1.275 1.021 1.275 1.021v3.68z"/></mask><path d="M106.7 69.359v-2.933h.56v-3.995h.999c-.619-.901-1.749-2.605-2.323-3.924-.82-1.877-1.707-4.335-1.707-4.335v-2.495a20.36 20.36 0 012.035.245c1.432.252 2.52-1.127 2.52-1.127s-1.778.565-2.762-.377c-.585-.55-1.29-.667-1.786-.682v-.087h-.544v.102c-.022 0-.078.011-.078.011l.033 1.88.049.005v2.59h-.023s-.846 2.4-1.681 4.274c-.559 1.315-1.689 3.019-2.315 3.923h.995v3.996h.559v2.933l-6.15.086V56.151h.7l.742-1.353V51.13h-2.349v-6.81h.329l.57-1.011v-2.755H93.72v-5.36h2.14c-.511-.75-4.522-7.637-4.739-8.666.265-.132.448-.373.448-.66 0-.358-.261-.648-.634-.735V23.55c.53.026 1.778.11 3.195.354 1.864.332 3.288-1.477 3.288-1.477s-2.315.739-3.616-.494c-.988-.931-2.29-.946-2.875-.9v-.238h-.585v4.338c-.373.087-.633.377-.633.735 0 .287.178.528.428.66-.197 1.029-4.194 7.915-4.712 8.666h2.125v5.356h-1.312v2.755l.548 1.014h.335v6.811H84.77v3.668l.746 1.353h.723v3.777l-3.516-5.258v-4.034h-1.975v1.482c-.388-.814-.813-1.764-1.078-2.586-.585-1.794-1.103-4.1-1.103-4.1h-.134v-.898c.447.026 1.237.094 2.165.256 1.372.245 2.424-1.093 2.424-1.093s-1.712.547-2.673-.366c-.955-.908-2.338-.637-2.338-.637l.008.441v2.296h-.079s-.503 2.307-1.088 4.101c-.406 1.263-1.227 2.91-1.663 3.785h.828v11.816h-2.379c-.462-.95-1.062-2.261-1.409-3.32-.622-1.923-1.163-4.396-1.163-4.396h-.056v-3.9h-.57v3.904h-.056s-.544 2.465-1.17 4.395c-.437 1.346-1.294 3.121-1.779 4.041h.891v9.63H64.56v-4.65h.857v-6.981h1.495c-.943-.95-2.643-2.77-3.511-4.162-1.234-1.99-2.535-4.534-2.535-4.534h-.034v-3.393c.444.038 1.01.102 1.633.211 1.375.245 2.427-1.089 2.427-1.089s-1.715.543-2.67-.366c-.95-.912-2.33-.64-2.33-.64l.027 1.816.074.004v3.453h-.022s-1.294 2.54-2.546 4.535c-.854 1.39-2.565 3.215-3.508 4.16H55.4v6.982h.865v5.133H50.03v18.297h25.18v-7.61s.257-5.975 6.069-5.975c5.8 0 6.016 5.975 6.016 5.975v7.61h11.818v.037h10.953V69.36H106.7zM91.833 49.155h-2.505v-3.679s.172-1.021 1.23-1.021c1.052 0 1.275 1.021 1.275 1.021v3.68z" stroke="#6ABFFC" stroke-width="2" mask="url(#b)"/></g><defs><filter id="filter0_d" x=".569" y="1.169" width="149.889" height="128.619" filterUnits="userSpaceOnUse" color-interpolation-filters="sRGB"><feFlood flood-opacity="0" result="BackgroundImageFix"/><feColorMatrix in="SourceAlpha" values="0 0 0 0 0 0 0 0 0 0 0 0 0 0 0 0 0 0 127 0"/><feOffset dy="4"/><feGaussianBlur stdDeviation="2"/><feColorMatrix values="0 0 0 0 0 0 0 0 0 0 0 0 0 0 0 0 0 0 0.25 0"/><feBlend in2="BackgroundImageFix" result="effect1_dropShadow"/><feBlend in="SourceGraphic" in2="effect1_dropShadow" result="shape"/></filter><filter id="filter1_d" x="39.698" y="20.795" width="80.698" height="81.506" filterUnits="userSpaceOnUse" color-interpolation-filters="sRGB"><feFlood flood-opacity="0" result="BackgroundImageFix"/><feColorMatrix in="SourceAlpha" values="0 0 0 0 0 0 0 0 0 0 0 0 0 0 0 0 0 0 127 0"/><feOffset dy="4"/><feGaussianBlur stdDeviation="2"/><feColorMatrix values="0 0 0 0 0 0 0 0 0 0 0 0 0 0 0 0 0 0 0.55 0"/><feBlend in2="BackgroundImageFix" result="effect1_dropShadow"/><feBlend in="SourceGraphic" in2="effect1_dropShadow" result="shape"/></filter><linearGradient id="paint0_linear" x1="136.788" y1="45.183" x2="33.005" y2="67.681" gradientUnits="userSpaceOnUse"><stop stop-color="#6ABFFC"/><stop offset="1" stop-opacity="0"/></linearGradient><clipPath id="clip0"><path fill="#fff" transform="translate(43.698 20.795)" d="M0 0h72.698v73.506H0z"/></clipPath></defs></svg>