<svg width="147" height="147" viewBox="25 -17 129 168" fill="none" xmlns="http://www.w3.org/2000/svg"><g filter="url(#filter0_d)"><mask id="a" fill="#fff"><path d="M17.898 32.399a3 3 0 011.638-2.674l55.871-28.45a3 3 0 012.638-.041l60.667 28.515a3 3 0 011.724 2.715v75.146c0 1.17-.68 2.233-1.743 2.723l-60.668 28.004a3.002 3.002 0 01-2.599-.04l-55.87-27.939a3 3 0 01-1.659-2.683V32.399z"/></mask><path d="M17.898 32.399a3 3 0 011.638-2.674l55.871-28.45a3 3 0 012.638-.041l60.667 28.515a3 3 0 011.724 2.715v75.146c0 1.17-.68 2.233-1.743 2.723l-60.668 28.004a3.002 3.002 0 01-2.599-.04l-55.87-27.939a3 3 0 01-1.659-2.683V32.399z" stroke="url(#paint0_linear)" stroke-width="4" mask="url(#a)"/><mask id="b" fill="#fff"><path d="M104.97 46.01c-6.058.01-11.166 4.861-11.929 11.329h-3.778l4.804-17.804h4.887v-3.237h-6.017c-.669 0-1.257.476-1.444 1.167l-5.362 19.874H47.814c-.83 0-1.504.724-1.504 1.618 0 .365.114.72.325 1.006l28.253 38.403v31.807H62.855v3.237H89.93v-3.237H77.896V98.366l20.865-28.36a11.16 11.16 0 006.209 1.9c6.646 0 12.033-5.797 12.033-12.949 0-7.15-5.387-12.948-12.033-12.948zM50.923 60.575h34.334l-3.056 11.33H59.259l-8.336-11.33zm25.47 34.619L61.64 75.143h19.689L77.956 87.64l2.888.903 3.616-13.4h6.684L76.392 95.195zm17.132-23.29h-8.193l3.058-11.329h13.471l-8.336 11.33zm11.445-3.236a8.355 8.355 0 01-4.344-1.2l5.523-7.506c.516-.701.407-1.72-.244-2.274a1.44 1.44 0 00-.935-.35h-8.9c.831-5.288 5.488-8.85 10.403-7.957 4.914.894 8.225 5.906 7.394 11.194-.734 4.672-4.494 8.092-8.897 8.093z"/></mask><path d="M104.97 46.01c-6.058.01-11.166 4.861-11.929 11.329h-3.778l4.804-17.804h4.887v-3.237h-6.017c-.669 0-1.257.476-1.444 1.167l-5.362 19.874H47.814c-.83 0-1.504.724-1.504 1.618 0 .365.114.72.325 1.006l28.253 38.403v31.807H62.855v3.237H89.93v-3.237H77.896V98.366l20.865-28.36a11.16 11.16 0 006.209 1.9c6.646 0 12.033-5.797 12.033-12.949 0-7.15-5.387-12.948-12.033-12.948zM50.923 60.575h34.334l-3.056 11.33H59.259l-8.336-11.33zm25.47 34.619L61.64 75.143h19.689L77.956 87.64l2.888.903 3.616-13.4h6.684L76.392 95.195zm17.132-23.29h-8.193l3.058-11.329h13.471l-8.336 11.33zm11.445-3.236a8.355 8.355 0 01-4.344-1.2l5.523-7.506c.516-.701.407-1.72-.244-2.274a1.44 1.44 0 00-.935-.35h-8.9c.831-5.288 5.488-8.85 10.403-7.957 4.914.894 8.225 5.906 7.394 11.194-.734 4.672-4.494 8.092-8.897 8.093z" fill="#3400FE" stroke="#1E1E1E" stroke-width="2" mask="url(#b)"/></g><defs><linearGradient id="paint0_linear" x1="140.436" y1="51.196" x2="22.068" y2="76.856" gradientUnits="userSpaceOnUse"><stop stop-color="#3400FE"/><stop offset="1" stop-opacity="0"/></linearGradient><filter id="filter0_d" x=".088" y=".949" width="146.399" height="145.664" filterUnits="userSpaceOnUse" color-interpolation-filters="sRGB"><feFlood flood-opacity="0" result="BackgroundImageFix"/><feColorMatrix in="SourceAlpha" values="0 0 0 0 0 0 0 0 0 0 0 0 0 0 0 0 0 0 127 0"/><feOffset dy="4"/><feGaussianBlur stdDeviation="2"/><feColorMatrix values="0 0 0 0 0 0 0 0 0 0 0 0 0 0 0 0 0 0 0.25 0"/><feBlend in2="BackgroundImageFix" result="effect1_dropShadow"/><feBlend in="SourceGraphic" in2="effect1_dropShadow" result="shape"/></filter></defs></svg>