<svg width="165" height="142" viewBox="0 -17 165 165" fill="none" xmlns="http://www.w3.org/2000/svg"><g filter="url(#filter0_d)"><mask id="a" fill="#fff"><path d="M31.628 30.78a3 3 0 011.639-2.674L87.155.666a3 3 0 012.637-.041l58.519 27.505a3 3 0 011.724 2.715v72.483c0 1.17-.68 2.233-1.743 2.723l-58.52 27.013a2.999 2.999 0 01-2.598-.041l-53.888-26.947a3 3 0 01-1.658-2.683V30.779z"/></mask><path d="M31.628 30.78a3 3 0 011.639-2.674L87.155.666a3 3 0 012.637-.041l58.519 27.505a3 3 0 011.724 2.715v72.483c0 1.17-.68 2.233-1.743 2.723l-58.52 27.013a2.999 2.999 0 01-2.598-.041l-53.888-26.947a3 3 0 01-1.658-2.683V30.779z" stroke="url(#paint0_linear)" stroke-width="4" mask="url(#a)"/></g><g filter="url(#filter1_d)"><mask id="b" fill="#fff"><path d="M85.573 62.986c-6.015 1.849-10.15 7.625-10.159 14.191v13.314c0 .818.632 1.48 1.412 1.48h25.422c.78 0 1.412-.662 1.412-1.48V77.177c-.01-6.566-4.145-12.342-10.158-14.191 4.286-1.966 6.67-6.81 5.712-11.608-.959-4.8-4.998-8.235-9.677-8.235-4.68 0-8.718 3.436-9.677 8.234-.958 4.798 1.426 9.643 5.713 11.609zm15.262 14.191v11.835H78.239V77.177c0-6.537 5.058-11.836 11.298-11.836 6.239 0 11.298 5.299 11.298 11.836zM89.537 46.108c3.9 0 7.061 3.312 7.061 7.397 0 4.086-3.162 7.397-7.061 7.397-3.9 0-7.062-3.311-7.062-7.397.006-4.083 3.164-7.392 7.062-7.397z"/></mask><path d="M85.573 62.986c-6.015 1.849-10.15 7.625-10.159 14.191v13.314c0 .818.632 1.48 1.412 1.48h25.422c.78 0 1.412-.662 1.412-1.48V77.177c-.01-6.566-4.145-12.342-10.158-14.191 4.286-1.966 6.67-6.81 5.712-11.608-.959-4.8-4.998-8.235-9.677-8.235-4.68 0-8.718 3.436-9.677 8.234-.958 4.798 1.426 9.643 5.713 11.609zm15.262 14.191v11.835H78.239V77.177c0-6.537 5.058-11.836 11.298-11.836 6.239 0 11.298 5.299 11.298 11.836zM89.537 46.108c3.9 0 7.061 3.312 7.061 7.397 0 4.086-3.162 7.397-7.061 7.397-3.9 0-7.062-3.311-7.062-7.397.006-4.083 3.164-7.392 7.062-7.397z" fill="#6AEDFC" stroke="#1E1E1E" stroke-width="1.998" mask="url(#b)"/><mask id="c" fill="#fff"><path d="M59.294 44.878l-.05.125.588.26c.435.27.903.478 1.392.615l.622.274.051-.127c.267.048.536.076.807.083a5.407 5.407 0 002.854-.836l5.005 5.243 1.997-2.092-5.005-5.243a6.074 6.074 0 00.798-2.99 6.05 6.05 0 00-.08-.844l.122-.054-.263-.652a5.89 5.89 0 00-.586-1.46l-.248-.614-.119.053a6.023 6.023 0 00-.48-.613c-2.236-2.237-5.755-2.237-7.99 0-2.205 2.31-2.205 6.057 0 8.368.185.182.38.35.585.504zm1.413-6.78a2.738 2.738 0 012.746-.806c.988.27 1.76 1.077 2.019 2.112a3.056 3.056 0 01-.771 2.878 2.796 2.796 0 01-3.994 0c-1.103-1.156-1.103-3.028 0-4.184z"/></mask><path d="M59.294 44.878l-.05.125.588.26c.435.27.903.478 1.392.615l.622.274.051-.127c.267.048.536.076.807.083a5.407 5.407 0 002.854-.836l5.005 5.243 1.997-2.092-5.005-5.243a6.074 6.074 0 00.798-2.99 6.05 6.05 0 00-.08-.844l.122-.054-.263-.652a5.89 5.89 0 00-.586-1.46l-.248-.614-.119.053a6.023 6.023 0 00-.48-.613c-2.236-2.237-5.755-2.237-7.99 0-2.205 2.31-2.205 6.057 0 8.368.185.182.38.35.585.504zm1.413-6.78a2.738 2.738 0 012.746-.806c.988.27 1.76 1.077 2.019 2.112a3.056 3.056 0 01-.771 2.878 2.796 2.796 0 01-3.994 0c-1.103-1.156-1.103-3.028 0-4.184z" fill="#6AEDFC" stroke="#1E1E1E" stroke-width="1.998" mask="url(#c)"/><mask id="d" fill="#fff"><path d="M119.777 91.728l.053-.13-.79-.35a5.293 5.293 0 00-.866-.384l-.946-.416-.071.175a5.62 5.62 0 00-3.63.717l-5.016-5.256-1.997 2.092 5.005 5.244a6.083 6.083 0 00-.798 2.99c.008.283.034.566.08.844l-.122.054.263.651c.131.513.327 1.003.586 1.459l.249.616.118-.053c.148.216.308.42.482.613 1.418 1.538 3.519 2.154 5.494 1.614 1.975-.543 3.518-2.158 4.034-4.227.517-2.069-.072-4.27-1.54-5.756a5.181 5.181 0 00-.588-.496zm-1.412 6.774a2.797 2.797 0 01-3.994 0c-1.104-1.156-1.104-3.03-.001-4.185a2.735 2.735 0 013.995 0c1.104 1.156 1.104 3.029 0 4.185z"/></mask><path d="M119.777 91.728l.053-.13-.79-.35a5.293 5.293 0 00-.866-.384l-.946-.416-.071.175a5.62 5.62 0 00-3.63.717l-5.016-5.256-1.997 2.092 5.005 5.244a6.083 6.083 0 00-.798 2.99c.008.283.034.566.08.844l-.122.054.263.651c.131.513.327 1.003.586 1.459l.249.616.118-.053c.148.216.308.42.482.613 1.418 1.538 3.519 2.154 5.494 1.614 1.975-.543 3.518-2.158 4.034-4.227.517-2.069-.072-4.27-1.54-5.756a5.181 5.181 0 00-.588-.496zm-1.412 6.774a2.797 2.797 0 01-3.994 0c-1.104-1.156-1.104-3.03-.001-4.185a2.735 2.735 0 013.995 0c1.104 1.156 1.104 3.029 0 4.185z" fill="#6AEDFC" stroke="#1E1E1E" stroke-width="1.998" mask="url(#d)"/><mask id="e" fill="#fff"><path d="M127.669 62.382a5.287 5.287 0 00-.81.086l-.076-.19-1.233.548c-.053.023-.107.045-.16.071l-1.216.537.077.188a5.927 5.927 0 00-2.031 3.198h-7.261v2.96h7.261a5.921 5.921 0 002.037 3.204l-.077.188 1.217.537c.051.025.105.047.159.071l1.227.541.076-.19c2.091.32 4.177-.61 5.404-2.411a6.143 6.143 0 00.423-6.138c-.968-1.968-2.904-3.202-5.017-3.2zm0 8.876c-1.56 0-2.825-1.324-2.825-2.958 0-1.634 1.265-2.96 2.825-2.96 1.56 0 2.824 1.326 2.824 2.96s-1.264 2.958-2.824 2.958z"/></mask><path d="M127.669 62.382a5.287 5.287 0 00-.81.086l-.076-.19-1.233.548c-.053.023-.107.045-.16.071l-1.216.537.077.188a5.927 5.927 0 00-2.031 3.198h-7.261v2.96h7.261a5.921 5.921 0 002.037 3.204l-.077.188 1.217.537c.051.025.105.047.159.071l1.227.541.076-.19c2.091.32 4.177-.61 5.404-2.411a6.143 6.143 0 00.423-6.138c-.968-1.968-2.904-3.202-5.017-3.2zm0 8.876c-1.56 0-2.825-1.324-2.825-2.958 0-1.634 1.265-2.96 2.825-2.96 1.56 0 2.824 1.326 2.824 2.96s-1.264 2.958-2.824 2.958z" fill="#6AEDFC" stroke="#1E1E1E" stroke-width="1.998" mask="url(#e)"/><mask id="f" fill="#fff"><path d="M110.679 39.292l.122.054a6.271 6.271 0 00-.08.844 6.083 6.083 0 00.798 2.99l-5.005 5.243 1.997 2.092 5.005-5.243c.862.543 1.849.83 2.855.836.27-.007.54-.035.806-.083l.051.127.623-.274a5.397 5.397 0 001.391-.615l.588-.26-.05-.125c.205-.154.401-.322.585-.504 2.205-2.31 2.205-6.057 0-8.368-2.235-2.237-5.754-2.237-7.988 0a5.843 5.843 0 00-.482.613l-.118-.053-.249.616a5.91 5.91 0 00-.586 1.458l-.263.652zm3.695-1.194a2.737 2.737 0 012.746-.806c.987.27 1.76 1.077 2.018 2.112a3.056 3.056 0 01-.77 2.878 2.796 2.796 0 01-3.994 0c-1.103-1.156-1.103-3.028 0-4.184z"/></mask><path d="M110.679 39.292l.122.054a6.271 6.271 0 00-.08.844 6.083 6.083 0 00.798 2.99l-5.005 5.243 1.997 2.092 5.005-5.243c.862.543 1.849.83 2.855.836.27-.007.54-.035.806-.083l.051.127.623-.274a5.397 5.397 0 001.391-.615l.588-.26-.05-.125c.205-.154.401-.322.585-.504 2.205-2.31 2.205-6.057 0-8.368-2.235-2.237-5.754-2.237-7.988 0a5.843 5.843 0 00-.482.613l-.118-.053-.249.616a5.91 5.91 0 00-.586 1.458l-.263.652zm3.695-1.194a2.737 2.737 0 012.746-.806c.987.27 1.76 1.077 2.018 2.112a3.056 3.056 0 01-.77 2.878 2.796 2.796 0 01-3.994 0c-1.103-1.156-1.103-3.028 0-4.184z" fill="#6AEDFC" stroke="#1E1E1E" stroke-width="1.998" mask="url(#f)"/><mask id="g" fill="#fff"><path d="M68.395 97.308l-.122-.054c.046-.279.073-.56.08-.845a6.074 6.074 0 00-.798-2.99l5.005-5.243-1.997-2.092-5.017 5.256a5.618 5.618 0 00-3.63-.717l-.07-.175-.946.418c-.298.1-.589.229-.866.383l-.79.348.053.132a5.21 5.21 0 00-.587.496c-1.469 1.486-2.059 3.687-1.54 5.756.516 2.069 2.059 3.684 4.034 4.227 1.974.54 4.075-.076 5.494-1.614.173-.193.333-.397.481-.613l.119.053.248-.615a5.88 5.88 0 00.586-1.46l.263-.651zM64.7 98.502a2.797 2.797 0 01-3.994 0c-1.104-1.156-1.104-3.03-.001-4.185a2.734 2.734 0 013.995 0c1.103 1.156 1.103 3.029 0 4.185z"/></mask><path d="M68.395 97.308l-.122-.054c.046-.279.073-.56.08-.845a6.074 6.074 0 00-.798-2.99l5.005-5.243-1.997-2.092-5.017 5.256a5.618 5.618 0 00-3.63-.717l-.07-.175-.946.418c-.298.1-.589.229-.866.383l-.79.348.053.132a5.21 5.21 0 00-.587.496c-1.469 1.486-2.059 3.687-1.54 5.756.516 2.069 2.059 3.684 4.034 4.227 1.974.54 4.075-.076 5.494-1.614.173-.193.333-.397.481-.613l.119.053.248-.615a5.88 5.88 0 00.586-1.46l.263-.651zM64.7 98.502a2.797 2.797 0 01-3.994 0c-1.104-1.156-1.104-3.03-.001-4.185a2.734 2.734 0 013.995 0c1.103 1.156 1.103 3.029 0 4.185z" fill="#6AEDFC" stroke="#1E1E1E" stroke-width="1.998" mask="url(#g)"/><mask id="h" fill="#fff"><path d="M53.523 73.774c.055-.024.107-.046.16-.071l1.217-.537-.077-.188a5.92 5.92 0 002.03-3.199h7.263V66.82h-7.262a5.924 5.924 0 00-2.037-3.204l.076-.188-1.215-.537c-.053-.025-.107-.047-.16-.07l-1.228-.542-.076.188a5.262 5.262 0 00-.809-.085c-3.12 0-5.65 2.65-5.65 5.918 0 3.268 2.53 5.918 5.65 5.918.27-.008.542-.038.809-.087l.076.19 1.233-.547zM48.581 68.3c0-1.634 1.264-2.96 2.824-2.96 1.56 0 2.825 1.326 2.825 2.96s-1.265 2.958-2.825 2.958c-1.56 0-2.824-1.324-2.824-2.958z"/></mask><path d="M53.523 73.774c.055-.024.107-.046.16-.071l1.217-.537-.077-.188a5.92 5.92 0 002.03-3.199h7.263V66.82h-7.262a5.924 5.924 0 00-2.037-3.204l.076-.188-1.215-.537c-.053-.025-.107-.047-.16-.07l-1.228-.542-.076.188a5.262 5.262 0 00-.809-.085c-3.12 0-5.65 2.65-5.65 5.918 0 3.268 2.53 5.918 5.65 5.918.27-.008.542-.038.809-.087l.076.19 1.233-.547zM48.581 68.3c0-1.634 1.264-2.96 2.824-2.96 1.56 0 2.825 1.326 2.825 2.96s-1.265 2.958-2.825 2.958c-1.56 0-2.824-1.324-2.824-2.958z" fill="#6AEDFC" stroke="#1E1E1E" stroke-width="1.998" mask="url(#h)"/><mask id="i" fill="#fff"><path d="M94.762 106.026c-.022-.056-.043-.112-.068-.167l-.512-1.274-.18.08a5.621 5.621 0 00-3.052-2.127V94.93h-2.826v7.608a5.628 5.628 0 00-3.058 2.133l-.18-.08-.513 1.274-.067.167-.518 1.286.182.079c-.382 2.323.588 4.661 2.469 5.954a5.437 5.437 0 006.196 0c1.88-1.293 2.851-3.631 2.47-5.954l.18-.079-.523-1.292zm-5.225 5.179c-1.56 0-2.824-1.325-2.824-2.959 0-1.635 1.264-2.959 2.824-2.959 1.56 0 2.825 1.324 2.825 2.959 0 1.634-1.265 2.959-2.825 2.959z"/></mask><path d="M94.762 106.026c-.022-.056-.043-.112-.068-.167l-.512-1.274-.18.08a5.621 5.621 0 00-3.052-2.127V94.93h-2.826v7.608a5.628 5.628 0 00-3.058 2.133l-.18-.08-.513 1.274-.067.167-.518 1.286.182.079c-.382 2.323.588 4.661 2.469 5.954a5.437 5.437 0 006.196 0c1.88-1.293 2.851-3.631 2.47-5.954l.18-.079-.523-1.292zm-5.225 5.179c-1.56 0-2.824-1.325-2.824-2.959 0-1.635 1.264-2.959 2.824-2.959 1.56 0 2.825 1.324 2.825 2.959 0 1.634-1.265 2.959-2.825 2.959z" fill="#6AEDFC" stroke="#1E1E1E" stroke-width="1.998" mask="url(#i)"/><mask id="j" fill="#fff"><path d="M84.311 30.574c.023.056.045.113.068.166l.513 1.275.18-.08a5.624 5.624 0 003.052 2.127v7.608h2.826v-7.608a5.618 5.618 0 003.058-2.133l.18.08.512-1.275c.024-.054.045-.11.068-.166l.517-1.286-.18-.08c.046-.28.073-.563.081-.848 0-3.268-2.53-5.917-5.65-5.917-3.118 0-5.648 2.65-5.648 5.918.008.284.035.567.082.848l-.182.079.523 1.292zm5.226-5.178c1.56 0 2.825 1.324 2.825 2.959 0 1.633-1.265 2.959-2.825 2.959-1.56 0-2.824-1.326-2.824-2.96s1.264-2.958 2.824-2.958z"/></mask><path d="M84.311 30.574c.023.056.045.113.068.166l.513 1.275.18-.08a5.624 5.624 0 003.052 2.127v7.608h2.826v-7.608a5.618 5.618 0 003.058-2.133l.18.08.512-1.275c.024-.054.045-.11.068-.166l.517-1.286-.18-.08c.046-.28.073-.563.081-.848 0-3.268-2.53-5.917-5.65-5.917-3.118 0-5.648 2.65-5.648 5.918.008.284.035.567.082.848l-.182.079.523 1.292zm5.226-5.178c1.56 0 2.825 1.324 2.825 2.959 0 1.633-1.265 2.959-2.825 2.959-1.56 0-2.824-1.326-2.824-2.96s1.264-2.958 2.824-2.958z" fill="#6AEDFC" stroke="#1E1E1E" stroke-width="1.998" mask="url(#j)"/></g><defs><filter id="filter0_d" x=".319" y=".34" width="164.373" height="141" filterUnits="userSpaceOnUse" color-interpolation-filters="sRGB"><feFlood flood-opacity="0" result="BackgroundImageFix"/><feColorMatrix in="SourceAlpha" values="0 0 0 0 0 0 0 0 0 0 0 0 0 0 0 0 0 0 127 0"/><feOffset dy="4"/><feGaussianBlur stdDeviation="2"/><feColorMatrix values="0 0 0 0 0 0 0 0 0 0 0 0 0 0 0 0 0 0 0.25 0"/><feBlend in2="BackgroundImageFix" result="effect1_dropShadow"/><feBlend in="SourceGraphic" in2="effect1_dropShadow" result="shape"/></filter><filter id="filter1_d" x="41.756" y="22.437" width="95.557" height="99.883" filterUnits="userSpaceOnUse" color-interpolation-filters="sRGB"><feFlood flood-opacity="0" result="BackgroundImageFix"/><feColorMatrix in="SourceAlpha" values="0 0 0 0 0 0 0 0 0 0 0 0 0 0 0 0 0 0 127 0"/><feOffset dy="4"/><feGaussianBlur stdDeviation="2"/><feColorMatrix values="0 0 0 0 0 0 0 0 0 0 0 0 0 0 0 0 0 0 0.25 0"/><feBlend in2="BackgroundImageFix" result="effect1_dropShadow"/><feBlend in="SourceGraphic" in2="effect1_dropShadow" result="shape"/></filter><linearGradient id="paint0_linear" x1="150.035" y1="48.881" x2="35.658" y2="73.676" gradientUnits="userSpaceOnUse"><stop stop-opacity="0"/><stop offset=".771" stop-color="#6AEDFC"/></linearGradient></defs></svg>