<svg width="192" height="165" viewBox="0 -24 192 200" fill="none" xmlns="http://www.w3.org/2000/svg"><g filter="url(#filter0_d)"><mask id="a" fill="#fff"><path d="M36.507 35.854a3 3 0 011.639-2.673L101.904.715a3 3 0 012.637-.042l69.211 32.532a2.999 2.999 0 011.724 2.715v85.733c0 1.171-.68 2.234-1.742 2.724l-69.212 31.948a2.999 2.999 0 01-2.599-.041l-63.758-31.882a3 3 0 01-1.658-2.683V35.854z"/></mask><path d="M36.507 35.854a3 3 0 011.639-2.673L101.904.715a3 3 0 012.637-.042l69.211 32.532a2.999 2.999 0 011.724 2.715v85.733c0 1.171-.68 2.234-1.742 2.724l-69.212 31.948a2.999 2.999 0 01-2.599-.041l-63.758-31.882a3 3 0 01-1.658-2.683V35.854z" stroke="url(#paint0_linear)" stroke-width="4" mask="url(#a)"/></g><g filter="url(#filter1_d)"><path d="M79.257 96.457h-2.18v-12.27H62.452v12.27H60.29V70.863h2.162v11.496h14.625V70.863h2.18v25.594zM93.065 82.5c-1.019-1.231-1.763-2.327-2.232-3.288-.457-.972-.686-1.933-.686-2.882 0-1.793.534-3.211 1.6-4.254 1.067-1.043 2.496-1.565 4.29-1.565 1.628 0 2.947.475 3.954 1.424 1.008.938 1.512 2.133 1.512 3.586 0 1.688-.973 3.346-2.918 4.975l-2.813 2.18 7.032 8.19c1.066-1.722 1.599-3.673 1.599-5.853h1.952c0 2.906-.75 5.361-2.25 7.365l3.498 4.079h-2.532l-2.214-2.567a10.188 10.188 0 01-3.217 2.145 9.653 9.653 0 01-3.832.773c-2.438 0-4.371-.621-5.801-1.863-1.43-1.254-2.145-2.924-2.145-5.01 0-1.242.364-2.414 1.09-3.516.739-1.113 2.028-2.36 3.867-3.744l.246-.175zm2.743 12.533a7.5 7.5 0 003.093-.668 8.69 8.69 0 002.707-1.934l-7.154-8.297-.246-.263-.808.615c-2.297 1.875-3.446 3.691-3.446 5.45 0 1.534.528 2.77 1.582 3.708 1.055.926 2.479 1.389 4.272 1.389zm-3.551-18.774c0 1.43.79 3.117 2.373 5.063l2.303-1.758c.75-.54 1.365-1.13 1.845-1.775s.721-1.4.721-2.268c0-.914-.316-1.676-.95-2.285-.632-.621-1.476-.932-2.53-.932-1.149 0-2.063.37-2.743 1.108-.68.738-1.02 1.687-1.02 2.847zm25.375-5.396l9.439 22.588 9.475-22.588h2.883v25.594h-2.162V85.312l.176-11.426-9.528 22.57h-1.67l-9.492-22.482.176 11.268v11.215h-2.162V70.863h2.865z" fill="#1E1E1E"/><path d="M79.257 96.457v1h1v-1h-1zm-2.18 0h-1v1h1v-1zm0-12.27h1v-1h-1v1zm-14.625 0v-1h-1v1h1zm0 12.27v1h1v-1h-1zm-2.162 0h-1v1h1v-1zm0-25.594v-1h-1v1h1zm2.162 0h1v-1h-1v1zm0 11.496h-1v1h1v-1zm14.625 0v1h1v-1h-1zm0-11.496v-1h-1v1h1zm2.18 0h1v-1h-1v1zm0 24.594h-2.18v2h2.18v-2zm-1.18 1v-12.27h-2v12.27h2zm-1-13.27H62.452v2h14.625v-2zm-15.625 1v12.27h2v-12.27h-2zm1 11.27H60.29v2h2.162v-2zm-1.162 1V70.863h-2v25.594h2zm-1-24.594h2.162v-2H60.29v2zm1.162-1v11.496h2V70.863h-2zm1 12.496h14.625v-2H62.452v2zm15.625-1V70.863h-2v11.496h2zm-1-10.496h2.18v-2h-2.18v2zm1.18-1v25.594h2V70.863h-2zm14.808 11.636l.582.814.874-.624-.686-.827-.77.638zm-2.232-3.287l-.905.426.003.006.003.007.9-.439zm9.158-7.277l-.685.728.004.004.681-.732zm-1.406 8.56l.613.791.015-.012.014-.012-.642-.766zm-2.813 2.18l-.612-.79-.831.644.685.798.758-.652zm7.032 8.192l-.759.651.89 1.037.719-1.162-.85-.526zm1.599-5.854v-1h-1v1h1zm1.952 0h1v-1h-1v1zm-2.25 7.365l-.801-.599-.48.642.522.608.759-.65zm3.498 4.079v1h2.175l-1.416-1.651-.759.65zm-2.532 0l-.757.653.299.347h.458v-1zm-2.214-2.567l.757-.653-.699-.81-.761.751.703.712zm-3.217 2.145l-.39-.921-.003.001.393.92zm-9.633-1.09l-.66.752.004.003.656-.755zm-1.055-8.526l-.833-.552-.001.002.834.55zm3.867-3.744l-.58-.813-.01.007-.01.007.6.8zm6.082 11.69l.409.913.004-.003-.413-.91zm2.707-1.934l.723.692.628-.657-.593-.688-.758.653zm-7.154-8.297l.758-.653-.013-.015-.014-.014-.73.682zm-.246-.263l.731-.683-.617-.66-.72.547.606.796zm-.808.615l-.606-.796-.014.01-.013.011.633.775zm-1.864 9.158l-.664.747.004.005.66-.752zm3.094-12.322l-.776.63.612.753.77-.588-.606-.795zm2.303-1.758l-.584-.812-.012.008-.011.01.607.794zm1.617-6.328l-.7.714.006.006.694-.72zm-4.715 8.626c-.99-1.197-1.682-2.224-2.103-3.088l-1.798.877c.517 1.058 1.314 2.222 2.362 3.487l1.54-1.276zm-2.097-3.075c-.403-.857-.59-1.674-.59-2.457h-2c0 1.114.269 2.22.78 3.308l1.81-.85zm-.59-2.457c0-1.583.462-2.722 1.298-3.54l-1.398-1.43c-1.297 1.27-1.9 2.966-1.9 4.97h2zm1.298-3.54c.843-.824 2.002-1.279 3.59-1.279v-2c-1.998 0-3.698.588-4.988 1.85l1.398 1.43zm3.59-1.279c1.422 0 2.48.408 3.27 1.152l1.371-1.456c-1.226-1.154-2.805-1.696-4.64-1.696v2zm3.274 1.156c.792.737 1.193 1.661 1.193 2.854h2c0-1.713-.607-3.18-1.831-4.318l-1.362 1.464zm1.193 2.854c0 1.268-.725 2.672-2.56 4.208l1.284 1.533c2.056-1.721 3.276-3.634 3.276-5.741h-2zm-2.53 4.184l-2.813 2.18 1.225 1.58 2.813-2.179-1.225-1.58zm-2.96 3.622l7.032 8.191 1.518-1.303-7.032-8.191-1.517 1.303zm8.641 8.066c1.172-1.893 1.749-4.029 1.749-6.38h-2c0 2.009-.488 3.775-1.449 5.327l1.7 1.053zm.749-5.38h1.952v-2h-1.952v2zm.952-1c0 2.727-.701 4.962-2.051 6.766l1.601 1.199c1.65-2.204 2.45-4.879 2.45-7.965h-2zm-2.009 8.016l3.498 4.079 1.518-1.303-3.498-4.078-1.518 1.302zm4.257 2.428h-2.532v2h2.532v-2zm-1.775.346l-2.214-2.566-1.515 1.306 2.215 2.567 1.514-1.307zm-3.674-2.624a9.178 9.178 0 01-2.904 1.935l.779 1.842a11.165 11.165 0 003.53-2.354l-1.405-1.424zm-2.907 1.936a8.654 8.654 0 01-3.44.693v2c1.48 0 2.891-.284 4.226-.854l-.786-1.839zm-3.44.693c-2.267 0-3.944-.575-5.144-1.618L89.35 95.7c1.659 1.441 3.849 2.108 6.457 2.108v-2zm-5.14-1.615c-1.191-1.044-1.805-2.429-1.805-4.258h-2c0 2.343.817 4.298 2.486 5.762l1.318-1.504zm-1.805-4.258c0-1.034.3-2.016.925-2.965l-1.67-1.101c-.827 1.254-1.255 2.616-1.255 4.066h2zm.924-2.963c.645-.974 1.83-2.14 3.634-3.497l-1.201-1.6c-1.875 1.41-3.27 2.739-4.1 3.992l1.667 1.105zM93.4 83.49l.246-.176-1.163-1.627-.246.176L93.4 83.49zm2.407 12.544c1.21 0 2.38-.254 3.502-.755l-.817-1.826c-.87.39-1.763.58-2.685.58v2zm3.506-.758a9.713 9.713 0 003.017-2.152l-1.445-1.383a7.698 7.698 0 01-2.398 1.714l.826 1.822zm3.052-3.497l-7.154-8.297-1.515 1.306 7.154 8.297 1.515-1.306zm-7.18-8.326l-.247-.264-1.462 1.365.246.264 1.462-1.365zm-1.583-.377l-.809.615 1.211 1.592.809-.616-1.211-1.591zm-.836.636c-2.374 1.938-3.813 4.01-3.813 6.224h2c0-1.302.858-2.863 3.078-4.675l-1.265-1.549zm-3.813 6.224c0 1.793.63 3.311 1.918 4.456l1.329-1.494c-.821-.73-1.247-1.684-1.247-2.962h-2zm1.922 4.46c1.284 1.127 2.965 1.638 4.932 1.638v-2c-1.62 0-2.786-.415-3.612-1.14l-1.32 1.503zm.38-18.136c0 1.778.97 3.69 2.598 5.694l1.552-1.262c-1.535-1.888-2.15-3.35-2.15-4.432h-2zm3.98 5.858l2.303-1.758-1.213-1.59-2.303 1.758 1.214 1.59zm2.28-1.741c.821-.59 1.514-1.252 2.064-1.99l-1.603-1.195c-.411.551-.949 1.073-1.628 1.56l1.167 1.625zm2.064-1.99c.62-.83.919-1.8.919-2.865h-2c0 .67-.18 1.212-.522 1.67l1.603 1.195zm.919-2.865c0-1.174-.418-2.2-1.255-3.005l-1.388 1.44c.429.413.643.91.643 1.565h2zm-1.249-2.999c-.854-.839-1.968-1.218-3.231-1.218v2c.846 0 1.42.242 1.83.645l1.401-1.427zm-3.231-1.218c-1.384 0-2.581.456-3.478 1.43l1.471 1.355c.462-.502 1.093-.785 2.007-.785v-2zm-3.478 1.43c-.876.952-1.284 2.156-1.284 3.525h2c0-.95.272-1.645.755-2.17l-1.471-1.355zm25.091-1.871l.923-.386-.257-.614h-.666v1zm9.439 22.588l-.922.385.921 2.204.924-2.203-.923-.386zm9.475-22.588v-1h-.665l-.257.613.922.387zm2.883 0h1v-1h-1v1zm0 25.594v1h1v-1h-1zm-2.162 0h-1v1h1v-1zm0-11.145l-1-.015v.015h1zm.176-11.426l.999.016-1.921-.405.922.39zm-9.528 22.57v1h.664l.257-.61-.921-.39zm-1.67 0l-.921.39.258.61h.663v-1zm-9.492-22.482l.921-.389-1.921.405 1-.016zm.176 11.268h1v-.016l-1 .016zm0 11.215v1h1v-1h-1zm-2.162 0h-1v1h1v-1zm0-25.594v-1h-1v1h1zm1.942.385l9.44 22.588 1.845-.77-9.439-22.589-1.846.771zm11.285 22.59l9.474-22.588-1.844-.774-9.475 22.588 1.845.774zm8.552-21.975h2.883v-2h-2.883v2zm1.883-1v25.594h2V70.863h-2zm1 24.594h-2.162v2h2.162v-2zm-1.162 1V85.312h-2v11.145h2zm0-11.13l.175-11.425-1.999-.031-.176 11.426 2 .03zm-1.746-11.83l-9.527 22.57 1.842.778 9.528-22.57-1.843-.778zm-8.606 21.96h-1.67v2h1.67v-2zm-.748.61l-9.493-22.482-1.842.778 9.492 22.483 1.843-.778zM115.753 73.99l.176 11.267 2-.03-.176-11.269-2 .032zm.176 11.252v11.215h2V85.242h-2zm1 10.215h-2.162v2h2.162v-2zm-1.162 1V70.863h-2v25.594h2zm-1-24.594h2.865v-2h-2.865v2z" fill="#6ABFFC"/></g><defs><filter id="filter0_d" x=".456" y=".388" width="191.529" height="164.213" filterUnits="userSpaceOnUse" color-interpolation-filters="sRGB"><feFlood flood-opacity="0" result="BackgroundImageFix"/><feColorMatrix in="SourceAlpha" values="0 0 0 0 0 0 0 0 0 0 0 0 0 0 0 0 0 0 127 0"/><feOffset dy="4"/><feGaussianBlur stdDeviation="2"/><feColorMatrix values="0 0 0 0 0 0 0 0 0 0 0 0 0 0 0 0 0 0 0.25 0"/><feBlend in2="BackgroundImageFix" result="effect1_dropShadow"/><feBlend in="SourceGraphic" in2="effect1_dropShadow" result="shape"/></filter><filter id="filter1_d" x="55.29" y="69.511" width="89.139" height="36.297" filterUnits="userSpaceOnUse" color-interpolation-filters="sRGB"><feFlood flood-opacity="0" result="BackgroundImageFix"/><feColorMatrix in="SourceAlpha" values="0 0 0 0 0 0 0 0 0 0 0 0 0 0 0 0 0 0 127 0"/><feOffset dy="4"/><feGaussianBlur stdDeviation="2"/><feColorMatrix values="0 0 0 0 0 0 0 0 0 0 0 0 0 0 0 0 0 0 0.25 0"/><feBlend in2="BackgroundImageFix" result="effect1_dropShadow"/><feBlend in="SourceGraphic" in2="effect1_dropShadow" result="shape"/></filter><linearGradient id="paint0_linear" x1="175.476" y1="57.418" x2="41.237" y2="86.519" gradientUnits="userSpaceOnUse"><stop stop-color="#6ABFFC"/><stop offset="1" stop-opacity="0"/></linearGradient></defs></svg>