<svg width="185" height="159" viewBox="0 -15 159 185" fill="none" xmlns="http://www.w3.org/2000/svg"><g filter="url(#filter0_d)"><mask id="a" fill="#fff"><path d="M35.197 34.715a3 3 0 011.639-2.673L97.81.993a3 3 0 012.638-.041l66.196 31.114a3 3 0 011.724 2.715v81.997a3 3 0 01-1.743 2.724l-66.197 30.556a2.998 2.998 0 01-2.599-.041l-60.974-30.49a3 3 0 01-1.658-2.683V34.715z"/></mask><path d="M35.197 34.715a3 3 0 011.639-2.673L97.81.993a3 3 0 012.638-.041l66.196 31.114a3 3 0 011.724 2.715v81.997a3 3 0 01-1.743 2.724l-66.197 30.556a2.998 2.998 0 01-2.599-.041l-60.974-30.49a3 3 0 01-1.658-2.683V34.715z" stroke="url(#paint0_linear)" stroke-width="4" mask="url(#a)"/></g><mask id="b" fill="#fff"><path d="M131.094 41.894H69.709c-3.437 0-6.138 2.83-6.138 6.43v64.305c0 3.601 2.7 6.431 6.138 6.431h61.385c3.438 0 6.139-2.83 6.139-6.431V48.325c0-3.601-2.701-6.43-6.139-6.43zm-30.692 74.593V90.766H90.58V80.477h9.822v-9.002c0-7.331 5.402-13.504 12.277-14.147h11.049v10.288h-9.822c-2.087 0-3.683 1.672-3.683 3.859v9.002H122.5v10.289h-12.277v25.722h-9.821v-.001zm34.375-3.858c0 2.187-1.596 3.858-3.683 3.858h-18.415v-23.15h12.277V77.906h-12.277v-6.43c0-.772.491-1.287 1.227-1.287h12.277V54.755h-13.627c-8.226.772-14.61 8.103-14.61 16.72v6.43h-9.821v15.433h9.821v23.149H69.71c-2.087 0-3.683-1.671-3.683-3.858V48.325c0-2.187 1.596-3.858 3.683-3.858h61.385c2.087 0 3.683 1.672 3.683 3.858v64.304z"/></mask><path d="M131.094 41.894H69.709c-3.437 0-6.138 2.83-6.138 6.43v64.305c0 3.601 2.7 6.431 6.138 6.431h61.385c3.438 0 6.139-2.83 6.139-6.431V48.325c0-3.601-2.701-6.43-6.139-6.43zm-30.692 74.593V90.766H90.58V80.477h9.822v-9.002c0-7.331 5.402-13.504 12.277-14.147h11.049v10.288h-9.822c-2.087 0-3.683 1.672-3.683 3.859v9.002H122.5v10.289h-12.277v25.722h-9.821v-.001zm34.375-3.858c0 2.187-1.596 3.858-3.683 3.858h-18.415v-23.15h12.277V77.906h-12.277v-6.43c0-.772.491-1.287 1.227-1.287h12.277V54.755h-13.627c-8.226.772-14.61 8.103-14.61 16.72v6.43h-9.821v15.433h9.821v23.149H69.71c-2.087 0-3.683-1.671-3.683-3.858V48.325c0-2.187 1.596-3.858 3.683-3.858h61.385c2.087 0 3.683 1.672 3.683 3.858v64.304h0z" fill="#A16AFC" stroke="#1E1E1E" mask="url(#b)"/><defs><linearGradient id="paint0_linear" x1="168.368" y1="55.303" x2="39.729" y2="83.19" gradientUnits="userSpaceOnUse"><stop stop-opacity="0"/><stop offset=".771" stop-color="#A16AFC"/></linearGradient><filter id="filter0_d" x=".484" y=".667" width="183.871" height="157.667" filterUnits="userSpaceOnUse" color-interpolation-filters="sRGB"><feFlood flood-opacity="0" result="BackgroundImageFix"/><feColorMatrix in="SourceAlpha" values="0 0 0 0 0 0 0 0 0 0 0 0 0 0 0 0 0 0 127 0"/><feOffset dy="4"/><feGaussianBlur stdDeviation="2"/><feColorMatrix values="0 0 0 0 0 0 0 0 0 0 0 0 0 0 0 0 0 0 0.25 0"/><feBlend in2="BackgroundImageFix" result="effect1_dropShadow"/><feBlend in="SourceGraphic" in2="effect1_dropShadow" result="shape"/></filter></defs></svg>