<svg width="259" height="259" viewBox="6 -30 259 307" fill="none" xmlns="http://www.w3.org/2000/svg">keyTimes=&quot;0; 0.3; 0.7; 1&quot; calcMode=&quot;linear&quot; begin=&quot;b.end + 1s&quot; dur=&quot;1s&quot; repeatCount=&quot;1&quot; fill=&quot;freeze&quot; /&gt;<g filter="url(#filter0_d)"><mask id="a" fill="#fff"><path d="M29.128 56.717a3 3 0 011.64-2.673L134.132 1.41a3.001 3.001 0 012.638-.041l112.12 52.699a3 3 0 011.724 2.715v138.911a3 3 0 01-1.743 2.724l-112.12 51.754a2.999 2.999 0 01-2.599-.041L30.787 198.443a3 3 0 01-1.659-2.683V56.717z"/></mask><path d="M29.128 56.717a3 3 0 011.64-2.673L134.132 1.41a3.001 3.001 0 012.638-.041l112.12 52.699a3 3 0 011.724 2.715v138.911a3 3 0 01-1.743 2.724l-112.12 51.754a2.999 2.999 0 01-2.599-.041L30.787 198.443a3 3 0 01-1.659-2.683V56.717z" stroke="url(#paint0_linear)" stroke-width="4" mask="url(#a)"/></g><g filter="url(#filter1_d)"><mask id="b" fill="#fff"><path d="M197.037 134.633c0-39.369-30.576-71.4-68.157-71.4-11.783 0-23.262 3.197-33.44 9.213h-8.334v-9.213H73.914v29.221c-8.619 12.299-13.192 26.855-13.192 42.179 0 39.37 30.577 71.399 68.158 71.399a65.142 65.142 0 0024.299-4.678c4.424 2.946 9.656 4.678 15.276 4.678 6.855 0 13.486-2.582 18.671-7.269l-2.874-3.487c-4.386 3.966-9.995 6.149-15.797 6.149-13.335 0-24.185-11.366-24.185-25.335 0-13.969 10.85-25.335 24.185-25.335 13.335 0 24.185 11.366 24.185 25.335 0 5.839-1.843 11.327-5.332 15.871l3.428 2.889c4.063-5.295 6.301-11.956 6.301-18.76a30.765 30.765 0 00-4.47-16.009 74.132 74.132 0 004.47-25.448zM95.9 86.265h4.397v32.245H95.9V86.265zm-8.794-9.212h4.397v41.457h-4.397V77.053zM78.31 67.84h4.397v50.67H78.31V67.84zm48.37 133.528c-33.41-1.196-60.365-29.433-61.507-64.432h61.507v64.432zm0-69.039H65.207c.359-11.212 3.331-21.926 8.707-31.477v22.265h48.37v-23.032h-8.795v-9.213h-8.794v-9.213H95.9v-4.164c9.303-5.906 19.874-9.183 30.781-9.575v64.409zm-21.986-13.819V95.478h4.397v23.032h-4.397zm8.794 0v-13.819h4.398v13.819h-4.398zm79.096 13.819h-18.823l16.169-16.937a69.325 69.325 0 012.654 16.937zm-11.079-35.354L156.95 122.7l3.108 3.256 23.855-24.989a68.074 68.074 0 014.422 9.583l-20.79 21.779h-13.57l2.843-2.978-3.109-3.256-5.952 6.234h-13.57l41.275-43.238a67.162 67.162 0 016.044 7.884zm-50.428-29.078a60.81 60.81 0 0116.169 2.78l-16.169 16.938V67.897zm0 46.96l26.72-27.99-3.109-3.257-23.611 24.734V94.129l20.79-21.78a62.007 62.007 0 019.149 4.632l-3.542 3.71 3.109 3.257 4.243-4.445a64.823 64.823 0 017.526 6.332l-41.275 43.238v-14.216zm37.377 31.292c-15.76 0-28.582 13.432-28.582 29.941 0 8.662 3.551 16.452 9.181 21.924a60.767 60.767 0 01-17.976 3.358v-64.436h61.511a69.283 69.283 0 01-3.212 18.824c-5.224-5.896-12.657-9.611-20.922-9.611z"/></mask><path d="M197.037 134.633c0-39.369-30.576-71.4-68.157-71.4-11.783 0-23.262 3.197-33.44 9.213h-8.334v-9.213H73.914v29.221c-8.619 12.299-13.192 26.855-13.192 42.179 0 39.37 30.577 71.399 68.158 71.399a65.142 65.142 0 0024.299-4.678c4.424 2.946 9.656 4.678 15.276 4.678 6.855 0 13.486-2.582 18.671-7.269l-2.874-3.487c-4.386 3.966-9.995 6.149-15.797 6.149-13.335 0-24.185-11.366-24.185-25.335 0-13.969 10.85-25.335 24.185-25.335 13.335 0 24.185 11.366 24.185 25.335 0 5.839-1.843 11.327-5.332 15.871l3.428 2.889c4.063-5.295 6.301-11.956 6.301-18.76a30.765 30.765 0 00-4.47-16.009 74.132 74.132 0 004.47-25.448zM95.9 86.265h4.397v32.245H95.9V86.265zm-8.794-9.212h4.397v41.457h-4.397V77.053zM78.31 67.84h4.397v50.67H78.31V67.84zm48.37 133.528c-33.41-1.196-60.365-29.433-61.507-64.432h61.507v64.432zm0-69.039H65.207c.359-11.212 3.331-21.926 8.707-31.477v22.265h48.37v-23.032h-8.795v-9.213h-8.794v-9.213H95.9v-4.164c9.303-5.906 19.874-9.183 30.781-9.575v64.409zm-21.986-13.819V95.478h4.397v23.032h-4.397zm8.794 0v-13.819h4.398v13.819h-4.398zm79.096 13.819h-18.823l16.169-16.937a69.325 69.325 0 012.654 16.937zm-11.079-35.354L156.95 122.7l3.108 3.256 23.855-24.989a68.074 68.074 0 014.422 9.583l-20.79 21.779h-13.57l2.843-2.978-3.109-3.256-5.952 6.234h-13.57l41.275-43.238a67.162 67.162 0 016.044 7.884zm-50.428-29.078a60.81 60.81 0 0116.169 2.78l-16.169 16.938V67.897zm0 46.96l26.72-27.99-3.109-3.257-23.611 24.734V94.129l20.79-21.78a62.007 62.007 0 019.149 4.632l-3.542 3.71 3.109 3.257 4.243-4.445a64.823 64.823 0 017.526 6.332l-41.275 43.238v-14.216zm37.377 31.292c-15.76 0-28.582 13.432-28.582 29.941 0 8.662 3.551 16.452 9.181 21.924a60.767 60.767 0 01-17.976 3.358v-64.436h61.511a69.283 69.283 0 01-3.212 18.824c-5.224-5.896-12.657-9.611-20.922-9.611z" fill="#6AEDFC" stroke="#1E1E1E" stroke-width="2" mask="url(#b)"/></g><g filter="url(#filter2_d)"><mask id="c" fill="#fff"><path d="M114.143 146.822l-26.384 27.639 3.11 3.257 26.383-27.638-3.109-3.258z"/></mask><path d="M114.143 146.822l-26.384 27.639 3.11 3.257 26.383-27.638-3.109-3.258z" fill="#6AEDFC" stroke="#1E1E1E" stroke-width="2" mask="url(#c)"/></g><g filter="url(#filter3_d)"><mask id="d" fill="#fff"><path d="M111.291 164.574c-3.637 0-6.596 3.1-6.596 6.91 0 3.809 2.959 6.909 6.596 6.909 3.636 0 6.596-3.1 6.596-6.909 0-3.81-2.96-6.91-6.596-6.91zm0 9.213c-1.211 0-2.199-1.032-2.199-2.303 0-1.272.988-2.303 2.199-2.303 1.211 0 2.199 1.031 2.199 2.303 0 1.271-.988 2.303-2.199 2.303z"/></mask><path d="M111.291 164.574c-3.637 0-6.596 3.1-6.596 6.91 0 3.809 2.959 6.909 6.596 6.909 3.636 0 6.596-3.1 6.596-6.909 0-3.81-2.96-6.91-6.596-6.91zm0 9.213c-1.211 0-2.199-1.032-2.199-2.303 0-1.272.988-2.303 2.199-2.303 1.211 0 2.199 1.031 2.199 2.303 0 1.271-.988 2.303-2.199 2.303z" fill="#6AEDFC" stroke="#1E1E1E" stroke-width="2" mask="url(#d)"/></g><g filter="url(#filter4_d)"><mask id="e" fill="#fff"><path d="M93.702 146.149c-3.637 0-6.596 3.1-6.596 6.909 0 3.81 2.96 6.91 6.596 6.91s6.596-3.1 6.596-6.91c0-3.809-2.96-6.909-6.596-6.909zm0 9.212c-1.212 0-2.199-1.031-2.199-2.303 0-1.271.987-2.303 2.199-2.303 1.211 0 2.198 1.032 2.198 2.303 0 1.272-.987 2.303-2.198 2.303z"/></mask><path d="M93.702 146.149c-3.637 0-6.596 3.1-6.596 6.909 0 3.81 2.96 6.91 6.596 6.91s6.596-3.1 6.596-6.91c0-3.809-2.96-6.909-6.596-6.909zm0 9.212c-1.212 0-2.199-1.031-2.199-2.303 0-1.271.987-2.303 2.199-2.303 1.211 0 2.198 1.032 2.198 2.303 0 1.272-.987 2.303-2.198 2.303z" fill="#6AEDFC" stroke="#1E1E1E" stroke-width="2" mask="url(#e)"/></g><g filter="url(#filter5_d)"><mask id="f" fill="#fff"><path d="M168.455 173.787c-2.425 0-4.398-2.066-4.398-4.606 0-2.541 1.973-4.607 4.398-4.607s4.397 2.066 4.397 4.607h4.397c0-4.282-2.814-7.857-6.596-8.886v-4.934h-4.397v4.934c-3.782 1.029-6.596 4.604-6.596 8.886 0 5.08 3.944 9.212 8.795 9.212 2.425 0 4.397 2.066 4.397 4.607 0 2.54-1.972 4.606-4.397 4.606-2.425 0-4.398-2.066-4.398-4.606h-4.397c0 4.281 2.814 7.856 6.596 8.886v4.933h4.397v-4.933c3.782-1.03 6.596-4.605 6.596-8.886 0-5.081-3.944-9.213-8.794-9.213z"/></mask><path d="M168.455 173.787c-2.425 0-4.398-2.066-4.398-4.606 0-2.541 1.973-4.607 4.398-4.607s4.397 2.066 4.397 4.607h4.397c0-4.282-2.814-7.857-6.596-8.886v-4.934h-4.397v4.934c-3.782 1.029-6.596 4.604-6.596 8.886 0 5.08 3.944 9.212 8.795 9.212 2.425 0 4.397 2.066 4.397 4.607 0 2.54-1.972 4.606-4.397 4.606-2.425 0-4.398-2.066-4.398-4.606h-4.397c0 4.281 2.814 7.856 6.596 8.886v4.933h4.397v-4.933c3.782-1.03 6.596-4.605 6.596-8.886 0-5.081-3.944-9.213-8.794-9.213z" fill="#6AEDFC" stroke="#1E1E1E" stroke-width="2" mask="url(#f)"/></g><defs><filter id="filter0_d" x=".168" y="1.084" width="258.152" height="257.364" filterUnits="userSpaceOnUse" color-interpolation-filters="sRGB"><feFlood flood-opacity="0" result="BackgroundImageFix"/><feColorMatrix in="SourceAlpha" values="0 0 0 0 0 0 0 0 0 0 0 0 0 0 0 0 0 0 127 0"/><feOffset dy="4"/><feGaussianBlur stdDeviation="2"/><feColorMatrix values="0 0 0 0 0 0 0 0 0 0 0 0 0 0 0 0 0 0 0.25 0"/><feBlend in2="BackgroundImageFix" result="effect1_dropShadow"/><feBlend in="SourceGraphic" in2="effect1_dropShadow" result="shape"/></filter><filter id="filter1_d" x="56.722" y="63.233" width="144.315" height="150.798" filterUnits="userSpaceOnUse" color-interpolation-filters="sRGB"><feFlood flood-opacity="0" result="BackgroundImageFix"/><feColorMatrix in="SourceAlpha" values="0 0 0 0 0 0 0 0 0 0 0 0 0 0 0 0 0 0 127 0"/><feOffset dy="4"/><feGaussianBlur stdDeviation="2"/><feColorMatrix values="0 0 0 0 0 0 0 0 0 0 0 0 0 0 0 0 0 0 0.25 0"/><feBlend in2="BackgroundImageFix" result="effect1_dropShadow"/><feBlend in="SourceGraphic" in2="effect1_dropShadow" result="shape"/></filter><filter id="filter2_d" x="83.759" y="146.823" width="37.493" height="38.896" filterUnits="userSpaceOnUse" color-interpolation-filters="sRGB"><feFlood flood-opacity="0" result="BackgroundImageFix"/><feColorMatrix in="SourceAlpha" values="0 0 0 0 0 0 0 0 0 0 0 0 0 0 0 0 0 0 127 0"/><feOffset dy="4"/><feGaussianBlur stdDeviation="2"/><feColorMatrix values="0 0 0 0 0 0 0 0 0 0 0 0 0 0 0 0 0 0 0.25 0"/><feBlend in2="BackgroundImageFix" result="effect1_dropShadow"/><feBlend in="SourceGraphic" in2="effect1_dropShadow" result="shape"/></filter><filter id="filter3_d" x="100.695" y="164.574" width="21.192" height="21.819" filterUnits="userSpaceOnUse" color-interpolation-filters="sRGB"><feFlood flood-opacity="0" result="BackgroundImageFix"/><feColorMatrix in="SourceAlpha" values="0 0 0 0 0 0 0 0 0 0 0 0 0 0 0 0 0 0 127 0"/><feOffset dy="4"/><feGaussianBlur stdDeviation="2"/><feColorMatrix values="0 0 0 0 0 0 0 0 0 0 0 0 0 0 0 0 0 0 0.25 0"/><feBlend in2="BackgroundImageFix" result="effect1_dropShadow"/><feBlend in="SourceGraphic" in2="effect1_dropShadow" result="shape"/></filter><filter id="filter4_d" x="83.106" y="146.149" width="21.192" height="21.819" filterUnits="userSpaceOnUse" color-interpolation-filters="sRGB"><feFlood flood-opacity="0" result="BackgroundImageFix"/><feColorMatrix in="SourceAlpha" values="0 0 0 0 0 0 0 0 0 0 0 0 0 0 0 0 0 0 127 0"/><feOffset dy="4"/><feGaussianBlur stdDeviation="2"/><feColorMatrix values="0 0 0 0 0 0 0 0 0 0 0 0 0 0 0 0 0 0 0.25 0"/><feBlend in2="BackgroundImageFix" result="effect1_dropShadow"/><feBlend in="SourceGraphic" in2="effect1_dropShadow" result="shape"/></filter><filter id="filter5_d" x="155.66" y="155.361" width="25.589" height="49.458" filterUnits="userSpaceOnUse" color-interpolation-filters="sRGB"><feFlood flood-opacity="0" result="BackgroundImageFix"/><feColorMatrix in="SourceAlpha" values="0 0 0 0 0 0 0 0 0 0 0 0 0 0 0 0 0 0 127 0"/><feOffset dy="4"/><feGaussianBlur stdDeviation="2"/><feColorMatrix values="0 0 0 0 0 0 0 0 0 0 0 0 0 0 0 0 0 0 0.25 0"/><feBlend in2="BackgroundImageFix" result="effect1_dropShadow"/><feBlend in="SourceGraphic" in2="effect1_dropShadow" result="shape"/></filter><linearGradient id="paint0_linear" x1="250.614" y1="92.178" x2="36.666" y2="138.558" gradientUnits="userSpaceOnUse"><stop stop-opacity="0"/><stop offset=".771" stop-color="#6AEDFC"/></linearGradient></defs></svg>