<svg width="199" height="171" viewBox="0 -28 199 209" fill="none" xmlns="http://www.w3.org/2000/svg"><g filter="url(#filter0_d)"><mask id="a" fill="#fff"><path d="M37.51 37.222a3 3 0 011.64-2.673l66.179-33.7a3.001 3.001 0 012.638-.04l71.835 33.764a3 3 0 011.724 2.715v88.985a3 3 0 01-1.743 2.724l-71.836 33.159a2.999 2.999 0 01-2.599-.041l-66.18-33.093a3 3 0 01-1.657-2.683V37.222z"/></mask><path d="M37.51 37.222a3 3 0 011.64-2.673l66.179-33.7a3.001 3.001 0 012.638-.04l71.835 33.764a3 3 0 011.724 2.715v88.985a3 3 0 01-1.743 2.724l-71.836 33.159a2.999 2.999 0 01-2.599-.041l-66.18-33.093a3 3 0 01-1.657-2.683V37.222z" stroke="url(#paint0_linear)" stroke-width="4" mask="url(#a)"/></g><g filter="url(#filter1_d)"><path d="M121.715 115.446c5.761.618 14.744-12.258 18.516-18.773l.936-1.993c.78-2.461-.936 2.907-9.905-7.967-8.969-10.873 5.598-24.201 6.352-25.385.753-1.185-12.329-10.152-22.824-5.383-14.863 6.753-9.905-4.76-25.839-1.853C73.018 57 70.796 77.9 72.595 85.872c1.8 7.972 12.344 38.318 25.203 29.574 12.858-8.743 16.716-.771 23.917 0z" stroke="#F5BF00" stroke-width="2"/></g><g filter="url(#filter2_d)"><mask id="b" fill="#fff"><path d="M121.43 32.821c1.418.941 1.466 7.642-2.605 13.78-4.071 6.136-10.72 9.387-12.139 8.446-1.419-.941-2.191-7.756 1.88-13.893 4.071-6.137 11.445-9.274 12.864-8.333z"/></mask><path d="M121.43 32.821c1.418.941 1.466 7.642-2.605 13.78-4.071 6.136-10.72 9.387-12.139 8.446-1.419-.941-2.191-7.756 1.88-13.893 4.071-6.137 11.445-9.274 12.864-8.333z" stroke="#F5BF00" stroke-width="4" mask="url(#b)"/></g><defs><filter id="filter0_d" x=".295" y=".523" width="198.193" height="169.909" filterUnits="userSpaceOnUse" color-interpolation-filters="sRGB"><feFlood flood-opacity="0" result="BackgroundImageFix"/><feColorMatrix in="SourceAlpha" values="0 0 0 0 0 0 0 0 0 0 0 0 0 0 0 0 0 0 127 0"/><feOffset dy="4"/><feGaussianBlur stdDeviation="2"/><feColorMatrix values="0 0 0 0 0 0 0 0 0 0 0 0 0 0 0 0 0 0 0.25 0"/><feBlend in2="BackgroundImageFix" result="effect1_dropShadow"/><feBlend in="SourceGraphic" in2="effect1_dropShadow" result="shape"/></filter><filter id="filter1_d" x="67.07" y="52.612" width="79.264" height="73.401" filterUnits="userSpaceOnUse" color-interpolation-filters="sRGB"><feFlood flood-opacity="0" result="BackgroundImageFix"/><feColorMatrix in="SourceAlpha" values="0 0 0 0 0 0 0 0 0 0 0 0 0 0 0 0 0 0 127 0"/><feOffset dy="4"/><feGaussianBlur stdDeviation="2"/><feColorMatrix values="0 0 0 0 0 0 0 0 0 0 0 0 0 0 0 0 0 0 0.25 0"/><feBlend in2="BackgroundImageFix" result="effect1_dropShadow"/><feBlend in="SourceGraphic" in2="effect1_dropShadow" result="shape"/></filter><filter id="filter2_d" x="101.546" y="32.656" width="24.757" height="30.55" filterUnits="userSpaceOnUse" color-interpolation-filters="sRGB"><feFlood flood-opacity="0" result="BackgroundImageFix"/><feColorMatrix in="SourceAlpha" values="0 0 0 0 0 0 0 0 0 0 0 0 0 0 0 0 0 0 127 0"/><feOffset dy="4"/><feGaussianBlur stdDeviation="2"/><feColorMatrix values="0 0 0 0 0 0 0 0 0 0 0 0 0 0 0 0 0 0 0.25 0"/><feBlend in2="BackgroundImageFix" result="effect1_dropShadow"/><feBlend in="SourceGraphic" in2="effect1_dropShadow" result="shape"/></filter><linearGradient id="paint0_linear" x1="181.526" y1="59.636" x2="42.412" y2="89.794" gradientUnits="userSpaceOnUse"><stop stop-color="#F5BF00"/><stop offset="1" stop-opacity="0"/></linearGradient></defs></svg>