<svg width="25" height="18" viewBox="0 0 25 18" fill="none" xmlns="http://www.w3.org/2000/svg"><path d="M20.034 13.665a.383.383 0 01-.264-.105l-4.453-4.178a.386.386 0 11.53-.563l4.453 4.177a.386.386 0 01-.266.669zm-14.864 0a.387.387 0 01-.265-.669L9.359 8.82a.387.387 0 01.53.563L5.436 13.56a.383.383 0 01-.265.105z" fill="#fff"/><path d="M22.668 17.549H2.538a1.937 1.937 0 01-1.935-1.935V2.422c0-1.068.868-1.935 1.935-1.935h20.13c1.067 0 1.935.867 1.935 1.935v13.192a1.937 1.937 0 01-1.935 1.935zM2.538 1.26c-.64 0-1.161.52-1.161 1.16v13.193c0 .64.52 1.161 1.16 1.161h20.131c.64 0 1.16-.52 1.16-1.16V2.421c0-.64-.52-1.161-1.16-1.161H2.538z" fill="#fff"/><path d="M12.603 10.962c-.515 0-1.03-.17-1.421-.512L1.245 1.782a.388.388 0 01-.038-.547.39.39 0 01.547-.037l9.936 8.668c.495.43 1.33.43 1.824 0l9.925-8.654a.387.387 0 01.51.584l-9.925 8.653a2.162 2.162 0 01-1.421.513z" fill="#fff"/></svg>