<svg width="25" height="25" viewBox="0 0 25 25" fill="none" xmlns="http://www.w3.org/2000/svg"><g clip-path="url(#clip0)" fill="#fff" stroke="#313131" stroke-width=".5"><path d="M.853 12.582c0-6.49 5.26-11.75 11.75-11.75s11.75 5.26 11.75 11.75-5.26 11.75-11.75 11.75-11.75-5.26-11.75-11.75zm1.375 0c0 5.73 4.645 10.374 10.375 10.374s10.375-4.644 10.375-10.374S18.333 2.207 12.603 2.207 2.228 6.85 2.228 12.582z"/><path d="M13.113 18.331h-1.578v-5.718h-1.53v-1.618h1.53V9.097c0-.457.113-1.026.454-1.475.33-.436.9-.79 1.885-.79h.001l1.296.006v1.558h0-1.095 0-.005a1.18 1.18 0 00-.563.145.756.756 0 00-.396.68v1.774h2.047l-.246 1.618h-1.8v5.719z"/></g><defs><clipPath id="clip0"><path fill="#fff" transform="translate(.603 .582)" d="M0 0h24v24H0z"/></clipPath></defs></svg>