<svg width="1440" height="859" viewBox="0 0 1440 859" fill="none" xmlns="http://www.w3.org/2000/svg"><g filter="url(#filter0_d)" fill="#212121"><circle cx="716.3" cy="474.123" r="5.444"/><circle cx="812.875" cy="474.123" r="5.444"/><circle cx="905.189" cy="474.123" r="5.444"/><circle cx="1001.29" cy="474.123" r="5.444"/><circle cx="1097.39" cy="474.123" r="5.444"/><circle cx="716.3" cy="569.448" r="5.444"/><circle cx="812.875" cy="569.447" r="5.444"/><circle cx="905.188" cy="569.447" r="5.444"/><circle cx="1001.29" cy="569.447" r="5.444"/><circle cx="1097.39" cy="569.447" r="5.444"/><circle cx="716.3" cy="662.048" r="5.444"/><circle cx="812.875" cy="662.048" r="5.444"/><circle cx="905.188" cy="662.048" r="5.444"/><circle cx="1001.29" cy="662.048" r="5.444"/><circle cx="1097.39" cy="662.048" r="5.444"/><circle cx="716.3" cy="760.096" r="5.444"/><circle cx="812.875" cy="760.096" r="5.444"/><circle cx="905.188" cy="760.096" r="5.444"/><circle cx="1001.29" cy="760.096" r="5.444"/><circle cx="1097.39" cy="760.096" r="5.444"/><circle cx="716.3" cy="760.096" r="5.444"/><circle cx="812.875" cy="760.096" r="5.444"/><circle cx="905.188" cy="760.096" r="5.444"/><circle cx="1001.29" cy="760.096" r="5.444"/><circle cx="1097.39" cy="760.096" r="5.444"/><circle cx="716.3" cy="857.054" r="5.444"/><circle cx="812.875" cy="857.054" r="5.444"/><circle cx="905.188" cy="857.054" r="5.444"/><circle cx="1001.29" cy="857.054" r="5.444"/><circle cx="1097.39" cy="857.054" r="5.444"/></g><g filter="url(#filter1_d)" fill="#212121"><circle cx="233.343" cy="474.123" r="5.444"/><circle cx="329.918" cy="474.123" r="5.444"/><circle cx="422.232" cy="474.123" r="5.444"/><circle cx="518.334" cy="474.123" r="5.444"/><circle cx="614.435" cy="474.123" r="5.444"/><circle cx="233.343" cy="569.448" r="5.444"/><circle cx="329.918" cy="569.447" r="5.444"/><circle cx="422.232" cy="569.447" r="5.444"/><circle cx="518.334" cy="569.447" r="5.444"/><circle cx="614.435" cy="569.447" r="5.444"/><circle cx="233.343" cy="662.048" r="5.444"/><circle cx="329.918" cy="662.048" r="5.444"/><circle cx="422.232" cy="662.048" r="5.444"/><circle cx="518.334" cy="662.048" r="5.444"/><circle cx="614.435" cy="662.048" r="5.444"/><circle cx="233.343" cy="760.096" r="5.444"/><circle cx="329.918" cy="760.096" r="5.444"/><circle cx="422.232" cy="760.096" r="5.444"/><circle cx="518.334" cy="760.096" r="5.444"/><circle cx="614.435" cy="760.096" r="5.444"/><circle cx="233.343" cy="760.096" r="5.444"/><circle cx="329.918" cy="760.096" r="5.444"/><circle cx="422.232" cy="760.096" r="5.444"/><circle cx="518.334" cy="760.096" r="5.444"/><circle cx="614.435" cy="760.096" r="5.444"/><circle cx="233.343" cy="857.054" r="5.444"/><circle cx="329.918" cy="857.054" r="5.444"/><circle cx="422.232" cy="857.054" r="5.444"/><circle cx="518.334" cy="857.054" r="5.444"/><circle cx="614.435" cy="857.054" r="5.444"/></g><g filter="url(#filter2_d)" fill="#212121"><circle cx="35.377" cy="474.123" r="5.444"/><circle cx="131.479" cy="474.123" r="5.444"/><circle cx="35.377" cy="569.447" r="5.444"/><circle cx="131.479" cy="569.447" r="5.444"/><circle cx="35.377" cy="662.048" r="5.444"/><circle cx="131.479" cy="662.048" r="5.444"/><circle cx="35.377" cy="760.096" r="5.444"/><circle cx="131.479" cy="760.096" r="5.444"/><circle cx="35.377" cy="760.096" r="5.444"/><circle cx="131.479" cy="760.096" r="5.444"/><circle cx="35.377" cy="857.054" r="5.444"/><circle cx="131.479" cy="857.054" r="5.444"/></g><g filter="url(#filter3_d)" fill="#212121"><circle cx="233.343" cy="12.688" r="5.444"/><circle cx="329.918" cy="12.688" r="5.444"/><circle cx="422.232" cy="12.688" r="5.444"/><circle cx="518.334" cy="12.688" r="5.444"/><circle cx="614.435" cy="12.688" r="5.444"/><circle cx="233.343" cy="105.289" r="5.444"/><circle cx="329.918" cy="105.289" r="5.444"/><circle cx="422.232" cy="105.289" r="5.444"/><circle cx="518.334" cy="105.289" r="5.444"/><circle cx="614.435" cy="105.289" r="5.444"/><circle cx="233.343" cy="203.337" r="5.444"/><circle cx="329.918" cy="203.336" r="5.444"/><circle cx="422.232" cy="203.336" r="5.444"/><circle cx="518.334" cy="203.336" r="5.444"/><circle cx="614.435" cy="203.336" r="5.444"/><circle cx="233.343" cy="203.337" r="5.444"/><circle cx="329.918" cy="203.336" r="5.444"/><circle cx="422.232" cy="203.336" r="5.444"/><circle cx="518.334" cy="203.336" r="5.444"/><circle cx="614.435" cy="203.336" r="5.444"/><circle cx="233.343" cy="300.294" r="5.444"/><circle cx="329.918" cy="300.295" r="5.444"/><circle cx="422.232" cy="300.295" r="5.444"/><circle cx="518.334" cy="300.295" r="5.444"/><circle cx="614.435" cy="300.295" r="5.444"/><circle cx="233.343" cy="384.725" r="5.444"/><circle cx="329.918" cy="384.725" r="5.444"/><circle cx="422.232" cy="384.725" r="5.444"/><circle cx="518.334" cy="384.725" r="5.444"/><circle cx="614.435" cy="384.725" r="5.444"/></g><g filter="url(#filter4_d)" fill="#212121"><circle cx="712.415" cy="12.688" r="5.444"/><circle cx="808.99" cy="12.688" r="5.444"/><circle cx="901.304" cy="12.688" r="5.444"/><circle cx="997.405" cy="12.688" r="5.444"/><circle cx="1093.51" cy="12.688" r="5.444"/><circle cx="712.415" cy="105.289" r="5.444"/><circle cx="808.99" cy="105.289" r="5.444"/><circle cx="712.415" cy="203.337" r="5.444"/><circle cx="808.99" cy="203.336" r="5.444"/><circle cx="712.415" cy="203.337" r="5.444"/><circle cx="808.99" cy="203.336" r="5.444"/><circle cx="712.415" cy="300.294" r="5.444"/><circle cx="808.99" cy="300.295" r="5.444"/><circle cx="712.415" cy="384.725" r="5.444"/><circle cx="808.99" cy="384.725" r="5.444"/><circle cx="901.304" cy="384.725" r="5.444"/></g><g filter="url(#filter5_d)" fill="#212121"><circle cx="1208.32" cy="474.123" r="5.444"/><circle cx="1304.89" cy="474.123" r="5.444"/><circle cx="1397.21" cy="474.123" r="5.444"/><circle cx="1208.32" cy="569.448" r="5.444"/><circle cx="1304.89" cy="569.447" r="5.444"/><circle cx="1397.21" cy="569.447" r="5.444"/><circle cx="1208.32" cy="662.048" r="5.444"/><circle cx="1304.89" cy="662.048" r="5.444"/><circle cx="1397.21" cy="662.048" r="5.444"/><circle cx="1208.32" cy="760.096" r="5.444"/><circle cx="1304.89" cy="760.096" r="5.444"/><circle cx="1397.21" cy="760.096" r="5.444"/><circle cx="1208.32" cy="760.096" r="5.444"/><circle cx="1304.89" cy="760.096" r="5.444"/><circle cx="1397.21" cy="760.096" r="5.444"/><circle cx="1208.32" cy="857.054" r="5.444"/><circle cx="1304.89" cy="857.054" r="5.444"/><circle cx="1397.21" cy="857.054" r="5.444"/></g><g filter="url(#filter6_d)" fill="#212121"><circle cx="1204.43" cy="12.688" r="5.444"/><circle cx="1301.01" cy="12.688" r="5.444"/><circle cx="1393.32" cy="12.688" r="5.444"/><circle cx="1204.43" cy="105.289" r="5.444"/><circle cx="1301.01" cy="105.289" r="5.444"/><circle cx="1393.32" cy="105.289" r="5.444"/><circle cx="1204.43" cy="203.337" r="5.444"/><circle cx="1301.01" cy="203.336" r="5.444"/><circle cx="1393.32" cy="203.336" r="5.444"/><circle cx="1301.01" cy="203.336" r="5.444"/><circle cx="1393.32" cy="203.336" r="5.444"/><circle cx="1301.01" cy="300.295" r="5.444"/><circle cx="1393.32" cy="300.295" r="5.444"/><circle cx="1301.01" cy="384.725" r="5.444"/><circle cx="1393.32" cy="384.725" r="5.444"/></g><g filter="url(#filter7_d)" fill="#212121"><circle cx="35.377" cy="12.688" r="5.444"/><circle cx="131.479" cy="12.688" r="5.444"/><circle cx="35.377" cy="105.289" r="5.444"/><circle cx="131.479" cy="105.289" r="5.444"/><circle cx="35.377" cy="203.336" r="5.444"/><circle cx="131.479" cy="203.336" r="5.444"/><circle cx="35.377" cy="203.336" r="5.444"/><circle cx="131.479" cy="203.336" r="5.444"/><circle cx="35.377" cy="300.295" r="5.444"/><circle cx="131.479" cy="300.295" r="5.444"/><circle cx="35.377" cy="384.725" r="5.444"/><circle cx="131.479" cy="384.725" r="5.444"/></g><g filter="url(#filter8_d)" fill="#212121"><circle cx="35.377" cy="12.688" r="5.444"/><circle cx="131.479" cy="12.688" r="5.444"/><circle cx="35.377" cy="105.289" r="5.444"/><circle cx="131.479" cy="105.289" r="5.444"/><circle cx="35.377" cy="203.336" r="5.444"/><circle cx="131.479" cy="203.336" r="5.444"/><circle cx="35.377" cy="203.336" r="5.444"/><circle cx="131.479" cy="203.336" r="5.444"/><circle cx="35.377" cy="300.295" r="5.444"/><circle cx="131.479" cy="300.295" r="5.444"/><circle cx="35.377" cy="384.725" r="5.444"/><circle cx="131.479" cy="384.725" r="5.444"/></g><defs><filter id="filter0_d" x="706.855" y="466.679" width="399.98" height="486.249" filterUnits="userSpaceOnUse" color-interpolation-filters="sRGB"><feFlood flood-opacity="0" result="BackgroundImageFix"/><feColorMatrix in="SourceAlpha" values="0 0 0 0 0 0 0 0 0 0 0 0 0 0 0 0 0 0 127 0"/><feOffset dy="2"/><feGaussianBlur stdDeviation="2"/><feColorMatrix values="0 0 0 0 0 0 0 0 0 0 0 0 0 0 0 0 0 0 0.35 0"/><feBlend in2="BackgroundImageFix" result="effect1_dropShadow"/><feBlend in="SourceGraphic" in2="effect1_dropShadow" result="shape"/></filter><filter id="filter1_d" x="223.899" y="466.679" width="399.98" height="486.249" filterUnits="userSpaceOnUse" color-interpolation-filters="sRGB"><feFlood flood-opacity="0" result="BackgroundImageFix"/><feColorMatrix in="SourceAlpha" values="0 0 0 0 0 0 0 0 0 0 0 0 0 0 0 0 0 0 127 0"/><feOffset dy="2"/><feGaussianBlur stdDeviation="2"/><feColorMatrix values="0 0 0 0 0 0 0 0 0 0 0 0 0 0 0 0 0 0 0.35 0"/><feBlend in2="BackgroundImageFix" result="effect1_dropShadow"/><feBlend in="SourceGraphic" in2="effect1_dropShadow" result="shape"/></filter><filter id="filter2_d" x="-259.057" y="466.679" width="399.98" height="486.249" filterUnits="userSpaceOnUse" color-interpolation-filters="sRGB"><feFlood flood-opacity="0" result="BackgroundImageFix"/><feColorMatrix in="SourceAlpha" values="0 0 0 0 0 0 0 0 0 0 0 0 0 0 0 0 0 0 127 0"/><feOffset dy="2"/><feGaussianBlur stdDeviation="2"/><feColorMatrix values="0 0 0 0 0 0 0 0 0 0 0 0 0 0 0 0 0 0 0.35 0"/><feBlend in2="BackgroundImageFix" result="effect1_dropShadow"/><feBlend in="SourceGraphic" in2="effect1_dropShadow" result="shape"/></filter><filter id="filter3_d" x="223.899" y="-90.08" width="399.98" height="486.249" filterUnits="userSpaceOnUse" color-interpolation-filters="sRGB"><feFlood flood-opacity="0" result="BackgroundImageFix"/><feColorMatrix in="SourceAlpha" values="0 0 0 0 0 0 0 0 0 0 0 0 0 0 0 0 0 0 127 0"/><feOffset dy="2"/><feGaussianBlur stdDeviation="2"/><feColorMatrix values="0 0 0 0 0 0 0 0 0 0 0 0 0 0 0 0 0 0 0.35 0"/><feBlend in2="BackgroundImageFix" result="effect1_dropShadow"/><feBlend in="SourceGraphic" in2="effect1_dropShadow" result="shape"/></filter><filter id="filter4_d" x="702.971" y="-90.08" width="399.98" height="486.249" filterUnits="userSpaceOnUse" color-interpolation-filters="sRGB"><feFlood flood-opacity="0" result="BackgroundImageFix"/><feColorMatrix in="SourceAlpha" values="0 0 0 0 0 0 0 0 0 0 0 0 0 0 0 0 0 0 127 0"/><feOffset dy="2"/><feGaussianBlur stdDeviation="2"/><feColorMatrix values="0 0 0 0 0 0 0 0 0 0 0 0 0 0 0 0 0 0 0.35 0"/><feBlend in2="BackgroundImageFix" result="effect1_dropShadow"/><feBlend in="SourceGraphic" in2="effect1_dropShadow" result="shape"/></filter><filter id="filter5_d" x="1198.88" y="466.679" width="399.98" height="486.249" filterUnits="userSpaceOnUse" color-interpolation-filters="sRGB"><feFlood flood-opacity="0" result="BackgroundImageFix"/><feColorMatrix in="SourceAlpha" values="0 0 0 0 0 0 0 0 0 0 0 0 0 0 0 0 0 0 127 0"/><feOffset dy="2"/><feGaussianBlur stdDeviation="2"/><feColorMatrix values="0 0 0 0 0 0 0 0 0 0 0 0 0 0 0 0 0 0 0.35 0"/><feBlend in2="BackgroundImageFix" result="effect1_dropShadow"/><feBlend in="SourceGraphic" in2="effect1_dropShadow" result="shape"/></filter><filter id="filter6_d" x="1194.99" y="-90.08" width="399.981" height="486.249" filterUnits="userSpaceOnUse" color-interpolation-filters="sRGB"><feFlood flood-opacity="0" result="BackgroundImageFix"/><feColorMatrix in="SourceAlpha" values="0 0 0 0 0 0 0 0 0 0 0 0 0 0 0 0 0 0 127 0"/><feOffset dy="2"/><feGaussianBlur stdDeviation="2"/><feColorMatrix values="0 0 0 0 0 0 0 0 0 0 0 0 0 0 0 0 0 0 0.35 0"/><feBlend in2="BackgroundImageFix" result="effect1_dropShadow"/><feBlend in="SourceGraphic" in2="effect1_dropShadow" result="shape"/></filter><filter id="filter7_d" x="-259.057" y="-90.08" width="399.98" height="486.249" filterUnits="userSpaceOnUse" color-interpolation-filters="sRGB"><feFlood flood-opacity="0" result="BackgroundImageFix"/><feColorMatrix in="SourceAlpha" values="0 0 0 0 0 0 0 0 0 0 0 0 0 0 0 0 0 0 127 0"/><feOffset dy="2"/><feGaussianBlur stdDeviation="2"/><feColorMatrix values="0 0 0 0 0 0 0 0 0 0 0 0 0 0 0 0 0 0 0.35 0"/><feBlend in2="BackgroundImageFix" result="effect1_dropShadow"/><feBlend in="SourceGraphic" in2="effect1_dropShadow" result="shape"/></filter><filter id="filter8_d" x="-259.057" y="-90.08" width="399.98" height="486.249" filterUnits="userSpaceOnUse" color-interpolation-filters="sRGB"><feFlood flood-opacity="0" result="BackgroundImageFix"/><feColorMatrix in="SourceAlpha" values="0 0 0 0 0 0 0 0 0 0 0 0 0 0 0 0 0 0 127 0"/><feOffset dy="2"/><feGaussianBlur stdDeviation="2"/><feColorMatrix values="0 0 0 0 0 0 0 0 0 0 0 0 0 0 0 0 0 0 0.35 0"/><feBlend in2="BackgroundImageFix" result="effect1_dropShadow"/><feBlend in="SourceGraphic" in2="effect1_dropShadow" result="shape"/></filter></defs></svg>