<svg viewBox="0 0 558 644" fill="none" xmlns="http://www.w3.org/2000/svg"><g filter="url(#filter0_d)" stroke="#1D1D1D" stroke-width="10" stroke-linecap="round"><path d="M9.517 229.188c39.22-97.342 184.005-275.582 449.381-209.805"><animate attributeName="stroke" begin="a.mouseenter" values="#1D1D1D; #20D2C8; #1D1D1D" dur="1s" repeatCount="1" fill="freeze" calcMode="linear"/></path><path d="M121.508 155.473c60.012-73.243 231.92-181.17 439.457-26.935"><animate attributeName="stroke" begin="b.mouseenter" values="#1D1D1D; #20D2C8; #1D1D1D" dur="1s" repeatCount="1" fill="freeze" calcMode="linear"/></path><path d="M55.222 534.233c-24.975-72.21-57.66-235.85 11.402-312.73"><animate attributeName="stroke" begin="c.mouseenter" values="#1D1D1D; #20D2C8; #1D1D1D" dur="1s" repeatCount="1" fill="freeze" calcMode="linear"/></path><path d="M72.452 384.089c-.477-96.293 56.918-288.02 290.308-284.588"><animate attributeName="stroke" begin="d.mouseenter" values="#1D1D1D; #20D2C8; #1D1D1D" dur="1s" repeatCount="1" fill="freeze" calcMode="linear"/></path><path d="M427.114 103.791c65.308 15.254 199.069 90.954 211.654 271.717"><animate attributeName="stroke" begin="e.mouseenter" values="#1D1D1D; #20D2C8; #1D1D1D" dur="1s" repeatCount="1" fill="freeze" calcMode="linear"/></path><path d="M117.255 580.754c-13.703-27.88-40.543-94.413-38.275-137.508"><animate attributeName="stroke" begin="f.mouseenter" values="#1D1D1D; #20D2C8; #1D1D1D" dur="1s" repeatCount="1" fill="freeze" calcMode="linear"/></path><path d="M188.289 218.198c19.545-27.648 73.658-75.795 161.6-75.795 103.215 0 213.084 50.053 237.395 231.675"><animate attributeName="stroke" begin="g.mouseenter" values="#1D1D1D; #20D2C8; #1D1D1D" dur="1s" repeatCount="1" fill="freeze" calcMode="linear"/></path><path d="M183.999 604.322c-38.136-62.447-98.962-215.943-37.182-330.35"><animate attributeName="stroke" begin="h.mouseenter" values="#1D1D1D; #20D2C8; #1D1D1D" dur="1s" repeatCount="1" fill="freeze" calcMode="linear"/></path><path d="M184.268 497.768c-10.572-46.132-24.027-152.234 6.727-207.592 30.755-55.358 90.982-84.575 117.251-92.263"><animate attributeName="stroke" begin="i.mouseenter" values="#1D1D1D; #20D2C8; #1D1D1D" dur="1s" repeatCount="1" fill="freeze" calcMode="linear"/></path><path d="M348.612 189.263c22.104-1.922 73.041.961 99.951 27.871"><animate attributeName="stroke" begin="j.mouseenter" values="#1D1D1D; #20D2C8; #1D1D1D" dur="1s" repeatCount="1" fill="freeze" calcMode="linear"/></path><path d="M511.994 279.604c10.572 7.048 31.716 28.063 31.716 55.742 0 34.599-1.923 85.536 24.027 87.458"><animate attributeName="stroke" begin="k.mouseenter" values="#1D1D1D; #20D2C8; #1D1D1D" dur="1s" repeatCount="1" fill="freeze" calcMode="linear"/></path><path d="M254.437 629.945c-46.079-59.409-45.234-75.091-51.43-95.636"><animate attributeName="stroke" begin="l.mouseenter" values="#1D1D1D; #20D2C8; #1D1D1D" dur="1s" repeatCount="1" fill="freeze" calcMode="linear"/></path><path d="M251.543 280.565c18.26-20.182 72.081-56.511 141.278-40.365 86.497 20.183 100.913 110.524 102.835 129.745 1.922 19.222 5.766 72.081 36.521 87.458 24.603 12.302 52.539 12.173 63.431 10.572"><animate attributeName="stroke" begin="m.mouseenter" values="#1D1D1D; #20D2C8; #1D1D1D" dur="1s" repeatCount="1" fill="freeze" calcMode="linear"/></path><path d="M324.585 645.774c-47.413-51.578-134.935-186.641-105.719-314.272"><animate attributeName="stroke" begin="n.mouseenter" values="#1D1D1D; #20D2C8; #1D1D1D" dur="1s" repeatCount="1" fill="freeze" calcMode="linear"/></path><path d="M388.015 647.696c-48.694-51.258-142.431-175.3-127.822-261.413 14.608-86.112 66.314-103.796 90.341-101.874"><animate attributeName="stroke" begin="o.mouseenter" values="#1D1D1D; #20D2C8; #1D1D1D" dur="1s" repeatCount="1" fill="freeze" calcMode="linear"/></path><path d="M596.569 517.951c-35.88 1.281-111.677-8.458-127.823-57.665-20.183-61.509-2.883-135.511-36.521-144.161"><animate attributeName="stroke" begin="p.mouseenter" values="#1D1D1D; #20D2C8; #1D1D1D" dur="1s" repeatCount="1" fill="freeze" calcMode="linear"/></path><path d="M568.698 560.238c-42.608-3.524-132.052-26.334-148.967-89.38-21.144-78.808-3.844-124.94-47.093-139.356-43.248-14.416-68.236 19.222-69.197 61.509-.769 33.83 8.009 65.994 12.494 77.847"><animate attributeName="stroke" begin="q.mouseenter" values="#1D1D1D; #20D2C8; #1D1D1D" dur="1s" repeatCount="1" fill="freeze" calcMode="linear"/></path><path d="M461.057 634.241c-30.434-15.698-96.299-60.164-116.29-112.446"><animate attributeName="stroke" begin="r.mouseenter" values="#1D1D1D; #20D2C8; #1D1D1D" dur="1s" repeatCount="1" fill="freeze" calcMode="linear"/></path><path d="M351.495 373.789c.961 32.356 13.07 109.178 53.82 157.617"><animate attributeName="stroke" begin="s.mouseenter" values="#1D1D1D; #20D2C8; #1D1D1D" dur="1s" repeatCount="1" fill="freeze" calcMode="linear"/></path><path d="M432.225 561.199c13.455 13.135 49.591 39.788 86.497 41.326"><animate attributeName="stroke" begin="t.mouseenter" values="#1D1D1D; #20D2C8; #1D1D1D" dur="1s" repeatCount="1" fill="freeze" calcMode="linear"/></path></g><g stroke="transparent" stroke-width="30" stroke-linecap="round"><path id="a" d="M9.517 229.188c39.22-97.342 184.005-275.582 449.381-209.805"/><path id="b" d="M121.508 155.473c60.012-73.243 231.92-181.17 439.457-26.935"/><path id="c" d="M55.222 534.233c-24.975-72.21-57.66-235.85 11.402-312.73"/><path id="d" d="M72.452 384.089c-.477-96.293 56.918-288.02 290.308-284.588"/><path id="e" d="M427.114 103.791c65.308 15.254 199.069 90.954 211.654 271.717"/><path id="f" d="M117.255 580.754c-13.703-27.88-40.543-94.413-38.275-137.508"/><path id="g" d="M188.289 218.198c19.545-27.648 73.658-75.795 161.6-75.795 103.215 0 213.084 50.053 237.395 231.675"/><path id="h" d="M183.999 604.322c-38.136-62.447-98.962-215.943-37.182-330.35"/><path id="i" d="M184.268 497.768c-10.572-46.132-24.027-152.234 6.727-207.592 30.755-55.358 90.982-84.575 117.251-92.263"/><path id="j" d="M348.612 189.263c22.104-1.922 73.041.961 99.951 27.871"/><path id="k" d="M511.994 279.604c10.572 7.048 31.716 28.063 31.716 55.742 0 34.599-1.923 85.536 24.027 87.458"/><path id="l" d="M254.437 629.945c-46.079-59.409-45.234-75.091-51.43-95.636"/><path id="m" d="M251.543 280.565c18.26-20.182 72.081-56.511 141.278-40.365 86.497 20.183 100.913 110.524 102.835 129.745 1.922 19.222 5.766 72.081 36.521 87.458 24.603 12.302 52.539 12.173 63.431 10.572"/><path id="n" d="M324.585 645.774c-47.413-51.578-134.935-186.641-105.719-314.272"/><path id="o" d="M388.015 647.696c-48.694-51.258-142.431-175.3-127.822-261.413 14.608-86.112 66.314-103.796 90.341-101.874"/><path id="p" d="M596.569 517.951c-35.88 1.281-111.677-8.458-127.823-57.665-20.183-61.509-2.883-135.511-36.521-144.161"/><path id="q" d="M568.698 560.238c-42.608-3.524-132.052-26.334-148.967-89.38-21.144-78.808-3.844-124.94-47.093-139.356-43.248-14.416-68.236 19.222-69.197 61.509-.769 33.83 8.009 65.994 12.494 77.847"/><path id="r" d="M461.057 634.241c-30.434-15.698-96.299-60.164-116.29-112.446"/><path id="s" d="M351.495 373.789c.961 32.356 13.07 109.178 53.82 157.617"/><path id="t" d="M432.225 561.199c13.455 13.135 49.591 39.788 86.497 41.326"/></g><defs><filter id="filter0_d" x=".516" y=".158" width="647.252" height="660.538" filterUnits="userSpaceOnUse" color-interpolation-filters="sRGB"><feFlood flood-opacity="0" result="BackgroundImageFix"/><feColorMatrix in="SourceAlpha" values="0 0 0 0 0 0 0 0 0 0 0 0 0 0 0 0 0 0 127 0"/><feOffset dy="4"/><feGaussianBlur stdDeviation="2"/><feColorMatrix values="0 0 0 0 0 0 0 0 0 0 0 0 0 0 0 0 0 0 0.25 0"/><feBlend in2="BackgroundImageFix" result="effect1_dropShadow"/><feBlend in="SourceGraphic" in2="effect1_dropShadow" result="shape"/></filter></defs></svg>