<svg width="1158" height="817" viewBox="0 0 1158 817" fill="none" xmlns="http://www.w3.org/2000/svg"><g filter="url(#filter0_d)" stroke="#1F1F1F"><path d="M1113.49 201.214l37.15-65.861h80.52l37.15 65.861-37.16 69.251h-80.5l-37.16-69.251zm-2.65-135.665l37.25-62.701h80.53l39.11 66.089-36.9 65.416h-82.93l-37.06-68.804zm2.65 271.776l37.15-65.86h80.52l37.15 65.86-37.16 69.251h-80.5l-37.16-69.251zM995.331 269.27l37.159-65.866 80.14-1.534 37.24 69.128-37.31 65.952-80.07 1.565-37.159-69.245z"/><path d="M995.331 133.27l37.159-65.866 80.14-1.534 37.24 69.128-37.31 65.952-80.07 1.565-37.159-69.245z"/></g><g filter="url(#filter1_d)" stroke="#1F1F1F" stroke-width="2"><path d="M877.973 472.358l34.866-65.353h81.946l36.875 65.367-36.889 68.745h-79.903l-36.895-68.759zm118.015-66l36.862-65.353h79.94l36.87 65.369-34.67 65.137H1033l-37.012-65.153zm-120.654-69.645l36.959-62.214h79.96l38.817 65.596-36.612 64.91h-82.342l-36.782-68.292zm2.646 271.77l36.874-65.366h79.931l36.875 65.366-36.889 68.745h-79.903l-36.888-68.745zm-118.157-68.055l36.88-65.378 79.55-1.523 36.967 68.616-37.032 65.464-79.483 1.554-36.882-68.733zm0-136l36.879-65.376 77.624-1.288 36.778 67.806-34.935 66.037-79.464 1.554-36.882-68.733z"/></g><g filter="url(#filter2_d)" stroke="#1F1F1F"><path d="M713.761 200.621l37.152-65.861h80.515l37.152 65.861-37.159 69.251H750.92l-37.159-69.251zm118.003-66.007l37.149-65.854h80.515l37.153 65.862-34.943 65.644H869.06l-37.296-65.652zM711.111 64.956l37.248-62.702h80.531l39.113 66.09-36.902 65.416h-82.933l-37.057-68.804zm2.65 271.776l37.152-65.86h80.515l37.152 65.86-37.159 69.251H750.92l-37.159-69.251zm-118.157-68.055l37.155-65.866 80.141-1.534 37.243 69.127-37.309 65.952-80.074 1.566-37.156-69.245z"/><path d="M595.604 132.677l37.155-65.866 80.141-1.534 37.243 69.127-37.309 65.952-80.074 1.566-37.156-69.245z"/></g><g filter="url(#filter3_d)" stroke="#1F1F1F"><path d="M792.854 198.866l37.152-65.86h80.515l37.152 65.86-37.159 69.251h-80.501l-37.159-69.251zm118.004-66.007l37.148-65.853h80.514l37.15 65.861-34.94 65.645h-82.577l-37.295-65.653zM790.204 63.201L827.453.5h80.53l39.113 66.09-36.902 65.416h-82.933l-37.057-68.805zm2.65 271.777l37.152-65.861h80.515l37.152 65.861-37.159 69.251h-80.501l-37.159-69.251zm-118.157-68.055l37.155-65.866 80.141-1.535 37.243 69.128-37.309 65.952-80.074 1.566-37.156-69.245z"/><path d="M674.697 130.923l37.155-65.866 80.141-1.535 37.243 69.128-37.309 65.952-80.074 1.566-37.156-69.245z"/></g><g filter="url(#filter4_d)" stroke="#1F1F1F"><path d="M122.453 402.179l37.78-65.503 80.512.77 36.52 66.212-37.819 68.893-80.497-.769-36.496-69.603zm118.629-64.877l37.776-65.495 80.512.769 36.521 66.214-35.568 65.307-82.574-.789-36.667-66.006zm-119.983-70.807l37.847-62.343 80.526.77 38.48 66.46-37.525 65.061-82.929-.793-36.399-69.155zm.053 271.789l37.78-65.503 80.512.77 36.521 66.212-37.819 68.893-80.498-.769-36.496-69.603zM3.651 469.103l37.783-65.508 80.152-.768 36.58 69.48-37.937 65.592-80.085.801L3.65 469.103z"/><path d="M4.95 333.109l37.783-65.508 80.152-.768 36.581 69.48-37.938 65.593-80.085.8-36.492-69.597z"/></g><g filter="url(#filter5_d)" stroke="#1F1F1F"><path d="M478.358 470.437l37.152-65.861h80.515l37.152 65.861-37.159 69.251h-80.501l-37.159-69.251zm118.004-66.007l37.148-65.854h80.515l37.153 65.862-34.943 65.644h-82.578l-37.295-65.652z"/><path d="M476.708 335.772l37.257-62.715L595 269.048l38.605 70.103-36.907 65.425h-82.933l-37.057-68.804zm1.65 270.776l37.152-65.86h80.515l37.152 65.86-37.159 69.251h-80.501l-37.159-69.251zm-118.157-68.055l37.155-65.866 80.141-1.534 37.243 69.127-37.309 65.952-80.074 1.566-37.156-69.245z"/><path d="M360.201 402.493l37.155-65.866 80.141-1.534 37.243 69.127-37.309 65.952-80.074 1.566-37.156-69.245z"/></g><g filter="url(#filter6_d)" stroke="#1F1F1F"><path d="M562.913 606.295l37.152-65.86h80.516l37.152 65.86-37.159 69.251h-80.501l-37.16-69.251zm118.004-66.007l37.148-65.853h80.516l37.153 65.861-34.943 65.645h-82.578l-37.296-65.653zM560.263 470.63l37.249-62.701h80.53l39.114 66.089-36.902 65.417h-82.933l-37.058-68.805zm2.65 271.777l37.152-65.861h80.516l37.152 65.86-37.159 69.252h-80.501l-37.16-69.251zm-118.156-68.056l37.155-65.865 80.141-1.535 37.242 69.128-37.308 65.952-80.074 1.566-37.156-69.246z"/><path d="M444.757 538.351l37.155-65.865 80.141-1.535 37.242 69.128-37.308 65.952-80.074 1.566-37.156-69.246z"/></g><defs><filter id="filter0_d" x="992.76" y="2.348" width="396.118" height="410.729" filterUnits="userSpaceOnUse" color-interpolation-filters="sRGB"><feFlood flood-opacity="0" result="BackgroundImageFix"/><feColorMatrix in="SourceAlpha" values="0 0 0 0 0 0 0 0 0 0 0 0 0 0 0 0 0 0 127 0"/><feOffset dy="4"/><feGaussianBlur stdDeviation="1"/><feColorMatrix values="0 0 0 0 0 0 0 0 0 0 0 0 0 0 0 0 0 0 0.25 0"/><feBlend in2="BackgroundImageFix" result="effect1_dropShadow"/><feBlend in="SourceGraphic" in2="effect1_dropShadow" result="shape"/></filter><filter id="filter1_d" x="756.682" y="273.499" width="396.118" height="408.729" filterUnits="userSpaceOnUse" color-interpolation-filters="sRGB"><feFlood flood-opacity="0" result="BackgroundImageFix"/><feColorMatrix in="SourceAlpha" values="0 0 0 0 0 0 0 0 0 0 0 0 0 0 0 0 0 0 127 0"/><feOffset dy="2"/><feGaussianBlur stdDeviation="1"/><feColorMatrix values="0 0 0 0 0 0 0 0 0 0 0 0 0 0 0 0 0 0 0.25 0"/><feBlend in2="BackgroundImageFix" result="effect1_dropShadow"/><feBlend in="SourceGraphic" in2="effect1_dropShadow" result="shape"/></filter><filter id="filter2_d" x="593.033" y="1.754" width="396.118" height="410.729" filterUnits="userSpaceOnUse" color-interpolation-filters="sRGB"><feFlood flood-opacity="0" result="BackgroundImageFix"/><feColorMatrix in="SourceAlpha" values="0 0 0 0 0 0 0 0 0 0 0 0 0 0 0 0 0 0 127 0"/><feOffset dy="4"/><feGaussianBlur stdDeviation="1"/><feColorMatrix values="0 0 0 0 0 0 0 0 0 0 0 0 0 0 0 0 0 0 0.25 0"/><feBlend in2="BackgroundImageFix" result="effect1_dropShadow"/><feBlend in="SourceGraphic" in2="effect1_dropShadow" result="shape"/></filter><filter id="filter3_d" x="672.126" y="0" width="396.118" height="410.729" filterUnits="userSpaceOnUse" color-interpolation-filters="sRGB"><feFlood flood-opacity="0" result="BackgroundImageFix"/><feColorMatrix in="SourceAlpha" values="0 0 0 0 0 0 0 0 0 0 0 0 0 0 0 0 0 0 127 0"/><feOffset dy="4"/><feGaussianBlur stdDeviation="1"/><feColorMatrix values="0 0 0 0 0 0 0 0 0 0 0 0 0 0 0 0 0 0 0.25 0"/><feBlend in2="BackgroundImageFix" result="effect1_dropShadow"/><feBlend in="SourceGraphic" in2="effect1_dropShadow" result="shape"/></filter><filter id="filter4_d" x=".414" y="203.291" width="398.682" height="412.226" filterUnits="userSpaceOnUse" color-interpolation-filters="sRGB"><feFlood flood-opacity="0" result="BackgroundImageFix"/><feColorMatrix in="SourceAlpha" values="0 0 0 0 0 0 0 0 0 0 0 0 0 0 0 0 0 0 127 0"/><feOffset dy="4"/><feGaussianBlur stdDeviation="1"/><feColorMatrix values="0 0 0 0 0 0 0 0 0 0 0 0 0 0 0 0 0 0 0.25 0"/><feBlend in2="BackgroundImageFix" result="effect1_dropShadow"/><feBlend in="SourceGraphic" in2="effect1_dropShadow" result="shape"/></filter><filter id="filter5_d" x="357.63" y="268.533" width="396.118" height="413.766" filterUnits="userSpaceOnUse" color-interpolation-filters="sRGB"><feFlood flood-opacity="0" result="BackgroundImageFix"/><feColorMatrix in="SourceAlpha" values="0 0 0 0 0 0 0 0 0 0 0 0 0 0 0 0 0 0 127 0"/><feOffset dy="4"/><feGaussianBlur stdDeviation="1"/><feColorMatrix values="0 0 0 0 0 0 0 0 0 0 0 0 0 0 0 0 0 0 0.25 0"/><feBlend in2="BackgroundImageFix" result="effect1_dropShadow"/><feBlend in="SourceGraphic" in2="effect1_dropShadow" result="shape"/></filter><filter id="filter6_d" x="442.186" y="407.429" width="396.118" height="408.729" filterUnits="userSpaceOnUse" color-interpolation-filters="sRGB"><feFlood flood-opacity="0" result="BackgroundImageFix"/><feColorMatrix in="SourceAlpha" values="0 0 0 0 0 0 0 0 0 0 0 0 0 0 0 0 0 0 127 0"/><feOffset dy="2"/><feGaussianBlur stdDeviation="1"/><feColorMatrix values="0 0 0 0 0 0 0 0 0 0 0 0 0 0 0 0 0 0 0.25 0"/><feBlend in2="BackgroundImageFix" result="effect1_dropShadow"/><feBlend in="SourceGraphic" in2="effect1_dropShadow" result="shape"/></filter></defs></svg>