<svg width="1440" height="317" viewBox="0 0 1440 317" fill="none" xmlns="http://www.w3.org/2000/svg"><g stroke-dasharray="1848" stroke-dashoffset="1848"><animate id="a" attributeName="stroke-dashoffset" begin="indefinite" values="1848; 0" dur="6s" repeatCount="1" calcMode="linear"/><animate id="b" attributeName="stroke-dashoffset" begin="indefinite" values="-1848; 0" dur="6s" repeatCount="1" calcMode="linear"/><g filter="url(#filter_info_line_10_df)"><path d="M-4.367 158.849c15.29 1.518 53.575 6.833 84.398 15.943 38.529 11.387 89.901 13.664 110.083-23.914 20.182-37.579 77.058-100.21 106.414-43.273 29.355 56.938 51.372 190.172 106.414 187.894 55.041-2.277 75.223-64.909 86.232-97.932 11.008-33.024 47.702-103.626 135.769-75.158 88.066 28.469 60.546 72.879 155.951 36.44 95.406-36.44 106.414 3.417 126.596 29.608 20.182 26.191 75.223 99.071 124.76 9.11 49.54-89.962 95.41-111.597 152.28-75.158 56.88 36.44 47.71 52.383 99.08 52.383s58.71-15.943 99.07-15.943h58.71" stroke="url(#paint_info_line_10_linear)" stroke-width="16" stroke-linecap="round"/></g><g filter="url(#filter_info_line_11_d)"><path d="M-7.59 163.849c15.29 1.518 53.576 6.833 84.399 15.943 38.528 11.387 89.901 13.664 110.082-23.914 20.182-37.579 77.059-100.21 106.414-43.273 29.356 56.938 51.372 190.172 106.414 187.894 55.042-2.277 75.224-64.909 86.232-97.932 11.008-33.024 47.703-103.626 135.769-75.158 88.067 28.469 60.546 72.879 155.951 36.44 95.406-36.44 106.414 3.417 126.596 29.608 20.182 26.191 75.224 99.071 124.763 9.11 49.54-89.962 95.4-111.597 152.28-75.158 56.88 36.44 47.7 52.383 99.07 52.383 51.38 0 58.72-15.943 99.08-15.943h58.71" stroke="url(#paint_info_line_11_linear)" stroke-width="16" stroke-linecap="round"/></g></g><g stroke-dasharray="2522" stroke-dashoffset="2522"><animate attributeName="stroke-dashoffset" begin="a.begin + 1s" values="2522; 0" dur="5s" repeatCount="1" calcMode="linear"/><animate attributeName="stroke-dashoffset" begin="b.begin + 1s" values="-2522; 0" dur="5s" repeatCount="1" calcMode="linear"/><set attributeName="stroke-dashoffset" begin="a.begin" to="2522" dur="1s"/><set attributeName="stroke-dashoffset" begin="b.begin" to="-2522" dur="1s"/><g filter="url(#filter_info_line_12_df)"><path d="M-103.49 158.746c41.608-1.704 136.83-7.912 184.86-19.113 60.038-14.002 92.786-31.115 112.798-12.446 20.013 18.669 81.87 119.793 103.701 79.343 21.832-40.45 41.462-147.692 100.096-145.081 58.633 2.611 87.755 133.669 96.501 172.353 8.746 38.685 53.747 49.095 67.184 0 13.437-49.094 45.196-182.799 57.412-203.69 12.215-20.892 43.072-15.92 51.304 0 10.43 20.17 57.653 228.451 72.07 253.307 10.235 17.647 45.189 14.932 52.526-15.668 5.283-22.036 21.987-193.245 78.177-187.5 56.191 5.745 62.874 102.43 80.621 126.279 18.018 24.212 70.85 24.661 87.95-16.077 22.44-53.455 29.08-91.338 81.65-74.419 34.19 11 30.73 69.718 85.7 74.419 54.97 4.7 109.94-28.203 163.68-28.204h73.3" stroke="url(#paint_info_line_12_linear)" stroke-opacity=".5" stroke-width="16" stroke-linecap="round"/></g><g filter="url(#filter_info_line_13_d)"><path d="M-114.342 158.746c41.774-1.704 137.379-7.912 185.601-19.113 60.278-14.002 93.157-31.115 113.25-12.446 20.092 18.669 82.197 119.793 104.116 79.343 21.92-40.45 41.629-147.692 100.497-145.081 58.868 2.611 88.106 133.669 96.887 172.353 8.781 38.685 53.963 49.095 67.454 0 13.49-49.094 45.377-182.799 57.642-203.69 12.264-20.892 43.244-15.92 51.509 0 10.472 20.17 57.885 228.451 72.359 253.307 10.277 17.647 45.37 14.932 52.737-15.668 5.304-22.036 22.075-193.245 78.491-187.5 56.415 5.745 63.125 102.43 80.944 126.279 18.089 24.212 71.135 24.661 88.305-16.077 22.53-53.455 29.19-91.338 81.98-74.419 34.32 11 30.85 69.718 86.04 74.419 55.19 4.7 110.38-28.203 164.34-28.204h73.58" stroke="url(#paint_info_line_13_linear)" stroke-width="16" stroke-linecap="round"/></g></g><defs><linearGradient id="paint_info_line_10_linear" x1="-4.367" y1="155.782" x2="1474.72" y2="171.815" gradientUnits="userSpaceOnUse"><stop stop-color="#8ACACD"/><stop offset="0" stop-color="#AED1D2"/><stop offset=".464" stop-color="#DAEBEF"/><stop offset="1" stop-color="#93A7D2"/></linearGradient><linearGradient id="paint_info_line_11_linear" x1="-7.59" y1="160.782" x2="1471.49" y2="176.815" gradientUnits="userSpaceOnUse"><stop stop-color="#8ACACD"/><stop offset="0" stop-color="#AED1D2"/><stop offset=".464" stop-color="#DAEBEF"/><stop offset="1" stop-color="#93A7D2"/></linearGradient><linearGradient id="paint_info_line_12_linear" x1="-140.887" y1="173.029" x2="1445.68" y2="137.317" gradientUnits="userSpaceOnUse"><stop stop-color="#6AEDFC"/><stop offset="1" stop-color="#5D89F0"/></linearGradient><linearGradient id="paint_info_line_13_linear" x1="-151.889" y1="173.029" x2="1441.03" y2="137.03" gradientUnits="userSpaceOnUse"><stop stop-color="#6AEDFC"/><stop offset="1" stop-color="#5D89F0"/></linearGradient><filter id="filter_info_line_10_df" x="-19.368" y="69.707" width="1475.76" height="241.821" filterUnits="userSpaceOnUse" color-interpolation-filters="sRGB"><feFlood flood-opacity="0" result="BackgroundImageFix"/><feColorMatrix in="SourceAlpha" values="0 0 0 0 0 0 0 0 0 0 0 0 0 0 0 0 0 0 127 0"/><feOffset dy="4"/><feGaussianBlur stdDeviation="2"/><feColorMatrix values="0 0 0 0 0 0 0 0 0 0 0 0 0 0 0 0 0 0 0.25 0"/><feBlend in2="BackgroundImageFix" result="effect1_dropShadow"/><feBlend in="SourceGraphic" in2="effect1_dropShadow" result="shape"/><feGaussianBlur stdDeviation="3.5" result="effect2_foregroundBlur"/></filter><filter id="filter_info_line_11_d" x="-19.59" y="81.707" width="1469.76" height="234.821" filterUnits="userSpaceOnUse" color-interpolation-filters="sRGB"><feFlood flood-opacity="0" result="BackgroundImageFix"/><feColorMatrix in="SourceAlpha" values="0 0 0 0 0 0 0 0 0 0 0 0 0 0 0 0 0 0 127 0"/><feOffset dy="4"/><feGaussianBlur stdDeviation="2"/><feColorMatrix values="0 0 0 0 0 0 0 0 0 0 0 0 0 0 0 0 0 0 0.25 0"/><feBlend in2="BackgroundImageFix" result="effect1_dropShadow"/><feBlend in="SourceGraphic" in2="effect1_dropShadow" result="shape"/></filter><filter id="filter_info_line_12_df" x="-119.49" y=".246" width="1581.53" height="314.083" filterUnits="userSpaceOnUse" color-interpolation-filters="sRGB"><feFlood flood-opacity="0" result="BackgroundImageFix"/><feColorMatrix in="SourceAlpha" values="0 0 0 0 0 0 0 0 0 0 0 0 0 0 0 0 0 0 127 0"/><feOffset dy="8"/><feGaussianBlur stdDeviation="2"/><feColorMatrix values="0 0 0 0 0 0 0 0 0 0 0 0 0 0 0 0 0 0 0.25 0"/><feBlend in2="BackgroundImageFix" result="effect1_dropShadow"/><feBlend in="SourceGraphic" in2="effect1_dropShadow" result="shape"/><feGaussianBlur stdDeviation="4" result="effect2_foregroundBlur"/></filter><filter id="filter_info_line_13_d" x="-126.342" y="8.246" width="1579.74" height="304.083" filterUnits="userSpaceOnUse" color-interpolation-filters="sRGB"><feFlood flood-opacity="0" result="BackgroundImageFix"/><feColorMatrix in="SourceAlpha" values="0 0 0 0 0 0 0 0 0 0 0 0 0 0 0 0 0 0 127 0"/><feOffset dy="6"/><feGaussianBlur stdDeviation="2"/><feColorMatrix values="0 0 0 0 0 0 0 0 0 0 0 0 0 0 0 0 0 0 0.25 0"/><feBlend in2="BackgroundImageFix" result="effect1_dropShadow"/><feBlend in="SourceGraphic" in2="effect1_dropShadow" result="shape"/></filter></defs></svg>