<svg width="1440" height="315" viewBox="0 0 1440 315" fill="none" xmlns="http://www.w3.org/2000/svg"><g stroke-dasharray="1876" stroke-dashoffset="1876"><animate id="a" attributeName="stroke-dashoffset" begin="indefinite" values="1876; 0" dur="6s" repeatCount="1" calcMode="linear"/><animate id="b" attributeName="stroke-dashoffset" begin="indefinite" values="-1876; 0" dur="6s" repeatCount="1" calcMode="linear"/><g filter="url(#filter_info_line_30_df)"><path d="M-8.727 152.849c15.645 1.518 54.822 6.833 86.362 15.943 39.426 11.387 91.994 13.664 112.645-23.914 20.652-37.579 78.852-100.21 108.891-43.273 30.039 56.938 52.568 190.172 108.89 187.894 56.323-2.277 76.975-64.909 88.239-97.932 11.265-33.024 48.813-103.626 138.929-75.158 90.117 28.469 61.955 72.879 159.581 36.44 97.626-36.44 108.891 3.417 129.542 29.608 20.652 26.191 76.978 99.071 127.668 9.11 50.69-89.962 97.62-111.597 155.82-75.158 58.2 36.44 48.82 52.383 101.38 52.383 52.57 0 60.08-15.943 101.38-15.943h60.08" stroke="url(#paint_info_line_30_linear)" stroke-width="16" stroke-linecap="round"/></g><g filter="url(#filter_info_line_31_d)"><path d="M-7.782 156.849c15.645 1.518 54.822 6.833 86.362 15.943 39.426 11.387 91.994 13.664 112.645-23.914 20.652-37.579 78.852-100.21 108.891-43.273 30.039 56.938 52.568 190.172 108.89 187.894 56.323-2.277 76.975-64.909 88.239-97.932 11.265-33.024 48.813-103.626 138.929-75.158 90.117 28.469 61.955 72.879 159.581 36.44 97.626-36.44 108.891 3.417 129.542 29.608 20.652 26.191 76.973 99.071 127.663 9.11 50.69-89.962 97.63-111.597 155.83-75.158 58.2 36.44 48.81 52.383 101.38 52.383 52.57 0 60.08-15.943 101.38-15.943h60.08" stroke="url(#paint_info_line_31_linear)" stroke-width="16" stroke-linecap="round"/></g></g><g stroke-dasharray="2476" stroke-dashoffset="2476"><animate attributeName="stroke-dashoffset" begin="a.begin + 1s" values="2476; 0" dur="5s" repeatCount="1" calcMode="linear"/><animate attributeName="stroke-dashoffset" begin="b.begin + 1s" values="-2476; 0" dur="5s" repeatCount="1" calcMode="linear"/><set attributeName="stroke-dashoffset" begin="a.begin" to="2476" dur="1s"/><set attributeName="stroke-dashoffset" begin="b.begin" to="-2476" dur="1s"/><g filter="url(#filter_info_line_32_df)"><path d="M-11.913 158.507c40.18-1.704 132.135-7.912 178.517-19.113 57.977-14.002 89.601-31.116 108.927-12.447 19.326 18.67 79.06 119.793 100.142 79.344 21.083-40.45 40.04-147.693 96.661-145.081 56.622 2.611 84.744 133.669 93.19 172.353 8.445 38.684 51.903 49.095 64.878 0 12.976-49.095 43.646-182.8 55.442-203.69 11.796-20.892 41.594-15.92 49.544 0 10.072 20.17 55.675 228.451 69.597 253.307 9.884 17.647 43.638 14.932 50.723-15.668 5.102-22.036 21.233-193.245 75.496-187.5 54.262 5.745 60.715 102.43 77.856 126.279 17.4 24.211 68.42 24.661 84.93-16.077 21.67-53.456 28.08-91.338 78.85-74.42 33.01 11.001 29.67 69.719 82.76 74.42 53.08 4.7 106.16-28.204 158.07-28.204h70.77" stroke="url(#paint_info_line_32_linear)" stroke-opacity=".5" stroke-width="16" stroke-linecap="round"/></g><g filter="url(#filter_info_line_33_d)"><path d="M-22.351 158.507c40.18-1.704 132.135-7.912 178.517-19.113 57.978-14.002 89.601-31.116 108.927-12.447 19.326 18.67 79.06 119.793 100.143 79.344 21.082-40.45 40.039-147.693 96.66-145.081 56.622 2.611 84.744 133.669 93.19 172.353 8.446 38.684 51.903 49.095 64.879 0 12.975-49.095 43.645-182.8 55.441-203.69 11.797-20.892 41.595-15.92 49.544 0 10.072 20.17 55.675 228.451 69.597 253.307 9.885 17.647 43.639 14.932 50.724-15.668 5.102-22.036 21.233-193.245 75.495-187.5 54.262 5.745 60.716 102.43 77.854 126.279 17.4 24.211 68.42 24.661 84.93-16.077 21.67-53.456 28.08-91.338 78.85-74.42 33.01 11.001 29.68 69.719 82.76 74.42 53.08 4.7 106.16-28.204 158.07-28.204H1474" stroke="url(#paint_info_line_33_linear)" stroke-width="16" stroke-linecap="round"/></g></g><defs><linearGradient id="paint_info_line_30_linear" x1="-8.727" y1="149.782" x2="1504.77" y2="166.569" gradientUnits="userSpaceOnUse"><stop offset="0" stop-color="#B194DD"/><stop offset="1" stop-color="#EEC7F5"/></linearGradient><linearGradient id="paint_info_line_31_linear" x1="-7.782" y1="153.782" x2="1505.72" y2="170.569" gradientUnits="userSpaceOnUse"><stop stop-color="#EBE5F8"/><stop offset="0" stop-color="#A48ADA"/><stop offset=".547" stop-color="#F9E3FF"/><stop offset="1" stop-color="#F3A5FF"/></linearGradient><linearGradient id="paint_info_line_32_linear" x1="-48.027" y1="172.79" x2="1484.15" y2="139.486" gradientUnits="userSpaceOnUse"><stop stop-color="#8167EF"/><stop offset=".417" stop-color="#C046EA"/><stop offset="1" stop-color="#E93EF7"/></linearGradient><linearGradient id="paint_info_line_33_linear" x1="-58.465" y1="172.79" x2="1473.71" y2="139.486" gradientUnits="userSpaceOnUse"><stop stop-color="#8167EF"/><stop offset=".417" stop-color="#C046EA"/><stop offset="1" stop-color="#E93EF7"/></linearGradient><filter id="filter_info_line_30_df" x="-23.728" y="63.708" width="1509.41" height="241.821" filterUnits="userSpaceOnUse" color-interpolation-filters="sRGB"><feFlood flood-opacity="0" result="BackgroundImageFix"/><feColorMatrix in="SourceAlpha" values="0 0 0 0 0 0 0 0 0 0 0 0 0 0 0 0 0 0 127 0"/><feOffset dy="4"/><feGaussianBlur stdDeviation="2"/><feColorMatrix values="0 0 0 0 0 0 0 0 0 0 0 0 0 0 0 0 0 0 0.25 0"/><feBlend in2="BackgroundImageFix" result="effect1_dropShadow"/><feBlend in="SourceGraphic" in2="effect1_dropShadow" result="shape"/><feGaussianBlur stdDeviation="3.5" result="effect2_foregroundBlur"/></filter><filter id="filter_info_line_31_d" x="-19.783" y="74.708" width="1503.41" height="234.821" filterUnits="userSpaceOnUse" color-interpolation-filters="sRGB"><feFlood flood-opacity="0" result="BackgroundImageFix"/><feColorMatrix in="SourceAlpha" values="0 0 0 0 0 0 0 0 0 0 0 0 0 0 0 0 0 0 127 0"/><feOffset dy="4"/><feGaussianBlur stdDeviation="2"/><feColorMatrix values="0 0 0 0 0 0 0 0 0 0 0 0 0 0 0 0 0 0 0.25 0"/><feBlend in2="BackgroundImageFix" result="effect1_dropShadow"/><feBlend in="SourceGraphic" in2="effect1_dropShadow" result="shape"/></filter><filter id="filter_info_line_32_df" x="-27.914" y=".007" width="1528.36" height="314.083" filterUnits="userSpaceOnUse" color-interpolation-filters="sRGB"><feFlood flood-opacity="0" result="BackgroundImageFix"/><feColorMatrix in="SourceAlpha" values="0 0 0 0 0 0 0 0 0 0 0 0 0 0 0 0 0 0 127 0"/><feOffset dy="8"/><feGaussianBlur stdDeviation="2"/><feColorMatrix values="0 0 0 0 0 0 0 0 0 0 0 0 0 0 0 0 0 0 0.25 0"/><feBlend in2="BackgroundImageFix" result="effect1_dropShadow"/><feBlend in="SourceGraphic" in2="effect1_dropShadow" result="shape"/><feGaussianBlur stdDeviation="4" result="effect2_foregroundBlur"/></filter><filter id="filter_info_line_33_d" x="-34.351" y="8.007" width="1520.36" height="304.083" filterUnits="userSpaceOnUse" color-interpolation-filters="sRGB"><feFlood flood-opacity="0" result="BackgroundImageFix"/><feColorMatrix in="SourceAlpha" values="0 0 0 0 0 0 0 0 0 0 0 0 0 0 0 0 0 0 127 0"/><feOffset dy="6"/><feGaussianBlur stdDeviation="2"/><feColorMatrix values="0 0 0 0 0 0 0 0 0 0 0 0 0 0 0 0 0 0 0.25 0"/><feBlend in2="BackgroundImageFix" result="effect1_dropShadow"/><feBlend in="SourceGraphic" in2="effect1_dropShadow" result="shape"/></filter></defs></svg>