<svg width="1440" height="859" viewBox="0 0 1440 859" fill="none" xmlns="http://www.w3.org/2000/svg"><g filter="url(#filter0_d)" fill="#212121"><circle cx="690.3" cy="444.123" r="5.444"/><circle cx="786.875" cy="444.123" r="5.444"/><circle cx="879.189" cy="444.123" r="5.444"/><circle cx="975.29" cy="444.123" r="5.444"/><circle cx="1071.39" cy="444.123" r="5.444"/><circle cx="690.3" cy="539.447" r="5.444"/><circle cx="786.875" cy="539.447" r="5.444"/><circle cx="879.189" cy="539.447" r="5.444"/><circle cx="975.29" cy="539.447" r="5.444"/><circle cx="1071.39" cy="539.447" r="5.444"/><circle cx="690.3" cy="632.048" r="5.444"/><circle cx="786.875" cy="632.048" r="5.444"/><circle cx="879.189" cy="632.048" r="5.444"/><circle cx="975.29" cy="632.048" r="5.444"/><circle cx="1071.39" cy="632.048" r="5.444"/><circle cx="690.3" cy="730.096" r="5.444"/><circle cx="786.875" cy="730.096" r="5.444"/><circle cx="879.189" cy="730.096" r="5.444"/><circle cx="975.29" cy="730.096" r="5.444"/><circle cx="1071.39" cy="730.096" r="5.444"/><circle cx="690.3" cy="730.096" r="5.444"/><circle cx="786.875" cy="730.096" r="5.444"/><circle cx="879.189" cy="730.096" r="5.444"/><circle cx="975.29" cy="730.096" r="5.444"/><circle cx="1071.39" cy="730.096" r="5.444"/><circle cx="690.3" cy="827.054" r="5.444"/><circle cx="786.875" cy="827.054" r="5.444"/><circle cx="879.189" cy="827.054" r="5.444"/><circle cx="975.29" cy="827.054" r="5.444"/><circle cx="1071.39" cy="827.054" r="5.444"/></g><g filter="url(#filter1_d)" fill="#212121"><circle cx="9.378" cy="444.123" r="5.444"/><circle cx="105.479" cy="444.123" r="5.444"/><circle cx="9.378" cy="539.447" r="5.444"/><circle cx="105.479" cy="539.447" r="5.444"/><circle cx="9.378" cy="632.048" r="5.444"/><circle cx="105.479" cy="632.048" r="5.444"/><circle cx="9.378" cy="730.096" r="5.444"/><circle cx="105.479" cy="730.096" r="5.444"/><circle cx="9.378" cy="730.096" r="5.444"/><circle cx="105.479" cy="730.096" r="5.444"/><circle cx="9.378" cy="827.054" r="5.444"/><circle cx="105.479" cy="827.054" r="5.444"/></g><g filter="url(#filter2_d)" fill="#212121"><circle cx="207.343" cy="444.123" r="5.444"/><circle cx="303.918" cy="444.123" r="5.444"/><circle cx="396.232" cy="444.123" r="5.444"/><circle cx="492.334" cy="444.123" r="5.444"/><circle cx="588.435" cy="444.123" r="5.444"/><circle cx="207.343" cy="539.447" r="5.444"/><circle cx="303.918" cy="539.447" r="5.444"/><circle cx="396.232" cy="539.447" r="5.444"/><circle cx="492.334" cy="539.447" r="5.444"/><circle cx="588.435" cy="539.447" r="5.444"/><circle cx="207.343" cy="632.048" r="5.444"/><circle cx="303.918" cy="632.048" r="5.444"/><circle cx="396.232" cy="632.048" r="5.444"/><circle cx="492.334" cy="632.048" r="5.444"/><circle cx="588.435" cy="632.048" r="5.444"/><circle cx="207.343" cy="730.096" r="5.444"/><circle cx="303.918" cy="730.096" r="5.444"/><circle cx="396.232" cy="730.096" r="5.444"/><circle cx="492.334" cy="730.096" r="5.444"/><circle cx="588.435" cy="730.096" r="5.444"/><circle cx="207.343" cy="730.096" r="5.444"/><circle cx="303.918" cy="730.096" r="5.444"/><circle cx="396.232" cy="730.096" r="5.444"/><circle cx="492.334" cy="730.096" r="5.444"/><circle cx="588.435" cy="730.096" r="5.444"/><circle cx="207.343" cy="827.054" r="5.444"/><circle cx="303.918" cy="827.054" r="5.444"/><circle cx="396.232" cy="827.054" r="5.444"/><circle cx="492.334" cy="827.054" r="5.444"/><circle cx="588.435" cy="827.054" r="5.444"/></g><g filter="url(#filter3_d)" fill="#212121"><circle cx="207.343" cy="75.289" r="5.444"/><circle cx="303.918" cy="75.289" r="5.444"/><circle cx="396.232" cy="75.289" r="5.444"/><circle cx="492.334" cy="75.289" r="5.444"/><circle cx="588.435" cy="75.289" r="5.444"/><circle cx="207.343" cy="173.337" r="5.444"/><circle cx="303.918" cy="173.336" r="5.444"/><circle cx="396.232" cy="173.336" r="5.444"/><circle cx="492.334" cy="173.336" r="5.444"/><circle cx="588.435" cy="173.336" r="5.444"/><circle cx="207.343" cy="173.337" r="5.444"/><circle cx="303.918" cy="173.336" r="5.444"/><circle cx="396.232" cy="173.336" r="5.444"/><circle cx="492.334" cy="173.336" r="5.444"/><circle cx="588.435" cy="173.336" r="5.444"/><circle cx="207.343" cy="270.294" r="5.444"/><circle cx="303.918" cy="270.295" r="5.444"/><circle cx="396.232" cy="270.295" r="5.444"/><circle cx="492.334" cy="270.295" r="5.444"/><circle cx="588.435" cy="270.295" r="5.444"/><circle cx="207.343" cy="354.725" r="5.444"/><circle cx="303.918" cy="354.725" r="5.444"/><circle cx="396.232" cy="354.725" r="5.444"/><circle cx="492.334" cy="354.725" r="5.444"/><circle cx="588.435" cy="354.725" r="5.444"/></g><g filter="url(#filter4_d)" fill="#212121"><circle cx="686.415" cy="75.289" r="5.444"/><circle cx="782.99" cy="75.289" r="5.444"/><circle cx="875.304" cy="75.289" r="5.444"/><circle cx="971.405" cy="75.289" r="5.444"/><circle cx="1067.51" cy="75.289" r="5.444"/><circle cx="686.415" cy="173.337" r="5.444"/><circle cx="782.99" cy="173.336" r="5.444"/><circle cx="875.304" cy="173.336" r="5.444"/><circle cx="971.405" cy="173.336" r="5.444"/><circle cx="1067.51" cy="173.336" r="5.444"/><circle cx="686.415" cy="173.337" r="5.444"/><circle cx="782.99" cy="173.336" r="5.444"/><circle cx="875.304" cy="173.336" r="5.444"/><circle cx="971.405" cy="173.336" r="5.444"/><circle cx="1067.51" cy="173.336" r="5.444"/><circle cx="686.415" cy="270.294" r="5.444"/><circle cx="782.99" cy="270.295" r="5.444"/><circle cx="875.304" cy="270.295" r="5.444"/><circle cx="971.405" cy="270.295" r="5.444"/><circle cx="1067.51" cy="270.295" r="5.444"/><circle cx="686.415" cy="354.725" r="5.444"/><circle cx="782.99" cy="354.725" r="5.444"/><circle cx="875.304" cy="354.725" r="5.444"/><circle cx="971.405" cy="354.725" r="5.444"/><circle cx="1067.51" cy="354.725" r="5.444"/></g><g filter="url(#filter5_d)" fill="#212121"><circle cx="1182.32" cy="444.123" r="5.444"/><circle cx="1278.89" cy="444.123" r="5.444"/><circle cx="1371.21" cy="444.123" r="5.444"/><circle cx="1182.32" cy="539.447" r="5.444"/><circle cx="1278.89" cy="539.447" r="5.444"/><circle cx="1371.21" cy="539.447" r="5.444"/><circle cx="1182.32" cy="632.048" r="5.444"/><circle cx="1278.89" cy="632.048" r="5.444"/><circle cx="1371.21" cy="632.048" r="5.444"/><circle cx="1182.32" cy="730.096" r="5.444"/><circle cx="1278.89" cy="730.096" r="5.444"/><circle cx="1371.21" cy="730.096" r="5.444"/><circle cx="1182.32" cy="730.096" r="5.444"/><circle cx="1278.89" cy="730.096" r="5.444"/><circle cx="1371.21" cy="730.096" r="5.444"/><circle cx="1182.32" cy="827.054" r="5.444"/><circle cx="1278.89" cy="827.054" r="5.444"/><circle cx="1371.21" cy="827.054" r="5.444"/></g><g filter="url(#filter6_d)" fill="#212121"><circle cx="1178.43" cy="75.289" r="5.444"/><circle cx="1275.01" cy="75.289" r="5.444"/><circle cx="1367.32" cy="75.289" r="5.444"/><circle cx="1178.43" cy="173.337" r="5.444"/><circle cx="1275.01" cy="173.336" r="5.444"/><circle cx="1367.32" cy="173.336" r="5.444"/><circle cx="1178.43" cy="173.337" r="5.444"/><circle cx="1275.01" cy="173.336" r="5.444"/><circle cx="1367.32" cy="173.336" r="5.444"/><circle cx="1178.43" cy="270.294" r="5.444"/><circle cx="1275.01" cy="270.295" r="5.444"/><circle cx="1367.32" cy="270.295" r="5.444"/><circle cx="1178.43" cy="354.725" r="5.444"/><circle cx="1275.01" cy="354.725" r="5.444"/><circle cx="1367.32" cy="354.725" r="5.444"/></g><g filter="url(#filter7_d)" fill="#212121"><circle cx="9.378" cy="75.289" r="5.444"/><circle cx="105.479" cy="75.289" r="5.444"/><circle cx="9.378" cy="173.336" r="5.444"/><circle cx="105.479" cy="173.336" r="5.444"/><circle cx="9.378" cy="173.336" r="5.444"/><circle cx="105.479" cy="173.336" r="5.444"/><circle cx="9.378" cy="270.295" r="5.444"/><circle cx="105.479" cy="270.295" r="5.444"/><circle cx="9.378" cy="354.725" r="5.444"/><circle cx="105.479" cy="354.725" r="5.444"/></g><g filter="url(#filter8_d)" fill="#212121"><circle cx="9.378" cy="75.289" r="5.444"/><circle cx="105.479" cy="75.289" r="5.444"/><circle cx="9.378" cy="173.336" r="5.444"/><circle cx="105.479" cy="173.336" r="5.444"/><circle cx="9.378" cy="173.336" r="5.444"/><circle cx="105.479" cy="173.336" r="5.444"/><circle cx="9.378" cy="270.295" r="5.444"/><circle cx="105.479" cy="270.295" r="5.444"/><circle cx="9.378" cy="354.725" r="5.444"/><circle cx="105.479" cy="354.725" r="5.444"/></g><defs><filter id="filter0_d" x="680.855" y="436.679" width="399.98" height="486.249" filterUnits="userSpaceOnUse" color-interpolation-filters="sRGB"><feFlood flood-opacity="0" result="BackgroundImageFix"/><feColorMatrix in="SourceAlpha" values="0 0 0 0 0 0 0 0 0 0 0 0 0 0 0 0 0 0 127 0"/><feOffset dy="2"/><feGaussianBlur stdDeviation="2"/><feColorMatrix values="0 0 0 0 0 0 0 0 0 0 0 0 0 0 0 0 0 0 0.35 0"/><feBlend in2="BackgroundImageFix" result="effect1_dropShadow"/><feBlend in="SourceGraphic" in2="effect1_dropShadow" result="shape"/></filter><filter id="filter1_d" x="-285.057" y="436.679" width="399.98" height="486.249" filterUnits="userSpaceOnUse" color-interpolation-filters="sRGB"><feFlood flood-opacity="0" result="BackgroundImageFix"/><feColorMatrix in="SourceAlpha" values="0 0 0 0 0 0 0 0 0 0 0 0 0 0 0 0 0 0 127 0"/><feOffset dy="2"/><feGaussianBlur stdDeviation="2"/><feColorMatrix values="0 0 0 0 0 0 0 0 0 0 0 0 0 0 0 0 0 0 0.35 0"/><feBlend in2="BackgroundImageFix" result="effect1_dropShadow"/><feBlend in="SourceGraphic" in2="effect1_dropShadow" result="shape"/></filter><filter id="filter2_d" x="197.899" y="436.679" width="399.98" height="486.249" filterUnits="userSpaceOnUse" color-interpolation-filters="sRGB"><feFlood flood-opacity="0" result="BackgroundImageFix"/><feColorMatrix in="SourceAlpha" values="0 0 0 0 0 0 0 0 0 0 0 0 0 0 0 0 0 0 127 0"/><feOffset dy="2"/><feGaussianBlur stdDeviation="2"/><feColorMatrix values="0 0 0 0 0 0 0 0 0 0 0 0 0 0 0 0 0 0 0.35 0"/><feBlend in2="BackgroundImageFix" result="effect1_dropShadow"/><feBlend in="SourceGraphic" in2="effect1_dropShadow" result="shape"/></filter><filter id="filter3_d" x="197.899" y="-120.08" width="399.98" height="486.249" filterUnits="userSpaceOnUse" color-interpolation-filters="sRGB"><feFlood flood-opacity="0" result="BackgroundImageFix"/><feColorMatrix in="SourceAlpha" values="0 0 0 0 0 0 0 0 0 0 0 0 0 0 0 0 0 0 127 0"/><feOffset dy="2"/><feGaussianBlur stdDeviation="2"/><feColorMatrix values="0 0 0 0 0 0 0 0 0 0 0 0 0 0 0 0 0 0 0.35 0"/><feBlend in2="BackgroundImageFix" result="effect1_dropShadow"/><feBlend in="SourceGraphic" in2="effect1_dropShadow" result="shape"/></filter><filter id="filter4_d" x="676.971" y="-120.08" width="399.98" height="486.249" filterUnits="userSpaceOnUse" color-interpolation-filters="sRGB"><feFlood flood-opacity="0" result="BackgroundImageFix"/><feColorMatrix in="SourceAlpha" values="0 0 0 0 0 0 0 0 0 0 0 0 0 0 0 0 0 0 127 0"/><feOffset dy="2"/><feGaussianBlur stdDeviation="2"/><feColorMatrix values="0 0 0 0 0 0 0 0 0 0 0 0 0 0 0 0 0 0 0.35 0"/><feBlend in2="BackgroundImageFix" result="effect1_dropShadow"/><feBlend in="SourceGraphic" in2="effect1_dropShadow" result="shape"/></filter><filter id="filter5_d" x="1172.88" y="436.679" width="399.98" height="486.249" filterUnits="userSpaceOnUse" color-interpolation-filters="sRGB"><feFlood flood-opacity="0" result="BackgroundImageFix"/><feColorMatrix in="SourceAlpha" values="0 0 0 0 0 0 0 0 0 0 0 0 0 0 0 0 0 0 127 0"/><feOffset dy="2"/><feGaussianBlur stdDeviation="2"/><feColorMatrix values="0 0 0 0 0 0 0 0 0 0 0 0 0 0 0 0 0 0 0.35 0"/><feBlend in2="BackgroundImageFix" result="effect1_dropShadow"/><feBlend in="SourceGraphic" in2="effect1_dropShadow" result="shape"/></filter><filter id="filter6_d" x="1168.99" y="-120.08" width="399.981" height="486.249" filterUnits="userSpaceOnUse" color-interpolation-filters="sRGB"><feFlood flood-opacity="0" result="BackgroundImageFix"/><feColorMatrix in="SourceAlpha" values="0 0 0 0 0 0 0 0 0 0 0 0 0 0 0 0 0 0 127 0"/><feOffset dy="2"/><feGaussianBlur stdDeviation="2"/><feColorMatrix values="0 0 0 0 0 0 0 0 0 0 0 0 0 0 0 0 0 0 0.35 0"/><feBlend in2="BackgroundImageFix" result="effect1_dropShadow"/><feBlend in="SourceGraphic" in2="effect1_dropShadow" result="shape"/></filter><filter id="filter7_d" x="-285.057" y="-120.08" width="399.98" height="486.249" filterUnits="userSpaceOnUse" color-interpolation-filters="sRGB"><feFlood flood-opacity="0" result="BackgroundImageFix"/><feColorMatrix in="SourceAlpha" values="0 0 0 0 0 0 0 0 0 0 0 0 0 0 0 0 0 0 127 0"/><feOffset dy="2"/><feGaussianBlur stdDeviation="2"/><feColorMatrix values="0 0 0 0 0 0 0 0 0 0 0 0 0 0 0 0 0 0 0.35 0"/><feBlend in2="BackgroundImageFix" result="effect1_dropShadow"/><feBlend in="SourceGraphic" in2="effect1_dropShadow" result="shape"/></filter><filter id="filter8_d" x="-285.057" y="-120.08" width="399.98" height="486.249" filterUnits="userSpaceOnUse" color-interpolation-filters="sRGB"><feFlood flood-opacity="0" result="BackgroundImageFix"/><feColorMatrix in="SourceAlpha" values="0 0 0 0 0 0 0 0 0 0 0 0 0 0 0 0 0 0 127 0"/><feOffset dy="2"/><feGaussianBlur stdDeviation="2"/><feColorMatrix values="0 0 0 0 0 0 0 0 0 0 0 0 0 0 0 0 0 0 0.35 0"/><feBlend in2="BackgroundImageFix" result="effect1_dropShadow"/><feBlend in="SourceGraphic" in2="effect1_dropShadow" result="shape"/></filter></defs></svg>