<svg width="1440" height="315" viewBox="0 0 1440 315" fill="none" xmlns="http://www.w3.org/2000/svg"><g stroke-dasharray="1877" stroke-dashoffset="1877"><animate id="a" attributeName="stroke-dashoffset" begin="indefinite" values="1877; 0" dur="6s" repeatCount="1" calcMode="linear"/><animate id="b" attributeName="stroke-dashoffset" begin="indefinite" values="-1877; 0" dur="6s" repeatCount="1" calcMode="linear"/><g filter="url(#filter_info_line_20_df)"><path d="M-15.17 157.849c15.654 1.518 54.85 6.833 86.407 15.943 39.446 11.387 92.041 13.664 112.703-23.914 20.663-37.579 78.893-100.21 108.947-43.273 30.054 56.938 52.595 190.172 108.947 187.894 56.352-2.277 77.014-64.909 88.284-97.932 11.271-33.024 48.838-103.626 139.001-75.158 90.163 28.469 61.987 72.879 159.663 36.44 97.677-36.44 108.947 3.417 129.609 29.608 20.663 26.191 77.014 99.071 127.729 9.11 50.72-89.962 97.68-111.597 155.91-75.158 58.23 36.44 48.84 52.383 101.43 52.383 52.6 0 60.11-15.943 101.43-15.943H1465" stroke="url(#paint_info_line_20_linear)" stroke-width="16" stroke-linecap="round"/></g><g filter="url(#filter_info_line_21_d)"><path d="M-28.479 155.849c15.654 1.518 54.851 6.833 86.408 15.943 39.446 11.387 92.041 13.664 112.703-23.914 20.662-37.579 78.892-100.21 108.947-43.273 30.054 56.938 52.595 190.172 108.946 187.894 56.352-2.277 77.014-64.908 88.285-97.932 11.27-33.024 48.838-103.626 139.001-75.158 90.162 28.469 61.987 72.879 159.663 36.44 97.676-36.44 108.947 3.417 129.609 29.608 20.662 26.191 77.014 99.071 127.727 9.11 50.72-89.962 97.68-111.597 155.91-75.158 58.23 36.44 48.84 52.383 101.43 52.383 52.6 0 60.11-15.943 101.44-15.943h60.1" stroke="url(#paint_info_line_21_linear)" stroke-width="16" stroke-linecap="round"/></g></g><g stroke-dasharray="2470" stroke-dashoffset="2470"><animate attributeName="stroke-dashoffset" begin="a.begin + 1s" values="2470; 0" dur="5s" repeatCount="1" calcMode="linear"/><animate attributeName="stroke-dashoffset" begin="b.begin + 1s" values="-2470; 0" dur="5s" repeatCount="1" calcMode="linear"/><set attributeName="stroke-dashoffset" begin="a.begin" to="2470" dur="1s"/><set attributeName="stroke-dashoffset" begin="b.begin" to="-2470" dur="1s"/><g filter="url(#filter_info_line_22_df)"><path d="M-1.488 159.191c39.934-1.704 131.328-7.912 177.426-19.113 57.623-14.002 89.054-31.115 108.262-12.446 19.207 18.669 78.577 119.792 99.53 79.343 20.954-40.45 39.795-147.693 96.07-145.081 56.276 2.611 84.226 133.669 92.62 172.353 8.395 38.684 51.586 49.095 64.483 0 12.896-49.094 43.379-182.8 55.103-203.69 11.724-20.892 41.34-15.92 49.241 0 10.01 20.17 55.335 228.451 69.172 253.307 9.823 17.647 43.371 14.932 50.413-15.668 5.071-22.036 21.103-193.245 75.034-187.5 53.93 5.745 60.345 102.43 77.374 126.279 17.3 24.211 68 24.661 84.42-16.077 21.54-53.456 27.91-91.338 78.37-74.42 32.8 11.001 29.49 69.719 82.25 74.42 52.76 4.7 105.51-28.204 157.1-28.204h70.34" stroke="url(#paint_info_line_22_linear)" stroke-opacity=".5" stroke-width="16" stroke-linecap="round"/></g><g filter="url(#filter_info_line_23_d)"><path d="M-.699 158.619c39.935-1.704 120.163-7.34 166.262-18.541 57.623-14.002 89.054-31.115 108.261-12.446 19.208 18.669 78.577 119.792 99.531 79.343 20.954-40.45 39.795-147.693 96.07-145.081 56.276 2.611 84.226 133.669 92.62 172.353 8.394 38.684 51.586 49.095 64.483 0 12.896-49.094 43.379-182.8 55.103-203.69 11.724-20.892 41.34-15.92 49.241 0 10.01 20.17 55.334 228.451 69.171 253.307 9.824 17.647 43.372 14.932 50.414-15.668 5.071-22.036 21.103-193.245 75.034-187.5 53.93 5.745 60.344 102.43 77.379 126.279 17.29 24.211 68 24.661 84.41-16.077 21.54-53.456 27.91-91.338 78.37-74.42 32.81 11.001 29.49 69.719 82.25 74.42 52.76 4.7 105.52-28.204 157.1-28.204h70.35" stroke="url(#paint_info_line_23_linear)" stroke-width="16" stroke-linecap="round"/></g></g><defs><linearGradient id="paint_info_line_20_linear" x1="-15.17" y1="154.782" x2="1499.11" y2="171.587" gradientUnits="userSpaceOnUse"><stop stop-color="#B7CDE2"/><stop offset="1" stop-color="#A298DF" stop-opacity=".67"/><stop offset="1" stop-color="#B194DD" stop-opacity=".67"/></linearGradient><linearGradient id="paint_info_line_21_linear" x1="-28.479" y1="152.782" x2="1485.8" y2="169.587" gradientUnits="userSpaceOnUse"><stop stop-color="#C4C8F8"/><stop offset="1" stop-color="#B194DD"/></linearGradient><linearGradient id="paint_info_line_22_linear" x1="-37.381" y1="173.474" x2="1485.44" y2="140.575" gradientUnits="userSpaceOnUse"><stop stop-color="#5D89F0"/><stop offset="1" stop-color="#8167EF"/></linearGradient><linearGradient id="paint_info_line_23_linear" x1="-47.756" y1="173.474" x2="1475.06" y2="140.575" gradientUnits="userSpaceOnUse"><stop stop-color="#5D89F0"/><stop offset="1" stop-color="#8764EF"/></linearGradient><filter id="filter_info_line_20_df" x="-30.171" y="68.708" width="1510.17" height="241.821" filterUnits="userSpaceOnUse" color-interpolation-filters="sRGB"><feFlood flood-opacity="0" result="BackgroundImageFix"/><feColorMatrix in="SourceAlpha" values="0 0 0 0 0 0 0 0 0 0 0 0 0 0 0 0 0 0 127 0"/><feOffset dy="4"/><feGaussianBlur stdDeviation="2"/><feColorMatrix values="0 0 0 0 0 0 0 0 0 0 0 0 0 0 0 0 0 0 0.25 0"/><feBlend in2="BackgroundImageFix" result="effect1_dropShadow"/><feBlend in="SourceGraphic" in2="effect1_dropShadow" result="shape"/><feGaussianBlur stdDeviation="3.5" result="effect2_foregroundBlur"/></filter><filter id="filter_info_line_21_d" x="-40.479" y="73.708" width="1504.17" height="234.821" filterUnits="userSpaceOnUse" color-interpolation-filters="sRGB"><feFlood flood-opacity="0" result="BackgroundImageFix"/><feColorMatrix in="SourceAlpha" values="0 0 0 0 0 0 0 0 0 0 0 0 0 0 0 0 0 0 127 0"/><feOffset dy="4"/><feGaussianBlur stdDeviation="2"/><feColorMatrix values="0 0 0 0 0 0 0 0 0 0 0 0 0 0 0 0 0 0 0.25 0"/><feBlend in2="BackgroundImageFix" result="effect1_dropShadow"/><feBlend in="SourceGraphic" in2="effect1_dropShadow" result="shape"/></filter><filter id="filter_info_line_22_df" x="-17.488" y=".691" width="1519.21" height="314.083" filterUnits="userSpaceOnUse" color-interpolation-filters="sRGB"><feFlood flood-opacity="0" result="BackgroundImageFix"/><feColorMatrix in="SourceAlpha" values="0 0 0 0 0 0 0 0 0 0 0 0 0 0 0 0 0 0 127 0"/><feOffset dy="8"/><feGaussianBlur stdDeviation="2"/><feColorMatrix values="0 0 0 0 0 0 0 0 0 0 0 0 0 0 0 0 0 0 0.25 0"/><feBlend in2="BackgroundImageFix" result="effect1_dropShadow"/><feBlend in="SourceGraphic" in2="effect1_dropShadow" result="shape"/><feGaussianBlur stdDeviation="4" result="effect2_foregroundBlur"/></filter><filter id="filter_info_line_23_d" x="-12.699" y="8.691" width="1500.05" height="304.083" filterUnits="userSpaceOnUse" color-interpolation-filters="sRGB"><feFlood flood-opacity="0" result="BackgroundImageFix"/><feColorMatrix in="SourceAlpha" values="0 0 0 0 0 0 0 0 0 0 0 0 0 0 0 0 0 0 127 0"/><feOffset dy="6"/><feGaussianBlur stdDeviation="2"/><feColorMatrix values="0 0 0 0 0 0 0 0 0 0 0 0 0 0 0 0 0 0 0.25 0"/><feBlend in2="BackgroundImageFix" result="effect1_dropShadow"/><feBlend in="SourceGraphic" in2="effect1_dropShadow" result="shape"/></filter></defs></svg>