<svg width="85" height="23" viewBox="0 0 85 23" fill="none" xmlns="http://www.w3.org/2000/svg"><path d="M4.344 18.585v-5.79h10.14v-3.21H4.344v-5.46h11.43V.855H.444v21h15.75v-3.27H4.344zm16.198 3.27h14.88v-3.3h-10.98V.855h-3.9v21zm17.959 0h9.18c6.81 0 11.46-4.2 11.46-10.5S54.49.855 47.68.855H38.5v21zm3.9-3.3v-14.4h5.1c4.68 0 7.71 2.85 7.71 7.2s-3.03 7.2-7.71 7.2h-5.1zm30.695 3.6c6.51 0 11.31-4.56 11.31-10.8 0-6.24-4.8-10.8-11.31-10.8-6.51 0-11.31 4.59-11.31 10.8 0 6.21 4.8 10.8 11.31 10.8zm0-3.42c-4.23 0-7.38-3.09-7.38-7.38s3.15-7.38 7.38-7.38 7.38 3.09 7.38 7.38-3.15 7.38-7.38 7.38z" fill="#fff"/></svg>