<svg width="25" height="24" viewBox="0 0 25 24" fill="none" xmlns="http://www.w3.org/2000/svg"><path d="M19.686 24c-.998 0-2.204-.25-3.53-.75-2.908-1.097-6.072-3.264-8.908-6.1-2.838-2.838-5.004-6.002-6.101-8.91-.997-2.643-1-4.813-.006-5.806.143-.143.288-.296.438-.455C2.486 1.026 3.51-.047 4.868.002c.936.038 1.842.62 2.77 1.775 2.743 3.411 1.507 4.627.075 6.036l-.252.25c-.234.235-.677 1.319 3.439 5.434 1.343 1.343 2.488 2.327 3.404 2.922.576.374 1.607.94 2.03.518l.254-.257c1.408-1.428 2.624-2.66 6.033.08 1.155.928 1.735 1.834 1.774 2.771.056 1.357-1.025 2.384-1.98 3.29-.157.15-.31.295-.453.437-.493.494-1.282.742-2.276.742zM4.771.807c-.965 0-1.836.917-2.607 1.729-.155.163-.305.32-.452.469-.74.739-.666 2.682.19 4.951C2.96 10.76 5.061 13.822 7.82 16.58c2.758 2.757 5.819 4.858 8.622 5.915 2.27.857 4.213.93 4.951.19.148-.147.306-.297.47-.451.828-.788 1.769-1.68 1.728-2.671-.029-.68-.524-1.413-1.474-2.176-2.84-2.284-3.635-1.478-4.952-.142l-.259.26c-.63.631-1.652.492-3.04-.41-.963-.627-2.153-1.646-3.535-3.029-3.416-3.415-4.508-5.504-3.44-6.576l.258-.254c1.34-1.317 2.148-2.112-.138-4.955C6.246 1.333 5.515.837 4.834.808h-.063z" fill="#fff"/></svg>