<svg width="216" height="185" viewBox="0 -40 214 250" fill="none" xmlns="http://www.w3.org/2000/svg"><g filter="url(#filter0_d)"><mask id="a" fill="#fff"><path d="M40.902 40.477a3 3 0 011.638-2.673l72.055-36.69a3.001 3.001 0 012.638-.042l78.199 36.756a3 3 0 011.724 2.715v96.873a3 3 0 01-1.743 2.724l-78.2 36.096a3.002 3.002 0 01-2.599-.04L42.56 140.165a3.001 3.001 0 01-1.658-2.684V40.477z"/></mask><path d="M40.902 40.477a3 3 0 011.638-2.673l72.055-36.69a3.001 3.001 0 012.638-.042l78.199 36.756a3 3 0 011.724 2.715v96.873a3 3 0 01-1.743 2.724l-78.2 36.096a3.002 3.002 0 01-2.599-.04L42.56 140.165a3.001 3.001 0 01-1.658-2.684V40.477z" stroke="url(#paint0_linear)" stroke-width="4" mask="url(#a)"/></g><g clip-path="url(#clip0)" filter="url(#filter1_d)"><mask id="b" fill="#fff"><path d="M144.14 41.536c-8.708 0-15.792 7.084-15.792 15.791 0 4.492 1.888 8.548 4.909 11.426.077.086.16.168.252.24a15.73 15.73 0 0010.631 4.125c4.09 0 7.822-1.564 10.631-4.125.091-.073.174-.154.251-.24 3.021-2.878 4.909-6.934 4.909-11.426 0-8.707-7.084-15.791-15.791-15.791zm0 27.314a11.46 11.46 0 01-6.619-2.098 7.806 7.806 0 016.619-3.627 7.806 7.806 0 016.618 3.627 11.458 11.458 0 01-6.618 2.099zm-2.197-12.19v-1.082a2.2 2.2 0 012.197-2.196c1.211 0 2.196.985 2.196 2.196v1.083a2.199 2.199 0 01-2.196 2.196 2.199 2.199 0 01-2.197-2.196zm11.841 6.963a12.012 12.012 0 00-4.199-3.486 6.42 6.42 0 001.019-3.476v-1.083c0-3.564-2.9-6.464-6.464-6.464a6.472 6.472 0 00-6.465 6.464v1.083a6.42 6.42 0 001.019 3.476 12.019 12.019 0 00-4.199 3.486 11.458 11.458 0 01-1.879-6.296c0-6.354 5.169-11.523 11.524-11.523 6.354 0 11.523 5.169 11.523 11.523 0 2.322-.693 4.485-1.879 6.296z"/></mask><path d="M144.14 41.536c-8.708 0-15.792 7.084-15.792 15.791 0 4.492 1.888 8.548 4.909 11.426.077.086.16.168.252.24a15.73 15.73 0 0010.631 4.125c4.09 0 7.822-1.564 10.631-4.125.091-.073.174-.154.251-.24 3.021-2.878 4.909-6.934 4.909-11.426 0-8.707-7.084-15.791-15.791-15.791zm0 27.314a11.46 11.46 0 01-6.619-2.098 7.806 7.806 0 016.619-3.627 7.806 7.806 0 016.618 3.627 11.458 11.458 0 01-6.618 2.099zm-2.197-12.19v-1.082a2.2 2.2 0 012.197-2.196c1.211 0 2.196.985 2.196 2.196v1.083a2.199 2.199 0 01-2.196 2.196 2.199 2.199 0 01-2.197-2.196zm11.841 6.963a12.012 12.012 0 00-4.199-3.486 6.42 6.42 0 001.019-3.476v-1.083c0-3.564-2.9-6.464-6.464-6.464a6.472 6.472 0 00-6.465 6.464v1.083a6.42 6.42 0 001.019 3.476 12.019 12.019 0 00-4.199 3.486 11.458 11.458 0 01-1.879-6.296c0-6.354 5.169-11.523 11.524-11.523 6.354 0 11.523 5.169 11.523 11.523 0 2.322-.693 4.485-1.879 6.296z" fill="#6AEDFC" stroke="#1E1E1E" stroke-width="2" mask="url(#b)"/><mask id="c" fill="#fff"><path d="M168.751 115.693a8.248 8.248 0 00-10.517-.958l-.072.051-11.962 8.996a2.134 2.134 0 002.565 3.411l11.924-8.967a3.98 3.98 0 015.044.485 3.468 3.468 0 011.022 2.662 3.463 3.463 0 01-1.295 2.541l-10.918 8.844a23.553 23.553 0 01-14.775 5.233h-31.584a23.463 23.463 0 01-12.16-3.396l-8.594-5.204v-27.009h16.457c2.28 0 4.423.888 6.032 2.497l11.353 11.406a8.479 8.479 0 006.035 2.5h8.373a3.2 3.2 0 013.197 3.197 3.2 3.2 0 01-3.197 3.196h-16.08a7.582 7.582 0 01-4.144-1.229l-6.848-4.454-.025-.016a2.133 2.133 0 10-2.333 3.574l6.879 4.474a11.836 11.836 0 006.471 1.919h16.08c4.116 0 7.464-3.348 7.464-7.464 0-4.116-3.348-7.465-7.464-7.465h-8.237l17.741-10.243h21.576a4.272 4.272 0 004.268-4.268V37.267A4.272 4.272 0 00166.759 33h-45.24a4.273 4.273 0 00-4.268 4.268v62.739a4.273 4.273 0 004.268 4.268h15.128l-13.532 7.813h-.001l-10.175-10.223a12.721 12.721 0 00-9.054-3.75H87.429v-3.763a4.273 4.273 0 00-4.268-4.268H63.902a2.134 2.134 0 00-2.134 2.134v47.908c0 1.178.955 2.134 2.134 2.134h19.26a4.273 4.273 0 004.267-4.268v-3.611l6.383 3.866a27.742 27.742 0 0014.371 4.013h31.584a27.835 27.835 0 0017.461-6.184l10.919-8.844a7.787 7.787 0 002.87-5.635 7.786 7.786 0 00-2.266-5.903zm-47.232-15.687V37.267h45.24l.003 62.739h-45.243zm-38.358 37.985H66.036v-43.64h17.125v5.905l.002 30.233a2.108 2.108 0 000 .161v7.341h-.002z"/></mask><path d="M168.751 115.693a8.248 8.248 0 00-10.517-.958l-.072.051-11.962 8.996a2.134 2.134 0 002.565 3.411l11.924-8.967a3.98 3.98 0 015.044.485 3.468 3.468 0 011.022 2.662 3.463 3.463 0 01-1.295 2.541l-10.918 8.844a23.553 23.553 0 01-14.775 5.233h-31.584a23.463 23.463 0 01-12.16-3.396l-8.594-5.204v-27.009h16.457c2.28 0 4.423.888 6.032 2.497l11.353 11.406a8.479 8.479 0 006.035 2.5h8.373a3.2 3.2 0 013.197 3.197 3.2 3.2 0 01-3.197 3.196h-16.08a7.582 7.582 0 01-4.144-1.229l-6.848-4.454-.025-.016a2.133 2.133 0 10-2.333 3.574l6.879 4.474a11.836 11.836 0 006.471 1.919h16.08c4.116 0 7.464-3.348 7.464-7.464 0-4.116-3.348-7.465-7.464-7.465h-8.237l17.741-10.243h21.576a4.272 4.272 0 004.268-4.268V37.267A4.272 4.272 0 00166.759 33h-45.24a4.273 4.273 0 00-4.268 4.268v62.739a4.273 4.273 0 004.268 4.268h15.128l-13.532 7.813h-.001l-10.175-10.223a12.721 12.721 0 00-9.054-3.75H87.429v-3.763a4.273 4.273 0 00-4.268-4.268H63.902a2.134 2.134 0 00-2.134 2.134v47.908c0 1.178.955 2.134 2.134 2.134h19.26a4.273 4.273 0 004.267-4.268v-3.611l6.383 3.866a27.742 27.742 0 0014.371 4.013h31.584a27.835 27.835 0 0017.461-6.184l10.919-8.844a7.787 7.787 0 002.87-5.635 7.786 7.786 0 00-2.266-5.903zm-47.232-15.687V37.267h45.24l.003 62.739h-45.243zm-38.358 37.985H66.036v-43.64h17.125v5.905l.002 30.233a2.108 2.108 0 000 .161v7.341h-.002z" fill="#6AEDFC" stroke="#1E1E1E" stroke-width="2" mask="url(#c)"/><mask id="d" fill="#fff"><path d="M111.737 43.748a2.134 2.134 0 00-2.915-.781l-19.21 11.09a4.273 4.273 0 00-1.563 5.83l18.645 32.294a2.132 2.132 0 002.915.78 2.135 2.135 0 00.781-2.914L91.745 57.754l19.211-11.091a2.133 2.133 0 00.781-2.915z"/></mask><path d="M111.737 43.748a2.134 2.134 0 00-2.915-.781l-19.21 11.09a4.273 4.273 0 00-1.563 5.83l18.645 32.294a2.132 2.132 0 002.915.78 2.135 2.135 0 00.781-2.914L91.745 57.754l19.211-11.091a2.133 2.133 0 00.781-2.915z" fill="#6AEDFC" stroke="#1E1E1E" stroke-width="2" mask="url(#d)"/><mask id="e" fill="#fff"><path d="M157.37 78.24h-24.754a2.134 2.134 0 100 4.268h24.754a2.134 2.134 0 100-4.268z"/></mask><path d="M157.37 78.24h-24.754a2.134 2.134 0 100 4.268h24.754a2.134 2.134 0 100-4.268z" fill="#6AEDFC" stroke="#1E1E1E" stroke-width="2" mask="url(#e)"/><mask id="f" fill="#fff"><path d="M158.879 88.254a2.151 2.151 0 00-1.509-.625 2.15 2.15 0 00-1.509.625 2.15 2.15 0 00-.625 1.509c0 .561.228 1.112.625 1.508.397.397.948.626 1.509.626a2.15 2.15 0 001.509-.626c.397-.396.625-.947.625-1.508a2.15 2.15 0 00-.625-1.509z"/></mask><path d="M158.879 88.254a2.151 2.151 0 00-1.509-.625 2.15 2.15 0 00-1.509.625 2.15 2.15 0 00-.625 1.509c0 .561.228 1.112.625 1.508.397.397.948.626 1.509.626a2.15 2.15 0 001.509-.626c.397-.396.625-.947.625-1.508a2.15 2.15 0 00-.625-1.509z" fill="#6AEDFC" stroke="#1E1E1E" stroke-width="2" mask="url(#f)"/><mask id="g" fill="#fff"><path d="M148.47 87.629h-15.854a2.134 2.134 0 100 4.268h15.854a2.134 2.134 0 000-4.268z"/></mask><path d="M148.47 87.629h-15.854a2.134 2.134 0 100 4.268h15.854a2.134 2.134 0 000-4.268z" fill="#6AEDFC" stroke="#1E1E1E" stroke-width="2" mask="url(#g)"/><mask id="h" fill="#fff"><path d="M74.599 111.646a2.134 2.134 0 00-2.134 2.134v8.348a2.134 2.134 0 004.268 0v-8.348a2.134 2.134 0 00-2.134-2.134z"/></mask><path d="M74.599 111.646a2.134 2.134 0 00-2.134 2.134v8.348a2.134 2.134 0 004.268 0v-8.348a2.134 2.134 0 00-2.134-2.134z" fill="#6AEDFC" stroke="#1E1E1E" stroke-width="2" mask="url(#h)"/><mask id="i" fill="#fff"><path d="M76.108 127.965a2.154 2.154 0 00-1.51-.625c-.562 0-1.11.228-1.51.625a2.15 2.15 0 00-.622 1.509c0 .563.226 1.112.623 1.509.397.396.947.625 1.509.625.563 0 1.111-.229 1.51-.625.397-.397.624-.946.624-1.509a2.15 2.15 0 00-.624-1.509z"/></mask><path d="M76.108 127.965a2.154 2.154 0 00-1.51-.625c-.562 0-1.11.228-1.51.625a2.15 2.15 0 00-.622 1.509c0 .563.226 1.112.623 1.509.397.396.947.625 1.509.625.563 0 1.111-.229 1.51-.625.397-.397.624-.946.624-1.509a2.15 2.15 0 00-.624-1.509z" fill="#6AEDFC" stroke="#1E1E1E" stroke-width="2" mask="url(#i)"/></g><defs><filter id="filter0_d" x=".864" y=".787" width="214.356" height="183.726" filterUnits="userSpaceOnUse" color-interpolation-filters="sRGB"><feFlood flood-opacity="0" result="BackgroundImageFix"/><feColorMatrix in="SourceAlpha" values="0 0 0 0 0 0 0 0 0 0 0 0 0 0 0 0 0 0 127 0"/><feOffset dy="4"/><feGaussianBlur stdDeviation="2"/><feColorMatrix values="0 0 0 0 0 0 0 0 0 0 0 0 0 0 0 0 0 0 0.25 0"/><feBlend in2="BackgroundImageFix" result="effect1_dropShadow"/><feBlend in="SourceGraphic" in2="effect1_dropShadow" result="shape"/></filter><filter id="filter1_d" x="57.768" y="32.999" width="117.259" height="117.259" filterUnits="userSpaceOnUse" color-interpolation-filters="sRGB"><feFlood flood-opacity="0" result="BackgroundImageFix"/><feColorMatrix in="SourceAlpha" values="0 0 0 0 0 0 0 0 0 0 0 0 0 0 0 0 0 0 127 0"/><feOffset dy="4"/><feGaussianBlur stdDeviation="2"/><feColorMatrix values="0 0 0 0 0 0 0 0 0 0 0 0 0 0 0 0 0 0 0.25 0"/><feBlend in2="BackgroundImageFix" result="effect1_dropShadow"/><feBlend in="SourceGraphic" in2="effect1_dropShadow" result="shape"/></filter><linearGradient id="paint0_linear" x1="197.156" y1="64.952" x2="46.22" y2="97.673" gradientUnits="userSpaceOnUse"><stop stop-color="#6AEDFC"/><stop offset="1" stop-opacity="0"/></linearGradient><clipPath id="clip0"><path fill="#fff" transform="translate(61.768 33)" d="M0 0h109.259v109.259H0z"/></clipPath></defs></svg>