<svg width="214" height="184" viewBox="0 -40 214 250" fill="none" xmlns="http://www.w3.org/2000/svg"><g filter="url(#filter0_d)"><mask id="a" fill="#fff"><path d="M40.375 40.227a3 3 0 011.639-2.673l71.564-36.44a3 3 0 012.637-.042l77.668 36.506a3 3 0 011.724 2.715v96.214a3 3 0 01-1.743 2.724l-77.668 35.851a3.002 3.002 0 01-2.599-.04l-71.564-35.786a3 3 0 01-1.658-2.683V40.227z"/></mask><path d="M40.375 40.227a3 3 0 011.639-2.673l71.564-36.44a3 3 0 012.637-.042l77.668 36.506a3 3 0 011.724 2.715v96.214a3 3 0 01-1.743 2.724l-77.668 35.851a3.002 3.002 0 01-2.599-.04l-71.564-35.786a3 3 0 01-1.658-2.683V40.227z" stroke="url(#paint0_linear)" stroke-width="4" mask="url(#a)"/></g><g filter="url(#filter1_d)"><mask id="b" fill="#fff"><path d="M109.789 90.875c1.025 0 1.857.871 1.857 1.946 0 1.074.831 1.945 1.857 1.945s1.857-.871 1.857-1.945c-.009-2.465-1.496-4.657-3.714-5.479v-.358c0-1.075-.832-1.945-1.857-1.945-1.026 0-1.857.87-1.857 1.945v.358c-2.896 1.07-4.416 4.394-3.397 7.427.785 2.333 2.892 3.892 5.254 3.888 1.025 0 1.857.87 1.857 1.946 0 1.074-.832 1.945-1.857 1.945-1.026 0-1.857-.871-1.857-1.945 0-1.075-.832-1.946-1.857-1.946-1.026 0-1.857.87-1.857 1.946.01 2.464 1.496 4.656 3.714 5.477v.358c0 1.075.831 1.946 1.857 1.946 1.025 0 1.857-.871 1.857-1.946v-.358c2.895-1.067 4.416-4.393 3.396-7.426-.785-2.333-2.891-3.892-5.253-3.888-1.026 0-1.857-.871-1.857-1.945 0-1.075.831-1.946 1.857-1.946z"/></mask><path d="M109.789 90.875c1.025 0 1.857.871 1.857 1.946 0 1.074.831 1.945 1.857 1.945s1.857-.871 1.857-1.945c-.009-2.465-1.496-4.657-3.714-5.479v-.358c0-1.075-.832-1.945-1.857-1.945-1.026 0-1.857.87-1.857 1.945v.358c-2.896 1.07-4.416 4.394-3.397 7.427.785 2.333 2.892 3.892 5.254 3.888 1.025 0 1.857.87 1.857 1.946 0 1.074-.832 1.945-1.857 1.945-1.026 0-1.857-.871-1.857-1.945 0-1.075-.832-1.946-1.857-1.946-1.026 0-1.857.87-1.857 1.946.01 2.464 1.496 4.656 3.714 5.477v.358c0 1.075.831 1.946 1.857 1.946 1.025 0 1.857-.871 1.857-1.946v-.358c2.895-1.067 4.416-4.393 3.396-7.426-.785-2.333-2.891-3.892-5.253-3.888-1.026 0-1.857-.871-1.857-1.945 0-1.075.831-1.946 1.857-1.946z" fill="#6AEDFC" stroke="#1E1E1E" stroke-width="1.996" mask="url(#b)"/><mask id="c" fill="#fff"><path d="M109.789 77.256c-10.256 0-18.571 8.71-18.571 19.455 0 10.744 8.315 19.454 18.571 19.454 10.256 0 18.571-8.71 18.571-19.454-.011-10.74-8.319-19.442-18.571-19.455zm0 35.018c-8.205 0-14.857-6.968-14.857-15.563s6.652-15.564 14.857-15.564c8.205 0 14.857 6.969 14.857 15.564-.01 8.591-6.656 15.554-14.857 15.563z"/></mask><path d="M109.789 77.256c-10.256 0-18.571 8.71-18.571 19.455 0 10.744 8.315 19.454 18.571 19.454 10.256 0 18.571-8.71 18.571-19.454-.011-10.74-8.319-19.442-18.571-19.455zm0 35.018c-8.205 0-14.857-6.968-14.857-15.563s6.652-15.564 14.857-15.564c8.205 0 14.857 6.969 14.857 15.564-.01 8.591-6.656 15.554-14.857 15.563z" fill="#6AEDFC" stroke="#1E1E1E" stroke-width="1.996" mask="url(#c)"/><mask id="d" fill="#fff"><path d="M167.474 57.873a3.57 3.57 0 00-3.621-.195 41.433 41.433 0 01-18.779 4.015c-7.428 0-18.458-3.08-29.12-6.062-10.319-2.887-20.068-5.61-26.593-5.61-7.674.027-15.24 1.9-22.112 5.476-1.25.653-2.036 1.991-2.03 3.453v5.8a43.61 43.61 0 00-5.423 2.427c-1.24.666-2.015 2.007-2.006 3.465v49.943c0 2.149 1.663 3.891 3.715 3.891.573 0 1.139-.139 1.652-.406a41.24 41.24 0 0118.776-4.014c7.428 0 18.457 3.081 29.119 6.062 10.32 2.887 20.067 5.61 26.594 5.61 7.683-.018 15.258-1.895 22.136-5.484 1.237-.663 2.012-1.999 2.006-3.455v-5.791a45.13 45.13 0 005.398-2.418c1.25-.653 2.036-1.991 2.03-3.453v-49.96c.006-1.34-.654-2.588-1.742-3.294zm-29.828 69.965c-6.04 0-15.559-2.661-25.629-5.479-10.901-3.044-22.164-6.194-30.084-6.194a44.399 44.399 0 00-20.429 4.42l-.013-49.943c6.351-3.312 13.347-5.044 20.442-5.058 6.039 0 15.558 2.661 25.636 5.479 10.892 3.044 22.156 6.194 30.077 6.194a44.399 44.399 0 0020.427-4.42l.012 42.604v7.338c-6.351 3.313-13.345 5.043-20.439 5.059zm24.142-14.98V72.837c.003-1.34-.656-2.586-1.742-3.294a3.582 3.582 0 00-3.626-.195 41.225 41.225 0 01-18.774 4.018c-7.429 0-18.458-3.082-29.12-6.062-10.32-2.887-20.068-5.61-26.593-5.61a47.57 47.57 0 00-13 1.844V58.97c6.348-3.306 13.338-5.037 20.428-5.058 6.04 0 15.559 2.66 25.638 5.478 10.891 3.044 22.154 6.194 30.075 6.194a44.518 44.518 0 0020.428-4.416v49.939a39.5 39.5 0 01-3.714 1.751z"/></mask><path d="M167.474 57.873a3.57 3.57 0 00-3.621-.195 41.433 41.433 0 01-18.779 4.015c-7.428 0-18.458-3.08-29.12-6.062-10.319-2.887-20.068-5.61-26.593-5.61-7.674.027-15.24 1.9-22.112 5.476-1.25.653-2.036 1.991-2.03 3.453v5.8a43.61 43.61 0 00-5.423 2.427c-1.24.666-2.015 2.007-2.006 3.465v49.943c0 2.149 1.663 3.891 3.715 3.891.573 0 1.139-.139 1.652-.406a41.24 41.24 0 0118.776-4.014c7.428 0 18.457 3.081 29.119 6.062 10.32 2.887 20.067 5.61 26.594 5.61 7.683-.018 15.258-1.895 22.136-5.484 1.237-.663 2.012-1.999 2.006-3.455v-5.791a45.13 45.13 0 005.398-2.418c1.25-.653 2.036-1.991 2.03-3.453v-49.96c.006-1.34-.654-2.588-1.742-3.294zm-29.828 69.965c-6.04 0-15.559-2.661-25.629-5.479-10.901-3.044-22.164-6.194-30.084-6.194a44.399 44.399 0 00-20.429 4.42l-.013-49.943c6.351-3.312 13.347-5.044 20.442-5.058 6.039 0 15.558 2.661 25.636 5.479 10.892 3.044 22.156 6.194 30.077 6.194a44.399 44.399 0 0020.427-4.42l.012 42.604v7.338c-6.351 3.313-13.345 5.043-20.439 5.059zm24.142-14.98V72.837c.003-1.34-.656-2.586-1.742-3.294a3.582 3.582 0 00-3.626-.195 41.225 41.225 0 01-18.774 4.018c-7.429 0-18.458-3.082-29.12-6.062-10.32-2.887-20.068-5.61-26.593-5.61a47.57 47.57 0 00-13 1.844V58.97c6.348-3.306 13.338-5.037 20.428-5.058 6.04 0 15.559 2.66 25.638 5.478 10.891 3.044 22.154 6.194 30.075 6.194a44.518 44.518 0 0020.428-4.416v49.939a39.5 39.5 0 01-3.714 1.751z" fill="#6AEDFC" stroke="#1E1E1E" stroke-width="1.996" mask="url(#d)"/><mask id="e" fill="#fff"><path d="M137.646 94.766h-3.715c-1.026 0-1.857.87-1.857 1.945 0 1.075.831 1.945 1.857 1.945h3.715c1.025 0 1.856-.87 1.856-1.945 0-1.074-.831-1.945-1.856-1.945z"/></mask><path d="M137.646 94.766h-3.715c-1.026 0-1.857.87-1.857 1.945 0 1.075.831 1.945 1.857 1.945h3.715c1.025 0 1.856-.87 1.856-1.945 0-1.074-.831-1.945-1.856-1.945z" fill="#6AEDFC" stroke="#1E1E1E" stroke-width="1.996" mask="url(#e)"/><mask id="f" fill="#fff"><path d="M85.647 94.766h-3.714c-1.026 0-1.858.87-1.858 1.945 0 1.075.832 1.945 1.858 1.945h3.714c1.025 0 1.856-.87 1.856-1.945 0-1.074-.83-1.945-1.856-1.945z"/></mask><path d="M85.647 94.766h-3.714c-1.026 0-1.858.87-1.858 1.945 0 1.075.832 1.945 1.858 1.945h3.714c1.025 0 1.856-.87 1.856-1.945 0-1.074-.83-1.945-1.856-1.945z" fill="#6AEDFC" stroke="#1E1E1E" stroke-width="1.996" mask="url(#f)"/></g><defs><filter id="filter0_d" x=".573" y=".787" width="213.007" height="182.572" filterUnits="userSpaceOnUse" color-interpolation-filters="sRGB"><feFlood flood-opacity="0" result="BackgroundImageFix"/><feColorMatrix in="SourceAlpha" values="0 0 0 0 0 0 0 0 0 0 0 0 0 0 0 0 0 0 127 0"/><feOffset dy="4"/><feGaussianBlur stdDeviation="2"/><feColorMatrix values="0 0 0 0 0 0 0 0 0 0 0 0 0 0 0 0 0 0 0.25 0"/><feBlend in2="BackgroundImageFix" result="effect1_dropShadow"/><feBlend in="SourceGraphic" in2="effect1_dropShadow" result="shape"/></filter><filter id="filter1_d" x="53.79" y="50.021" width="119.426" height="89.707" filterUnits="userSpaceOnUse" color-interpolation-filters="sRGB"><feFlood flood-opacity="0" result="BackgroundImageFix"/><feColorMatrix in="SourceAlpha" values="0 0 0 0 0 0 0 0 0 0 0 0 0 0 0 0 0 0 127 0"/><feOffset dy="4"/><feGaussianBlur stdDeviation="2"/><feColorMatrix values="0 0 0 0 0 0 0 0 0 0 0 0 0 0 0 0 0 0 0.25 0"/><feBlend in2="BackgroundImageFix" result="effect1_dropShadow"/><feBlend in="SourceGraphic" in2="effect1_dropShadow" result="shape"/></filter><linearGradient id="paint0_linear" x1="195.607" y1="64.53" x2="45.658" y2="97.037" gradientUnits="userSpaceOnUse"><stop stop-color="#6AEDFC"/><stop offset="1" stop-opacity="0"/></linearGradient></defs></svg>