<svg width="213" height="183" viewBox="0 -40 214 250" fill="none" xmlns="http://www.w3.org/2000/svg"><g><animateTransform attributeName="transform" type="rotate" values="0 106.5 91.5; 360 106.5 91.5" calcMode="linear" begin="0s" dur="15s" repeatCount="indefinite"/><circle cx="35.803" cy="11.706" r="2.696" fill="#6AEDFC"/><circle cx="46.105" cy="14.348" r="2.642" fill="#6AEDFC"/><circle cx="6.868" cy="79.368" r="2.295" fill="#6AEDFC"/><circle cx="204.182" cy="97.195" r="4.226" fill="#6AEDFC"/><circle cx="175.459" cy="112.926" r="2.74" fill="#6AEDFC"/><circle cx="197.843" cy="138.912" r="2.583" fill="#6AEDFC"/></g><g filter="url(#filter0_d)"><mask id="a" fill="#fff"><path d="M40.168 40.01a3 3 0 011.639-2.673l71.139-36.223a3 3 0 012.637-.042l77.207 36.29a2.999 2.999 0 011.724 2.715v95.643c0 1.17-.68 2.233-1.742 2.724l-77.208 35.638a3.004 3.004 0 01-2.6-.04l-71.138-35.573a3.001 3.001 0 01-1.658-2.684V40.011z"/></mask><path d="M40.168 40.01a3 3 0 011.639-2.673l71.139-36.223a3 3 0 012.637-.042l77.207 36.29a2.999 2.999 0 011.724 2.715v95.643c0 1.17-.68 2.233-1.742 2.724l-77.208 35.638a3.004 3.004 0 01-2.6-.04l-71.138-35.573a3.001 3.001 0 01-1.658-2.684V40.011z" stroke="url(#paint0_linear)" stroke-width="4" mask="url(#a)"/></g><g clip-path="url(#clip0)" filter="url(#filter1_d)"><mask id="b" fill="#fff"><path d="M70.769 57.555l5.669 9.92c.191.335.511.578.885.671l5.289 1.323 18.139 18.139 2.004-2.004-18.423-18.422a1.414 1.414 0 00-.657-.374l-5.082-1.275-4.826-8.45 4.138-4.138 8.454 4.83 1.275 5.083c.062.25.192.477.373.658L106.43 81.94l2.004-2.004-18.14-18.139-1.322-5.286a1.42 1.42 0 00-.671-.887l-9.92-5.668a1.417 1.417 0 00-1.701.228l-5.669 5.669a1.417 1.417 0 00-.242 1.703z"/></mask><path d="M70.769 57.555l5.669 9.92c.191.335.511.578.885.671l5.289 1.323 18.139 18.139 2.004-2.004-18.423-18.422a1.414 1.414 0 00-.657-.374l-5.082-1.275-4.826-8.45 4.138-4.138 8.454 4.83 1.275 5.083c.062.25.192.477.373.658L106.43 81.94l2.004-2.004-18.14-18.139-1.322-5.286a1.42 1.42 0 00-.671-.887l-9.92-5.668a1.417 1.417 0 00-1.701.228l-5.669 5.669a1.417 1.417 0 00-.242 1.703z" fill="#6AEDFC" stroke="#1B1B1B" mask="url(#b)"/><mask id="c" fill="#fff"><path d="M129.687 77.687L98.51 108.865l-2.004-2.005 31.177-31.176 2.004 2.003z"/></mask><path d="M129.687 77.687L98.51 108.865l-2.004-2.005 31.177-31.176 2.004 2.003z" fill="#6AEDFC" stroke="#1B1B1B" mask="url(#c)"/><mask id="d" fill="#fff"><path d="M93.053 109.968a1.417 1.417 0 00-1.214-.688h-8.503c-.497 0-.958.261-1.214.688l-4.252 7.085c-.27.449-.27 1.01 0 1.46l4.252 7.085c.256.426.717.688 1.214.688h8.503a1.42 1.42 0 001.215-.688l4.25-7.085c.27-.45.27-1.011 0-1.46l-4.25-7.085zm-2.016 13.483h-6.899l-3.4-5.668 3.4-5.669h6.899l3.401 5.669-3.401 5.668z"/></mask><path d="M93.053 109.968a1.417 1.417 0 00-1.214-.688h-8.503c-.497 0-.958.261-1.214.688l-4.252 7.085c-.27.449-.27 1.01 0 1.46l4.252 7.085c.256.426.717.688 1.214.688h8.503a1.42 1.42 0 001.215-.688l4.25-7.085c.27-.45.27-1.011 0-1.46l-4.25-7.085zm-2.016 13.483h-6.899l-3.4-5.668 3.4-5.669h6.899l3.401 5.669-3.401 5.668z" fill="#6AEDFC" stroke="#1B1B1B" mask="url(#d)"/><mask id="e" fill="#fff"><path d="M138.605 83.772c9.36.031 16.973-7.531 17.005-16.89a17 17 0 00-.521-4.225 1.417 1.417 0 00-2.376-.66l-8.822 8.815-6.999-2.333-2.334-6.997 8.822-8.823a1.417 1.417 0 00-.665-2.378c-9.077-2.299-18.298 3.196-20.596 12.272a16.86 16.86 0 00-.175 7.534l-31.035 31.035a16.684 16.684 0 00-3.32-.345c-9.393 0-17.006 7.614-17.006 17.006s7.613 17.005 17.005 17.005 17.006-7.613 17.006-17.005a16.692 16.692 0 00-.345-3.321l7.43-7.43 3.25 3.25c.554.553 1.45.553 2.004 0l.708-.709a1.596 1.596 0 012.248 0c.621.619.622 1.624.003 2.245l-.003.003-.709.708a1.418 1.418 0 000 2.004l16.905 16.905c4.447 4.487 11.688 4.52 16.176.073 4.486-4.446 4.519-11.688.072-16.175l-.072-.073-16.905-16.905a1.417 1.417 0 00-2.004 0l-.708.709a1.595 1.595 0 01-2.248 0 1.587 1.587 0 01-.003-2.245l.003-.003.708-.709a1.416 1.416 0 000-2.003l-3.249-3.25 7.43-7.43c1.092.226 2.205.341 3.32.345zm5.568 48.183a8.618 8.618 0 01-3.014-.55l11.068-11.069a8.594 8.594 0 01-8.054 11.619zm-16.054-36.832a4.422 4.422 0 006.234 6.227l15.904 15.917c.172.173.334.356.49.541l-12.116 12.117a8.363 8.363 0 01-.542-.491l-15.916-15.917a4.422 4.422 0 00-6.235-6.227l-2.267-2.267 12.18-12.162 2.268 2.262zm5.722-14.253l-32.148 32.141a1.42 1.42 0 00-.374 1.347c1.944 7.635-2.67 15.401-10.306 17.345-7.635 1.944-15.4-2.67-17.345-10.306-1.943-7.635 2.67-15.4 10.306-17.345a14.29 14.29 0 017.04 0c.483.119.993-.023 1.346-.373l32.141-32.142c.352-.353.493-.864.372-1.347-1.931-7.546 2.621-15.228 10.167-17.16a14.111 14.111 0 014.37-.412l-7.475 7.478c-.38.38-.513.94-.343 1.45l2.834 8.503c.141.422.474.755.897.895l8.503 2.835c.508.17 1.07.037 1.449-.342l7.476-7.475c.017.27.025.538.025.804.04 7.787-6.24 14.131-14.026 14.171a14.122 14.122 0 01-3.57-.44 1.42 1.42 0 00-1.347.372h.008z"/></mask><path d="M138.605 83.772c9.36.031 16.973-7.531 17.005-16.89a17 17 0 00-.521-4.225 1.417 1.417 0 00-2.376-.66l-8.822 8.815-6.999-2.333-2.334-6.997 8.822-8.823a1.417 1.417 0 00-.665-2.378c-9.077-2.299-18.298 3.196-20.596 12.272a16.86 16.86 0 00-.175 7.534l-31.035 31.035a16.684 16.684 0 00-3.32-.345c-9.393 0-17.006 7.614-17.006 17.006s7.613 17.005 17.005 17.005 17.006-7.613 17.006-17.005a16.692 16.692 0 00-.345-3.321l7.43-7.43 3.25 3.25c.554.553 1.45.553 2.004 0l.708-.709a1.596 1.596 0 012.248 0c.621.619.622 1.624.003 2.245l-.003.003-.709.708a1.418 1.418 0 000 2.004l16.905 16.905c4.447 4.487 11.688 4.52 16.176.073 4.486-4.446 4.519-11.688.072-16.175l-.072-.073-16.905-16.905a1.417 1.417 0 00-2.004 0l-.708.709a1.595 1.595 0 01-2.248 0 1.587 1.587 0 01-.003-2.245l.003-.003.708-.709a1.416 1.416 0 000-2.003l-3.249-3.25 7.43-7.43c1.092.226 2.205.341 3.32.345zm5.568 48.183a8.618 8.618 0 01-3.014-.55l11.068-11.069a8.594 8.594 0 01-8.054 11.619zm-16.054-36.832a4.422 4.422 0 006.234 6.227l15.904 15.917c.172.173.334.356.49.541l-12.116 12.117a8.363 8.363 0 01-.542-.491l-15.916-15.917a4.422 4.422 0 00-6.235-6.227l-2.267-2.267 12.18-12.162 2.268 2.262zm5.722-14.253l-32.148 32.141a1.42 1.42 0 00-.374 1.347c1.944 7.635-2.67 15.401-10.306 17.345-7.635 1.944-15.4-2.67-17.345-10.306-1.943-7.635 2.67-15.4 10.306-17.345a14.29 14.29 0 017.04 0c.483.119.993-.023 1.346-.373l32.141-32.142c.352-.353.493-.864.372-1.347-1.931-7.546 2.621-15.228 10.167-17.16a14.111 14.111 0 014.37-.412l-7.475 7.478c-.38.38-.513.94-.343 1.45l2.834 8.503c.141.422.474.755.897.895l8.503 2.835c.508.17 1.07.037 1.449-.342l7.476-7.475c.017.27.025.538.025.804.04 7.787-6.24 14.131-14.026 14.171a14.122 14.122 0 01-3.57-.44 1.42 1.42 0 00-1.347.372h.008v0z" fill="#6AEDFC" stroke="#1B1B1B" mask="url(#e)"/><mask id="f" fill="#fff"><path d="M143.859 121.032l-2.004 2.004-14.171-14.171 2.004-2.004 14.171 14.171z"/></mask><path d="M143.859 121.032l-2.004 2.004-14.171-14.171 2.004-2.004 14.171 14.171z" fill="#6AEDFC" stroke="#1B1B1B" mask="url(#f)"/></g><defs><filter id="filter0_d" x=".572" y=".787" width="211.836" height="181.572" filterUnits="userSpaceOnUse" color-interpolation-filters="sRGB"><feFlood flood-opacity="0" result="BackgroundImageFix"/><feColorMatrix in="SourceAlpha" values="0 0 0 0 0 0 0 0 0 0 0 0 0 0 0 0 0 0 127 0"/><feOffset dy="4"/><feGaussianBlur stdDeviation="2"/><feColorMatrix values="0 0 0 0 0 0 0 0 0 0 0 0 0 0 0 0 0 0 0.25 0"/><feBlend in2="BackgroundImageFix" result="effect1_dropShadow"/><feBlend in="SourceGraphic" in2="effect1_dropShadow" result="shape"/></filter><filter id="filter1_d" x="66.5" y="49.758" width="93" height="93" filterUnits="userSpaceOnUse" color-interpolation-filters="sRGB"><feFlood flood-opacity="0" result="BackgroundImageFix"/><feColorMatrix in="SourceAlpha" values="0 0 0 0 0 0 0 0 0 0 0 0 0 0 0 0 0 0 127 0"/><feOffset dy="4"/><feGaussianBlur stdDeviation="2"/><feColorMatrix values="0 0 0 0 0 0 0 0 0 0 0 0 0 0 0 0 0 0 0.25 0"/><feBlend in2="BackgroundImageFix" result="effect1_dropShadow"/><feBlend in="SourceGraphic" in2="effect1_dropShadow" result="shape"/></filter><linearGradient id="paint0_linear" x1="194.514" y1="64.165" x2="45.421" y2="96.486" gradientUnits="userSpaceOnUse"><stop stop-opacity="0"/><stop offset=".771" stop-color="#6AEDFC"/></linearGradient><clipPath id="clip0"><path fill="#fff" transform="translate(70.5 49.758)" d="M0 0h85v85H0z"/></clipPath></defs></svg>