<svg width="216" height="185" viewBox="0 -40 214 250" fill="none" xmlns="http://www.w3.org/2000/svg"><g><animateTransform attributeName="transform" type="rotate" values="0 108.0 92.5; 360 108.0 92.5" calcMode="linear" begin="0s" dur="15s" repeatCount="indefinite"/><circle cx="36.481" cy="11.845" r="2.729" fill="#6AEDFC"/><circle cx="46.909" cy="14.518" r="2.675" fill="#6AEDFC"/><circle cx="7.188" cy="80.344" r="2.324" fill="#6AEDFC"/><circle cx="206.942" cy="98.389" r="4.279" fill="#6AEDFC"/><circle cx="177.863" cy="114.316" r="2.773" fill="#6AEDFC"/><circle cx="200.525" cy="140.624" r="2.615" fill="#6AEDFC"/></g><g clip-path="url(#clip0)" filter="url(#filter0_d)"><mask id="a" fill="#fff"><path d="M162.317 70.308c-.054-2.889-.107-5.618-.107-8.258a3.745 3.745 0 00-3.745-3.745c-16.017 0-28.213-4.603-38.378-14.487a3.745 3.745 0 00-5.222 0c-10.164 9.884-22.357 14.487-38.373 14.487a3.745 3.745 0 00-3.746 3.745c0 2.641-.051 5.371-.107 8.26-.513 26.884-1.216 63.703 43.611 79.241a3.736 3.736 0 002.453 0c44.83-15.538 44.128-52.358 43.614-79.243zm-44.84 71.73c-38.445-13.966-37.864-44.56-37.348-71.585.03-1.622.06-3.194.082-4.735 15-.633 26.997-5.179 37.266-14.125 10.27 8.946 22.267 13.492 37.27 14.125.02 1.54.05 3.112.081 4.733.516 27.026 1.097 57.621-37.351 71.587z"/></mask><path d="M162.317 70.308c-.054-2.889-.107-5.618-.107-8.258a3.745 3.745 0 00-3.745-3.745c-16.017 0-28.213-4.603-38.378-14.487a3.745 3.745 0 00-5.222 0c-10.164 9.884-22.357 14.487-38.373 14.487a3.745 3.745 0 00-3.746 3.745c0 2.641-.051 5.371-.107 8.26-.513 26.884-1.216 63.703 43.611 79.241a3.736 3.736 0 002.453 0c44.83-15.538 44.128-52.358 43.614-79.243zm-44.84 71.73c-38.445-13.966-37.864-44.56-37.348-71.585.03-1.622.06-3.194.082-4.735 15-.633 26.997-5.179 37.266-14.125 10.27 8.946 22.267 13.492 37.27 14.125.02 1.54.05 3.112.081 4.733.516 27.026 1.097 57.621-37.351 71.587z" fill="#6AEDFC" stroke="#1B1B1B" stroke-width="5" mask="url(#a)"/><mask id="b" fill="#fff"><path d="M130.374 83.248l-18.077 18.075-7.714-7.713a3.745 3.745 0 00-5.296 5.296l10.362 10.362a3.735 3.735 0 002.648 1.097c.958 0 1.917-.366 2.648-1.097l20.725-20.724a3.745 3.745 0 10-5.296-5.297z"/></mask><path d="M130.374 83.248l-18.077 18.075-7.714-7.713a3.745 3.745 0 00-5.296 5.296l10.362 10.362a3.735 3.735 0 002.648 1.097c.958 0 1.917-.366 2.648-1.097l20.725-20.724a3.745 3.745 0 10-5.296-5.297z" fill="#6AEDFC" stroke="#1B1B1B" stroke-width="5" mask="url(#b)"/></g><g filter="url(#filter1_d)"><mask id="c" fill="#fff"><path d="M39.902 40.477a3 3 0 011.638-2.673l72.055-36.69a3.001 3.001 0 012.638-.042l78.199 36.756a3 3 0 011.724 2.715v96.873a3 3 0 01-1.743 2.724l-78.2 36.096a3.002 3.002 0 01-2.599-.04L41.56 140.165a3.001 3.001 0 01-1.658-2.684V40.477z"/></mask><path d="M39.902 40.477a3 3 0 011.638-2.673l72.055-36.69a3.001 3.001 0 012.638-.042l78.199 36.756a3 3 0 011.724 2.715v96.873a3 3 0 01-1.743 2.724l-78.2 36.096a3.002 3.002 0 01-2.599-.04L41.56 140.165a3.001 3.001 0 01-1.658-2.684V40.477z" stroke="url(#paint0_linear)" stroke-width="4" mask="url(#c)"/></g><defs><filter id="filter0_d" x="59.978" y="42.758" width="115" height="115" filterUnits="userSpaceOnUse" color-interpolation-filters="sRGB"><feFlood flood-opacity="0" result="BackgroundImageFix"/><feColorMatrix in="SourceAlpha" values="0 0 0 0 0 0 0 0 0 0 0 0 0 0 0 0 0 0 127 0"/><feOffset dy="4"/><feGaussianBlur stdDeviation="2"/><feColorMatrix values="0 0 0 0 0 0 0 0 0 0 0 0 0 0 0 0 0 0 0.25 0"/><feBlend in2="BackgroundImageFix" result="effect1_dropShadow"/><feBlend in="SourceGraphic" in2="effect1_dropShadow" result="shape"/></filter><filter id="filter1_d" x=".864" y=".787" width="214.356" height="183.726" filterUnits="userSpaceOnUse" color-interpolation-filters="sRGB"><feFlood flood-opacity="0" result="BackgroundImageFix"/><feColorMatrix in="SourceAlpha" values="0 0 0 0 0 0 0 0 0 0 0 0 0 0 0 0 0 0 127 0"/><feOffset dy="4"/><feGaussianBlur stdDeviation="2"/><feColorMatrix values="0 0 0 0 0 0 0 0 0 0 0 0 0 0 0 0 0 0 0.25 0"/><feBlend in2="BackgroundImageFix" result="effect1_dropShadow"/><feBlend in="SourceGraphic" in2="effect1_dropShadow" result="shape"/></filter><linearGradient id="paint0_linear" x1="196.156" y1="64.952" x2="45.22" y2="97.673" gradientUnits="userSpaceOnUse"><stop stop-color="#6AEDFC"/><stop offset="1" stop-opacity="0"/></linearGradient><clipPath id="clip0"><path fill="#fff" transform="translate(63.978 42.758)" d="M0 0h107v107H0z"/></clipPath></defs></svg>