<svg width="215" height="184" viewBox="0 -40 214 250" fill="none" xmlns="http://www.w3.org/2000/svg"><g><animateTransform attributeName="transform" type="rotate" values="0 107.5 92.0; 360 107.5 92.0" calcMode="linear" begin="0s" dur="15s" repeatCount="indefinite"/><circle cx="36.068" cy="11.802" r="2.719" fill="#6AEDFC"/><circle cx="46.458" cy="14.466" r="2.665" fill="#6AEDFC"/><circle cx="6.887" cy="80.039" r="2.315" fill="#6AEDFC"/><circle cx="205.879" cy="98.017" r="4.262" fill="#6AEDFC"/><circle cx="176.912" cy="113.882" r="2.763" fill="#6AEDFC"/><circle cx="199.487" cy="140.09" r="2.605" fill="#6AEDFC"/></g><g filter="url(#filter0_d)"><mask id="a" fill="#fff"><path d="M40.47 40.331a3 3 0 011.64-2.673l71.768-36.544a3.001 3.001 0 012.638-.042l77.89 36.61a3 3 0 011.724 2.715v96.49c0 1.17-.681 2.233-1.743 2.724l-77.891 35.953a2.999 2.999 0 01-2.599-.041l-71.768-35.888a3 3 0 01-1.658-2.683v-96.62z"/></mask><path d="M40.47 40.331a3 3 0 011.64-2.673l71.768-36.544a3.001 3.001 0 012.638-.042l77.89 36.61a3 3 0 011.724 2.715v96.49c0 1.17-.681 2.233-1.743 2.724l-77.891 35.953a2.999 2.999 0 01-2.599-.041l-71.768-35.888a3 3 0 01-1.658-2.683v-96.62z" stroke="url(#paint0_linear)" stroke-width="4" mask="url(#a)"/></g><g filter="url(#filter1_d)"><g clip-path="url(#clip0)"><mask id="b" fill="#fff"><path d="M138.371 41.972H93.786c-14.453 0-26.21 12.317-26.21 27.457v46.706c0 15.14 11.758 27.457 26.21 27.457h44.585c14.453 0 26.211-12.317 26.211-27.457V69.429c0-15.14-11.758-27.457-26.211-27.457zm18.374 74.163c0 10.613-8.242 19.248-18.374 19.248H93.786c-10.131 0-18.374-8.635-18.374-19.248V69.429c0-10.613 8.243-19.248 18.374-19.248h44.585c10.132 0 18.374 8.635 18.374 19.248v46.706z"/></mask><path d="M138.371 41.972H93.786c-14.453 0-26.21 12.317-26.21 27.457v46.706c0 15.14 11.758 27.457 26.21 27.457h44.585c14.453 0 26.211-12.317 26.211-27.457V69.429c0-15.14-11.758-27.457-26.211-27.457zm18.374 74.163c0 10.613-8.242 19.248-18.374 19.248H93.786c-10.131 0-18.374-8.635-18.374-19.248V69.429c0-10.613 8.243-19.248 18.374-19.248h44.585c10.132 0 18.374 8.635 18.374 19.248v46.706z" fill="#6AEDFC" stroke="#1E1E1E" stroke-width="6" mask="url(#b)"/><mask id="c" fill="#fff"><path d="M137.789 89.237c-.689-4.872-2.811-9.287-6.136-12.77-3.324-3.483-7.54-5.706-12.19-6.428a20.769 20.769 0 00-6.382 0c-5.748.893-10.819 4.077-14.28 8.966-3.462 4.889-4.899 10.897-4.047 16.918.853 6.02 3.892 11.333 8.559 14.959 3.789 2.944 8.281 4.49 12.913 4.49a20.95 20.95 0 003.236-.252c5.748-.892 10.82-4.076 14.281-8.965 3.461-4.889 4.899-10.897 4.046-16.918zM118.313 107c-3.677.572-7.346-.391-10.331-2.711-2.986-2.319-4.93-5.718-5.475-9.57-.545-3.851.374-7.695 2.588-10.822 2.215-3.127 5.459-5.164 9.136-5.736a13.289 13.289 0 014.082 0c6.106.95 10.818 5.885 11.724 12.282 1.125 7.95-4.134 15.378-11.724 16.557z"/></mask><path d="M137.789 89.237c-.689-4.872-2.811-9.287-6.136-12.77-3.324-3.483-7.54-5.706-12.19-6.428a20.769 20.769 0 00-6.382 0c-5.748.893-10.819 4.077-14.28 8.966-3.462 4.889-4.899 10.897-4.047 16.918.853 6.02 3.892 11.333 8.559 14.959 3.789 2.944 8.281 4.49 12.913 4.49a20.95 20.95 0 003.236-.252c5.748-.892 10.82-4.076 14.281-8.965 3.461-4.889 4.899-10.897 4.046-16.918zM118.313 107c-3.677.572-7.346-.391-10.331-2.711-2.986-2.319-4.93-5.718-5.475-9.57-.545-3.851.374-7.695 2.588-10.822 2.215-3.127 5.459-5.164 9.136-5.736a13.289 13.289 0 014.082 0c6.106.95 10.818 5.885 11.724 12.282 1.125 7.95-4.134 15.378-11.724 16.557z" fill="#6AEDFC" stroke="#1E1E1E" stroke-width="6" mask="url(#c)"/><mask id="d" fill="#fff"><path d="M143.371 64.192a3.858 3.858 0 00-2.771-1.203 3.858 3.858 0 00-2.771 1.203 4.236 4.236 0 00-1.148 2.902c0 1.082.419 2.139 1.148 2.903A3.858 3.858 0 00140.6 71.2a3.857 3.857 0 002.771-1.203 4.235 4.235 0 001.148-2.903c0-1.08-.418-2.138-1.148-2.902z"/></mask><path d="M143.371 64.192a3.858 3.858 0 00-2.771-1.203 3.858 3.858 0 00-2.771 1.203 4.236 4.236 0 00-1.148 2.902c0 1.082.419 2.139 1.148 2.903A3.858 3.858 0 00140.6 71.2a3.857 3.857 0 002.771-1.203 4.235 4.235 0 001.148-2.903c0-1.08-.418-2.138-1.148-2.902z" fill="#6AEDFC" stroke="#1E1E1E" stroke-width="6" mask="url(#d)"/></g></g><defs><filter id="filter0_d" x=".572" y=".787" width="213.569" height="183.053" filterUnits="userSpaceOnUse" color-interpolation-filters="sRGB"><feFlood flood-opacity="0" result="BackgroundImageFix"/><feColorMatrix in="SourceAlpha" values="0 0 0 0 0 0 0 0 0 0 0 0 0 0 0 0 0 0 127 0"/><feOffset dy="4"/><feGaussianBlur stdDeviation="2"/><feColorMatrix values="0 0 0 0 0 0 0 0 0 0 0 0 0 0 0 0 0 0 0.25 0"/><feBlend in2="BackgroundImageFix" result="effect1_dropShadow"/><feBlend in="SourceGraphic" in2="effect1_dropShadow" result="shape"/></filter><filter id="filter1_d" x="63.575" y="41.972" width="105.007" height="109.621" filterUnits="userSpaceOnUse" color-interpolation-filters="sRGB"><feFlood flood-opacity="0" result="BackgroundImageFix"/><feColorMatrix in="SourceAlpha" values="0 0 0 0 0 0 0 0 0 0 0 0 0 0 0 0 0 0 127 0"/><feOffset dy="4"/><feGaussianBlur stdDeviation="2"/><feColorMatrix values="0 0 0 0 0 0 0 0 0 0 0 0 0 0 0 0 0 0 0.25 0"/><feBlend in2="BackgroundImageFix" result="effect1_dropShadow"/><feBlend in="SourceGraphic" in2="effect1_dropShadow" result="shape"/></filter><linearGradient id="paint0_linear" x1="196.13" y1="64.707" x2="45.768" y2="97.302" gradientUnits="userSpaceOnUse"><stop stop-opacity="0"/><stop offset=".771" stop-color="#6AEDFC"/></linearGradient><clipPath id="clip0"><path fill="#fff" transform="translate(67.575 41.972)" d="M0 0h97.007v101.621H0z"/></clipPath></defs></svg>