<svg width="168" height="168" viewBox="0 0 168 168" fill="none" xmlns="http://www.w3.org/2000/svg"><circle cx="83.654" cy="83.758" r="82.929" stroke="#6AEDFC"/><g clip-path="url(#clip0)" fill="#6AEDFC" stroke="#1B1B1B" stroke-width=".5"><path d="M84.924 84.54l-.03-.008a1.296 1.296 0 00-.467-.016l-.033.005-.033-.004a3.942 3.942 0 01-3.487-3.908h0a1.374 1.374 0 00-2.747 0 6.697 6.697 0 004.924 6.447l.184.05v1.816a1.374 1.374 0 002.747 0v-1.73l.2-.041a6.684 6.684 0 005.278-7.23l-6.536 4.618zm0 0l.031-.002m-.031.001l.031-.001m0 0a3.934 3.934 0 003.791-4.004m-3.79 4.004l3.79-4.004m-2.764-17.132V61.72a1.374 1.374 0 00-2.747 0v1.768l-.185.05a6.685 6.685 0 001.761 13.132h0a3.935 3.935 0 013.935 3.863m-2.764-17.132l2.764 17.132m-2.764-17.132l.199.042m-.199-.042l.199.042m0 0a6.697 6.697 0 015.315 6.543 1.374 1.374 0 01-2.747 0 3.937 3.937 0 10-3.938 3.937 6.685 6.685 0 016.648 5.996l-5.278-16.476zM84.39 84.269a3.692 3.692 0 01-3.266-3.66l3.266 3.66z"/><path d="M84.811 54.872h0c-11.344.013-20.537 9.206-20.55 20.55v0c0 11.35 9.2 20.55 20.55 20.55 11.35 0 20.551-9.2 20.551-20.55 0-11.35-9.2-20.55-20.55-20.55zm0 43.848c-12.867 0-23.297-10.43-23.298-23.297.016-12.861 10.438-23.284 23.299-23.299 12.867 0 23.297 10.431 23.297 23.298 0 12.868-10.43 23.298-23.297 23.298zm31.666 4.477l-.005.003h-.001l-12.72 6.01-.215.102-.112-.209a10.11 10.11 0 00-8.62-5.319l21.673-.587zm0 0a7.954 7.954 0 0110.503 3.2h0c.357.633.16 1.435-.45 1.83 0 0 0 0 0 0l-28.965 18.735v.001c-.055.035-.11.066-.169.092v.001a21.417 21.417 0 01-8.947 1.952h0a21.144 21.144 0 01-4.338-.447c-.035-.008-.062-.014-.087-.022h-.004m32.457-25.342L84.02 128.539m0 0l-19.976-5.607s0 0 0 0m19.976 5.607l-19.976-5.607m32.113 1.671l-.017.007a18.661 18.661 0 01-11.413 1.274l-.008-.002-.01-.002-19.922-5.592v-.001a8.735 8.735 0 00-6.508.712h0l-1.71.916-.38.203.013-.43.457-16.63.004-.13.107-.071a18.098 18.098 0 0118.388-.981l20.999 20.727zm0 0l.016-.011 27.384-17.714.27-.175-.236-.218a5.212 5.212 0 00-5.893-.826l-.026.013v-.001l-.007.004-13.047 6.164-.173.082.034.189c.121.677.172 1.367.153 2.055h0a1.375 1.375 0 01-1.373 1.337h-.041l-19.301-.531-.007.249.007-.249a1.375 1.375 0 01.076-2.748l17.492.483.316.009-.064-.309a7.372 7.372 0 00-7.007-5.875h0l-11.744-.323a15.435 15.435 0 01-6.634-1.713l-1.194-.619 20.999 20.727zm8.568-12.538c.124.695.177 1.402.157 2.107l-.157-2.107zm0 0l13.047-6.164-13.047 6.164zm-40.681 10.867a5.986 5.986 0 00-4.468.489l4.468-.489zm19.017-19.471l11.743.323-35.229 19.637-3.345 1.791-.128.068-.004.145-.037 1.352v.001a1.374 1.374 0 01-1.374 1.336h-.04l-12.874-.355h0a1.373 1.373 0 01-1.336-1.411s0 0 0 0l.778-28.258h0a1.373 1.373 0 011.41-1.336s0 0 0 0l12.877.355h0c.76.02 1.357.653 1.336 1.411l-.074 2.707-.012.427.378-.198a20.827 20.827 0 0119.29-.021v.001l1.196.619h0a12.652 12.652 0 005.445 1.406h0zm-39.832 21.34l-.007.25.25.006 9.63.266.25.007.006-.25.689-25.012.007-.25-.25-.007-9.63-.265-.25-.007-.007.25-.688 25.012zm79.975-17.993l.047.044.17-.184-.136-.21-.059.039-.022.311zM86.185 31.882v15.427a1.374 1.374 0 01-2.748 0V31.882a1.374 1.374 0 012.748 0zm12.18 8.119v7.308a1.374 1.374 0 01-2.748 0V40a1.374 1.374 0 012.748 0zm-24.359 0v7.308a1.374 1.374 0 01-2.748 0V40a1.374 1.374 0 012.748 0z"/></g><defs><clipPath id="clip0"><path fill="#fff" transform="translate(34.154 30.258)" d="M0 0h99v99H0z"/></clipPath></defs></svg>