<svg xmlns="http://www.w3.org/2000/svg" viewBox="0 0 1440 480"><path fill="#1e1e1e" d="M0 0h1440v480H0z"/><g fill="none" stroke-width="2"><circle cx="248.38" cy="281.47" r="33.41" stroke="#6aedfc"/><circle cx="511.99" cy="166.89" r="33.41" stroke="#6aedfc"/><circle cx="61.64" cy="75.76" r="33.41" stroke="#6aedfc"/><circle cx="174.71" cy="178.14" r="33.41" stroke="#c645ec"/><circle cx="792.13" cy="258.43" r="33.41" stroke="#c645ec"/><circle cx="1131.27" cy="299.31" r="33.41" stroke="#c645ec"/><circle cx="553.04" cy="375.97" r="34.41" stroke="#6f78f0"/><circle cx="894.38" cy="365.45" r="33.41" stroke="#6f78f0"/><circle cx="378.29" cy="264.91" r="33.41" stroke="#6f78f0"/><path d="M70.12 166.34L109.76 235H30.48zM1004.34 407l37.91-65.66 37.91 65.66zM577 269l37.91-65.66L652.79 269z" stroke="#6f78f0"/><path d="M1151.71 217l37.9-65.66 37.91 65.66zm-229.65 70L960 221.34 997.88 287zM370.62 398l37.91-65.66 37.9 65.66z" stroke="#6aedfc"/><path d="M920.37 146l37.91-65.66L996.19 146zM448.6 303l37.91-65.66L524.42 303zm-85.48-183L401 54.34 438.93 120z" stroke="#c645ec"/><path stroke="#6aedfc" d="M42 306h67v67H42zm589 6h67v67h-67zm160-202h67v67h-67z"/><path stroke="#6f78f0" d="M1259 99h67v67h-67zm-216 64h67v67h-67zm-773-13h67v67h-67z"/><path stroke="#c645ec" d="M162 354h67v67h-67zm1102-42h67v67h-67zM652 125h67v67h-67z"/></g><path fill="none" d="M154 292l8 62"/></svg>