<svg id="a" width="65" height="68" viewBox="0 0 65 68" fill="none" xmlns="http://www.w3.org/2000/svg"><path d="M.903 48.514c5.394 10.92 16.644 18.43 29.647 18.43 18.252 0 33.048-14.795 33.048-33.047C63.598 15.646 48.802.85 30.55.85 17.547.85 6.297 8.36.903 19.28" stroke="#EEE" stroke-opacity=".3"/><path stroke-dasharray="52 140" stroke-dashoffset="-125" d="M.903 48.514c5.394 10.92 16.644 18.43 29.647 18.43 18.252 0 33.048-14.795 33.048-33.047C63.598 15.646 48.802.85 30.55.85 17.547.85 6.297 8.36.903 19.28" stroke="#20D2C8"><animate attributeName="stroke-dashoffset" begin="a.mouseenter" end="a.mouseleave" values="-125; 66" dur="2s" repeatCount="1" fill="freeze" calcMode="linear"/><animate attributeName="stroke-dashoffset" begin="a.mouseleave" to="66" dur="1s" accumulate="sum" repeatCount="1" fill="freeze" calcMode="linear"/></path><path d="M35.307 33.897l-7.135 5.169V28.729l7.135 5.168z" stroke="#20D2C8"/><path d="M35.307 33.897l-7.135 5.169V28.729l7.135 5.168z" opacity=".01" fill="#20D2C8" stroke="#20D2C8"><animate attributeName="opacity" begin="a.mouseenter" end="a.mouseleave" values="0; 1" keyTimes="0; 1" dur="1s" fill="freeze" repeatCount="1" calcMode="linear"/><animate attributeName="opacity" begin="a.mouseleave" to="0" dur="1s" accumulate="sum" repeatCount="1" calcMode="linear" fill="freeze"/></path></svg>