<svg id="a" width="150" height="129" viewBox="0 -13 150 148" fill="none" xmlns="http://www.w3.org/2000/svg">

    <g>

        <g filter="url(#filter0_d)">
            <mask id="c" fill="#fff">
                <path
                    d="M29.522 28.42a3 3 0 011.64-2.673l48.24-24.563a3 3 0 012.637-.042l52.4 24.63a2.999 2.999 0 011.724 2.715v64.9a3 3 0 01-1.742 2.723l-52.402 24.188a3.002 3.002 0 01-2.599-.04L31.18 96.135a3 3 0 01-1.658-2.683V28.421z" />
            </mask>
            <path
                d="M29.522 28.42a3 3 0 011.64-2.673l48.24-24.563a3 3 0 012.637-.042l52.4 24.63a2.999 2.999 0 011.724 2.715v64.9a3 3 0 01-1.742 2.723l-52.402 24.188a3.002 3.002 0 01-2.599-.04L31.18 96.135a3 3 0 01-1.658-2.683V28.421z"
                stroke="url(#paint0_linear)" stroke-width="4" mask="url(#c)" />
        </g>
        <g clip-path="url(#clip0)" filter="url(#filter1_d)">
            <mask id="d" fill="#fff">
                <path
                    d="M99.98 28.56c-5.942 0-10.777 4.834-10.777 10.776 0 3.066 1.289 5.834 3.35 7.799.053.058.11.114.172.163a10.735 10.735 0 007.255 2.816c2.792 0 5.339-1.068 7.256-2.816.062-.05.119-.105.172-.163a10.747 10.747 0 003.35-7.799c0-5.942-4.835-10.777-10.778-10.777zm0 18.641a7.818 7.818 0 01-4.517-1.432 5.327 5.327 0 014.517-2.475c1.866 0 3.546.946 4.517 2.475A7.818 7.818 0 0199.98 47.2zm-1.499-8.32v-.738a1.5 1.5 0 011.5-1.499 1.5 1.5 0 011.498 1.499v.739a1.5 1.5 0 01-1.499 1.499 1.5 1.5 0 01-1.499-1.5zm8.081 4.752a8.19 8.19 0 00-2.865-2.379c.439-.686.695-1.5.695-2.372v-.74a4.417 4.417 0 00-4.412-4.41 4.417 4.417 0 00-4.411 4.41v.74c0 .873.255 1.686.695 2.372a8.197 8.197 0 00-2.865 2.38 7.817 7.817 0 01-1.283-4.298c0-4.336 3.528-7.864 7.864-7.864 4.337 0 7.865 3.528 7.865 7.864a7.814 7.814 0 01-1.283 4.297z" />
            </mask>
            <path
                d="M99.98 28.56c-5.942 0-10.777 4.834-10.777 10.776 0 3.066 1.289 5.834 3.35 7.799.053.058.11.114.172.163a10.735 10.735 0 007.255 2.816c2.792 0 5.339-1.068 7.256-2.816.062-.05.119-.105.172-.163a10.747 10.747 0 003.35-7.799c0-5.942-4.835-10.777-10.778-10.777zm0 18.641a7.818 7.818 0 01-4.517-1.432 5.327 5.327 0 014.517-2.475c1.866 0 3.546.946 4.517 2.475A7.818 7.818 0 0199.98 47.2zm-1.499-8.32v-.738a1.5 1.5 0 011.5-1.499 1.5 1.5 0 011.498 1.499v.739a1.5 1.5 0 01-1.499 1.499 1.5 1.5 0 01-1.499-1.5zm8.081 4.752a8.19 8.19 0 00-2.865-2.379c.439-.686.695-1.5.695-2.372v-.74a4.417 4.417 0 00-4.412-4.41 4.417 4.417 0 00-4.411 4.41v.74c0 .873.255 1.686.695 2.372a8.197 8.197 0 00-2.865 2.38 7.817 7.817 0 01-1.283-4.298c0-4.336 3.528-7.864 7.864-7.864 4.337 0 7.865 3.528 7.865 7.864a7.814 7.814 0 01-1.283 4.297z"
                fill="#3202F2" stroke="#1E1E1E" stroke-width="2" mask="url(#d)" />
            <mask id="e" fill="#fff">
                <path
                    d="M116.777 79.17a5.63 5.63 0 00-7.226-.619l-8.164 6.14a1.457 1.457 0 001.75 2.328l8.138-6.12a2.716 2.716 0 013.442.33c.486.486.734 1.132.698 1.818a2.365 2.365 0 01-.884 1.734l-7.451 6.036a16.073 16.073 0 01-10.084 3.571H75.441c-2.927 0-5.796-.801-8.3-2.317l-5.864-3.552V70.085h11.23c1.557 0 3.02.606 4.118 1.704l7.748 7.784a5.788 5.788 0 004.119 1.707h5.714c1.203 0 2.182.978 2.182 2.181a2.184 2.184 0 01-2.182 2.182H83.232a5.174 5.174 0 01-2.828-.84l-4.674-3.039-.017-.011a1.457 1.457 0 00-1.592 2.44l4.695 3.053a8.08 8.08 0 004.416 1.31h10.974a5.1 5.1 0 005.094-5.095 5.1 5.1 0 00-5.094-5.094h-5.621l12.108-6.991h14.725a2.916 2.916 0 002.913-2.913V25.646a2.916 2.916 0 00-2.913-2.913H84.542a2.916 2.916 0 00-2.912 2.913v42.818a2.916 2.916 0 002.912 2.913h10.325l-9.236 5.332-6.945-6.977a8.68 8.68 0 00-6.179-2.559h-11.23v-2.568a2.916 2.916 0 00-2.913-2.913H45.22c-.805 0-1.457.652-1.457 1.456v32.696c0 .805.652 1.457 1.457 1.457h13.144a2.916 2.916 0 002.913-2.913v-2.464l4.356 2.638a18.932 18.932 0 009.808 2.739h21.555a18.99 18.99 0 0011.917-4.22l7.452-6.036a5.317 5.317 0 001.959-3.846 5.317 5.317 0 00-1.547-4.029zM84.542 68.464V25.646h30.876l.002 42.818H84.542zM58.364 94.388H46.676V64.605h11.688v4.029l.001 20.634a1.444 1.444 0 000 .11v5.01h-.001z" />
            </mask>
            <path
                d="M116.777 79.17a5.63 5.63 0 00-7.226-.619l-8.164 6.14a1.457 1.457 0 001.75 2.328l8.138-6.12a2.716 2.716 0 013.442.33c.486.486.734 1.132.698 1.818a2.365 2.365 0 01-.884 1.734l-7.451 6.036a16.073 16.073 0 01-10.084 3.571H75.441c-2.927 0-5.796-.801-8.3-2.317l-5.864-3.552V70.085h11.23c1.557 0 3.02.606 4.118 1.704l7.748 7.784a5.788 5.788 0 004.119 1.707h5.714c1.203 0 2.182.978 2.182 2.181a2.184 2.184 0 01-2.182 2.182H83.232a5.174 5.174 0 01-2.828-.84l-4.674-3.039-.017-.011a1.457 1.457 0 00-1.592 2.44l4.695 3.053a8.08 8.08 0 004.416 1.31h10.974a5.1 5.1 0 005.094-5.095 5.1 5.1 0 00-5.094-5.094h-5.621l12.108-6.991h14.725a2.916 2.916 0 002.913-2.913V25.646a2.916 2.916 0 00-2.913-2.913H84.542a2.916 2.916 0 00-2.912 2.913v42.818a2.916 2.916 0 002.912 2.913h10.325l-9.236 5.332h0l-6.945-6.977a8.68 8.68 0 00-6.179-2.559h-11.23v-2.568a2.916 2.916 0 00-2.913-2.913H45.22c-.805 0-1.457.652-1.457 1.456v32.696c0 .805.652 1.457 1.457 1.457h13.144a2.916 2.916 0 002.913-2.913v-2.464l4.356 2.638a18.932 18.932 0 009.808 2.739h21.555a18.99 18.99 0 0011.917-4.22l7.452-6.036a5.317 5.317 0 001.959-3.846 5.317 5.317 0 00-1.547-4.029zM84.542 68.464V25.646h30.876l.002 42.818H84.542zM58.364 94.388H46.676V64.605h11.688v4.029l.001 20.634a1.444 1.444 0 000 .11v5.01h-.001z"
                fill="#3202F2" stroke="#1E1E1E" stroke-width="2" mask="url(#e)" />
            <mask id="f" fill="#fff">
                <path
                    d="M77.866 30.069a1.456 1.456 0 00-1.99-.534l-13.11 7.57a2.916 2.916 0 00-1.066 3.979l12.724 22.04a1.456 1.456 0 102.523-1.457l-12.725-22.04 13.111-7.569a1.456 1.456 0 00.533-1.99z" />
            </mask>
            <path
                d="M77.866 30.069a1.456 1.456 0 00-1.99-.534l-13.11 7.57a2.916 2.916 0 00-1.066 3.979l12.724 22.04a1.456 1.456 0 102.523-1.457l-12.725-22.04 13.111-7.569a1.456 1.456 0 00.533-1.99z"
                fill="#3202F2" stroke="#1E1E1E" stroke-width="2" mask="url(#f)" />
            <mask id="g" fill="#fff">
                <path d="M109.01 53.609H92.116a1.456 1.456 0 100 2.913h16.894a1.456 1.456 0 000-2.913z" />
            </mask>
            <path d="M109.01 53.609H92.116a1.456 1.456 0 100 2.913h16.894a1.456 1.456 0 000-2.913z" fill="#3202F2"
                stroke="#1E1E1E" stroke-width="2" mask="url(#g)" />
            <mask id="h" fill="#fff">
                <path
                    d="M110.04 60.444a1.468 1.468 0 00-1.03-.427c-.383 0-.759.155-1.03.427-.271.27-.427.646-.427 1.03 0 .382.156.758.427 1.029.271.27.647.427 1.03.427s.759-.156 1.03-.427c.27-.271.426-.647.426-1.03a1.47 1.47 0 00-.426-1.03z" />
            </mask>
            <path
                d="M110.04 60.444a1.468 1.468 0 00-1.03-.427c-.383 0-.759.155-1.03.427-.271.27-.427.646-.427 1.03 0 .382.156.758.427 1.029.271.27.647.427 1.03.427s.759-.156 1.03-.427c.27-.271.426-.647.426-1.03a1.47 1.47 0 00-.426-1.03z"
                fill="#3202F2" stroke="#1E1E1E" stroke-width="2" mask="url(#h)" />
            <mask id="i" fill="#fff">
                <path d="M102.936 60.017h-10.82a1.456 1.456 0 000 2.913h10.82a1.456 1.456 0 000-2.913z" />
            </mask>
            <path d="M102.936 60.017h-10.82a1.456 1.456 0 000 2.913h10.82a1.456 1.456 0 000-2.913z" fill="#3202F2"
                stroke="#1E1E1E" stroke-width="2" mask="url(#i)" />
            <mask id="j" fill="#fff">
                <path
                    d="M52.52 76.408c-.804 0-1.456.652-1.456 1.457v5.697a1.457 1.457 0 002.912 0v-5.697c0-.805-.652-1.457-1.456-1.457z" />
            </mask>
            <path
                d="M52.52 76.408c-.804 0-1.456.652-1.456 1.457v5.697a1.457 1.457 0 002.912 0v-5.697c0-.805-.652-1.457-1.456-1.457z"
                fill="#3202F2" stroke="#1E1E1E" stroke-width="2" mask="url(#j)" />
            <mask id="k" fill="#fff">
                <path
                    d="M53.55 87.546a1.47 1.47 0 00-1.03-.427 1.47 1.47 0 00-1.03.427c-.271.27-.426.646-.426 1.03s.155.758.425 1.03c.271.27.647.426 1.03.426a1.47 1.47 0 001.031-.427 1.462 1.462 0 000-2.06z" />
            </mask>
            <path
                d="M53.55 87.546a1.47 1.47 0 00-1.03-.427 1.47 1.47 0 00-1.03.427c-.271.27-.426.646-.426 1.03s.155.758.425 1.03c.271.27.647.426 1.03.426a1.47 1.47 0 001.031-.427 1.462 1.462 0 000-2.06z"
                fill="#3202F2" stroke="#1E1E1E" stroke-width="2" mask="url(#k)" />
        </g>
    </g>
    <defs>
        <filter id="filter0_d" x=".927" y=".857" width="148.835" height="127.718" filterUnits="userSpaceOnUse"
            color-interpolation-filters="sRGB">
            <feFlood flood-opacity="0" result="BackgroundImageFix" />
            <feColorMatrix in="SourceAlpha" values="0 0 0 0 0 0 0 0 0 0 0 0 0 0 0 0 0 0 127 0" />
            <feOffset dy="4" />
            <feGaussianBlur stdDeviation="2" />
            <feColorMatrix values="0 0 0 0 0 0 0 0 0 0 0 0 0 0 0 0 0 0 0.25 0" />
            <feBlend in2="BackgroundImageFix" result="effect1_dropShadow" />
            <feBlend in="SourceGraphic" in2="effect1_dropShadow" result="shape" />
        </filter>
        <filter id="filter1_d" x="39.763" y="22.733" width="82.568" height="82.568" filterUnits="userSpaceOnUse"
            color-interpolation-filters="sRGB">
            <feFlood flood-opacity="0" result="BackgroundImageFix" />
            <feColorMatrix in="SourceAlpha" values="0 0 0 0 0 0 0 0 0 0 0 0 0 0 0 0 0 0 127 0" />
            <feOffset dy="4" />
            <feGaussianBlur stdDeviation="2" />
            <feColorMatrix values="0 0 0 0 0 0 0 0 0 0 0 0 0 0 0 0 0 0 0.25 0" />
            <feBlend in2="BackgroundImageFix" result="effect1_dropShadow" />
            <feBlend in="SourceGraphic" in2="effect1_dropShadow" result="shape" />
        </filter>
        <linearGradient id="paint0_linear" x1="136.163" y1="44.541" x2="33.152" y2="66.872"
            gradientUnits="userSpaceOnUse">
            <stop stop-color="#3400FE" />
            <stop offset="1" stop-opacity="0" />
        </linearGradient>
        <clipPath id="clip0">
            <path fill="#fff" transform="translate(43.763 22.733)" d="M0 0h74.568v74.568H0z" />
        </clipPath>
    </defs>
</svg>