<svg id="a" width="286" height="245" viewBox="0 -37 286 300" fill="none" xmlns="http://www.w3.org/2000/svg">

    <g>

        <g filter="url(#filter0_d)">
            <mask id="c" fill="#fff">
                <path
                    d="M52.63 53.446a3 3 0 011.64-2.674L152.02.998a3.001 3.001 0 012.638-.042l106.037 49.84a3 3 0 011.724 2.715v131.373a3 3 0 01-1.743 2.724l-106.038 48.946a3.002 3.002 0 01-2.599-.04l-97.75-48.881a3 3 0 01-1.659-2.683V53.446z" />
            </mask>
            <path
                d="M52.63 53.446a3 3 0 011.64-2.674L152.02.998a3.001 3.001 0 012.638-.042l106.037 49.84a3 3 0 011.724 2.715v131.373a3 3 0 01-1.743 2.724l-106.038 48.946a3.002 3.002 0 01-2.599-.04l-97.75-48.881a3 3 0 01-1.659-2.683V53.446z"
                stroke="url(#paint0_linear)" stroke-width="4" mask="url(#c)" />
        </g>
        <g clip-path="url(#clip0)" filter="url(#filter1_d)">
            <mask id="d" fill="#fff">
                <path
                    d="M202.908 73.468c8.339 0 15.122-6.784 15.122-15.125 0-8.341-6.782-15.126-15.122-15.126-8.345 0-15.135 6.784-15.135 15.126 0 8.34 6.79 15.125 15.135 15.125zm0-25.582c5.765 0 10.454 4.691 10.454 10.457 0 5.765-4.689 10.457-10.454 10.457-5.771 0-10.467-4.692-10.467-10.457 0-5.766 4.696-10.457 10.467-10.457z" />
            </mask>
            <path
                d="M202.908 73.468c8.339 0 15.122-6.784 15.122-15.125 0-8.341-6.782-15.126-15.122-15.126-8.345 0-15.135 6.784-15.135 15.126 0 8.34 6.79 15.125 15.135 15.125zm0-25.582c5.765 0 10.454 4.691 10.454 10.457 0 5.765-4.689 10.457-10.454 10.457-5.771 0-10.467-4.692-10.467-10.457 0-5.766 4.696-10.457 10.467-10.457z"
                fill="#6ABFFC" stroke="#1E1E1E" stroke-width="2.5" mask="url(#d)" />
            <mask id="e" fill="#fff">
                <path
                    d="M113.525 73.099c8.34 0 15.125-6.784 15.125-15.126 0-8.338-6.785-15.121-15.125-15.121-8.346 0-15.136 6.783-15.136 15.122 0 8.34 6.79 15.125 15.136 15.125zm0-25.579c5.765 0 10.457 4.69 10.457 10.453 0 5.766-4.692 10.457-10.457 10.457-5.771 0-10.467-4.691-10.467-10.457 0-5.762 4.696-10.453 10.467-10.453z" />
            </mask>
            <path
                d="M113.525 73.099c8.34 0 15.125-6.784 15.125-15.126 0-8.338-6.785-15.121-15.125-15.121-8.346 0-15.136 6.783-15.136 15.122 0 8.34 6.79 15.125 15.136 15.125zm0-25.579c5.765 0 10.457 4.69 10.457 10.453 0 5.766-4.692 10.457-10.457 10.457-5.771 0-10.467-4.691-10.467-10.457 0-5.762 4.696-10.453 10.467-10.453z"
                fill="#6ABFFC" stroke="#1E1E1E" stroke-width="2.5" mask="url(#e)" />
            <mask id="f" fill="#fff">
                <path
                    d="M126.493 146.288h-.443c-4.644 0-8.684-4.159-8.684-8.803V84.766c0-1.755.436-3.562 1.033-5.37.236-.713.181-1.526-.258-2.134-.439-.607-1.076-1-1.825-1H98.053c-7.275.002-13.365 6.635-13.365 12.286v42.714c0 1.288 1.49 2.19 2.78 2.19h6.557v48.113c0 1.288 1.228 2.07 2.516 2.07h29.952c1.288 0 2.544-.782 2.544-2.07v-33.324c0-1.29-1.255-1.953-2.544-1.953zm-2.124 32.678H98.693v-47.705c0-1.288-.862-2.479-2.152-2.479h-7.185V88.549c0-3.04 3.911-7.616 8.697-7.616h15.258c-.233 1.167-.613 2.589-.613 3.834v52.719c0 6.576 4.668 12.034 11.671 12.952v28.528z" />
            </mask>
            <path
                d="M126.493 146.288h-.443c-4.644 0-8.684-4.159-8.684-8.803V84.766c0-1.755.436-3.562 1.033-5.37.236-.713.181-1.526-.258-2.134-.439-.607-1.076-1-1.825-1H98.053c-7.275.002-13.365 6.635-13.365 12.286v42.714c0 1.288 1.49 2.19 2.78 2.19h6.557v48.113c0 1.288 1.228 2.07 2.516 2.07h29.952c1.288 0 2.544-.782 2.544-2.07v-33.324c0-1.29-1.255-1.953-2.544-1.953zm-2.124 32.678H98.693v-47.705c0-1.288-.862-2.479-2.152-2.479h-7.185V88.549c0-3.04 3.911-7.616 8.697-7.616h15.258c-.233 1.167-.613 2.589-.613 3.834v52.719c0 6.576 4.668 12.034 11.671 12.952v28.528z"
                fill="#6ABFFC" stroke="#1E1E1E" stroke-width="2.5" mask="url(#f)" />
            <mask id="g" fill="#fff">
                <path
                    d="M193.226 137.485v-52.72c0-6.877-6.845-14.337-15.924-14.337h-38.181c-8.676 0-15.92 7.614-15.92 14.338v52.719c0 1.288 1.561 1.801 2.849 1.801h8.822v60.283c0 1.289 1.09 2.739 2.379 2.739h41.925c1.289 0 2.379-1.449 2.379-2.739v-60.283h8.818c1.289 0 2.853-.512 2.853-1.801zm-4.669-2.868h-9.381c-1.288 0-2.289 1.579-2.289 2.868v60.154H139.54v-60.154c0-1.289-1-2.868-2.29-2.868h-9.381V84.766c0-3.975 5.023-9.67 11.252-9.67h38.182c6.554 0 11.255 5.645 11.255 9.67v49.851h-.001z" />
            </mask>
            <path
                d="M193.226 137.485v-52.72c0-6.877-6.845-14.337-15.924-14.337h-38.181c-8.676 0-15.92 7.614-15.92 14.338v52.719c0 1.288 1.561 1.801 2.849 1.801h8.822v60.283c0 1.289 1.09 2.739 2.379 2.739h41.925c1.289 0 2.379-1.449 2.379-2.739v-60.283h8.818c1.289 0 2.853-.512 2.853-1.801zm-4.669-2.868h-9.381c-1.288 0-2.289 1.579-2.289 2.868v60.154H139.54v-60.154c0-1.289-1-2.868-2.29-2.868h-9.381V84.766c0-3.975 5.023-9.67 11.252-9.67h38.182c6.554 0 11.255 5.645 11.255 9.67v49.851h-.001z"
                fill="#6ABFFC" stroke="#1E1E1E" stroke-width="2.5" mask="url(#g)" />
            <mask id="h" fill="#fff">
                <path
                    d="M158.218 61.559c9.989 0 18.114-8.127 18.114-18.118 0-9.993-8.126-18.124-18.114-18.124-9.999 0-18.134 8.13-18.134 18.123 0 9.992 8.135 18.119 18.134 18.119zm0-31.574c7.415 0 13.446 6.036 13.446 13.455 0 7.416-6.031 13.45-13.446 13.45-7.425 0-13.465-6.034-13.465-13.45 0-7.419 6.04-13.455 13.465-13.455z" />
            </mask>
            <path
                d="M158.218 61.559c9.989 0 18.114-8.127 18.114-18.118 0-9.993-8.126-18.124-18.114-18.124-9.999 0-18.134 8.13-18.134 18.123 0 9.992 8.135 18.119 18.134 18.119zm0-31.574c7.415 0 13.446 6.036 13.446 13.455 0 7.416-6.031 13.45-13.446 13.45-7.425 0-13.465-6.034-13.465-13.45 0-7.419 6.04-13.455 13.465-13.455z"
                fill="#6ABFFC" stroke="#1E1E1E" stroke-width="2.5" mask="url(#h)" />
            <mask id="i" fill="#fff">
                <path
                    d="M218.37 76.264h-18.124c-.738 0-1.432.564-1.872 1.155-.44.592-.442 1.464-.23 2.171.519 1.74.917 3.552.917 5.176v52.719c0 4.644-4.045 8.803-8.688 8.803h-.438c-1.289 0-2.545.662-2.545 1.952v33.69c0 1.288 1.255 2.872 2.545 2.872h29.955c1.288 0 2.512-1.583 2.512-2.872v-48.48h6.557c1.289 0 2.78-.534 2.78-1.823V88.92c0-5.783-5.754-12.656-13.369-12.656zm8.701 52.518h-7.181c-1.289 0-2.156 1.556-2.156 2.845v48.506h-25.675v-29.696c7.002-.921 11.67-6.378 11.67-12.952V84.766c0-1.116-.363-2.667-.552-3.834h15.193c5.04 0 8.701 4.905 8.701 7.987v39.863z" />
            </mask>
            <path
                d="M218.37 76.264h-18.124c-.738 0-1.432.564-1.872 1.155-.44.592-.442 1.464-.23 2.171.519 1.74.917 3.552.917 5.176v52.719c0 4.644-4.045 8.803-8.688 8.803h-.438c-1.289 0-2.545.662-2.545 1.952v33.69c0 1.288 1.255 2.872 2.545 2.872h29.955c1.288 0 2.512-1.583 2.512-2.872v-48.48h6.557c1.289 0 2.78-.534 2.78-1.823V88.92c0-5.783-5.754-12.656-13.369-12.656zm8.701 52.518h-7.181c-1.289 0-2.156 1.556-2.156 2.845v48.506h-25.675v-29.696c7.002-.921 11.67-6.378 11.67-12.952V84.766c0-1.116-.363-2.667-.552-3.834h15.193c5.04 0 8.701 4.905 8.701 7.987v39.863h0z"
                fill="#6ABFFC" stroke="#1E1E1E" stroke-width="2.5" mask="url(#i)" />
        </g>
    </g>
    <defs>
        <filter id="filter0_d" x=".246" y=".671" width="285.056" height="244.159" filterUnits="userSpaceOnUse"
            color-interpolation-filters="sRGB">
            <feFlood flood-opacity="0" result="BackgroundImageFix" />
            <feColorMatrix in="SourceAlpha" values="0 0 0 0 0 0 0 0 0 0 0 0 0 0 0 0 0 0 127 0" />
            <feOffset dy="4" />
            <feGaussianBlur stdDeviation="2" />
            <feColorMatrix values="0 0 0 0 0 0 0 0 0 0 0 0 0 0 0 0 0 0 0.25 0" />
            <feBlend in2="BackgroundImageFix" result="effect1_dropShadow" />
            <feBlend in="SourceGraphic" in2="effect1_dropShadow" result="shape" />
        </filter>
        <filter id="filter1_d" x="65.718" y="25.317" width="184.991" height="184.991" filterUnits="userSpaceOnUse"
            color-interpolation-filters="sRGB">
            <feFlood flood-opacity="0" result="BackgroundImageFix" />
            <feColorMatrix in="SourceAlpha" values="0 0 0 0 0 0 0 0 0 0 0 0 0 0 0 0 0 0 127 0" />
            <feOffset dy="4" />
            <feGaussianBlur stdDeviation="2" />
            <feColorMatrix values="0 0 0 0 0 0 0 0 0 0 0 0 0 0 0 0 0 0 0.25 0" />
            <feBlend in2="BackgroundImageFix" result="effect1_dropShadow" />
            <feBlend in="SourceGraphic" in2="effect1_dropShadow" result="shape" />
        </filter>
        <linearGradient id="paint0_linear" x1="262.419" y1="86.936" x2="59.77" y2="130.867"
            gradientUnits="userSpaceOnUse">
            <stop stop-color="#6ABFFC" />
            <stop offset="1" stop-opacity="0" />
        </linearGradient>
        <clipPath id="clip0">
            <path fill="#fff" transform="translate(69.718 25.317)" d="M0 0h176.991v176.991H0z" />
        </clipPath>
    </defs>
</svg>