<svg
  id="a"
  width="270"
  height="232"
  viewBox="0 -24 270 278"
  fill="none"
  xmlns="http://www.w3.org/2000/svg"
>
  <g>
    <g filter="url(#filter0_d)">
      <mask id="c" fill="#fff">
        <path
          d="M49.935 50.85a3 3 0 011.638-2.674l91.833-46.76a3 3 0 012.637-.042L245.668 48.2a3 3 0 011.724 2.715v123.427c0 1.17-.68 2.233-1.743 2.723l-99.626 45.987a2.999 2.999 0 01-2.599-.041L51.593 177.09a3 3 0 01-1.658-2.683V50.85z"
        />
      </mask>
      <path
        d="M49.935 50.85a3 3 0 011.638-2.674l91.833-46.76a3 3 0 012.637-.042L245.668 48.2a3 3 0 011.724 2.715v123.427c0 1.17-.68 2.233-1.743 2.723l-99.626 45.987a2.999 2.999 0 01-2.599-.041L51.593 177.09a3 3 0 01-1.658-2.683V50.85z"
        stroke="url(#paint0_linear)"
        stroke-width="4"
        mask="url(#c)"
      />
    </g>
    <g filter="url(#filter1_d)">
      <mask id="d" fill="#fff">
        <path
          d="M128.566 49.78c-27.385 0-49.585 23.257-49.585 51.944 0 28.688 22.2 51.944 49.585 51.944 27.386 0 49.586-23.256 49.586-51.944-.03-28.675-22.213-51.912-49.586-51.944zm0 4.947c14.585.013 28.253 7.46 36.637 19.962l-5.903 6.184a9.005 9.005 0 00-4.76-1.41c-5.217 0-9.445 4.43-9.445 9.894a10.11 10.11 0 001.338 4.994l-15.461 16.196a8.803 8.803 0 00-9.534 0l-10.739-11.25a10.121 10.121 0 001.339-4.993c.006-5.454-4.209-9.88-9.414-9.887-4.306-.005-8.067 3.045-9.14 7.413h-8.76c4.47-21.627 22.719-37.07 43.842-37.102zm30.696 34.63c0 2.732-2.114 4.947-4.722 4.947-2.609 0-4.723-2.215-4.723-4.947 0-2.733 2.114-4.947 4.723-4.947 2.608 0 4.722 2.214 4.722 4.947zm-28.335 29.682c0 2.732-2.114 4.947-4.722 4.947-2.608 0-4.722-2.215-4.722-4.947s2.114-4.947 4.722-4.947c2.608 0 4.722 2.215 4.722 4.947zm-23.612-24.735c0 2.732-2.114 4.947-4.722 4.947-2.608 0-4.723-2.215-4.723-4.947 0-2.733 2.115-4.947 4.723-4.947 2.608 0 4.722 2.215 4.722 4.947zm43.049 48.513c-6.668 3.879-14.17 5.911-21.798 5.904-24.76.017-44.846-20.995-44.863-46.933a49.17 49.17 0 01.253-5.011h9.527c1.074 4.355 4.816 7.404 9.11 7.421a9.009 9.009 0 004.767-1.403l10.739 11.25a10.108 10.108 0 00-1.339 4.994c0 5.464 4.229 9.894 9.445 9.894s9.445-4.43 9.445-9.894a10.108 10.108 0 00-1.339-4.994l15.461-16.197a9.006 9.006 0 004.768 1.403c5.216 0 9.444-4.43 9.444-9.895a10.11 10.11 0 00-1.338-4.994l5.147-5.39c12.017 22.673 4.214 51.257-17.429 63.845z"
        />
      </mask>
      <path
        d="M128.566 49.78c-27.385 0-49.585 23.257-49.585 51.944 0 28.688 22.2 51.944 49.585 51.944 27.386 0 49.586-23.256 49.586-51.944-.03-28.675-22.213-51.912-49.586-51.944zm0 4.947c14.585.013 28.253 7.46 36.637 19.962l-5.903 6.184a9.005 9.005 0 00-4.76-1.41c-5.217 0-9.445 4.43-9.445 9.894a10.11 10.11 0 001.338 4.994l-15.461 16.196a8.803 8.803 0 00-9.534 0l-10.739-11.25a10.121 10.121 0 001.339-4.993c.006-5.454-4.209-9.88-9.414-9.887-4.306-.005-8.067 3.045-9.14 7.413h-8.76c4.47-21.627 22.719-37.07 43.842-37.102zm30.696 34.63c0 2.732-2.114 4.947-4.722 4.947-2.609 0-4.723-2.215-4.723-4.947 0-2.733 2.114-4.947 4.723-4.947 2.608 0 4.722 2.214 4.722 4.947zm-28.335 29.682c0 2.732-2.114 4.947-4.722 4.947-2.608 0-4.722-2.215-4.722-4.947s2.114-4.947 4.722-4.947c2.608 0 4.722 2.215 4.722 4.947zm-23.612-24.735c0 2.732-2.114 4.947-4.722 4.947-2.608 0-4.723-2.215-4.723-4.947 0-2.733 2.115-4.947 4.723-4.947 2.608 0 4.722 2.215 4.722 4.947zm43.049 48.513c-6.668 3.879-14.17 5.911-21.798 5.904-24.76.017-44.846-20.995-44.863-46.933a49.17 49.17 0 01.253-5.011h9.527c1.074 4.355 4.816 7.404 9.11 7.421a9.009 9.009 0 004.767-1.403l10.739 11.25a10.108 10.108 0 00-1.339 4.994c0 5.464 4.229 9.894 9.445 9.894s9.445-4.43 9.445-9.894a10.108 10.108 0 00-1.339-4.994l15.461-16.197a9.006 9.006 0 004.768 1.403c5.216 0 9.444-4.43 9.444-9.895a10.11 10.11 0 00-1.338-4.994l5.147-5.39c12.017 22.673 4.214 51.257-17.429 63.845z"
        fill="#6AEDFC"
        stroke="#1E1E1E"
        stroke-width="2"
        mask="url(#d)"
      />
      <mask id="e" fill="#fff">
        <path
          d="M187.597 64.621c4.293-.016 8.036-3.065 9.109-7.42h14.503v-4.947h-14.503c-1.073-4.355-4.816-7.404-9.109-7.42-5.217 0-9.445 4.43-9.445 9.893a10.11 10.11 0 001.339 4.995l-4.149 4.345c-19.85-27.091-56.907-32.196-82.769-11.401C66.712 73.46 61.84 112.28 81.69 139.37c18.738 25.573 53.085 31.776 78.914 14.252l7.126 7.466 3.339 3.497 19.008 19.912c4.834 5.064 12.672 5.064 17.506 0s4.834-13.275 0-18.339l-19.008-19.912-3.339-3.497-7.126-7.465c12.65-20.412 12.65-46.71 0-67.121l4.723-4.947a9.006 9.006 0 004.765 1.404zm0-14.84c2.608 0 4.722 2.214 4.722 4.946 0 2.733-2.114 4.948-4.722 4.948-2.609 0-4.723-2.215-4.723-4.948 0-2.732 2.115-4.947 4.723-4.947zm16.646 119.876c3.024 3.097 3.079 8.175.123 11.343-2.956 3.168-7.804 3.226-10.828.129a3.746 3.746 0 01-.123-.129l-19.008-19.911 10.828-11.344 19.008 19.912zm-22.346-23.41l-10.829 11.344-6.536-6.847c.333-.267.645-.561.973-.836a62.852 62.852 0 002.588-2.3c.257-.247.503-.495.756-.742a62.62 62.62 0 002.812-2.946c.236-.265.472-.522.708-.792.451-.524.89-1.058 1.325-1.6.296-.366.586-.736.871-1.111.26-.341.541-.667.796-1.016l6.536 6.846zm-9.157-11.489a57.914 57.914 0 01-2.321 3.181c-.236.299-.489.589-.732.883a54.958 54.958 0 01-3.261 3.634 50.66 50.66 0 01-2.446 2.344c-.281.248-.557.517-.843.767a55.153 55.153 0 01-3.037 2.432c-24.443 18.293-58.415 12.365-75.877-13.241-17.463-25.606-11.804-61.193 12.64-79.486 24.443-18.294 58.414-12.366 75.877 13.24 13.512 19.814 13.512 46.433 0 66.246z"
        />
      </mask>
      <path
        d="M187.597 64.621c4.293-.016 8.036-3.065 9.109-7.42h14.503v-4.947h-14.503c-1.073-4.355-4.816-7.404-9.109-7.42-5.217 0-9.445 4.43-9.445 9.893a10.11 10.11 0 001.339 4.995l-4.149 4.345c-19.85-27.091-56.907-32.196-82.769-11.401C66.712 73.46 61.84 112.28 81.69 139.37c18.738 25.573 53.085 31.776 78.914 14.252l7.126 7.466 3.339 3.497 19.008 19.912c4.834 5.064 12.672 5.064 17.506 0s4.834-13.275 0-18.339l-19.008-19.912-3.339-3.497-7.126-7.465c12.65-20.412 12.65-46.71 0-67.121l4.723-4.947a9.006 9.006 0 004.765 1.404zm0-14.84c2.608 0 4.722 2.214 4.722 4.946 0 2.733-2.114 4.948-4.722 4.948-2.609 0-4.723-2.215-4.723-4.948 0-2.732 2.115-4.947 4.723-4.947zm16.646 119.876c3.024 3.097 3.079 8.175.123 11.343-2.956 3.168-7.804 3.226-10.828.129a3.746 3.746 0 01-.123-.129l-19.008-19.911 10.828-11.344 19.008 19.912zm-22.346-23.41l-10.829 11.344-6.536-6.847c.333-.267.645-.561.973-.836a62.852 62.852 0 002.588-2.3c.257-.247.503-.495.756-.742a62.62 62.62 0 002.812-2.946c.236-.265.472-.522.708-.792.451-.524.89-1.058 1.325-1.6.296-.366.586-.736.871-1.111.26-.341.541-.667.796-1.016l6.536 6.846zm-9.157-11.489a57.914 57.914 0 01-2.321 3.181c-.236.299-.489.589-.732.883a54.958 54.958 0 01-3.261 3.634 50.66 50.66 0 01-2.446 2.344c-.281.248-.557.517-.843.767a55.153 55.153 0 01-3.037 2.432c-24.443 18.293-58.415 12.365-75.877-13.241-17.463-25.606-11.804-61.193 12.64-79.486 24.443-18.294 58.414-12.366 75.877 13.24 13.512 19.814 13.512 46.433 0 66.246z"
        fill="#6AEDFC"
        stroke="#1E1E1E"
        stroke-width="2"
        mask="url(#e)"
      />
    </g>
  </g>
  <defs>
    <filter
      id="filter0_d"
      x=".396"
      y="1.089"
      width="268.77"
      height="230.239"
      filterUnits="userSpaceOnUse"
      color-interpolation-filters="sRGB"
    >
      <feFlood flood-opacity="0" result="BackgroundImageFix" />
      <feColorMatrix
        in="SourceAlpha"
        values="0 0 0 0 0 0 0 0 0 0 0 0 0 0 0 0 0 0 127 0"
      />
      <feOffset dy="4" />
      <feGaussianBlur stdDeviation="2" />
      <feColorMatrix values="0 0 0 0 0 0 0 0 0 0 0 0 0 0 0 0 0 0 0.25 0" />
      <feBlend in2="BackgroundImageFix" result="effect1_dropShadow" />
      <feBlend in="SourceGraphic" in2="effect1_dropShadow" result="shape" />
    </filter>
    <filter
      id="filter1_d"
      x="65.482"
      y="39.878"
      width="149.726"
      height="156.418"
      filterUnits="userSpaceOnUse"
      color-interpolation-filters="sRGB"
    >
      <feFlood flood-opacity="0" result="BackgroundImageFix" />
      <feColorMatrix
        in="SourceAlpha"
        values="0 0 0 0 0 0 0 0 0 0 0 0 0 0 0 0 0 0 127 0"
      />
      <feOffset dy="4" />
      <feGaussianBlur stdDeviation="2" />
      <feColorMatrix values="0 0 0 0 0 0 0 0 0 0 0 0 0 0 0 0 0 0 0.25 0" />
      <feBlend in2="BackgroundImageFix" result="effect1_dropShadow" />
      <feBlend in="SourceGraphic" in2="effect1_dropShadow" result="shape" />
    </filter>
    <linearGradient
      id="paint0_linear"
      x1="247.392"
      y1="82.264"
      x2="56.655"
      y2="123.613"
      gradientUnits="userSpaceOnUse"
    >
      <stop stop-opacity="0" />
      <stop offset=".771" stop-color="#6AEDFC" />
    </linearGradient>
  </defs>
</svg>
