<svg id="a" width="150" height="129" viewBox="0 -15 150 150" fill="none" xmlns="http://www.w3.org/2000/svg">

    <g>

        <g filter="url(#filter0_d)">
            <mask id="c" fill="#fff">
                <path
                    d="M29.482 28.715a3 3 0 011.639-2.673L79.36 1.478a3 3 0 012.638-.041l52.4 24.63a3 3 0 011.724 2.714v64.9a3 3 0 01-1.743 2.724l-52.401 24.188a2.999 2.999 0 01-2.6-.041L31.14 96.43a3 3 0 01-1.658-2.683V28.715z" />
            </mask>
            <path
                d="M29.482 28.715a3 3 0 011.639-2.673L79.36 1.478a3 3 0 012.638-.041l52.4 24.63a3 3 0 011.724 2.714v64.9a3 3 0 01-1.743 2.724l-52.401 24.188a2.999 2.999 0 01-2.6-.041L31.14 96.43a3 3 0 01-1.658-2.683V28.715z"
                stroke="url(#paint0_linear)" stroke-width="4" mask="url(#c)" />
        </g>
        <g filter="url(#filter1_d)">
            <path
                d="M49.003 67.423c-.122 1.683-.745 3.008-1.87 3.975-1.116.967-2.592 1.45-4.425 1.45-2.005 0-3.584-.673-4.737-2.02-1.146-1.353-1.719-3.208-1.719-5.564v-.956c0-1.504.265-2.829.795-3.975.53-1.145 1.285-2.023 2.267-2.631.988-.616 2.134-.924 3.437-.924 1.805 0 3.258.483 4.361 1.45 1.103.967 1.74 2.324 1.912 4.071h-3.222c-.079-1.01-.362-1.74-.849-2.191-.48-.458-1.214-.688-2.202-.688-1.074 0-1.88.387-2.417 1.16-.53.767-.802 1.96-.816 3.578v1.181c0 1.69.254 2.926.762 3.706.516.781 1.325 1.171 2.428 1.171.995 0 1.737-.225 2.224-.676.494-.459.777-1.164.848-2.117h3.223zm16.936 5.21h-3.223V65.93h-6.284v6.703h-3.223v-15.64h3.223v6.338h6.284v-6.338h3.223v15.64zm13.938-3.222h-5.65l-1.074 3.222h-3.427l5.822-15.64h2.986l5.855 15.64h-3.427l-1.085-3.222zm-4.78-2.61h3.91l-1.966-5.855-1.944 5.854zm25.562 5.832h-3.223l-6.273-10.29v10.29H87.94v-15.64h3.223l6.284 10.312V56.993h3.212v15.64zm14.314-6.778h-6.187v4.19h7.262v2.588h-10.485v-15.64h10.463v2.61h-7.24v3.728h6.187v2.524zm8.278 4.19h6.843v2.588h-10.066v-15.64h3.223v13.051z"
                fill="#1E1E1E" />
            <path
                d="M49.003 67.423l.748.055.058-.805h-.806v.75zm-1.87 3.975l-.488-.569-.002.002.49.567zm-9.162-.57l-.573.485.003.004.57-.488zm-.924-10.495l-.68-.314.68.315zm2.267-2.631l.395.637h.001l-.397-.637zm7.798.526l-.494.564.494-.564zm1.912 4.071v.75h.828l-.081-.823-.747.073zm-3.222 0l-.748.059.054.691h.694v-.75zm-.849-2.191l-.518.542.008.008.51-.55zm-4.619.473l-.616-.428v.001l.616.427zm-.816 3.577l-.75-.007v.007h.75zm.762 4.887l-.628.41.002.004.626-.414zm4.652.495l.51.55-.51-.55zm.848-2.117v-.75h-.696l-.052.694.748.056zm2.475-.054c-.11 1.514-.659 2.642-1.61 3.46l.978 1.138c1.297-1.116 1.994-2.637 2.128-4.49l-1.496-.108zm-1.612 3.462c-.95.822-2.237 1.267-3.935 1.267v1.5c1.969 0 3.633-.522 4.917-1.633l-.982-1.134zm-3.935 1.267c-1.818 0-3.177-.6-4.168-1.757l-1.139.976c1.315 1.535 3.115 2.281 5.307 2.281v-1.5zm-4.165-1.754c-.998-1.179-1.541-2.842-1.541-5.08h-1.5c0 2.475.603 4.521 1.896 6.05l1.145-.97zm-1.541-5.08v-.956h-1.5v.956h1.5zm0-.956c0-1.416.25-2.63.726-3.66l-1.362-.63c-.583 1.262-.864 2.698-.864 4.29h1.5zm.726-3.66c.474-1.025 1.136-1.785 1.98-2.309l-.79-1.275c-1.117.694-1.966 1.689-2.552 2.955l1.362.63zm1.982-2.31c.856-.533 1.86-.81 3.041-.81v-1.5c-1.426 0-2.713.339-3.834 1.037l.793 1.273zm3.041-.81c1.666 0 2.93.443 3.867 1.264l.989-1.128c-1.27-1.113-2.913-1.636-4.856-1.636v1.5zm3.867 1.264c.932.817 1.503 1.983 1.66 3.58l1.493-.146c-.187-1.897-.89-3.446-2.164-4.562l-.99 1.128zm2.406 2.757h-3.222v1.5h3.222v-1.5zm-2.474.692c-.086-1.102-.404-2.05-1.087-2.683l-1.02 1.1c.292.27.54.782.611 1.7l1.495-.117zm-1.079-2.675c-.674-.645-1.632-.896-2.72-.896v1.5c.888 0 1.399.208 1.684.48l1.036-1.084zm-2.72-.896c-1.28 0-2.334.477-3.033 1.483l1.232.855c.376-.54.932-.838 1.801-.838v-1.5zm-3.034 1.484c-.658.951-.935 2.326-.95 3.997l1.5.013c.014-1.566.282-2.575.684-3.157l-1.234-.853zm-.95 4.004v1.181h1.5v-1.181h-1.5zm0 1.181c0 1.734.255 3.15.885 4.116l1.257-.819c-.388-.595-.641-1.65-.641-3.297h-1.5zm.887 4.12c.681 1.03 1.751 1.507 3.054 1.507v-1.5c-.903 0-1.452-.304-1.802-.834l-1.252.827zm3.054 1.507c1.092 0 2.052-.245 2.733-.876l-1.02-1.1c-.292.27-.814.476-1.713.476v1.5zm2.734-.877c.681-.632 1.006-1.547 1.086-2.61l-1.496-.112c-.063.843-.304 1.338-.61 1.623l1.02 1.1zm.338-1.916h3.223v-1.5H45.78v1.5zm20.159 4.46v.75h.75v-.75h-.75zm-3.223 0h-.75v.75h.75v-.75zm0-6.703h.75v-.75h-.75v.75zm-6.284 0v-.75h-.75v.75h.75zm0 6.703v.75h.75v-.75h-.75zm-3.223 0h-.75v.75h.75v-.75zm0-15.64v-.75h-.75v.75h.75zm3.223 0h.75v-.75h-.75v.75zm0 6.338h-.75v.75h.75v-.75zm6.284 0v.75h.75v-.75h-.75zm0-6.338v-.75h-.75v.75h.75zm3.223 0h.75v-.75h-.75v.75zm0 14.89h-3.223v1.5h3.223v-1.5zm-2.473.75V65.93h-1.5v6.703h1.5zm-.75-7.453h-6.284v1.5h6.284v-1.5zm-7.034.75v6.703h1.5V65.93h-1.5zm.75 5.953h-3.223v1.5h3.223v-1.5zm-2.473.75v-15.64h-1.5v15.64h1.5zm-.75-14.89h3.223v-1.5h-3.223v1.5zm2.473-.75v6.338h1.5v-6.338h-1.5zm.75 7.088h6.284v-1.5h-6.284v1.5zm7.034-.75v-6.338h-1.5v6.338h1.5zm-.75-5.588h3.223v-1.5h-3.223v1.5zm2.473-.75v15.64h1.5v-15.64h-1.5zM79.877 69.41l.711-.24-.172-.51h-.539v.75zm-5.65 0v-.75h-.54l-.172.513.712.237zm-1.074 3.222v.75h.54l.171-.512-.711-.238zm-3.427 0l-.703-.261-.377 1.011h1.08v-.75zm5.822-15.64v-.75h-.52l-.183.488.703.262zm2.986 0l.703-.263-.182-.487h-.52v.75zm5.855 15.64v.75h1.082l-.38-1.013-.702.263zm-3.427 0l-.71.24.171.51h.54v-.75zM75.097 66.8l-.712-.236-.327.986h1.039v-.75zm3.91 0v.75h1.043l-.332-.988-.71.238zm-1.966-5.854l.711-.239-.715-2.129-.707 2.131.711.237zm2.836 7.715h-5.65v1.5h5.65v-1.5zm-6.362.513l-1.074 3.222 1.423.475 1.074-3.223-1.423-.474zm-.362 2.71h-3.427v1.5h3.427v-1.5zm-2.724 1.01l5.822-15.64-1.406-.523-5.822 15.64 1.406.524zm5.12-15.151h2.985v-1.5h-2.986v1.5zm2.283-.487l5.855 15.64 1.404-.526-5.854-15.64-1.405.526zm6.557 14.627h-3.427v1.5h3.427v-1.5zm-2.716.511l-1.085-3.223-1.421.479 1.084 3.223 1.422-.479zm-6.576-4.844h3.91v-1.5h-3.91v1.5zm4.621-.988l-1.966-5.855-1.422.477 1.966 5.855 1.422-.477zm-3.388-5.853l-1.945 5.855 1.424.473 1.944-5.855-1.423-.473zm24.329 11.924v.75h.75v-.75h-.75zm-3.223 0l-.64.39.219.36h.421v-.75zm-6.273-10.29l.64-.391-1.39-2.28v2.67h.75zm0 10.29v.75h.75v-.75h-.75zm-3.223 0h-.75v.75h.75v-.75zm0-15.64v-.75h-.75v.75h.75zm3.223 0l.64-.39-.22-.36h-.42v.75zm6.284 10.312l-.64.39 1.39 2.282v-2.672h-.75zm0-10.312v-.75h-.75v.75h.75zm3.212 0h.75v-.75h-.75v.75zm0 14.89h-3.223v1.5h3.223v-1.5zm-2.583.36l-6.273-10.291-1.28.78 6.273 10.292 1.28-.781zm-7.663-9.9v10.29h1.5v-10.29h-1.5zm.75 9.54H87.94v1.5h3.223v-1.5zm-2.473.75v-15.64h-1.5v15.64h1.5zm-.75-14.89h3.223v-1.5H87.94v1.5zm2.582-.36l6.284 10.312 1.281-.78-6.284-10.313-1.28.781zm7.675 9.922V56.993h-1.5v10.312h1.5zm-.75-9.562h3.212v-1.5h-3.212v1.5zm2.462-.75v15.64h1.5v-15.64h-1.5zm15.064 8.862v.75h.75v-.75h-.75zm-6.187 0v-.75h-.75v.75h.75zm0 4.19h-.75v.75h.75v-.75zm7.262 0h.75v-.75h-.75v.75zm0 2.588v.75h.75v-.75h-.75zm-10.485 0h-.75v.75h.75v-.75zm0-15.64v-.75h-.75v.75h.75zm10.463 0h.75v-.75h-.75v.75zm0 2.61v.75h.75v-.75h-.75zm-7.24 0v-.75h-.75v.75h.75zm0 3.728h-.75v.75h.75v-.75zm6.187 0h.75v-.75h-.75v.75zm0 1.774h-6.187v1.5h6.187v-1.5zm-6.937.75v4.19h1.5v-4.19h-1.5zm.75 4.94h7.262v-1.5h-7.262v1.5zm6.512-.75v2.588h1.5v-2.589h-1.5zm.75 1.838h-10.485v1.5h10.485v-1.5zm-9.735.75v-15.64h-1.5v15.64h1.5zm-.75-14.89h10.463v-1.5h-10.463v1.5zm9.713-.75v2.61h1.5v-2.61h-1.5zm.75 1.86h-7.24v1.5h7.24v-1.5zm-7.99.75v3.728h1.5v-3.728h-1.5zm.75 4.478h6.187v-1.5h-6.187v1.5zm5.437-.75v2.524h1.5v-2.524h-1.5zm9.028 6.713h-.75v.75h.75v-.75zm6.843 0h.75v-.75h-.75v.75zm0 2.59v.75h.75v-.75h-.75zm-10.066 0h-.75v.75h.75v-.75zm0-15.641v-.75h-.75v.75h.75zm3.223 0h.75v-.75h-.75v.75zm0 13.801h6.843v-1.5h-6.843v1.5zm6.093-.75v2.59h1.5v-2.59h-1.5zm.75 1.84h-10.066v1.5h10.066v-1.5zm-9.316.75V56.992h-1.5v15.64h1.5zm-.75-14.891h3.223v-1.5h-3.223v1.5zm2.473-.75v13.051h1.5V56.993h-1.5z"
                fill="#F5BF00" />
        </g>
    </g>
    <defs>
        <filter id="filter0_d" x=".887" y="1.152" width="148.834" height="127.718" filterUnits="userSpaceOnUse"
            color-interpolation-filters="sRGB">
            <feFlood flood-opacity="0" result="BackgroundImageFix" />
            <feColorMatrix in="SourceAlpha" values="0 0 0 0 0 0 0 0 0 0 0 0 0 0 0 0 0 0 127 0" />
            <feOffset dy="4" />
            <feGaussianBlur stdDeviation="2" />
            <feColorMatrix values="0 0 0 0 0 0 0 0 0 0 0 0 0 0 0 0 0 0 0.25 0" />
            <feBlend in2="BackgroundImageFix" result="effect1_dropShadow" />
            <feBlend in="SourceGraphic" in2="effect1_dropShadow" result="shape" />
        </filter>
        <filter id="filter1_d" x="31.502" y="56.028" width="103.342" height="25.57" filterUnits="userSpaceOnUse"
            color-interpolation-filters="sRGB">
            <feFlood flood-opacity="0" result="BackgroundImageFix" />
            <feColorMatrix in="SourceAlpha" values="0 0 0 0 0 0 0 0 0 0 0 0 0 0 0 0 0 0 127 0" />
            <feOffset dy="4" />
            <feGaussianBlur stdDeviation="2" />
            <feColorMatrix values="0 0 0 0 0 0 0 0 0 0 0 0 0 0 0 0 0 0 0.25 0" />
            <feBlend in2="BackgroundImageFix" result="effect1_dropShadow" />
            <feBlend in="SourceGraphic" in2="effect1_dropShadow" result="shape" />
        </filter>
        <linearGradient id="paint0_linear" x1="136.123" y1="44.836" x2="33.111" y2="67.167"
            gradientUnits="userSpaceOnUse">
            <stop stop-color="#F5BF00" />
            <stop offset="1" stop-opacity="0" />
        </linearGradient>
    </defs>
</svg>