<svg id="a" width="181" height="155" viewBox="0 -30 181 191" fill="none" xmlns="http://www.w3.org/2000/svg">

    <g>

        <g filter="url(#filter0_d)">
            <mask id="c" fill="#fff">
                <path d="M137.933 112.501H48.934v2.967h88.999v-2.967z" />
            </mask>
            <path d="M137.933 112.501H48.934v2.967h88.999v-2.967z" fill="#6AEDFC" stroke="#1E1E1E" stroke-width="2"
                mask="url(#c)" />
            <mask id="d" fill="#fff">
                <path
                    d="M134.81 39.155l-5.933-11.866a1.483 1.483 0 00-1.989-.665h-.001l-11.867 5.933a1.483 1.483 0 101.326 2.656l8.594-4.295-2.345 6.696C112.288 66.97 85.738 87.566 54.741 90.251l.252 2.967c32.165-2.787 59.714-24.16 70.404-54.625l2.394-6.84 4.364 8.728a1.484 1.484 0 002.655-1.326z" />
            </mask>
            <path
                d="M134.81 39.155l-5.933-11.866a1.483 1.483 0 00-1.989-.665h-.001l-11.867 5.933a1.483 1.483 0 101.326 2.656l8.594-4.295-2.345 6.696C112.288 66.97 85.738 87.566 54.741 90.251l.252 2.967c32.165-2.787 59.714-24.16 70.404-54.625l2.394-6.84 4.364 8.728a1.484 1.484 0 002.655-1.326z"
                fill="#6AEDFC" stroke="#1E1E1E" stroke-width="2" mask="url(#d)" />
            <mask id="e" fill="#fff">
                <path
                    d="M66.734 97.668H56.35c-.82 0-1.484.664-1.484 1.483v8.9c0 .819.664 1.483 1.483 1.483h10.384c.819 0 1.483-.664 1.483-1.483v-8.9c0-.82-.664-1.483-1.483-1.483zm-1.484 8.9h-7.416v-5.934h7.416v5.934z" />
            </mask>
            <path
                d="M66.734 97.668H56.35c-.82 0-1.484.664-1.484 1.483v8.9c0 .819.664 1.483 1.483 1.483h10.384c.819 0 1.483-.664 1.483-1.483v-8.9c0-.82-.664-1.483-1.483-1.483zm-1.484 8.9h-7.416v-5.934h7.416v5.934z"
                fill="#6AEDFC" stroke="#1E1E1E" stroke-width="2" mask="url(#e)" />
            <mask id="f" fill="#fff">
                <path
                    d="M83.05 93.218H72.667c-.82 0-1.483.664-1.483 1.483v13.35c0 .819.664 1.483 1.483 1.483H83.05c.82 0 1.484-.664 1.484-1.483v-13.35c0-.82-.665-1.483-1.484-1.483zm-1.483 13.35H74.15V96.184h7.417v10.384z" />
            </mask>
            <path
                d="M83.05 93.218H72.667c-.82 0-1.483.664-1.483 1.483v13.35c0 .819.664 1.483 1.483 1.483H83.05c.82 0 1.484-.664 1.484-1.483v-13.35c0-.82-.665-1.483-1.484-1.483zm-1.483 13.35H74.15V96.184h7.417v10.384z"
                fill="#6AEDFC" stroke="#1E1E1E" stroke-width="2" mask="url(#f)" />
            <mask id="g" fill="#fff">
                <path
                    d="M99.367 85.801H88.984c-.82 0-1.484.664-1.484 1.484v20.766c0 .819.665 1.483 1.484 1.483h10.383c.819 0 1.483-.664 1.483-1.483V87.285c0-.82-.664-1.484-1.483-1.484zm-1.483 20.767h-7.417v-17.8h7.417v17.8z" />
            </mask>
            <path
                d="M99.367 85.801H88.984c-.82 0-1.484.664-1.484 1.484v20.766c0 .819.665 1.483 1.484 1.483h10.383c.819 0 1.483-.664 1.483-1.483V87.285c0-.82-.664-1.484-1.483-1.484zm-1.483 20.767h-7.417v-17.8h7.417v17.8z"
                fill="#6AEDFC" stroke="#1E1E1E" stroke-width="2" mask="url(#g)" />
            <mask id="h" fill="#fff">
                <path
                    d="M115.684 75.418H105.3c-.819 0-1.483.664-1.483 1.483v31.15c0 .819.664 1.483 1.483 1.483h10.384c.819 0 1.483-.664 1.483-1.483v-31.15c0-.819-.664-1.483-1.483-1.483zm-1.484 31.15h-7.416V78.385h7.416v28.183z" />
            </mask>
            <path
                d="M115.684 75.418H105.3c-.819 0-1.483.664-1.483 1.483v31.15c0 .819.664 1.483 1.483 1.483h10.384c.819 0 1.483-.664 1.483-1.483v-31.15c0-.819-.664-1.483-1.483-1.483zm-1.484 31.15h-7.416V78.385h7.416v28.183z"
                fill="#6AEDFC" stroke="#1E1E1E" stroke-width="2" mask="url(#h)" />
            <mask id="i" fill="#fff">
                <path
                    d="M132 54.652h-10.384c-.819 0-1.483.664-1.483 1.483v51.916c0 .819.664 1.483 1.483 1.483H132c.819 0 1.483-.664 1.483-1.483V56.135c0-.82-.664-1.483-1.483-1.483zm-1.484 51.916H123.1v-48.95h7.416v48.95z" />
            </mask>
            <path
                d="M132 54.652h-10.384c-.819 0-1.483.664-1.483 1.483v51.916c0 .819.664 1.483 1.483 1.483H132c.819 0 1.483-.664 1.483-1.483V56.135c0-.82-.664-1.483-1.483-1.483zm-1.484 51.916H123.1v-48.95h7.416v48.95z"
                fill="#6AEDFC" stroke="#1E1E1E" stroke-width="2" mask="url(#i)" />
        </g>
        <g filter="url(#filter1_d)">
            <mask id="j" fill="#fff">
                <path
                    d="M34.661 33.946a3 3 0 011.639-2.673l59.428-30.26A3 3 0 0198.365.97l64.52 30.326a3 3 0 011.724 2.715v79.92a3 3 0 01-1.743 2.724l-64.52 29.782a3.002 3.002 0 01-2.6-.04L36.32 116.681a3 3 0 01-1.658-2.683V33.946z" />
            </mask>
            <path
                d="M34.661 33.946a3 3 0 011.639-2.673l59.428-30.26A3 3 0 0198.365.97l64.52 30.326a3 3 0 011.724 2.715v79.92a3 3 0 01-1.743 2.724l-64.52 29.782a3.002 3.002 0 01-2.6-.04L36.32 116.681a3 3 0 01-1.658-2.683V33.946z"
                stroke="url(#paint0_linear)" stroke-width="4" mask="url(#j)" />
        </g>
    </g>
    <defs>
        <filter id="filter0_d" x="44.934" y="26.468" width="97" height="97" filterUnits="userSpaceOnUse"
            color-interpolation-filters="sRGB">
            <feFlood flood-opacity="0" result="BackgroundImageFix" />
            <feColorMatrix in="SourceAlpha" values="0 0 0 0 0 0 0 0 0 0 0 0 0 0 0 0 0 0 127 0" />
            <feOffset dy="4" />
            <feGaussianBlur stdDeviation="2" />
            <feColorMatrix values="0 0 0 0 0 0 0 0 0 0 0 0 0 0 0 0 0 0 0.25 0" />
            <feBlend in2="BackgroundImageFix" result="effect1_dropShadow" />
            <feBlend in="SourceGraphic" in2="effect1_dropShadow" result="shape" />
        </filter>
        <filter id="filter1_d" x=".691" y=".686" width="179.615" height="154.029" filterUnits="userSpaceOnUse"
            color-interpolation-filters="sRGB">
            <feFlood flood-opacity="0" result="BackgroundImageFix" />
            <feColorMatrix in="SourceAlpha" values="0 0 0 0 0 0 0 0 0 0 0 0 0 0 0 0 0 0 127 0" />
            <feOffset dy="4" />
            <feGaussianBlur stdDeviation="2" />
            <feColorMatrix values="0 0 0 0 0 0 0 0 0 0 0 0 0 0 0 0 0 0 0.25 0" />
            <feBlend in2="BackgroundImageFix" result="effect1_dropShadow" />
            <feBlend in="SourceGraphic" in2="effect1_dropShadow" result="shape" />
        </filter>
        <linearGradient id="paint0_linear" x1="164.609" y1="53.991" x2="39.084" y2="81.203"
            gradientUnits="userSpaceOnUse">
            <stop stop-opacity="0" />
            <stop offset=".771" stop-color="#6AEDFC" />
        </linearGradient>
        <clipPath id="clip0">
            <path fill="#fff" transform="translate(48.934 26.468)" d="M0 0h89v89H0z" />
        </clipPath>
    </defs>
</svg>