<svg id="a" width="237" height="207" viewBox="0 -20 237 257" fill="none" xmlns="http://www.w3.org/2000/svg">

    <g>

        <g filter="url(#filter0_d)">
            <mask id="c" fill="#fff">
                <path
                    d="M44.265 45.15a3 3 0 011.624-2.666l80.117-41.347a3 3 0 012.666-.043l86.932 41.413a3 3 0 011.71 2.709v109.226a3 3 0 01-1.729 2.718l-86.932 40.67a3.001 3.001 0 01-2.628-.041l-80.116-40.605a3 3 0 01-1.644-2.676V45.15z" />
            </mask>
            <path
                d="M44.265 45.15a3 3 0 011.624-2.666l80.117-41.347a3 3 0 012.666-.043l86.932 41.413a3 3 0 011.71 2.709v109.226a3 3 0 01-1.729 2.718l-86.932 40.67a3.001 3.001 0 01-2.628-.041l-80.116-40.605a3 3 0 01-1.644-2.676V45.15z"
                stroke="url(#paint0_linear)" stroke-width="4" mask="url(#c)" />
        </g>
        <g filter="url(#filter1_d)">
            <mask id="d" fill="#fff">
                <path
                    d="M178.202 61.545h-35.373a15.488 15.488 0 00-1.729-5.163l29.529-9.744c1.168-.385 1.818-1.695 1.452-2.924-.366-1.23-1.609-1.916-2.777-1.53l-31.243 10.31c-2.517-2.306-5.801-3.707-9.392-3.707-3.591 0-6.874 1.4-9.392 3.707l-31.243-10.31c-1.168-.385-2.411.3-2.777 1.53-.366 1.23.284 2.54 1.452 2.924l29.529 9.744a15.512 15.512 0 00-1.73 5.163h-35.37c-3.678 0-6.67 3.151-6.67 7.023v78.998c0 3.872 2.992 7.023 6.67 7.023h1.068v4.512c0 1.289.993 2.334 2.216 2.334 1.225 0 2.217-1.045 2.217-2.334v-4.512H172.7v4.512c0 1.289.992 2.334 2.217 2.334 1.224 0 2.216-1.045 2.216-2.334v-4.512h1.069c3.677 0 6.669-3.151 6.669-7.023V68.568c.001-3.872-2.991-7.023-6.669-7.023zm-49.533-8.09c4.696 0 8.637 3.462 9.646 8.09h-19.292c1.009-4.627 4.949-8.09 9.646-8.09zm51.77 94.111c0 1.299-1.004 2.355-2.237 2.355H79.137c-1.233 0-2.237-1.056-2.237-2.355V68.568c0-1.298 1.004-2.355 2.237-2.355h99.065c1.233 0 2.237 1.057 2.237 2.356v78.997z" />
            </mask>
            <path
                d="M178.202 61.545h-35.373a15.488 15.488 0 00-1.729-5.163l29.529-9.744c1.168-.385 1.818-1.695 1.452-2.924-.366-1.23-1.609-1.916-2.777-1.53l-31.243 10.31c-2.517-2.306-5.801-3.707-9.392-3.707-3.591 0-6.874 1.4-9.392 3.707l-31.243-10.31c-1.168-.385-2.411.3-2.777 1.53-.366 1.23.284 2.54 1.452 2.924l29.529 9.744a15.512 15.512 0 00-1.73 5.163h-35.37c-3.678 0-6.67 3.151-6.67 7.023v78.998c0 3.872 2.992 7.023 6.67 7.023h1.068v4.512c0 1.289.993 2.334 2.216 2.334 1.225 0 2.217-1.045 2.217-2.334v-4.512H172.7v4.512c0 1.289.992 2.334 2.217 2.334 1.224 0 2.216-1.045 2.216-2.334v-4.512h1.069c3.677 0 6.669-3.151 6.669-7.023V68.568c.001-3.872-2.991-7.023-6.669-7.023zm-49.533-8.09c4.696 0 8.637 3.462 9.646 8.09h-19.292c1.009-4.627 4.949-8.09 9.646-8.09zm51.77 94.111c0 1.299-1.004 2.355-2.237 2.355H79.137c-1.233 0-2.237-1.056-2.237-2.355V68.568c0-1.298 1.004-2.355 2.237-2.355h99.065c1.233 0 2.237 1.057 2.237 2.356v78.997h0z"
                fill="#A16AFC" stroke="#1E1E1E" stroke-width="3" mask="url(#d)" />
            <mask id="e" fill="#fff">
                <path
                    d="M174.53 74.343c-.17-1.049-.992-1.843-1.999-1.932a498.421 498.421 0 00-87.722 0c-1.007.089-1.829.883-2 1.931a203.042 203.042 0 000 65.272c.171 1.048.993 1.842 2 1.932a497.437 497.437 0 0043.861 1.933c14.654 0 29.309-.644 43.861-1.933 1.006-.09 1.829-.884 1.999-1.932a203.042 203.042 0 000-65.272zm-4.087 62.7a494.226 494.226 0 01-83.545 0 198.096 198.096 0 010-60.13 494.31 494.31 0 0183.545 0 198.141 198.141 0 010 60.13z" />
            </mask>
            <path
                d="M174.53 74.343c-.17-1.049-.992-1.843-1.999-1.932a498.421 498.421 0 00-87.722 0c-1.007.089-1.829.883-2 1.931a203.042 203.042 0 000 65.272c.171 1.048.993 1.842 2 1.932a497.437 497.437 0 0043.861 1.933c14.654 0 29.309-.644 43.861-1.933 1.006-.09 1.829-.884 1.999-1.932a203.042 203.042 0 000-65.272zm-4.087 62.7a494.226 494.226 0 01-83.545 0 198.096 198.096 0 010-60.13 494.31 494.31 0 0183.545 0 198.141 198.141 0 010 60.13z"
                fill="#A16AFC" stroke="#1E1E1E" stroke-width="3" mask="url(#e)" />
            <mask id="f" fill="#fff">
                <path
                    d="M166.883 94.57c-1.222.071-2.158 1.173-2.09 2.46.43 8.187.326 16.486-.312 24.666-.1 1.285.808 2.412 2.028 2.517.061.005.123.008.183.008 1.142 0 2.112-.924 2.207-2.144a195 195 0 00.319-25.306c-.068-1.287-1.108-2.27-2.335-2.2z" />
            </mask>
            <path
                d="M166.883 94.57c-1.222.071-2.158 1.173-2.09 2.46.43 8.187.326 16.486-.312 24.666-.1 1.285.808 2.412 2.028 2.517.061.005.123.008.183.008 1.142 0 2.112-.924 2.207-2.144a195 195 0 00.319-25.306c-.068-1.287-1.108-2.27-2.335-2.2z"
                fill="#A16AFC" stroke="#1E1E1E" stroke-width="3" mask="url(#f)" />
            <mask id="g" fill="#fff">
                <path
                    d="M166.463 91.755c.071 0 .143-.004.215-.011 1.219-.124 2.111-1.265 1.993-2.548a197.75 197.75 0 00-.797-7.209c-.166-1.277-1.287-2.17-2.496-1.997-1.212.174-2.062 1.35-1.896 2.628.301 2.33.563 4.695.777 7.027.111 1.207 1.075 2.11 2.204 2.11z" />
            </mask>
            <path
                d="M166.463 91.755c.071 0 .143-.004.215-.011 1.219-.124 2.111-1.265 1.993-2.548a197.75 197.75 0 00-.797-7.209c-.166-1.277-1.287-2.17-2.496-1.997-1.212.174-2.062 1.35-1.896 2.628.301 2.33.563 4.695.777 7.027.111 1.207 1.075 2.11 2.204 2.11z"
                fill="#A16AFC" stroke="#1E1E1E" stroke-width="3" mask="url(#g)" />
            <mask id="h" fill="#fff">
                <path
                    d="M177.68 143.47c-1.7-1.179-3.945.562-3.35 2.617.269.933 1.085 1.603 2.009 1.653.966.051 1.868-.589 2.196-1.545.339-.988-.02-2.146-.855-2.725z" />
            </mask>
            <path
                d="M177.68 143.47c-1.7-1.179-3.945.562-3.35 2.617.269.933 1.085 1.603 2.009 1.653.966.051 1.868-.589 2.196-1.545.339-.988-.02-2.146-.855-2.725z"
                fill="#A16AFC" stroke="#000" stroke-width="2" mask="url(#h)" />
        </g>
    </g>
    <defs>
        <filter id="filter0_d" x=".355" y=".802" width="236.536" height="205.31" filterUnits="userSpaceOnUse"
            color-interpolation-filters="sRGB">
            <feFlood flood-opacity="0" result="BackgroundImageFix" />
            <feColorMatrix in="SourceAlpha" values="0 0 0 0 0 0 0 0 0 0 0 0 0 0 0 0 0 0 127 0" />
            <feOffset dy="4" />
            <feGaussianBlur stdDeviation="2" />
            <feColorMatrix values="0 0 0 0 0 0 0 0 0 0 0 0 0 0 0 0 0 0 0.25 0" />
            <feBlend in2="BackgroundImageFix" result="effect1_dropShadow" />
            <feBlend in="SourceGraphic" in2="effect1_dropShadow" result="shape" />
        </filter>
        <filter id="filter1_d" x="68.468" y="42.077" width="120.403" height="127.359" filterUnits="userSpaceOnUse"
            color-interpolation-filters="sRGB">
            <feFlood flood-opacity="0" result="BackgroundImageFix" />
            <feColorMatrix in="SourceAlpha" values="0 0 0 0 0 0 0 0 0 0 0 0 0 0 0 0 0 0 127 0" />
            <feOffset dy="4" />
            <feGaussianBlur stdDeviation="2" />
            <feColorMatrix values="0 0 0 0 0 0 0 0 0 0 0 0 0 0 0 0 0 0 0.25 0" />
            <feBlend in2="BackgroundImageFix" result="effect1_dropShadow" />
            <feBlend in="SourceGraphic" in2="effect1_dropShadow" result="shape" />
        </filter>
        <linearGradient id="paint0_linear" x1="217.314" y1="72.859" x2="49.956" y2="108.655"
            gradientUnits="userSpaceOnUse">
            <stop stop-opacity="0" />
            <stop offset=".771" stop-color="#A16AFC" />
        </linearGradient>
    </defs>
</svg>