<svg id="a" width="261" height="224" viewBox="0 -34 261 273" fill="none" xmlns="http://www.w3.org/2000/svg">

    <g>

        <g filter="url(#filter0_d)">
            <mask id="c" fill="#fff">
                <path
                    d="M48.117 48.966a3 3 0 011.639-2.673L138.61 1.048a3 3 0 012.637-.042l96.4 45.31a3 3 0 011.724 2.716v119.429a3 3 0 01-1.743 2.724l-96.4 44.497a3.002 3.002 0 01-2.599-.04l-88.855-44.433a3 3 0 01-1.658-2.683V48.966z" />
            </mask>
            <path
                d="M48.117 48.966a3 3 0 011.639-2.673L138.61 1.048a3 3 0 012.637-.042l96.4 45.31a3 3 0 011.724 2.716v119.429a3 3 0 01-1.743 2.724l-96.4 44.497a3.002 3.002 0 01-2.599-.04l-88.855-44.433a3 3 0 01-1.658-2.683V48.966z"
                stroke="url(#paint0_linear)" stroke-width="4" mask="url(#c)" />
        </g>
        <g clip-path="url(#clip0)" filter="url(#filter1_d)">
            <mask id="d" fill="#fff">
                <path
                    d="M162.692 132.094a34.488 34.488 0 00-3.918-4.352 57.73 57.73 0 00-4.286-3.659 97.148 97.148 0 01-3.918-3.167c-1.182-1.01-2.142-2.066-2.879-3.164-.737-1.099-1.105-2.22-1.105-3.363 0-1.583.514-3.066 1.54-4.451 1.027-1.385 2.277-2.725 3.75-4.023a72.81 72.81 0 004.421-4.253c1.472-1.54 2.722-3.572 3.749-6.1 1.026-2.528 1.54-5.418 1.54-8.671 0-3.87-.871-7.584-2.612-11.145-1.742-3.56-4.197-6.33-7.367-8.309h9.04l9.041-5.21h-29.265c-4.152 0-8.327.44-12.522 1.322-6.206 1.363-11.429 4.473-15.671 9.33-4.241 4.858-6.362 10.364-6.362 16.519 0 6.506 2.378 11.914 7.132 16.221 4.755 4.307 10.459 6.462 17.111 6.462 1.339 0 2.902-.11 4.688-.33a14.2 14.2 0 01-.468 1.418c-.224.593-.403 1.067-.537 1.418a7.174 7.174 0 00-.334 1.285 8.837 8.837 0 00-.134 1.55c0 2.902 1.428 6.177 4.286 9.826a80.205 80.205 0 00-10.046.891c-3.303.506-6.763 1.297-10.38 2.374-3.616 1.077-6.854 2.638-9.71 4.682-2.858 2.045-5.001 4.473-6.43 7.287-1.652 3.253-2.478 6.22-2.478 8.902 0 2.945.67 5.616 2.009 8.012 1.339 2.395 3.058 4.352 5.156 5.868 2.099 1.518 4.521 2.791 7.267 3.825 2.745 1.033 5.469 1.769 8.17 2.209 2.701.44 5.369.659 8.003.659 11.965 0 21.342-2.879 28.128-8.637 6.251-5.364 9.376-11.563 9.376-18.597 0-2.507-.368-4.846-1.105-7.023-.737-2.179-1.696-4.045-2.88-5.606zm-25.818-23.968c-2.277 0-4.442-.572-6.496-1.716a17.159 17.159 0 01-5.224-4.451c-1.428-1.824-2.679-3.88-3.75-6.166-1.072-2.285-1.864-4.57-2.378-6.857-.513-2.286-.77-4.462-.77-6.529 0-4.22 1.139-7.846 3.416-10.88 2.276-3.034 5.491-4.55 9.644-4.55 2.947 0 5.614.9 8.003 2.703 2.388 1.802 4.264 4.088 5.626 6.858a42.838 42.838 0 013.147 8.605c.737 2.967 1.105 5.77 1.105 8.408 0 4.396-.971 7.926-2.913 10.586-1.943 2.659-5.079 3.989-9.41 3.989zm18.517 49.519a13.078 13.078 0 01-4.988 4.846 25.69 25.69 0 01-6.731 2.573c-2.389.55-4.9.825-7.535.825-2.857 0-5.693-.331-8.505-.99a34.234 34.234 0 01-8.07-3c-2.567-1.34-4.643-3.187-6.228-5.539-1.585-2.353-2.377-5.022-2.377-8.013 0-2.637.602-4.989 1.808-7.056 1.206-2.066 2.746-3.714 4.621-4.944 1.876-1.232 4.063-2.243 6.563-3.033 2.501-.793 4.912-1.341 7.233-1.649a53.92 53.92 0 017.099-.461c1.474 0 2.59.045 3.349.131.268.178.948.638 2.042 1.385 1.095.748 1.831 1.254 2.211 1.518.379.262 1.071.768 2.076 1.516 1.004.747 1.719 1.307 2.143 1.681.423.373 1.037.934 1.841 1.681.803.748 1.395 1.396 1.775 1.945.378.549.848 1.22 1.406 2.01.558.793.949 1.551 1.173 2.276.222.726.434 1.517.635 2.374.2.859.3 1.748.3 2.672.002 2.769-.612 5.187-1.841 7.252z" />
            </mask>
            <path
                d="M162.692 132.094a34.488 34.488 0 00-3.918-4.352 57.73 57.73 0 00-4.286-3.659 97.148 97.148 0 01-3.918-3.167c-1.182-1.01-2.142-2.066-2.879-3.164-.737-1.099-1.105-2.22-1.105-3.363 0-1.583.514-3.066 1.54-4.451 1.027-1.385 2.277-2.725 3.75-4.023a72.81 72.81 0 004.421-4.253c1.472-1.54 2.722-3.572 3.749-6.1 1.026-2.528 1.54-5.418 1.54-8.671 0-3.87-.871-7.584-2.612-11.145-1.742-3.56-4.197-6.33-7.367-8.309h9.04l9.041-5.21h-29.265c-4.152 0-8.327.44-12.522 1.322-6.206 1.363-11.429 4.473-15.671 9.33-4.241 4.858-6.362 10.364-6.362 16.519 0 6.506 2.378 11.914 7.132 16.221 4.755 4.307 10.459 6.462 17.111 6.462 1.339 0 2.902-.11 4.688-.33a14.2 14.2 0 01-.468 1.418c-.224.593-.403 1.067-.537 1.418a7.174 7.174 0 00-.334 1.285 8.837 8.837 0 00-.134 1.55c0 2.902 1.428 6.177 4.286 9.826a80.205 80.205 0 00-10.046.891c-3.303.506-6.763 1.297-10.38 2.374-3.616 1.077-6.854 2.638-9.71 4.682-2.858 2.045-5.001 4.473-6.43 7.287-1.652 3.253-2.478 6.22-2.478 8.902 0 2.945.67 5.616 2.009 8.012 1.339 2.395 3.058 4.352 5.156 5.868 2.099 1.518 4.521 2.791 7.267 3.825 2.745 1.033 5.469 1.769 8.17 2.209 2.701.44 5.369.659 8.003.659 11.965 0 21.342-2.879 28.128-8.637 6.251-5.364 9.376-11.563 9.376-18.597 0-2.507-.368-4.846-1.105-7.023-.737-2.179-1.696-4.045-2.88-5.606zm-25.818-23.968c-2.277 0-4.442-.572-6.496-1.716a17.159 17.159 0 01-5.224-4.451c-1.428-1.824-2.679-3.88-3.75-6.166-1.072-2.285-1.864-4.57-2.378-6.857-.513-2.286-.77-4.462-.77-6.529 0-4.22 1.139-7.846 3.416-10.88 2.276-3.034 5.491-4.55 9.644-4.55 2.947 0 5.614.9 8.003 2.703 2.388 1.802 4.264 4.088 5.626 6.858a42.838 42.838 0 013.147 8.605c.737 2.967 1.105 5.77 1.105 8.408 0 4.396-.971 7.926-2.913 10.586-1.943 2.659-5.079 3.989-9.41 3.989zm18.517 49.519a13.078 13.078 0 01-4.988 4.846 25.69 25.69 0 01-6.731 2.573c-2.389.55-4.9.825-7.535.825-2.857 0-5.693-.331-8.505-.99a34.234 34.234 0 01-8.07-3c-2.567-1.34-4.643-3.187-6.228-5.539-1.585-2.353-2.377-5.022-2.377-8.013 0-2.637.602-4.989 1.808-7.056 1.206-2.066 2.746-3.714 4.621-4.944 1.876-1.232 4.063-2.243 6.563-3.033 2.501-.793 4.912-1.341 7.233-1.649a53.92 53.92 0 017.099-.461c1.474 0 2.59.045 3.349.131.268.178.948.638 2.042 1.385 1.095.748 1.831 1.254 2.211 1.518.379.262 1.071.768 2.076 1.516 1.004.747 1.719 1.307 2.143 1.681.423.373 1.037.934 1.841 1.681.803.748 1.395 1.396 1.775 1.945.378.549.848 1.22 1.406 2.01.558.793.949 1.551 1.173 2.276.222.726.434 1.517.635 2.374.2.859.3 1.748.3 2.672.002 2.769-.612 5.187-1.841 7.252z"
                fill="#1E1E1E" stroke="#F5BF00" stroke-width="4" mask="url(#d)" />
            <mask id="e" fill="#fff">
                <path
                    d="M192.864 79.109V62.228h-8.573v16.88h-17.145v8.442h17.145v16.881h8.573V87.55h17.144v-8.441h-17.144z" />
            </mask>
            <path d="M192.864 79.109V62.228h-8.573v16.88h-17.145v8.442h17.145v16.881h8.573V87.55h17.144v-8.441h-17.144z"
                fill="#1E1E1E" stroke="#F5BF00" stroke-width="4" mask="url(#e)" />
        </g>
    </g>
    <defs>
        <filter id="filter0_d" x=".007" y=".721" width="260.579" height="223.237" filterUnits="userSpaceOnUse"
            color-interpolation-filters="sRGB">
            <feFlood flood-opacity="0" result="BackgroundImageFix" />
            <feColorMatrix in="SourceAlpha" values="0 0 0 0 0 0 0 0 0 0 0 0 0 0 0 0 0 0 127 0" />
            <feOffset dy="4" />
            <feGaussianBlur stdDeviation="2" />
            <feColorMatrix values="0 0 0 0 0 0 0 0 0 0 0 0 0 0 0 0 0 0 0.25 0" />
            <feBlend in2="BackgroundImageFix" result="effect1_dropShadow" />
            <feBlend in="SourceGraphic" in2="effect1_dropShadow" result="shape" />
        </filter>
        <filter id="filter1_d" x="94.565" y="62.228" width="119.444" height="117.73" filterUnits="userSpaceOnUse"
            color-interpolation-filters="sRGB">
            <feFlood flood-opacity="0" result="BackgroundImageFix" />
            <feColorMatrix in="SourceAlpha" values="0 0 0 0 0 0 0 0 0 0 0 0 0 0 0 0 0 0 127 0" />
            <feOffset dy="4" />
            <feGaussianBlur stdDeviation="2" />
            <feColorMatrix values="0 0 0 0 0 0 0 0 0 0 0 0 0 0 0 0 0 0 0.25 0" />
            <feBlend in2="BackgroundImageFix" result="effect1_dropShadow" />
            <feBlend in="SourceGraphic" in2="effect1_dropShadow" result="shape" />
        </filter>
        <linearGradient id="paint0_linear" x1="239.372" y1="79.336" x2="54.626" y2="119.386"
            gradientUnits="userSpaceOnUse">
            <stop stop-color="#F5BF00" />
            <stop offset="1" stop-opacity="0" />
        </linearGradient>
        <clipPath id="clip0">
            <path fill="#fff" transform="translate(98.565 62.228)" d="M0 0h111.444v109.73H0z" />
        </clipPath>
    </defs>
</svg>