<svg id="a" width="163" height="159" viewBox="0 -24 163 200" fill="none" xmlns="http://www.w3.org/2000/svg">

    <g>

        <g filter="url(#filter0_d)">
            <mask id="c" fill="#fff">
                <path
                    d="M13.379 36.607a3 3 0 011.588-2.647l60.82-32.442a3 3 0 012.736-.045l66.024 32.51a3 3 0 011.675 2.69v85.934a3 3 0 01-1.694 2.701l-66.024 31.926a3.002 3.002 0 01-2.699-.044l-60.818-31.859a3 3 0 01-1.608-2.657V36.607z" />
            </mask>
            <path
                d="M13.379 36.607a3 3 0 011.588-2.647l60.82-32.442a3 3 0 012.736-.045l66.024 32.51a3 3 0 011.675 2.69v85.934a3 3 0 01-1.694 2.701l-66.024 31.926a3.002 3.002 0 01-2.699-.044l-60.818-31.859a3 3 0 01-1.608-2.657V36.607z"
                stroke="url(#paint0_linear)" stroke-width="4" mask="url(#c)" />
        </g>
        <g clip-path="url(#clip0)" filter="url(#filter1_d)">
            <mask id="d" fill="#fff">
                <path
                    d="M36.397 83.87l-3.6 1.4c-5.4 2.3-8.2 4.7-8.1 6.8.3 3.1 3.8 5.4 10.2 7.1 8.3 2.2 16.7 2.7 25.4 1.4v-8.7l-6.9 2.6c-7.2 2.5-10.9.4-10.9.4-1.1-.7-1.6-2.4 1.4-3.5l3.8-1.4 12.6-4.5v-10.1l-3.2 1.1-20.7 7.4z" />
            </mask>
            <path
                d="M36.397 83.87l-3.6 1.4c-5.4 2.3-8.2 4.7-8.1 6.8.3 3.1 3.8 5.4 10.2 7.1 8.3 2.2 16.7 2.7 25.4 1.4v-8.7l-6.9 2.6c-7.2 2.5-10.9.4-10.9.4-1.1-.7-1.6-2.4 1.4-3.5l3.8-1.4 12.6-4.5v-10.1l-3.2 1.1-20.7 7.4z"
                stroke="#6ABFFC" stroke-width="2" mask="url(#d)" />
            <mask id="e" fill="#fff">
                <path
                    d="M88.997 48.77v25.9c5.4 2.6 10.2 2.8 13.8.1 3.7-2.6 5.7-7.1 5.7-13.9 0-7.1-1.4-12.5-4.5-16.1-2.8-3.8-7.8-7-15.2-9.5-9.2-3-17-5.6-23.2-6.9v77.5l16.7 5.1v-64.4c-.1-3.9 6.7-3.6 6.7 2.2z" />
            </mask>
            <path
                d="M88.997 48.77v25.9c5.4 2.6 10.2 2.8 13.8.1 3.7-2.6 5.7-7.1 5.7-13.9 0-7.1-1.4-12.5-4.5-16.1-2.8-3.8-7.8-7-15.2-9.5-9.2-3-17-5.6-23.2-6.9v77.5l16.7 5.1v-64.4c-.1-3.9 6.7-3.6 6.7 2.2z"
                stroke="#6ABFFC" stroke-width="2" mask="url(#e)" />
            <mask id="f" fill="#fff">
                <path
                    d="M131.397 88.77c-.1-2.7-3.3-4.8-9-6.7-6.4-2.1-11.9-3.1-17.9-2.9-5.5.1-12.1 1.9-18 3.8v9.9l16.2-5.7s4.9-1.8 9.1-.7c3.2.8 3 2.6-.2 3.7l-3.7 1.5-21.4 7.7v10.1l10-3.6 24-8.5 2.8-1.3c5.8-2.1 8.4-4.4 8.1-7.3z" />
            </mask>
            <path
                d="M131.397 88.77c-.1-2.7-3.3-4.8-9-6.7-6.4-2.1-11.9-3.1-17.9-2.9-5.5.1-12.1 1.9-18 3.8v9.9l16.2-5.7s4.9-1.8 9.1-.7c3.2.8 3 2.6-.2 3.7l-3.7 1.5-21.4 7.7v10.1l10-3.6 24-8.5 2.8-1.3c5.8-2.1 8.4-4.4 8.1-7.3z"
                stroke="#6ABFFC" stroke-width="2" mask="url(#f)" />
        </g>
    </g>
    <defs>
        <filter id="filter0_d" x="-21.26" y="1.165" width="183.44" height="164.368" filterUnits="userSpaceOnUse"
            color-interpolation-filters="sRGB">
            <feFlood flood-opacity="0" result="BackgroundImageFix" />
            <feColorMatrix in="SourceAlpha" values="0 0 0 0 0 0 0 0 0 0 0 0 0 0 0 0 0 0 127 0" />
            <feOffset dy="4" />
            <feGaussianBlur stdDeviation="2" />
            <feColorMatrix values="0 0 0 0 0 0 0 0 0 0 0 0 0 0 0 0 0 0 0.25 0" />
            <feBlend in2="BackgroundImageFix" result="effect1_dropShadow" />
            <feBlend in="SourceGraphic" in2="effect1_dropShadow" result="shape" />
        </filter>
        <filter id="filter1_d" x="20.694" y="16.307" width="114.726" height="114.726" filterUnits="userSpaceOnUse"
            color-interpolation-filters="sRGB">
            <feFlood flood-opacity="0" result="BackgroundImageFix" />
            <feColorMatrix in="SourceAlpha" values="0 0 0 0 0 0 0 0 0 0 0 0 0 0 0 0 0 0 127 0" />
            <feOffset dy="4" />
            <feGaussianBlur stdDeviation="2" />
            <feColorMatrix values="0 0 0 0 0 0 0 0 0 0 0 0 0 0 0 0 0 0 0.25 0" />
            <feBlend in2="BackgroundImageFix" result="effect1_dropShadow" />
            <feBlend in="SourceGraphic" in2="effect1_dropShadow" result="shape" />
        </filter>
        <linearGradient id="paint0_linear" x1="146.222" y1="58.242" x2="17.387" y2="84.904"
            gradientUnits="userSpaceOnUse">
            <stop stop-color="#6ABFFC" />
            <stop offset="1" stop-opacity="0" />
        </linearGradient>
        <clipPath id="clip0">
            <path fill="#fff" transform="translate(24.694 16.307)" d="M0 0h106.726v106.726H0z" />
        </clipPath>
    </defs>
</svg>