<svg id="a" width="237" height="207" viewBox="0 -30 237 240" fill="none" xmlns="http://www.w3.org/2000/svg">

    <g>

        <g filter="url(#filter0_d)">
            <mask id="c" fill="#fff">
                <path
                    d="M44.265 45.15a3 3 0 011.624-2.666l80.117-41.347a3 3 0 012.666-.043l86.932 41.413a3 3 0 011.71 2.709v109.226a3 3 0 01-1.729 2.718l-86.932 40.67a3.001 3.001 0 01-2.628-.041l-80.116-40.605a3 3 0 01-1.644-2.676V45.15z" />
            </mask>
            <path
                d="M44.265 45.15a3 3 0 011.624-2.666l80.117-41.347a3 3 0 012.666-.043l86.932 41.413a3 3 0 011.71 2.709v109.226a3 3 0 01-1.729 2.718l-86.932 40.67a3.001 3.001 0 01-2.628-.041l-80.116-40.605a3 3 0 01-1.644-2.676V45.15z"
                stroke="url(#paint0_linear)" stroke-width="4" mask="url(#c)" />
        </g>
        <g clip-path="url(#clip0)" filter="url(#filter1_d)">
            <mask id="d" fill="#fff">
                <path
                    d="M89.404 100.224H76.59c-.877 0-1.589.717-1.589 1.603v46.451c0 .886.712 1.604 1.59 1.604h12.814c.878 0 1.59-.718 1.59-1.604v-14.659c0-.885-.712-1.603-1.59-1.603-.877 0-1.588.718-1.588 1.603v13.055h-9.638v-43.243h9.638v24.842c0 .886.71 1.604 1.588 1.604.878 0 1.59-.718 1.59-1.604v-26.446c0-.886-.712-1.603-1.59-1.603z" />
            </mask>
            <path
                d="M89.404 100.224H76.59c-.877 0-1.589.717-1.589 1.603v46.451c0 .886.712 1.604 1.59 1.604h12.814c.878 0 1.59-.718 1.59-1.604v-14.659c0-.885-.712-1.603-1.59-1.603-.877 0-1.588.718-1.588 1.603v13.055h-9.638v-43.243h9.638v24.842c0 .886.71 1.604 1.588 1.604.878 0 1.59-.718 1.59-1.604v-26.446c0-.886-.712-1.603-1.59-1.603z"
                fill="#6AEDFC" stroke="#1E1E1E" mask="url(#d)" />
            <mask id="e" fill="#fff">
                <path
                    d="M112.156 115.15H99.341c-.878 0-1.59.718-1.59 1.603v31.525c0 .886.712 1.604 1.59 1.604h12.815c.878 0 1.589-.718 1.589-1.604v-31.525c0-.885-.711-1.603-1.589-1.603zm-1.589 31.524h-9.637v-28.316h9.637v28.316z" />
            </mask>
            <path
                d="M112.156 115.15H99.341c-.878 0-1.59.718-1.59 1.603v31.525c0 .886.712 1.604 1.59 1.604h12.815c.878 0 1.589-.718 1.589-1.604v-31.525c0-.885-.711-1.603-1.589-1.603zm-1.589 31.524h-9.637v-28.316h9.637v28.316z"
                fill="#6AEDFC" stroke="#1E1E1E" mask="url(#e)" />
            <mask id="f" fill="#fff">
                <path
                    d="M134.908 90.272h-12.816c-.877 0-1.589.718-1.589 1.604v56.402c0 .886.712 1.604 1.589 1.604h12.816c.878 0 1.589-.718 1.589-1.604V91.876c0-.886-.711-1.604-1.589-1.604zm-1.589 56.402h-9.638V93.48h9.638v53.194z" />
            </mask>
            <path
                d="M134.908 90.272h-12.816c-.877 0-1.589.718-1.589 1.604v56.402c0 .886.712 1.604 1.589 1.604h12.816c.878 0 1.589-.718 1.589-1.604V91.876c0-.886-.711-1.604-1.589-1.604zm-1.589 56.402h-9.638V93.48h9.638v53.194z"
                fill="#6AEDFC" stroke="#1E1E1E" mask="url(#f)" />
            <mask id="g" fill="#fff">
                <path
                    d="M157.66 97.736h-12.816c-.878 0-1.59.718-1.59 1.603v48.939c0 .886.712 1.604 1.59 1.604h12.816c.877 0 1.588-.718 1.588-1.604V99.34c0-.886-.711-1.604-1.588-1.604zm-1.59 48.938h-9.638v-45.73h9.638v45.73z" />
            </mask>
            <path
                d="M157.66 97.736h-12.816c-.878 0-1.59.718-1.59 1.603v48.939c0 .886.712 1.604 1.59 1.604h12.816c.877 0 1.588-.718 1.588-1.604V99.34c0-.886-.711-1.604-1.588-1.604zm-1.59 48.938h-9.638v-45.73h9.638v45.73z"
                fill="#6AEDFC" stroke="#1E1E1E" mask="url(#g)" />
            <mask id="h" fill="#fff">
                <path
                    d="M180.411 75.346h-12.815c-.878 0-1.59.718-1.59 1.604v21.168c0 .886.712 1.605 1.59 1.605.877 0 1.588-.719 1.588-1.605V78.554h9.638v68.12h-9.638v-43.208c0-.886-.711-1.604-1.588-1.604-.878 0-1.59.718-1.59 1.604v44.812c0 .886.712 1.604 1.59 1.604h12.815c.877 0 1.589-.718 1.589-1.604V76.95c0-.886-.712-1.604-1.589-1.604z" />
            </mask>
            <path
                d="M180.411 75.346h-12.815c-.878 0-1.59.718-1.59 1.604v21.168c0 .886.712 1.605 1.59 1.605.877 0 1.588-.719 1.588-1.605V78.554h9.638v68.12h-9.638v-43.208c0-.886-.711-1.604-1.588-1.604-.878 0-1.59.718-1.59 1.604v44.812c0 .886.712 1.604 1.59 1.604h12.815c.877 0 1.589-.718 1.589-1.604V76.95c0-.886-.712-1.604-1.589-1.604z"
                fill="#6AEDFC" stroke="#1E1E1E" mask="url(#h)" />
            <mask id="i" fill="#fff">
                <path
                    d="M169.502 62.903a7.9 7.9 0 004.501 1.404c4.41 0 7.997-3.621 7.997-8.071 0-4.451-3.587-8.072-7.997-8.072s-7.997 3.62-7.997 8.072c0 1.609.471 3.109 1.279 4.37l-11.533 11.351a7.897 7.897 0 00-4.5-1.403c-2.981 0-5.583 1.655-6.959 4.102l-7.85-2.574c.034-.302.054-.608.054-.92 0-4.45-3.588-8.072-7.997-8.072-4.41 0-7.997 3.622-7.997 8.072 0 1.762.564 3.393 1.517 4.721L109.895 89.14a7.896 7.896 0 00-4.147-1.172c-2.23 0-4.249.927-5.7 2.418l-9.616-6.307c.361-.92.562-1.92.562-2.966 0-4.451-3.588-8.072-7.998-8.072-4.409 0-7.996 3.621-7.996 8.072 0 4.45 3.587 8.072 7.997 8.072 2.23 0 4.249-.928 5.701-2.42l9.615 6.308a8.098 8.098 0 00-.562 2.967c0 4.451 3.588 8.071 7.997 8.071 4.41 0 7.998-3.62 7.998-8.072a8.077 8.077 0 00-1.517-4.72l12.125-13.258a7.889 7.889 0 004.147 1.173c2.979 0 5.583-1.656 6.958-4.102l7.85 2.573a7.994 7.994 0 00-.054.92c0 4.452 3.587 8.072 7.997 8.072s7.997-3.62 7.997-8.071c0-1.61-.471-3.11-1.278-4.37l11.531-11.353zM82.997 85.977c-2.657 0-4.819-2.182-4.819-4.864s2.162-4.864 4.819-4.864 4.819 2.182 4.819 4.864-2.162 4.864-4.82 4.864zm22.751 14.926c-2.657 0-4.818-2.181-4.818-4.864 0-2.682 2.161-4.864 4.818-4.864 2.658 0 4.819 2.182 4.819 4.865 0 2.681-2.161 4.863-4.819 4.863zM128.5 76.026c-2.657 0-4.819-2.182-4.819-4.864s2.162-4.864 4.819-4.864 4.819 2.182 4.819 4.864-2.162 4.864-4.819 4.864zm45.503-24.654c2.657 0 4.819 2.182 4.819 4.864s-2.162 4.864-4.819 4.864-4.819-2.182-4.819-4.864 2.162-4.864 4.819-4.864zm-22.751 32.117c-2.658 0-4.819-2.181-4.819-4.863 0-2.683 2.161-4.864 4.819-4.864 2.657 0 4.818 2.181 4.818 4.864 0 2.682-2.161 4.863-4.818 4.863z" />
            </mask>
            <path
                d="M169.502 62.903a7.9 7.9 0 004.501 1.404c4.41 0 7.997-3.621 7.997-8.071 0-4.451-3.587-8.072-7.997-8.072s-7.997 3.62-7.997 8.072c0 1.609.471 3.109 1.279 4.37l-11.533 11.351a7.897 7.897 0 00-4.5-1.403c-2.981 0-5.583 1.655-6.959 4.102l-7.85-2.574c.034-.302.054-.608.054-.92 0-4.45-3.588-8.072-7.997-8.072-4.41 0-7.997 3.622-7.997 8.072 0 1.762.564 3.393 1.517 4.721L109.895 89.14a7.896 7.896 0 00-4.147-1.172c-2.23 0-4.249.927-5.7 2.418l-9.616-6.307c.361-.92.562-1.92.562-2.966 0-4.451-3.588-8.072-7.998-8.072-4.409 0-7.996 3.621-7.996 8.072 0 4.45 3.587 8.072 7.997 8.072 2.23 0 4.249-.928 5.701-2.42l9.615 6.308a8.098 8.098 0 00-.562 2.967c0 4.451 3.588 8.071 7.997 8.071 4.41 0 7.998-3.62 7.998-8.072a8.077 8.077 0 00-1.517-4.72l12.125-13.258a7.889 7.889 0 004.147 1.173c2.979 0 5.583-1.656 6.958-4.102l7.85 2.573a7.994 7.994 0 00-.054.92c0 4.452 3.587 8.072 7.997 8.072s7.997-3.62 7.997-8.071c0-1.61-.471-3.11-1.278-4.37l11.531-11.353zM82.997 85.977c-2.657 0-4.819-2.182-4.819-4.864s2.162-4.864 4.819-4.864 4.819 2.182 4.819 4.864-2.162 4.864-4.82 4.864zm22.751 14.926c-2.657 0-4.818-2.181-4.818-4.864 0-2.682 2.161-4.864 4.818-4.864 2.658 0 4.819 2.182 4.819 4.865 0 2.681-2.161 4.863-4.819 4.863zM128.5 76.026c-2.657 0-4.819-2.182-4.819-4.864s2.162-4.864 4.819-4.864 4.819 2.182 4.819 4.864-2.162 4.864-4.819 4.864zm45.503-24.654c2.657 0 4.819 2.182 4.819 4.864s-2.162 4.864-4.819 4.864-4.819-2.182-4.819-4.864 2.162-4.864 4.819-4.864zm-22.751 32.117c-2.658 0-4.819-2.181-4.819-4.863 0-2.683 2.161-4.864 4.819-4.864 2.657 0 4.818 2.181 4.818 4.864 0 2.682-2.161 4.863-4.818 4.863z"
                fill="#6AEDFC" stroke="#1E1E1E" mask="url(#i)" />
        </g>
    </g>
    <defs>
        <filter id="filter0_d" x=".355" y=".802" width="236.536" height="205.31" filterUnits="userSpaceOnUse"
            color-interpolation-filters="sRGB">
            <feFlood flood-opacity="0" result="BackgroundImageFix" />
            <feColorMatrix in="SourceAlpha" values="0 0 0 0 0 0 0 0 0 0 0 0 0 0 0 0 0 0 127 0" />
            <feOffset dy="4" />
            <feGaussianBlur stdDeviation="2" />
            <feColorMatrix values="0 0 0 0 0 0 0 0 0 0 0 0 0 0 0 0 0 0 0.25 0" />
            <feBlend in2="BackgroundImageFix" result="effect1_dropShadow" />
            <feBlend in="SourceGraphic" in2="effect1_dropShadow" result="shape" />
        </filter>
        <filter id="filter1_d" x="71" y="45" width="115" height="116" filterUnits="userSpaceOnUse"
            color-interpolation-filters="sRGB">
            <feFlood flood-opacity="0" result="BackgroundImageFix" />
            <feColorMatrix in="SourceAlpha" values="0 0 0 0 0 0 0 0 0 0 0 0 0 0 0 0 0 0 127 0" />
            <feOffset dy="4" />
            <feGaussianBlur stdDeviation="2" />
            <feColorMatrix values="0 0 0 0 0 0 0 0 0 0 0 0 0 0 0 0 0 0 0.25 0" />
            <feBlend in2="BackgroundImageFix" result="effect1_dropShadow" />
            <feBlend in="SourceGraphic" in2="effect1_dropShadow" result="shape" />
        </filter>
        <linearGradient id="paint0_linear" x1="217.314" y1="72.859" x2="49.956" y2="108.655"
            gradientUnits="userSpaceOnUse">
            <stop stop-opacity="0" />
            <stop offset=".771" stop-color="#6AEDFC" />
        </linearGradient>
        <clipPath id="clip0">
            <path fill="#fff" transform="translate(75 45)" d="M0 0h107v108H0z" />
        </clipPath>
    </defs>
</svg>