<svg id="a" width="227" height="194" viewBox="0 -31 227 232" fill="none" xmlns="http://www.w3.org/2000/svg">

    <g>

        <g filter="url(#filter0_d)">
            <mask id="c" fill="#fff">
                <path
                    d="M42.922 42.328a3 3 0 011.64-2.673L120.543.965a3 3 0 012.637-.042l82.455 38.756a3 3 0 011.724 2.715v102.147a3 3 0 01-1.743 2.724l-82.455 38.061a2.999 2.999 0 01-2.599-.041L44.581 147.29a3.001 3.001 0 01-1.659-2.684V42.328z" />
            </mask>
            <path
                d="M42.922 42.328a3 3 0 011.64-2.673L120.543.965a3 3 0 012.637-.042l82.455 38.756a3 3 0 011.724 2.715v102.147a3 3 0 01-1.743 2.724l-82.455 38.061a2.999 2.999 0 01-2.599-.041L44.581 147.29a3.001 3.001 0 01-1.659-2.684V42.328z"
                stroke="url(#paint0_linear)" stroke-width="4" mask="url(#c)" />
        </g>
        <g filter="url(#filter1_d)">
            <mask id="d" fill="#fff">
                <path
                    d="M151.33 26.09H99.32c-5.127.007-9.281 4.796-9.287 10.706v107.062c.006 5.911 4.16 10.7 9.287 10.707h52.01c5.126-.007 9.281-4.796 9.287-10.707V36.796c-.006-5.91-4.161-10.7-9.287-10.706zM93.748 47.502h63.154v85.65H93.748v-85.65zm5.572-17.13h52.01c3.077 0 5.572 2.876 5.572 6.424v6.424H93.748v-6.424c0-3.548 2.495-6.424 5.572-6.424zm52.01 119.91H99.32c-3.077 0-5.572-2.876-5.572-6.424v-6.423h63.154v6.423c0 3.548-2.495 6.424-5.572 6.424z" />
            </mask>
            <path
                d="M151.33 26.09H99.32c-5.127.007-9.281 4.796-9.287 10.706v107.062c.006 5.911 4.16 10.7 9.287 10.707h52.01c5.126-.007 9.281-4.796 9.287-10.707V36.796c-.006-5.91-4.161-10.7-9.287-10.706v0zM93.748 47.502h63.154v85.65H93.748v-85.65zm5.572-17.13h52.01c3.077 0 5.572 2.876 5.572 6.424v6.424H93.748v-6.424c0-3.548 2.495-6.424 5.572-6.424zm52.01 119.91H99.32c-3.077 0-5.572-2.876-5.572-6.424v-6.423h63.154v6.423c0 3.548-2.495 6.424-5.572 6.424z"
                fill="#3202F2" stroke="#1E1E1E" stroke-width="2" mask="url(#d)" />
            <mask id="e" fill="#fff">
                <path
                    d="M127.183 141.718h-3.715c-1.026 0-1.858.958-1.858 2.141s.832 2.141 1.858 2.141h3.715c1.025 0 1.857-.958 1.857-2.141s-.832-2.141-1.857-2.141z" />
            </mask>
            <path
                d="M127.183 141.718h-3.715c-1.026 0-1.858.958-1.858 2.141s.832 2.141 1.858 2.141h3.715c1.025 0 1.857-.958 1.857-2.141s-.832-2.141-1.857-2.141z"
                fill="#3202F2" stroke="#1E1E1E" stroke-width="2" mask="url(#e)" />
            <mask id="f" fill="#fff">
                <path
                    d="M101.178 38.938h3.715c1.026 0 1.858-.959 1.858-2.141 0-1.183-.832-2.142-1.858-2.142h-3.715c-1.025 0-1.857.959-1.857 2.142 0 1.182.832 2.14 1.857 2.14z" />
            </mask>
            <path
                d="M101.178 38.938h3.715c1.026 0 1.858-.959 1.858-2.141 0-1.183-.832-2.142-1.858-2.142h-3.715c-1.025 0-1.857.959-1.857 2.142 0 1.182.832 2.14 1.857 2.14z"
                fill="#3202F2" stroke="#1E1E1E" stroke-width="2" mask="url(#f)" />
            <mask id="g" fill="#fff">
                <path
                    d="M112.322 38.938h7.43c1.026 0 1.858-.959 1.858-2.141 0-1.183-.832-2.142-1.858-2.142h-7.43c-1.025 0-1.857.959-1.857 2.142 0 1.182.832 2.14 1.857 2.14z" />
            </mask>
            <path
                d="M112.322 38.938h7.43c1.026 0 1.858-.959 1.858-2.141 0-1.183-.832-2.142-1.858-2.142h-7.43c-1.025 0-1.857.959-1.857 2.142 0 1.182.832 2.14 1.857 2.14z"
                fill="#3202F2" stroke="#1E1E1E" stroke-width="2" mask="url(#g)" />
            <mask id="h" fill="#fff">
                <path
                    d="M106.751 79.621h7.429c1.026 0 1.857-.959 1.857-2.14v-8.565c0-1.183-.831-2.142-1.857-2.142h-7.429c-1.027 0-1.858.959-1.858 2.142v8.564c0 1.182.831 2.141 1.858 2.141zm1.857-8.565h3.714v4.283h-3.714v-4.283z" />
            </mask>
            <path
                d="M106.751 79.621h7.429c1.026 0 1.857-.959 1.857-2.14v-8.565c0-1.183-.831-2.142-1.857-2.142h-7.429c-1.027 0-1.858.959-1.858 2.142v8.564c0 1.182.831 2.141 1.858 2.141zm1.857-8.565h3.714v4.283h-3.714v-4.283z"
                fill="#3202F2" stroke="#1E1E1E" stroke-width="2" mask="url(#h)" />
            <mask id="i" fill="#fff">
                <path
                    d="M143.9 66.774h-7.43c-1.026 0-1.857.959-1.857 2.142v8.564c0 1.182.831 2.141 1.857 2.141h7.43c1.026 0 1.857-.959 1.857-2.14v-8.565c0-1.183-.831-2.142-1.857-2.142zm-1.857 8.565h-3.715v-4.283h3.715v4.283z" />
            </mask>
            <path
                d="M143.9 66.774h-7.43c-1.026 0-1.857.959-1.857 2.142v8.564c0 1.182.831 2.141 1.857 2.141h7.43c1.026 0 1.857-.959 1.857-2.14v-8.565c0-1.183-.831-2.142-1.857-2.142zm-1.857 8.565h-3.715v-4.283h3.715v4.283z"
                fill="#3202F2" stroke="#1E1E1E" stroke-width="2" mask="url(#i)" />
            <mask id="j" fill="#fff">
                <path
                    d="M114.18 101.034h-7.429c-1.027 0-1.858.959-1.858 2.141v8.565c0 1.183.831 2.142 1.858 2.142h7.429c1.026 0 1.857-.959 1.857-2.142v-8.565c.001-1.182-.831-2.141-1.857-2.141zm-1.858 8.565h-3.714v-4.282h3.714v4.282z" />
            </mask>
            <path
                d="M114.18 101.034h-7.429c-1.027 0-1.858.959-1.858 2.141v8.565c0 1.183.831 2.142 1.858 2.142h7.429c1.026 0 1.857-.959 1.857-2.142v-8.565c.001-1.182-.831-2.141-1.857-2.141zm-1.858 8.565h-3.714v-4.282h3.714v4.282z"
                fill="#3202F2" stroke="#1E1E1E" stroke-width="2" mask="url(#j)" />
            <mask id="k" fill="#fff">
                <path
                    d="M121.61 71.056h7.43c1.026 0 1.858-.958 1.858-2.14 0-1.183-.832-2.142-1.858-2.142h-7.43c-1.025 0-1.857.959-1.857 2.142 0 1.182.832 2.14 1.857 2.14z" />
            </mask>
            <path
                d="M121.61 71.056h7.43c1.026 0 1.858-.958 1.858-2.14 0-1.183-.832-2.142-1.858-2.142h-7.43c-1.025 0-1.857.959-1.857 2.142 0 1.182.832 2.14 1.857 2.14z"
                fill="#3202F2" stroke="#1E1E1E" stroke-width="2" mask="url(#k)" />
            <mask id="l" fill="#fff">
                <path
                    d="M106.751 96.752c1.025 0 1.857-.958 1.857-2.141v-4.283h3.714v2.142c0 1.182.832 2.14 1.858 2.14 1.026 0 1.857-.958 1.857-2.14v-2.142h5.573c1.026 0 1.858-.958 1.858-2.14 0-1.184-.832-2.142-1.858-2.142h-3.715v-2.142c0-1.182-.831-2.14-1.858-2.14-1.025 0-1.857.958-1.857 2.14v2.142h-5.572c0-1.182-.832-2.142-1.857-2.142-1.027 0-1.858.96-1.858 2.142v8.565c0 1.183.831 2.141 1.858 2.141z" />
            </mask>
            <path
                d="M106.751 96.752c1.025 0 1.857-.958 1.857-2.141v-4.283h3.714v2.142c0 1.182.832 2.14 1.858 2.14 1.026 0 1.857-.958 1.857-2.14v-2.142h5.573c1.026 0 1.858-.958 1.858-2.14 0-1.184-.832-2.142-1.858-2.142h-3.715v-2.142c0-1.182-.831-2.14-1.858-2.14-1.025 0-1.857.958-1.857 2.14v2.142h-5.572c0-1.182-.832-2.142-1.857-2.142-1.027 0-1.858.96-1.858 2.142v8.565c0 1.183.831 2.141 1.858 2.141z"
                fill="#3202F2" stroke="#1E1E1E" stroke-width="2" mask="url(#l)" />
            <mask id="m" fill="#fff">
                <path
                    d="M143.901 105.317c-1.027 0-1.858.959-1.858 2.141v2.141h-1.858c-1.026 0-1.857.959-1.857 2.141 0 1.183.831 2.142 1.857 2.142h3.716c1.025 0 1.857-.959 1.857-2.142v-4.282c0-1.182-.832-2.141-1.857-2.141z" />
            </mask>
            <path
                d="M143.901 105.317c-1.027 0-1.858.959-1.858 2.141v2.141h-1.858c-1.026 0-1.857.959-1.857 2.141 0 1.183.831 2.142 1.857 2.142h3.716c1.025 0 1.857-.959 1.857-2.142v-4.282c0-1.182-.832-2.141-1.857-2.141z"
                fill="#3202F2" stroke="#1E1E1E" stroke-width="2" mask="url(#m)" />
            <mask id="n" fill="#fff">
                <path
                    d="M132.755 109.599h-3.715v-4.282h1.858c1.025 0 1.857-.959 1.857-2.142 0-1.182-.832-2.141-1.857-2.141h-1.858v-2.141c0-1.182-.832-2.141-1.857-2.141-1.026 0-1.858.959-1.858 2.14h-1.857c-1.026 0-1.858.96-1.858 2.142s.832 2.141 1.858 2.141h1.857v6.424h-1.857v-2.141c0-1.183-.832-2.141-1.858-2.141-1.025 0-1.857.958-1.857 2.141v4.282c0 1.183.832 2.142 1.857 2.142h11.145c1.026 0 1.858-.959 1.858-2.142 0-1.182-.832-2.141-1.858-2.141z" />
            </mask>
            <path
                d="M132.755 109.599h-3.715v-4.282h1.858c1.025 0 1.857-.959 1.857-2.142 0-1.182-.832-2.141-1.857-2.141h-1.858v-2.141c0-1.182-.832-2.141-1.857-2.141-1.026 0-1.858.959-1.858 2.14h-1.857c-1.026 0-1.858.96-1.858 2.142s.832 2.141 1.858 2.141h1.857v6.424h-1.857v-2.141c0-1.183-.832-2.141-1.858-2.141-1.025 0-1.857.958-1.857 2.141v4.282c0 1.183.832 2.142 1.857 2.142h11.145c1.026 0 1.858-.959 1.858-2.142 0-1.182-.832-2.141-1.858-2.141z"
                fill="#3202F2" stroke="#1E1E1E" stroke-width="2" mask="url(#n)" />
            <mask id="o" fill="#fff">
                <path
                    d="M143.9 83.904c-1.026 0-1.858.96-1.858 2.142v12.847c0 1.183.832 2.142 1.858 2.142 1.025 0 1.857-.959 1.857-2.142V86.046c0-1.183-.832-2.142-1.857-2.142z" />
            </mask>
            <path
                d="M143.9 83.904c-1.026 0-1.858.96-1.858 2.142v12.847c0 1.183.832 2.142 1.858 2.142 1.025 0 1.857-.959 1.857-2.142V86.046c0-1.183-.832-2.142-1.857-2.142z"
                fill="#3202F2" stroke="#1E1E1E" stroke-width="2" mask="url(#o)" />
            <mask id="p" fill="#fff">
                <path
                    d="M132.754 90.328h1.858v2.142c0 1.182.832 2.14 1.857 2.14 1.026 0 1.858-.958 1.858-2.14v-4.282c0-1.184-.832-2.142-1.858-2.142v-2.142c0-1.182-.831-2.14-1.857-2.14s-1.858.958-1.858 2.14v2.142c-1.025 0-1.857.958-1.857 2.141s.832 2.141 1.857 2.141z" />
            </mask>
            <path
                d="M132.754 90.328h1.858v2.142c0 1.182.832 2.14 1.857 2.14 1.026 0 1.858-.958 1.858-2.14v-4.282c0-1.184-.832-2.142-1.858-2.142v-2.142c0-1.182-.831-2.14-1.857-2.14s-1.858.958-1.858 2.14v2.142c-1.025 0-1.857.958-1.857 2.141s.832 2.141 1.857 2.141z"
                fill="#3202F2" stroke="#1E1E1E" stroke-width="2" mask="url(#p)" />
            <mask id="q" fill="#fff">
                <path
                    d="M121.61 81.763h3.715c1.026 0 1.858-.959 1.858-2.142h1.857c1.026 0 1.858-.958 1.858-2.14 0-1.184-.832-2.142-1.858-2.142h-1.857c0-1.182-.832-2.141-1.858-2.141-1.025 0-1.857.959-1.857 2.14v2.143h-1.858c-1.025 0-1.857.958-1.857 2.14 0 1.183.832 2.142 1.857 2.142z" />
            </mask>
            <path
                d="M121.61 81.763h3.715c1.026 0 1.858-.959 1.858-2.142h1.857c1.026 0 1.858-.958 1.858-2.14 0-1.184-.832-2.142-1.858-2.142h-1.857c0-1.182-.832-2.141-1.858-2.141-1.025 0-1.857.959-1.857 2.14v2.143h-1.858c-1.025 0-1.857.958-1.857 2.14 0 1.183.832 2.142 1.857 2.142z"
                fill="#3202F2" stroke="#1E1E1E" stroke-width="2" mask="url(#q)" />
            <mask id="r" fill="#fff">
                <path
                    d="M123.468 96.752c0-1.183-.832-2.142-1.858-2.142h-3.715c-1.025 0-1.857.959-1.857 2.142 0 1.182.832 2.14 1.857 2.14h3.715c1.026 0 1.858-.958 1.858-2.14z" />
            </mask>
            <path
                d="M123.468 96.752c0-1.183-.832-2.142-1.858-2.142h-3.715c-1.025 0-1.857.959-1.857 2.142 0 1.182.832 2.14 1.857 2.14h3.715c1.026 0 1.858-.958 1.858-2.14z"
                fill="#3202F2" stroke="#1E1E1E" stroke-width="2" mask="url(#r)" />
            <mask id="s" fill="#fff">
                <path
                    d="M125.325 88.187v4.282c0 1.182.831 2.14 1.858 2.14 1.025 0 1.857-.958 1.857-2.14v-4.282c0-1.183-.832-2.142-1.857-2.142-1.027 0-1.858.959-1.858 2.142z" />
            </mask>
            <path
                d="M125.325 88.187v4.282c0 1.182.831 2.14 1.858 2.14 1.025 0 1.857-.958 1.857-2.14v-4.282c0-1.183-.832-2.142-1.857-2.142-1.027 0-1.858.959-1.858 2.142z"
                fill="#3202F2" stroke="#1E1E1E" stroke-width="2" mask="url(#s)" />
            <mask id="t" fill="#fff">
                <path
                    d="M140.184 105.317v-4.283c0-1.183-.832-2.141-1.857-2.141-1.026 0-1.858.958-1.858 2.141v4.283c0 1.182.832 2.141 1.858 2.141 1.025 0 1.857-.959 1.857-2.141z" />
            </mask>
            <path
                d="M140.184 105.317v-4.283c0-1.183-.832-2.141-1.857-2.141-1.026 0-1.858.958-1.858 2.141v4.283c0 1.182.832 2.141 1.858 2.141 1.025 0 1.857-.959 1.857-2.141z"
                fill="#3202F2" stroke="#1E1E1E" stroke-width="2" mask="url(#t)" />
            <mask id="u" fill="#fff">
                <path
                    d="M134.612 94.61h-3.715c-1.026 0-1.857.959-1.857 2.142 0 1.182.831 2.14 1.857 2.14h3.715c1.026 0 1.857-.958 1.857-2.14 0-1.183-.831-2.142-1.857-2.142z" />
            </mask>
            <path
                d="M134.612 94.61h-3.715c-1.026 0-1.857.959-1.857 2.142 0 1.182.831 2.14 1.857 2.14h3.715c1.026 0 1.857-.958 1.857-2.14 0-1.183-.831-2.142-1.857-2.142z"
                fill="#3202F2" stroke="#1E1E1E" stroke-width="2" mask="url(#u)" />
        </g>
    </g>
    <defs>
        <filter id="filter0_d" x=".997" y=".638" width="225.164" height="192.964" filterUnits="userSpaceOnUse"
            color-interpolation-filters="sRGB">
            <feFlood flood-opacity="0" result="BackgroundImageFix" />
            <feColorMatrix in="SourceAlpha" values="0 0 0 0 0 0 0 0 0 0 0 0 0 0 0 0 0 0 127 0" />
            <feOffset dy="4" />
            <feGaussianBlur stdDeviation="2" />
            <feColorMatrix values="0 0 0 0 0 0 0 0 0 0 0 0 0 0 0 0 0 0 0.25 0" />
            <feBlend in2="BackgroundImageFix" result="effect1_dropShadow" />
            <feBlend in="SourceGraphic" in2="effect1_dropShadow" result="shape" />
        </filter>
        <filter id="filter1_d" x="86.033" y="26.09" width="78.584" height="136.475" filterUnits="userSpaceOnUse"
            color-interpolation-filters="sRGB">
            <feFlood flood-opacity="0" result="BackgroundImageFix" />
            <feColorMatrix in="SourceAlpha" values="0 0 0 0 0 0 0 0 0 0 0 0 0 0 0 0 0 0 127 0" />
            <feOffset dy="4" />
            <feGaussianBlur stdDeviation="2" />
            <feColorMatrix values="0 0 0 0 0 0 0 0 0 0 0 0 0 0 0 0 0 0 0.25 0" />
            <feBlend in2="BackgroundImageFix" result="effect1_dropShadow" />
            <feBlend in="SourceGraphic" in2="effect1_dropShadow" result="shape" />
        </filter>
        <linearGradient id="paint0_linear" x1="207.36" y1="68.182" x2="48.519" y2="102.616"
            gradientUnits="userSpaceOnUse">
            <stop stop-color="#3400FE" />
            <stop offset="1" stop-opacity="0" />
        </linearGradient>
    </defs>
</svg>