<svg id="a" width="181" height="155" viewBox="0 -10 181 190" fill="none" xmlns="http://www.w3.org/2000/svg">

    <g>

        <g filter="url(#filter0_d)">
            <mask id="c" fill="#fff">
                <path
                    d="M34.661 33.946a3 3 0 011.639-2.673l59.428-30.26A3 3 0 0198.365.97l64.52 30.326a2.999 2.999 0 011.724 2.715v79.92a3 3 0 01-1.742 2.724l-64.521 29.782a3.002 3.002 0 01-2.6-.04L36.32 116.681a3 3 0 01-1.658-2.683V33.946z" />
            </mask>
            <path
                d="M34.661 33.946a3 3 0 011.639-2.673l59.428-30.26A3 3 0 0198.365.97l64.52 30.326a2.999 2.999 0 011.724 2.715v79.92a3 3 0 01-1.742 2.724l-64.521 29.782a3.002 3.002 0 01-2.6-.04L36.32 116.681a3 3 0 01-1.658-2.683V33.946z"
                stroke="url(#paint0_linear)" stroke-width="4" mask="url(#c)" />
        </g>
        <g filter="url(#filter1_d)">
            <mask id="d" fill="#fff">
                <path
                    d="M72.205 41.306a1.554 1.554 0 000-2.128 1.39 1.39 0 00-2.032 0c-16.245 17.017-16.245 44.708 0 61.725.282.294.65.441 1.016.441a1.4 1.4 0 001.016-.441 1.554 1.554 0 000-2.128c-15.125-15.845-15.125-41.625 0-57.47z" />
            </mask>
            <path
                d="M72.205 41.306a1.554 1.554 0 000-2.128 1.39 1.39 0 00-2.032 0c-16.245 17.017-16.245 44.708 0 61.725.282.294.65.441 1.016.441a1.4 1.4 0 001.016-.441 1.554 1.554 0 000-2.128c-15.125-15.845-15.125-41.625 0-57.47z"
                fill="#A16AFC" stroke="#1E1E1E" stroke-width="1.5" mask="url(#d)" />
            <mask id="e" fill="#fff">
                <path
                    d="M129.096 39.178a1.389 1.389 0 00-2.031 0 1.554 1.554 0 000 2.128c7.316 7.662 11.344 17.867 11.344 28.734 0 10.869-4.028 21.073-11.344 28.735a1.553 1.553 0 000 2.128c.28.294.648.441 1.016.441.367 0 .735-.147 1.015-.441 7.859-8.23 12.185-19.19 12.185-30.863 0-11.671-4.326-22.631-12.185-30.862z" />
            </mask>
            <path
                d="M129.096 39.178a1.389 1.389 0 00-2.031 0 1.554 1.554 0 000 2.128c7.316 7.662 11.344 17.867 11.344 28.734 0 10.869-4.028 21.073-11.344 28.735a1.553 1.553 0 000 2.128c.28.294.648.441 1.016.441.367 0 .735-.147 1.015-.441 7.859-8.23 12.185-19.19 12.185-30.863 0-11.671-4.326-22.631-12.185-30.862z"
                fill="#A16AFC" stroke="#1E1E1E" stroke-width="1.5" mask="url(#e)" />
            <mask id="f" fill="#fff">
                <path
                    d="M78.302 47.69a1.554 1.554 0 000-2.128 1.39 1.39 0 00-2.032 0c-12.884 13.498-12.884 35.46 0 48.955a1.4 1.4 0 001.016.441 1.4 1.4 0 001.016-.44 1.554 1.554 0 000-2.129c-11.764-12.323-11.764-32.374 0-44.699z" />
            </mask>
            <path
                d="M78.302 47.69a1.554 1.554 0 000-2.128 1.39 1.39 0 00-2.032 0c-12.884 13.498-12.884 35.46 0 48.955a1.4 1.4 0 001.016.441 1.4 1.4 0 001.016-.44 1.554 1.554 0 000-2.129c-11.764-12.323-11.764-32.374 0-44.699z"
                fill="#A16AFC" stroke="#1E1E1E" stroke-width="1.5" mask="url(#f)" />
            <mask id="g" fill="#fff">
                <path
                    d="M123.002 45.562a1.39 1.39 0 00-2.032 0 1.554 1.554 0 000 2.128c11.764 12.324 11.764 32.376 0 44.7a1.554 1.554 0 000 2.127 1.4 1.4 0 001.016.441 1.4 1.4 0 001.016-.44c12.884-13.496 12.884-35.458 0-48.956z" />
            </mask>
            <path
                d="M123.002 45.562a1.39 1.39 0 00-2.032 0 1.554 1.554 0 000 2.128c11.764 12.324 11.764 32.376 0 44.7a1.554 1.554 0 000 2.127 1.4 1.4 0 001.016.441 1.4 1.4 0 001.016-.44c12.884-13.496 12.884-35.458 0-48.956z"
                fill="#A16AFC" stroke="#1E1E1E" stroke-width="1.5" mask="url(#g)" />
            <mask id="h" fill="#fff">
                <path
                    d="M84.397 51.948a1.39 1.39 0 00-2.032 0c-4.606 4.826-7.143 11.25-7.143 18.093 0 6.842 2.537 13.265 7.143 18.092a1.4 1.4 0 001.016.441 1.4 1.4 0 001.016-.44 1.554 1.554 0 000-2.129c-8.404-8.803-8.404-23.124 0-31.927a1.56 1.56 0 000-2.13z" />
            </mask>
            <path
                d="M84.397 51.948a1.39 1.39 0 00-2.032 0c-4.606 4.826-7.143 11.25-7.143 18.093 0 6.842 2.537 13.265 7.143 18.092a1.4 1.4 0 001.016.441 1.4 1.4 0 001.016-.44 1.554 1.554 0 000-2.129c-8.404-8.803-8.404-23.124 0-31.927a1.56 1.56 0 000-2.13z"
                fill="#A16AFC" stroke="#1E1E1E" stroke-width="1.5" mask="url(#h)" />
            <mask id="i" fill="#fff">
                <path
                    d="M116.906 51.948a1.39 1.39 0 00-2.031 0 1.554 1.554 0 000 2.129c8.403 8.803 8.403 23.123 0 31.927a1.554 1.554 0 000 2.128 1.4 1.4 0 001.016.44c.368 0 .735-.147 1.015-.44 4.607-4.826 7.144-11.25 7.144-18.093 0-6.842-2.537-13.265-7.144-18.09z" />
            </mask>
            <path
                d="M116.906 51.948a1.39 1.39 0 00-2.031 0 1.554 1.554 0 000 2.129c8.403 8.803 8.403 23.123 0 31.927a1.554 1.554 0 000 2.128 1.4 1.4 0 001.016.44c.368 0 .735-.147 1.015-.44 4.607-4.826 7.144-11.25 7.144-18.093 0-6.842-2.537-13.265-7.144-18.09z"
                fill="#A16AFC" stroke="#1E1E1E" stroke-width="1.5" mask="url(#i)" />
            <mask id="j" fill="#fff">
                <path
                    d="M99.634 59.808c-5.544 0-10.057 4.727-10.057 10.535 0 5.296 3.756 9.68 8.62 10.415v45.272c0 .833.643 1.505 1.437 1.505.795 0 1.437-.672 1.437-1.505V80.758c4.865-.734 8.62-5.119 8.62-10.415 0-5.808-4.511-10.535-10.057-10.535zm0 18.06c-3.96 0-7.183-3.375-7.183-7.525s3.222-7.525 7.183-7.525 7.184 3.376 7.184 7.525c0 4.15-3.223 7.525-7.184 7.525z" />
            </mask>
            <path
                d="M99.634 59.808c-5.544 0-10.057 4.727-10.057 10.535 0 5.296 3.756 9.68 8.62 10.415v45.272c0 .833.643 1.505 1.437 1.505.795 0 1.437-.672 1.437-1.505V80.758c4.865-.734 8.62-5.119 8.62-10.415 0-5.808-4.511-10.535-10.057-10.535zm0 18.06c-3.96 0-7.183-3.375-7.183-7.525s3.222-7.525 7.183-7.525 7.184 3.376 7.184 7.525c0 4.15-3.223 7.525-7.184 7.525z"
                fill="#A16AFC" stroke="#1E1E1E" stroke-width="1.5" mask="url(#j)" />
        </g>
    </g>
    <defs>
        <filter id="filter0_d" x=".691" y=".686" width="179.615" height="154.029" filterUnits="userSpaceOnUse"
            color-interpolation-filters="sRGB">
            <feFlood flood-opacity="0" result="BackgroundImageFix" />
            <feColorMatrix in="SourceAlpha" values="0 0 0 0 0 0 0 0 0 0 0 0 0 0 0 0 0 0 127 0" />
            <feOffset dy="4" />
            <feGaussianBlur stdDeviation="2" />
            <feColorMatrix values="0 0 0 0 0 0 0 0 0 0 0 0 0 0 0 0 0 0 0.25 0" />
            <feBlend in2="BackgroundImageFix" result="effect1_dropShadow" />
            <feBlend in="SourceGraphic" in2="effect1_dropShadow" result="shape" />
        </filter>
        <filter id="filter1_d" x="53.989" y="38.736" width="91.292" height="96.799" filterUnits="userSpaceOnUse"
            color-interpolation-filters="sRGB">
            <feFlood flood-opacity="0" result="BackgroundImageFix" />
            <feColorMatrix in="SourceAlpha" values="0 0 0 0 0 0 0 0 0 0 0 0 0 0 0 0 0 0 127 0" />
            <feOffset dy="4" />
            <feGaussianBlur stdDeviation="2" />
            <feColorMatrix values="0 0 0 0 0 0 0 0 0 0 0 0 0 0 0 0 0 0 0.25 0" />
            <feBlend in2="BackgroundImageFix" result="effect1_dropShadow" />
            <feBlend in="SourceGraphic" in2="effect1_dropShadow" result="shape" />
        </filter>
        <linearGradient id="paint0_linear" x1="164.609" y1="53.991" x2="39.084" y2="81.203"
            gradientUnits="userSpaceOnUse">
            <stop stop-opacity="0" />
            <stop offset=".771" stop-color="#A16AFC" />
        </linearGradient>
    </defs>
</svg>