<svg id="a" width="165" height="142" viewBox="0 -30 165 192" fill="none" xmlns="http://www.w3.org/2000/svg">

    <g>

        <g filter="url(#filter0_d)">
            <mask id="c" fill="#fff">
                <path
                    d="M31.628 30.78a3 3 0 011.639-2.674L87.155.666a3 3 0 012.637-.041l58.519 27.505a3 3 0 011.724 2.715v72.483a3 3 0 01-1.743 2.723l-58.52 27.013a2.999 2.999 0 01-2.599-.041l-53.887-26.947a3 3 0 01-1.658-2.683V30.779z" />
            </mask>
            <path
                d="M31.628 30.78a3 3 0 011.639-2.674L87.155.666a3 3 0 012.637-.041l58.519 27.505a3 3 0 011.724 2.715v72.483a3 3 0 01-1.743 2.723l-58.52 27.013a2.999 2.999 0 01-2.599-.041l-53.887-26.947a3 3 0 01-1.658-2.683V30.779z"
                stroke="url(#paint0_linear)" stroke-width="4" mask="url(#c)" />
        </g>
        <g filter="url(#filter1_d)">
            <mask id="d" fill="#fff">
                <path
                    d="M118.693 42.898c-.931-1.193-2.326-1.85-3.928-1.85-.871 0-1.794.192-2.742.571L47.478 67.43c-3.425 1.37-3.886 3.425-3.857 4.528.03 1.103.602 3.128 4.096 4.292l.063.02 13.388 4.013 7.24 21.689c.988 2.957 3.204 4.794 5.784 4.794 1.627 0 3.228-.714 4.629-2.065l8.28-7.987 12.012 10.131.004.003.114.097a.73.73 0 01.032.026c1.335 1.085 2.792 1.657 4.216 1.658h.001c2.781 0 4.996-2.157 5.641-5.494l10.575-54.703c.425-2.196.069-4.16-1.003-5.533zM65.647 79.52l25.83-13.823-16.084 17.902a2.37 2.37 0 00-.542 1.043l-3.101 13.16-6.103-18.282zm10.147 21.737a4.346 4.346 0 01-.323.28l2.878-12.208 5.234 4.415-7.79 7.513zm39.524-53.756l-10.576 54.704c-.102.524-.427 1.742-1.263 1.742-.413 0-.932-.236-1.463-.664l-13.61-11.48a.031.031 0 00-.007-.005L80.3 84.966l23.259-25.89a2.425 2.425 0 00.16-3.008c-.652-.91-1.835-1.197-2.803-.679L62.662 75.862l-13.57-4.068 64.525-25.802c.545-.218.925-.264 1.148-.264.137 0 .38.017.47.133.119.152.27.67.083 1.64z" />
            </mask>
            <path
                d="M118.693 42.898c-.931-1.193-2.326-1.85-3.928-1.85-.871 0-1.794.192-2.742.571L47.478 67.43c-3.425 1.37-3.886 3.425-3.857 4.528.03 1.103.602 3.128 4.096 4.292l.063.02 13.388 4.013 7.24 21.689c.988 2.957 3.204 4.794 5.784 4.794 1.627 0 3.228-.714 4.629-2.065l8.28-7.987 12.012 10.131.004.003.114.097a.73.73 0 01.032.026c1.335 1.085 2.792 1.657 4.216 1.658h.001c2.781 0 4.996-2.157 5.641-5.494l10.575-54.703c.425-2.196.069-4.16-1.003-5.533zM65.647 79.52l25.83-13.823-16.084 17.902a2.37 2.37 0 00-.542 1.043l-3.101 13.16-6.103-18.282zm10.147 21.737a4.346 4.346 0 01-.323.28l2.878-12.208 5.234 4.415-7.79 7.513zm39.524-53.756l-10.576 54.704c-.102.524-.427 1.742-1.263 1.742-.413 0-.932-.236-1.463-.664l-13.61-11.48a.031.031 0 00-.007-.005L80.3 84.966l23.259-25.89a2.425 2.425 0 00.16-3.008c-.652-.91-1.835-1.197-2.803-.679L62.662 75.862l-13.57-4.068 64.525-25.802c.545-.218.925-.264 1.148-.264.137 0 .38.017.47.133.119.152.27.67.083 1.64z"
                fill="#A16AFC" />
            <path
                d="M118.693 42.898c-.931-1.193-2.326-1.85-3.928-1.85-.871 0-1.794.192-2.742.571L47.478 67.43c-3.425 1.37-3.886 3.425-3.857 4.528.03 1.103.602 3.128 4.096 4.292l.063.02 13.388 4.013 7.24 21.689c.988 2.957 3.204 4.794 5.784 4.794 1.627 0 3.228-.714 4.629-2.065l8.28-7.987 12.012 10.131.004.003.114.097a.73.73 0 01.032.026c1.335 1.085 2.792 1.657 4.216 1.658h.001c2.781 0 4.996-2.157 5.641-5.494l10.575-54.703c.425-2.196.069-4.16-1.003-5.533zM65.647 79.52l25.83-13.823-16.084 17.902a2.37 2.37 0 00-.542 1.043l-3.101 13.16-6.103-18.282zm10.147 21.737a4.346 4.346 0 01-.323.28l2.878-12.208 5.234 4.415-7.79 7.513zm39.524-53.756l-10.576 54.704c-.102.524-.427 1.742-1.263 1.742-.413 0-.932-.236-1.463-.664l-13.61-11.48a.031.031 0 00-.007-.005L80.3 84.966l23.259-25.89a2.425 2.425 0 00.16-3.008c-.652-.91-1.835-1.197-2.803-.679L62.662 75.862l-13.57-4.068 64.525-25.802c.545-.218.925-.264 1.148-.264.137 0 .38.017.47.133.119.152.27.67.083 1.64z"
                stroke="#1E1E1E" stroke-width="3.5" mask="url(#d)" />
        </g>
    </g>
    <defs>
        <filter id="filter0_d" x=".319" y=".34" width="164.374" height="141" filterUnits="userSpaceOnUse"
            color-interpolation-filters="sRGB">
            <feFlood flood-opacity="0" result="BackgroundImageFix" />
            <feColorMatrix in="SourceAlpha" values="0 0 0 0 0 0 0 0 0 0 0 0 0 0 0 0 0 0 127 0" />
            <feOffset dy="4" />
            <feGaussianBlur stdDeviation="2" />
            <feColorMatrix values="0 0 0 0 0 0 0 0 0 0 0 0 0 0 0 0 0 0 0.25 0" />
            <feBlend in2="BackgroundImageFix" result="effect1_dropShadow" />
            <feBlend in="SourceGraphic" in2="effect1_dropShadow" result="shape" />
        </filter>
        <filter id="filter1_d" x="39.62" y="41.048" width="84.251" height="75.58" filterUnits="userSpaceOnUse"
            color-interpolation-filters="sRGB">
            <feFlood flood-opacity="0" result="BackgroundImageFix" />
            <feColorMatrix in="SourceAlpha" values="0 0 0 0 0 0 0 0 0 0 0 0 0 0 0 0 0 0 127 0" />
            <feOffset dy="4" />
            <feGaussianBlur stdDeviation="2" />
            <feColorMatrix values="0 0 0 0 0 0 0 0 0 0 0 0 0 0 0 0 0 0 0.25 0" />
            <feBlend in2="BackgroundImageFix" result="effect1_dropShadow" />
            <feBlend in="SourceGraphic" in2="effect1_dropShadow" result="shape" />
        </filter>
        <linearGradient id="paint0_linear" x1="150.035" y1="48.881" x2="35.658" y2="73.676"
            gradientUnits="userSpaceOnUse">
            <stop stop-opacity="0" />
            <stop offset=".625" stop-color="#A16AFC" />
        </linearGradient>
    </defs>
</svg>