<svg
  id="a"
  width="277"
  height="238"
  viewBox="0 -38 277 287"
  fill="none"
  xmlns="http://www.w3.org/2000/svg"
>
  <g>
    <g filter="url(#filter0_d)">
      <mask id="c" fill="#fff">
        <path
          d="M197.031 116.197h-7.529l-41.119-28.722-3.095 4.861 34.175 23.861h-44.847l-6.055-12.684a8.576 8.576 0 00-3.08-3.542 8.037 8.037 0 00-4.402-1.302h-3.195a5.384 5.384 0 00-2.723.739 5.703 5.703 0 00-2.032 2.036 6.04 6.04 0 00-.826 2.817 6.072 6.072 0 00.592 2.88l4.331 9.056H76.054l-4.79-10.07a2.884 2.884 0 00-1.035-1.183 2.698 2.698 0 00-1.476-.432H57.6c-.476 0-.943.127-1.358.369a2.845 2.845 0 00-1.015 1.016 3.036 3.036 0 00-.123 2.842l5.284 11.069v40.208c0 2.325.882 4.554 2.45 6.197 1.57 1.644 3.698 2.567 5.916 2.567h8.59c.666 4.864 2.984 9.312 6.529 12.53 3.544 3.218 8.078 4.989 12.768 4.989 4.69 0 9.223-1.771 12.768-4.989 3.544-3.218 5.862-7.666 6.529-12.53h50.642c.667 4.864 2.985 9.312 6.529 12.53 3.545 3.218 8.078 4.989 12.768 4.989 4.691 0 9.224-1.771 12.768-4.989 3.545-3.218 5.863-7.666 6.53-12.53h8.589c2.219 0 4.347-.923 5.915-2.567 1.569-1.643 2.451-3.872 2.451-6.197v-17.527c-.008-6.971-2.654-13.654-7.359-18.583-4.705-4.929-11.085-7.701-17.739-7.709zm17.61 17.528a20.957 20.957 0 011.687 5.842h-10.931v-5.842h9.244zm-96.766-29.213h3.196c.518 0 1.025.152 1.466.437.44.285.796.693 1.027 1.178l4.816 10.07h-4.919l-5.586-11.685zm-50.845 5.843l2.789 5.842h-4.92l-2.788-5.842h4.919zm-1.065 49.661v-26.291h8.366v-5.843h-8.366v-5.842h54.049l19.521 40.897h-23.598c-.667-4.863-2.985-9.312-6.529-12.53-3.545-3.218-8.078-4.989-12.768-4.989-4.69 0-9.224 1.771-12.768 4.989-3.545 3.218-5.863 7.667-6.53 12.53h-8.589c-.74 0-1.448-.307-1.972-.855a2.994 2.994 0 01-.816-2.066zm30.675 20.449c-2.758 0-5.454-.857-7.747-2.461-2.293-1.605-4.08-3.887-5.135-6.556a15.252 15.252 0 01-.793-8.439c.537-2.833 1.865-5.436 3.816-7.479 1.95-2.042 4.434-3.433 7.139-3.997a13.358 13.358 0 018.056.831c2.547 1.106 4.725 2.978 6.257 5.38a15.106 15.106 0 012.35 8.115c-.004 3.872-1.475 7.585-4.089 10.323-2.614 2.738-6.158 4.279-9.854 4.283zm89.236 0c-2.757 0-5.453-.857-7.746-2.461-2.293-1.605-4.08-3.887-5.135-6.556a15.246 15.246 0 01-.794-8.439c.538-2.833 1.866-5.436 3.816-7.479 1.95-2.042 4.435-3.433 7.139-3.997a13.357 13.357 0 018.056.831c2.548 1.106 4.726 2.978 6.258 5.38a15.106 15.106 0 012.35 8.115c-.005 3.872-1.475 7.585-4.089 10.323-2.614 2.738-6.158 4.279-9.855 4.283zm27.887-17.528h-8.589c-.667-4.863-2.985-9.312-6.53-12.53-3.544-3.218-8.077-4.989-12.768-4.989-4.69 0-9.223 1.771-12.768 4.989-3.544 3.218-5.862 7.667-6.529 12.53H145.77l-19.52-40.897h70.781c5.1-.002 9.997 2.097 13.634 5.842h-5.268a5.455 5.455 0 00-3.944 1.711 5.987 5.987 0 00-1.633 4.132v5.842c0 1.55.587 3.036 1.633 4.132a5.455 5.455 0 003.944 1.711h11.155v5.842h-8.366v5.843h8.366v2.921c0 .775-.294 1.518-.817 2.066a2.726 2.726 0 01-1.972.855z"
        />
      </mask>
      <path
        d="M197.031 116.197h-7.529l-41.119-28.722-3.095 4.861 34.175 23.861h-44.847l-6.055-12.684a8.576 8.576 0 00-3.08-3.542 8.037 8.037 0 00-4.402-1.302h-3.195a5.384 5.384 0 00-2.723.739 5.703 5.703 0 00-2.032 2.036 6.04 6.04 0 00-.826 2.817 6.072 6.072 0 00.592 2.88l4.331 9.056H76.054l-4.79-10.07a2.884 2.884 0 00-1.035-1.183 2.698 2.698 0 00-1.476-.432H57.6c-.476 0-.943.127-1.358.369a2.845 2.845 0 00-1.015 1.016 3.036 3.036 0 00-.123 2.842l5.284 11.069v40.208c0 2.325.882 4.554 2.45 6.197 1.57 1.644 3.698 2.567 5.916 2.567h8.59c.666 4.864 2.984 9.312 6.529 12.53 3.544 3.218 8.078 4.989 12.768 4.989 4.69 0 9.223-1.771 12.768-4.989 3.544-3.218 5.862-7.666 6.529-12.53h50.642c.667 4.864 2.985 9.312 6.529 12.53 3.545 3.218 8.078 4.989 12.768 4.989 4.691 0 9.224-1.771 12.768-4.989 3.545-3.218 5.863-7.666 6.53-12.53h8.589c2.219 0 4.347-.923 5.915-2.567 1.569-1.643 2.451-3.872 2.451-6.197v-17.527c-.008-6.971-2.654-13.654-7.359-18.583-4.705-4.929-11.085-7.701-17.739-7.709zm17.61 17.528a20.957 20.957 0 011.687 5.842h-10.931v-5.842h9.244zm-96.766-29.213h3.196c.518 0 1.025.152 1.466.437.44.285.796.693 1.027 1.178l4.816 10.07h-4.919l-5.586-11.685zm-50.845 5.843l2.789 5.842h-4.92l-2.788-5.842h4.919zm-1.065 49.661v-26.291h8.366v-5.843h-8.366v-5.842h54.049l19.521 40.897h-23.598c-.667-4.863-2.985-9.312-6.529-12.53-3.545-3.218-8.078-4.989-12.768-4.989-4.69 0-9.224 1.771-12.768 4.989-3.545 3.218-5.863 7.667-6.53 12.53h-8.589c-.74 0-1.448-.307-1.972-.855a2.994 2.994 0 01-.816-2.066zm30.675 20.449c-2.758 0-5.454-.857-7.747-2.461-2.293-1.605-4.08-3.887-5.135-6.556a15.252 15.252 0 01-.793-8.439c.537-2.833 1.865-5.436 3.816-7.479 1.95-2.042 4.434-3.433 7.139-3.997a13.358 13.358 0 018.056.831c2.547 1.106 4.725 2.978 6.257 5.38a15.106 15.106 0 012.35 8.115c-.004 3.872-1.475 7.585-4.089 10.323-2.614 2.738-6.158 4.279-9.854 4.283zm89.236 0c-2.757 0-5.453-.857-7.746-2.461-2.293-1.605-4.08-3.887-5.135-6.556a15.246 15.246 0 01-.794-8.439c.538-2.833 1.866-5.436 3.816-7.479 1.95-2.042 4.435-3.433 7.139-3.997a13.357 13.357 0 018.056.831c2.548 1.106 4.726 2.978 6.258 5.38a15.106 15.106 0 012.35 8.115c-.005 3.872-1.475 7.585-4.089 10.323-2.614 2.738-6.158 4.279-9.855 4.283zm27.887-17.528h-8.589c-.667-4.863-2.985-9.312-6.53-12.53-3.544-3.218-8.077-4.989-12.768-4.989-4.69 0-9.223 1.771-12.768 4.989-3.544 3.218-5.862 7.667-6.529 12.53H145.77l-19.52-40.897h70.781c5.1-.002 9.997 2.097 13.634 5.842h-5.268a5.455 5.455 0 00-3.944 1.711 5.987 5.987 0 00-1.633 4.132v5.842c0 1.55.587 3.036 1.633 4.132a5.455 5.455 0 003.944 1.711h11.155v5.842h-8.366v5.843h8.366v2.921c0 .775-.294 1.518-.817 2.066a2.726 2.726 0 01-1.972.855z"
        fill="#3400FE"
        stroke="#1E1E1E"
        stroke-width="2"
        mask="url(#c)"
      />
      <path
        d="M138.47 127.882h11.154v5.842H138.47v-5.842zm-44.619 35.056h5.578v5.842H93.85v-5.842zm89.237 0h5.577v5.842h-5.577v-5.842z"
        fill="#3400FE"
      />
    </g>
    <g filter="url(#filter1_d)">
      <mask id="d" fill="#fff">
        <path
          d="M51.402 52.091a3 3 0 011.639-2.673l94.315-48.025a3 3 0 012.637-.042l102.315 48.09a3 3 0 011.724 2.716v126.759a3 3 0 01-1.743 2.724l-102.315 47.228a3 3 0 01-2.6-.041L53.06 181.665a3 3 0 01-1.658-2.683V52.091z"
        />
      </mask>
      <path
        d="M51.402 52.091a3 3 0 011.639-2.673l94.315-48.025a3 3 0 012.637-.042l102.315 48.09a3 3 0 011.724 2.716v126.759a3 3 0 01-1.743 2.724l-102.315 47.228a3 3 0 01-2.6-.041L53.06 181.665a3 3 0 01-1.658-2.683V52.091z"
        stroke="url(#paint0_linear)"
        stroke-width="4"
        mask="url(#d)"
      />
    </g>
  </g>
  <defs>
    <filter
      id="filter0_d"
      x="50.809"
      y="87.475"
      width="175.32"
      height="106.824"
      filterUnits="userSpaceOnUse"
      color-interpolation-filters="sRGB"
    >
      <feFlood flood-opacity="0" result="BackgroundImageFix" />
      <feColorMatrix
        in="SourceAlpha"
        values="0 0 0 0 0 0 0 0 0 0 0 0 0 0 0 0 0 0 127 0"
      />
      <feOffset dy="4" />
      <feGaussianBlur stdDeviation="2" />
      <feColorMatrix values="0 0 0 0 0 0 0 0 0 0 0 0 0 0 0 0 0 0 0.25 0" />
      <feBlend in2="BackgroundImageFix" result="effect1_dropShadow" />
      <feBlend in="SourceGraphic" in2="effect1_dropShadow" result="shape" />
    </filter>
    <filter
      id="filter1_d"
      x=".668"
      y="1.066"
      width="275.602"
      height="236.078"
      filterUnits="userSpaceOnUse"
      color-interpolation-filters="sRGB"
    >
      <feFlood flood-opacity="0" result="BackgroundImageFix" />
      <feColorMatrix
        in="SourceAlpha"
        values="0 0 0 0 0 0 0 0 0 0 0 0 0 0 0 0 0 0 127 0"
      />
      <feOffset dy="4" />
      <feGaussianBlur stdDeviation="2" />
      <feColorMatrix values="0 0 0 0 0 0 0 0 0 0 0 0 0 0 0 0 0 0 0.25 0" />
      <feBlend in2="BackgroundImageFix" result="effect1_dropShadow" />
      <feBlend in="SourceGraphic" in2="effect1_dropShadow" result="shape" />
    </filter>
    <linearGradient
      id="paint0_linear"
      x1="254.032"
      y1="84.376"
      x2="58.298"
      y2="126.808"
      gradientUnits="userSpaceOnUse"
    >
      <stop stop-color="#3400FE" />
      <stop offset="1" stop-opacity="0" />
    </linearGradient>
  </defs>
</svg>
