<svg id="a" width="148" height="126" viewBox="0 -13 148 146" fill="none" xmlns="http://www.w3.org/2000/svg">

    <g>

        <g filter="url(#filter0_d)">
            <mask id="c" fill="#fff">
                <path
                    d="M28.132 28.111a3 3 0 011.639-2.673L76.623 1.581a3 3 0 012.637-.041l50.896 23.922a3 3 0 011.724 2.715v63.036a3 3 0 01-1.743 2.724L79.24 117.43a2.999 2.999 0 01-2.599-.041l-46.85-23.428a3 3 0 01-1.659-2.683V28.111z" />
            </mask>
            <path
                d="M28.132 28.111a3 3 0 011.639-2.673L76.623 1.581a3 3 0 012.637-.041l50.896 23.922a3 3 0 011.724 2.715v63.036a3 3 0 01-1.743 2.724L79.24 117.43a2.999 2.999 0 01-2.599-.041l-46.85-23.428a3 3 0 01-1.659-2.683V28.111z"
                stroke="url(#paint0_linear)" stroke-width="4" mask="url(#c)" />
        </g>
        <g filter="url(#filter1_d)">
            <path
                d="M51.105 51.993c1.656 0 3.18.228 4.572.684 1.392.456 2.592 1.14 3.6 2.052 1.008.888 1.788 2.016 2.34 3.384.576 1.344.864 2.916.864 4.716 0 2.136-.336 3.96-1.008 5.472-.672 1.488-1.584 2.712-2.736 3.672-1.128.936-2.46 1.62-3.996 2.052a17.348 17.348 0 01-4.788.648h-6.408v-22.68h7.56zm-3.708 19.584h2.232a14.1 14.1 0 003.204-.36 7.305 7.305 0 002.808-1.368c.816-.672 1.464-1.572 1.944-2.7.504-1.128.756-2.568.756-4.32 0-2.496-.72-4.404-2.16-5.724-1.416-1.344-3.324-2.016-5.724-2.016h-3.06v16.488zm24.785-3.708c0 1.44.468 2.52 1.404 3.24.936.72 2.196 1.08 3.78 1.08 1.08 0 2.076-.204 2.988-.612.936-.432 1.668-.972 2.196-1.62l-6.768-6.876a8.688 8.688 0 00-2.556 1.872c-.696.768-1.044 1.74-1.044 2.916zm-3.6.108c0-1.68.492-3.084 1.476-4.212 1.008-1.128 2.34-2.052 3.996-2.772-.6-.624-1.128-1.38-1.584-2.268a6.357 6.357 0 01-.684-2.88c0-.816.156-1.548.468-2.196a4.764 4.764 0 011.296-1.692 6.248 6.248 0 011.98-1.044 8.286 8.286 0 012.484-.36c.864 0 1.668.132 2.412.396.744.24 1.38.6 1.908 1.08a4.66 4.66 0 011.224 1.656c.312.624.468 1.308.468 2.052 0 1.272-.336 2.34-1.008 3.204a7.069 7.069 0 01-2.52 1.98l-1.728-1.98a3.439 3.439 0 001.332-1.224c.36-.528.54-1.14.54-1.836 0-.768-.252-1.404-.756-1.908s-1.152-.756-1.944-.756c-.864 0-1.536.24-2.016.72-.456.456-.684 1.08-.684 1.872 0 .984.276 1.896.828 2.736.552.816 1.356 1.764 2.412 2.844l5.94 6.048c.36-.6.708-1.308 1.044-2.124.36-.816.672-1.584.936-2.304l2.916 1.152c-.384 1.08-.816 2.1-1.296 3.06-.48.936-.948 1.74-1.404 2.412l4.968 5.04h-4.464l-2.592-2.664c-.672.768-1.644 1.464-2.916 2.088-1.272.6-2.832.9-4.68.9-1.272 0-2.424-.168-3.456-.504-1.008-.336-1.884-.804-2.628-1.404a6.717 6.717 0 01-1.692-2.232c-.384-.864-.576-1.824-.576-2.88zm39.382-16.344c2.64 0 4.848.444 6.624 1.332l-.864 2.844a12.163 12.163 0 00-2.628-.9 12.413 12.413 0 00-2.7-.288 9.273 9.273 0 00-2.952.468 6.533 6.533 0 00-2.448 1.512c-.696.696-1.26 1.596-1.692 2.7-.408 1.104-.612 2.46-.612 4.068 0 2.808.636 4.956 1.908 6.444 1.272 1.464 3.072 2.196 5.4 2.196.816 0 1.512-.036 2.088-.108a9.19 9.19 0 001.692-.432v-5.976h-4.104V62.54h7.74v11.124c-.96.384-2.04.708-3.24.972-1.2.264-2.604.396-4.212.396-1.584 0-3.072-.252-4.464-.756a10.266 10.266 0 01-3.636-2.232c-1.032-.984-1.848-2.196-2.448-3.636-.576-1.464-.864-3.144-.864-5.04s.288-3.576.864-5.04c.576-1.464 1.368-2.688 2.376-3.672a10.017 10.017 0 013.636-2.268c1.392-.504 2.904-.756 4.536-.756z"
                fill="#1E1E1E" />
            <path
                d="M55.677 52.677l-.312.95.312-.95zm3.6 2.052l-.671.741.01.009.66-.75zm2.34 3.384l-.928.374.004.01.004.01.92-.394zM61.473 68.3l.911.411.002-.005-.913-.406zm-2.736 3.672l.638.77.002-.002-.64-.768zm-3.996 2.052l-.271-.963-.004.001.275.962zm-11.196.648h-1v1h1v-1zm0-22.68v-1h-1v1h1zm3.852 19.584h-1v1h1v-1zm5.436-.36l.226.974.008-.002.008-.002-.242-.97zm2.808-1.368l.622.783.006-.006.007-.005-.635-.772zm1.944-2.7l-.913-.408-.004.008-.004.008.92.392zM56.18 57.105l-.689.725.007.006.006.006.676-.737zm-8.784-2.016v-1h-1v1h1zm3.708-2.096c1.564 0 2.98.215 4.26.634l.623-1.9c-1.505-.494-3.135-.734-4.883-.734v2zm4.26.634c1.27.416 2.344 1.032 3.24 1.843l1.343-1.483c-1.12-1.013-2.445-1.765-3.96-2.26l-.623 1.9zm3.25 1.852c.88.775 1.575 1.77 2.074 3.008l1.855-.749c-.604-1.498-1.47-2.759-2.606-3.76l-1.322 1.501zm2.082 3.028c.512 1.194.784 2.627.784 4.322h2c0-1.905-.305-3.617-.945-5.11l-1.839.788zm.784 4.322c0 2.035-.321 3.713-.922 5.065l1.827.813c.743-1.671 1.095-3.641 1.095-5.878h-2zm-.92 5.06c-.615 1.363-1.439 2.46-2.465 3.315l1.28 1.537c1.279-1.065 2.28-2.415 3.008-4.029l-1.823-.823zm-2.463 3.314c-1.011.839-2.215 1.462-3.628 1.859l.541 1.925c1.659-.466 3.12-1.212 4.364-2.245l-1.277-1.539zm-3.632 1.86c-1.417.405-2.92.61-4.513.61v2c1.766 0 3.455-.228 5.062-.687l-.55-1.923zm-4.513.61h-6.408v2h6.408v-2zm-5.408 1v-22.68h-2v22.68h2zm-1-21.68h7.56v-2h-7.56v2zm3.852 19.584h2.232v-2h-2.232v2zm2.232 0c1.177 0 2.32-.128 3.43-.386l-.453-1.948c-.955.222-1.947.334-2.977.334v2zm3.446-.39a8.304 8.304 0 003.188-1.555l-1.244-1.567c-.7.556-1.505.95-2.429 1.181l.485 1.94zm3.201-1.566c.959-.79 1.696-1.829 2.229-3.08l-1.84-.784c-.428 1.004-.986 1.765-1.66 2.32l1.271 1.544zm2.222-3.064c.58-1.299.843-2.89.843-4.728h-2c0 1.666-.242 2.954-.67 3.912l1.827.816zm.843-4.728c0-2.694-.784-4.903-2.485-6.462l-1.351 1.475c1.18 1.08 1.836 2.688 1.836 4.987h2zm-2.472-6.45c-1.642-1.558-3.818-2.29-6.412-2.29v2c2.205 0 3.846.612 5.035 1.74l1.377-1.45zm-6.412-2.29h-3.06v2h3.06v-2zm-4.06 1v16.488h2V55.089h-2zm27.189 16.02l.61-.793-.61.793zm6.768.468l.408.913.011-.005-.419-.908zm2.196-1.62l.775.631.566-.694-.628-.639-.713.702zm-6.768-6.876l.713-.702-.505-.512-.646.315.438.899zm-2.556 1.872l-.73-.684-.005.006-.006.006.741.672zm-3.168-1.188l-.746-.667-.007.01.753.657zm3.996-2.772l.399.917 1.319-.574-.997-1.036-.721.693zm-1.584-2.268l-.894.447.005.01.889-.457zm-.216-5.076l.901.434.006-.013-.907-.421zm1.296-1.692l-.62-.784-.009.006-.008.007.637.77zm1.98-1.044l-.298-.955-.009.003.307.952zm4.896.036l-.334.942.013.005.014.004.307-.951zm1.908 1.08l-.673.74.01.008.01.008.653-.756zm1.224 1.656l-.914.406.01.02.01.02.894-.446zm-.54 5.256l.781.624.008-.01-.789-.614zm-2.52 1.98l-.753.657.498.572.685-.326-.43-.903zm-1.728-1.98l-.462-.887-1.126.587.835.957.753-.657zm1.332-1.224l-.826-.564-.01.013-.008.014.844.537zm-.216-3.744l.707-.707-.707.707zm-3.96-.036l.707.707-.707-.707zm.144 4.608l-.836.549.008.01.828-.56zm2.412 2.844l-.715.699.002.001.713-.7zm5.94 6.048l-.713.7.905.923.665-1.109-.857-.514zm1.044-2.124l-.915-.404-.005.011-.005.012.925.38zm.936-2.304l.367-.93-.953-.377-.353.962.939.345zm2.916 1.152l.942.335.324-.91-.898-.355-.368.93zm-1.296 3.06l.89.456.004-.01-.894-.446zm-1.404 2.412l-.827-.562-.461.68.576.584.712-.702zm4.968 5.04v1h2.39l-1.678-1.702-.712.702zm-4.464 0l-.717.697.295.303h.422v-1zm-2.592-2.664l.717-.698-.756-.776-.713.815.752.659zm-2.916 2.088l.427.904.007-.003.007-.004-.441-.897zm-8.136.396l-.316.948.006.002.31-.95zm-2.628-1.404l-.655.755.014.012.013.011.628-.778zm-1.692-2.232l-.914.406.005.01.005.01.904-.426zm2.024-2.988c0 1.674.558 3.081 1.794 4.032l1.22-1.585c-.636-.489-1.014-1.242-1.014-2.447h-2zm1.794 4.032c1.162.894 2.66 1.288 4.39 1.288v-2c-1.438 0-2.46-.327-3.17-.873l-1.22 1.585zm4.39 1.288c1.21 0 2.346-.23 3.396-.7l-.816-1.825c-.774.346-1.63.525-2.58.525v2zm3.407-.704c1.043-.482 1.908-1.106 2.552-1.897l-1.55-1.263c-.412.506-1.01.96-1.84 1.344l.838 1.816zm2.49-3.23l-6.768-6.876-1.426 1.403 6.768 6.876 1.426-1.403zm-7.92-7.073a9.688 9.688 0 00-2.847 2.087l1.46 1.367a7.687 7.687 0 012.264-1.657l-.876-1.797zm-2.858 2.1c-.885.976-1.303 2.198-1.303 3.587h2c0-.964.278-1.686.785-2.245l-1.482-1.343zm-2.903 3.695c0-1.47.424-2.632 1.23-3.555l-1.507-1.315c-1.163 1.333-1.723 2.98-1.723 4.87h2zm1.222-3.546c.895-1.002 2.1-1.848 3.649-2.521l-.798-1.834c-1.763.766-3.222 1.768-4.343 3.022l1.492 1.333zm3.97-4.131c-.522-.545-.996-1.218-1.414-2.032l-1.78.913c.494.962 1.076 1.8 1.753 2.505l1.442-1.386zm-1.41-2.023a5.358 5.358 0 01-.578-2.432h-2c0 1.165.265 2.278.79 3.327l1.789-.895zm-.578-2.432c0-.687.13-1.267.369-1.763l-1.802-.867c-.385.8-.567 1.684-.567 2.63h2zm.375-1.775a3.766 3.766 0 011.026-1.342l-1.274-1.542a5.764 5.764 0 00-1.566 2.041l1.814.843zm1.01-1.33a5.25 5.25 0 011.666-.876l-.614-1.903a7.246 7.246 0 00-2.294 1.212l1.242 1.568zm1.657-.873a7.288 7.288 0 012.186-.314v-2c-.979 0-1.908.132-2.782.405l.596 1.91zm2.186-.314c.76 0 1.45.116 2.078.338l.668-1.885a8.16 8.16 0 00-2.746-.453v2zm2.105.347c.621.2 1.13.493 1.542.869l1.346-1.48a6.137 6.137 0 00-2.274-1.292l-.614 1.903zm1.561.885c.415.359.735.79.964 1.306l1.828-.813a5.66 5.66 0 00-1.484-2.006l-1.308 1.513zm.984 1.347c.238.476.362 1.005.362 1.605h2c0-.89-.188-1.728-.573-2.5l-1.79.895zm.362 1.605c0 1.087-.283 1.929-.797 2.59l1.578 1.227c.83-1.067 1.219-2.36 1.219-3.817h-2zm-.789 2.579a6.07 6.07 0 01-2.169 1.702l.86 1.806a8.07 8.07 0 002.87-2.259l-1.56-1.25zm-.986 1.947l-1.728-1.98-1.506 1.315 1.728 1.98 1.506-1.315zm-2.018-.436a4.44 4.44 0 001.713-1.573l-1.688-1.074a2.44 2.44 0 01-.95.874l.925 1.773zm1.695-1.547c.484-.709.714-1.521.714-2.4h-2c0 .514-.13.926-.366 1.273l1.652 1.127zm.714-2.4c0-1.01-.342-1.908-1.049-2.614L79.18 54.68c.3.3.463.675.463 1.2h2zm-1.049-2.614c-.713-.714-1.626-1.05-2.651-1.05v2c.56 0 .942.169 1.237.464l1.414-1.414zm-2.651-1.05c-1.053 0-2.008.298-2.723 1.014l1.414 1.414c.245-.245.634-.427 1.309-.427v-2zm-2.723 1.014c-.685.684-.977 1.586-.977 2.579h2c0-.591.164-.938.391-1.165L75.22 53.23zm-.977 2.579c0 1.183.336 2.285.992 3.285l1.672-1.099a3.886 3.886 0 01-.664-2.186h-2zm1 3.296c.598.884 1.447 1.88 2.525 2.983l1.43-1.398c-1.034-1.058-1.793-1.958-2.299-2.706l-1.656 1.12zm2.527 2.984l5.94 6.048 1.426-1.401-5.94-6.048-1.426 1.401zm7.51 5.862a16.94 16.94 0 001.112-2.258l-1.85-.761a14.967 14.967 0 01-.977 1.99l1.716 1.03zm1.102-2.235c.367-.832.688-1.62.96-2.363l-1.878-.689c-.255.697-.56 1.445-.912 2.245l1.83.807zm-.346-1.777l2.916 1.152.735-1.86-2.917-1.152-.734 1.86zm2.34-.113a26.26 26.26 0 01-1.247 2.947l1.788.895c.5-.999.948-2.057 1.344-3.172l-1.884-.67zm-1.243 2.938c-.466.91-.914 1.677-1.341 2.307l1.654 1.123c.485-.714.973-1.555 1.467-2.517l-1.78-.913zm-1.226 3.57l4.968 5.04 1.424-1.403-4.968-5.04-1.424 1.404zm5.68 3.339h-4.464v2h4.464v-2zm-3.747.302l-2.592-2.664-1.434 1.395 2.592 2.664 1.434-1.395zm-4.061-2.625c-.559.638-1.408 1.262-2.604 1.849l.88 1.795c1.348-.66 2.443-1.429 3.229-2.327l-1.505-1.317zm-2.59 1.842c-1.104.52-2.51.805-4.254.805v2c1.951 0 3.666-.317 5.107-.996l-.854-1.809zm-4.254.805c-1.184 0-2.23-.157-3.146-.455l-.62 1.901c1.148.374 2.406.554 3.766.554v-2zm-3.14-.453c-.907-.302-1.675-.717-2.316-1.234l-1.256 1.557c.847.683 1.831 1.205 2.94 1.574l.632-1.897zm-2.289-1.211a5.716 5.716 0 01-1.443-1.903l-1.808.854a7.717 7.717 0 001.941 2.56l1.31-1.511zm-1.433-1.882c-.321-.722-.49-1.542-.49-2.474h-2c0 1.18.215 2.28.662 3.286l1.828-.813zm44.516-17.486l.957.29.245-.807-.755-.378-.447.895zm-.864 2.844l-.427.904 1.047.494.337-1.108-.957-.29zm-2.628-.9l-.217.976.006.001.211-.977zm-5.652.18l-.316-.95-.008.003.324.947zm-2.448 1.512l-.695-.72-.006.007-.006.006.707.707zm-1.692 2.7l-.931-.365-.004.009-.003.009.938.347zm1.296 10.512l-.76.65.005.006.755-.656zm7.488 2.088l.124.992.017-.002.017-.003-.158-.987zm1.692-.432l.342.94.658-.24v-.7h-1zm0-5.976h1v-1h-1v1zm-4.104 0h-1v1h1v-1zm0-2.952v-1h-1v1h1zm7.74 0h1v-1h-1v1zm0 11.124l.371.928.629-.251v-.677h-1zm-3.24.972l.215.976-.215-.976zm-8.676-.36l.341-.94-.341.94zm-3.636-2.232l.69-.724-.69.724zm-2.448-3.636l-.93.366.003.009.004.01.923-.385zm0-10.08l-.93-.367.93.367zm2.376-3.672l.699.715-.699-.715zm3.636-2.268l.341.94-.341-.94zm4.536.244c2.534 0 4.578.426 6.177 1.226l.894-1.789c-1.953-.976-4.325-1.437-7.071-1.437v2zm5.667.04l-.864 2.845 1.914.581.864-2.844-1.914-.581zm.52 2.231a13.142 13.142 0 00-2.844-.973l-.422 1.955c.81.175 1.613.45 2.412.827l.854-1.809zm-2.838-.972a13.41 13.41 0 00-2.917-.311v2c.867 0 1.694.088 2.483.264l.434-1.953zm-2.917-.311c-1.134 0-2.226.171-3.268.519l.632 1.897a8.28 8.28 0 012.636-.416v-2zm-3.276.521a7.532 7.532 0 00-2.819 1.74l1.39 1.438a5.535 5.535 0 012.077-1.285l-.648-1.893zm-2.831 1.752c-.811.81-1.444 1.836-1.916 3.042l1.862.729c.392-1.001.888-1.777 1.468-2.357l-1.414-1.414zm-1.923 3.06c-.46 1.247-.674 2.729-.674 4.415h2c0-1.53.195-2.761.55-3.722l-1.876-.693zm-.674 4.415c0 2.944.666 5.36 2.148 7.093l1.52-1.3c-1.062-1.241-1.668-3.122-1.668-5.793h-2zm2.153 7.1c1.5 1.726 3.601 2.54 6.155 2.54v-2c-2.102 0-3.601-.65-4.645-1.852l-1.51 1.312zm6.155 2.54a18.1 18.1 0 002.212-.116l-.248-1.985c-.522.066-1.174.1-1.964.1v2zm2.246-.121a10.18 10.18 0 001.876-.48l-.684-1.88a8.177 8.177 0 01-1.508.385l.316 1.975zm2.534-1.42v-5.975h-2v5.976h2zm-1-6.975h-4.104v2h4.104v-2zm-3.104 1V62.54h-2v2.952h2zm-1-1.952h7.74v-2h-7.74v2zm6.74-1v11.124h2V62.54h-2zm.629 10.195c-.901.36-1.928.67-3.084.924l.43 1.953a21.714 21.714 0 003.396-1.02l-.742-1.857zm-3.084.924c-1.111.245-2.44.373-3.997.373v2c1.66 0 3.139-.136 4.427-.42l-.43-1.953zm-3.997.373c-1.476 0-2.848-.235-4.123-.697l-.681 1.88c1.508.547 3.112.817 4.804.817v-2zm-4.123-.697a9.269 9.269 0 01-3.287-2.015l-1.38 1.447a11.261 11.261 0 003.986 2.449l.681-1.88zm-3.287-2.015c-.922-.88-1.663-1.973-2.215-3.297l-1.846.77c.648 1.555 1.54 2.886 2.681 3.974l1.38-1.447zm-2.207-3.278c-.522-1.327-.795-2.879-.795-4.674h-2c0 1.996.303 3.804.933 5.406l1.862-.733zm-.795-4.674c0-1.796.273-3.348.795-4.674l-1.861-.733c-.63 1.602-.934 3.41-.934 5.407h2zm.795-4.674c.53-1.348 1.248-2.449 2.144-3.323l-1.397-1.431c-1.12 1.094-1.987 2.441-2.608 4.021l1.86.733zm2.144-3.323a9.013 9.013 0 013.278-2.043l-.681-1.88a11.016 11.016 0 00-3.995 2.492l1.398 1.431zm3.278-2.043c1.272-.46 2.667-.696 4.195-.696v-2c-1.736 0-3.365.268-4.876.815l.681 1.88z"
                fill="#F5BF00" />
        </g>
    </g>
    <defs>
        <filter id="filter0_d" x=".204" y="1.255" width="145.014" height="124.451" filterUnits="userSpaceOnUse"
            color-interpolation-filters="sRGB">
            <feFlood flood-opacity="0" result="BackgroundImageFix" />
            <feColorMatrix in="SourceAlpha" values="0 0 0 0 0 0 0 0 0 0 0 0 0 0 0 0 0 0 127 0" />
            <feOffset dy="4" />
            <feGaussianBlur stdDeviation="2" />
            <feColorMatrix values="0 0 0 0 0 0 0 0 0 0 0 0 0 0 0 0 0 0 0.25 0" />
            <feBlend in2="BackgroundImageFix" result="effect1_dropShadow" />
            <feBlend in="SourceGraphic" in2="effect1_dropShadow" result="shape" />
        </filter>
        <filter id="filter1_d" x="38.545" y="49.553" width="81.871" height="34.48" filterUnits="userSpaceOnUse"
            color-interpolation-filters="sRGB">
            <feFlood flood-opacity="0" result="BackgroundImageFix" />
            <feColorMatrix in="SourceAlpha" values="0 0 0 0 0 0 0 0 0 0 0 0 0 0 0 0 0 0 127 0" />
            <feOffset dy="4" />
            <feGaussianBlur stdDeviation="2" />
            <feColorMatrix values="0 0 0 0 0 0 0 0 0 0 0 0 0 0 0 0 0 0 0.25 0" />
            <feBlend in2="BackgroundImageFix" result="effect1_dropShadow" />
            <feBlend in="SourceGraphic" in2="effect1_dropShadow" result="shape" />
        </filter>
        <linearGradient id="paint0_linear" x1="131.88" y1="43.744" x2="31.663" y2="65.47"
            gradientUnits="userSpaceOnUse">
            <stop stop-color="#F5BF00" />
            <stop offset="1" stop-opacity="0" />
        </linearGradient>
    </defs>
</svg>