<svg id="a" width="229" height="229" viewBox="4 -24 229 270" fill="none" xmlns="http://www.w3.org/2000/svg">

    <g>

        <g filter="url(#filter0_d)">
            <mask id="c" fill="#fff">
                <path
                    d="M26.658 50.073a3 3 0 011.638-2.674l90.602-46.134a3 3 0 012.637-.041l98.292 46.2a3 3 0 011.724 2.715v121.773a3 3 0 01-1.743 2.724l-98.292 45.371a2.999 2.999 0 01-2.599-.041l-90.601-45.305a3 3 0 01-1.658-2.683V50.073z" />
            </mask>
            <path
                d="M26.658 50.073a3 3 0 011.638-2.674l90.602-46.134a3 3 0 012.637-.041l98.292 46.2a3 3 0 011.724 2.715v121.773a3 3 0 01-1.743 2.724l-98.292 45.371a2.999 2.999 0 01-2.599-.041l-90.601-45.305a3 3 0 01-1.658-2.683V50.073z"
                stroke="url(#paint0_linear)" stroke-width="4" mask="url(#c)" />
        </g>
        <g filter="url(#filter1_d)">
            <path
                d="M72.178 127.313l-1.377 12.979H37.403v-1.026l26.162-38.232h-9.58c-1.114 0-2.051.019-2.813.059-.742.039-1.426.117-2.05.234-1.29.254-2.745 1.318-4.366 3.193-1.602 1.875-2.812 3.858-3.633 5.948h-2.05l1.26-11.749h31.142v1.026l-26.162 38.232h9.873c1.66 0 3.428-.117 5.303-.351 1.875-.235 3.095-.635 3.662-1.201 1.27-1.211 2.45-2.696 3.545-4.454 1.093-1.757 1.904-3.31 2.431-4.658h2.051zm47.858 12.979h-17.314v-2.08c1.523-.098 2.783-.293 3.779-.586 1.016-.293 1.523-.655 1.523-1.084 0-.176-.019-.391-.058-.645a3.09 3.09 0 00-.176-.674l-3.457-9.316h-14.56a82.428 82.428 0 00-1.348 3.574 366.588 366.588 0 00-.908 2.813c-.254.84-.43 1.523-.528 2.05-.097.528-.146.958-.146 1.29 0 .781.615 1.386 1.846 1.816 1.23.43 2.617.684 4.16.762v2.08H77.204v-2.08c.508-.039 1.143-.147 1.904-.323.762-.195 1.387-.449 1.875-.761.782-.528 1.387-1.075 1.817-1.641.43-.586.85-1.387 1.26-2.402 2.09-5.215 4.394-11.075 6.914-17.578 2.52-6.504 4.765-12.295 6.738-17.374h2.344l13.857 35.86c.293.762.625 1.377.996 1.846.371.468.889.927 1.553 1.377.449.273 1.035.507 1.758.703.722.175 1.328.273 1.816.293v2.08zM103.278 123.3l-6.299-16.114-6.181 16.114h12.48zm64.441 16.992h-11.192c-2.48-3.887-4.726-7.246-6.738-10.078a223.198 223.198 0 00-6.504-8.76h-4.248v13.183c0 .684.107 1.29.322 1.817.215.508.674.898 1.377 1.172.352.136.967.263 1.846.381.879.117 1.621.185 2.226.205v2.08H127.23v-2.08a82.258 82.258 0 002.022-.205c.898-.098 1.523-.225 1.875-.381.586-.254 1.006-.625 1.26-1.114.273-.488.41-1.113.41-1.875v-30.058c0-.684-.098-1.289-.293-1.817-.196-.527-.655-.927-1.377-1.201-.488-.176-1.123-.332-1.904-.468a16.257 16.257 0 00-1.993-.293v-2.08h19.19c1.758 0 3.408.185 4.951.556 1.543.352 2.939.928 4.189 1.729a8.76 8.76 0 012.901 3.076c.722 1.25 1.084 2.763 1.084 4.541 0 1.601-.244 3.017-.733 4.248a8.75 8.75 0 01-2.168 3.193c-.879.84-1.933 1.572-3.164 2.197a24.767 24.767 0 01-4.072 1.553c2.051 2.715 3.75 5 5.098 6.856a2411.62 2411.62 0 005.009 6.767c.86 1.172 1.631 2.041 2.315 2.608.703.547 1.396.996 2.08 1.347.508.254 1.143.45 1.904.586.762.137 1.397.215 1.905.235v2.08zm-15.411-30.996c0-2.52-.722-4.512-2.168-5.977-1.445-1.484-3.486-2.226-6.123-2.226h-4.98v17.841h3.838c2.695 0 4.941-.859 6.738-2.578 1.797-1.738 2.695-4.092 2.695-7.06zm61.511 30.996h-17.314v-2.08c1.523-.098 2.783-.293 3.779-.586 1.015-.293 1.523-.655 1.523-1.084 0-.176-.019-.391-.058-.645a3.09 3.09 0 00-.176-.674l-3.457-9.316h-14.561a81.557 81.557 0 00-1.347 3.574 402.643 402.643 0 00-.909 2.813c-.253.84-.429 1.523-.527 2.05-.098.528-.146.958-.146 1.29 0 .781.615 1.386 1.845 1.816 1.231.43 2.618.684 4.161.762v2.08h-15.645v-2.08c.508-.039 1.143-.147 1.904-.323.762-.195 1.387-.449 1.875-.761.782-.528 1.387-1.075 1.817-1.641.429-.586.849-1.387 1.259-2.402a1661.81 1661.81 0 006.915-17.578 18043.11 18043.11 0 016.738-17.374h2.344l13.857 35.86c.293.762.625 1.377.996 1.846.371.468.889.927 1.553 1.377.449.273 1.035.507 1.758.703.722.175 1.328.273 1.816.293v2.08zM197.061 123.3l-6.299-16.114-6.181 16.114h12.48z"
                fill="#1E1E1E" />
            <path
                d="M72.178 127.313l.994.106.118-1.106h-1.112v1zm-1.377 12.979v1h.9l.094-.895-.994-.105zm-33.398 0h-1v1h1v-1zm0-1.026l-.826-.564-.174.255v.309h1zm26.162-38.232l.825.565 1.07-1.565h-1.895v1zm-12.393.059l-.051-.999h-.001l.052.999zm-2.05.234l-.185-.983-.009.002.193.981zm-4.366 3.193l-.756-.654-.004.005.76.649zm-3.633 5.948v1h.682l.25-.635-.932-.365zm-2.05 0l-.995-.107-.119 1.107h1.113v-1zm1.26-11.749v-1h-.9l-.095.894.994.106zm31.142 0h1v-1h-1v1zm0 1.026l.825.565.175-.256v-.31h-1zm-26.162 38.232l-.826-.564-1.07 1.564h1.896v-1zm18.838-1.552l-.69-.724-.01.008-.008.008.708.708zm5.976-9.112v-1h-.682l-.249.636.931.364zm1.057-.105l-1.377 12.978 1.988.211 1.377-12.978-1.988-.211zm-.383 12.084H37.403v2H70.8v-2zm-32.398 1v-1.026h-2v1.026h2zm-.175-.461l26.162-38.232-1.65-1.13-26.163 38.233 1.65 1.129zm25.337-39.797h-9.58v2h9.58v-2zm-9.58 0c-1.124 0-2.08.02-2.864.06l.102 1.997a55.335 55.335 0 012.762-.057v-2zm-2.865.06c-.78.041-1.508.123-2.183.25l.369 1.966a14.563 14.563 0 011.919-.219l-.105-1.997zm-2.192.252c-1.631.321-3.273 1.606-4.928 3.52l1.513 1.308c1.587-1.835 2.855-2.679 3.802-2.866l-.387-1.962zm-4.932 3.525c-1.667 1.951-2.939 4.028-3.804 6.231l1.862.731c.776-1.977 1.926-3.865 3.462-5.663l-1.52-1.299zm-2.873 5.597h-2.05v2h2.05v-2zm-1.056 1.106l1.26-11.748-1.989-.213-1.26 11.748 1.989.213zm.265-10.855h31.143v-2H40.332v2zm30.143-1v1.026h2v-1.026h-2zm.175.461l-26.163 38.233 1.651 1.129L72.3 100.31l-1.65-1.13zm-25.337 39.797h9.873v-2h-9.873v2zm9.873 0c1.707 0 3.516-.12 5.427-.359l-.248-1.985c-1.84.23-3.566.344-5.18.344v2zm5.427-.359c.974-.122 1.816-.291 2.509-.518.68-.223 1.294-.527 1.736-.968l-1.415-1.415c-.124.125-.403.305-.944.482-.529.174-1.234.322-2.135.434l.249 1.985zm4.228-1.47c1.34-1.278 2.573-2.831 3.704-4.648l-1.698-1.057c-1.057 1.699-2.188 3.114-3.387 4.258l1.38 1.447zm3.704-4.648c1.113-1.79 1.956-3.399 2.513-4.822l-1.862-.729c-.498 1.272-1.275 2.768-2.35 4.494l1.699 1.057zm1.582-4.187h2.051v-2h-2.05v2zm49.909 11.979v1h1v-1h-1zm-17.314 0h-1v1h1v-1zm0-2.08l-.064-.998-.936.06v.938h1zm3.779-.586l-.277-.961-.005.001.282.96zm1.289-2.403l-.937.348.004.012.005.012.928-.372zm-3.457-9.316l.938-.348-.242-.652h-.696v1zm-14.56 0v-1h-.677l-.252.629.928.371zm-1.348 3.574l-.945-.327-.003.008-.003.008.95.311zm-.908 2.813l-.953-.304-.002.007-.003.007.958.29zm5.332 5.918h1v-.951l-.95-.048-.05.999zm0 2.08v1h1v-1h-1zm-15.645 0h-1v1h1v-1zm0-2.08l-.076-.997-.924.071v.926h1zm1.904-.323l.225.975.012-.003.012-.003-.249-.969zm1.875-.761l.54.842.01-.007.01-.006-.56-.829zm1.817-1.641l.797.604.005-.006.004-.007-.806-.591zm1.26-2.402l.927.374v-.002l-.927-.372zm13.652-34.952v-1h-.684l-.248.638.932.362zm2.344 0l.932-.36-.247-.64h-.685v1zm13.857 35.86l.933-.359v-.002l-.933.361zm2.549 3.223l-.56.828.02.013.02.013.52-.854zm1.758.703l-.261.965.012.003.012.003.237-.971zm1.816.293h1v-.961l-.96-.039-.04 1zM103.278 123.3v1h1.465l-.533-1.365-.932.365zm-6.299-16.114l.932-.364-.94-2.405-.925 2.411.933.358zm-6.18 16.114l-.934-.359-.52 1.359h1.454v-1zm29.238 15.992h-17.314v2h17.314v-2zm-16.314 1v-2.08h-2v2.08h2zm-.936-1.082c1.566-.101 2.905-.304 3.997-.625l-.564-1.919c-.9.265-2.081.453-3.561.548l.128 1.996zm3.992-.623c.552-.16 1.057-.361 1.445-.637.392-.279.801-.741.801-1.408h-2c0-.238.156-.304.04-.222-.12.085-.376.211-.84.345l.554 1.922zm2.246-2.045a5.29 5.29 0 00-.07-.797l-1.976.304c.034.225.046.385.046.493h2zm-.07-.797a4.097 4.097 0 00-.235-.893l-1.857.743c.044.111.086.26.116.454l1.976-.304zm-.226-.87l-3.457-9.316-1.875.696 3.457 9.316 1.875-.696zm-4.395-9.968h-14.56v2h14.56v-2zm-15.489.629a82.85 82.85 0 00-1.364 3.618l1.89.654a81.9 81.9 0 011.331-3.53l-1.857-.742zm-1.37 3.634a387.67 387.67 0 00-.91 2.82l1.906.607c.272-.857.574-1.791.905-2.805l-1.9-.622zm-.915 2.834c-.258.856-.446 1.579-.553 2.158l1.967.365c.088-.476.252-1.12.5-1.944l-1.914-.579zm-.553 2.158c-.103.556-.163 1.053-.163 1.472h2c0-.246.037-.608.13-1.107l-1.967-.365zm-.163 1.472c0 1.457 1.188 2.296 2.516 2.76l.66-1.888c-1.134-.396-1.176-.767-1.176-.872h-2zm2.516 2.76c1.335.466 2.818.734 4.44.816l.1-1.997c-1.465-.074-2.755-.314-3.88-.707l-.66 1.888zm3.49-.182v2.08h2v-2.08h-2zm1 1.08H77.204v2H92.85v-2zm-14.645 1v-2.08h-2v2.08h2zm-.923-1.083c.576-.045 1.265-.163 2.052-.345l-.45-1.949c-.735.17-1.316.266-1.755.3l.153 1.994zm2.076-.351c.83-.213 1.562-.502 2.165-.888l-1.078-1.685c-.373.239-.891.458-1.584.636l.497 1.937zm2.186-.901c.844-.57 1.54-1.189 2.053-1.866l-1.593-1.208c-.346.456-.86.931-1.579 1.416l1.119 1.658zm2.063-1.879c.497-.677.954-1.561 1.38-2.619l-1.854-.749c-.393.974-.776 1.691-1.139 2.186l1.613 1.182zm1.382-2.621a1646.095 1646.095 0 006.918-17.589l-1.865-.723a1651.298 1651.298 0 01-6.91 17.568l1.857.744zm6.918-17.589c2.52-6.504 4.766-12.295 6.738-17.372l-1.864-.725c-1.973 5.079-4.22 10.87-6.739 17.374l1.865.723zm5.806-16.734h2.344v-2h-2.344v2zm1.41-.64l13.858 35.859 1.866-.721-13.858-35.859-1.865.721zm13.858 35.858c.317.824.693 1.536 1.145 2.107l1.568-1.241c-.29-.367-.578-.885-.847-1.584l-1.866.718zm1.145 2.107c.452.571 1.055 1.097 1.777 1.585l1.12-1.657c-.606-.41-1.039-.803-1.329-1.169l-1.568 1.241zm1.817 1.611c.556.338 1.238.604 2.017.814l.522-1.931c-.667-.18-1.157-.383-1.499-.592l-1.04 1.709zm2.041.82c.758.185 1.434.298 2.013.321l.08-1.999c-.397-.015-.932-.098-1.62-.265l-.473 1.943zm1.053-.678v2.08h2v-2.08h-2zm-14.826-15.277l-6.3-16.113-1.862.728 6.299 16.114 1.863-.729zm-8.164-16.107l-6.182 16.113 1.868.717 6.181-16.114-1.867-.716zM90.798 124.3h12.48v-2h-12.48v2zm76.921 15.992v1h1v-1h-1zm-11.192 0l-.843.538.295.462h.548v-1zm-6.738-10.078l-.818.575.003.004.815-.579zm-6.504-8.76l.789-.615-.3-.385h-.489v1zm-4.248 0v-1h-1v1h1zm.322 15l-.926.377.005.012.921-.389zm5.449 1.758h1v-.969l-.967-.031-.033 1zm0 2.08v1h1v-1h-1zm-17.578 0h-1v1h1v-1zm0-2.08l-.083-.997-.917.077v.92h1zm2.022-.205l-.108-.995-.003.001.111.994zm1.875-.381l-.398-.918-.008.004.406.914zm1.26-1.114l-.873-.488-.007.013-.008.014.888.461zm.117-33.75l.938-.347-.938.347zm-1.377-1.201l.354-.935-.008-.003-.007-.003-.339.941zm-1.904-.468l-.197.98.012.002.012.003.173-.985zm-1.993-.293h-1v.931l.929.066.071-.997zm0-2.08v-1h-1v1h1zm24.141.556l-.234.972.012.003.222-.975zm4.189 1.729l.543-.841-.003-.001-.54.842zm2.901 3.076l-.869.495.003.005.866-.5zm-1.817 11.982l-.684-.729-.006.006.69.723zm-3.164 2.197l.442.898.011-.006-.453-.892zm-4.072 1.553l-.278-.96-1.396.404.876 1.159.798-.603zm5.098 6.856l-.809.587.004.006.805-.593zm5.009 6.767l.807-.591-.004-.005-.803.596zm2.315 2.608l-.638.77.012.01.012.009.614-.789zm2.08 1.347l-.457.89.01.005.447-.895zm3.809.821h1v-.963l-.962-.037-.038 1zm-17.579-34.893l-.716.698.005.004.711-.702zm-11.103-2.226v-1h-1v1h1zm0 17.841h-1v1h1v-1zm10.576-2.578l.691.723.004-.004-.695-.719zm18.106 22.936h-11.192v2h11.192v-2zm-10.349.462c-2.487-3.897-4.742-7.27-6.766-10.119l-1.63 1.158c1.999 2.815 4.236 6.16 6.71 10.037l1.686-1.076zm-6.763-10.116a225.72 225.72 0 00-6.533-8.799l-1.578 1.23a222.435 222.435 0 016.475 8.72l1.636-1.151zm-7.322-9.184h-4.248v2h4.248v-2zm-5.248 1v13.183h2v-13.183h-2zm0 13.183c0 .788.124 1.526.396 2.194l1.852-.754c-.157-.387-.248-.86-.248-1.44h-2zm.401 2.206c.354.838 1.076 1.38 1.936 1.715l.725-1.864c-.547-.213-.743-.451-.819-.63l-1.842.779zm1.936 1.715c.474.184 1.195.322 2.076.44l.264-1.983c-.877-.117-1.386-.232-1.615-.321l-.725 1.864zm2.076.44c.898.12 1.676.192 2.326.213l.065-1.999a21.77 21.77 0 01-2.127-.197l-.264 1.983zm1.358-.786v2.08h2v-2.08h-2zm1 1.08H127.23v2h17.578v-2zm-16.578 1v-2.08h-2v2.08h2zm-.917-1.084c.483-.04 1.168-.11 2.049-.208l-.221-1.987a80.23 80.23 0 01-1.994.202l.166 1.993zm2.047-.207c.9-.098 1.665-.236 2.173-.461l-.812-1.828c-.195.087-.681.203-1.577.3l.216 1.989zm2.164-.458c.762-.33 1.373-.845 1.75-1.569l-1.775-.923c-.131.253-.359.479-.77.657l.795 1.835zm1.735-1.542c.382-.682.538-1.49.538-2.364h-2c0 .65-.118 1.092-.283 1.387l1.745.977zm.538-2.364v-30.058h-2v30.058h2zm0-30.058c0-.778-.111-1.504-.355-2.164l-1.876.695c.146.395.231.879.231 1.469h2zm-.355-2.164c-.33-.889-1.074-1.453-1.961-1.789l-.708 1.871c.558.211.732.447.793.613l1.876-.695zm-1.976-1.795c-.563-.202-1.26-.37-2.071-.513l-.345 1.971c.751.131 1.324.275 1.738.424l.678-1.882zm-2.047-.508a17.391 17.391 0 00-2.117-.31l-.143 1.995c.491.035 1.111.125 1.867.276l.393-1.961zm-1.189.688v-2.08h-2v2.08h2zm-1-1.08h19.19v-2h-19.19v2zm19.19 0c1.687 0 3.258.178 4.717.528l.468-1.944c-1.627-.392-3.357-.585-5.185-.585v2zm4.729.531c1.438.328 2.726.861 3.872 1.596l1.079-1.684c-1.354-.867-2.859-1.486-4.507-1.862l-.444 1.95zm3.869 1.594a7.76 7.76 0 012.574 2.731l1.738-.99a9.766 9.766 0 00-3.227-3.422l-1.085 1.681zm2.577 2.736c.617 1.067.95 2.399.95 4.041h2c0-1.913-.39-3.608-1.218-5.042l-1.732 1.001zm.95 4.041c0 1.501-.229 2.788-.662 3.879l1.859.738c.543-1.37.803-2.915.803-4.617h-2zm-.662 3.879a7.76 7.76 0 01-1.923 2.833l1.369 1.458a9.753 9.753 0 002.413-3.553l-1.859-.738zm-1.929 2.839c-.8.764-1.772 1.442-2.927 2.029l.906 1.783c1.306-.663 2.444-1.45 3.402-2.366l-1.381-1.446zm-2.915 2.023a23.915 23.915 0 01-3.909 1.49l.556 1.921a25.902 25.902 0 004.236-1.616l-.883-1.795zm-4.429 3.053a471.304 471.304 0 015.087 6.84l1.618-1.175a474.995 474.995 0 00-5.109-6.871l-1.596 1.206zm5.091 6.846a2165.58 2165.58 0 005.012 6.77l1.605-1.192c-1.972-2.656-3.641-4.91-5.007-6.764l-1.61 1.186zm5.008 6.766c.881 1.201 1.709 2.144 2.483 2.786l1.276-1.54c-.593-.492-1.309-1.287-2.146-2.429l-1.613 1.183zm2.507 2.805c.745.579 1.49 1.064 2.237 1.448l.914-1.779a12.376 12.376 0 01-1.923-1.248l-1.228 1.579zm2.247 1.453c.618.309 1.35.528 2.175.676l.353-1.969c-.699-.125-1.236-.297-1.634-.496l-.894 1.789zm2.175.676c.786.141 1.471.227 2.042.249l.077-1.999c-.444-.017-1.029-.087-1.766-.219l-.353 1.969zm1.081-.75v2.08h2v-2.08h-2zm-13.411-28.916c0-2.72-.786-4.987-2.456-6.679l-1.423 1.404c1.221 1.238 1.879 2.955 1.879 5.275h2zm-2.451-6.675c-1.682-1.727-4.011-2.528-6.84-2.528v2c2.445 0 4.198.682 5.407 1.924l1.433-1.396zm-6.84-2.528h-4.98v2h4.98v-2zm-5.98 1v17.841h2v-17.841h-2zm1 18.841h3.838v-2h-3.838v2zm3.838 0c2.929 0 5.43-.943 7.429-2.855l-1.382-1.445c-1.594 1.525-3.586 2.3-6.047 2.3v2zm7.433-2.859c2.028-1.962 3-4.594 3-7.779h-2c0 2.752-.824 4.827-2.39 6.341l1.39 1.438zm63.511 23.217v1h1v-1h-1zm-17.314 0h-1v1h1v-1zm0-2.08l-.064-.998-.936.06v.938h1zm3.779-.586l-.277-.961-.005.001.282.96zm1.289-2.403l-.938.348.005.012.004.012.929-.372zm-3.457-9.316l.937-.348-.242-.652h-.695v1zm-14.561 0v-1h-.677l-.251.629.928.371zm-1.347 3.574l-.945-.327-.003.008-.003.008.951.311zm-.909 2.813l-.952-.304-.003.007-.002.007.957.29zm5.333 5.918h1v-.951l-.95-.048-.05.999zm0 2.08v1h1v-1h-1zm-15.645 0h-1v1h1v-1zm0-2.08l-.077-.997-.923.071v.926h1zm1.904-.323l.225.975.012-.003.012-.003-.249-.969zm1.875-.761l.539.842.011-.007.01-.006-.56-.829zm1.817-1.641l.796.604.005-.006.005-.007-.806-.591zm1.259-2.402l.928.374.001-.002-.929-.372zm13.653-34.952v-1h-.685l-.247.638.932.362zm2.344 0l.932-.36-.247-.64h-.685v1zm13.857 35.86l.933-.359v-.002l-.933.361zm2.549 3.223l-.561.828.02.013.021.013.52-.854zm1.758.703l-.261.965.012.003.012.003.237-.971zm1.816.293h1v-.961l-.96-.039-.04 1zM197.061 123.3v1h1.465l-.533-1.365-.932.365zm-6.299-16.114l.932-.364-.94-2.405-.925 2.411.933.358zm-6.181 16.114l-.934-.359-.521 1.359h1.455v-1zm29.238 15.992h-17.314v2h17.314v-2zm-16.314 1v-2.08h-2v2.08h2zm-.936-1.082c1.566-.101 2.905-.304 3.997-.625l-.564-1.919c-.901.265-2.081.453-3.561.548l.128 1.996zm3.992-.623c.552-.16 1.057-.361 1.445-.637.392-.279.801-.741.801-1.408h-2c0-.238.156-.304.04-.222-.12.085-.376.211-.84.345l.554 1.922zm2.246-2.045a5.29 5.29 0 00-.07-.797l-1.977.304c.035.225.047.385.047.493h2zm-.07-.797a4.043 4.043 0 00-.236-.893l-1.857.743c.045.111.086.26.116.454l1.977-.304zm-.227-.87l-3.457-9.316-1.875.696 3.457 9.316 1.875-.696zm-4.394-9.968h-14.561v2h14.561v-2zm-15.489.629a82.192 82.192 0 00-1.364 3.618l1.89.654a81.9 81.9 0 011.331-3.53l-1.857-.742zm-1.37 3.634a354.52 354.52 0 00-.91 2.82l1.905.607c.273-.857.575-1.791.906-2.805l-1.901-.622zm-.915 2.834c-.259.856-.446 1.579-.553 2.158l1.966.365c.089-.476.253-1.12.502-1.944l-1.915-.579zm-.553 2.158c-.103.556-.163 1.053-.163 1.472h2c0-.246.037-.608.129-1.107l-1.966-.365zm-.163 1.472c0 1.457 1.188 2.296 2.516 2.76l.659-1.888c-1.133-.396-1.175-.767-1.175-.872h-2zm2.516 2.76c1.335.466 2.818.734 4.439.816l.101-1.997c-1.465-.074-2.755-.314-3.881-.707l-.659 1.888zm3.49-.182v2.08h2v-2.08h-2zm1 1.08h-15.645v2h15.645v-2zm-14.645 1v-2.08h-2v2.08h2zm-.923-1.083c.576-.045 1.264-.163 2.052-.345l-.45-1.949c-.735.17-1.317.266-1.756.3l.154 1.994zm2.076-.351c.83-.213 1.562-.502 2.165-.888l-1.078-1.685c-.373.239-.891.458-1.584.636l.497 1.937zm2.186-.901c.844-.57 1.54-1.189 2.053-1.866l-1.593-1.208c-.346.456-.861.931-1.579 1.416l1.119 1.658zm2.063-1.879c.497-.677.953-1.561 1.381-2.619l-1.855-.749c-.393.974-.776 1.691-1.139 2.186l1.613 1.182zm1.382-2.621a1665.88 1665.88 0 006.918-17.589l-1.865-.723a1644.604 1644.604 0 01-6.91 17.568l1.857.744zm6.918-17.589a16902.79 16902.79 0 016.738-17.372l-1.864-.725a20982.75 20982.75 0 00-6.739 17.374l1.865.723zm5.806-16.734h2.344v-2h-2.344v2zm1.411-.64l13.857 35.859 1.866-.721-13.858-35.859-1.865.721zm13.857 35.858c.317.824.693 1.536 1.145 2.107l1.568-1.241c-.29-.367-.578-.885-.847-1.584l-1.866.718zm1.145 2.107c.452.571 1.055 1.097 1.776 1.585l1.121-1.657c-.606-.41-1.039-.803-1.329-1.169l-1.568 1.241zm1.817 1.611c.556.338 1.238.604 2.017.814l.522-1.931c-.667-.18-1.157-.383-1.499-.592l-1.04 1.709zm2.041.82c.758.185 1.434.298 2.013.321l.08-1.999c-.397-.015-.932-.098-1.62-.265l-.473 1.943zm1.053-.678v2.08h2v-2.08h-2zm-14.826-15.277l-6.299-16.113-1.863.728 6.299 16.114 1.863-.729zm-8.164-16.107l-6.182 16.113 1.867.717 6.182-16.114-1.867-.716zm-5.248 17.472h12.48v-2h-12.48v2z"
                fill="#F5BF00" />
        </g>
    </g>
    <defs>
        <filter id="filter0_d" x=".695" y=".939" width="228.118" height="227.345" filterUnits="userSpaceOnUse"
            color-interpolation-filters="sRGB">
            <feFlood flood-opacity="0" result="BackgroundImageFix" />
            <feColorMatrix in="SourceAlpha" values="0 0 0 0 0 0 0 0 0 0 0 0 0 0 0 0 0 0 127 0" />
            <feOffset dy="4" />
            <feGaussianBlur stdDeviation="2" />
            <feColorMatrix values="0 0 0 0 0 0 0 0 0 0 0 0 0 0 0 0 0 0 0.25 0" />
            <feBlend in2="BackgroundImageFix" result="effect1_dropShadow" />
            <feBlend in="SourceGraphic" in2="effect1_dropShadow" result="shape" />
        </filter>
        <filter id="filter1_d" x="32.403" y="97.133" width="186.416" height="52.158" filterUnits="userSpaceOnUse"
            color-interpolation-filters="sRGB">
            <feFlood flood-opacity="0" result="BackgroundImageFix" />
            <feColorMatrix in="SourceAlpha" values="0 0 0 0 0 0 0 0 0 0 0 0 0 0 0 0 0 0 127 0" />
            <feOffset dy="4" />
            <feGaussianBlur stdDeviation="2" />
            <feColorMatrix values="0 0 0 0 0 0 0 0 0 0 0 0 0 0 0 0 0 0 0.25 0" />
            <feBlend in2="BackgroundImageFix" result="effect1_dropShadow" />
            <feBlend in="SourceGraphic" in2="effect1_dropShadow" result="shape" />
        </filter>
        <linearGradient id="paint0_linear" x1="221.551" y1="81.055" x2="33.291" y2="121.867"
            gradientUnits="userSpaceOnUse">
            <stop offset=".427" stop-color="#F5BF00" />
            <stop offset="1" stop-opacity="0" />
        </linearGradient>
    </defs>
</svg>