<svg id="a" width="263" height="226" viewBox="0 -26 263 263" fill="none" xmlns="http://www.w3.org/2000/svg">

    <g>

        <g filter="url(#filter0_d)">
            <mask id="c" fill="#fff">
                <path
                    d="M48.505 49.063a3 3 0 011.639-2.673L139.578.85a3 3 0 012.637-.041l97.027 45.605a2.999 2.999 0 011.724 2.715v120.206c0 1.171-.68 2.234-1.742 2.724l-97.028 44.787a3.002 3.002 0 01-2.599-.04l-89.434-44.722a3 3 0 01-1.658-2.683V49.063z" />
            </mask>
            <path
                d="M48.505 49.063a3 3 0 011.639-2.673L139.578.85a3 3 0 012.637-.041l97.027 45.605a2.999 2.999 0 011.724 2.715v120.206c0 1.171-.68 2.234-1.742 2.724l-97.028 44.787a3.002 3.002 0 01-2.599-.04l-89.434-44.722a3 3 0 01-1.658-2.683V49.063z"
                stroke="url(#paint0_linear)" stroke-width="4" mask="url(#c)" />
        </g>
        <g filter="url(#filter1_d)">
            <mask id="d" fill="#fff">
                <path
                    d="M176.558 35.787h-60.873c-6.001.008-10.863 5.614-10.87 12.532v125.307c.007 6.917 4.869 12.523 10.87 12.531h60.873c6-.008 10.862-5.614 10.869-12.531V48.318c-.007-6.917-4.869-12.523-10.869-12.53zM109.163 60.85h73.916v100.247h-73.916V60.849zm6.522-20.05h60.873c3.602 0 6.521 3.367 6.521 7.52v7.517h-73.916V48.32c0-4.153 2.92-7.52 6.522-7.52zm60.873 140.346h-60.873c-3.602 0-6.522-3.366-6.522-7.519v-7.518h73.916v7.518c0 4.153-2.919 7.519-6.521 7.519z" />
            </mask>
            <path
                d="M176.558 35.787h-60.873c-6.001.008-10.863 5.614-10.87 12.532v125.307c.007 6.917 4.869 12.523 10.87 12.531h60.873c6-.008 10.862-5.614 10.869-12.531V48.318c-.007-6.917-4.869-12.523-10.869-12.53v0zM109.163 60.85h73.916v100.247h-73.916V60.849zm6.522-20.05h60.873c3.602 0 6.521 3.367 6.521 7.52v7.517h-73.916V48.32c0-4.153 2.92-7.52 6.522-7.52zm60.873 140.346h-60.873c-3.602 0-6.522-3.366-6.522-7.519v-7.518h73.916v7.518c0 4.153-2.919 7.519-6.521 7.519z"
                fill="#3202F2" stroke="#1E1E1E" stroke-width="2" mask="url(#d)" />
            <mask id="e" fill="#fff">
                <path
                    d="M148.296 171.12h-4.348c-1.201 0-2.175 1.122-2.175 2.506 0 1.385.974 2.507 2.175 2.507h4.348c1.2 0 2.173-1.122 2.173-2.507 0-1.384-.973-2.506-2.173-2.506z" />
            </mask>
            <path
                d="M148.296 171.12h-4.348c-1.201 0-2.175 1.122-2.175 2.506 0 1.385.974 2.507 2.175 2.507h4.348c1.2 0 2.173-1.122 2.173-2.507 0-1.384-.973-2.506-2.173-2.506z"
                fill="#3202F2" stroke="#1E1E1E" stroke-width="2" mask="url(#e)" />
            <mask id="f" fill="#fff">
                <path
                    d="M117.859 50.825h4.348c1.201 0 2.175-1.122 2.175-2.506 0-1.384-.974-2.506-2.175-2.506h-4.348c-1.2 0-2.173 1.122-2.173 2.506 0 1.384.973 2.506 2.173 2.506z" />
            </mask>
            <path
                d="M117.859 50.825h4.348c1.201 0 2.175-1.122 2.175-2.506 0-1.384-.974-2.506-2.175-2.506h-4.348c-1.2 0-2.173 1.122-2.173 2.506 0 1.384.973 2.506 2.173 2.506z"
                fill="#3202F2" stroke="#1E1E1E" stroke-width="2" mask="url(#f)" />
            <mask id="g" fill="#fff">
                <path
                    d="M130.903 50.825h8.696c1.201 0 2.174-1.122 2.174-2.506 0-1.384-.973-2.506-2.174-2.506h-8.696c-1.2 0-2.174 1.122-2.174 2.506 0 1.384.974 2.506 2.174 2.506z" />
            </mask>
            <path
                d="M130.903 50.825h8.696c1.201 0 2.174-1.122 2.174-2.506 0-1.384-.973-2.506-2.174-2.506h-8.696c-1.2 0-2.174 1.122-2.174 2.506 0 1.384.974 2.506 2.174 2.506z"
                fill="#3202F2" stroke="#1E1E1E" stroke-width="2" mask="url(#g)" />
            <mask id="h" fill="#fff">
                <path
                    d="M124.381 98.442h8.696c1.201 0 2.174-1.122 2.174-2.506V85.912c0-1.385-.973-2.507-2.174-2.507h-8.696c-1.201 0-2.174 1.122-2.174 2.507v10.024c0 1.384.973 2.506 2.174 2.506zm2.174-10.025h4.348v5.012h-4.348v-5.012z" />
            </mask>
            <path
                d="M124.381 98.442h8.696c1.201 0 2.174-1.122 2.174-2.506V85.912c0-1.385-.973-2.507-2.174-2.507h-8.696c-1.201 0-2.174 1.122-2.174 2.507v10.024c0 1.384.973 2.506 2.174 2.506zm2.174-10.025h4.348v5.012h-4.348v-5.012z"
                fill="#3202F2" stroke="#1E1E1E" stroke-width="2" mask="url(#h)" />
            <mask id="i" fill="#fff">
                <path
                    d="M167.862 83.405h-8.697c-1.2 0-2.173 1.122-2.173 2.507v10.024c0 1.384.973 2.506 2.173 2.506h8.697c1.201 0 2.174-1.122 2.174-2.506V85.912c0-1.385-.973-2.507-2.174-2.507zm-2.174 10.024h-4.348v-5.012h4.348v5.012z" />
            </mask>
            <path
                d="M167.862 83.405h-8.697c-1.2 0-2.173 1.122-2.173 2.507v10.024c0 1.384.973 2.506 2.173 2.506h8.697c1.201 0 2.174-1.122 2.174-2.506V85.912c0-1.385-.973-2.507-2.174-2.507zm-2.174 10.024h-4.348v-5.012h4.348v5.012z"
                fill="#3202F2" stroke="#1E1E1E" stroke-width="2" mask="url(#i)" />
            <mask id="j" fill="#fff">
                <path
                    d="M133.077 123.505h-8.696c-1.201 0-2.174 1.122-2.174 2.505v10.025c0 1.384.973 2.506 2.174 2.506h8.696c1.201 0 2.174-1.122 2.174-2.506V126.01c.001-1.383-.973-2.505-2.174-2.505zm-2.174 10.024h-4.348v-5.012h4.348v5.012z" />
            </mask>
            <path
                d="M133.077 123.505h-8.696c-1.201 0-2.174 1.122-2.174 2.505v10.025c0 1.384.973 2.506 2.174 2.506h8.696c1.201 0 2.174-1.122 2.174-2.506V126.01c.001-1.383-.973-2.505-2.174-2.505zm-2.174 10.024h-4.348v-5.012h4.348v5.012z"
                fill="#3202F2" stroke="#1E1E1E" stroke-width="2" mask="url(#j)" />
            <mask id="k" fill="#fff">
                <path
                    d="M141.773 88.417h8.696c1.201 0 2.175-1.122 2.175-2.505 0-1.385-.974-2.507-2.175-2.507h-8.696c-1.2 0-2.173 1.122-2.173 2.507 0 1.383.973 2.505 2.173 2.505z" />
            </mask>
            <path
                d="M141.773 88.417h8.696c1.201 0 2.175-1.122 2.175-2.505 0-1.385-.974-2.507-2.175-2.507h-8.696c-1.2 0-2.173 1.122-2.173 2.507 0 1.383.973 2.505 2.173 2.505z"
                fill="#3202F2" stroke="#1E1E1E" stroke-width="2" mask="url(#k)" />
            <mask id="l" fill="#fff">
                <path
                    d="M124.381 118.492c1.201 0 2.174-1.122 2.174-2.506v-5.013h4.348v2.507c0 1.384.973 2.506 2.174 2.506s2.174-1.122 2.174-2.506v-2.507h6.522c1.202 0 2.175-1.122 2.175-2.505 0-1.385-.973-2.507-2.175-2.507h-4.348v-2.506c0-1.384-.973-2.506-2.174-2.506-1.2 0-2.174 1.122-2.174 2.506v2.506h-6.522c0-1.383-.973-2.506-2.174-2.506s-2.174 1.123-2.174 2.506v10.025c0 1.384.973 2.506 2.174 2.506z" />
            </mask>
            <path
                d="M124.381 118.492c1.201 0 2.174-1.122 2.174-2.506v-5.013h4.348v2.507c0 1.384.973 2.506 2.174 2.506s2.174-1.122 2.174-2.506v-2.507h6.522c1.202 0 2.175-1.122 2.175-2.505 0-1.385-.973-2.507-2.175-2.507h-4.348v-2.506c0-1.384-.973-2.506-2.174-2.506-1.2 0-2.174 1.122-2.174 2.506v2.506h-6.522c0-1.383-.973-2.506-2.174-2.506s-2.174 1.123-2.174 2.506v10.025c0 1.384.973 2.506 2.174 2.506z"
                fill="#3202F2" stroke="#1E1E1E" stroke-width="2" mask="url(#l)" />
            <mask id="m" fill="#fff">
                <path
                    d="M167.863 128.516c-1.202 0-2.175 1.122-2.175 2.506v2.507h-2.174c-1.201 0-2.174 1.122-2.174 2.505 0 1.385.973 2.507 2.174 2.507h4.349c1.2 0 2.173-1.122 2.173-2.507v-5.012c0-1.384-.973-2.506-2.173-2.506z" />
            </mask>
            <path
                d="M167.863 128.516c-1.202 0-2.175 1.122-2.175 2.506v2.507h-2.174c-1.201 0-2.174 1.122-2.174 2.505 0 1.385.973 2.507 2.174 2.507h4.349c1.2 0 2.173-1.122 2.173-2.507v-5.012c0-1.384-.973-2.506-2.173-2.506z"
                fill="#3202F2" stroke="#1E1E1E" stroke-width="2" mask="url(#m)" />
            <mask id="n" fill="#fff">
                <path
                    d="M154.817 133.529h-4.348v-5.013h2.175c1.2 0 2.173-1.122 2.173-2.506 0-1.384-.973-2.506-2.173-2.506h-2.175v-2.507c0-1.383-.973-2.505-2.173-2.505-1.201 0-2.175 1.122-2.175 2.505h-2.173c-1.201 0-2.175 1.122-2.175 2.507 0 1.384.974 2.506 2.175 2.506h2.173v7.519h-2.173v-2.507c0-1.384-.974-2.506-2.175-2.506-1.2 0-2.173 1.122-2.173 2.506v5.012c0 1.385.973 2.507 2.173 2.507h13.044c1.201 0 2.175-1.122 2.175-2.507 0-1.383-.974-2.505-2.175-2.505z" />
            </mask>
            <path
                d="M154.817 133.529h-4.348v-5.013h2.175c1.2 0 2.173-1.122 2.173-2.506 0-1.384-.973-2.506-2.173-2.506h-2.175v-2.507c0-1.383-.973-2.505-2.173-2.505-1.201 0-2.175 1.122-2.175 2.505h-2.173c-1.201 0-2.175 1.122-2.175 2.507 0 1.384.974 2.506 2.175 2.506h2.173v7.519h-2.173v-2.507c0-1.384-.974-2.506-2.175-2.506-1.2 0-2.173 1.122-2.173 2.506v5.012c0 1.385.973 2.507 2.173 2.507h13.044c1.201 0 2.175-1.122 2.175-2.507 0-1.383-.974-2.505-2.175-2.505z"
                fill="#3202F2" stroke="#1E1E1E" stroke-width="2" mask="url(#n)" />
            <mask id="o" fill="#fff">
                <path
                    d="M167.862 103.454c-1.201 0-2.174 1.123-2.174 2.507v15.037c0 1.384.973 2.506 2.174 2.506 1.2 0 2.174-1.122 2.174-2.506v-15.037c0-1.384-.974-2.507-2.174-2.507z" />
            </mask>
            <path
                d="M167.862 103.454c-1.201 0-2.174 1.123-2.174 2.507v15.037c0 1.384.973 2.506 2.174 2.506 1.2 0 2.174-1.122 2.174-2.506v-15.037c0-1.384-.974-2.507-2.174-2.507z"
                fill="#3202F2" stroke="#1E1E1E" stroke-width="2" mask="url(#o)" />
            <mask id="p" fill="#fff">
                <path
                    d="M154.817 110.973h2.174v2.507c0 1.384.974 2.506 2.174 2.506 1.201 0 2.174-1.122 2.174-2.506v-5.012c0-1.385-.973-2.507-2.174-2.507v-2.506c0-1.384-.973-2.506-2.174-2.506s-2.174 1.122-2.174 2.506v2.506c-1.2 0-2.174 1.122-2.174 2.507 0 1.383.974 2.505 2.174 2.505z" />
            </mask>
            <path
                d="M154.817 110.973h2.174v2.507c0 1.384.974 2.506 2.174 2.506 1.201 0 2.174-1.122 2.174-2.506v-5.012c0-1.385-.973-2.507-2.174-2.507v-2.506c0-1.384-.973-2.506-2.174-2.506s-2.174 1.122-2.174 2.506v2.506c-1.2 0-2.174 1.122-2.174 2.507 0 1.383.974 2.505 2.174 2.505z"
                fill="#3202F2" stroke="#1E1E1E" stroke-width="2" mask="url(#p)" />
            <mask id="q" fill="#fff">
                <path
                    d="M141.773 100.948h4.348c1.201 0 2.175-1.122 2.175-2.506h2.173c1.201 0 2.175-1.122 2.175-2.506 0-1.385-.974-2.507-2.175-2.507h-2.173c0-1.383-.974-2.505-2.175-2.505-1.2 0-2.173 1.122-2.173 2.505v2.507h-2.175c-1.2 0-2.173 1.122-2.173 2.506 0 1.384.973 2.506 2.173 2.506z" />
            </mask>
            <path
                d="M141.773 100.948h4.348c1.201 0 2.175-1.122 2.175-2.506h2.173c1.201 0 2.175-1.122 2.175-2.506 0-1.385-.974-2.507-2.175-2.507h-2.173c0-1.383-.974-2.505-2.175-2.505-1.2 0-2.173 1.122-2.173 2.505v2.507h-2.175c-1.2 0-2.173 1.122-2.173 2.506 0 1.384.973 2.506 2.173 2.506z"
                fill="#3202F2" stroke="#1E1E1E" stroke-width="2" mask="url(#q)" />
            <mask id="r" fill="#fff">
                <path
                    d="M143.948 118.492c0-1.385-.974-2.507-2.175-2.507h-4.348c-1.2 0-2.173 1.122-2.173 2.507 0 1.383.973 2.505 2.173 2.505h4.348c1.201 0 2.175-1.122 2.175-2.505z" />
            </mask>
            <path
                d="M143.948 118.492c0-1.385-.974-2.507-2.175-2.507h-4.348c-1.2 0-2.173 1.122-2.173 2.507 0 1.383.973 2.505 2.173 2.505h4.348c1.201 0 2.175-1.122 2.175-2.505z"
                fill="#3202F2" stroke="#1E1E1E" stroke-width="2" mask="url(#r)" />
            <mask id="s" fill="#fff">
                <path
                    d="M146.121 108.467v5.012c0 1.384.973 2.506 2.175 2.506 1.2 0 2.173-1.122 2.173-2.506v-5.012c0-1.385-.973-2.507-2.173-2.507-1.202 0-2.175 1.122-2.175 2.507z" />
            </mask>
            <path
                d="M146.121 108.467v5.012c0 1.384.973 2.506 2.175 2.506 1.2 0 2.173-1.122 2.173-2.506v-5.012c0-1.385-.973-2.507-2.173-2.507-1.202 0-2.175 1.122-2.175 2.507z"
                fill="#3202F2" stroke="#1E1E1E" stroke-width="2" mask="url(#s)" />
            <mask id="t" fill="#fff">
                <path
                    d="M163.513 128.516v-5.012c0-1.384-.974-2.506-2.174-2.506-1.201 0-2.174 1.122-2.174 2.506v5.012c0 1.384.973 2.506 2.174 2.506 1.2 0 2.174-1.122 2.174-2.506z" />
            </mask>
            <path
                d="M163.513 128.516v-5.012c0-1.384-.974-2.506-2.174-2.506-1.201 0-2.174 1.122-2.174 2.506v5.012c0 1.384.973 2.506 2.174 2.506 1.2 0 2.174-1.122 2.174-2.506z"
                fill="#3202F2" stroke="#1E1E1E" stroke-width="2" mask="url(#t)" />
            <mask id="u" fill="#fff">
                <path
                    d="M156.992 115.985h-4.348c-1.202 0-2.175 1.122-2.175 2.507 0 1.383.973 2.505 2.175 2.505h4.348c1.2 0 2.173-1.122 2.173-2.505 0-1.385-.973-2.507-2.173-2.507z" />
            </mask>
            <path
                d="M156.992 115.985h-4.348c-1.202 0-2.175 1.122-2.175 2.507 0 1.383.973 2.505 2.175 2.505h4.348c1.2 0 2.173-1.122 2.173-2.505 0-1.385-.973-2.507-2.173-2.507z"
                fill="#3202F2" stroke="#1E1E1E" stroke-width="2" mask="url(#u)" />
        </g>
    </g>
    <defs>
        <filter id="filter0_d" x=".117" y=".524" width="262.173" height="224.599" filterUnits="userSpaceOnUse"
            color-interpolation-filters="sRGB">
            <feFlood flood-opacity="0" result="BackgroundImageFix" />
            <feColorMatrix in="SourceAlpha" values="0 0 0 0 0 0 0 0 0 0 0 0 0 0 0 0 0 0 127 0" />
            <feOffset dy="4" />
            <feGaussianBlur stdDeviation="2" />
            <feColorMatrix values="0 0 0 0 0 0 0 0 0 0 0 0 0 0 0 0 0 0 0.25 0" />
            <feBlend in2="BackgroundImageFix" result="effect1_dropShadow" />
            <feBlend in="SourceGraphic" in2="effect1_dropShadow" result="shape" />
        </filter>
        <filter id="filter1_d" x="100.815" y="35.787" width="90.613" height="158.369" filterUnits="userSpaceOnUse"
            color-interpolation-filters="sRGB">
            <feFlood flood-opacity="0" result="BackgroundImageFix" />
            <feColorMatrix in="SourceAlpha" values="0 0 0 0 0 0 0 0 0 0 0 0 0 0 0 0 0 0 127 0" />
            <feOffset dy="4" />
            <feGaussianBlur stdDeviation="2" />
            <feColorMatrix values="0 0 0 0 0 0 0 0 0 0 0 0 0 0 0 0 0 0 0.25 0" />
            <feBlend in2="BackgroundImageFix" result="effect1_dropShadow" />
            <feBlend in="SourceGraphic" in2="effect1_dropShadow" result="shape" />
        </filter>
        <linearGradient id="paint0_linear" x1="240.966" y1="79.636" x2="55.056" y2="119.939"
            gradientUnits="userSpaceOnUse">
            <stop stop-color="#3400FE" />
            <stop offset="1" stop-opacity="0" />
        </linearGradient>
    </defs>
</svg>