<svg
  id="a"
  width="175"
  height="151"
  viewBox="0 -25 175 180"
  fill="none"
  xmlns="http://www.w3.org/2000/svg"
>
  <g>
    <g filter="url(#filter0_d)">
      <mask id="c" fill="#fff">
        <path
          d="M33.29 33.496a3 3 0 011.64-2.673L92.335 1.592a3 3 0 012.637-.042l62.331 29.297a3 3 0 011.724 2.715v77.207c0 1.17-.681 2.233-1.743 2.724l-62.331 28.771a3.002 3.002 0 01-2.6-.04L34.95 113.517a2.999 2.999 0 01-1.658-2.683V33.496z"
        />
      </mask>
      <path
        d="M33.29 33.496a3 3 0 011.64-2.673L92.335 1.592a3 3 0 012.637-.042l62.331 29.297a3 3 0 011.724 2.715v77.207c0 1.17-.681 2.233-1.743 2.724l-62.331 28.771a3.002 3.002 0 01-2.6-.04L34.95 113.517a2.999 2.999 0 01-1.658-2.683V33.496z"
        stroke="url(#paint0_linear)"
        stroke-width="4"
        mask="url(#c)"
      />
    </g>
    <g filter="url(#filter1_d)">
      <mask id="d" fill="#fff">
        <path
          d="M138.571 64.927L95.063 19.35a1.511 1.511 0 00-2.202-.14 1.586 1.586 0 00-.195.217l-43.432 45.5a1.601 1.601 0 000 2.19l3.697 3.873a1.431 1.431 0 002.09 0l6.349-6.65v44.282c0 1.711 1.324 3.098 2.957 3.098h59.15c1.633 0 2.957-1.387 2.957-3.098V64.34l6.349 6.65a1.432 1.432 0 002.091 0l3.697-3.873a1.602 1.602 0 000-2.19zm-29.882 43.695H79.115V83.836c0-8.555 6.62-15.49 14.787-15.49 8.167 0 14.787 6.935 14.787 15.49v24.786zm2.958 0V83.836c0-10.266-7.944-18.588-17.745-18.588-9.8 0-17.745 8.322-17.745 18.588v24.786h-11.83V62.149h59.15v46.473h-11.83zm-45.229-49.57L93.902 30.26l27.484 28.791H66.418zm67.41 8.653l-38.765-40.61a1.513 1.513 0 00-2.205-.137 1.59 1.59 0 00-.192.215l-38.69 40.532-1.606-1.683 41.532-43.507 41.532 43.507-1.606 1.683z"
        />
      </mask>
      <path
        d="M138.571 64.927L95.063 19.35a1.511 1.511 0 00-2.202-.14 1.586 1.586 0 00-.195.217l-43.432 45.5a1.601 1.601 0 000 2.19l3.697 3.873a1.431 1.431 0 002.09 0l6.349-6.65v44.282c0 1.711 1.324 3.098 2.957 3.098h59.15c1.633 0 2.957-1.387 2.957-3.098V64.34l6.349 6.65a1.432 1.432 0 002.091 0l3.697-3.873a1.602 1.602 0 000-2.19zm-29.882 43.695H79.115V83.836c0-8.555 6.62-15.49 14.787-15.49 8.167 0 14.787 6.935 14.787 15.49v24.786zm2.958 0V83.836c0-10.266-7.944-18.588-17.745-18.588-9.8 0-17.745 8.322-17.745 18.588v24.786h-11.83V62.149h59.15v46.473h-11.83zm-45.229-49.57L93.902 30.26l27.484 28.791H66.418zm67.41 8.653l-38.765-40.61a1.513 1.513 0 00-2.205-.137 1.59 1.59 0 00-.192.215l-38.69 40.532-1.606-1.683 41.532-43.507 41.532 43.507-1.606 1.683z"
        fill="#3400FE"
      />
      <path
        d="M138.571 64.927L95.063 19.35a1.511 1.511 0 00-2.202-.14 1.586 1.586 0 00-.195.217l-43.432 45.5a1.601 1.601 0 000 2.19l3.697 3.873a1.431 1.431 0 002.09 0l6.349-6.65v44.282c0 1.711 1.324 3.098 2.957 3.098h59.15c1.633 0 2.957-1.387 2.957-3.098V64.34l6.349 6.65a1.432 1.432 0 002.091 0l3.697-3.873a1.602 1.602 0 000-2.19zm-29.882 43.695H79.115V83.836c0-8.555 6.62-15.49 14.787-15.49 8.167 0 14.787 6.935 14.787 15.49v24.786zm2.958 0V83.836c0-10.266-7.944-18.588-17.745-18.588-9.8 0-17.745 8.322-17.745 18.588v24.786h-11.83V62.149h59.15v46.473h-11.83zm-45.229-49.57L93.902 30.26l27.484 28.791H66.418zm67.41 8.653l-38.765-40.61a1.513 1.513 0 00-2.205-.137 1.59 1.59 0 00-.192.215l-38.69 40.532-1.606-1.683 41.532-43.507 41.532 43.507-1.606 1.683z"
        stroke="#1E1E1E"
        mask="url(#d)"
      />
    </g>
  </g>
  <defs>
    <filter
      id="filter0_d"
      x=".291"
      y="1.265"
      width="174.054"
      height="149.275"
      filterUnits="userSpaceOnUse"
      color-interpolation-filters="sRGB"
    >
      <feFlood flood-opacity="0" result="BackgroundImageFix" />
      <feColorMatrix
        in="SourceAlpha"
        values="0 0 0 0 0 0 0 0 0 0 0 0 0 0 0 0 0 0 127 0"
      />
      <feOffset dy="4" />
      <feGaussianBlur stdDeviation="2" />
      <feColorMatrix values="0 0 0 0 0 0 0 0 0 0 0 0 0 0 0 0 0 0 0.25 0" />
      <feBlend in2="BackgroundImageFix" result="effect1_dropShadow" />
      <feBlend in="SourceGraphic" in2="effect1_dropShadow" result="shape" />
    </filter>
    <filter
      id="filter1_d"
      x="44.8"
      y="18.8"
      width="98.203"
      height="100.921"
      filterUnits="userSpaceOnUse"
      color-interpolation-filters="sRGB"
    >
      <feFlood flood-opacity="0" result="BackgroundImageFix" />
      <feColorMatrix
        in="SourceAlpha"
        values="0 0 0 0 0 0 0 0 0 0 0 0 0 0 0 0 0 0 127 0"
      />
      <feOffset dy="4" />
      <feGaussianBlur stdDeviation="2" />
      <feColorMatrix values="0 0 0 0 0 0 0 0 0 0 0 0 0 0 0 0 0 0 0.25 0" />
      <feBlend in2="BackgroundImageFix" result="effect1_dropShadow" />
      <feBlend in="SourceGraphic" in2="effect1_dropShadow" result="shape" />
    </filter>
    <linearGradient
      id="paint0_linear"
      x1="159.028"
      y1="52.833"
      x2="37.57"
      y2="79.163"
      gradientUnits="userSpaceOnUse"
    >
      <stop stop-color="#3400FE" />
      <stop offset="1" stop-opacity="0" />
    </linearGradient>
  </defs>
</svg>
