<svg id="a" width="338" height="289" viewBox="0 -35 338 340" fill="none" xmlns="http://www.w3.org/2000/svg">

    <g>

        <g filter="url(#filter0_d)">
            <mask id="c" fill="#fff">
                <path
                    d="M62.215 63.065a3 3 0 011.639-2.673L180.248 1.124a3 3 0 012.637-.041l126.233 59.333a3 3 0 011.724 2.715v156.402a3 3 0 01-1.743 2.724l-126.234 58.268a2.999 2.999 0 01-2.599-.041L63.874 222.281a3 3 0 01-1.659-2.683V63.065z" />
            </mask>
            <path
                d="M62.215 63.065a3 3 0 011.639-2.673L180.248 1.124a3 3 0 012.637-.041l126.233 59.333a3 3 0 011.724 2.715v156.402a3 3 0 01-1.743 2.724l-126.234 58.268a2.999 2.999 0 01-2.599-.041L63.874 222.281a3 3 0 01-1.659-2.683V63.065z"
                stroke="url(#paint0_linear)" stroke-width="4" mask="url(#c)" />
        </g>
        <g clip-path="url(#clip0)" filter="url(#filter1_d)">
            <mask id="d" fill="#fff">
                <path
                    d="M182.317 166.08c5.387 0 9.769-4.325 9.769-9.64 0-5.316-4.382-9.641-9.769-9.641-5.386 0-9.768 4.324-9.768 9.641.001 5.315 4.383 9.64 9.768 9.64zm0-14.857c2.915 0 5.286 2.34 5.286 5.217 0 2.876-2.371 5.216-5.286 5.216-2.914 0-5.285-2.34-5.285-5.216 0-2.877 2.371-5.217 5.285-5.217z" />
            </mask>
            <path
                d="M182.317 166.08c5.387 0 9.769-4.325 9.769-9.64 0-5.316-4.382-9.641-9.769-9.641-5.386 0-9.768 4.324-9.768 9.641.001 5.315 4.383 9.64 9.768 9.64zm0-14.857c2.915 0 5.286 2.34 5.286 5.217 0 2.876-2.371 5.216-5.286 5.216-2.914 0-5.285-2.34-5.285-5.216 0-2.877 2.371-5.217 5.285-5.217z"
                fill="#3202F2" stroke="#1E1E1E" stroke-width="2" mask="url(#d)" />
            <mask id="e" fill="#fff">
                <path
                    d="M225.651 94.898c8.927 0 16.189-7.167 16.189-15.976 0-8.81-7.262-15.978-16.189-15.978-8.926 0-16.188 7.168-16.188 15.977 0 8.81 7.262 15.977 16.188 15.977zm0-27.53c6.455 0 11.706 5.183 11.706 11.553 0 6.37-5.251 11.553-11.706 11.553-6.454 0-11.705-5.182-11.705-11.553 0-6.37 5.251-11.553 11.705-11.553z" />
            </mask>
            <path
                d="M225.651 94.898c8.927 0 16.189-7.167 16.189-15.976 0-8.81-7.262-15.978-16.189-15.978-8.926 0-16.188 7.168-16.188 15.977 0 8.81 7.262 15.977 16.188 15.977zm0-27.53c6.455 0 11.706 5.183 11.706 11.553 0 6.37-5.251 11.553-11.706 11.553-6.454 0-11.705-5.182-11.705-11.553 0-6.37 5.251-11.553 11.705-11.553z"
                fill="#3202F2" stroke="#1E1E1E" stroke-width="2" mask="url(#e)" />
            <mask id="f" fill="#fff">
                <path
                    d="M249.636 119.489c-1.238 0-2.241.99-2.241 2.212v30.268a1.44 1.44 0 01-1.448 1.429h-5.468v-39.045c0-1.222-1.003-2.212-2.241-2.212-1.238 0-2.242.99-2.242 2.212v93.739a1.44 1.44 0 01-1.447 1.428h-5.209a1.44 1.44 0 01-1.447-1.428v-35.19c0-1.222-1.003-2.212-2.241-2.212-1.238 0-2.242.99-2.242 2.212v35.19a1.44 1.44 0 01-1.447 1.428h-5.209a1.44 1.44 0 01-1.447-1.428v-93.739c0-1.222-1.003-2.212-2.241-2.212-1.238 0-2.241.99-2.241 2.212v39.045h-5.469a1.44 1.44 0 01-1.447-1.427v-37.625c0-7.265 5.988-13.175 13.349-13.175h16.788c7.361 0 13.349 5.91 13.349 13.175 0 1.222 1.004 2.212 2.242 2.212s2.241-.99 2.241-2.212c0-9.704-8-17.6-17.832-17.6h-16.789c-9.833 0-17.832 7.896-17.832 17.6v37.626c.001 3.226 2.661 5.85 5.93 5.85h5.468v50.27c0 3.227 2.66 5.852 5.93 5.852h5.209c1.394 0 2.675-.48 3.689-1.278a5.942 5.942 0 003.689 1.278h5.209c3.269 0 5.93-2.625 5.93-5.852v-50.27h5.468c3.27 0 5.93-2.626 5.93-5.853v-30.268c0-1.222-1.003-2.212-2.241-2.212z" />
            </mask>
            <path
                d="M249.636 119.489c-1.238 0-2.241.99-2.241 2.212v30.268a1.44 1.44 0 01-1.448 1.429h-5.468v-39.045c0-1.222-1.003-2.212-2.241-2.212-1.238 0-2.242.99-2.242 2.212v93.739a1.44 1.44 0 01-1.447 1.428h-5.209a1.44 1.44 0 01-1.447-1.428v-35.19c0-1.222-1.003-2.212-2.241-2.212-1.238 0-2.242.99-2.242 2.212v35.19a1.44 1.44 0 01-1.447 1.428h-5.209a1.44 1.44 0 01-1.447-1.428v-93.739c0-1.222-1.003-2.212-2.241-2.212-1.238 0-2.241.99-2.241 2.212v39.045h-5.469a1.44 1.44 0 01-1.447-1.427v-37.625c0-7.265 5.988-13.175 13.349-13.175h16.788c7.361 0 13.349 5.91 13.349 13.175 0 1.222 1.004 2.212 2.242 2.212s2.241-.99 2.241-2.212c0-9.704-8-17.6-17.832-17.6h-16.789c-9.833 0-17.832 7.896-17.832 17.6v37.626c.001 3.226 2.661 5.85 5.93 5.85h5.468v50.27c0 3.227 2.66 5.852 5.93 5.852h5.209c1.394 0 2.675-.48 3.689-1.278a5.942 5.942 0 003.689 1.278h5.209c3.269 0 5.93-2.625 5.93-5.852v-50.27h5.468c3.27 0 5.93-2.626 5.93-5.853v-30.268c0-1.222-1.003-2.212-2.241-2.212z"
                fill="#3202F2" stroke="#1E1E1E" stroke-width="2" mask="url(#f)" />
            <mask id="g" fill="#fff">
                <path
                    d="M135.433 108.42c8.926 0 16.189-7.168 16.189-15.977 0-8.81-7.263-15.977-16.189-15.977s-16.188 7.167-16.188 15.977c0 8.809 7.262 15.977 16.188 15.977zm0-27.53c6.455 0 11.706 5.183 11.706 11.553 0 6.37-5.251 11.553-11.706 11.553-6.454 0-11.705-5.183-11.705-11.553 0-6.37 5.251-11.553 11.705-11.553z" />
            </mask>
            <path
                d="M135.433 108.42c8.926 0 16.189-7.168 16.189-15.977 0-8.81-7.263-15.977-16.189-15.977s-16.188 7.167-16.188 15.977c0 8.809 7.262 15.977 16.188 15.977zm0-27.53c6.455 0 11.706 5.183 11.706 11.553 0 6.37-5.251 11.553-11.706 11.553-6.454 0-11.705-5.183-11.705-11.553 0-6.37 5.251-11.553 11.705-11.553z"
                fill="#3202F2" stroke="#1E1E1E" stroke-width="2" mask="url(#g)" />
            <mask id="h" fill="#fff">
                <path
                    d="M142.804 110.497h-14.741c-8.784 0-15.931 7.053-15.931 15.723v33.038c.001 2.981 2.459 5.406 5.48 5.406h.068l-1.551 13.937a2.19 2.19 0 00.558 1.717 2.251 2.251 0 001.669.736h3.785v27.482c0 2.982 2.459 5.408 5.48 5.408h4.574c1.212 0 2.33-.395 3.239-1.055a5.493 5.493 0 003.239 1.055h4.574c3.022 0 5.48-2.426 5.48-5.408v-12.214c0-1.222-1.003-2.212-2.241-2.212-1.238 0-2.241.99-2.241 2.212v12.214a.991.991 0 01-.997.984h-4.574a.992.992 0 01-.998-.984v-23.627c0-1.222-1.003-2.212-2.241-2.212-1.238 0-2.242.99-2.242 2.212v23.627a.991.991 0 01-.997.984h-4.575a.992.992 0 01-.998-.984v-27.482h17.621v8.187c0 1.222 1.003 2.212 2.241 2.212 1.238 0 2.242-.99 2.242-2.212v-8.187h3.784c.637 0 1.244-.267 1.669-.736a2.194 2.194 0 00.559-1.717l-1.552-13.937h.068c3.022 0 5.48-2.425 5.48-5.408v-33.037c0-8.669-7.147-15.722-15.931-15.722zm11.449 48.759a.993.993 0 01-.998.984h-.56l-4.104-36.852c-.135-1.214-1.242-2.087-2.472-1.957-1.231.133-2.118 1.226-1.983 2.44l5.874 52.759h-29.152l5.874-52.759c.135-1.214-.753-2.307-1.983-2.44-1.233-.13-2.338.743-2.473 1.957l-4.103 36.852h-.56a.992.992 0 01-.998-.983v-33.038c0-6.23 5.136-11.299 11.449-11.299h14.74c6.313 0 11.449 5.069 11.449 11.299v33.037z" />
            </mask>
            <path
                d="M142.804 110.497h-14.741c-8.784 0-15.931 7.053-15.931 15.723v33.038c.001 2.981 2.459 5.406 5.48 5.406h.068l-1.551 13.937a2.19 2.19 0 00.558 1.717 2.251 2.251 0 001.669.736h3.785v27.482c0 2.982 2.459 5.408 5.48 5.408h4.574c1.212 0 2.33-.395 3.239-1.055a5.493 5.493 0 003.239 1.055h4.574c3.022 0 5.48-2.426 5.48-5.408v-12.214c0-1.222-1.003-2.212-2.241-2.212-1.238 0-2.241.99-2.241 2.212v12.214a.991.991 0 01-.997.984h-4.574a.992.992 0 01-.998-.984v-23.627c0-1.222-1.003-2.212-2.241-2.212-1.238 0-2.242.99-2.242 2.212v23.627a.991.991 0 01-.997.984h-4.575a.992.992 0 01-.998-.984v-27.482h17.621v8.187c0 1.222 1.003 2.212 2.241 2.212 1.238 0 2.242-.99 2.242-2.212v-8.187h3.784c.637 0 1.244-.267 1.669-.736a2.194 2.194 0 00.559-1.717l-1.552-13.937h.068c3.022 0 5.48-2.425 5.48-5.408v-33.037c0-8.669-7.147-15.722-15.931-15.722zm11.449 48.759a.993.993 0 01-.998.984h-.56l-4.104-36.852c-.135-1.214-1.242-2.087-2.472-1.957-1.231.133-2.118 1.226-1.983 2.44l5.874 52.759h-29.152l5.874-52.759c.135-1.214-.753-2.307-1.983-2.44-1.233-.13-2.338.743-2.473 1.957l-4.103 36.852h-.56a.992.992 0 01-.998-.983v-33.038c0-6.23 5.136-11.299 11.449-11.299h14.74c6.313 0 11.449 5.069 11.449 11.299v33.037z"
                fill="#3202F2" stroke="#1E1E1E" stroke-width="2" mask="url(#h)" />
            <mask id="i" fill="#fff">
                <path
                    d="M199.304 158.723a6.003 6.003 0 00-4.191 1.868l-8.358 8.785h-8.653l-8.359-8.786c-2.268-2.382-6.077-2.5-8.492-.263a5.884 5.884 0 00-.268 8.381l9.692 10.185v29.271c0 3.187 2.627 5.78 5.857 5.78h11.792c3.23 0 5.857-2.593 5.857-5.78v-12.139c0-1.222-1.003-2.212-2.241-2.212-1.238 0-2.242.99-2.242 2.212v12.139c0 .748-.616 1.356-1.374 1.356h-3.76v-18.45c0-1.221-1.003-2.212-2.241-2.212-1.238 0-2.241.991-2.241 2.212v18.45h-3.55a1.367 1.367 0 01-1.374-1.356v-30.147a2.2 2.2 0 00-.607-1.514l-10.299-10.823a1.494 1.494 0 01.068-2.128 1.543 1.543 0 012.156.067l9.022 9.483a2.253 2.253 0 001.634.698h10.593c.619 0 1.21-.253 1.634-.698l9.022-9.483a1.541 1.541 0 012.155-.067c.613.568.644 1.523.068 2.128l-10.298 10.823c-.391.41-.608.952-.608 1.514v10.634c0 1.222 1.003 2.212 2.241 2.212 1.238 0 2.242-.99 2.242-2.212v-9.758l9.691-10.185a5.883 5.883 0 00-.267-8.381 6.025 6.025 0 00-4.301-1.604z" />
            </mask>
            <path
                d="M199.304 158.723a6.003 6.003 0 00-4.191 1.868l-8.358 8.785h-8.653l-8.359-8.786c-2.268-2.382-6.077-2.5-8.492-.263a5.884 5.884 0 00-.268 8.381l9.692 10.185v29.271c0 3.187 2.627 5.78 5.857 5.78h11.792c3.23 0 5.857-2.593 5.857-5.78v-12.139c0-1.222-1.003-2.212-2.241-2.212-1.238 0-2.242.99-2.242 2.212v12.139c0 .748-.616 1.356-1.374 1.356h-3.76v-18.45c0-1.221-1.003-2.212-2.241-2.212-1.238 0-2.241.991-2.241 2.212v18.45h-3.55a1.367 1.367 0 01-1.374-1.356v-30.147a2.2 2.2 0 00-.607-1.514l-10.299-10.823a1.494 1.494 0 01.068-2.128 1.543 1.543 0 012.156.067l9.022 9.483a2.253 2.253 0 001.634.698h10.593c.619 0 1.21-.253 1.634-.698l9.022-9.483a1.541 1.541 0 012.155-.067c.613.568.644 1.523.068 2.128l-10.298 10.823c-.391.41-.608.952-.608 1.514v10.634c0 1.222 1.003 2.212 2.241 2.212 1.238 0 2.242-.99 2.242-2.212v-9.758l9.691-10.185a5.883 5.883 0 00-.267-8.381 6.025 6.025 0 00-4.301-1.604z"
                fill="#3202F2" stroke="#1E1E1E" stroke-width="2" mask="url(#i)" />
        </g>
    </g>
    <defs>
        <filter id="filter0_d" x=".873" y=".798" width="336.348" height="288.003" filterUnits="userSpaceOnUse"
            color-interpolation-filters="sRGB">
            <feFlood flood-opacity="0" result="BackgroundImageFix" />
            <feColorMatrix in="SourceAlpha" values="0 0 0 0 0 0 0 0 0 0 0 0 0 0 0 0 0 0 127 0" />
            <feOffset dy="4" />
            <feGaussianBlur stdDeviation="2" />
            <feColorMatrix values="0 0 0 0 0 0 0 0 0 0 0 0 0 0 0 0 0 0 0.25 0" />
            <feBlend in2="BackgroundImageFix" result="effect1_dropShadow" />
            <feBlend in="SourceGraphic" in2="effect1_dropShadow" result="shape" />
        </filter>
        <filter id="filter1_d" x="101.505" y="62.944" width="161" height="159" filterUnits="userSpaceOnUse"
            color-interpolation-filters="sRGB">
            <feFlood flood-opacity="0" result="BackgroundImageFix" />
            <feColorMatrix in="SourceAlpha" values="0 0 0 0 0 0 0 0 0 0 0 0 0 0 0 0 0 0 127 0" />
            <feOffset dy="4" />
            <feGaussianBlur stdDeviation="2" />
            <feColorMatrix values="0 0 0 0 0 0 0 0 0 0 0 0 0 0 0 0 0 0 0.25 0" />
            <feBlend in2="BackgroundImageFix" result="effect1_dropShadow" />
            <feBlend in="SourceGraphic" in2="effect1_dropShadow" result="shape" />
        </filter>
        <linearGradient id="paint0_linear" x1="310.842" y1="103.096" x2="70.677" y2="155.16"
            gradientUnits="userSpaceOnUse">
            <stop stop-color="#3400FE" />
            <stop offset="1" stop-opacity="0" />
        </linearGradient>
        <clipPath id="clip0">
            <path fill="#fff" transform="translate(105.505 62.944)" d="M0 0h153v151H0z" />
        </clipPath>
    </defs>
</svg>