<svg id="a" width="220" height="207" viewBox="0 -31 220 252" fill="none" xmlns="http://www.w3.org/2000/svg">

    <g>

        <g filter="url(#filter0_d)">
            <mask id="c" fill="#fff">
                <path
                    d="M23.381 45.187a3 3 0 011.639-2.674L106.655.945a3 3 0 012.637-.042l88.579 41.634a3 3 0 011.723 2.715v109.736c0 1.17-.68 2.233-1.742 2.724l-88.579 40.887a2.999 2.999 0 01-2.599-.041l-81.635-40.822a2.999 2.999 0 01-1.658-2.683V45.186z" />
            </mask>
            <path
                d="M23.381 45.187a3 3 0 011.639-2.674L106.655.945a3 3 0 012.637-.042l88.579 41.634a3 3 0 011.723 2.715v109.736c0 1.17-.68 2.233-1.742 2.724l-88.579 40.887a2.999 2.999 0 01-2.599-.041l-81.635-40.822a2.999 2.999 0 01-1.658-2.683V45.186z"
                stroke="url(#paint0_linear)" stroke-width="4" mask="url(#c)" />
        </g>
        <g filter="url(#filter1_d)">
            <mask id="d" fill="#fff">
                <path
                    d="M163.343 129.649L146.38 99.805 127.631 66.86c-.983-1.726-3.109-2.281-4.757-1.25l-19.995 12.695c-1.634 1.046-2.167 3.283-1.184 5.017l28.463 50.093c.63 1.105 1.752 1.777 2.97 1.777h27.245c1.246 0 2.403-.709 3.019-1.857a3.85 3.85 0 00-.049-3.686zm-28.248-1.769l-25.68-45.187 14.069-8.93 30.776 54.117h-19.165z" />
            </mask>
            <path
                d="M163.343 129.649L146.38 99.805 127.631 66.86c-.983-1.726-3.109-2.281-4.757-1.25l-19.995 12.695c-1.634 1.046-2.167 3.283-1.184 5.017l28.463 50.093c.63 1.105 1.752 1.777 2.97 1.777h27.245c1.246 0 2.403-.709 3.019-1.857a3.85 3.85 0 00-.049-3.686zm-28.248-1.769l-25.68-45.187 14.069-8.93 30.776 54.117h-19.165z"
                fill="#F5BF00" stroke="#1E1E1E" stroke-width="5" mask="url(#d)" />
        </g>
        <g filter="url(#filter2_d)">
            <mask id="e" fill="#fff">
                <path
                    d="M126.542 129.657l-6.653-11.738v-.007l-16.333-28.703a3.473 3.473 0 00-2.133-1.668 3.308 3.308 0 00-2.617.417l-19.989 12.703a3.651 3.651 0 00-1.592 2.252 3.857 3.857 0 00.387 2.772l15.78 27.738c.63 1.097 1.758 1.77 2.97 1.77h27.224c1.239 0 2.389-.71 2.998-1.851a3.829 3.829 0 00-.042-3.685zm-28.22-1.777l-12.99-22.824 14.076-8.944 18.071 31.768H98.321z" />
            </mask>
            <path
                d="M126.542 129.657l-6.653-11.738v-.007l-16.333-28.703a3.473 3.473 0 00-2.133-1.668 3.308 3.308 0 00-2.617.417l-19.989 12.703a3.651 3.651 0 00-1.592 2.252 3.857 3.857 0 00.387 2.772l15.78 27.738c.63 1.097 1.758 1.77 2.97 1.77h27.224c1.239 0 2.389-.71 2.998-1.851a3.829 3.829 0 00-.042-3.685zm-28.22-1.777l-12.99-22.824 14.076-8.944 18.071 31.768H98.321z"
                fill="#F5BF00" stroke="#1E1E1E" stroke-width="5" mask="url(#e)" />
        </g>
        <g filter="url(#filter3_d)">
            <mask id="f" fill="#fff">
                <path
                    d="M89.785 129.657l-5.58-9.821-4.708-8.264c-.984-1.733-3.102-2.311-4.75-1.25L54.73 123.01c-1.633 1.038-2.167 3.291-1.183 5.016l3.06 5.39c.63 1.104 1.752 1.777 2.97 1.777h27.245c1.246 0 2.395-.709 3.005-1.85a3.83 3.83 0 00-.042-3.686zm-28.248-1.777l-.277-.475 14.09-8.937 5.358 9.412H61.536z" />
            </mask>
            <path
                d="M89.785 129.657l-5.58-9.821-4.708-8.264c-.984-1.733-3.102-2.311-4.75-1.25L54.73 123.01c-1.633 1.038-2.167 3.291-1.183 5.016l3.06 5.39c.63 1.104 1.752 1.777 2.97 1.777h27.245c1.246 0 2.395-.709 3.005-1.85a3.83 3.83 0 00-.042-3.686zm-28.248-1.777l-.277-.475 14.09-8.937 5.358 9.412H61.536z"
                fill="#F5BF00" stroke="#1E1E1E" stroke-width="5" mask="url(#f)" />
        </g>
    </g>
    <defs>
        <filter id="filter0_d" x="-21.26" y=".618" width="240.716" height="206.257" filterUnits="userSpaceOnUse"
            color-interpolation-filters="sRGB">
            <feFlood flood-opacity="0" result="BackgroundImageFix" />
            <feColorMatrix in="SourceAlpha" values="0 0 0 0 0 0 0 0 0 0 0 0 0 0 0 0 0 0 127 0" />
            <feOffset dy="4" />
            <feGaussianBlur stdDeviation="2" />
            <feColorMatrix values="0 0 0 0 0 0 0 0 0 0 0 0 0 0 0 0 0 0 0.25 0" />
            <feBlend in2="BackgroundImageFix" result="effect1_dropShadow" />
            <feBlend in="SourceGraphic" in2="effect1_dropShadow" result="shape" />
        </filter>
        <filter id="filter1_d" x="97.201" y="65.092" width="70.636" height="78.101" filterUnits="userSpaceOnUse"
            color-interpolation-filters="sRGB">
            <feFlood flood-opacity="0" result="BackgroundImageFix" />
            <feColorMatrix in="SourceAlpha" values="0 0 0 0 0 0 0 0 0 0 0 0 0 0 0 0 0 0 127 0" />
            <feOffset dy="4" />
            <feGaussianBlur stdDeviation="2" />
            <feColorMatrix values="0 0 0 0 0 0 0 0 0 0 0 0 0 0 0 0 0 0 0.25 0" />
            <feBlend in2="BackgroundImageFix" result="effect1_dropShadow" />
            <feBlend in="SourceGraphic" in2="effect1_dropShadow" result="shape" />
        </filter>
        <filter id="filter2_d" x="73.122" y="87.434" width="57.914" height="55.758" filterUnits="userSpaceOnUse"
            color-interpolation-filters="sRGB">
            <feFlood flood-opacity="0" result="BackgroundImageFix" />
            <feColorMatrix in="SourceAlpha" values="0 0 0 0 0 0 0 0 0 0 0 0 0 0 0 0 0 0 127 0" />
            <feOffset dy="4" />
            <feGaussianBlur stdDeviation="2" />
            <feColorMatrix values="0 0 0 0 0 0 0 0 0 0 0 0 0 0 0 0 0 0 0.25 0" />
            <feBlend in2="BackgroundImageFix" result="effect1_dropShadow" />
            <feBlend in="SourceGraphic" in2="effect1_dropShadow" result="shape" />
        </filter>
        <filter id="filter3_d" x="49.053" y="109.789" width="45.226" height="33.404" filterUnits="userSpaceOnUse"
            color-interpolation-filters="sRGB">
            <feFlood flood-opacity="0" result="BackgroundImageFix" />
            <feColorMatrix in="SourceAlpha" values="0 0 0 0 0 0 0 0 0 0 0 0 0 0 0 0 0 0 127 0" />
            <feOffset dy="4" />
            <feGaussianBlur stdDeviation="2" />
            <feColorMatrix values="0 0 0 0 0 0 0 0 0 0 0 0 0 0 0 0 0 0 0.25 0" />
            <feBlend in2="BackgroundImageFix" result="effect1_dropShadow" />
            <feBlend in="SourceGraphic" in2="effect1_dropShadow" result="shape" />
        </filter>
        <linearGradient id="paint0_linear" x1="199.594" y1="73.023" x2="29.378" y2="109.923"
            gradientUnits="userSpaceOnUse">
            <stop stop-color="#F5BF00" />
            <stop offset="1" stop-opacity="0" />
        </linearGradient>
    </defs>
</svg>