<svg id="a" width="240" height="207" viewBox="0 -29 240 249" fill="none" xmlns="http://www.w3.org/2000/svg">

    <g>

        <g filter="url(#filter0_d)">
            <mask id="c" fill="#fff">
                <path
                    d="M45.132 45.414a3 3 0 011.639-2.673L127.824 1.47a3.001 3.001 0 012.638-.042l87.947 41.338a3 3 0 011.724 2.715v108.955c0 1.17-.68 2.233-1.743 2.723l-87.948 40.597a2.999 2.999 0 01-2.599-.041L46.79 157.183a3 3 0 01-1.658-2.683V45.415z" />
            </mask>
            <path
                d="M45.132 45.414a3 3 0 011.639-2.673L127.824 1.47a3.001 3.001 0 012.638-.042l87.947 41.338a3 3 0 011.724 2.715v108.955c0 1.17-.68 2.233-1.743 2.723l-87.948 40.597a2.999 2.999 0 01-2.599-.041L46.79 157.183a3 3 0 01-1.658-2.683V45.415z"
                stroke="url(#paint0_linear)" stroke-width="4" mask="url(#c)" />
        </g>
        <g clip-path="url(#clip0)" filter="url(#filter1_d)">
            <mask id="d" fill="#fff">
                <path
                    d="M172.569 67.22c6.956 0 12.615-5.658 12.615-12.616 0-6.958-5.658-12.618-12.615-12.618-6.962 0-12.626 5.66-12.626 12.618s5.664 12.617 12.626 12.617zm0-21.34c4.809 0 8.72 3.914 8.72 8.724 0 4.809-3.911 8.723-8.72 8.723-4.814 0-8.731-3.914-8.731-8.723 0-4.81 3.917-8.723 8.731-8.723z" />
            </mask>
            <path
                d="M172.569 67.22c6.956 0 12.615-5.658 12.615-12.616 0-6.958-5.658-12.618-12.615-12.618-6.962 0-12.626 5.66-12.626 12.618s5.664 12.617 12.626 12.617zm0-21.34c4.809 0 8.72 3.914 8.72 8.724 0 4.809-3.911 8.723-8.72 8.723-4.814 0-8.731-3.914-8.731-8.723 0-4.81 3.917-8.723 8.731-8.723z"
                fill="#F5BF00" stroke="#1E1E1E" stroke-width="2.5" mask="url(#d)" />
            <mask id="e" fill="#fff">
                <path
                    d="M98.007 66.913c6.957 0 12.618-5.66 12.618-12.617 0-6.956-5.661-12.615-12.618-12.615-6.961 0-12.625 5.659-12.625 12.615 0 6.958 5.663 12.617 12.625 12.617zm0-21.337c4.81 0 8.723 3.912 8.723 8.72 0 4.81-3.913 8.723-8.723 8.723-4.814 0-8.731-3.914-8.731-8.723 0-4.808 3.917-8.72 8.731-8.72z" />
            </mask>
            <path
                d="M98.007 66.913c6.957 0 12.618-5.66 12.618-12.617 0-6.956-5.661-12.615-12.618-12.615-6.961 0-12.625 5.659-12.625 12.615 0 6.958 5.663 12.617 12.625 12.617zm0-21.337c4.81 0 8.723 3.912 8.723 8.72 0 4.81-3.913 8.723-8.723 8.723-4.814 0-8.731-3.914-8.731-8.723 0-4.808 3.917-8.72 8.731-8.72z"
                fill="#F5BF00" stroke="#1E1E1E" stroke-width="2.5" mask="url(#e)" />
            <mask id="f" fill="#fff">
                <path
                    d="M108.825 127.966h-.369c-3.874 0-7.244-3.47-7.244-7.344V76.645c0-1.464.363-2.97.861-4.48.197-.594.151-1.272-.215-1.78-.366-.506-.897-.833-1.523-.833H85.101c-6.069.001-11.149 5.535-11.149 10.248v35.631c0 1.075 1.244 1.827 2.32 1.827h5.469v40.135c0 1.075 1.024 1.727 2.099 1.727h24.985c1.075 0 2.122-.652 2.122-1.727v-27.798c0-1.076-1.046-1.629-2.122-1.629zm-1.772 27.259H85.635v-39.794c0-1.075-.72-2.068-1.796-2.068h-5.992V79.801c0-2.536 3.262-6.353 7.254-6.353H97.83c-.194.974-.512 2.16-.512 3.198v43.977c0 5.485 3.895 10.039 9.736 10.805v23.797z" />
            </mask>
            <path
                d="M108.825 127.966h-.369c-3.874 0-7.244-3.47-7.244-7.344V76.645c0-1.464.363-2.97.861-4.48.197-.594.151-1.272-.215-1.78-.366-.506-.897-.833-1.523-.833H85.101c-6.069.001-11.149 5.535-11.149 10.248v35.631c0 1.075 1.244 1.827 2.32 1.827h5.469v40.135c0 1.075 1.024 1.727 2.099 1.727h24.985c1.075 0 2.122-.652 2.122-1.727v-27.798c0-1.076-1.046-1.629-2.122-1.629zm-1.772 27.259H85.635v-39.794c0-1.075-.72-2.068-1.796-2.068h-5.992V79.801c0-2.536 3.262-6.353 7.254-6.353H97.83c-.194.974-.512 2.16-.512 3.198v43.977c0 5.485 3.895 10.039 9.736 10.805v23.797z"
                fill="#F5BF00" stroke="#1E1E1E" stroke-width="2.5" mask="url(#f)" />
            <mask id="g" fill="#fff">
                <path
                    d="M164.492 120.623V76.646c0-5.737-5.71-11.96-13.283-11.96h-31.85c-7.237 0-13.28 6.351-13.28 11.96v43.977c0 1.074 1.302 1.502 2.377 1.502h7.359v50.287c0 1.075.909 2.284 1.984 2.284h34.973c1.075 0 1.984-1.208 1.984-2.284v-50.287h7.357c1.075 0 2.379-.427 2.379-1.502zm-3.894-2.392h-7.826c-1.074 0-1.91 1.317-1.91 2.392v50.179h-31.153v-50.179c0-1.075-.835-2.393-1.91-2.393h-7.826V76.646c0-3.316 4.19-8.066 9.386-8.066h31.851c5.467 0 9.389 4.708 9.389 8.066v41.585h-.001z" />
            </mask>
            <path
                d="M164.492 120.623V76.646c0-5.737-5.71-11.96-13.283-11.96h-31.85c-7.237 0-13.28 6.351-13.28 11.96v43.977c0 1.074 1.302 1.502 2.377 1.502h7.359v50.287c0 1.075.909 2.284 1.984 2.284h34.973c1.075 0 1.984-1.208 1.984-2.284v-50.287h7.357c1.075 0 2.379-.427 2.379-1.502zm-3.894-2.392h-7.826c-1.074 0-1.91 1.317-1.91 2.392v50.179h-31.153v-50.179c0-1.075-.835-2.393-1.91-2.393h-7.826V76.646c0-3.316 4.19-8.066 9.386-8.066h31.851c5.467 0 9.389 4.708 9.389 8.066v41.585h-.001z"
                fill="#F5BF00" stroke="#1E1E1E" stroke-width="2.5" mask="url(#g)" />
            <mask id="h" fill="#fff">
                <path
                    d="M135.29 57.287c8.332 0 15.11-6.78 15.11-15.114 0-8.336-6.779-15.119-15.11-15.119-8.342 0-15.127 6.783-15.127 15.118s6.785 15.115 15.127 15.115zm0-26.339c6.185 0 11.216 5.035 11.216 11.224 0 6.186-5.031 11.22-11.216 11.22-6.194 0-11.233-5.034-11.233-11.22 0-6.188 5.039-11.224 11.233-11.224z" />
            </mask>
            <path
                d="M135.29 57.287c8.332 0 15.11-6.78 15.11-15.114 0-8.336-6.779-15.119-15.11-15.119-8.342 0-15.127 6.783-15.127 15.118s6.785 15.115 15.127 15.115zm0-26.339c6.185 0 11.216 5.035 11.216 11.224 0 6.186-5.031 11.22-11.216 11.22-6.194 0-11.233-5.034-11.233-11.22 0-6.188 5.039-11.224 11.233-11.224z"
                fill="#F5BF00" stroke="#1E1E1E" stroke-width="2.5" mask="url(#h)" />
            <mask id="i" fill="#fff">
                <path
                    d="M185.467 69.553h-15.119c-.615 0-1.194.47-1.562.964-.367.494-.368 1.221-.191 1.811.433 1.45.765 2.962.765 4.318v43.977c0 3.873-3.374 7.343-7.247 7.343h-.366c-1.075 0-2.122.552-2.122 1.628v28.103c0 1.075 1.046 2.396 2.122 2.396h24.988c1.075 0 2.096-1.32 2.096-2.396v-40.44h5.469c1.075 0 2.319-.446 2.319-1.521V80.11c0-4.823-4.799-10.557-11.152-10.557zm7.258 43.81h-5.99c-1.075 0-1.798 1.298-1.798 2.373v40.463h-21.418v-24.772c5.841-.768 9.735-5.321 9.735-10.805V76.645c0-.93-.303-2.224-.46-3.198h12.673c4.204 0 7.258 4.092 7.258 6.663v33.253z" />
            </mask>
            <path
                d="M185.467 69.553h-15.119c-.615 0-1.194.47-1.562.964-.367.494-.368 1.221-.191 1.811.433 1.45.765 2.962.765 4.318v43.977c0 3.873-3.374 7.343-7.247 7.343h-.366c-1.075 0-2.122.552-2.122 1.628v28.103c0 1.075 1.046 2.396 2.122 2.396h24.988c1.075 0 2.096-1.32 2.096-2.396v-40.44h5.469c1.075 0 2.319-.446 2.319-1.521V80.11c0-4.823-4.799-10.557-11.152-10.557zm7.258 43.81h-5.99c-1.075 0-1.798 1.298-1.798 2.373v40.463h-21.418v-24.772c5.841-.768 9.735-5.321 9.735-10.805V76.645c0-.93-.303-2.224-.46-3.198h12.673c4.204 0 7.258 4.092 7.258 6.663v33.253h0z"
                fill="#F5BF00" stroke="#1E1E1E" stroke-width="2.5" mask="url(#i)" />
        </g>
    </g>
    <defs>
        <filter id="filter0_d" x=".771" y="1.142" width="239.114" height="204.888" filterUnits="userSpaceOnUse"
            color-interpolation-filters="sRGB">
            <feFlood flood-opacity="0" result="BackgroundImageFix" />
            <feColorMatrix in="SourceAlpha" values="0 0 0 0 0 0 0 0 0 0 0 0 0 0 0 0 0 0 127 0" />
            <feOffset dy="4" />
            <feGaussianBlur stdDeviation="2" />
            <feColorMatrix values="0 0 0 0 0 0 0 0 0 0 0 0 0 0 0 0 0 0 0.25 0" />
            <feBlend in2="BackgroundImageFix" result="effect1_dropShadow" />
            <feBlend in="SourceGraphic" in2="effect1_dropShadow" result="shape" />
        </filter>
        <filter id="filter1_d" x="57.465" y="27.054" width="155.642" height="155.642" filterUnits="userSpaceOnUse"
            color-interpolation-filters="sRGB">
            <feFlood flood-opacity="0" result="BackgroundImageFix" />
            <feColorMatrix in="SourceAlpha" values="0 0 0 0 0 0 0 0 0 0 0 0 0 0 0 0 0 0 127 0" />
            <feOffset dy="4" />
            <feGaussianBlur stdDeviation="2" />
            <feColorMatrix values="0 0 0 0 0 0 0 0 0 0 0 0 0 0 0 0 0 0 0.25 0" />
            <feBlend in2="BackgroundImageFix" result="effect1_dropShadow" />
            <feBlend in="SourceGraphic" in2="effect1_dropShadow" result="shape" />
        </filter>
        <linearGradient id="paint0_linear" x1="220.133" y1="73.047" x2="51.088" y2="109.693"
            gradientUnits="userSpaceOnUse">
            <stop stop-color="#F5BF00" />
            <stop offset="1" stop-opacity="0" />
        </linearGradient>
        <clipPath id="clip0">
            <path fill="#fff" transform="translate(61.465 27.054)" d="M0 0h147.642v147.642H0z" />
        </clipPath>
    </defs>
</svg>