<svg
  id="a"
  width="154"
  height="133"
  viewBox="0 -10 165 155"
  fill="none"
  xmlns="http://www.w3.org/2000/svg"
>
  <g>
    <g filter="url(#filter0_d)">
      <mask id="c" fill="#fff">
        <path
          d="M29.575 29.325a3 3 0 011.64-2.674l50.04-25.48a3 3 0 012.637-.041l54.35 25.546a3 3 0 011.724 2.715v67.316a3 3 0 01-1.743 2.724l-54.35 25.088a2.999 2.999 0 01-2.6-.041l-50.04-25.022a3 3 0 01-1.658-2.684V29.325z"
        />
      </mask>
      <path
        d="M29.575 29.325a3 3 0 011.64-2.674l50.04-25.48a3 3 0 012.637-.041l54.35 25.546a3 3 0 011.724 2.715v67.316a3 3 0 01-1.743 2.724l-54.35 25.088a2.999 2.999 0 01-2.6-.041l-50.04-25.022a3 3 0 01-1.658-2.684V29.325z"
        stroke="url(#paint0_linear)"
        stroke-width="4"
        mask="url(#c)"
      />
    </g>
    <mask id="d" fill="#fff">
      <path
        d="M122.006 63.903L83.808 23.889a1.327 1.327 0 00-1.933-.123 1.46 1.46 0 00-.171.19L43.573 63.904a1.406 1.406 0 000 1.923l3.245 3.4a1.256 1.256 0 001.836 0l5.574-5.838v38.877c0 1.502 1.162 2.72 2.596 2.72h51.93c1.434 0 2.597-1.218 2.597-2.72V63.388l5.573 5.838a1.257 1.257 0 001.836 0l3.246-3.4a1.408 1.408 0 000-1.923zm-26.235 38.361H69.807v-21.76c0-7.51 5.812-13.6 12.982-13.6 7.17 0 12.982 6.09 12.982 13.6v21.76zm2.597 0v-21.76c0-9.013-6.975-16.32-15.579-16.32-8.604 0-15.58 7.307-15.58 16.32v21.76H56.825v-40.8h51.93v40.8H98.368zM58.66 58.744l24.13-25.277 24.128 25.278H58.66zm59.182 7.598L83.808 30.689a1.328 1.328 0 00-1.936-.12 1.4 1.4 0 00-.168.188L47.736 66.342l-1.41-1.478L82.79 26.668l36.463 38.196-1.41 1.478z"
      />
    </mask>
    <path
      d="M122.006 63.903L83.808 23.889a1.327 1.327 0 00-1.933-.123 1.46 1.46 0 00-.171.19L43.573 63.904a1.406 1.406 0 000 1.923l3.245 3.4a1.256 1.256 0 001.836 0l5.574-5.838v38.877c0 1.502 1.162 2.72 2.596 2.72h51.93c1.434 0 2.597-1.218 2.597-2.72V63.388l5.573 5.838a1.257 1.257 0 001.836 0l3.246-3.4a1.408 1.408 0 000-1.923zm-26.235 38.361H69.807v-21.76c0-7.51 5.812-13.6 12.982-13.6 7.17 0 12.982 6.09 12.982 13.6v21.76zm2.597 0v-21.76c0-9.013-6.975-16.32-15.579-16.32-8.604 0-15.58 7.307-15.58 16.32v21.76H56.825v-40.8h51.93v40.8H98.368zM58.66 58.744l24.13-25.277 24.128 25.278H58.66zm59.182 7.598L83.808 30.689a1.328 1.328 0 00-1.936-.12 1.4 1.4 0 00-.168.188L47.736 66.342l-1.41-1.478L82.79 26.668l36.463 38.196-1.41 1.478z"
      fill="#3400FE"
      stroke="#1E1E1E"
      mask="url(#d)"
    />
  </g>
  <defs>
    <linearGradient
      id="paint0_linear"
      x1="139.966"
      y1="46.076"
      x2="33.333"
      y2="69.193"
      gradientUnits="userSpaceOnUse"
    >
      <stop stop-color="#3400FE" />
      <stop offset="1" stop-opacity="0" />
    </linearGradient>
    <filter
      id="filter0_d"
      x=".115"
      y=".845"
      width="153.786"
      height="131.95"
      filterUnits="userSpaceOnUse"
      color-interpolation-filters="sRGB"
    >
      <feFlood flood-opacity="0" result="BackgroundImageFix" />
      <feColorMatrix
        in="SourceAlpha"
        values="0 0 0 0 0 0 0 0 0 0 0 0 0 0 0 0 0 0 127 0"
      />
      <feOffset dy="4" />
      <feGaussianBlur stdDeviation="2" />
      <feColorMatrix values="0 0 0 0 0 0 0 0 0 0 0 0 0 0 0 0 0 0 0.25 0" />
      <feBlend in2="BackgroundImageFix" result="effect1_dropShadow" />
      <feBlend in="SourceGraphic" in2="effect1_dropShadow" result="shape" />
    </filter>
  </defs>
</svg>
