<svg id="a" width="185" height="159" viewBox="0 -34 185 200" fill="none" xmlns="http://www.w3.org/2000/svg">

    <g>

        <g filter="url(#filter0_d)">
            <mask id="c" fill="#fff">
                <path
                    d="M35.197 34.715a3 3 0 011.639-2.673L97.81.993a3 3 0 012.637-.041l66.196 31.114a3 3 0 011.724 2.715v81.997a3 3 0 01-1.743 2.724l-66.197 30.556a2.998 2.998 0 01-2.599-.041l-60.974-30.49a3 3 0 01-1.658-2.683V34.715z" />
            </mask>
            <path
                d="M35.197 34.715a3 3 0 011.639-2.673L97.81.993a3 3 0 012.637-.041l66.196 31.114a3 3 0 011.724 2.715v81.997a3 3 0 01-1.743 2.724l-66.197 30.556a2.998 2.998 0 01-2.599-.041l-60.974-30.49a3 3 0 01-1.658-2.683V34.715z"
                stroke="url(#paint0_linear)" stroke-width="4" mask="url(#c)" />
        </g>
        <g filter="url(#filter1_d)">
            <mask id="d" fill="#fff">
                <path
                    d="M144.564 35.481a1.335 1.335 0 00-.921-.5L123.6 33.188l-.364-3.026c-.093-.778-.773-1.33-1.514-1.232l-18.593 2.448a1.317 1.317 0 00-.227-.041L77.347 29.05c-.736-.068-1.404.525-1.467 1.294l-.381 4.673-19.795 2.607c-.733.097-1.268.819-1.176 1.587l10.104 84.192c.046.384-.033.753.117 1.124.21.52.71.868 1.25.868h66.537c.749 0 1.356-.636 1.356-1.421v-1.85l2.626.235c.736.067 1.404-.525 1.467-1.295l6.893-84.546a1.463 1.463 0 00-.314-1.037zm-79.921 65.233l-7.255-60.448 7.255-.956v61.404zm13.824-68.713l11.868 1.062-12.084 1.592.216-2.654zm42.248-.075l.693 5.773H76.879l43.836-5.773zm14.683 87.481l-1.506-.135V77.758c0-.784-.607-1.42-1.356-1.42-.749 0-1.356.636-1.356 1.42v44.795H67.355V40.54h63.825v30.59c0 .784.607 1.42 1.356 1.42.749 0 1.356-.636 1.356-1.42V39.12c0-.785-.607-1.421-1.356-1.421h-8.395l-.195-1.629 18.115 1.621-6.663 81.716z" />
            </mask>
            <path
                d="M144.564 35.481a1.335 1.335 0 00-.921-.5L123.6 33.188l-.364-3.026c-.093-.778-.773-1.33-1.514-1.232l-18.593 2.448a1.317 1.317 0 00-.227-.041L77.347 29.05c-.736-.068-1.404.525-1.467 1.294l-.381 4.673-19.795 2.607c-.733.097-1.268.819-1.176 1.587l10.104 84.192c.046.384-.033.753.117 1.124.21.52.71.868 1.25.868h66.537c.749 0 1.356-.636 1.356-1.421v-1.85l2.626.235c.736.067 1.404-.525 1.467-1.295l6.893-84.546a1.463 1.463 0 00-.314-1.037zm-79.921 65.233l-7.255-60.448 7.255-.956v61.404zm13.824-68.713l11.868 1.062-12.084 1.592.216-2.654zm42.248-.075l.693 5.773H76.879l43.836-5.773zm14.683 87.481l-1.506-.135V77.758c0-.784-.607-1.42-1.356-1.42-.749 0-1.356.636-1.356 1.42v44.795H67.355V40.54h63.825v30.59c0 .784.607 1.42 1.356 1.42.749 0 1.356-.636 1.356-1.42V39.12c0-.785-.607-1.421-1.356-1.421h-8.395l-.195-1.629 18.115 1.621-6.663 81.716z"
                fill="#6AEDFC" stroke="#1E1E1E" stroke-width="2" mask="url(#d)" />
            <mask id="e" fill="#fff">
                <path
                    d="M125.302 45.275h-7.232a1.34 1.34 0 00-1.129.633l-3.069 4.823c-3.304-2.48-7.349-3.94-11.713-3.94-.749 0-1.357.635-1.357 1.42v19.698c0 .785.607 1.42 1.357 1.42h18.804c.749 0 1.356-.635 1.356-1.42 0-6.048-2.44-11.51-6.343-15.363l2.82-4.43h6.506c.749 0 1.356-.636 1.356-1.42 0-.785-.607-1.42-1.356-1.42zm-5.748 21.214h-16.039V49.686c3.288.266 6.322 1.495 8.851 3.412l-1.21 1.901c-.378.594-.268 1.416.254 1.875a1.33 1.33 0 002.002-.299l1.036-1.627c2.883 3 4.775 7.045 5.106 11.54z" />
            </mask>
            <path
                d="M125.302 45.275h-7.232a1.34 1.34 0 00-1.129.633l-3.069 4.823c-3.304-2.48-7.349-3.94-11.713-3.94-.749 0-1.357.635-1.357 1.42v19.698c0 .785.607 1.42 1.357 1.42h18.804c.749 0 1.356-.635 1.356-1.42 0-6.048-2.44-11.51-6.343-15.363l2.82-4.43h6.506c.749 0 1.356-.636 1.356-1.42 0-.785-.607-1.42-1.356-1.42zm-5.748 21.214h-16.039V49.686c3.288.266 6.322 1.495 8.851 3.412l-1.21 1.901c-.378.594-.268 1.416.254 1.875a1.33 1.33 0 002.002-.299l1.036-1.627c2.883 3 4.775 7.045 5.106 11.54z"
                fill="#6AEDFC" stroke="#1E1E1E" stroke-width="2" mask="url(#e)" />
            <mask id="f" fill="#fff">
                <path
                    d="M125.302 92.248h-12.266l-2.161-3.622c3.501-3.8 5.658-8.97 5.658-14.655 0-.785-.607-1.421-1.356-1.421H97.729V54.272c0-.785-.607-1.42-1.356-1.42-11.116 0-20.16 9.474-20.16 21.119 0 11.644 9.044 21.119 20.16 21.119 4.699 0 9.027-1.693 12.459-4.527l2.302 3.859c.248.415.683.668 1.15.668h13.018c.749 0 1.357-.636 1.357-1.421s-.608-1.42-1.357-1.42zm-19.1-11.454c-.397-.666-1.234-.868-1.869-.452s-.828 1.292-.431 1.958l3.483 5.838c-3.005 2.568-6.84 4.11-11.012 4.11-9.62 0-17.448-8.199-17.448-18.277 0-9.6 7.103-17.496 16.092-18.224v18.224c0 .784.607 1.42 1.356 1.42h17.396c-.303 4.108-1.908 7.84-4.382 10.742l-3.185-5.339z" />
            </mask>
            <path
                d="M125.302 92.248h-12.266l-2.161-3.622c3.501-3.8 5.658-8.97 5.658-14.655 0-.785-.607-1.421-1.356-1.421H97.729V54.272c0-.785-.607-1.42-1.356-1.42-11.116 0-20.16 9.474-20.16 21.119 0 11.644 9.044 21.119 20.16 21.119 4.699 0 9.027-1.693 12.459-4.527l2.302 3.859c.248.415.683.668 1.15.668h13.018c.749 0 1.357-.636 1.357-1.421s-.608-1.42-1.357-1.42zm-19.1-11.454c-.397-.666-1.234-.868-1.869-.452s-.828 1.292-.431 1.958l3.483 5.838c-3.005 2.568-6.84 4.11-11.012 4.11-9.62 0-17.448-8.199-17.448-18.277 0-9.6 7.103-17.496 16.092-18.224v18.224c0 .784.607 1.42 1.356 1.42h17.396c-.303 4.108-1.908 7.84-4.382 10.742l-3.185-5.339z"
                fill="#6AEDFC" stroke="#1E1E1E" stroke-width="2" mask="url(#f)" />
            <mask id="g" fill="#fff">
                <path
                    d="M84.802 99.824H73.23c-.749 0-1.356.636-1.356 1.421s.607 1.42 1.356 1.42h11.572c.749 0 1.356-.635 1.356-1.42 0-.785-.607-1.42-1.356-1.42z" />
            </mask>
            <path
                d="M84.802 99.824H73.23c-.749 0-1.356.636-1.356 1.421s.607 1.42 1.356 1.42h11.572c.749 0 1.356-.635 1.356-1.42 0-.785-.607-1.42-1.356-1.42z"
                fill="#6AEDFC" stroke="#1E1E1E" stroke-width="2" mask="url(#g)" />
            <mask id="h" fill="#fff">
                <path
                    d="M102.16 99.824H90.588c-.748 0-1.356.636-1.356 1.421s.608 1.42 1.356 1.42h11.572c.749 0 1.356-.635 1.356-1.42 0-.785-.607-1.42-1.356-1.42z" />
            </mask>
            <path
                d="M102.16 99.824H90.588c-.748 0-1.356.636-1.356 1.421s.608 1.42 1.356 1.42h11.572c.749 0 1.356-.635 1.356-1.42 0-.785-.607-1.42-1.356-1.42z"
                fill="#6AEDFC" stroke="#1E1E1E" stroke-width="2" mask="url(#h)" />
            <mask id="i" fill="#fff">
                <path
                    d="M92.034 107.401H73.23c-.749 0-1.356.636-1.356 1.42 0 .785.607 1.421 1.356 1.421h18.804c.75 0 1.356-.636 1.356-1.421 0-.784-.607-1.42-1.356-1.42z" />
            </mask>
            <path
                d="M92.034 107.401H73.23c-.749 0-1.356.636-1.356 1.42 0 .785.607 1.421 1.356 1.421h18.804c.75 0 1.356-.636 1.356-1.421 0-.784-.607-1.42-1.356-1.42z"
                fill="#6AEDFC" stroke="#1E1E1E" stroke-width="2" mask="url(#i)" />
            <mask id="j" fill="#fff">
                <path
                    d="M102.159 107.401h-4.34c-.748 0-1.355.636-1.355 1.42 0 .785.607 1.421 1.356 1.421h4.339c.749 0 1.356-.636 1.356-1.421 0-.784-.607-1.42-1.356-1.42z" />
            </mask>
            <path
                d="M102.159 107.401h-4.34c-.748 0-1.355.636-1.355 1.42 0 .785.607 1.421 1.356 1.421h4.339c.749 0 1.356-.636 1.356-1.421 0-.784-.607-1.42-1.356-1.42z"
                fill="#6AEDFC" stroke="#1E1E1E" stroke-width="2" mask="url(#j)" />
            <mask id="k" fill="#fff">
                <path
                    d="M79.016 114.977H73.23c-.749 0-1.356.636-1.356 1.42 0 .785.607 1.421 1.356 1.421h5.786c.749 0 1.356-.636 1.356-1.421 0-.784-.607-1.42-1.356-1.42z" />
            </mask>
            <path
                d="M79.016 114.977H73.23c-.749 0-1.356.636-1.356 1.42 0 .785.607 1.421 1.356 1.421h5.786c.749 0 1.356-.636 1.356-1.421 0-.784-.607-1.42-1.356-1.42z"
                fill="#6AEDFC" stroke="#1E1E1E" stroke-width="2" mask="url(#k)" />
            <mask id="l" fill="#fff">
                <path
                    d="M102.161 114.977H84.803c-.749 0-1.356.636-1.356 1.42 0 .785.607 1.421 1.356 1.421h17.358c.749 0 1.356-.636 1.356-1.421 0-.784-.607-1.42-1.356-1.42z" />
            </mask>
            <path
                d="M102.161 114.977H84.803c-.749 0-1.356.636-1.356 1.42 0 .785.607 1.421 1.356 1.421h17.358c.749 0 1.356-.636 1.356-1.421 0-.784-.607-1.42-1.356-1.42z"
                fill="#6AEDFC" stroke="#1E1E1E" stroke-width="2" mask="url(#l)" />
        </g>
    </g>
    <defs>
        <filter id="filter0_d" x=".484" y=".667" width="183.871" height="157.667" filterUnits="userSpaceOnUse"
            color-interpolation-filters="sRGB">
            <feFlood flood-opacity="0" result="BackgroundImageFix" />
            <feColorMatrix in="SourceAlpha" values="0 0 0 0 0 0 0 0 0 0 0 0 0 0 0 0 0 0 127 0" />
            <feOffset dy="4" />
            <feGaussianBlur stdDeviation="2" />
            <feColorMatrix values="0 0 0 0 0 0 0 0 0 0 0 0 0 0 0 0 0 0 0.25 0" />
            <feBlend in2="BackgroundImageFix" result="effect1_dropShadow" />
            <feBlend in="SourceGraphic" in2="effect1_dropShadow" result="shape" />
        </filter>
        <filter id="filter1_d" x="50.517" y="28.919" width="98.366" height="104.476" filterUnits="userSpaceOnUse"
            color-interpolation-filters="sRGB">
            <feFlood flood-opacity="0" result="BackgroundImageFix" />
            <feColorMatrix in="SourceAlpha" values="0 0 0 0 0 0 0 0 0 0 0 0 0 0 0 0 0 0 127 0" />
            <feOffset dy="4" />
            <feGaussianBlur stdDeviation="2" />
            <feColorMatrix values="0 0 0 0 0 0 0 0 0 0 0 0 0 0 0 0 0 0 0.25 0" />
            <feBlend in2="BackgroundImageFix" result="effect1_dropShadow" />
            <feBlend in="SourceGraphic" in2="effect1_dropShadow" result="shape" />
        </filter>
        <linearGradient id="paint0_linear" x1="168.368" y1="55.303" x2="39.729" y2="83.19"
            gradientUnits="userSpaceOnUse">
            <stop stop-opacity="0" />
            <stop offset=".771" stop-color="#6AEDFC" />
        </linearGradient>
    </defs>
</svg>