<svg
  id="a"
  width="329"
  height="286"
  viewBox="0 -30 329 345"
  fill="none"
  xmlns="http://www.w3.org/2000/svg"
>
  <g>
    <g filter="url(#filter0_d)">
      <mask id="c" fill="#fff">
        <path
          d="M59.983 62.737a3 3 0 011.624-2.666L175.028 1.536a3 3 0 012.666-.043l123.012 58.601a3 3 0 011.71 2.709v154.545a3 3 0 01-1.729 2.718l-123.012 57.549a3.001 3.001 0 01-2.628-.041L61.627 220.09a3 3 0 01-1.644-2.676V62.737z"
        />
      </mask>
      <path
        d="M59.983 62.737a3 3 0 011.624-2.666L175.028 1.536a3 3 0 012.666-.043l123.012 58.601a3 3 0 011.71 2.709v154.545a3 3 0 01-1.729 2.718l-123.012 57.549a3.001 3.001 0 01-2.628-.041L61.627 220.09a3 3 0 01-1.644-2.676V62.737z"
        stroke="url(#paint0_linear)"
        stroke-width="4"
        mask="url(#c)"
      />
    </g>
    <g filter="url(#filter1_d)">
      <mask id="d" fill="#fff">
        <path
          d="M274.074 140.961c-4.33-2.607-9.598-4.07-14.69-5.485-1.61-.447-3.129-.869-4.578-1.316-7.766-2.4-15.667-4.62-23.484-6.752a347.524 347.524 0 0114.654-49.817 2.303 2.303 0 00-.497-2.422 2.055 2.055 0 00-2.325-.452L195.89 95.942c-2.432-8.534-4.559-16.847-6.425-24.361a2546.102 2546.102 0 01-3.287-13.423c-.592-2.43-1.181-4.862-1.776-7.291-1.368-5.592-3.345-13.974-4.45-19.164-.2-.936-.946-1.634-1.856-1.735-.911-.1-1.781.417-2.162 1.288-.795 1.806-1.928 4.972-2.837 7.517-.257.713-.494 1.375-.697 1.933a592.668 592.668 0 00-3.738 10.59c-3.489 10.192-6.354 19.37-8.76 28.058a362.22 362.22 0 00-2.442 9.277l-43-15.616a2.064 2.064 0 00-2.218.543 2.312 2.312 0 00-.485 2.33l17.265 49.806c-1.186.337-2.378.661-3.562.986-2.426.663-4.716 1.29-6.924 1.993a446.816 446.816 0 00-21.7 7.55c-1.725.651-3.507 1.27-5.393 1.925-5.655 1.963-11.502 3.995-16.412 7.113a2.263 2.263 0 00-1.024 2c.031.812.48 1.541 1.172 1.906 3.26 1.717 7.14 2.621 10.896 3.494 1.88.438 3.658.851 5.294 1.349 5.893 1.797 11.739 3.686 16.175 5.129 2.624.855 5.248 1.716 7.87 2.576 2.942.965 5.919 1.941 8.915 2.914a687.167 687.167 0 00-16.662 47.903 2.314 2.314 0 00.52 2.26 2.09 2.09 0 001.511.656c.217 0 .433-.033.647-.105a551.394 551.394 0 0048.659-18.799l17.23 60.564c.271.958 1.111 1.595 2.04 1.595.104 0 .207-.007.31-.023 1.048-.161 1.825-1.101 1.825-2.211 0-1.683.611-3.806 1.202-5.859.302-1.049.615-2.134.838-3.15l6.984-31.7c1.223-5.548 2.741-11.502 4.277-17.399a1080.271 1080.271 0 0046.34 22.504c.273.126.563.187.851.187.514 0 1.022-.196 1.42-.567.621-.58.863-1.486.62-2.32l-16.024-54.967a977.323 977.323 0 018.827-3.617 969.31 969.31 0 0119.436-7.599c1.851-.7 3.884-1.285 6.036-1.904 4.547-1.307 9.248-2.658 12.995-5.333a2.267 2.267 0 00.931-1.932 2.25 2.25 0 00-1.068-1.852zm-15.783-1.166c1.108.307 2.222.618 3.332.943l-80.555 1.307a3376.361 3376.361 0 0119.974-20.074l.026.032c2.442 2.478 5.753 3.382 8.413 4.11 3.589.981 7.181 1.947 10.774 2.914 10.972 2.955 22.317 6.011 33.344 9.417 1.506.466 3.052.896 4.692 1.351zm-82.765 99.182l-14.984-52.672c-1.26-4.426-2.687-9.442-5.994-13.337a18.413 18.413 0 00-1.833-1.859 3415.867 3415.867 0 0122.059-22.673c.122.139.243.279.367.417l.385 90.124zm45.79-114.276c-3.588-.967-7.175-1.932-10.759-2.911-2.242-.613-4.772-1.312-6.412-2.901a3350.238 3350.238 0 0134.587-33.877 352.995 352.995 0 00-11.543 41.274c-1.966-.533-3.927-1.061-5.873-1.585zm12.328-40.853a3369.143 3369.143 0 00-31.795 31.165 48.198 48.198 0 01-.726-2.042 384.789 384.789 0 01-3.985-12.729l36.506-16.394zM180.27 51.975c.593 2.428 1.183 4.857 1.774 7.284 1.072 4.409 2.18 8.967 3.292 13.445 3.121 12.564 6.959 27.35 11.762 41.742.38 1.136.83 2.485 1.466 3.829a3359.71 3359.71 0 00-19.207 19.288l-.39-90.984c.462 1.935.907 3.782 1.303 5.396zm-7.595.829a561.48 561.48 0 012.031-5.82l.405 94.883-.169.169a3447.555 3447.555 0 01-21.7-24.899l.011-.015c3.287-4.274 4.383-9.569 5.443-14.69l.085-.406c1.441-6.952 3.147-13.96 5.216-21.428 2.381-8.599 5.221-17.691 8.678-27.794zm-18.062 48.274l-.084.407c-.906 4.371-1.842 8.883-4.196 12.281a3433.339 3433.339 0 01-28.267-33.26l34.339 12.47a313.77 313.77 0 00-1.792 8.102zm-35.657-17.511a3433.593 3433.593 0 0028.46 33.48c-3.857 3.523-8.913 5.698-14.283 7.417l-14.177-40.897zm-26.17 58.822c1.912-.665 3.72-1.292 5.495-1.962a440.248 440.248 0 0121.498-7.48c2.124-.677 4.375-1.293 6.757-1.944 8.168-2.232 17.27-4.724 23.735-10.646a3478.86 3478.86 0 0019.049 21.88l-79.795 1.295c1.086-.388 2.177-.766 3.26-1.143zm16.023 12.483c-4.452-1.449-10.323-3.346-16.248-5.152-1.768-.539-3.697-.986-5.562-1.42l-1.027-.241 84.404-1.372a3390.928 3390.928 0 00-21.246 21.853c-2.606-1.509-5.293-2.45-7.434-3.097-8.364-2.531-16.824-5.307-25.006-7.992-2.627-.862-5.252-1.724-7.881-2.579zm31.705 14.862c2.079.63 3.878 1.328 5.439 2.115-10.569 11-21.049 22.06-31.427 33.159a681.315 681.315 0 0113.893-39.059 729.728 729.728 0 0012.095 3.785zm-22.986 38.447a3415.762 3415.762 0 0132.15-33.913c.62.525 1.181 1.079 1.683 1.669 2.677 3.153 3.96 7.664 5.093 11.644l1.324 4.657a547.455 547.455 0 01-40.25 15.943zm67.75 6.572l-5.484 24.897-.368-85.958a3370.018 3370.018 0 0016.451 18.437c-1.491 6.748-3.407 14.069-5.263 21.157-1.881 7.181-3.823 14.607-5.336 21.467zm47.648-2.064a1081.314 1081.314 0 01-38.07-18.714c1.566-5.983 3.167-12.117 4.523-17.953a3427.171 3427.171 0 0033.547 36.667zm3.051-3.122a3401.69 3401.69 0 01-33.944-37.107c2.847-1.098 7.358-2.515 9.671-3.241 2.479-.776 3.8-1.195 4.419-1.462a943.38 943.38 0 016.819-2.895l13.035 44.705zm24.111-63.798c-2.137.614-4.346 1.25-6.355 2.011a957.6 957.6 0 00-19.522 7.631 957.308 957.308 0 00-19.705 8.213c-.457.196-2.271.765-4.025 1.316-5.899 1.852-9.458 3.045-11.582 4.033a3447.187 3447.187 0 01-19.5-21.879l-.003-.554 82.661-1.342c-.658.194-1.314.383-1.969.571z"
        />
      </mask>
      <path
        d="M274.074 140.961c-4.33-2.607-9.598-4.07-14.69-5.485-1.61-.447-3.129-.869-4.578-1.316-7.766-2.4-15.667-4.62-23.484-6.752a347.524 347.524 0 0114.654-49.817 2.303 2.303 0 00-.497-2.422 2.055 2.055 0 00-2.325-.452L195.89 95.942c-2.432-8.534-4.559-16.847-6.425-24.361a2546.102 2546.102 0 01-3.287-13.423c-.592-2.43-1.181-4.862-1.776-7.291-1.368-5.592-3.345-13.974-4.45-19.164-.2-.936-.946-1.634-1.856-1.735-.911-.1-1.781.417-2.162 1.288-.795 1.806-1.928 4.972-2.837 7.517-.257.713-.494 1.375-.697 1.933a592.668 592.668 0 00-3.738 10.59c-3.489 10.192-6.354 19.37-8.76 28.058a362.22 362.22 0 00-2.442 9.277l-43-15.616a2.064 2.064 0 00-2.218.543 2.312 2.312 0 00-.485 2.33l17.265 49.806c-1.186.337-2.378.661-3.562.986-2.426.663-4.716 1.29-6.924 1.993a446.816 446.816 0 00-21.7 7.55c-1.725.651-3.507 1.27-5.393 1.925-5.655 1.963-11.502 3.995-16.412 7.113a2.263 2.263 0 00-1.024 2c.031.812.48 1.541 1.172 1.906 3.26 1.717 7.14 2.621 10.896 3.494 1.88.438 3.658.851 5.294 1.349 5.893 1.797 11.739 3.686 16.175 5.129 2.624.855 5.248 1.716 7.87 2.576 2.942.965 5.919 1.941 8.915 2.914a687.167 687.167 0 00-16.662 47.903 2.314 2.314 0 00.52 2.26 2.09 2.09 0 001.511.656c.217 0 .433-.033.647-.105a551.394 551.394 0 0048.659-18.799l17.23 60.564c.271.958 1.111 1.595 2.04 1.595.104 0 .207-.007.31-.023 1.048-.161 1.825-1.101 1.825-2.211 0-1.683.611-3.806 1.202-5.859.302-1.049.615-2.134.838-3.15l6.984-31.7c1.223-5.548 2.741-11.502 4.277-17.399a1080.271 1080.271 0 0046.34 22.504c.273.126.563.187.851.187.514 0 1.022-.196 1.42-.567.621-.58.863-1.486.62-2.32l-16.024-54.967a977.323 977.323 0 018.827-3.617 969.31 969.31 0 0119.436-7.599c1.851-.7 3.884-1.285 6.036-1.904 4.547-1.307 9.248-2.658 12.995-5.333a2.267 2.267 0 00.931-1.932 2.25 2.25 0 00-1.068-1.852zm-15.783-1.166c1.108.307 2.222.618 3.332.943l-80.555 1.307a3376.361 3376.361 0 0119.974-20.074l.026.032c2.442 2.478 5.753 3.382 8.413 4.11 3.589.981 7.181 1.947 10.774 2.914 10.972 2.955 22.317 6.011 33.344 9.417 1.506.466 3.052.896 4.692 1.351zm-82.765 99.182l-14.984-52.672c-1.26-4.426-2.687-9.442-5.994-13.337a18.413 18.413 0 00-1.833-1.859 3415.867 3415.867 0 0122.059-22.673c.122.139.243.279.367.417l.385 90.124zm45.79-114.276c-3.588-.967-7.175-1.932-10.759-2.911-2.242-.613-4.772-1.312-6.412-2.901a3350.238 3350.238 0 0134.587-33.877 352.995 352.995 0 00-11.543 41.274c-1.966-.533-3.927-1.061-5.873-1.585zm12.328-40.853a3369.143 3369.143 0 00-31.795 31.165 48.198 48.198 0 01-.726-2.042 384.789 384.789 0 01-3.985-12.729l36.506-16.394zM180.27 51.975c.593 2.428 1.183 4.857 1.774 7.284 1.072 4.409 2.18 8.967 3.292 13.445 3.121 12.564 6.959 27.35 11.762 41.742.38 1.136.83 2.485 1.466 3.829a3359.71 3359.71 0 00-19.207 19.288l-.39-90.984c.462 1.935.907 3.782 1.303 5.396zm-7.595.829a561.48 561.48 0 012.031-5.82l.405 94.883-.169.169a3447.555 3447.555 0 01-21.7-24.899l.011-.015c3.287-4.274 4.383-9.569 5.443-14.69l.085-.406c1.441-6.952 3.147-13.96 5.216-21.428 2.381-8.599 5.221-17.691 8.678-27.794zm-18.062 48.274l-.084.407c-.906 4.371-1.842 8.883-4.196 12.281a3433.339 3433.339 0 01-28.267-33.26l34.339 12.47a313.77 313.77 0 00-1.792 8.102zm-35.657-17.511a3433.593 3433.593 0 0028.46 33.48c-3.857 3.523-8.913 5.698-14.283 7.417l-14.177-40.897zm-26.17 58.822c1.912-.665 3.72-1.292 5.495-1.962a440.248 440.248 0 0121.498-7.48c2.124-.677 4.375-1.293 6.757-1.944 8.168-2.232 17.27-4.724 23.735-10.646a3478.86 3478.86 0 0019.049 21.88l-79.795 1.295c1.086-.388 2.177-.766 3.26-1.143zm16.023 12.483c-4.452-1.449-10.323-3.346-16.248-5.152-1.768-.539-3.697-.986-5.562-1.42l-1.027-.241 84.404-1.372a3390.928 3390.928 0 00-21.246 21.853c-2.606-1.509-5.293-2.45-7.434-3.097-8.364-2.531-16.824-5.307-25.006-7.992-2.627-.862-5.252-1.724-7.881-2.579zm31.705 14.862c2.079.63 3.878 1.328 5.439 2.115-10.569 11-21.049 22.06-31.427 33.159a681.315 681.315 0 0113.893-39.059 729.728 729.728 0 0012.095 3.785zm-22.986 38.447a3415.762 3415.762 0 0132.15-33.913c.62.525 1.181 1.079 1.683 1.669 2.677 3.153 3.96 7.664 5.093 11.644l1.324 4.657a547.455 547.455 0 01-40.25 15.943zm67.75 6.572l-5.484 24.897-.368-85.958a3370.018 3370.018 0 0016.451 18.437c-1.491 6.748-3.407 14.069-5.263 21.157-1.881 7.181-3.823 14.607-5.336 21.467zm47.648-2.064a1081.314 1081.314 0 01-38.07-18.714c1.566-5.983 3.167-12.117 4.523-17.953a3427.171 3427.171 0 0033.547 36.667zm3.051-3.122a3401.69 3401.69 0 01-33.944-37.107c2.847-1.098 7.358-2.515 9.671-3.241 2.479-.776 3.8-1.195 4.419-1.462a943.38 943.38 0 016.819-2.895l13.035 44.705zm24.111-63.798c-2.137.614-4.346 1.25-6.355 2.011a957.6 957.6 0 00-19.522 7.631 957.308 957.308 0 00-19.705 8.213c-.457.196-2.271.765-4.025 1.316-5.899 1.852-9.458 3.045-11.582 4.033a3447.187 3447.187 0 01-19.5-21.879l-.003-.554 82.661-1.342c-.658.194-1.314.383-1.969.571z"
        fill="#6AEDFC"
      />
      <path
        d="M274.074 140.961c-4.33-2.607-9.598-4.07-14.69-5.485-1.61-.447-3.129-.869-4.578-1.316-7.766-2.4-15.667-4.62-23.484-6.752a347.524 347.524 0 0114.654-49.817 2.303 2.303 0 00-.497-2.422 2.055 2.055 0 00-2.325-.452L195.89 95.942c-2.432-8.534-4.559-16.847-6.425-24.361a2546.102 2546.102 0 01-3.287-13.423c-.592-2.43-1.181-4.862-1.776-7.291-1.368-5.592-3.345-13.974-4.45-19.164-.2-.936-.946-1.634-1.856-1.735-.911-.1-1.781.417-2.162 1.288-.795 1.806-1.928 4.972-2.837 7.517-.257.713-.494 1.375-.697 1.933a592.668 592.668 0 00-3.738 10.59c-3.489 10.192-6.354 19.37-8.76 28.058a362.22 362.22 0 00-2.442 9.277l-43-15.616a2.064 2.064 0 00-2.218.543 2.312 2.312 0 00-.485 2.33l17.265 49.806c-1.186.337-2.378.661-3.562.986-2.426.663-4.716 1.29-6.924 1.993a446.816 446.816 0 00-21.7 7.55c-1.725.651-3.507 1.27-5.393 1.925-5.655 1.963-11.502 3.995-16.412 7.113a2.263 2.263 0 00-1.024 2c.031.812.48 1.541 1.172 1.906 3.26 1.717 7.14 2.621 10.896 3.494 1.88.438 3.658.851 5.294 1.349 5.893 1.797 11.739 3.686 16.175 5.129 2.624.855 5.248 1.716 7.87 2.576 2.942.965 5.919 1.941 8.915 2.914a687.167 687.167 0 00-16.662 47.903 2.314 2.314 0 00.52 2.26 2.09 2.09 0 001.511.656c.217 0 .433-.033.647-.105a551.394 551.394 0 0048.659-18.799l17.23 60.564c.271.958 1.111 1.595 2.04 1.595.104 0 .207-.007.31-.023 1.048-.161 1.825-1.101 1.825-2.211 0-1.683.611-3.806 1.202-5.859.302-1.049.615-2.134.838-3.15l6.984-31.7c1.223-5.548 2.741-11.502 4.277-17.399a1080.271 1080.271 0 0046.34 22.504c.273.126.563.187.851.187.514 0 1.022-.196 1.42-.567.621-.58.863-1.486.62-2.32l-16.024-54.967a977.323 977.323 0 018.827-3.617 969.31 969.31 0 0119.436-7.599c1.851-.7 3.884-1.285 6.036-1.904 4.547-1.307 9.248-2.658 12.995-5.333a2.267 2.267 0 00.931-1.932 2.25 2.25 0 00-1.068-1.852zm-15.783-1.166c1.108.307 2.222.618 3.332.943l-80.555 1.307a3376.361 3376.361 0 0119.974-20.074l.026.032c2.442 2.478 5.753 3.382 8.413 4.11 3.589.981 7.181 1.947 10.774 2.914 10.972 2.955 22.317 6.011 33.344 9.417 1.506.466 3.052.896 4.692 1.351zm-82.765 99.182l-14.984-52.672c-1.26-4.426-2.687-9.442-5.994-13.337a18.413 18.413 0 00-1.833-1.859 3415.867 3415.867 0 0122.059-22.673c.122.139.243.279.367.417l.385 90.124zm45.79-114.276c-3.588-.967-7.175-1.932-10.759-2.911-2.242-.613-4.772-1.312-6.412-2.901a3350.238 3350.238 0 0134.587-33.877 352.995 352.995 0 00-11.543 41.274c-1.966-.533-3.927-1.061-5.873-1.585zm12.328-40.853a3369.143 3369.143 0 00-31.795 31.165 48.198 48.198 0 01-.726-2.042 384.789 384.789 0 01-3.985-12.729l36.506-16.394zM180.27 51.975c.593 2.428 1.183 4.857 1.774 7.284 1.072 4.409 2.18 8.967 3.292 13.445 3.121 12.564 6.959 27.35 11.762 41.742.38 1.136.83 2.485 1.466 3.829a3359.71 3359.71 0 00-19.207 19.288l-.39-90.984c.462 1.935.907 3.782 1.303 5.396zm-7.595.829a561.48 561.48 0 012.031-5.82l.405 94.883-.169.169a3447.555 3447.555 0 01-21.7-24.899l.011-.015c3.287-4.274 4.383-9.569 5.443-14.69l.085-.406c1.441-6.952 3.147-13.96 5.216-21.428 2.381-8.599 5.221-17.691 8.678-27.794zm-18.062 48.274l-.084.407c-.906 4.371-1.842 8.883-4.196 12.281a3433.339 3433.339 0 01-28.267-33.26l34.339 12.47a313.77 313.77 0 00-1.792 8.102zm-35.657-17.511a3433.593 3433.593 0 0028.46 33.48c-3.857 3.523-8.913 5.698-14.283 7.417l-14.177-40.897zm-26.17 58.822c1.912-.665 3.72-1.292 5.495-1.962a440.248 440.248 0 0121.498-7.48c2.124-.677 4.375-1.293 6.757-1.944 8.168-2.232 17.27-4.724 23.735-10.646a3478.86 3478.86 0 0019.049 21.88l-79.795 1.295c1.086-.388 2.177-.766 3.26-1.143zm16.023 12.483c-4.452-1.449-10.323-3.346-16.248-5.152-1.768-.539-3.697-.986-5.562-1.42l-1.027-.241 84.404-1.372a3390.928 3390.928 0 00-21.246 21.853c-2.606-1.509-5.293-2.45-7.434-3.097-8.364-2.531-16.824-5.307-25.006-7.992-2.627-.862-5.252-1.724-7.881-2.579zm31.705 14.862c2.079.63 3.878 1.328 5.439 2.115-10.569 11-21.049 22.06-31.427 33.159a681.315 681.315 0 0113.893-39.059 729.728 729.728 0 0012.095 3.785zm-22.986 38.447a3415.762 3415.762 0 0132.15-33.913c.62.525 1.181 1.079 1.683 1.669 2.677 3.153 3.96 7.664 5.093 11.644l1.324 4.657a547.455 547.455 0 01-40.25 15.943zm67.75 6.572l-5.484 24.897-.368-85.958a3370.018 3370.018 0 0016.451 18.437c-1.491 6.748-3.407 14.069-5.263 21.157-1.881 7.181-3.823 14.607-5.336 21.467zm47.648-2.064a1081.314 1081.314 0 01-38.07-18.714c1.566-5.983 3.167-12.117 4.523-17.953a3427.171 3427.171 0 0033.547 36.667zm3.051-3.122a3401.69 3401.69 0 01-33.944-37.107c2.847-1.098 7.358-2.515 9.671-3.241 2.479-.776 3.8-1.195 4.419-1.462a943.38 943.38 0 016.819-2.895l13.035 44.705zm24.111-63.798c-2.137.614-4.346 1.25-6.355 2.011a957.6 957.6 0 00-19.522 7.631 957.308 957.308 0 00-19.705 8.213c-.457.196-2.271.765-4.025 1.316-5.899 1.852-9.458 3.045-11.582 4.033a3447.187 3447.187 0 01-19.5-21.879l-.003-.554 82.661-1.342c-.658.194-1.314.383-1.969.571z"
        stroke="#1E1E1E"
        stroke-width="2"
        mask="url(#d)"
      />
    </g>
  </g>
  <defs>
    <filter
      id="filter0_d"
      x=".07"
      y="1.202"
      width="328.167"
      height="284.696"
      filterUnits="userSpaceOnUse"
      color-interpolation-filters="sRGB"
    >
      <feFlood flood-opacity="0" result="BackgroundImageFix" />
      <feColorMatrix
        in="SourceAlpha"
        values="0 0 0 0 0 0 0 0 0 0 0 0 0 0 0 0 0 0 127 0"
      />
      <feOffset dy="4" />
      <feGaussianBlur stdDeviation="2" />
      <feColorMatrix values="0 0 0 0 0 0 0 0 0 0 0 0 0 0 0 0 0 0 0.25 0" />
      <feBlend in2="BackgroundImageFix" result="effect1_dropShadow" />
      <feBlend in="SourceGraphic" in2="effect1_dropShadow" result="shape" />
    </filter>
    <filter
      id="filter1_d"
      x="70.005"
      y="29.956"
      width="209.139"
      height="236.747"
      filterUnits="userSpaceOnUse"
      color-interpolation-filters="sRGB"
    >
      <feFlood flood-opacity="0" result="BackgroundImageFix" />
      <feColorMatrix
        in="SourceAlpha"
        values="0 0 0 0 0 0 0 0 0 0 0 0 0 0 0 0 0 0 127 0"
      />
      <feOffset dy="4" />
      <feGaussianBlur stdDeviation="2" />
      <feColorMatrix values="0 0 0 0 0 0 0 0 0 0 0 0 0 0 0 0 0 0 0.25 0" />
      <feBlend in2="BackgroundImageFix" result="effect1_dropShadow" />
      <feBlend in="SourceGraphic" in2="effect1_dropShadow" result="shape" />
    </filter>
    <linearGradient
      id="paint0_linear"
      x1="302.416"
      y1="102.289"
      x2="67.955"
      y2="152.438"
      gradientUnits="userSpaceOnUse"
    >
      <stop stop-opacity="0" />
      <stop offset=".771" stop-color="#6AEDFC" />
    </linearGradient>
  </defs>
</svg>
