<svg
  id="a"
  width="171"
  height="147"
  viewBox="0 -23 171 177"
  fill="none"
  xmlns="http://www.w3.org/2000/svg"
>
  <g>
    <g filter="url(#filter0_d)">
      <mask id="c" fill="#fff">
        <path
          d="M32.885 32.404a3 3 0 011.639-2.674L90.316 1.32a3 3 0 012.638-.041l60.583 28.476a2.999 2.999 0 011.724 2.715v75.041c0 1.17-.68 2.233-1.742 2.724L92.935 138.2a2.999 2.999 0 01-2.599-.041L34.543 110.26a3.001 3.001 0 01-1.658-2.684V32.404z"
        />
      </mask>
      <path
        d="M32.885 32.404a3 3 0 011.639-2.674L90.316 1.32a3 3 0 012.638-.041l60.583 28.476a2.999 2.999 0 011.724 2.715v75.041c0 1.17-.68 2.233-1.742 2.724L92.935 138.2a2.999 2.999 0 01-2.599-.041L34.543 110.26a3.001 3.001 0 01-1.658-2.684V32.404z"
        stroke="url(#paint0_linear)"
        stroke-width="4"
        mask="url(#c)"
      />
    </g>
    <g filter="url(#filter1_d)">
      <mask id="d" fill="#fff">
        <path
          d="M120.073 71.633h-31.31v-32.8c0-1.325-1.013-2.386-2.278-2.386-19.772 0-35.866 16.86-35.866 37.572 0 20.712 16.094 37.571 35.866 37.571 19.771 0 35.865-16.86 35.865-37.571 0-1.308-1.029-2.386-2.277-2.386zm-33.588 35.186c-17.258 0-31.311-14.722-31.311-32.8 0-17.284 12.821-31.492 29.033-32.712V74.02c0 1.325 1.012 2.385 2.278 2.385h31.226c-1.164 16.984-14.727 30.415-31.226 30.415z"
        />
      </mask>
      <path
        d="M120.073 71.633h-31.31v-32.8c0-1.325-1.013-2.386-2.278-2.386-19.772 0-35.866 16.86-35.866 37.572 0 20.712 16.094 37.571 35.866 37.571 19.771 0 35.865-16.86 35.865-37.571 0-1.308-1.029-2.386-2.277-2.386zm-33.588 35.186c-17.258 0-31.311-14.722-31.311-32.8 0-17.284 12.821-31.492 29.033-32.712V74.02c0 1.325 1.012 2.385 2.278 2.385h31.226c-1.164 16.984-14.727 30.415-31.226 30.415z"
        fill="#6AEDFC"
        stroke="#1E1E1E"
        stroke-width="2"
        mask="url(#d)"
      />
      <mask id="e" fill="#fff">
        <path
          d="M130.954 64.865c-.034-9.12-3.222-17.903-8.975-24.742-6.815-8.076-16.6-12.706-26.89-12.706-1.266 0-2.278 1.06-2.278 2.385v35.186c0 1.326 1.012 2.386 2.277 2.386h33.588c1.266 0 2.278-1.06 2.278-2.386v-.123zM97.366 62.62V32.294c8.131.619 15.756 4.56 21.188 11.01 4.555 5.39 7.255 12.176 7.761 19.316h-28.95z"
        />
      </mask>
      <path
        d="M130.954 64.865c-.034-9.12-3.222-17.903-8.975-24.742-6.815-8.076-16.6-12.706-26.89-12.706-1.266 0-2.278 1.06-2.278 2.385v35.186c0 1.326 1.012 2.386 2.277 2.386h33.588c1.266 0 2.278-1.06 2.278-2.386v-.123zM97.366 62.62V32.294c8.131.619 15.756 4.56 21.188 11.01 4.555 5.39 7.255 12.176 7.761 19.316h-28.95z"
        fill="#6AEDFC"
        stroke="#1E1E1E"
        stroke-width="2"
        mask="url(#e)"
      />
    </g>
  </g>
  <defs>
    <filter
      id="filter0_d"
      x=".661"
      y=".994"
      width="169.617"
      height="145.483"
      filterUnits="userSpaceOnUse"
      color-interpolation-filters="sRGB"
    >
      <feFlood flood-opacity="0" result="BackgroundImageFix" />
      <feColorMatrix
        in="SourceAlpha"
        values="0 0 0 0 0 0 0 0 0 0 0 0 0 0 0 0 0 0 127 0"
      />
      <feOffset dy="4" />
      <feGaussianBlur stdDeviation="2" />
      <feColorMatrix values="0 0 0 0 0 0 0 0 0 0 0 0 0 0 0 0 0 0 0.25 0" />
      <feBlend in2="BackgroundImageFix" result="effect1_dropShadow" />
      <feBlend in="SourceGraphic" in2="effect1_dropShadow" result="shape" />
    </filter>
    <filter
      id="filter1_d"
      x="46.619"
      y="27.417"
      width="88.335"
      height="92.173"
      filterUnits="userSpaceOnUse"
      color-interpolation-filters="sRGB"
    >
      <feFlood flood-opacity="0" result="BackgroundImageFix" />
      <feColorMatrix
        in="SourceAlpha"
        values="0 0 0 0 0 0 0 0 0 0 0 0 0 0 0 0 0 0 127 0"
      />
      <feOffset dy="4" />
      <feGaussianBlur stdDeviation="2" />
      <feColorMatrix values="0 0 0 0 0 0 0 0 0 0 0 0 0 0 0 0 0 0 0.25 0" />
      <feBlend in2="BackgroundImageFix" result="effect1_dropShadow" />
      <feBlend in="SourceGraphic" in2="effect1_dropShadow" result="shape" />
    </filter>
    <linearGradient
      id="paint0_linear"
      x1="155.262"
      y1="51.174"
      x2="37.05"
      y2="76.801"
      gradientUnits="userSpaceOnUse"
    >
      <stop stop-opacity="0" />
      <stop offset=".771" stop-color="#6AEDFC" />
    </linearGradient>
  </defs>
</svg>
