<svg id="a" width="259" height="259" viewBox="-10 -35 259 329" fill="none" xmlns="http://www.w3.org/2000/svg">

    <g>

        <g filter="url(#filter0_d)">
            <mask id="c" fill="#fff">
                <path
                    d="M29.128 56.717a3 3 0 011.64-2.673L134.132 1.41a3.001 3.001 0 012.638-.041l112.12 52.699a3 3 0 011.724 2.715v138.911a3 3 0 01-1.743 2.724l-112.12 51.754a2.999 2.999 0 01-2.599-.041L30.787 198.443a3 3 0 01-1.659-2.683V56.717z" />
            </mask>
            <path
                d="M29.128 56.717a3 3 0 011.64-2.673L134.132 1.41a3.001 3.001 0 012.638-.041l112.12 52.699a3 3 0 011.724 2.715v138.911a3 3 0 01-1.743 2.724l-112.12 51.754a2.999 2.999 0 01-2.599-.041L30.787 198.443a3 3 0 01-1.659-2.683V56.717z"
                stroke="url(#paint0_linear)" stroke-width="4" mask="url(#c)" />
        </g>
        <g filter="url(#filter1_d)">
            <mask id="d" fill="#fff">
                <path
                    d="M189.833 56.87v-.014c-.843-1.213-2.465-1.48-3.622-.597-1.144.872-1.409 2.542-.597 3.755 15.425 22.617 15.425 53.002 0 75.618-.836 1.218-.573 2.915.59 3.792l.015.011c1.164.87 2.781.588 3.614-.63 16.714-24.506 16.714-57.43 0-81.936z" />
            </mask>
            <path
                d="M189.833 56.87v-.014c-.843-1.213-2.465-1.48-3.622-.597-1.144.872-1.409 2.542-.597 3.755 15.425 22.617 15.425 53.002 0 75.618-.836 1.218-.573 2.915.59 3.792l.015.011c1.164.87 2.781.588 3.614-.63 16.714-24.506 16.714-57.43 0-81.936z"
                fill="#A16AFC" stroke="#1E1E1E" stroke-width="3" mask="url(#d)" />
            <mask id="e" fill="#fff">
                <path
                    d="M83.7 56.227c-1.165-.871-2.782-.59-3.615.63-16.713 24.505-16.713 57.429 0 81.935.843 1.212 2.465 1.479 3.622.596 1.144-.872 1.409-2.542.597-3.755-15.425-22.617-15.425-53.002 0-75.618.832-1.22.561-2.917-.604-3.788z" />
            </mask>
            <path
                d="M83.7 56.227s0 0 0 0c-1.165-.871-2.782-.59-3.615.63-16.713 24.505-16.713 57.429 0 81.935.843 1.212 2.465 1.479 3.622.596 1.144-.872 1.409-2.542.597-3.755-15.425-22.617-15.425-53.002 0-75.618.832-1.22.561-2.917-.604-3.788z"
                fill="#A16AFC" stroke="#1E1E1E" stroke-width="3" mask="url(#e)" />
            <mask id="f" fill="#fff">
                <path
                    d="M100.189 69.54c.877-1.186.671-2.892-.461-3.81-1.128-.916-2.75-.705-3.63.472-13.851 18.584-13.851 44.66 0 63.244.88 1.184 2.51 1.396 3.639.474 1.13-.922 1.332-2.628.452-3.812-12.392-16.621-12.392-39.946 0-56.568z" />
            </mask>
            <path
                d="M100.189 69.54c.877-1.186.671-2.892-.461-3.81-1.128-.916-2.75-.705-3.63.472-13.851 18.584-13.851 44.66 0 63.244.88 1.184 2.51 1.396 3.639.474 1.13-.922 1.332-2.628.452-3.812-12.392-16.621-12.392-39.946 0-56.568z"
                fill="#A16AFC" stroke="#1E1E1E" stroke-width="3" mask="url(#f)" />
            <mask id="g" fill="#fff">
                <path
                    d="M170.191 65.73c-1.124.921-1.325 2.62-.451 3.802 12.393 16.621 12.393 39.947 0 56.568-.88 1.184-.677 2.89.452 3.812 1.13.922 2.759.71 3.639-.474 13.852-18.584 13.852-44.66 0-63.244-.883-1.181-2.512-1.39-3.64-.465z" />
            </mask>
            <path
                d="M170.191 65.73h0c-1.124.921-1.325 2.62-.451 3.802 12.393 16.621 12.393 39.947 0 56.568-.88 1.184-.677 2.89.452 3.812 1.13.922 2.759.71 3.639-.474 13.852-18.584 13.852-44.66 0-63.244-.883-1.181-2.512-1.39-3.64-.465z"
                fill="#A16AFC" stroke="#1E1E1E" stroke-width="3" mask="url(#g)" />
            <mask id="h" fill="#fff">
                <path
                    d="M153.833 79.244c9.403 10.429 9.403 26.731 0 37.16-.981 1.092-.932 2.811.111 3.839l.001.001a2.51 2.51 0 003.665-.118l.001-.001c11.279-12.52 11.279-32.082 0-44.602a2.51 2.51 0 00-3.664-.148c-1.051 1.019-1.114 2.737-.142 3.838l.028.031z" />
            </mask>
            <path
                d="M153.833 79.244c9.403 10.429 9.403 26.731 0 37.16-.981 1.092-.932 2.811.111 3.839l.001.001a2.51 2.51 0 003.665-.118l.001-.001c11.279-12.52 11.279-32.082 0-44.602a2.51 2.51 0 00-3.664-.148c-1.051 1.019-1.114 2.737-.142 3.838l.028.031z"
                fill="#A16AFC" stroke="#1E1E1E" stroke-width="3" mask="url(#h)" />
            <mask id="i" fill="#fff">
                <path
                    d="M114.195 120.98c1.431.001 2.593-1.214 2.594-2.714 0-.692-.252-1.358-.704-1.862-9.403-10.429-9.403-26.731 0-37.16.989-1.085.951-2.804-.084-3.84a2.51 2.51 0 00-3.666.088l-.028.031c-11.279 12.52-11.279 32.082 0 44.602a2.54 2.54 0 001.888.855z" />
            </mask>
            <path
                d="M114.195 120.98c1.431.001 2.593-1.214 2.594-2.714 0-.692-.252-1.358-.704-1.862-9.403-10.429-9.403-26.731 0-37.16.989-1.085.951-2.804-.084-3.84a2.51 2.51 0 00-3.666.088l-.028.031c-11.279 12.52-11.279 32.082 0 44.602a2.54 2.54 0 001.888.855z"
                fill="#A16AFC" stroke="#1E1E1E" stroke-width="3" mask="url(#i)" />
            <mask id="j" fill="#fff">
                <path
                    d="M168.586 211.218l-25.245-103.122c5.461-4.85 6.136-13.419 1.506-19.14-4.629-5.721-12.809-6.428-18.27-1.578-5.462 4.85-6.136 13.418-1.507 19.14.46.568.964 1.096 1.507 1.578l-25.242 103.122c-.357 1.453.478 2.934 1.865 3.307l.004.001c.21.056.426.084.643.085 1.183-.001 2.215-.84 2.51-2.04l.866-3.531c.145-.043.286-.099.422-.168l48.465-26.723 7.446 30.419c.294 1.203 1.329 2.044 2.515 2.043.217 0 .434-.029.645-.085 1.388-.371 2.225-1.85 1.87-3.303v-.005zm-24.996-80.232l-14.099-12.925 1.784-7.285a12.21 12.21 0 003.684.628c1.25-.019 2.492-.23 3.684-.628l4.947 20.21zm-8.631-41.31c4.295 0 7.778 3.648 7.778 8.148s-3.483 8.148-7.778 8.148c-4.296 0-7.778-3.648-7.778-8.148s3.482-8.148 7.778-8.148zm-6.91 34.278l15.616 14.319-23.075 16.106 7.459-30.425zm-19.108 78.06l9.308-38.024 31.631 15.46-40.939 22.564zm13.143-42.141l24.404-17.045 8.056 32.912-32.46-15.867z" />
            </mask>
            <path
                d="M168.586 211.218l-25.245-103.122c5.461-4.85 6.136-13.419 1.506-19.14-4.629-5.721-12.809-6.428-18.27-1.578-5.462 4.85-6.136 13.418-1.507 19.14.46.568.964 1.096 1.507 1.578l-25.242 103.122c-.357 1.453.478 2.934 1.865 3.307l.004.001c.21.056.426.084.643.085 1.183-.001 2.215-.84 2.51-2.04l.866-3.531c.145-.043.286-.099.422-.168l48.465-26.723 7.446 30.419c.294 1.203 1.329 2.044 2.515 2.043.217 0 .434-.029.645-.085 1.388-.371 2.225-1.85 1.87-3.303v-.005zm-24.996-80.232l-14.099-12.925 1.784-7.285a12.21 12.21 0 003.684.628c1.25-.019 2.492-.23 3.684-.628l4.947 20.21zm-8.631-41.31c4.295 0 7.778 3.648 7.778 8.148s-3.483 8.148-7.778 8.148c-4.296 0-7.778-3.648-7.778-8.148s3.482-8.148 7.778-8.148zm-6.91 34.278l15.616 14.319-23.075 16.106 7.459-30.425zm-19.108 78.06l9.308-38.024 31.631 15.46-40.939 22.564zm13.143-42.141l24.404-17.045 8.056 32.912-32.46-15.867z"
                fill="#A16AFC" stroke="#1E1E1E" stroke-width="3" mask="url(#j)" />
        </g>
    </g>
    <defs>
        <filter id="filter0_d" x=".168" y="1.084" width="258.153" height="257.364" filterUnits="userSpaceOnUse"
            color-interpolation-filters="sRGB">
            <feFlood flood-opacity="0" result="BackgroundImageFix" />
            <feColorMatrix in="SourceAlpha" values="0 0 0 0 0 0 0 0 0 0 0 0 0 0 0 0 0 0 127 0" />
            <feOffset dy="4" />
            <feGaussianBlur stdDeviation="2" />
            <feColorMatrix values="0 0 0 0 0 0 0 0 0 0 0 0 0 0 0 0 0 0 0.25 0" />
            <feBlend in2="BackgroundImageFix" result="effect1_dropShadow" />
            <feBlend in="SourceGraphic" in2="effect1_dropShadow" result="shape" />
        </filter>
        <filter id="filter1_d" x="63.55" y="55.721" width="142.818" height="166.89" filterUnits="userSpaceOnUse"
            color-interpolation-filters="sRGB">
            <feFlood flood-opacity="0" result="BackgroundImageFix" />
            <feColorMatrix in="SourceAlpha" values="0 0 0 0 0 0 0 0 0 0 0 0 0 0 0 0 0 0 127 0" />
            <feOffset dy="4" />
            <feGaussianBlur stdDeviation="2" />
            <feColorMatrix values="0 0 0 0 0 0 0 0 0 0 0 0 0 0 0 0 0 0 0.25 0" />
            <feBlend in2="BackgroundImageFix" result="effect1_dropShadow" />
            <feBlend in="SourceGraphic" in2="effect1_dropShadow" result="shape" />
        </filter>
        <linearGradient id="paint0_linear" x1="250.614" y1="92.178" x2="36.666" y2="138.558"
            gradientUnits="userSpaceOnUse">
            <stop stop-opacity="0" />
            <stop offset=".771" stop-color="#A16AFC" />
        </linearGradient>
    </defs>
</svg>