<svg
  id="a"
  width="319"
  height="319"
  viewBox="-40 -40 399 389"
  fill="none"
  xmlns="http://www.w3.org/2000/svg"
>
  <g>
    <g filter="url(#filter0_d)">
      <mask id="c" fill="#fff">
        <path
          d="M35.601 69.806a3 3 0 011.639-2.673L166.097 1.519a3.001 3.001 0 012.638-.042l139.735 65.68a3 3 0 011.724 2.715v173.135c0 1.171-.68 2.234-1.743 2.724l-139.736 64.501a3.002 3.002 0 01-2.599-.04L37.259 245.756a3 3 0 01-1.658-2.683V69.806z"
        />
      </mask>
      <path
        d="M35.601 69.806a3 3 0 011.639-2.673L166.097 1.519a3.001 3.001 0 012.638-.042l139.735 65.68a3 3 0 011.724 2.715v173.135c0 1.171-.68 2.234-1.743 2.724l-139.736 64.501a3.002 3.002 0 01-2.599-.04L37.259 245.756a3 3 0 01-1.658-2.683V69.806z"
        stroke="url(#paint0_linear)"
        stroke-width="4"
        mask="url(#c)"
      />
    </g>
    <g filter="url(#filter1_d)">
      <mask id="d" fill="#fff">
        <path
          d="M201.645 137.481c0-7.521-2.128-14.872-6.117-21.125-3.988-6.253-9.657-11.126-16.289-14.004a34.768 34.768 0 00-20.972-2.164c-7.041 1.467-13.508 5.088-18.584 10.406-5.077 5.318-8.534 12.093-9.934 19.469a39.705 39.705 0 002.065 21.969c2.748 6.947 7.4 12.886 13.369 17.064 5.969 4.178 12.987 6.408 20.165 6.408 9.624-.011 18.85-4.02 25.655-11.149 6.805-7.128 10.632-16.793 10.642-26.874zm-36.297 31.686c-5.982 0-11.83-1.859-16.804-5.34-4.974-3.482-8.851-8.431-11.141-14.221a33.09 33.09 0 01-1.721-18.307c1.167-6.146 4.048-11.792 8.278-16.224 4.23-4.431 9.62-7.449 15.487-8.672a28.983 28.983 0 0117.477 1.803c5.527 2.399 10.251 6.46 13.574 11.671 3.324 5.211 5.098 11.337 5.098 17.604-.009 8.401-3.198 16.455-8.869 22.395-5.671 5.94-13.359 9.282-21.379 9.291z"
        />
      </mask>
      <path
        d="M201.645 137.481c0-7.521-2.128-14.872-6.117-21.125-3.988-6.253-9.657-11.126-16.289-14.004a34.768 34.768 0 00-20.972-2.164c-7.041 1.467-13.508 5.088-18.584 10.406-5.077 5.318-8.534 12.093-9.934 19.469a39.705 39.705 0 002.065 21.969c2.748 6.947 7.4 12.886 13.369 17.064 5.969 4.178 12.987 6.408 20.165 6.408 9.624-.011 18.85-4.02 25.655-11.149 6.805-7.128 10.632-16.793 10.642-26.874zm-36.297 31.686c-5.982 0-11.83-1.859-16.804-5.34-4.974-3.482-8.851-8.431-11.141-14.221a33.09 33.09 0 01-1.721-18.307c1.167-6.146 4.048-11.792 8.278-16.224 4.23-4.431 9.62-7.449 15.487-8.672a28.983 28.983 0 0117.477 1.803c5.527 2.399 10.251 6.46 13.574 11.671 3.324 5.211 5.098 11.337 5.098 17.604-.009 8.401-3.198 16.455-8.869 22.395-5.671 5.94-13.359 9.282-21.379 9.291z"
        fill="#3400FE"
        stroke="#1E1E1E"
        stroke-width="2"
        mask="url(#d)"
      />
      <mask id="e" fill="#fff">
        <path
          d="M235.825 175.742a86.937 86.937 0 005.142-28.755c0-21.009-7.967-41.158-22.149-56.014-14.181-14.856-33.415-23.202-53.47-23.202s-39.289 8.346-53.471 23.202c-14.181 14.856-22.148 35.005-22.148 56.014 0 25.463 12.849 52.662 37.159 78.661a225.065 225.065 0 0036.857 31.759c.48.314 1.036.481 1.603.481a2.93 2.93 0 001.603-.481 194.962 194.962 0 0016.691-12.726c4.206 4.467 9.27 7.948 14.856 10.211a40.585 40.585 0 0017.549 2.919 40.833 40.833 0 0017.146-4.887c5.32-2.882 9.996-6.915 13.717-11.831 3.722-4.917 6.404-10.605 7.87-16.689a46.387 46.387 0 00.635-18.601 45.526 45.526 0 00-6.714-17.235c-3.377-5.182-7.766-9.554-12.876-12.826zm14.062 34.617h-15.042a82.651 82.651 0 00-3.025-20.121 42.163 42.163 0 006.842-4.277c6.483 6.406 10.48 15.094 11.225 24.398zm-36.143 41.192c-4.117 0-8.497-5.193-11.494-13.856a34.155 34.155 0 0122.958 0c-2.968 8.663-7.347 13.856-11.464 13.856zm17.011-11.385a36.061 36.061 0 015.118 3.432 35.803 35.803 0 01-9.352 5.475 43.782 43.782 0 004.234-8.907zm-6.6-53.629a33.831 33.831 0 01-20.822 0c2.907-6.952 6.763-11.033 10.411-11.033 3.648 0 7.504 4.081 10.411 11.033zm2.366-8.555a35.615 35.615 0 017.232 3.86 35.745 35.745 0 01-4.008 2.404 40.708 40.708 0 00-3.224-6.264zm-28.778 6.258a35.786 35.786 0 01-4.008-2.398 35.692 35.692 0 017.232-3.854 40.672 40.672 0 00-3.224 6.252zm-8.926 1.721a42.12 42.12 0 006.842 4.277 82.651 82.651 0 00-3.025 20.121h-15.033c.743-9.302 4.736-17.99 11.216-24.398zm3.826 30.735a85.414 85.414 0 002.26 17.314 42.01 42.01 0 00-7.777 5.278c-5.498-6.202-8.851-14.157-9.525-22.592h15.042zm4.09 23.47a43.782 43.782 0 004.234 8.907 35.803 35.803 0 01-9.352-5.475 36.061 36.061 0 015.118-3.432zm17.011-10.795c-4.485.01-8.94.768-13.197 2.246a79.695 79.695 0 01-1.857-14.921h30.108a79.778 79.778 0 01-1.857 14.921 40.492 40.492 0 00-13.197-2.246zm-15.054-19.012a76.869 76.869 0 012.601-17.855 39.54 39.54 0 0024.906 0 76.869 76.869 0 012.601 17.855H198.69zm-33.342 40.577c-10.557-7.389-69.57-51.071-69.57-103.949 0-19.329 7.33-37.866 20.377-51.533 13.047-13.667 30.742-21.345 49.193-21.345 18.451 0 36.146 7.678 49.193 21.345 13.047 13.667 20.376 32.204 20.376 51.533a79.974 79.974 0 01-4.495 25.776c-8.54-3.854-18.055-4.651-27.072-2.267-9.017 2.383-17.032 7.814-22.805 15.451-5.773 7.637-8.981 17.055-9.128 26.795-.148 9.741 2.775 19.26 8.314 27.085-6.555 5.507-11.857 9.348-14.383 11.109zm75.014-11.648a41.982 41.982 0 00-7.78-5.278 85.418 85.418 0 002.263-17.314h15.042c-.674 8.435-4.028 16.39-9.525 22.592z"
        />
      </mask>
      <path
        d="M235.825 175.742a86.937 86.937 0 005.142-28.755c0-21.009-7.967-41.158-22.149-56.014-14.181-14.856-33.415-23.202-53.47-23.202s-39.289 8.346-53.471 23.202c-14.181 14.856-22.148 35.005-22.148 56.014 0 25.463 12.849 52.662 37.159 78.661a225.065 225.065 0 0036.857 31.759c.48.314 1.036.481 1.603.481a2.93 2.93 0 001.603-.481 194.962 194.962 0 0016.691-12.726c4.206 4.467 9.27 7.948 14.856 10.211a40.585 40.585 0 0017.549 2.919 40.833 40.833 0 0017.146-4.887c5.32-2.882 9.996-6.915 13.717-11.831 3.722-4.917 6.404-10.605 7.87-16.689a46.387 46.387 0 00.635-18.601 45.526 45.526 0 00-6.714-17.235c-3.377-5.182-7.766-9.554-12.876-12.826zm14.062 34.617h-15.042a82.651 82.651 0 00-3.025-20.121 42.163 42.163 0 006.842-4.277c6.483 6.406 10.48 15.094 11.225 24.398zm-36.143 41.192c-4.117 0-8.497-5.193-11.494-13.856a34.155 34.155 0 0122.958 0c-2.968 8.663-7.347 13.856-11.464 13.856zm17.011-11.385a36.061 36.061 0 015.118 3.432 35.803 35.803 0 01-9.352 5.475 43.782 43.782 0 004.234-8.907zm-6.6-53.629a33.831 33.831 0 01-20.822 0c2.907-6.952 6.763-11.033 10.411-11.033 3.648 0 7.504 4.081 10.411 11.033zm2.366-8.555a35.615 35.615 0 017.232 3.86 35.745 35.745 0 01-4.008 2.404 40.708 40.708 0 00-3.224-6.264zm-28.778 6.258a35.786 35.786 0 01-4.008-2.398 35.692 35.692 0 017.232-3.854 40.672 40.672 0 00-3.224 6.252zm-8.926 1.721a42.12 42.12 0 006.842 4.277 82.651 82.651 0 00-3.025 20.121h-15.033c.743-9.302 4.736-17.99 11.216-24.398zm3.826 30.735a85.414 85.414 0 002.26 17.314 42.01 42.01 0 00-7.777 5.278c-5.498-6.202-8.851-14.157-9.525-22.592h15.042zm4.09 23.47a43.782 43.782 0 004.234 8.907 35.803 35.803 0 01-9.352-5.475 36.061 36.061 0 015.118-3.432zm17.011-10.795c-4.485.01-8.94.768-13.197 2.246a79.695 79.695 0 01-1.857-14.921h30.108a79.778 79.778 0 01-1.857 14.921 40.492 40.492 0 00-13.197-2.246zm-15.054-19.012a76.869 76.869 0 012.601-17.855 39.54 39.54 0 0024.906 0 76.869 76.869 0 012.601 17.855H198.69zm-33.342 40.577c-10.557-7.389-69.57-51.071-69.57-103.949 0-19.329 7.33-37.866 20.377-51.533 13.047-13.667 30.742-21.345 49.193-21.345 18.451 0 36.146 7.678 49.193 21.345 13.047 13.667 20.376 32.204 20.376 51.533a79.974 79.974 0 01-4.495 25.776c-8.54-3.854-18.055-4.651-27.072-2.267-9.017 2.383-17.032 7.814-22.805 15.451-5.773 7.637-8.981 17.055-9.128 26.795-.148 9.741 2.775 19.26 8.314 27.085-6.555 5.507-11.857 9.348-14.383 11.109zm75.014-11.648a41.982 41.982 0 00-7.78-5.278 85.418 85.418 0 002.263-17.314h15.042c-.674 8.435-4.028 16.39-9.525 22.592z"
        fill="#3400FE"
        stroke="#1E1E1E"
        stroke-width="2"
        mask="url(#e)"
      />
    </g>
  </g>
  <defs>
    <filter
      id="filter0_d"
      x=".656"
      y="1.192"
      width="318.133"
      height="317.316"
      filterUnits="userSpaceOnUse"
      color-interpolation-filters="sRGB"
    >
      <feFlood flood-opacity="0" result="BackgroundImageFix" />
      <feColorMatrix
        in="SourceAlpha"
        values="0 0 0 0 0 0 0 0 0 0 0 0 0 0 0 0 0 0 127 0"
      />
      <feOffset dy="4" />
      <feGaussianBlur stdDeviation="2" />
      <feColorMatrix values="0 0 0 0 0 0 0 0 0 0 0 0 0 0 0 0 0 0 0.25 0" />
      <feBlend in2="BackgroundImageFix" result="effect1_dropShadow" />
      <feBlend in="SourceGraphic" in2="effect1_dropShadow" result="shape" />
    </filter>
    <filter
      id="filter1_d"
      x="85.729"
      y="67.771"
      width="174.338"
      height="198.117"
      filterUnits="userSpaceOnUse"
      color-interpolation-filters="sRGB"
    >
      <feFlood flood-opacity="0" result="BackgroundImageFix" />
      <feColorMatrix
        in="SourceAlpha"
        values="0 0 0 0 0 0 0 0 0 0 0 0 0 0 0 0 0 0 127 0"
      />
      <feOffset dy="4" />
      <feGaussianBlur stdDeviation="2" />
      <feColorMatrix values="0 0 0 0 0 0 0 0 0 0 0 0 0 0 0 0 0 0 0.25 0" />
      <feBlend in2="BackgroundImageFix" result="effect1_dropShadow" />
      <feBlend in="SourceGraphic" in2="effect1_dropShadow" result="shape" />
    </filter>
    <linearGradient
      id="paint0_linear"
      x1="310.194"
      y1="114.21"
      x2="44.947"
      y2="171.712"
      gradientUnits="userSpaceOnUse"
    >
      <stop stop-color="#3400FE" />
      <stop offset="1" stop-opacity="0" />
    </linearGradient>
  </defs>
</svg>
