<svg id="a" width="270" height="232" viewBox="0 -30 270 285" fill="none" xmlns="http://www.w3.org/2000/svg">

    <g>

        <g filter="url(#filter0_d)">
            <mask id="c" fill="#fff">
                <path
                    d="M49.935 50.85a3 3 0 011.638-2.674l91.833-46.76a3 3 0 012.637-.042L245.668 48.2a3 3 0 011.724 2.715v123.427c0 1.17-.68 2.233-1.743 2.723l-99.626 45.987a2.999 2.999 0 01-2.599-.041L51.593 177.09a3 3 0 01-1.658-2.683V50.85z" />
            </mask>
            <path
                d="M49.935 50.85a3 3 0 011.638-2.674l91.833-46.76a3 3 0 012.637-.042L245.668 48.2a3 3 0 011.724 2.715v123.427c0 1.17-.68 2.233-1.743 2.723l-99.626 45.987a2.999 2.999 0 01-2.599-.041L51.593 177.09a3 3 0 01-1.658-2.683V50.85z"
                stroke="url(#paint0_linear)" stroke-width="4" mask="url(#c)" />
        </g>
        <g filter="url(#filter1_d)">
            <g clip-path="url(#clip0)">
                <mask id="d" fill="#fff">
                    <path
                        d="M174.124 53.424h-56.557c-18.334 0-33.25 15.625-33.25 34.83v59.248c0 19.206 14.916 34.831 33.25 34.831h56.557c18.334 0 33.249-15.625 33.249-34.831V88.255c0-19.206-14.915-34.83-33.249-34.83zm23.308 94.078c0 13.463-10.456 24.416-23.308 24.416h-56.557c-12.852 0-23.308-10.953-23.308-24.416V88.255c0-13.463 10.456-24.416 23.308-24.416h56.557c12.852 0 23.308 10.952 23.308 24.416v59.247z" />
                </mask>
                <path
                    d="M174.124 53.424h-56.557c-18.334 0-33.25 15.625-33.25 34.83v59.248c0 19.206 14.916 34.831 33.25 34.831h56.557c18.334 0 33.249-15.625 33.249-34.831V88.255c0-19.206-14.915-34.83-33.249-34.83zm23.308 94.078c0 13.463-10.456 24.416-23.308 24.416h-56.557c-12.852 0-23.308-10.953-23.308-24.416V88.255c0-13.463 10.456-24.416 23.308-24.416h56.557c12.852 0 23.308 10.952 23.308 24.416v59.247z"
                    fill="#A16AFC" stroke="#1E1E1E" stroke-width="8" mask="url(#d)" />
                <mask id="e" fill="#fff">
                    <path
                        d="M173.386 113.382c-.875-6.181-3.567-11.782-7.784-16.2-4.218-4.418-9.565-7.238-15.464-8.154a26.335 26.335 0 00-8.095 0c-7.291 1.133-13.725 5.172-18.116 11.373-4.39 6.202-6.213 13.824-5.132 21.461 1.081 7.637 4.937 14.377 10.857 18.977 4.806 3.734 10.504 5.695 16.38 5.695a26.76 26.76 0 004.106-.319c7.291-1.133 13.724-5.172 18.115-11.373 4.391-6.201 6.214-13.823 5.133-21.46zm-24.707 22.531c-4.663.726-9.318-.497-13.105-3.439-3.787-2.943-6.253-7.254-6.945-12.14-.691-4.885.474-9.761 3.283-13.728 2.809-3.967 6.925-6.551 11.589-7.276a16.866 16.866 0 015.178 0c7.747 1.204 13.723 7.464 14.872 15.58 1.428 10.085-5.243 19.508-14.872 21.003z" />
                </mask>
                <path
                    d="M173.386 113.382c-.875-6.181-3.567-11.782-7.784-16.2-4.218-4.418-9.565-7.238-15.464-8.154a26.335 26.335 0 00-8.095 0c-7.291 1.133-13.725 5.172-18.116 11.373-4.39 6.202-6.213 13.824-5.132 21.461 1.081 7.637 4.937 14.377 10.857 18.977 4.806 3.734 10.504 5.695 16.38 5.695a26.76 26.76 0 004.106-.319c7.291-1.133 13.724-5.172 18.115-11.373 4.391-6.201 6.214-13.823 5.133-21.46zm-24.707 22.531c-4.663.726-9.318-.497-13.105-3.439-3.787-2.943-6.253-7.254-6.945-12.14-.691-4.885.474-9.761 3.283-13.728 2.809-3.967 6.925-6.551 11.589-7.276a16.866 16.866 0 015.178 0c7.747 1.204 13.723 7.464 14.872 15.58 1.428 10.085-5.243 19.508-14.872 21.003z"
                    fill="#A16AFC" stroke="#1E1E1E" stroke-width="8" mask="url(#e)" />
                <mask id="f" fill="#fff">
                    <path
                        d="M180.467 81.61a4.896 4.896 0 00-3.515-1.525c-1.308 0-2.59.556-3.516 1.526a5.372 5.372 0 00-1.456 3.682c0 1.372.531 2.712 1.456 3.682a4.896 4.896 0 003.516 1.525 4.895 4.895 0 003.515-1.525 5.377 5.377 0 001.456-3.682 5.38 5.38 0 00-1.456-3.683z" />
                </mask>
                <path
                    d="M180.467 81.61a4.896 4.896 0 00-3.515-1.525c-1.308 0-2.59.556-3.516 1.526a5.372 5.372 0 00-1.456 3.682c0 1.372.531 2.712 1.456 3.682a4.896 4.896 0 003.516 1.525 4.895 4.895 0 003.515-1.525 5.377 5.377 0 001.456-3.682 5.38 5.38 0 00-1.456-3.683z"
                    fill="#A16AFC" stroke="#1E1E1E" stroke-width="8" mask="url(#f)" />
            </g>
        </g>
    </g>
    <defs>
        <filter id="filter0_d" x=".396" y="1.089" width="268.77" height="230.239" filterUnits="userSpaceOnUse"
            color-interpolation-filters="sRGB">
            <feFlood flood-opacity="0" result="BackgroundImageFix" />
            <feColorMatrix in="SourceAlpha" values="0 0 0 0 0 0 0 0 0 0 0 0 0 0 0 0 0 0 127 0" />
            <feOffset dy="4" />
            <feGaussianBlur stdDeviation="2" />
            <feColorMatrix values="0 0 0 0 0 0 0 0 0 0 0 0 0 0 0 0 0 0 0.25 0" />
            <feBlend in2="BackgroundImageFix" result="effect1_dropShadow" />
            <feBlend in="SourceGraphic" in2="effect1_dropShadow" result="shape" />
        </filter>
        <filter id="filter1_d" x="80.317" y="53.424" width="131.056" height="136.909" filterUnits="userSpaceOnUse"
            color-interpolation-filters="sRGB">
            <feFlood flood-opacity="0" result="BackgroundImageFix" />
            <feColorMatrix in="SourceAlpha" values="0 0 0 0 0 0 0 0 0 0 0 0 0 0 0 0 0 0 127 0" />
            <feOffset dy="4" />
            <feGaussianBlur stdDeviation="2" />
            <feColorMatrix values="0 0 0 0 0 0 0 0 0 0 0 0 0 0 0 0 0 0 0.25 0" />
            <feBlend in2="BackgroundImageFix" result="effect1_dropShadow" />
            <feBlend in="SourceGraphic" in2="effect1_dropShadow" result="shape" />
        </filter>
        <linearGradient id="paint0_linear" x1="247.392" y1="82.264" x2="56.655" y2="123.613"
            gradientUnits="userSpaceOnUse">
            <stop stop-opacity="0" />
            <stop offset=".771" stop-color="#A16AFC" />
        </linearGradient>
        <clipPath id="clip0">
            <path fill="#fff" transform="translate(84.317 53.424)" d="M0 0h123.056v128.909H0z" />
        </clipPath>
    </defs>
</svg>