<svg id="a" width="262" height="225" viewBox="0 -34 262 273" fill="none" xmlns="http://www.w3.org/2000/svg">

    <g>

        <g filter="url(#filter0_d)">
            <mask id="c" fill="#fff">
                <path
                    d="M48.957 48.99a3 3 0 011.639-2.673L139.498 1.05a3 3 0 012.637-.042l96.45 45.334a2.999 2.999 0 011.724 2.715v119.492a3 3 0 01-1.742 2.724l-96.452 44.521a2.999 2.999 0 01-2.599-.041l-88.9-44.455a3 3 0 01-1.659-2.684V48.991z" />
            </mask>
            <path
                d="M48.957 48.99a3 3 0 011.639-2.673L139.498 1.05a3 3 0 012.637-.042l96.45 45.334a2.999 2.999 0 011.724 2.715v119.492a3 3 0 01-1.742 2.724l-96.452 44.521a2.999 2.999 0 01-2.599-.041l-88.9-44.455a3 3 0 01-1.659-2.684V48.991z"
                stroke="url(#paint0_linear)" stroke-width="4" mask="url(#c)" />
        </g>
        <g filter="url(#filter1_d)">
            <mask id="d" fill="#fff">
                <path
                    d="M93.538 76.34a26.372 26.372 0 01.45-7.72c.708-3.16 2.097-5.784 4.129-7.796 2.846-2.823 6.849-4.37 11.882-4.599 2.438-.09 4.879.075 7.282.492l.64-3.605a38.632 38.632 0 00-8.076-.544c-5.998.275-10.823 2.18-14.34 5.668-2.54 2.516-4.265 5.747-5.126 9.608 0 .007-.003.015-.005.022a29.946 29.946 0 00-.515 8.796l3.679-.321z" />
            </mask>
            <path
                d="M93.538 76.34a26.372 26.372 0 01.45-7.72c.708-3.16 2.097-5.784 4.129-7.796 2.846-2.823 6.849-4.37 11.882-4.599 2.438-.09 4.879.075 7.282.492l.64-3.605a38.632 38.632 0 00-8.076-.544c-5.998.275-10.823 2.18-14.34 5.668-2.54 2.516-4.265 5.747-5.126 9.608 0 .007-.003.015-.005.022a29.946 29.946 0 00-.515 8.796l3.679-.321z"
                fill="#6AEDFC" stroke="#1E1E1E" stroke-width="2" mask="url(#d)" />
            <mask id="e" fill="#fff">
                <path
                    d="M101.639 100.256a86.949 86.949 0 01-3.032-6.01l-3.367 1.506a90.372 90.372 0 003.16 6.264l3.239-1.76z" />
            </mask>
            <path
                d="M101.639 100.256a86.949 86.949 0 01-3.032-6.01l-3.367 1.506a90.372 90.372 0 003.16 6.264l3.239-1.76z"
                fill="#6AEDFC" stroke="#1E1E1E" stroke-width="2" mask="url(#e)" />
            <mask id="f" fill="#fff">
                <path
                    d="M90.933 83.413a59.414 59.414 0 001.686 5.802l3.496-1.183a55.69 55.69 0 01-1.583-5.445l-3.599.826z" />
            </mask>
            <path d="M90.933 83.413a59.414 59.414 0 001.686 5.802l3.496-1.183a55.69 55.69 0 01-1.583-5.445l-3.599.826z"
                fill="#6AEDFC" stroke="#1E1E1E" stroke-width="2" mask="url(#f)" />
            <mask id="g" fill="#fff">
                <path
                    d="M116.064 120.413l-.481-.547-2.788 2.401a138.997 138.997 0 004.737 5.132l2.662-2.538a137.903 137.903 0 01-4.13-4.448z" />
            </mask>
            <path
                d="M116.064 120.413l-.481-.547-2.788 2.401a138.997 138.997 0 004.737 5.132l2.662-2.538a137.903 137.903 0 01-4.13-4.448z"
                fill="#6AEDFC" stroke="#1E1E1E" stroke-width="2" mask="url(#g)" />
            <mask id="h" fill="#fff">
                <path
                    d="M108.332 116.889l2.916-2.246a117.568 117.568 0 01-4.031-5.45l-3.042 2.077a122.448 122.448 0 004.157 5.619z" />
            </mask>
            <path
                d="M108.332 116.889l2.916-2.246a117.568 117.568 0 01-4.031-5.45l-3.042 2.077a122.448 122.448 0 004.157 5.619z"
                fill="#6AEDFC" stroke="#1E1E1E" stroke-width="2" mask="url(#h)" />
            <mask id="i" fill="#fff">
                <path
                    d="M120.674 130.533a134.107 134.107 0 0011 9.536 112.852 112.852 0 0016.605 10.749 82.516 82.516 0 0010.584 4.667l-3.374.957 1.016 3.519 9.445-2.678a1.83 1.83 0 001.267-2.264l-2.462-8.523-3.552 1.006 1.565 5.415a75.178 75.178 0 01-12.757-5.331 109.21 109.21 0 01-16.056-10.395 130.64 130.64 0 01-10.702-9.277l-2.579 2.619z" />
            </mask>
            <path
                d="M120.674 130.533a134.107 134.107 0 0011 9.536 112.852 112.852 0 0016.605 10.749 82.516 82.516 0 0010.584 4.667l-3.374.957 1.016 3.519 9.445-2.678a1.83 1.83 0 001.267-2.264l-2.462-8.523-3.552 1.006 1.565 5.415a75.178 75.178 0 01-12.757-5.331 109.21 109.21 0 01-16.056-10.395 130.64 130.64 0 01-10.702-9.277l-2.579 2.619z"
                fill="#6AEDFC" stroke="#1E1E1E" stroke-width="2" mask="url(#i)" />
            <mask id="j" fill="#fff">
                <path
                    d="M196.348 131.131c-.755-4.669-2.313-9.691-4.633-14.927l-3.382 1.471c2.193 4.952 3.662 9.674 4.366 14.034 1.322 8.184-.13 14.64-4.198 18.672-2.015 1.996-4.635 3.365-7.788 4.069-2.55.569-5.44.704-8.594.405a40.049 40.049 0 01-2.384-.302l-.576 3.614c.877.138 1.755.249 2.608.33a37.17 37.17 0 003.511.171c2.1.013 4.195-.205 6.247-.648 3.846-.86 7.072-2.559 9.588-5.052 4.94-4.896 6.75-12.446 5.235-21.837z" />
            </mask>
            <path
                d="M196.348 131.131c-.755-4.669-2.313-9.691-4.633-14.927l-3.382 1.471c2.193 4.952 3.662 9.674 4.366 14.034 1.322 8.184-.13 14.64-4.198 18.672-2.015 1.996-4.635 3.365-7.788 4.069-2.55.569-5.44.704-8.594.405a40.049 40.049 0 01-2.384-.302l-.576 3.614c.877.138 1.755.249 2.608.33a37.17 37.17 0 003.511.171c2.1.013 4.195-.205 6.247-.648 3.846-.86 7.072-2.559 9.588-5.052 4.94-4.896 6.75-12.446 5.235-21.837z"
                fill="#6AEDFC" stroke="#1E1E1E" stroke-width="2" mask="url(#j)" />
            <mask id="k" fill="#fff">
                <path
                    d="M187.393 107.729l-3.209 1.813a91.627 91.627 0 012.493 4.629l3.309-1.627a93.351 93.351 0 00-2.593-4.815z" />
            </mask>
            <path
                d="M187.393 107.729l-3.209 1.813a91.627 91.627 0 012.493 4.629l3.309-1.627a93.351 93.351 0 00-2.593-4.815z"
                fill="#6AEDFC" stroke="#1E1E1E" stroke-width="2" mask="url(#k)" />
            <mask id="l" fill="#fff">
                <path
                    d="M178.819 95.007l-2.934 2.224a125.747 125.747 0 013.996 5.48l3.052-2.06a128.24 128.24 0 00-4.114-5.644z" />
            </mask>
            <path
                d="M178.819 95.007l-2.934 2.224a125.747 125.747 0 013.996 5.48l3.052-2.06a128.24 128.24 0 00-4.114-5.644z"
                fill="#6AEDFC" stroke="#1E1E1E" stroke-width="2" mask="url(#l)" />
            <mask id="m" fill="#fff">
                <path
                    d="M169.688 84.43l-2.671 2.527a124.789 124.789 0 014.575 5.017l2.808-2.379a129.766 129.766 0 00-4.712-5.165z" />
            </mask>
            <path
                d="M169.688 84.43l-2.671 2.527a124.789 124.789 0 014.575 5.017l2.808-2.379a129.766 129.766 0 00-4.712-5.165z"
                fill="#6AEDFC" stroke="#1E1E1E" stroke-width="2" mask="url(#m)" />
            <mask id="n" fill="#fff">
                <path
                    d="M123.916 65.41l3.612-.765-1.192-5.528a74.461 74.461 0 019.867 4.292 108.075 108.075 0 0115.863 10.147 128.855 128.855 0 017.027 5.788 134.664 134.664 0 015.509 5.158l2.612-2.587a142.001 142.001 0 00-5.66-5.303 133.66 133.66 0 00-7.224-5.949 111.713 111.713 0 00-7.273-5.144 92.504 92.504 0 014.234-2.228l-1.644-3.278a96.116 96.116 0 00-5.028 2.666l1.173 2.028a113.878 113.878 0 00-7.862-4.534 78.567 78.567 0 00-7.342-3.372l3.254-.688-.77-3.58-9.606 2.035a1.83 1.83 0 00-1.42 2.171l1.87 8.671z" />
            </mask>
            <path
                d="M123.916 65.41l3.612-.765-1.192-5.528a74.461 74.461 0 019.867 4.292 108.075 108.075 0 0115.863 10.147 128.855 128.855 0 017.027 5.788 134.664 134.664 0 015.509 5.158l2.612-2.587a142.001 142.001 0 00-5.66-5.303 133.66 133.66 0 00-7.224-5.949 111.713 111.713 0 00-7.273-5.144 92.504 92.504 0 014.234-2.228l-1.644-3.278a96.116 96.116 0 00-5.028 2.666l1.173 2.028a113.878 113.878 0 00-7.862-4.534 78.567 78.567 0 00-7.342-3.372l3.254-.688-.77-3.58-9.606 2.035a1.83 1.83 0 00-1.42 2.171l1.87 8.671z"
                fill="#6AEDFC" stroke="#1E1E1E" stroke-width="2" mask="url(#n)" />
            <mask id="o" fill="#fff">
                <path
                    d="M89.665 131.417a37.558 37.558 0 00-.547 8.002c.275 5.942 2.199 10.722 5.719 14.209 2.54 2.517 5.803 4.224 9.696 5.076a30.8 30.8 0 008.901.518l-.325-3.647c-2.605.229-5.23.078-7.791-.448-3.191-.698-5.839-2.073-7.87-4.087-2.847-2.822-4.41-6.788-4.64-11.774a33.922 33.922 0 01.496-7.216l-3.639-.633z" />
            </mask>
            <path
                d="M89.665 131.417a37.558 37.558 0 00-.547 8.002c.275 5.942 2.199 10.722 5.719 14.209 2.54 2.517 5.803 4.224 9.696 5.076a30.8 30.8 0 008.901.518l-.325-3.647c-2.605.229-5.23.078-7.791-.448-3.191-.698-5.839-2.073-7.87-4.087-2.847-2.822-4.41-6.788-4.64-11.774a33.922 33.922 0 01.496-7.216l-3.639-.633z"
                fill="#6AEDFC" stroke="#1E1E1E" stroke-width="2" mask="url(#o)" />
            <mask id="p" fill="#fff">
                <path
                    d="M132.7 153.89a91.158 91.158 0 006.321-3.132l-1.774-3.209a88.045 88.045 0 01-6.066 3.005l1.519 3.336z" />
            </mask>
            <path
                d="M132.7 153.89a91.158 91.158 0 006.321-3.132l-1.774-3.209a88.045 88.045 0 01-6.066 3.005l1.519 3.336z"
                fill="#6AEDFC" stroke="#1E1E1E" stroke-width="2" mask="url(#p)" />
            <mask id="q" fill="#fff">
                <path
                    d="M120.247 158.157a60.594 60.594 0 005.856-1.67l-1.194-3.465a57.115 57.115 0 01-5.496 1.57l.834 3.565z" />
            </mask>
            <path
                d="M120.247 158.157a60.594 60.594 0 005.856-1.67l-1.194-3.465a57.115 57.115 0 01-5.496 1.57l.834 3.565z"
                fill="#6AEDFC" stroke="#1E1E1E" stroke-width="2" mask="url(#q)" />
            <mask id="r" fill="#fff">
                <path
                    d="M157.038 133.732l2.421 2.765a144.067 144.067 0 003.768-3.365c.472-.438.944-.882 1.414-1.33l-2.561-2.637a134.06 134.06 0 01-5.042 4.567z" />
            </mask>
            <path
                d="M157.038 133.732l2.421 2.765a144.067 144.067 0 003.768-3.365c.472-.438.944-.882 1.414-1.33l-2.561-2.637a134.06 134.06 0 01-5.042 4.567z"
                fill="#6AEDFC" stroke="#1E1E1E" stroke-width="2" mask="url(#r)" />
            <mask id="s" fill="#fff">
                <path
                    d="M146.266 142.021l2.096 3.015a120.531 120.531 0 005.671-4.118l-2.267-2.891a117.505 117.505 0 01-5.5 3.994z" />
            </mask>
            <path
                d="M146.266 142.021l2.096 3.015a120.531 120.531 0 005.671-4.118l-2.267-2.891a117.505 117.505 0 01-5.5 3.994z"
                fill="#6AEDFC" stroke="#1E1E1E" stroke-width="2" mask="url(#s)" />
            <mask id="t" fill="#fff">
                <path
                    d="M168.991 57.323c8.259-1.308 14.776.13 18.845 4.161 2.013 1.995 3.395 4.592 4.107 7.717.573 2.526.711 5.391.407 8.515a36.545 36.545 0 01-.304 2.361l3.649.572c.138-.872.25-1.741.333-2.584.339-3.51.177-6.762-.482-9.668-.867-3.811-2.582-7.009-5.098-9.502-4.942-4.895-12.564-6.689-22.04-5.186-4.71.747-9.78 2.292-15.065 4.59l1.485 3.351c4.997-2.173 9.762-3.629 14.163-4.327z" />
            </mask>
            <path
                d="M168.991 57.323c8.259-1.308 14.776.13 18.845 4.161 2.013 1.995 3.395 4.592 4.107 7.717.573 2.526.711 5.391.407 8.515a36.545 36.545 0 01-.304 2.361l3.649.572c.138-.872.25-1.741.333-2.584.339-3.51.177-6.762-.482-9.668-.867-3.811-2.582-7.009-5.098-9.502-4.942-4.895-12.564-6.689-22.04-5.186-4.71.747-9.78 2.292-15.065 4.59l1.485 3.351c4.997-2.173 9.762-3.629 14.163-4.327z"
                fill="#6AEDFC" stroke="#1E1E1E" stroke-width="2" mask="url(#t)" />
            <mask id="u" fill="#fff">
                <path
                    d="M128.886 78.238l-2.401-2.781a131.136 131.136 0 00-5.212 4.666l2.551 2.648a125.212 125.212 0 015.062-4.533z" />
            </mask>
            <path
                d="M128.886 78.238l-2.401-2.781a131.136 131.136 0 00-5.212 4.666l2.551 2.648a125.212 125.212 0 015.062-4.533z"
                fill="#6AEDFC" stroke="#1E1E1E" stroke-width="2" mask="url(#u)" />
            <mask id="v" fill="#fff">
                <path
                    d="M139.726 70.026L137.644 67a130.586 130.586 0 00-5.694 4.076l2.243 2.908a124.488 124.488 0 015.533-3.96z" />
            </mask>
            <path
                d="M139.726 70.026L137.644 67a130.586 130.586 0 00-5.694 4.076l2.243 2.908a124.488 124.488 0 015.533-3.96z"
                fill="#6AEDFC" stroke="#1E1E1E" stroke-width="2" mask="url(#v)" />
            <mask id="w" fill="#fff">
                <path
                    d="M194.802 83.83a1.85 1.85 0 00-2.284-1.257l-8.603 2.44 1.015 3.518 5.466-1.55a73.778 73.778 0 01-5.382 12.64 107.831 107.831 0 01-10.491 15.909c-2.925 3.7-6.05 7.24-9.363 10.604l2.643 2.556a133.718 133.718 0 009.625-10.899 111.62 111.62 0 0010.849-16.453 81.213 81.213 0 004.709-10.487l.966 3.343 3.551-1.006-2.701-9.359z" />
            </mask>
            <path
                d="M194.802 83.83a1.85 1.85 0 00-2.284-1.257l-8.603 2.44 1.015 3.518 5.466-1.55a73.778 73.778 0 01-5.382 12.64 107.831 107.831 0 01-10.491 15.909c-2.925 3.7-6.05 7.24-9.363 10.604l2.643 2.556a133.718 133.718 0 009.625-10.899 111.62 111.62 0 0010.849-16.453 81.213 81.213 0 004.709-10.487l.966 3.343 3.551-1.006-2.701-9.359z"
                fill="#6AEDFC" stroke="#1E1E1E" stroke-width="2" mask="url(#w)" />
            <mask id="x" fill="#fff">
                <path
                    d="M92.94 127.371c.13 0 .26-.014.388-.042l8.75-1.852-.772-3.58-5.579 1.183a72.867 72.867 0 014.332-9.777 106.798 106.798 0 0110.24-15.719 128.71 128.71 0 019.41-10.769 141.22 141.22 0 011.638-1.651l-2.611-2.588a137.73 137.73 0 00-5.353 5.609 131.568 131.568 0 00-6.004 7.157 110.469 110.469 0 00-10.586 16.25 76.289 76.289 0 00-3.403 7.275l-.696-3.227-3.613.764 2.054 9.518a1.845 1.845 0 001.806 1.449z" />
            </mask>
            <path
                d="M92.94 127.371c.13 0 .26-.014.388-.042l8.75-1.852-.772-3.58-5.579 1.183a72.867 72.867 0 014.332-9.777 106.798 106.798 0 0110.24-15.719 128.71 128.71 0 019.41-10.769 141.22 141.22 0 011.638-1.651l-2.611-2.588a137.73 137.73 0 00-5.353 5.609 131.568 131.568 0 00-6.004 7.157 110.469 110.469 0 00-10.586 16.25 76.289 76.289 0 00-3.403 7.275l-.696-3.227-3.613.764 2.054 9.518a1.845 1.845 0 001.806 1.449z"
                fill="#6AEDFC" stroke="#1E1E1E" stroke-width="2" mask="url(#x)" />
            <mask id="y" fill="#fff">
                <path
                    d="M127.363 91.747v29.031c0 1.549.877 3.73 5.324 5.324 2.88 1.033 6.644 1.602 10.642 1.602h.143c2.31 0 4.614-.209 6.886-.624 5.758-1.094 9.096-3.391 9.096-6.302V91.747c0-1.55-.978-3.73-5.426-5.325-2.88-1.032-6.695-1.601-10.698-1.601-4.004 0-7.752.569-10.632 1.601-4.447 1.595-5.335 3.775-5.335 5.325zm22.303 31.736c-2.09.384-4.211.572-6.335.561-3.589 0-6.889-.492-9.376-1.382-2.432-.873-2.898-1.748-2.898-1.884v-5.108c.525.276 1.07.514 1.63.71 2.88 1.033 6.644 1.602 10.65 1.602 4.005 0 7.827-.569 10.707-1.602.631-.226 1.023-.464 1.716-.711v5.109c0 .343-1.495 1.831-6.094 2.705zm6.094-12.427c0 .137-.555 1.011-2.987 1.884-2.487.891-5.855 1.382-9.443 1.382-3.588 0-6.888-.491-9.375-1.382-2.432-.873-2.898-1.748-2.898-1.884v-5.041c.525.276 1.07.514 1.63.711 2.88 1.033 6.644 1.601 10.65 1.601 4.005 0 7.827-.568 10.707-1.601.631-.226 1.023-.465 1.716-.711v5.041zm-2.987-7.772c-2.487.892-5.855 1.382-9.443 1.382-3.588 0-6.888-.49-9.375-1.382-2.432-.872-2.898-1.746-2.898-1.882v-5.043c.526.276 1.07.514 1.63.711 2.881 1.033 6.645 1.602 10.65 1.602 4.004 0 7.826-.57 10.707-1.602.631-.227 1.023-.465 1.716-.71v5.042c0 .136-.555 1.01-2.987 1.882zm-18.885-13.42c2.487-.893 5.833-1.383 9.42-1.383 3.586 0 6.932.49 9.419 1.383 2.431.872 2.944 1.746 2.944 1.883 0 .135-.513 1.01-2.944 1.882-2.487.892-5.833 1.383-9.419 1.383-3.587 0-6.933-.492-9.42-1.383-2.433-.873-2.944-1.747-2.944-1.882 0-.137.512-1.01 2.945-1.883h-.001z" />
            </mask>
            <path
                d="M127.363 91.747v29.031c0 1.549.877 3.73 5.324 5.324 2.88 1.033 6.644 1.602 10.642 1.602h.143c2.31 0 4.614-.209 6.886-.624 5.758-1.094 9.096-3.391 9.096-6.302V91.747c0-1.55-.978-3.73-5.426-5.325-2.88-1.032-6.695-1.601-10.698-1.601-4.004 0-7.752.569-10.632 1.601-4.447 1.595-5.335 3.775-5.335 5.325zm22.303 31.736c-2.09.384-4.211.572-6.335.561-3.589 0-6.889-.492-9.376-1.382-2.432-.873-2.898-1.748-2.898-1.884v-5.108c.525.276 1.07.514 1.63.71 2.88 1.033 6.644 1.602 10.65 1.602 4.005 0 7.827-.569 10.707-1.602.631-.226 1.023-.464 1.716-.711v5.109c0 .343-1.495 1.831-6.094 2.705zm6.094-12.427c0 .137-.555 1.011-2.987 1.884-2.487.891-5.855 1.382-9.443 1.382-3.588 0-6.888-.491-9.375-1.382-2.432-.873-2.898-1.748-2.898-1.884v-5.041c.525.276 1.07.514 1.63.711 2.88 1.033 6.644 1.601 10.65 1.601 4.005 0 7.827-.568 10.707-1.601.631-.226 1.023-.465 1.716-.711v5.041zm-2.987-7.772c-2.487.892-5.855 1.382-9.443 1.382-3.588 0-6.888-.49-9.375-1.382-2.432-.872-2.898-1.746-2.898-1.882v-5.043c.526.276 1.07.514 1.63.711 2.881 1.033 6.645 1.602 10.65 1.602 4.004 0 7.826-.57 10.707-1.602.631-.227 1.023-.465 1.716-.71v5.042c0 .136-.555 1.01-2.987 1.882zm-18.885-13.42c2.487-.893 5.833-1.383 9.42-1.383 3.586 0 6.932.49 9.419 1.383 2.431.872 2.944 1.746 2.944 1.883 0 .135-.513 1.01-2.944 1.882-2.487.892-5.833 1.383-9.419 1.383-3.587 0-6.933-.492-9.42-1.383-2.433-.873-2.944-1.747-2.944-1.882 0-.137.512-1.01 2.945-1.883h-.001z"
                fill="#6AEDFC" stroke="#1E1E1E" stroke-width="2" mask="url(#y)" />
        </g>
    </g>
    <defs>
        <filter id="filter0_d" x=".827" y=".722" width="260.707" height="223.347" filterUnits="userSpaceOnUse"
            color-interpolation-filters="sRGB">
            <feFlood flood-opacity="0" result="BackgroundImageFix" />
            <feColorMatrix in="SourceAlpha" values="0 0 0 0 0 0 0 0 0 0 0 0 0 0 0 0 0 0 127 0" />
            <feOffset dy="4" />
            <feGaussianBlur stdDeviation="2" />
            <feColorMatrix values="0 0 0 0 0 0 0 0 0 0 0 0 0 0 0 0 0 0 0.25 0" />
            <feBlend in2="BackgroundImageFix" result="effect1_dropShadow" />
            <feBlend in="SourceGraphic" in2="effect1_dropShadow" result="shape" />
        </filter>
        <filter id="filter1_d" x="81.577" y="49.052" width="123.65" height="122.589" filterUnits="userSpaceOnUse"
            color-interpolation-filters="sRGB">
            <feFlood flood-opacity="0" result="BackgroundImageFix" />
            <feColorMatrix in="SourceAlpha" values="0 0 0 0 0 0 0 0 0 0 0 0 0 0 0 0 0 0 127 0" />
            <feOffset dy="4" />
            <feGaussianBlur stdDeviation="2" />
            <feColorMatrix values="0 0 0 0 0 0 0 0 0 0 0 0 0 0 0 0 0 0 0.25 0" />
            <feBlend in2="BackgroundImageFix" result="effect1_dropShadow" />
            <feBlend in="SourceGraphic" in2="effect1_dropShadow" result="shape" />
        </filter>
        <linearGradient id="paint0_linear" x1="240.309" y1="79.376" x2="55.469" y2="119.447"
            gradientUnits="userSpaceOnUse">
            <stop stop-opacity="0" />
            <stop offset=".771" stop-color="#6AEDFC" />
        </linearGradient>
    </defs>
</svg>