<svg id="a" width="166" height="143" viewBox="0 -16 166 164" fill="none" xmlns="http://www.w3.org/2000/svg">

    <g>

        <g filter="url(#filter0_d)">
            <mask id="c" fill="#fff">
                <path
                    d="M32.12 31.675a3 3 0 011.638-2.673l53.888-27.44a3 3 0 012.638-.042l58.518 27.506a3 3 0 011.724 2.715v72.482a3 3 0 01-1.743 2.724l-58.52 27.012a3.002 3.002 0 01-2.598-.04l-53.888-26.947a3 3 0 01-1.658-2.683V31.675z" />
            </mask>
            <path
                d="M32.12 31.675a3 3 0 011.638-2.673l53.888-27.44a3 3 0 012.638-.042l58.518 27.506a3 3 0 011.724 2.715v72.482a3 3 0 01-1.743 2.724l-58.52 27.012a3.002 3.002 0 01-2.598-.04l-53.888-26.947a3 3 0 01-1.658-2.683V31.675z"
                stroke="url(#paint0_linear)" stroke-width="4" mask="url(#c)" />
        </g>
        <g filter="url(#filter1_d)">
            <mask id="d" fill="#fff">
                <path
                    d="M86.064 63.753c-6.015 1.849-10.15 7.625-10.158 14.191V91.26c0 .817.631 1.48 1.411 1.48h25.422c.78 0 1.412-.663 1.412-1.48V77.944c-.009-6.566-4.144-12.342-10.158-14.19 4.286-1.967 6.67-6.811 5.712-11.61-.959-4.798-4.997-8.234-9.677-8.234s-8.718 3.436-9.676 8.235c-.959 4.798 1.425 9.642 5.712 11.608zm15.263 14.191V89.78H78.73V77.944c0-6.537 5.058-11.836 11.298-11.836s11.299 5.299 11.299 11.836zM90.028 46.875c3.9 0 7.062 3.312 7.062 7.398 0 4.085-3.162 7.397-7.062 7.397-3.9 0-7.061-3.312-7.061-7.397.005-4.084 3.163-7.393 7.061-7.398z" />
            </mask>
            <path
                d="M86.064 63.753c-6.015 1.849-10.15 7.625-10.158 14.191V91.26c0 .817.631 1.48 1.411 1.48h25.422c.78 0 1.412-.663 1.412-1.48V77.944c-.009-6.566-4.144-12.342-10.158-14.19 4.286-1.967 6.67-6.811 5.712-11.61-.959-4.798-4.997-8.234-9.677-8.234s-8.718 3.436-9.676 8.235c-.959 4.798 1.425 9.642 5.712 11.608zm15.263 14.191V89.78H78.73V77.944c0-6.537 5.058-11.836 11.298-11.836s11.299 5.299 11.299 11.836zM90.028 46.875c3.9 0 7.062 3.312 7.062 7.398 0 4.085-3.162 7.397-7.062 7.397-3.9 0-7.061-3.312-7.061-7.397.005-4.084 3.163-7.393 7.061-7.398z"
                fill="#6AEDFC" stroke="#1E1E1E" stroke-width="1.998" mask="url(#d)" />
            <mask id="e" fill="#fff">
                <path
                    d="M59.785 45.646l-.05.124.588.26c.435.271.903.478 1.392.615l.622.274.051-.127c.267.048.537.076.807.084a5.41 5.41 0 002.854-.836l5.005 5.243 1.998-2.092-5.006-5.243a6.075 6.075 0 00.798-2.99 6.048 6.048 0 00-.08-.844l.122-.055-.263-.652a5.894 5.894 0 00-.586-1.459l-.248-.615-.119.053a6.012 6.012 0 00-.48-.612c-2.236-2.238-5.755-2.238-7.99 0-2.204 2.31-2.204 6.057 0 8.367.185.182.38.35.585.505zm1.413-6.78a2.738 2.738 0 012.747-.807c.987.27 1.758 1.078 2.018 2.113a3.056 3.056 0 01-.771 2.878 2.796 2.796 0 01-3.994 0c-1.103-1.156-1.103-3.029 0-4.184z" />
            </mask>
            <path
                d="M59.785 45.646l-.05.124.588.26c.435.271.903.478 1.392.615l.622.274.051-.127c.267.048.537.076.807.084a5.41 5.41 0 002.854-.836l5.005 5.243 1.998-2.092-5.006-5.243a6.075 6.075 0 00.798-2.99 6.048 6.048 0 00-.08-.844l.122-.055-.263-.652a5.894 5.894 0 00-.586-1.459l-.248-.615-.119.053a6.012 6.012 0 00-.48-.612c-2.236-2.238-5.755-2.238-7.99 0-2.204 2.31-2.204 6.057 0 8.367.185.182.38.35.585.505zm1.413-6.78a2.738 2.738 0 012.747-.807c.987.27 1.758 1.078 2.018 2.113a3.056 3.056 0 01-.771 2.878 2.796 2.796 0 01-3.994 0c-1.103-1.156-1.103-3.029 0-4.184z"
                fill="#6AEDFC" stroke="#1E1E1E" stroke-width="1.998" mask="url(#e)" />
            <mask id="f" fill="#fff">
                <path
                    d="M120.268 92.496l.053-.131-.789-.349a5.341 5.341 0 00-.867-.384l-.946-.417-.07.176a5.618 5.618 0 00-3.63.716l-5.016-5.255-1.998 2.092 5.006 5.243a6.073 6.073 0 00-.799 2.99c.008.283.034.566.08.845l-.122.053.263.652c.131.513.328 1.003.586 1.458l.249.617.119-.053c.147.215.307.419.481.612 1.419 1.538 3.519 2.155 5.494 1.614 1.975-.542 3.518-2.158 4.034-4.226.517-2.07-.072-4.27-1.54-5.756a5.182 5.182 0 00-.588-.497zm-1.412 6.773a2.798 2.798 0 01-3.994 0c-1.103-1.156-1.103-3.03 0-4.184a2.733 2.733 0 013.994 0c1.104 1.155 1.104 3.028 0 4.184z" />
            </mask>
            <path
                d="M120.268 92.496l.053-.131-.789-.349a5.341 5.341 0 00-.867-.384l-.946-.417-.07.176a5.618 5.618 0 00-3.63.716l-5.016-5.255-1.998 2.092 5.006 5.243a6.073 6.073 0 00-.799 2.99c.008.283.034.566.08.845l-.122.053.263.652c.131.513.328 1.003.586 1.458l.249.617.119-.053c.147.215.307.419.481.612 1.419 1.538 3.519 2.155 5.494 1.614 1.975-.542 3.518-2.158 4.034-4.226.517-2.07-.072-4.27-1.54-5.756a5.182 5.182 0 00-.588-.497zm-1.412 6.773a2.798 2.798 0 01-3.994 0c-1.103-1.156-1.103-3.03 0-4.184a2.733 2.733 0 013.994 0c1.104 1.155 1.104 3.028 0 4.184z"
                fill="#6AEDFC" stroke="#1E1E1E" stroke-width="1.998" mask="url(#f)" />
            <mask id="g" fill="#fff">
                <path
                    d="M128.16 63.15a5.262 5.262 0 00-.809.085l-.077-.189-1.232.547c-.054.024-.108.046-.16.071l-1.216.537.076.188a5.92 5.92 0 00-2.03 3.199h-7.262v2.959h7.262a5.92 5.92 0 002.036 3.204l-.077.188 1.217.537c.051.025.105.047.159.071l1.227.542.077-.19c2.09.32 4.176-.61 5.404-2.412a6.143 6.143 0 00.422-6.138c-.968-1.968-2.904-3.202-5.017-3.2zm0 8.876c-1.56 0-2.824-1.325-2.824-2.959 0-1.634 1.264-2.959 2.824-2.959 1.56 0 2.824 1.325 2.824 2.96 0 1.633-1.264 2.958-2.824 2.958z" />
            </mask>
            <path
                d="M128.16 63.15a5.262 5.262 0 00-.809.085l-.077-.189-1.232.547c-.054.024-.108.046-.16.071l-1.216.537.076.188a5.92 5.92 0 00-2.03 3.199h-7.262v2.959h7.262a5.92 5.92 0 002.036 3.204l-.077.188 1.217.537c.051.025.105.047.159.071l1.227.542.077-.19c2.09.32 4.176-.61 5.404-2.412a6.143 6.143 0 00.422-6.138c-.968-1.968-2.904-3.202-5.017-3.2zm0 8.876c-1.56 0-2.824-1.325-2.824-2.959 0-1.634 1.264-2.959 2.824-2.959 1.56 0 2.824 1.325 2.824 2.96 0 1.633-1.264 2.958-2.824 2.958z"
                fill="#6AEDFC" stroke="#1E1E1E" stroke-width="1.998" mask="url(#g)" />
            <mask id="h" fill="#fff">
                <path
                    d="M111.17 40.06l.122.054c-.046.278-.072.56-.08.844a6.073 6.073 0 00.799 2.99l-5.006 5.243 1.998 2.092 5.005-5.243c.861.542 1.848.83 2.854.836.27-.008.54-.036.806-.084l.051.127.623-.274a5.382 5.382 0 001.391-.614l.588-.261-.05-.124a5.84 5.84 0 00.585-.505c2.205-2.31 2.205-6.057 0-8.367-2.235-2.238-5.754-2.238-7.988 0a5.695 5.695 0 00-.481.612l-.119-.053-.249.616a5.947 5.947 0 00-.586 1.458l-.263.652zm3.695-1.194a2.738 2.738 0 012.747-.807c.987.27 1.759 1.078 2.017 2.113a3.053 3.053 0 01-.77 2.878 2.796 2.796 0 01-3.994 0c-1.103-1.156-1.103-3.029 0-4.184z" />
            </mask>
            <path
                d="M111.17 40.06l.122.054c-.046.278-.072.56-.08.844a6.073 6.073 0 00.799 2.99l-5.006 5.243 1.998 2.092 5.005-5.243c.861.542 1.848.83 2.854.836.27-.008.54-.036.806-.084l.051.127.623-.274a5.382 5.382 0 001.391-.614l.588-.261-.05-.124a5.84 5.84 0 00.585-.505c2.205-2.31 2.205-6.057 0-8.367-2.235-2.238-5.754-2.238-7.988 0a5.695 5.695 0 00-.481.612l-.119-.053-.249.616a5.947 5.947 0 00-.586 1.458l-.263.652zm3.695-1.194a2.738 2.738 0 012.747-.807c.987.27 1.759 1.078 2.017 2.113a3.053 3.053 0 01-.77 2.878 2.796 2.796 0 01-3.994 0c-1.103-1.156-1.103-3.029 0-4.184z"
                fill="#6AEDFC" stroke="#1E1E1E" stroke-width="1.998" mask="url(#h)" />
            <mask id="i" fill="#fff">
                <path
                    d="M68.886 98.076l-.121-.054c.045-.28.073-.562.079-.845a6.074 6.074 0 00-.798-2.99l5.005-5.243-1.997-2.092-5.016 5.255a5.618 5.618 0 00-3.63-.716l-.07-.176-.947.418c-.298.1-.589.23-.866.383l-.79.349.053.13a5.255 5.255 0 00-.587.498c-1.468 1.486-2.059 3.687-1.54 5.756.517 2.068 2.059 3.684 4.034 4.226 1.974.541 4.076-.076 5.494-1.614a5.94 5.94 0 00.481-.612l.119.053.248-.616c.259-.456.456-.946.586-1.46l.263-.65zm-3.694 1.193a2.798 2.798 0 01-3.994 0c-1.103-1.156-1.103-3.03-.001-4.184a2.734 2.734 0 013.995 0c1.103 1.155 1.103 3.028 0 4.184z" />
            </mask>
            <path
                d="M68.886 98.076l-.121-.054c.045-.28.073-.562.079-.845a6.074 6.074 0 00-.798-2.99l5.005-5.243-1.997-2.092-5.016 5.255a5.618 5.618 0 00-3.63-.716l-.07-.176-.947.418c-.298.1-.589.23-.866.383l-.79.349.053.13a5.255 5.255 0 00-.587.498c-1.468 1.486-2.059 3.687-1.54 5.756.517 2.068 2.059 3.684 4.034 4.226 1.974.541 4.076-.076 5.494-1.614a5.94 5.94 0 00.481-.612l.119.053.248-.616c.259-.456.456-.946.586-1.46l.263-.65zm-3.694 1.193a2.798 2.798 0 01-3.994 0c-1.103-1.156-1.103-3.03-.001-4.184a2.734 2.734 0 013.995 0c1.103 1.155 1.103 3.028 0 4.184z"
                fill="#6AEDFC" stroke="#1E1E1E" stroke-width="1.998" mask="url(#i)" />
            <mask id="j" fill="#fff">
                <path
                    d="M54.015 74.541c.054-.023.107-.046.16-.071l1.216-.537-.077-.187a5.92 5.92 0 002.03-3.2h7.263v-2.958h-7.262a5.925 5.925 0 00-2.037-3.205l.077-.188-1.216-.536c-.053-.026-.106-.048-.16-.071l-1.227-.542-.077.189a5.262 5.262 0 00-.809-.085c-3.12 0-5.649 2.65-5.649 5.917 0 3.269 2.53 5.918 5.65 5.918.27-.008.541-.037.808-.086l.077.19 1.233-.547zm-4.943-5.474c0-1.634 1.264-2.959 2.824-2.959 1.56 0 2.825 1.325 2.825 2.96 0 1.633-1.265 2.958-2.825 2.958-1.56 0-2.824-1.325-2.824-2.959z" />
            </mask>
            <path
                d="M54.015 74.541c.054-.023.107-.046.16-.071l1.216-.537-.077-.187a5.92 5.92 0 002.03-3.2h7.263v-2.958h-7.262a5.925 5.925 0 00-2.037-3.205l.077-.188-1.216-.536c-.053-.026-.106-.048-.16-.071l-1.227-.542-.077.189a5.262 5.262 0 00-.809-.085c-3.12 0-5.649 2.65-5.649 5.917 0 3.269 2.53 5.918 5.65 5.918.27-.008.541-.037.808-.086l.077.19 1.233-.547zm-4.943-5.474c0-1.634 1.264-2.959 2.824-2.959 1.56 0 2.825 1.325 2.825 2.96 0 1.633-1.265 2.958-2.825 2.958-1.56 0-2.824-1.325-2.824-2.959z"
                fill="#6AEDFC" stroke="#1E1E1E" stroke-width="1.998" mask="url(#j)" />
            <mask id="k" fill="#fff">
                <path
                    d="M95.253 106.794c-.022-.057-.043-.113-.068-.167l-.512-1.275-.179.08a5.621 5.621 0 00-3.053-2.127v-7.608h-2.826v7.608a5.628 5.628 0 00-3.058 2.133l-.18-.08-.513 1.275c-.023.054-.044.11-.067.167l-.518 1.285.182.08c-.382 2.323.588 4.66 2.47 5.953a5.437 5.437 0 006.195 0c1.88-1.293 2.851-3.63 2.47-5.953l.18-.08-.523-1.291zm-5.225 5.178c-1.56 0-2.824-1.325-2.824-2.959 0-1.634 1.265-2.959 2.824-2.959 1.56 0 2.825 1.325 2.825 2.959 0 1.634-1.265 2.959-2.825 2.959z" />
            </mask>
            <path
                d="M95.253 106.794c-.022-.057-.043-.113-.068-.167l-.512-1.275-.179.08a5.621 5.621 0 00-3.053-2.127v-7.608h-2.826v7.608a5.628 5.628 0 00-3.058 2.133l-.18-.08-.513 1.275c-.023.054-.044.11-.067.167l-.518 1.285.182.08c-.382 2.323.588 4.66 2.47 5.953a5.437 5.437 0 006.195 0c1.88-1.293 2.851-3.63 2.47-5.953l.18-.08-.523-1.291zm-5.225 5.178c-1.56 0-2.824-1.325-2.824-2.959 0-1.634 1.265-2.959 2.824-2.959 1.56 0 2.825 1.325 2.825 2.959 0 1.634-1.265 2.959-2.825 2.959z"
                fill="#6AEDFC" stroke="#1E1E1E" stroke-width="1.998" mask="url(#k)" />
            <mask id="l" fill="#fff">
                <path
                    d="M84.803 31.34c.022.057.044.114.067.168l.513 1.274.18-.08a5.624 5.624 0 003.052 2.127v7.608h2.826v-7.608a5.618 5.618 0 003.058-2.133l.18.08.513-1.275c.024-.053.044-.11.068-.166l.516-1.286-.18-.08c.046-.28.073-.563.081-.847 0-3.268-2.529-5.918-5.649-5.918s-5.65 2.65-5.65 5.918c.009.284.036.567.083.848l-.182.08.524 1.29zm5.225-5.177c1.56 0 2.825 1.325 2.825 2.959 0 1.634-1.265 2.96-2.825 2.96-1.56 0-2.824-1.326-2.824-2.96s1.265-2.959 2.824-2.959z" />
            </mask>
            <path
                d="M84.803 31.34c.022.057.044.114.067.168l.513 1.274.18-.08a5.624 5.624 0 003.052 2.127v7.608h2.826v-7.608a5.618 5.618 0 003.058-2.133l.18.08.513-1.275c.024-.053.044-.11.068-.166l.516-1.286-.18-.08c.046-.28.073-.563.081-.847 0-3.268-2.529-5.918-5.649-5.918s-5.65 2.65-5.65 5.918c.009.284.036.567.083.848l-.182.08.524 1.29zm5.225-5.177c1.56 0 2.825 1.325 2.825 2.959 0 1.634-1.265 2.96-2.825 2.96-1.56 0-2.824-1.326-2.824-2.96s1.265-2.959 2.824-2.959z"
                fill="#6AEDFC" stroke="#1E1E1E" stroke-width="1.998" mask="url(#l)" />
        </g>
    </g>
    <defs>
        <filter id="filter0_d" x=".81" y="1.235" width="164.373" height="141" filterUnits="userSpaceOnUse"
            color-interpolation-filters="sRGB">
            <feFlood flood-opacity="0" result="BackgroundImageFix" />
            <feColorMatrix in="SourceAlpha" values="0 0 0 0 0 0 0 0 0 0 0 0 0 0 0 0 0 0 127 0" />
            <feOffset dy="4" />
            <feGaussianBlur stdDeviation="2" />
            <feColorMatrix values="0 0 0 0 0 0 0 0 0 0 0 0 0 0 0 0 0 0 0.25 0" />
            <feBlend in2="BackgroundImageFix" result="effect1_dropShadow" />
            <feBlend in="SourceGraphic" in2="effect1_dropShadow" result="shape" />
        </filter>
        <filter id="filter1_d" x="42.247" y="23.204" width="95.557" height="99.883" filterUnits="userSpaceOnUse"
            color-interpolation-filters="sRGB">
            <feFlood flood-opacity="0" result="BackgroundImageFix" />
            <feColorMatrix in="SourceAlpha" values="0 0 0 0 0 0 0 0 0 0 0 0 0 0 0 0 0 0 127 0" />
            <feOffset dy="4" />
            <feGaussianBlur stdDeviation="2" />
            <feColorMatrix values="0 0 0 0 0 0 0 0 0 0 0 0 0 0 0 0 0 0 0.25 0" />
            <feBlend in2="BackgroundImageFix" result="effect1_dropShadow" />
            <feBlend in="SourceGraphic" in2="effect1_dropShadow" result="shape" />
        </filter>
        <linearGradient id="paint0_linear" x1="150.526" y1="49.776" x2="36.149" y2="74.572"
            gradientUnits="userSpaceOnUse">
            <stop stop-opacity="0" />
            <stop offset=".771" stop-color="#6AEDFC" />
        </linearGradient>
    </defs>
</svg>