<svg fill="none" height="859" viewBox="0 0 1440 859" width="1440" xmlns="http://www.w3.org/2000/svg" xmlns:xlink="http://www.w3.org/1999/xlink"><filter id="a" color-interpolation-filters="sRGB" filterUnits="userSpaceOnUse" height="486.249" width="399.98" x="706.855" y="466.679"><feFlood flood-opacity="0" result="BackgroundImageFix"/><feColorMatrix in="SourceAlpha" type="matrix" values="0 0 0 0 0 0 0 0 0 0 0 0 0 0 0 0 0 0 127 0"/><feOffset dy="2"/><feGaussianBlur stdDeviation="2"/><feColorMatrix type="matrix" values="0 0 0 0 0 0 0 0 0 0 0 0 0 0 0 0 0 0 0.35 0"/><feBlend in2="BackgroundImageFix" mode="normal" result="effect1_dropShadow"/><feBlend in="SourceGraphic" in2="effect1_dropShadow" mode="normal" result="shape"/></filter><filter id="b" color-interpolation-filters="sRGB" filterUnits="userSpaceOnUse" height="486.249" width="399.98" x="223.899" y="466.679"><feFlood flood-opacity="0" result="BackgroundImageFix"/><feColorMatrix in="SourceAlpha" type="matrix" values="0 0 0 0 0 0 0 0 0 0 0 0 0 0 0 0 0 0 127 0"/><feOffset dy="2"/><feGaussianBlur stdDeviation="2"/><feColorMatrix type="matrix" values="0 0 0 0 0 0 0 0 0 0 0 0 0 0 0 0 0 0 0.35 0"/><feBlend in2="BackgroundImageFix" mode="normal" result="effect1_dropShadow"/><feBlend in="SourceGraphic" in2="effect1_dropShadow" mode="normal" result="shape"/></filter><filter id="c" color-interpolation-filters="sRGB" filterUnits="userSpaceOnUse" height="486.249" width="399.98" x="-259.057" y="466.679"><feFlood flood-opacity="0" result="BackgroundImageFix"/><feColorMatrix in="SourceAlpha" type="matrix" values="0 0 0 0 0 0 0 0 0 0 0 0 0 0 0 0 0 0 127 0"/><feOffset dy="2"/><feGaussianBlur stdDeviation="2"/><feColorMatrix type="matrix" values="0 0 0 0 0 0 0 0 0 0 0 0 0 0 0 0 0 0 0.35 0"/><feBlend in2="BackgroundImageFix" mode="normal" result="effect1_dropShadow"/><feBlend in="SourceGraphic" in2="effect1_dropShadow" mode="normal" result="shape"/></filter><filter id="d" color-interpolation-filters="sRGB" filterUnits="userSpaceOnUse" height="486.249" width="399.98" x="223.899" y="-90.0801"><feFlood flood-opacity="0" result="BackgroundImageFix"/><feColorMatrix in="SourceAlpha" type="matrix" values="0 0 0 0 0 0 0 0 0 0 0 0 0 0 0 0 0 0 127 0"/><feOffset dy="2"/><feGaussianBlur stdDeviation="2"/><feColorMatrix type="matrix" values="0 0 0 0 0 0 0 0 0 0 0 0 0 0 0 0 0 0 0.35 0"/><feBlend in2="BackgroundImageFix" mode="normal" result="effect1_dropShadow"/><feBlend in="SourceGraphic" in2="effect1_dropShadow" mode="normal" result="shape"/></filter><filter id="e" color-interpolation-filters="sRGB" filterUnits="userSpaceOnUse" height="486.249" width="399.98" x="702.971" y="-90.0801"><feFlood flood-opacity="0" result="BackgroundImageFix"/><feColorMatrix in="SourceAlpha" type="matrix" values="0 0 0 0 0 0 0 0 0 0 0 0 0 0 0 0 0 0 127 0"/><feOffset dy="2"/><feGaussianBlur stdDeviation="2"/><feColorMatrix type="matrix" values="0 0 0 0 0 0 0 0 0 0 0 0 0 0 0 0 0 0 0.35 0"/><feBlend in2="BackgroundImageFix" mode="normal" result="effect1_dropShadow"/><feBlend in="SourceGraphic" in2="effect1_dropShadow" mode="normal" result="shape"/></filter><filter id="f" color-interpolation-filters="sRGB" filterUnits="userSpaceOnUse" height="486.249" width="399.98" x="1198.88" y="466.679"><feFlood flood-opacity="0" result="BackgroundImageFix"/><feColorMatrix in="SourceAlpha" type="matrix" values="0 0 0 0 0 0 0 0 0 0 0 0 0 0 0 0 0 0 127 0"/><feOffset dy="2"/><feGaussianBlur stdDeviation="2"/><feColorMatrix type="matrix" values="0 0 0 0 0 0 0 0 0 0 0 0 0 0 0 0 0 0 0.35 0"/><feBlend in2="BackgroundImageFix" mode="normal" result="effect1_dropShadow"/><feBlend in="SourceGraphic" in2="effect1_dropShadow" mode="normal" result="shape"/></filter><filter id="g" color-interpolation-filters="sRGB" filterUnits="userSpaceOnUse" height="486.249" width="399.981" x="1194.99" y="-90.0801"><feFlood flood-opacity="0" result="BackgroundImageFix"/><feColorMatrix in="SourceAlpha" type="matrix" values="0 0 0 0 0 0 0 0 0 0 0 0 0 0 0 0 0 0 127 0"/><feOffset dy="2"/><feGaussianBlur stdDeviation="2"/><feColorMatrix type="matrix" values="0 0 0 0 0 0 0 0 0 0 0 0 0 0 0 0 0 0 0.35 0"/><feBlend in2="BackgroundImageFix" mode="normal" result="effect1_dropShadow"/><feBlend in="SourceGraphic" in2="effect1_dropShadow" mode="normal" result="shape"/></filter><filter id="h" color-interpolation-filters="sRGB" filterUnits="userSpaceOnUse" height="486.249" width="399.98" x="-259.057" y="-90.0801"><feFlood flood-opacity="0" result="BackgroundImageFix"/><feColorMatrix in="SourceAlpha" type="matrix" values="0 0 0 0 0 0 0 0 0 0 0 0 0 0 0 0 0 0 127 0"/><feOffset dy="2"/><feGaussianBlur stdDeviation="2"/><feColorMatrix type="matrix" values="0 0 0 0 0 0 0 0 0 0 0 0 0 0 0 0 0 0 0.35 0"/><feBlend in2="BackgroundImageFix" mode="normal" result="effect1_dropShadow"/><feBlend in="SourceGraphic" in2="effect1_dropShadow" mode="normal" result="shape"/></filter><filter id="i" color-interpolation-filters="sRGB" filterUnits="userSpaceOnUse" height="486.249" width="399.98" x="-259.057" y="-90.0801"><feFlood flood-opacity="0" result="BackgroundImageFix"/><feColorMatrix in="SourceAlpha" type="matrix" values="0 0 0 0 0 0 0 0 0 0 0 0 0 0 0 0 0 0 127 0"/><feOffset dy="2"/><feGaussianBlur stdDeviation="2"/><feColorMatrix type="matrix" values="0 0 0 0 0 0 0 0 0 0 0 0 0 0 0 0 0 0 0.35 0"/><feBlend in2="BackgroundImageFix" mode="normal" result="effect1_dropShadow"/><feBlend in="SourceGraphic" in2="effect1_dropShadow" mode="normal" result="shape"/></filter><g fill="#212121"><g filter="url(#a)"><circle cx="716.3" cy="474.123" r="5.44416"/><circle cx="812.875" cy="474.123" r="5.44416"/><circle cx="905.189" cy="474.123" r="5.44416"/><circle cx="1001.29" cy="474.123" r="5.44416"/><circle cx="1097.39" cy="474.123" r="5.44416"/><circle cx="716.3" cy="569.447" r="5.44416"/><circle cx="812.875" cy="569.447" r="5.44416"/><circle cx="905.189" cy="569.447" r="5.44416"/><circle cx="1001.29" cy="569.447" r="5.44416"/><circle cx="1097.39" cy="569.447" r="5.44416"/><circle cx="716.3" cy="662.048" r="5.44416"/><circle cx="812.875" cy="662.048" r="5.44416"/><circle cx="905.189" cy="662.048" r="5.44416"/><circle cx="1001.29" cy="662.048" r="5.44416"/><circle cx="1097.39" cy="662.048" r="5.44416"/><circle cx="716.3" cy="760.096" r="5.44416"/><circle cx="812.875" cy="760.096" r="5.44416"/><circle cx="905.189" cy="760.096" r="5.44416"/><circle cx="1001.29" cy="760.096" r="5.44416"/><circle cx="1097.39" cy="760.096" r="5.44416"/><circle cx="716.3" cy="760.096" r="5.44416"/><circle cx="812.875" cy="760.096" r="5.44416"/><circle cx="905.189" cy="760.096" r="5.44416"/><circle cx="1001.29" cy="760.096" r="5.44416"/><circle cx="1097.39" cy="760.096" r="5.44416"/><circle cx="716.3" cy="857.054" r="5.44416"/><circle cx="812.875" cy="857.054" r="5.44416"/><circle cx="905.189" cy="857.054" r="5.44416"/><circle cx="1001.29" cy="857.054" r="5.44416"/><circle cx="1097.39" cy="857.054" r="5.44416"/></g><g filter="url(#b)"><circle cx="233.343" cy="474.123" r="5.44416"/><circle cx="329.918" cy="474.123" r="5.44416"/><circle cx="422.232" cy="474.123" r="5.44416"/><circle cx="518.334" cy="474.123" r="5.44416"/><circle cx="614.435" cy="474.123" r="5.44416"/><circle cx="233.343" cy="569.447" r="5.44416"/><circle cx="329.918" cy="569.447" r="5.44416"/><circle cx="422.232" cy="569.447" r="5.44416"/><circle cx="518.334" cy="569.447" r="5.44416"/><circle cx="614.435" cy="569.447" r="5.44416"/><circle cx="233.343" cy="662.048" r="5.44416"/><circle cx="329.918" cy="662.048" r="5.44416"/><circle cx="422.232" cy="662.048" r="5.44416"/><circle cx="518.334" cy="662.048" r="5.44416"/><circle cx="614.435" cy="662.048" r="5.44416"/><circle cx="233.343" cy="760.096" r="5.44416"/><circle cx="329.918" cy="760.096" r="5.44416"/><circle cx="422.232" cy="760.096" r="5.44416"/><circle cx="518.334" cy="760.096" r="5.44416"/><circle cx="614.435" cy="760.096" r="5.44416"/><circle cx="233.343" cy="760.096" r="5.44416"/><circle cx="329.918" cy="760.096" r="5.44416"/><circle cx="422.232" cy="760.096" r="5.44416"/><circle cx="518.334" cy="760.096" r="5.44416"/><circle cx="614.435" cy="760.096" r="5.44416"/><circle cx="233.343" cy="857.054" r="5.44416"/><circle cx="329.918" cy="857.054" r="5.44416"/><circle cx="422.232" cy="857.054" r="5.44416"/><circle cx="518.334" cy="857.054" r="5.44416"/><circle cx="614.435" cy="857.054" r="5.44416"/></g><g filter="url(#c)"><circle cx="35.3775" cy="474.123" r="5.44416"/><circle cx="131.479" cy="474.123" r="5.44416"/><circle cx="35.3775" cy="569.447" r="5.44416"/><circle cx="131.479" cy="569.447" r="5.44416"/><circle cx="35.3775" cy="662.048" r="5.44416"/><circle cx="131.479" cy="662.048" r="5.44416"/><circle cx="35.3775" cy="760.096" r="5.44416"/><circle cx="131.479" cy="760.096" r="5.44416"/><circle cx="35.3775" cy="760.096" r="5.44416"/><circle cx="131.479" cy="760.096" r="5.44416"/><circle cx="35.3775" cy="857.054" r="5.44416"/><circle cx="131.479" cy="857.054" r="5.44416"/></g><g filter="url(#d)"><circle cx="233.343" cy="12.6883" r="5.44416"/><circle cx="329.918" cy="12.6883" r="5.44416"/><circle cx="422.232" cy="12.6883" r="5.44416"/><circle cx="518.334" cy="12.6883" r="5.44416"/><circle cx="614.435" cy="12.6883" r="5.44416"/><circle cx="233.343" cy="105.289" r="5.44416"/><circle cx="329.918" cy="105.289" r="5.44416"/><circle cx="422.232" cy="105.289" r="5.44416"/><circle cx="518.334" cy="105.289" r="5.44416"/><circle cx="614.435" cy="105.289" r="5.44416"/><circle cx="233.343" cy="203.336" r="5.44416"/><circle cx="329.918" cy="203.336" r="5.44416"/><circle cx="422.232" cy="203.336" r="5.44416"/><circle cx="518.334" cy="203.336" r="5.44416"/><circle cx="614.435" cy="203.336" r="5.44416"/><circle cx="233.343" cy="203.336" r="5.44416"/><circle cx="329.918" cy="203.336" r="5.44416"/><circle cx="422.232" cy="203.336" r="5.44416"/><circle cx="518.334" cy="203.336" r="5.44416"/><circle cx="614.435" cy="203.336" r="5.44416"/><circle cx="233.343" cy="300.295" r="5.44416"/><circle cx="329.918" cy="300.295" r="5.44416"/><circle cx="422.232" cy="300.295" r="5.44416"/><circle cx="518.334" cy="300.295" r="5.44416"/><circle cx="614.435" cy="300.295" r="5.44416"/><circle cx="233.343" cy="384.725" r="5.44416"/><circle cx="329.918" cy="384.725" r="5.44416"/><circle cx="422.232" cy="384.725" r="5.44416"/><circle cx="518.334" cy="384.725" r="5.44416"/><circle cx="614.435" cy="384.725" r="5.44416"/></g><g filter="url(#e)"><circle cx="712.415" cy="12.6883" r="5.44416"/><circle cx="808.99" cy="12.6883" r="5.44416"/><circle cx="901.304" cy="12.6883" r="5.44416"/><circle cx="997.405" cy="12.6883" r="5.44416"/><circle cx="1093.51" cy="12.6883" r="5.44416"/><circle cx="712.415" cy="105.289" r="5.44416"/><circle cx="808.99" cy="105.289" r="5.44416"/><circle cx="712.415" cy="203.336" r="5.44416"/><circle cx="808.99" cy="203.336" r="5.44416"/><circle cx="712.415" cy="203.336" r="5.44416"/><circle cx="808.99" cy="203.336" r="5.44416"/><circle cx="712.415" cy="300.295" r="5.44416"/><circle cx="808.99" cy="300.295" r="5.44416"/><circle cx="712.415" cy="384.725" r="5.44416"/><circle cx="808.99" cy="384.725" r="5.44416"/><circle cx="901.304" cy="384.725" r="5.44416"/></g><g filter="url(#f)"><circle cx="1208.32" cy="474.123" r="5.44416"/><circle cx="1304.89" cy="474.123" r="5.44416"/><circle cx="1397.21" cy="474.123" r="5.44416"/><circle cx="1208.32" cy="569.447" r="5.44416"/><circle cx="1304.89" cy="569.447" r="5.44416"/><circle cx="1397.21" cy="569.447" r="5.44416"/><circle cx="1208.32" cy="662.048" r="5.44416"/><circle cx="1304.89" cy="662.048" r="5.44416"/><circle cx="1397.21" cy="662.048" r="5.44416"/><circle cx="1208.32" cy="760.096" r="5.44416"/><circle cx="1304.89" cy="760.096" r="5.44416"/><circle cx="1397.21" cy="760.096" r="5.44416"/><circle cx="1208.32" cy="760.096" r="5.44416"/><circle cx="1304.89" cy="760.096" r="5.44416"/><circle cx="1397.21" cy="760.096" r="5.44416"/><circle cx="1208.32" cy="857.054" r="5.44416"/><circle cx="1304.89" cy="857.054" r="5.44416"/><circle cx="1397.21" cy="857.054" r="5.44416"/></g><g filter="url(#g)"><circle cx="1204.43" cy="12.6883" r="5.44416"/><circle cx="1301.01" cy="12.6883" r="5.44416"/><circle cx="1393.32" cy="12.6883" r="5.44416"/><circle cx="1204.43" cy="105.289" r="5.44416"/><circle cx="1301.01" cy="105.289" r="5.44416"/><circle cx="1393.32" cy="105.289" r="5.44416"/><circle cx="1204.43" cy="203.336" r="5.44416"/><circle cx="1301.01" cy="203.336" r="5.44416"/><circle cx="1393.32" cy="203.336" r="5.44416"/><circle cx="1301.01" cy="203.336" r="5.44416"/><circle cx="1393.32" cy="203.336" r="5.44416"/><circle cx="1301.01" cy="300.295" r="5.44416"/><circle cx="1393.32" cy="300.295" r="5.44416"/><circle cx="1301.01" cy="384.725" r="5.44416"/><circle cx="1393.32" cy="384.725" r="5.44416"/></g><g filter="url(#h)"><circle cx="35.3775" cy="12.6883" r="5.44416"/><circle cx="131.479" cy="12.6883" r="5.44416"/><circle cx="35.3775" cy="105.289" r="5.44416"/><circle cx="131.479" cy="105.289" r="5.44416"/><circle cx="35.3775" cy="203.336" r="5.44416"/><circle cx="131.479" cy="203.336" r="5.44416"/><circle cx="35.3775" cy="203.336" r="5.44416"/><circle cx="131.479" cy="203.336" r="5.44416"/><circle cx="35.3775" cy="300.295" r="5.44416"/><circle cx="131.479" cy="300.295" r="5.44416"/><circle cx="35.3775" cy="384.725" r="5.44416"/><circle cx="131.479" cy="384.725" r="5.44416"/></g><g filter="url(#i)"><circle cx="35.3775" cy="12.6883" r="5.44416"/><circle cx="131.479" cy="12.6883" r="5.44416"/><circle cx="35.3775" cy="105.289" r="5.44416"/><circle cx="131.479" cy="105.289" r="5.44416"/><circle cx="35.3775" cy="203.336" r="5.44416"/><circle cx="131.479" cy="203.336" r="5.44416"/><circle cx="35.3775" cy="203.336" r="5.44416"/><circle cx="131.479" cy="203.336" r="5.44416"/><circle cx="35.3775" cy="300.295" r="5.44416"/><circle cx="131.479" cy="300.295" r="5.44416"/><circle cx="35.3775" cy="384.725" r="5.44416"/><circle cx="131.479" cy="384.725" r="5.44416"/></g></g></svg>