<svg width="25" height="18" viewBox="0 0 25 18" fill="none" xmlns="http://www.w3.org/2000/svg">
<path d="M20.0344 13.6647C19.9392 13.6647 19.844 13.6299 19.7697 13.5595L15.3167 9.382C15.1612 9.23651 15.1534 8.99119 15.2997 8.83563C15.4459 8.67853 15.6897 8.67157 15.8468 8.81861L20.2998 12.9961C20.4554 13.1416 20.4631 13.3869 20.3168 13.5425C20.2402 13.6237 20.1381 13.6647 20.0344 13.6647Z" fill="white"/>
<path d="M5.17029 13.6648C5.06736 13.6648 4.96443 13.6238 4.88782 13.5426C4.74155 13.387 4.74929 13.1417 4.90484 12.9962L9.35938 8.8187C9.5157 8.67321 9.76103 8.6794 9.90652 8.83573C10.0528 8.99128 10.045 9.23661 9.8895 9.3821L5.43496 13.5596C5.36067 13.63 5.26548 13.6648 5.17029 13.6648Z" fill="white"/>
<path d="M22.668 17.5489H2.53752C1.47109 17.5489 0.602783 16.6813 0.602783 15.6141V2.42155C0.602783 1.35435 1.47109 0.486816 2.53752 0.486816H22.668C23.7345 0.486816 24.6028 1.35435 24.6028 2.42155V15.6141C24.6028 16.6813 23.7345 17.5489 22.668 17.5489ZM2.53752 1.26071C1.89751 1.26071 1.37668 1.78154 1.37668 2.42155V15.6141C1.37668 16.2541 1.89751 16.775 2.53752 16.775H22.668C23.3081 16.775 23.8289 16.2541 23.8289 15.6141V2.42155C23.8289 1.78154 23.3081 1.26071 22.668 1.26071H2.53752Z" fill="white"/>
<path d="M12.6028 10.9623C12.0881 10.9623 11.5735 10.7913 11.1819 10.45L1.2451 1.78161C1.08413 1.64154 1.0671 1.39699 1.20718 1.23524C1.3488 1.07427 1.59257 1.05957 1.75354 1.19809L11.6903 9.86571C12.1849 10.2968 13.0207 10.2968 13.5144 9.86571L23.4388 1.21202C23.599 1.07195 23.8428 1.08743 23.9852 1.24917C24.1253 1.41092 24.109 1.65469 23.9481 1.79554L14.0236 10.4492C13.6313 10.7913 13.1174 10.9623 12.6028 10.9623Z" fill="white"/>
</svg>
