<svg width="25" height="25" viewBox="0 0 25 25" fill="none" xmlns="http://www.w3.org/2000/svg">
<g clip-path="url(#clip0)">
<path d="M0.852783 12.5815C0.852783 6.09191 6.11315 0.831543 12.6028 0.831543C19.0924 0.831543 24.3528 6.09191 24.3528 12.5815C24.3528 19.0712 19.0924 24.3315 12.6028 24.3315C6.11315 24.3315 0.852783 19.0712 0.852783 12.5815ZM2.22778 12.5815C2.22778 18.3117 6.87267 22.9565 12.6028 22.9565C18.3329 22.9565 22.9778 18.3117 22.9778 12.5815C22.9778 6.85143 18.3329 2.20654 12.6028 2.20654C6.87267 2.20654 2.22778 6.85143 2.22778 12.5815Z" fill="white" stroke="#313131" stroke-width="0.5"/>
<path d="M13.113 18.3315H11.5352V18.3269V18.3213V18.3157V18.3101V18.3043V18.2986V18.2927V18.2868V18.2809V18.2749V18.2688V18.2627V18.2566V18.2504V18.2441V18.2378V18.2314V18.225V18.2185V18.212V18.2054V18.1987V18.1921V18.1853V18.1785V18.1717V18.1648V18.1578V18.1508V18.1438V18.1367V18.1295V18.1223V18.115V18.1077V18.1004V18.093V18.0855V18.078V18.0704V18.0628V18.0551V18.0474V18.0397V18.0319V18.024V18.0161V18.0081V18.0001V17.9921V17.984V17.9758V17.9676V17.9594V17.9511V17.9428V17.9344V17.9259V17.9174V17.9089V17.9003V17.8917V17.883V17.8743V17.8656V17.8567V17.8479V17.839V17.83V17.821V17.812V17.8029V17.7938V17.7846V17.7754V17.7661V17.7568V17.7475V17.7381V17.7286V17.7191V17.7096V17.7V17.6904V17.6808V17.6711V17.6613V17.6515V17.6417V17.6318V17.6219V17.6119V17.6019V17.5919V17.5818V17.5717V17.5615V17.5513V17.541V17.5307V17.5204V17.51V17.4996V17.4892V17.4787V17.4681V17.4575V17.4469V17.4363V17.4256V17.4148V17.404V17.3932V17.3824V17.3715V17.3605V17.3496V17.3385V17.3275V17.3164V17.3053V17.2941V17.2829V17.2717V17.2604V17.2491V17.2377V17.2263V17.2149V17.2034V17.1919V17.1804V17.1688V17.1572V17.1456V17.1339V17.1222V17.1104V17.0986V17.0868V17.075V17.0631V17.0511V17.0392V17.0272V17.0151V17.0031V16.991V16.9788V16.9667V16.9545V16.9422V16.93V16.9177V16.9053V16.8929V16.8805V16.8681V16.8556V16.8431V16.8306V16.818V16.8054V16.7928V16.7802V16.7675V16.7547V16.742V16.7292V16.7164V16.7035V16.6907V16.6777V16.6648V16.6518V16.6388V16.6258V16.6127V16.5997V16.5865V16.5734V16.5602V16.547V16.5338V16.5205V16.5072V16.4939V16.4805V16.4672V16.4538V16.4403V16.4269V16.4134V16.3999V16.3863V16.3727V16.3591V16.3455V16.3319V16.3182V16.3045V16.2908V16.277V16.2632V16.2494V16.2356V16.2217V16.2078V16.1939V16.18V16.166V16.152V16.138V16.124V16.1099V16.0958V16.0817V16.0676V16.0535V16.0393V16.0251V16.0108V15.9966V15.9823V15.968V15.9537V15.9394V15.925V15.9106V15.8962V15.8818V15.8673V15.8529V15.8384V15.8239V15.8093V15.7948V15.7802V15.7656V15.751V15.7363V15.7217V15.707V15.6923V15.6775V15.6628V15.648V15.6333V15.6185V15.6036V15.5888V15.5739V15.5591V15.5442V15.5293V15.5143V15.4994V15.4844V15.4694V15.4544V15.4394V15.4243V15.4093V15.3942V15.3791V15.364V15.3489V15.3337V15.3186V15.3034V15.2882V15.273V15.2578V15.2426V15.2273V15.212V15.1968V15.1815V15.1661V15.1508V15.1355V15.1201V15.1047V15.0893V15.0739V15.0585V15.0431V15.0277V15.0122V14.9967V14.9812V14.9657V14.9502V14.9347V14.9192V14.9036V14.8881V14.8725V14.8569V14.8413V14.8257V14.8101V14.7945V14.7788V14.7632V14.7475V14.7318V14.7161V14.7005V14.6847V14.669V14.6533V14.6376V14.6218V14.6061V14.5903V14.5745V14.5587V14.5429V14.5271V14.5113V14.4955V14.4797V14.4638V14.448V14.4321V14.4163V14.4004V14.3845V14.3686V14.3527V14.3368V14.3209V14.305V14.2891V14.2732V14.2572V14.2413V14.2254V14.2094V14.1934V14.1775V14.1615V14.1455V14.1296V14.1136V14.0976V14.0816V14.0656V14.0496V14.0336V14.0176V14.0015V13.9855V13.9695V13.9535V13.9374V13.9214V13.9054V13.8893V13.8733V13.8572V13.8412V13.8251V13.8091V13.793V13.7769V13.7609V13.7448V13.7287V13.7127V13.6966V13.6805V13.6645V13.6484V13.6323V13.6163V13.6002V13.5841V13.568V13.552V13.5359V13.5198V13.5037V13.4877V13.4716V13.4555V13.4394V13.4234V13.4073V13.3912V13.3752V13.3591V13.3431V13.327V13.3109V13.2949V13.2788V13.2628V13.2467V13.2307V13.2146V13.1986V13.1826V13.1665V13.1505V13.1345V13.1185V13.1024V13.0864V13.0704V13.0544V13.0384V13.0224V13.0064V12.9905V12.9745V12.9585V12.9425V12.9266V12.9106V12.8947V12.8787V12.8628V12.6128H11.2852H10.0051V10.9947H11.2852H11.5352V10.7447V9.09742C11.5352 8.63987 11.6483 8.07061 11.9886 7.62197C12.3196 7.18555 12.8891 6.8317 13.8744 6.83154C13.8746 6.83154 13.8748 6.83154 13.875 6.83154L15.1705 6.8383V8.3955H15.1704H15.1675H15.1646H15.1617H15.1588H15.1558H15.1529H15.1499H15.1469H15.1439H15.1409H15.1379H15.1349H15.1319H15.1288H15.1258H15.1227H15.1197H15.1166H15.1135H15.1104H15.1073H15.1042H15.101H15.0979H15.0947H15.0916H15.0884H15.0852H15.082H15.0788H15.0756H15.0724H15.0692H15.0659H15.0627H15.0594H15.0562H15.0529H15.0496H15.0464H15.0431H15.0398H15.0365H15.0331H15.0298H15.0265H15.0231H15.0198H15.0164H15.0131H15.0097H15.0063H15.0029H14.9995H14.9961H14.9927H14.9893H14.9859H14.9825H14.9791H14.9756H14.9722H14.9687H14.9653H14.9618H14.9583H14.9549H14.9514H14.9479H14.9444H14.9409H14.9374H14.9339H14.9304H14.9269H14.9233H14.9198H14.9163H14.9128H14.9092H14.9057H14.9021H14.8986H14.895H14.8914H14.8879H14.8843H14.8807H14.8771H14.8736H14.87H14.8664H14.8628H14.8592H14.8556H14.852H14.8484H14.8448H14.8412H14.8375H14.8339H14.8303H14.8267H14.8231H14.8194H14.8158H14.8122H14.8085H14.8049H14.8012H14.7976H14.794H14.7903H14.7867H14.783H14.7794H14.7757H14.7721H14.7684H14.7648H14.7611H14.7575H14.7538H14.7502H14.7465H14.7428H14.7392H14.7355H14.7319H14.7282H14.7245H14.7209H14.7172H14.7136H14.7099H14.7063H14.7026H14.6989H14.6953H14.6916H14.688H14.6843H14.6807H14.677H14.6734H14.6697H14.6661H14.6624H14.6588H14.6551H14.6515H14.6479H14.6442H14.6406H14.637H14.6333H14.6297H14.6261H14.6225H14.6188H14.6152H14.6116H14.608H14.6044H14.6008H14.5972H14.5936H14.59H14.5864H14.5828H14.5792H14.5756H14.5721H14.5685H14.5649H14.5613H14.5578H14.5542H14.5507H14.5471H14.5436H14.54H14.5365H14.533H14.5294H14.5259H14.5224H14.5189H14.5154H14.5119H14.5084H14.5049H14.5014H14.4979H14.4945H14.491H14.4875H14.4841H14.4806H14.4772H14.4738H14.4703H14.4669H14.4635H14.4601H14.4567H14.4533H14.4499H14.4465H14.4431H14.4398H14.4364H14.4331H14.4297H14.4264H14.423H14.4197H14.4164H14.4131H14.4098H14.4065H14.4032H14.4H14.3967H14.3934H14.3902H14.3869H14.3837H14.3805H14.3773H14.3741H14.3709H14.3677H14.3645H14.3613H14.3582H14.355H14.3519H14.3488H14.3456H14.3425H14.3394H14.3364H14.3333H14.3302H14.3271H14.3241H14.3211H14.318H14.315H14.312H14.309H14.306H14.3031H14.3001H14.2972H14.2942H14.2913H14.2884H14.2855H14.2826H14.2797H14.2768H14.274H14.2711H14.2683H14.2655H14.2627H14.2599H14.2571H14.2543H14.2516H14.2488H14.2461H14.2434H14.2407H14.238H14.2353H14.2326H14.23H14.2273H14.2247H14.2221H14.2195H14.2169H14.2144H14.2118H14.2093H14.2067H14.2042H14.2017H14.1992H14.1968H14.1943H14.1919H14.1895H14.187H14.1847H14.1823H14.1799H14.1776H14.1752H14.1729H14.1706H14.1683H14.1661H14.1638H14.1616H14.1593H14.1571H14.1549H14.1528H14.1506H14.1485H14.1463H14.1442H14.1422H14.1401H14.138H14.136H14.134H14.132H14.13H14.128H14.126H14.1241H14.1222H14.1203H14.1184H14.1165H14.1147H14.1129H14.1111H14.1093H14.1075H14.1057H14.104H14.1023H14.1006H14.0989H14.0973H14.0956H14.094H14.0924H14.0908H14.0892H14.0877H14.0862H14.0847H14.0832H14.0817H14.0803H14.0789H14.0774H14.0761H14.0747H14.0734H14.072C13.9294 8.3955 13.7059 8.42803 13.5085 8.54125C13.2981 8.66195 13.113 8.8806 13.113 9.22117V10.7446V10.9946H13.363H15.1595L14.9133 12.6128H13.363H13.113V12.8628V12.8786V12.8943V12.9101V12.9259V12.9417V12.9575V12.9733V12.9891V13.0049V13.0207V13.0365V13.0524V13.0682V13.084V13.0999V13.1158V13.1316V13.1475V13.1634V13.1792V13.1951V13.211V13.2269V13.2428V13.2587V13.2746V13.2905V13.3064V13.3223V13.3383V13.3542V13.3701V13.386V13.402V13.4179V13.4338V13.4498V13.4657V13.4817V13.4976V13.5135V13.5295V13.5454V13.5614V13.5773V13.5933V13.6093V13.6252V13.6412V13.6571V13.6731V13.689V13.705V13.721V13.7369V13.7529V13.7688V13.7848V13.8007V13.8167V13.8326V13.8486V13.8645V13.8805V13.8964V13.9124V13.9283V13.9442V13.9602V13.9761V13.992V14.008V14.0239V14.0398V14.0557V14.0716V14.0876V14.1035V14.1194V14.1353V14.1512V14.167V14.1829V14.1988V14.2147V14.2306V14.2464V14.2623V14.2781V14.294V14.3098V14.3257V14.3415V14.3573V14.3732V14.389V14.4048V14.4206V14.4364V14.4521V14.4679V14.4837V14.4995V14.5152V14.531V14.5467V14.5624V14.5782V14.5939V14.6096V14.6253V14.641V14.6566V14.6723V14.688V14.7036V14.7193V14.7349V14.7505V14.7661V14.7817V14.7973V14.8129V14.8285V14.844V14.8596V14.8751V14.8906V14.9062V14.9217V14.9372V14.9526V14.9681V14.9835V14.999V15.0144V15.0298V15.0452V15.0606V15.076V15.0914V15.1067V15.1221V15.1374V15.1527V15.168V15.1833V15.1985V15.2138V15.229V15.2443V15.2595V15.2747V15.2898V15.305V15.3201V15.3353V15.3504V15.3655V15.3806V15.3956V15.4107V15.4257V15.4407V15.4557V15.4707V15.4857V15.5006V15.5156V15.5305V15.5454V15.5603V15.5751V15.59V15.6048V15.6196V15.6344V15.6491V15.6639V15.6786V15.6933V15.708V15.7227V15.7373V15.752V15.7666V15.7812V15.7957V15.8103V15.8248V15.8393V15.8538V15.8683V15.8827V15.8971V15.9115V15.9259V15.9403V15.9546V15.9689V15.9832V15.9975V16.0117V16.026V16.0402V16.0543V16.0685V16.0826V16.0967V16.1108V16.1249V16.1389V16.1529V16.1669V16.1809V16.1948V16.2087V16.2226V16.2365V16.2503V16.2641V16.2779V16.2917V16.3054V16.3191V16.3328V16.3465V16.3601V16.3737V16.3873V16.4008V16.4143V16.4278V16.4413V16.4548V16.4682V16.4816V16.4949V16.5082V16.5215V16.5348V16.5481V16.5613V16.5745V16.5876V16.6008V16.6139V16.6269V16.64V16.653V16.666V16.6789V16.6918V16.7047V16.7176V16.7304V16.7432V16.756V16.7687V16.7814V16.7941V16.8068V16.8194V16.832V16.8445V16.857V16.8695V16.882V16.8944V16.9068V16.9191V16.9314V16.9437V16.956V16.9682V16.9804V16.9925V17.0047V17.0167V17.0288V17.0408V17.0528V17.0647V17.0767V17.0885V17.1004V17.1122V17.124V17.1357V17.1474V17.1591V17.1707V17.1823V17.1938V17.2054V17.2168V17.2283V17.2397V17.2511V17.2624V17.2737V17.285V17.2962V17.3074V17.3185V17.3296V17.3407V17.3517V17.3627V17.3737V17.3846V17.3954V17.4063V17.4171V17.4278V17.4386V17.4492V17.4599V17.4705V17.481V17.4915V17.502V17.5125V17.5229V17.5332V17.5435V17.5538V17.564V17.5742V17.5844V17.5945V17.6045V17.6145V17.6245V17.6345V17.6444V17.6542V17.664V17.6738V17.6835V17.6932V17.7028V17.7124V17.7219V17.7315V17.7409V17.7503V17.7597V17.769V17.7783V17.7875V17.7967V17.8059V17.815V17.824V17.833V17.842V17.8509V17.8598V17.8686V17.8774V17.8861V17.8948V17.9034V17.912V17.9206V17.9291V17.9375V17.9459V17.9543V17.9626V17.9708V17.979V17.9872V17.9953V18.0034V18.0114V18.0193V18.0273V18.0351V18.0429V18.0507V18.0584V18.0661V18.0737V18.0813V18.0888V18.0963V18.1037V18.111V18.1183V18.1256V18.1328V18.14V18.1471V18.1541V18.1612V18.1681V18.175V18.1819V18.1887V18.1954V18.2021V18.2087V18.2153V18.2218V18.2283V18.2347V18.2411V18.2474V18.2537V18.2599V18.2661V18.2722V18.2782V18.2842V18.2901V18.296V18.3018V18.3076V18.3133V18.319V18.3246V18.3301V18.3315Z" fill="white" stroke="#313131" stroke-width="0.5"/>
</g>
<defs>
<clipPath id="clip0">
<rect width="24" height="24" fill="white" transform="translate(0.602783 0.581543)"/>
</clipPath>
</defs>
</svg>
