<svg viewBox="0 0 558 644" fill="none" xmlns="http://www.w3.org/2000/svg">
    <g filter="url(#filter0_d)" stroke="#1D1D1D" stroke-width="10" stroke-linecap="round">
        <path d="M9.5174 229.188C48.7378 131.846 193.522 -46.394 458.898 19.3827">
            <animate id="p0" attributeName="stroke" begin="ph0.mouseenter" values="#1D1D1D; #20D2C8; #1D1D1D" dur="1s" repeatCount="1" fill="freeze" calcMode="linear" />
        </path>
        <path d="M121.508 155.473C181.52 82.2299 353.428 -25.697 560.965 128.538">
            <animate id="p1" attributeName="stroke" begin="ph1.mouseenter" values="#1D1D1D; #20D2C8; #1D1D1D" dur="1s" repeatCount="1" fill="freeze" calcMode="linear" />
        </path>
        <path d="M55.2222 534.233C30.2472 462.023 -2.43736 298.383 66.6238 221.503">
            <animate id="p2" attributeName="stroke" begin="ph2.mouseenter" values="#1D1D1D; #20D2C8; #1D1D1D" dur="1s" repeatCount="1" fill="freeze" calcMode="linear" />
        </path>
        <path d="M72.452 384.089C71.9753 287.796 129.37 96.0684 362.76 99.5007" >
            <animate id="p3" attributeName="stroke" begin="ph3.mouseenter" values="#1D1D1D; #20D2C8; #1D1D1D" dur="1s" repeatCount="1" fill="freeze" calcMode="linear" />
        </path>
        <path d="M427.114 103.791C492.422 119.045 626.183 194.745 638.768 375.508" >
            <animate id="p4" attributeName="stroke" begin="ph4.mouseenter" values="#1D1D1D; #20D2C8; #1D1D1D" dur="1s" repeatCount="1" fill="freeze" calcMode="linear" />
        </path>
        <path d="M117.255 580.754C103.552 552.874 76.7118 486.341 78.98 443.246" >
            <animate id="p5" attributeName="stroke" begin="ph5.mouseenter" values="#1D1D1D; #20D2C8; #1D1D1D" dur="1s" repeatCount="1" fill="freeze" calcMode="linear" />
        </path>
        <path d="M188.289 218.198C207.834 190.55 261.947 142.403 349.889 142.403C453.104 142.403 562.973 192.456 587.284 374.078" >
            <animate id="p6" attributeName="stroke" begin="ph6.mouseenter" values="#1D1D1D; #20D2C8; #1D1D1D" dur="1s" repeatCount="1" fill="freeze" calcMode="linear" />
        </path>
        <path d="M183.999 604.322C145.863 541.875 85.0369 388.379 146.817 273.972" >
            <animate id="p7" attributeName="stroke" begin="ph7.mouseenter" values="#1D1D1D; #20D2C8; #1D1D1D" dur="1s" repeatCount="1" fill="freeze" calcMode="linear" />
        </path>
        <path d="M184.268 497.768C173.696 451.636 160.241 345.534 190.995 290.176C221.75 234.818 281.977 205.601 308.246 197.913" >
            <animate id="p8" attributeName="stroke" begin="ph8.mouseenter" values="#1D1D1D; #20D2C8; #1D1D1D" dur="1s" repeatCount="1" fill="freeze" calcMode="linear" />
        </path>
        <path d="M348.612 189.263C370.716 187.341 421.653 190.224 448.563 217.134" >
            <animate id="p9" attributeName="stroke" begin="ph9.mouseenter" values="#1D1D1D; #20D2C8; #1D1D1D" dur="1s" repeatCount="1" fill="freeze" calcMode="linear" />
        </path>
        <path d="M511.994 279.604C522.566 286.652 543.71 307.667 543.71 335.346C543.71 369.945 541.787 420.882 567.737 422.804" >
            <animate id="p10" attributeName="stroke" begin="ph10.mouseenter" values="#1D1D1D; #20D2C8; #1D1D1D" dur="1s" repeatCount="1" fill="freeze" calcMode="linear" />
        </path>
        <path d="M254.437 629.945C208.358 570.536 209.203 554.854 203.007 534.309" >
            <animate id="p11" attributeName="stroke" begin="ph11.mouseenter" values="#1D1D1D; #20D2C8; #1D1D1D" dur="1s" repeatCount="1" fill="freeze" calcMode="linear" />
        </path>
        <path d="M251.543 280.565C269.803 260.383 323.624 224.054 392.821 240.2C479.318 260.383 493.734 350.724 495.656 369.945C497.578 389.167 501.422 442.026 532.177 457.403C556.78 469.705 584.716 469.576 595.608 467.975" >
            <animate id="p12" attributeName="stroke" begin="ph12.mouseenter" values="#1D1D1D; #20D2C8; #1D1D1D" dur="1s" repeatCount="1" fill="freeze" calcMode="linear" />
        </path>
        <path d="M324.585 645.774C277.172 594.196 189.65 459.133 218.866 331.502" >
            <animate id="p13" attributeName="stroke" begin="ph13.mouseenter" values="#1D1D1D; #20D2C8; #1D1D1D" dur="1s" repeatCount="1" fill="freeze" calcMode="linear" />
        </path>
        <path d="M388.015 647.696C339.321 596.438 245.584 472.396 260.193 386.283C274.801 300.171 326.507 282.487 350.534 284.409" >
            <animate id="p14" attributeName="stroke" begin="ph14.mouseenter" values="#1D1D1D; #20D2C8; #1D1D1D" dur="1s" repeatCount="1" fill="freeze" calcMode="linear" />
        </path>
        <path d="M596.569 517.951C560.689 519.232 484.892 509.493 468.746 460.286C448.563 398.777 465.863 324.775 432.225 316.125" >
            <animate id="p15" attributeName="stroke" begin="ph15.mouseenter" values="#1D1D1D; #20D2C8; #1D1D1D" dur="1s" repeatCount="1" fill="freeze" calcMode="linear" />
        </path>
        <path d="M568.698 560.238C526.09 556.714 436.646 533.904 419.731 470.858C398.587 392.05 415.887 345.918 372.638 331.502C329.39 317.086 304.402 350.724 303.441 393.011C302.672 426.841 311.45 459.005 315.935 470.858" >
            <animate id="p16" attributeName="stroke" begin="ph16.mouseenter" values="#1D1D1D; #20D2C8; #1D1D1D" dur="1s" repeatCount="1" fill="freeze" calcMode="linear" />
        </path>
        <path d="M461.057 634.241C430.623 618.543 364.758 574.077 344.767 521.795" >
            <animate id="p17" attributeName="stroke" begin="ph17.mouseenter" values="#1D1D1D; #20D2C8; #1D1D1D" dur="1s" repeatCount="1" fill="freeze" calcMode="linear" />
        </path>
        <path d="M351.495 373.789C352.456 406.145 364.565 482.967 405.315 531.406" >
            <animate id="p18" attributeName="stroke" begin="ph18.mouseenter" values="#1D1D1D; #20D2C8; #1D1D1D" dur="1s" repeatCount="1" fill="freeze" calcMode="linear" />
        </path>
        <path d="M432.225 561.199C445.68 574.334 481.816 600.987 518.722 602.525" >
            <animate id="p19" attributeName="stroke" begin="ph19.mouseenter" values="#1D1D1D; #20D2C8; #1D1D1D" dur="1s" repeatCount="1" fill="freeze" calcMode="linear" />
        </path>
    </g>
    <g stroke="transparent" stroke-width="200" stroke-linecap="round">
        <path id="ph0" d="M9.5174 229.188C48.7378 131.846 193.522 -46.394 458.898 19.3827" />
        <path id="ph1" d="M121.508 155.473C181.52 82.2299 353.428 -25.697 560.965 128.538" />
        <path id="ph2" d="M55.2222 534.233C30.2472 462.023 -2.43736 298.383 66.6238 221.503" />
        <path id="ph3" d="M72.452 384.089C71.9753 287.796 129.37 96.0684 362.76 99.5007"  />
        <path id="ph4" d="M427.114 103.791C492.422 119.045 626.183 194.745 638.768 375.508"  />
        <path id="ph5" d="M117.255 580.754C103.552 552.874 76.7118 486.341 78.98 443.246"  />
        <path id="ph6" d="M188.289 218.198C207.834 190.55 261.947 142.403 349.889 142.403C453.104 142.403 562.973 192.456 587.284 374.078"  />
        <path id="ph7" d="M183.999 604.322C145.863 541.875 85.0369 388.379 146.817 273.972"  />
        <path id="ph8" d="M184.268 497.768C173.696 451.636 160.241 345.534 190.995 290.176C221.75 234.818 281.977 205.601 308.246 197.913"  />
        <path id="ph9" d="M348.612 189.263C370.716 187.341 421.653 190.224 448.563 217.134"  />
        <path id="ph10" d="M511.994 279.604C522.566 286.652 543.71 307.667 543.71 335.346C543.71 369.945 541.787 420.882 567.737 422.804"  />
        <path id="ph11" d="M254.437 629.945C208.358 570.536 209.203 554.854 203.007 534.309"  />
        <path id="ph12" d="M251.543 280.565C269.803 260.383 323.624 224.054 392.821 240.2C479.318 260.383 493.734 350.724 495.656 369.945C497.578 389.167 501.422 442.026 532.177 457.403C556.78 469.705 584.716 469.576 595.608 467.975"  />
        <path id="ph13" d="M324.585 645.774C277.172 594.196 189.65 459.133 218.866 331.502"  />
        <path id="ph14" d="M388.015 647.696C339.321 596.438 245.584 472.396 260.193 386.283C274.801 300.171 326.507 282.487 350.534 284.409"  />
        <path id="ph15" d="M596.569 517.951C560.689 519.232 484.892 509.493 468.746 460.286C448.563 398.777 465.863 324.775 432.225 316.125"  />
        <path id="ph16" d="M568.698 560.238C526.09 556.714 436.646 533.904 419.731 470.858C398.587 392.05 415.887 345.918 372.638 331.502C329.39 317.086 304.402 350.724 303.441 393.011C302.672 426.841 311.45 459.005 315.935 470.858"  />
        <path id="ph17" d="M461.057 634.241C430.623 618.543 364.758 574.077 344.767 521.795"  />
        <path id="ph18" d="M351.495 373.789C352.456 406.145 364.565 482.967 405.315 531.406"  />
        <path id="ph19" d="M432.225 561.199C445.68 574.334 481.816 600.987 518.722 602.525"  />
    </g>
    <defs>
        <filter id="filter0_d" x="0.516068" y="0.157639" width="647.252" height="660.538" filterUnits="userSpaceOnUse" color-interpolation-filters="sRGB">
            <feFlood flood-opacity="0" result="BackgroundImageFix" />
            <feColorMatrix in="SourceAlpha" type="matrix" values="0 0 0 0 0 0 0 0 0 0 0 0 0 0 0 0 0 0 127 0" />
            <feOffset dy="4" />
            <feGaussianBlur stdDeviation="2" />
            <feColorMatrix type="matrix" values="0 0 0 0 0 0 0 0 0 0 0 0 0 0 0 0 0 0 0.25 0" />
            <feBlend mode="normal" in2="BackgroundImageFix" result="effect1_dropShadow" />
            <feBlend mode="normal" in="SourceGraphic" in2="effect1_dropShadow" result="shape" />
        </filter>
    </defs>
</svg>



