<svg width="1158" height="817" viewBox="0 0 1158 817" fill="none" xmlns="http://www.w3.org/2000/svg">
<g filter="url(#filter0_d)">
<path d="M1113.49 201.214L1150.64 135.353H1231.16L1268.31 201.214L1231.15 270.465H1150.65L1113.49 201.214Z" stroke="#1F1F1F"/>
<path d="M1110.84 65.5489L1148.09 2.8476H1228.62L1267.73 68.9368L1230.83 134.353H1147.9L1110.84 65.5489Z" stroke="#1F1F1F"/>
<path d="M1113.49 337.325L1150.64 271.465H1231.16L1268.31 337.325L1231.15 406.576H1150.65L1113.49 337.325Z" stroke="#1F1F1F"/>
<path d="M995.331 269.27L1032.49 203.404L1112.63 201.87L1149.87 270.998L1112.56 336.95L1032.49 338.515L995.331 269.27Z" stroke="#1F1F1F"/>
<path d="M995.331 133.27L1032.49 67.4042L1112.63 65.8699L1149.87 134.998L1112.56 200.95L1032.49 202.515L995.331 133.27Z" stroke="#1F1F1F"/>
</g>
<g filter="url(#filter1_d)">
<path d="M877.973 472.358L912.839 407.005H994.785L1031.66 472.372L994.771 541.117H914.868L877.973 472.358Z" stroke="#1F1F1F" stroke-width="2"/>
<path d="M995.988 406.358L1032.85 341.005H1112.79L1149.66 406.374L1114.99 471.511H1033L995.988 406.358Z" stroke="#1F1F1F" stroke-width="2"/>
<path d="M875.334 336.713L912.293 274.499H992.253L1031.07 340.095L994.458 405.005H912.116L875.334 336.713Z" stroke="#1F1F1F" stroke-width="2"/>
<path d="M877.98 608.483L914.854 543.117H994.785L1031.66 608.483L994.771 677.228H914.868L877.98 608.483Z" stroke="#1F1F1F" stroke-width="2"/>
<path d="M759.823 540.428L796.703 475.05L876.253 473.527L913.22 542.143L876.188 607.607L796.705 609.161L759.823 540.428Z" stroke="#1F1F1F" stroke-width="2"/>
<path d="M759.823 404.428L796.702 339.052L874.326 337.764L911.104 405.57L876.169 471.607L796.705 473.161L759.823 404.428Z" stroke="#1F1F1F" stroke-width="2"/>
</g>
<g filter="url(#filter2_d)">
<path d="M713.761 200.621L750.913 134.76H831.428L868.58 200.621L831.421 269.872H750.92L713.761 200.621Z" stroke="#1F1F1F"/>
<path d="M831.764 134.614L868.913 68.7603H949.428L986.581 134.622L951.638 200.266H869.06L831.764 134.614Z" stroke="#1F1F1F"/>
<path d="M711.111 64.9557L748.359 2.25439H828.89L868.003 68.3436L831.101 133.76H748.168L711.111 64.9557Z" stroke="#1F1F1F"/>
<path d="M713.761 336.732L750.913 270.872H831.428L868.58 336.732L831.421 405.983H750.92L713.761 336.732Z" stroke="#1F1F1F"/>
<path d="M595.604 268.677L632.759 202.811L712.9 201.277L750.143 270.404L712.834 336.356L632.76 337.922L595.604 268.677Z" stroke="#1F1F1F"/>
<path d="M595.604 132.677L632.759 66.811L712.9 65.2767L750.143 134.404L712.834 200.356L632.76 201.922L595.604 132.677Z" stroke="#1F1F1F"/>
</g>
<g filter="url(#filter3_d)">
<path d="M792.854 198.866L830.006 133.006H910.521L947.673 198.866L910.514 268.117H830.013L792.854 198.866Z" stroke="#1F1F1F"/>
<path d="M910.858 132.859L948.006 67.0059H1028.52L1065.67 132.867L1030.73 198.512H948.153L910.858 132.859Z" stroke="#1F1F1F"/>
<path d="M790.204 63.2013L827.453 0.5H907.983L947.096 66.5892L910.194 132.006H827.261L790.204 63.2013Z" stroke="#1F1F1F"/>
<path d="M792.854 334.978L830.006 269.117H910.521L947.673 334.978L910.514 404.229H830.013L792.854 334.978Z" stroke="#1F1F1F"/>
<path d="M674.697 266.923L711.852 201.057L791.993 199.522L829.236 268.65L791.927 334.602L711.853 336.168L674.697 266.923Z" stroke="#1F1F1F"/>
<path d="M674.697 130.923L711.852 65.0566L791.993 63.5223L829.236 132.65L791.927 198.602L711.853 200.168L674.697 130.923Z" stroke="#1F1F1F"/>
</g>
<g filter="url(#filter4_d)">
<path d="M122.453 402.179L160.233 336.676L240.745 337.446L277.265 403.658L239.446 472.551L158.949 471.782L122.453 402.179Z" stroke="#1F1F1F"/>
<path d="M241.082 337.302L278.858 271.807L359.37 272.576L395.891 338.79L360.323 404.097L277.749 403.308L241.082 337.302Z" stroke="#1F1F1F"/>
<path d="M121.099 266.495L158.946 204.152L239.472 204.922L277.952 271.382L240.427 336.443L157.498 335.65L121.099 266.495Z" stroke="#1F1F1F"/>
<path d="M121.152 538.284L158.932 472.781L239.444 473.551L275.965 539.763L238.146 608.656L157.648 607.887L121.152 538.284Z" stroke="#1F1F1F"/>
<path d="M3.65099 469.103L41.4339 403.595L121.586 402.827L158.166 472.307L120.229 537.899L40.1436 538.7L3.65099 469.103Z" stroke="#1F1F1F"/>
<path d="M4.95055 333.109L42.7334 267.601L122.885 266.833L159.466 336.313L121.528 401.906L41.4432 402.706L4.95055 333.109Z" stroke="#1F1F1F"/>
</g>
<g filter="url(#filter5_d)">
<path d="M478.358 470.437L515.51 404.576H596.025L633.177 470.437L596.018 539.688H515.517L478.358 470.437Z" stroke="#1F1F1F"/>
<path d="M596.362 404.43L633.51 338.576H714.025L751.178 404.438L716.235 470.082H633.657L596.362 404.43Z" stroke="#1F1F1F"/>
<path d="M476.708 335.772L513.965 273.057L595 269.048L633.605 339.151L596.698 404.576H513.765L476.708 335.772Z" stroke="#1F1F1F"/>
<path d="M478.358 606.548L515.51 540.688H596.025L633.177 606.548L596.018 675.799H515.517L478.358 606.548Z" stroke="#1F1F1F"/>
<path d="M360.201 538.493L397.356 472.627L477.497 471.093L514.74 540.22L477.431 606.172L397.357 607.738L360.201 538.493Z" stroke="#1F1F1F"/>
<path d="M360.201 402.493L397.356 336.627L477.497 335.093L514.74 404.22L477.431 470.172L397.357 471.738L360.201 402.493Z" stroke="#1F1F1F"/>
</g>
<g filter="url(#filter6_d)">
<path d="M562.913 606.295L600.065 540.435H680.581L717.733 606.295L680.574 675.546H600.073L562.913 606.295Z" stroke="#1F1F1F"/>
<path d="M680.917 540.288L718.065 474.435H798.581L835.734 540.296L800.791 605.941H718.213L680.917 540.288Z" stroke="#1F1F1F"/>
<path d="M560.263 470.63L597.512 407.929H678.042L717.156 474.018L680.254 539.435H597.321L560.263 470.63Z" stroke="#1F1F1F"/>
<path d="M562.913 742.407L600.065 676.546H680.581L717.733 742.406L680.574 811.658H600.073L562.913 742.407Z" stroke="#1F1F1F"/>
<path d="M444.757 674.351L481.912 608.486L562.053 606.951L599.295 676.079L561.987 742.031L481.913 743.597L444.757 674.351Z" stroke="#1F1F1F"/>
<path d="M444.757 538.351L481.912 472.486L562.053 470.951L599.295 540.079L561.987 606.031L481.913 607.597L444.757 538.351Z" stroke="#1F1F1F"/>
</g>
<defs>
<filter id="filter0_d" x="992.76" y="2.3476" width="396.118" height="410.729" filterUnits="userSpaceOnUse" color-interpolation-filters="sRGB">
<feFlood flood-opacity="0" result="BackgroundImageFix"/>
<feColorMatrix in="SourceAlpha" type="matrix" values="0 0 0 0 0 0 0 0 0 0 0 0 0 0 0 0 0 0 127 0"/>
<feOffset dy="4"/>
<feGaussianBlur stdDeviation="1"/>
<feColorMatrix type="matrix" values="0 0 0 0 0 0 0 0 0 0 0 0 0 0 0 0 0 0 0.25 0"/>
<feBlend mode="normal" in2="BackgroundImageFix" result="effect1_dropShadow"/>
<feBlend mode="normal" in="SourceGraphic" in2="effect1_dropShadow" result="shape"/>
</filter>
<filter id="filter1_d" x="756.682" y="273.499" width="396.118" height="408.729" filterUnits="userSpaceOnUse" color-interpolation-filters="sRGB">
<feFlood flood-opacity="0" result="BackgroundImageFix"/>
<feColorMatrix in="SourceAlpha" type="matrix" values="0 0 0 0 0 0 0 0 0 0 0 0 0 0 0 0 0 0 127 0"/>
<feOffset dy="2"/>
<feGaussianBlur stdDeviation="1"/>
<feColorMatrix type="matrix" values="0 0 0 0 0 0 0 0 0 0 0 0 0 0 0 0 0 0 0.25 0"/>
<feBlend mode="normal" in2="BackgroundImageFix" result="effect1_dropShadow"/>
<feBlend mode="normal" in="SourceGraphic" in2="effect1_dropShadow" result="shape"/>
</filter>
<filter id="filter2_d" x="593.033" y="1.75439" width="396.118" height="410.729" filterUnits="userSpaceOnUse" color-interpolation-filters="sRGB">
<feFlood flood-opacity="0" result="BackgroundImageFix"/>
<feColorMatrix in="SourceAlpha" type="matrix" values="0 0 0 0 0 0 0 0 0 0 0 0 0 0 0 0 0 0 127 0"/>
<feOffset dy="4"/>
<feGaussianBlur stdDeviation="1"/>
<feColorMatrix type="matrix" values="0 0 0 0 0 0 0 0 0 0 0 0 0 0 0 0 0 0 0.25 0"/>
<feBlend mode="normal" in2="BackgroundImageFix" result="effect1_dropShadow"/>
<feBlend mode="normal" in="SourceGraphic" in2="effect1_dropShadow" result="shape"/>
</filter>
<filter id="filter3_d" x="672.126" y="0" width="396.118" height="410.729" filterUnits="userSpaceOnUse" color-interpolation-filters="sRGB">
<feFlood flood-opacity="0" result="BackgroundImageFix"/>
<feColorMatrix in="SourceAlpha" type="matrix" values="0 0 0 0 0 0 0 0 0 0 0 0 0 0 0 0 0 0 127 0"/>
<feOffset dy="4"/>
<feGaussianBlur stdDeviation="1"/>
<feColorMatrix type="matrix" values="0 0 0 0 0 0 0 0 0 0 0 0 0 0 0 0 0 0 0.25 0"/>
<feBlend mode="normal" in2="BackgroundImageFix" result="effect1_dropShadow"/>
<feBlend mode="normal" in="SourceGraphic" in2="effect1_dropShadow" result="shape"/>
</filter>
<filter id="filter4_d" x="0.413818" y="203.291" width="398.682" height="412.226" filterUnits="userSpaceOnUse" color-interpolation-filters="sRGB">
<feFlood flood-opacity="0" result="BackgroundImageFix"/>
<feColorMatrix in="SourceAlpha" type="matrix" values="0 0 0 0 0 0 0 0 0 0 0 0 0 0 0 0 0 0 127 0"/>
<feOffset dy="4"/>
<feGaussianBlur stdDeviation="1"/>
<feColorMatrix type="matrix" values="0 0 0 0 0 0 0 0 0 0 0 0 0 0 0 0 0 0 0.25 0"/>
<feBlend mode="normal" in2="BackgroundImageFix" result="effect1_dropShadow"/>
<feBlend mode="normal" in="SourceGraphic" in2="effect1_dropShadow" result="shape"/>
</filter>
<filter id="filter5_d" x="357.63" y="268.533" width="396.118" height="413.766" filterUnits="userSpaceOnUse" color-interpolation-filters="sRGB">
<feFlood flood-opacity="0" result="BackgroundImageFix"/>
<feColorMatrix in="SourceAlpha" type="matrix" values="0 0 0 0 0 0 0 0 0 0 0 0 0 0 0 0 0 0 127 0"/>
<feOffset dy="4"/>
<feGaussianBlur stdDeviation="1"/>
<feColorMatrix type="matrix" values="0 0 0 0 0 0 0 0 0 0 0 0 0 0 0 0 0 0 0.25 0"/>
<feBlend mode="normal" in2="BackgroundImageFix" result="effect1_dropShadow"/>
<feBlend mode="normal" in="SourceGraphic" in2="effect1_dropShadow" result="shape"/>
</filter>
<filter id="filter6_d" x="442.186" y="407.429" width="396.118" height="408.729" filterUnits="userSpaceOnUse" color-interpolation-filters="sRGB">
<feFlood flood-opacity="0" result="BackgroundImageFix"/>
<feColorMatrix in="SourceAlpha" type="matrix" values="0 0 0 0 0 0 0 0 0 0 0 0 0 0 0 0 0 0 127 0"/>
<feOffset dy="2"/>
<feGaussianBlur stdDeviation="1"/>
<feColorMatrix type="matrix" values="0 0 0 0 0 0 0 0 0 0 0 0 0 0 0 0 0 0 0.25 0"/>
<feBlend mode="normal" in2="BackgroundImageFix" result="effect1_dropShadow"/>
<feBlend mode="normal" in="SourceGraphic" in2="effect1_dropShadow" result="shape"/>
</filter>
</defs>
</svg>
