<svg width="85" height="23" viewBox="0 0 85 23" fill="none" xmlns="http://www.w3.org/2000/svg">
<path d="M4.34402 18.5852V12.7952H14.484V9.58522H4.34402V4.12522H15.774V0.855223H0.444024V21.8552H16.194V18.5852H4.34402ZM20.5417 21.8552H35.4217V18.5552H24.4417V0.855223H20.5417V21.8552ZM38.5007 21.8552H47.6807C54.4907 21.8552 59.1407 17.6552 59.1407 11.3552C59.1407 5.05522 54.4907 0.855223 47.6807 0.855223H38.5007V21.8552ZM42.4007 18.5552V4.15522H47.5007C52.1807 4.15522 55.2107 7.00522 55.2107 11.3552C55.2107 15.7052 52.1807 18.5552 47.5007 18.5552H42.4007ZM73.0958 22.1552C79.6058 22.1552 84.4058 17.5952 84.4058 11.3552C84.4058 5.11522 79.6058 0.555223 73.0958 0.555223C66.5858 0.555223 61.7858 5.14522 61.7858 11.3552C61.7858 17.5652 66.5858 22.1552 73.0958 22.1552ZM73.0958 18.7352C68.8658 18.7352 65.7158 15.6452 65.7158 11.3552C65.7158 7.06522 68.8658 3.97522 73.0958 3.97522C77.3258 3.97522 80.4758 7.06522 80.4758 11.3552C80.4758 15.6452 77.3258 18.7352 73.0958 18.7352Z" fill="white"/>
</svg>
