<svg width="25" height="24" viewBox="0 0 25 24" fill="none" xmlns="http://www.w3.org/2000/svg">
<path d="M19.6865 24.0001C18.6879 24.0001 17.4819 23.7499 16.1556 23.2494C13.2479 22.1531 10.0843 19.9865 7.24769 17.1499C4.41023 14.3124 2.24359 11.148 1.14654 8.24031C0.149598 5.59659 0.147176 3.42672 1.14089 2.43381C1.28377 2.29092 1.42908 2.13755 1.57923 1.97933C2.48576 1.02597 3.51015 -0.0468527 4.86794 0.00158189C5.80353 0.0403296 6.71006 0.621545 7.63839 1.77671C10.3814 5.18812 9.14471 6.40383 7.71347 7.81328L7.4608 8.06352C7.2267 8.29762 6.78433 9.38175 10.8997 13.4971C12.2429 14.8403 13.3884 15.8236 14.3038 16.4185C14.8802 16.7931 15.911 17.3597 16.334 16.9367L16.5883 16.68C17.9961 15.252 19.2118 14.0194 22.6208 16.76C23.776 17.6883 24.3564 18.594 24.3952 19.5312C24.4508 20.8882 23.37 21.915 22.4158 22.8207C22.2584 22.9709 22.105 23.1162 21.9621 23.2583C21.4689 23.7523 20.6802 24.0001 19.6865 24.0001ZM4.77107 0.807211C3.80641 0.807211 2.93539 1.72424 2.16448 2.53552C2.00949 2.69858 1.85934 2.8568 1.71161 3.00453C0.971372 3.74396 1.04645 5.687 1.90212 7.95616C2.95961 10.7589 5.06087 13.8216 7.81922 16.5799C10.5768 19.3367 13.6378 21.4379 16.4414 22.4946C18.7105 23.3519 20.6536 23.4246 21.3922 22.6859C21.5399 22.5382 21.6982 22.3881 21.8612 22.2339C22.6903 21.446 23.6307 20.5532 23.5895 19.5627C23.5613 18.8822 23.0656 18.15 22.1163 17.3872C19.2756 15.1027 18.4813 15.9091 17.1639 17.2451L16.9055 17.5058C16.2759 18.1363 15.2531 17.9967 13.8647 17.0942C12.9016 16.4677 11.7117 15.449 10.3297 14.0662C6.9143 10.6515 5.8221 8.56159 6.89089 7.49038L7.1484 7.2361C8.48761 5.91868 9.29566 5.12354 7.01036 2.28124C6.2459 1.33273 5.51454 0.837079 4.83403 0.808018C4.81304 0.807211 4.79205 0.807211 4.77107 0.807211Z" fill="white"/>
</svg>
