<svg width="168" height="168" viewBox="0 0 168 168" fill="none" xmlns="http://www.w3.org/2000/svg">
<circle cx="83.6538" cy="83.7579" r="82.9288" stroke="#6AEDFC"/>
<g clip-path="url(#clip0)">
<path d="M84.924 84.5391L84.8934 84.5325C84.7388 84.4991 84.5813 84.4932 84.4266 84.5164L84.3937 84.5213L84.3607 84.5175C82.3755 84.2863 80.8778 82.6067 80.8744 80.6087L80.8744 80.6083C80.8744 79.8495 80.2592 79.2344 79.5005 79.2344C78.7419 79.2344 78.1267 79.8494 78.1266 80.6081C78.1313 83.6204 80.1462 86.259 83.0508 87.0562L83.2346 87.1066V87.2973V88.9212C83.2346 89.6799 83.8498 90.295 84.6085 90.295C85.3672 90.295 85.9824 89.6799 85.9824 88.9212V87.3956V87.1925L86.1811 87.1509C89.5334 86.4493 91.8119 83.3271 91.4595 79.9204L84.924 84.5391ZM84.924 84.5391L84.9553 84.538M84.924 84.5391L84.9553 84.538M84.9553 84.538C87.0992 84.4601 88.7858 82.6787 88.7461 80.5339M84.9553 84.538L88.7461 80.5339M85.9824 63.4018V63.199V61.7211C85.9824 60.9623 85.3672 60.3472 84.6085 60.3472C83.8498 60.3472 83.2346 60.9623 83.2346 61.7211V63.2982V63.489L83.0504 63.5393C79.8204 64.4214 77.7414 67.5574 78.1863 70.8761C78.6311 74.1948 81.4629 76.672 84.8114 76.6712H84.8115C86.9569 76.6712 88.7071 78.3891 88.7461 80.5339M85.9824 63.4018L88.7461 80.5339M85.9824 63.4018L86.1808 63.4437M85.9824 63.4018L86.1808 63.4437M86.1808 63.4437C89.2758 64.0964 91.4917 66.8245 91.4963 69.9875C91.4961 70.7461 90.881 71.3611 90.1224 71.3611C89.3637 71.3611 88.7485 70.7459 88.7485 69.9872C88.7485 67.8129 86.9857 66.0501 84.8115 66.0501C82.6372 66.0501 80.8744 67.8129 80.8744 69.9872C80.8744 72.1615 82.6371 73.9242 84.8114 73.9242C88.2363 73.925 91.1064 76.5137 91.4595 79.9204L86.1808 63.4437ZM84.3896 84.2691C82.5302 84.0527 81.1276 82.4795 81.1244 80.6083L84.3896 84.2691Z" fill="#6AEDFC" stroke="#1B1B1B" stroke-width="0.5"/>
<path d="M84.8115 54.8723L84.8112 54.8723C73.4671 54.8851 64.2742 64.0781 64.2613 75.4221V75.4224C64.2613 86.7723 73.4616 95.9726 84.8115 95.9726C96.1613 95.9726 105.362 86.7723 105.362 75.4224C105.362 64.0726 96.1613 54.8723 84.8115 54.8723ZM84.8115 98.7204C71.9442 98.7204 61.5136 88.2898 61.5135 75.4226C61.5285 62.5615 71.9506 52.1387 84.8116 52.1245C97.6788 52.1246 108.109 62.5552 108.109 75.4224C108.109 88.2897 97.6787 98.7204 84.8115 98.7204Z" fill="#6AEDFC" stroke="#1B1B1B" stroke-width="0.5"/>
<path d="M116.477 103.197L116.472 103.2L116.471 103.2L103.751 109.21L103.536 109.312L103.424 109.103C101.71 105.915 98.4222 103.886 94.8041 103.784L116.477 103.197ZM116.477 103.197C120.271 101.288 124.895 102.698 126.98 106.397L126.98 106.397C127.337 107.03 127.14 107.832 126.53 108.227C126.53 108.227 126.53 108.227 126.53 108.227L97.5653 126.962L97.5642 126.963C97.5103 126.998 97.4541 127.029 97.3962 127.055L97.3954 127.056C94.5888 128.344 91.5368 129.01 88.4487 129.008H88.4485C86.9913 129.009 85.5373 128.859 84.1108 128.561C84.0758 128.553 84.0489 128.547 84.0236 128.539L84.0203 128.539M116.477 103.197L84.0203 128.539M84.0203 128.539L64.0442 122.932C64.0441 122.932 64.0441 122.932 64.044 122.932M84.0203 128.539L64.044 122.932M96.1568 124.603L96.1396 124.61C92.564 126.224 88.5705 126.669 84.7274 125.884L84.7185 125.882L84.7098 125.88L64.7871 120.288L64.7867 120.287C62.6067 119.672 60.2734 119.927 58.2793 120.999L58.279 120.999L56.5694 121.915L56.1896 122.118L56.2015 121.688L56.659 105.058L56.6625 104.928L56.7704 104.857C62.2633 101.203 69.3079 100.828 75.1578 103.876L96.1568 124.603ZM96.1568 124.603L96.1726 124.592L123.557 106.878L123.827 106.703L123.591 106.485C121.992 105.005 119.642 104.676 117.698 105.659C117.685 105.666 117.678 105.669 117.672 105.672L117.672 105.671L117.665 105.675L104.618 111.839L104.445 111.921L104.479 112.11C104.6 112.787 104.651 113.477 104.632 114.165L104.632 114.165C104.612 114.909 104.003 115.501 103.259 115.502H103.218L83.9168 114.971L83.91 115.22L83.9168 114.971C83.1589 114.95 82.5605 114.318 82.5812 113.559C82.6026 112.801 83.2341 112.203 83.9927 112.223L101.485 112.706L101.801 112.715L101.737 112.406C101.044 109.06 98.1444 106.629 94.7301 106.531L94.7298 106.531L82.9863 106.208C80.6743 106.141 78.4077 105.556 76.3524 104.495L75.1583 103.876L96.1568 124.603ZM104.725 112.065C104.849 112.76 104.902 113.467 104.882 114.172L104.725 112.065ZM104.725 112.065L117.772 105.901L104.725 112.065ZM64.044 122.932C62.5473 122.508 60.9456 122.684 59.5756 123.421L64.044 122.932ZM83.061 103.461L94.8039 103.784L59.5751 123.421L56.2303 125.212L56.1024 125.28L56.0984 125.425L56.0611 126.777L56.0611 126.778C56.041 127.521 55.432 128.114 54.6871 128.114H54.6462L41.7727 127.759L41.7727 127.759C41.0141 127.739 40.4163 127.107 40.4371 126.348C40.4371 126.348 40.4371 126.348 40.4371 126.348L41.2149 98.0901L41.2149 98.0901C41.2357 97.3313 41.8669 96.7337 42.6256 96.7544C42.6256 96.7544 42.6256 96.7544 42.6256 96.7544L55.5025 97.1089L55.5025 97.1089C56.2612 97.1297 56.859 97.7615 56.8382 98.5204L56.7636 101.227L56.7519 101.654L57.1296 101.456C63.1689 98.2919 70.3748 98.2841 76.4203 101.435L76.4208 101.436L77.6158 102.055L77.6161 102.055C79.3026 102.926 81.1639 103.407 83.0607 103.461L83.061 103.461ZM43.2286 124.801L43.2217 125.051L43.4716 125.057L53.1016 125.323L53.3515 125.33L53.3584 125.08L54.0466 100.068L54.0535 99.8177L53.8036 99.8108L44.1736 99.546L43.9237 99.5391L43.9169 99.789L43.2286 124.801ZM123.204 106.808C123.22 106.823 123.235 106.837 123.251 106.852L123.421 106.668L123.285 106.458L123.226 106.497L123.204 106.808Z" fill="#6AEDFC" stroke="#1B1B1B" stroke-width="0.5"/>
<path d="M86.1853 31.8817V47.3086C86.1853 48.0673 85.5701 48.6825 84.8114 48.6825C84.0527 48.6825 83.4375 48.0673 83.4375 47.3086V31.8817C83.4375 31.123 84.0527 30.5078 84.8114 30.5078C85.5701 30.5078 86.1853 31.123 86.1853 31.8817Z" fill="#6AEDFC" stroke="#1B1B1B" stroke-width="0.5"/>
<path d="M98.3645 40.0013V47.3088C98.3645 48.0675 97.7493 48.6827 96.9906 48.6827C96.2319 48.6827 95.6167 48.0675 95.6167 47.3088V40.0013C95.6167 39.2426 96.2319 38.6274 96.9906 38.6274C97.7493 38.6274 98.3645 39.2426 98.3645 40.0013Z" fill="#6AEDFC" stroke="#1B1B1B" stroke-width="0.5"/>
<path d="M74.0063 40.0013V47.3088C74.0063 48.0675 73.3911 48.6827 72.6324 48.6827C71.8737 48.6827 71.2585 48.0675 71.2585 47.3088V40.0013C71.2585 39.2426 71.8737 38.6274 72.6324 38.6274C73.3911 38.6274 74.0063 39.2426 74.0063 40.0013Z" fill="#6AEDFC" stroke="#1B1B1B" stroke-width="0.5"/>
</g>
<defs>
<clipPath id="clip0">
<rect width="99" height="99" fill="white" transform="translate(34.1538 30.2578)"/>
</clipPath>
</defs>
</svg>
