<svg width="214" height="184" viewBox="0 -40 214 250" fill="none" xmlns="http://www.w3.org/2000/svg">

<g filter="url(#filter0_d)">
<mask id="path-1-inside-1" fill="white">
<path d="M40.3749 40.2272C40.3749 39.0988 41.0081 38.0659 42.0136 37.5539L113.578 1.11356C114.403 0.69319 115.377 0.677811 116.215 1.07189L193.883 37.578C194.935 38.0726 195.607 39.1305 195.607 40.2931V136.507C195.607 137.677 194.927 138.741 193.864 139.231L116.196 175.082C115.368 175.464 114.412 175.449 113.597 175.042L42.0331 139.256C41.0168 138.748 40.3749 137.709 40.3749 136.573V40.2272Z"/>
</mask>
<path d="M40.3749 40.2272C40.3749 39.0988 41.0081 38.0659 42.0136 37.5539L113.578 1.11356C114.403 0.69319 115.377 0.677811 116.215 1.07189L193.883 37.578C194.935 38.0726 195.607 39.1305 195.607 40.2931V136.507C195.607 137.677 194.927 138.741 193.864 139.231L116.196 175.082C115.368 175.464 114.412 175.449 113.597 175.042L42.0331 139.256C41.0168 138.748 40.3749 137.709 40.3749 136.573V40.2272Z" stroke="url(#paint0_linear)" stroke-width="4" mask="url(#path-1-inside-1)"/>
</g>
<g filter="url(#filter1_d)">
<mask id="path-8-inside-2" fill="white">
<path d="M109.789 90.8752C110.814 90.8752 111.646 91.7461 111.646 92.821C111.646 93.895 112.477 94.766 113.503 94.766C114.529 94.766 115.36 93.895 115.36 92.821C115.351 90.356 113.864 88.1635 111.646 87.3424V86.9844C111.646 85.9095 110.814 85.0386 109.789 85.0386C108.763 85.0386 107.932 85.9095 107.932 86.9844V87.3424C105.036 88.4111 103.516 91.7355 104.535 94.7687C105.32 97.1019 107.427 98.6612 109.789 98.6568C110.814 98.6568 111.646 99.5277 111.646 100.603C111.646 101.677 110.814 102.548 109.789 102.548C108.763 102.548 107.932 101.677 107.932 100.603C107.932 99.5277 107.1 98.6568 106.075 98.6568C105.049 98.6568 104.218 99.5277 104.218 100.603C104.228 103.067 105.714 105.259 107.932 106.08V106.438C107.932 107.513 108.763 108.384 109.789 108.384C110.814 108.384 111.646 107.513 111.646 106.438V106.08C114.541 105.013 116.062 101.687 115.042 98.6541C114.257 96.3209 112.151 94.7615 109.789 94.766C108.763 94.766 107.932 93.895 107.932 92.821C107.932 91.7461 108.763 90.8752 109.789 90.8752Z"/>
</mask>
<path d="M109.789 90.8752C110.814 90.8752 111.646 91.7461 111.646 92.821C111.646 93.895 112.477 94.766 113.503 94.766C114.529 94.766 115.36 93.895 115.36 92.821C115.351 90.356 113.864 88.1635 111.646 87.3424V86.9844C111.646 85.9095 110.814 85.0386 109.789 85.0386C108.763 85.0386 107.932 85.9095 107.932 86.9844V87.3424C105.036 88.4111 103.516 91.7355 104.535 94.7687C105.32 97.1019 107.427 98.6612 109.789 98.6568C110.814 98.6568 111.646 99.5277 111.646 100.603C111.646 101.677 110.814 102.548 109.789 102.548C108.763 102.548 107.932 101.677 107.932 100.603C107.932 99.5277 107.1 98.6568 106.075 98.6568C105.049 98.6568 104.218 99.5277 104.218 100.603C104.228 103.067 105.714 105.259 107.932 106.08V106.438C107.932 107.513 108.763 108.384 109.789 108.384C110.814 108.384 111.646 107.513 111.646 106.438V106.08C114.541 105.013 116.062 101.687 115.042 98.6541C114.257 96.3209 112.151 94.7615 109.789 94.766C108.763 94.766 107.932 93.895 107.932 92.821C107.932 91.7461 108.763 90.8752 109.789 90.8752Z" fill="#6AEDFC" stroke="#1E1E1E" stroke-width="1.9961" mask="url(#path-8-inside-2)"/>
<mask id="path-9-inside-3" fill="white">
<path d="M109.789 77.2563C99.5326 77.2563 91.2177 85.9668 91.2177 96.7112C91.2177 107.455 99.5326 116.165 109.789 116.165C120.045 116.165 128.36 107.455 128.36 96.7112C128.349 85.9712 120.041 77.2688 109.789 77.2563ZM109.789 112.274C101.584 112.274 94.9318 105.306 94.9318 96.7112C94.9318 88.1156 101.584 81.1471 109.789 81.1471C117.994 81.1471 124.646 88.1156 124.646 96.7112C124.636 105.302 117.99 112.265 109.789 112.274Z"/>
</mask>
<path d="M109.789 77.2563C99.5326 77.2563 91.2177 85.9668 91.2177 96.7112C91.2177 107.455 99.5326 116.165 109.789 116.165C120.045 116.165 128.36 107.455 128.36 96.7112C128.349 85.9712 120.041 77.2688 109.789 77.2563ZM109.789 112.274C101.584 112.274 94.9318 105.306 94.9318 96.7112C94.9318 88.1156 101.584 81.1471 109.789 81.1471C117.994 81.1471 124.646 88.1156 124.646 96.7112C124.636 105.302 117.99 112.265 109.789 112.274Z" fill="#6AEDFC" stroke="#1E1E1E" stroke-width="1.9961" mask="url(#path-9-inside-3)"/>
<mask id="path-10-inside-4" fill="white">
<path d="M167.474 57.8729C166.381 57.1534 165.01 57.0794 163.853 57.6779C157.96 60.476 151.541 61.8483 145.074 61.6934C137.646 61.6934 126.616 58.6121 115.954 55.6314C105.635 52.7443 95.8864 50.021 89.361 50.021C81.687 50.0477 74.1219 51.9214 67.2487 55.4969C65.999 56.1497 65.2127 57.4882 65.2186 58.9505V64.7497C63.362 65.4327 61.5504 66.244 59.7958 67.1773C58.5563 67.8434 57.781 69.1837 57.7904 70.6424V120.585C57.7904 122.734 59.4532 124.476 61.5045 124.476C62.0783 124.476 62.6437 124.337 63.1571 124.07C69.0467 121.266 75.4659 119.894 81.9327 120.056C89.3609 120.056 100.39 123.137 111.052 126.118C121.372 129.005 131.119 131.728 137.646 131.728C145.329 131.71 152.904 129.833 159.782 126.244C161.019 125.581 161.794 124.245 161.788 122.789V116.998C163.634 116.313 165.437 115.505 167.186 114.58C168.436 113.927 169.222 112.589 169.216 111.127V61.1679C169.222 59.8268 168.562 58.5791 167.474 57.8729ZM137.646 127.838C131.606 127.838 122.087 125.177 112.017 122.359C101.116 119.315 89.8532 116.165 81.9327 116.165C74.8904 115.987 67.9024 117.499 61.5045 120.585L61.4909 70.6424C67.8421 67.3296 74.8376 65.5984 81.9327 65.5841C87.9719 65.5841 97.4914 68.2451 107.569 71.0628C118.461 74.1066 129.725 77.2565 137.646 77.2565C144.687 77.4346 151.675 75.9225 158.073 72.8367L158.085 115.441V115.5V122.779C151.734 126.092 144.74 127.822 137.646 127.838ZM161.788 112.858V72.8367C161.791 71.4965 161.132 70.2506 160.046 69.5435C158.951 68.8248 157.58 68.7509 156.42 69.3485C150.532 72.1537 144.113 73.5269 137.646 73.3657C130.217 73.3657 119.188 70.2844 108.526 67.3038C98.2064 64.4166 88.4581 61.6934 81.9327 61.6934C77.541 61.7031 73.1697 62.3239 68.9328 63.5377V58.9701C75.2814 55.6635 82.271 53.9332 89.361 53.9118C95.4001 53.9118 104.92 56.5727 114.999 59.3904C125.89 62.4343 137.153 65.5841 145.074 65.5841C152.115 65.7587 159.102 64.2483 165.502 61.1679V111.107C164.293 111.756 163.053 112.34 161.788 112.858Z"/>
</mask>
<path d="M167.474 57.8729C166.381 57.1534 165.01 57.0794 163.853 57.6779C157.96 60.476 151.541 61.8483 145.074 61.6934C137.646 61.6934 126.616 58.6121 115.954 55.6314C105.635 52.7443 95.8864 50.021 89.361 50.021C81.687 50.0477 74.1219 51.9214 67.2487 55.4969C65.999 56.1497 65.2127 57.4882 65.2186 58.9505V64.7497C63.362 65.4327 61.5504 66.244 59.7958 67.1773C58.5563 67.8434 57.781 69.1837 57.7904 70.6424V120.585C57.7904 122.734 59.4532 124.476 61.5045 124.476C62.0783 124.476 62.6437 124.337 63.1571 124.07C69.0467 121.266 75.4659 119.894 81.9327 120.056C89.3609 120.056 100.39 123.137 111.052 126.118C121.372 129.005 131.119 131.728 137.646 131.728C145.329 131.71 152.904 129.833 159.782 126.244C161.019 125.581 161.794 124.245 161.788 122.789V116.998C163.634 116.313 165.437 115.505 167.186 114.58C168.436 113.927 169.222 112.589 169.216 111.127V61.1679C169.222 59.8268 168.562 58.5791 167.474 57.8729ZM137.646 127.838C131.606 127.838 122.087 125.177 112.017 122.359C101.116 119.315 89.8532 116.165 81.9327 116.165C74.8904 115.987 67.9024 117.499 61.5045 120.585L61.4909 70.6424C67.8421 67.3296 74.8376 65.5984 81.9327 65.5841C87.9719 65.5841 97.4914 68.2451 107.569 71.0628C118.461 74.1066 129.725 77.2565 137.646 77.2565C144.687 77.4346 151.675 75.9225 158.073 72.8367L158.085 115.441V115.5V122.779C151.734 126.092 144.74 127.822 137.646 127.838ZM161.788 112.858V72.8367C161.791 71.4965 161.132 70.2506 160.046 69.5435C158.951 68.8248 157.58 68.7509 156.42 69.3485C150.532 72.1537 144.113 73.5269 137.646 73.3657C130.217 73.3657 119.188 70.2844 108.526 67.3038C98.2064 64.4166 88.4581 61.6934 81.9327 61.6934C77.541 61.7031 73.1697 62.3239 68.9328 63.5377V58.9701C75.2814 55.6635 82.271 53.9332 89.361 53.9118C95.4001 53.9118 104.92 56.5727 114.999 59.3904C125.89 62.4343 137.153 65.5841 145.074 65.5841C152.115 65.7587 159.102 64.2483 165.502 61.1679V111.107C164.293 111.756 163.053 112.34 161.788 112.858Z" fill="#6AEDFC" stroke="#1E1E1E" stroke-width="1.9961" mask="url(#path-10-inside-4)"/>
<mask id="path-11-inside-5" fill="white">
<path d="M137.646 94.7656H133.931C132.905 94.7656 132.074 95.6366 132.074 96.7115C132.074 97.7855 132.905 98.6564 133.931 98.6564H137.646C138.671 98.6564 139.502 97.7855 139.502 96.7115C139.502 95.6366 138.671 94.7656 137.646 94.7656Z"/>
</mask>
<path d="M137.646 94.7656H133.931C132.905 94.7656 132.074 95.6366 132.074 96.7115C132.074 97.7855 132.905 98.6564 133.931 98.6564H137.646C138.671 98.6564 139.502 97.7855 139.502 96.7115C139.502 95.6366 138.671 94.7656 137.646 94.7656Z" fill="#6AEDFC" stroke="#1E1E1E" stroke-width="1.9961" mask="url(#path-11-inside-5)"/>
<mask id="path-12-inside-6" fill="white">
<path d="M85.6468 94.7656H81.9327C80.9066 94.7656 80.0752 95.6366 80.0752 96.7115C80.0752 97.7855 80.9066 98.6564 81.9327 98.6564H85.6468C86.6721 98.6564 87.5035 97.7855 87.5035 96.7115C87.5035 95.6366 86.6721 94.7656 85.6468 94.7656Z"/>
</mask>
<path d="M85.6468 94.7656H81.9327C80.9066 94.7656 80.0752 95.6366 80.0752 96.7115C80.0752 97.7855 80.9066 98.6564 81.9327 98.6564H85.6468C86.6721 98.6564 87.5035 97.7855 87.5035 96.7115C87.5035 95.6366 86.6721 94.7656 85.6468 94.7656Z" fill="#6AEDFC" stroke="#1E1E1E" stroke-width="1.9961" mask="url(#path-12-inside-6)"/>
</g>
<defs>
<filter id="filter0_d" x="0.572876" y="0.787109" width="213.007" height="182.572" filterUnits="userSpaceOnUse" color-interpolation-filters="sRGB">
<feFlood flood-opacity="0" result="BackgroundImageFix"/>
<feColorMatrix in="SourceAlpha" type="matrix" values="0 0 0 0 0 0 0 0 0 0 0 0 0 0 0 0 0 0 127 0"/>
<feOffset dy="4"/>
<feGaussianBlur stdDeviation="2"/>
<feColorMatrix type="matrix" values="0 0 0 0 0 0 0 0 0 0 0 0 0 0 0 0 0 0 0.25 0"/>
<feBlend mode="normal" in2="BackgroundImageFix" result="effect1_dropShadow"/>
<feBlend mode="normal" in="SourceGraphic" in2="effect1_dropShadow" result="shape"/>
</filter>
<filter id="filter1_d" x="53.7903" y="50.021" width="119.426" height="89.7074" filterUnits="userSpaceOnUse" color-interpolation-filters="sRGB">
<feFlood flood-opacity="0" result="BackgroundImageFix"/>
<feColorMatrix in="SourceAlpha" type="matrix" values="0 0 0 0 0 0 0 0 0 0 0 0 0 0 0 0 0 0 127 0"/>
<feOffset dy="4"/>
<feGaussianBlur stdDeviation="2"/>
<feColorMatrix type="matrix" values="0 0 0 0 0 0 0 0 0 0 0 0 0 0 0 0 0 0 0.25 0"/>
<feBlend mode="normal" in2="BackgroundImageFix" result="effect1_dropShadow"/>
<feBlend mode="normal" in="SourceGraphic" in2="effect1_dropShadow" result="shape"/>
</filter>
<linearGradient id="paint0_linear" x1="195.607" y1="64.5304" x2="45.658" y2="97.0369" gradientUnits="userSpaceOnUse">
<stop stop-color="#6AEDFC"/>
<stop offset="1" stop-opacity="0"/>
</linearGradient>
</defs>
</svg>
