<svg width="216" height="185" viewBox="0 -40 214 250" fill="none" xmlns="http://www.w3.org/2000/svg">

<g clip-path="url(#clip0)" filter="url(#filter0_d)">
<mask id="path-1-inside-1" fill="white">
<path d="M162.317 70.3084C162.263 67.4195 162.21 64.6905 162.21 62.0503C162.21 59.9819 160.534 58.305 158.465 58.305C142.448 58.305 130.252 53.7018 120.087 43.8183C118.633 42.4041 116.319 42.4046 114.865 43.8183C104.701 53.7018 92.5081 58.305 76.4918 58.305C74.4234 58.305 72.7465 59.9819 72.7465 62.0503C72.7465 64.691 72.6946 67.421 72.6391 70.3104C72.1258 97.1944 71.4227 134.013 116.25 149.551C116.647 149.689 117.062 149.758 117.476 149.758C117.891 149.758 118.306 149.689 118.703 149.551C163.533 134.013 162.831 97.1929 162.317 70.3084ZM117.477 142.038C79.0316 128.072 79.6128 97.4786 80.1287 70.4532C80.1596 68.8312 80.1896 67.2592 80.2106 65.7182C95.2116 65.085 107.208 60.5392 117.477 51.5935C127.747 60.5392 139.744 65.0855 154.747 65.7182C154.767 67.2587 154.797 68.8297 154.828 70.4507C155.344 97.4771 155.925 128.072 117.477 142.038Z"/>
</mask>
<path d="M162.317 70.3084C162.263 67.4195 162.21 64.6905 162.21 62.0503C162.21 59.9819 160.534 58.305 158.465 58.305C142.448 58.305 130.252 53.7018 120.087 43.8183C118.633 42.4041 116.319 42.4046 114.865 43.8183C104.701 53.7018 92.5081 58.305 76.4918 58.305C74.4234 58.305 72.7465 59.9819 72.7465 62.0503C72.7465 64.691 72.6946 67.421 72.6391 70.3104C72.1258 97.1944 71.4227 134.013 116.25 149.551C116.647 149.689 117.062 149.758 117.476 149.758C117.891 149.758 118.306 149.689 118.703 149.551C163.533 134.013 162.831 97.1929 162.317 70.3084ZM117.477 142.038C79.0316 128.072 79.6128 97.4786 80.1287 70.4532C80.1596 68.8312 80.1896 67.2592 80.2106 65.7182C95.2116 65.085 107.208 60.5392 117.477 51.5935C127.747 60.5392 139.744 65.0855 154.747 65.7182C154.767 67.2587 154.797 68.8297 154.828 70.4507C155.344 97.4771 155.925 128.072 117.477 142.038Z" fill="#6AEDFC" stroke="#1B1B1B" stroke-width="5" mask="url(#path-1-inside-1)"/>
<mask id="path-2-inside-2" fill="white">
<path d="M130.374 83.2476L112.297 101.323L104.583 93.6095C103.121 92.1474 100.749 92.1474 99.287 93.6095C97.8243 95.0727 97.8243 97.4437 99.287 98.9064L109.649 109.268C110.38 109.999 111.339 110.365 112.297 110.365C113.255 110.365 114.214 109.999 114.945 109.268L135.67 88.5444C137.133 87.0818 137.133 84.7103 135.67 83.2481C134.208 81.7855 131.836 81.785 130.374 83.2476Z"/>
</mask>
<path d="M130.374 83.2476L112.297 101.323L104.583 93.6095C103.121 92.1474 100.749 92.1474 99.287 93.6095C97.8243 95.0727 97.8243 97.4437 99.287 98.9064L109.649 109.268C110.38 109.999 111.339 110.365 112.297 110.365C113.255 110.365 114.214 109.999 114.945 109.268L135.67 88.5444C137.133 87.0818 137.133 84.7103 135.67 83.2481C134.208 81.7855 131.836 81.785 130.374 83.2476Z" fill="#6AEDFC" stroke="#1B1B1B" stroke-width="5" mask="url(#path-2-inside-2)"/>
</g>
<g filter="url(#filter1_d)">
<mask id="path-3-inside-3" fill="white">
<path d="M39.9017 40.4771C39.9017 39.3487 40.5349 38.3157 41.5404 37.8037L113.595 1.11356C114.421 0.693189 115.394 0.677811 116.233 1.07189L194.432 37.8279C195.484 38.3224 196.156 39.3804 196.156 40.5429V137.416C196.156 138.586 195.476 139.649 194.413 140.14L116.213 176.236C115.386 176.618 114.429 176.603 113.614 176.196L41.5599 140.165C40.5436 139.656 39.9017 138.618 39.9017 137.481V40.4771Z"/>
</mask>
<path d="M39.9017 40.4771C39.9017 39.3487 40.5349 38.3157 41.5404 37.8037L113.595 1.11356C114.421 0.693189 115.394 0.677811 116.233 1.07189L194.432 37.8279C195.484 38.3224 196.156 39.3804 196.156 40.5429V137.416C196.156 138.586 195.476 139.649 194.413 140.14L116.213 176.236C115.386 176.618 114.429 176.603 113.614 176.196L41.5599 140.165C40.5436 139.656 39.9017 138.618 39.9017 137.481V40.4771Z" stroke="url(#paint0_linear)" stroke-width="4" mask="url(#path-3-inside-3)"/>
</g>
<defs>
<filter id="filter0_d" x="59.9785" y="42.7578" width="115" height="115" filterUnits="userSpaceOnUse" color-interpolation-filters="sRGB">
<feFlood flood-opacity="0" result="BackgroundImageFix"/>
<feColorMatrix in="SourceAlpha" type="matrix" values="0 0 0 0 0 0 0 0 0 0 0 0 0 0 0 0 0 0 127 0"/>
<feOffset dy="4"/>
<feGaussianBlur stdDeviation="2"/>
<feColorMatrix type="matrix" values="0 0 0 0 0 0 0 0 0 0 0 0 0 0 0 0 0 0 0.25 0"/>
<feBlend mode="normal" in2="BackgroundImageFix" result="effect1_dropShadow"/>
<feBlend mode="normal" in="SourceGraphic" in2="effect1_dropShadow" result="shape"/>
</filter>
<filter id="filter1_d" x="0.863892" y="0.787109" width="214.356" height="183.726" filterUnits="userSpaceOnUse" color-interpolation-filters="sRGB">
<feFlood flood-opacity="0" result="BackgroundImageFix"/>
<feColorMatrix in="SourceAlpha" type="matrix" values="0 0 0 0 0 0 0 0 0 0 0 0 0 0 0 0 0 0 127 0"/>
<feOffset dy="4"/>
<feGaussianBlur stdDeviation="2"/>
<feColorMatrix type="matrix" values="0 0 0 0 0 0 0 0 0 0 0 0 0 0 0 0 0 0 0.25 0"/>
<feBlend mode="normal" in2="BackgroundImageFix" result="effect1_dropShadow"/>
<feBlend mode="normal" in="SourceGraphic" in2="effect1_dropShadow" result="shape"/>
</filter>
<linearGradient id="paint0_linear" x1="196.156" y1="64.9524" x2="45.2196" y2="97.673" gradientUnits="userSpaceOnUse">
<stop stop-color="#6AEDFC"/>
<stop offset="1" stop-opacity="0"/>
</linearGradient>
<clipPath id="clip0">
<rect width="107" height="107" fill="white" transform="translate(63.9785 42.7578)"/>
</clipPath>
</defs>
</svg>
