<svg width="215" height="184" viewBox="0 -40 214 250" fill="none" xmlns="http://www.w3.org/2000/svg">
<g>
	<animateTransform attributeName="transform" type="rotate" values="0 107.5 92.0; 360 107.5 92.0" calcMode="linear" begin="0s" dur="15s" repeatCount="indefinite"  />
<circle cx="36.0684" cy="11.8018" r="2.71883" fill="#6AEDFC"/>
<circle cx="46.4577" cy="14.4658" r="2.66453" fill="#6AEDFC"/>
<circle cx="6.88706" cy="80.0394" r="2.31479" fill="#6AEDFC"/>
<circle cx="205.879" cy="98.0173" r="4.2624" fill="#6AEDFC"/>
<circle cx="176.912" cy="113.882" r="2.76285" fill="#6AEDFC"/>
<circle cx="199.487" cy="140.09" r="2.60509" fill="#6AEDFC"/>
</g>
<g filter="url(#filter0_d)">
<mask id="path-1-inside-1" fill="white">
<path d="M40.4707 40.3315C40.4707 39.2031 41.1039 38.1702 42.1094 37.6582L113.878 1.11356C114.704 0.693189 115.677 0.677811 116.516 1.07189L194.406 37.6823C195.458 38.1769 196.13 39.2348 196.13 40.3974V136.887C196.13 138.057 195.449 139.12 194.387 139.611L116.496 175.564C115.669 175.946 114.712 175.931 113.897 175.523L42.1289 139.635C41.1127 139.127 40.4707 138.088 40.4707 136.952V40.3315Z"/>
</mask>
<path d="M40.4707 40.3315C40.4707 39.2031 41.1039 38.1702 42.1094 37.6582L113.878 1.11356C114.704 0.693189 115.677 0.677811 116.516 1.07189L194.406 37.6823C195.458 38.1769 196.13 39.2348 196.13 40.3974V136.887C196.13 138.057 195.449 139.12 194.387 139.611L116.496 175.564C115.669 175.946 114.712 175.931 113.897 175.523L42.1289 139.635C41.1127 139.127 40.4707 138.088 40.4707 136.952V40.3315Z" stroke="url(#paint0_linear)" stroke-width="4" mask="url(#path-1-inside-1)"/>
</g>
<g filter="url(#filter1_d)">
<g clip-path="url(#clip0)">
<mask id="path-8-inside-2" fill="white">
<path d="M138.371 41.9717H93.7862C79.3335 41.9717 67.5752 54.2892 67.5752 69.4293V116.135C67.5752 131.275 79.3335 143.592 93.7862 143.592H138.371C152.824 143.592 164.582 131.275 164.582 116.135V69.4293C164.582 54.2892 152.824 41.9717 138.371 41.9717ZM156.745 116.135C156.745 126.748 148.503 135.383 138.371 135.383H93.7862C83.6549 135.383 75.4123 126.748 75.4123 116.135V69.4293C75.4123 58.8161 83.6547 50.1815 93.7862 50.1815H138.371C148.503 50.1815 156.745 58.8159 156.745 69.4293V116.135Z"/>
</mask>
<path d="M138.371 41.9717H93.7862C79.3335 41.9717 67.5752 54.2892 67.5752 69.4293V116.135C67.5752 131.275 79.3335 143.592 93.7862 143.592H138.371C152.824 143.592 164.582 131.275 164.582 116.135V69.4293C164.582 54.2892 152.824 41.9717 138.371 41.9717ZM156.745 116.135C156.745 126.748 148.503 135.383 138.371 135.383H93.7862C83.6549 135.383 75.4123 126.748 75.4123 116.135V69.4293C75.4123 58.8161 83.6547 50.1815 93.7862 50.1815H138.371C148.503 50.1815 156.745 58.8159 156.745 69.4293V116.135Z" fill="#6AEDFC" stroke="#1E1E1E" stroke-width="6" mask="url(#path-8-inside-2)"/>
<mask id="path-9-inside-3" fill="white">
<path d="M137.789 89.2373C137.1 84.3653 134.978 79.9495 131.653 76.4669C128.329 72.9844 124.113 70.7614 119.463 70.0391C117.345 69.7103 115.198 69.7103 113.081 70.0391C107.333 70.9321 102.262 74.1161 98.8005 79.0048C95.3391 83.8935 93.902 89.9018 94.7544 95.9225C95.6068 101.943 98.6462 107.256 103.313 110.882C107.102 113.826 111.594 115.372 116.226 115.372C117.299 115.372 118.381 115.289 119.462 115.12C125.21 114.228 130.282 111.044 133.743 106.155C137.204 101.266 138.642 95.2582 137.789 89.2373ZM118.313 106.999C114.636 107.571 110.967 106.608 107.982 104.288C104.996 101.969 103.052 98.5698 102.507 94.7183C101.962 90.8668 102.881 87.0233 105.095 83.8959C107.31 80.7685 110.554 78.7317 114.231 78.1605C114.908 78.0553 115.59 78.0027 116.272 78.0027C116.953 78.0027 117.636 78.0553 118.313 78.1607C124.419 79.1092 129.131 84.0446 130.037 90.4419C131.162 98.3925 125.903 105.82 118.313 106.999Z"/>
</mask>
<path d="M137.789 89.2373C137.1 84.3653 134.978 79.9495 131.653 76.4669C128.329 72.9844 124.113 70.7614 119.463 70.0391C117.345 69.7103 115.198 69.7103 113.081 70.0391C107.333 70.9321 102.262 74.1161 98.8005 79.0048C95.3391 83.8935 93.902 89.9018 94.7544 95.9225C95.6068 101.943 98.6462 107.256 103.313 110.882C107.102 113.826 111.594 115.372 116.226 115.372C117.299 115.372 118.381 115.289 119.462 115.12C125.21 114.228 130.282 111.044 133.743 106.155C137.204 101.266 138.642 95.2582 137.789 89.2373ZM118.313 106.999C114.636 107.571 110.967 106.608 107.982 104.288C104.996 101.969 103.052 98.5698 102.507 94.7183C101.962 90.8668 102.881 87.0233 105.095 83.8959C107.31 80.7685 110.554 78.7317 114.231 78.1605C114.908 78.0553 115.59 78.0027 116.272 78.0027C116.953 78.0027 117.636 78.0553 118.313 78.1607C124.419 79.1092 129.131 84.0446 130.037 90.4419C131.162 98.3925 125.903 105.82 118.313 106.999Z" fill="#6AEDFC" stroke="#1E1E1E" stroke-width="6" mask="url(#path-9-inside-3)"/>
<mask id="path-10-inside-4" fill="white">
<path d="M143.371 64.1916C142.641 63.4273 141.631 62.9893 140.6 62.9893C139.569 62.9893 138.559 63.4271 137.829 64.1916C137.1 64.9562 136.681 66.0125 136.681 67.0944C136.681 68.1763 137.1 69.2326 137.829 69.9971C138.559 70.7615 139.569 71.1995 140.6 71.1995C141.631 71.1995 142.641 70.7617 143.371 69.9971C144.101 69.2326 144.519 68.1745 144.519 67.0944C144.519 66.0141 144.101 64.956 143.371 64.1916Z"/>
</mask>
<path d="M143.371 64.1916C142.641 63.4273 141.631 62.9893 140.6 62.9893C139.569 62.9893 138.559 63.4271 137.829 64.1916C137.1 64.9562 136.681 66.0125 136.681 67.0944C136.681 68.1763 137.1 69.2326 137.829 69.9971C138.559 70.7615 139.569 71.1995 140.6 71.1995C141.631 71.1995 142.641 70.7617 143.371 69.9971C144.101 69.2326 144.519 68.1745 144.519 67.0944C144.519 66.0141 144.101 64.956 143.371 64.1916Z" fill="#6AEDFC" stroke="#1E1E1E" stroke-width="6" mask="url(#path-10-inside-4)"/>
</g>
</g>
<defs>
<filter id="filter0_d" x="0.572266" y="0.787109" width="213.569" height="183.053" filterUnits="userSpaceOnUse" color-interpolation-filters="sRGB">
<feFlood flood-opacity="0" result="BackgroundImageFix"/>
<feColorMatrix in="SourceAlpha" type="matrix" values="0 0 0 0 0 0 0 0 0 0 0 0 0 0 0 0 0 0 127 0"/>
<feOffset dy="4"/>
<feGaussianBlur stdDeviation="2"/>
<feColorMatrix type="matrix" values="0 0 0 0 0 0 0 0 0 0 0 0 0 0 0 0 0 0 0.25 0"/>
<feBlend mode="normal" in2="BackgroundImageFix" result="effect1_dropShadow"/>
<feBlend mode="normal" in="SourceGraphic" in2="effect1_dropShadow" result="shape"/>
</filter>
<filter id="filter1_d" x="63.5752" y="41.9717" width="105.007" height="109.621" filterUnits="userSpaceOnUse" color-interpolation-filters="sRGB">
<feFlood flood-opacity="0" result="BackgroundImageFix"/>
<feColorMatrix in="SourceAlpha" type="matrix" values="0 0 0 0 0 0 0 0 0 0 0 0 0 0 0 0 0 0 127 0"/>
<feOffset dy="4"/>
<feGaussianBlur stdDeviation="2"/>
<feColorMatrix type="matrix" values="0 0 0 0 0 0 0 0 0 0 0 0 0 0 0 0 0 0 0.25 0"/>
<feBlend mode="normal" in2="BackgroundImageFix" result="effect1_dropShadow"/>
<feBlend mode="normal" in="SourceGraphic" in2="effect1_dropShadow" result="shape"/>
</filter>
<linearGradient id="paint0_linear" x1="196.13" y1="64.7065" x2="45.7684" y2="97.3025" gradientUnits="userSpaceOnUse">
<stop stop-opacity="0"/>
<stop offset="0.770833" stop-color="#6AEDFC"/>
</linearGradient>
<clipPath id="clip0">
<rect width="97.0071" height="101.621" fill="white" transform="translate(67.5752 41.9717)"/>
</clipPath>
</defs>
</svg>
