<svg width="213" height="183" viewBox="0 -40 214 250" fill="none" xmlns="http://www.w3.org/2000/svg">

<g filter="url(#filter0_d)">
<mask id="path-1-inside-1" fill="white">
<path d="M40.168 40.0107C40.168 38.8823 40.8012 37.8494 41.8067 37.3374L112.946 1.11356C113.771 0.693188 114.745 0.677811 115.583 1.07189L192.79 37.3615C193.843 37.8561 194.514 38.914 194.514 40.0766V135.72C194.514 136.89 193.834 137.953 192.772 138.444L115.564 174.082C114.736 174.464 113.78 174.449 112.964 174.042L41.8262 138.469C40.8099 137.96 40.168 136.922 40.168 135.785V40.0107Z"/>
</mask>
<path d="M40.168 40.0107C40.168 38.8823 40.8012 37.8494 41.8067 37.3374L112.946 1.11356C113.771 0.693188 114.745 0.677811 115.583 1.07189L192.79 37.3615C193.843 37.8561 194.514 38.914 194.514 40.0766V135.72C194.514 136.89 193.834 137.953 192.772 138.444L115.564 174.082C114.736 174.464 113.78 174.449 112.964 174.042L41.8262 138.469C40.8099 137.96 40.168 136.922 40.168 135.785V40.0107Z" stroke="url(#paint0_linear)" stroke-width="4" mask="url(#path-1-inside-1)"/>
</g>
<g clip-path="url(#clip0)" filter="url(#filter1_d)">
<mask id="path-8-inside-2" fill="white">
<path d="M70.7689 57.555L76.4378 67.4748C76.629 67.81 76.949 68.0526 77.3233 68.1464L82.612 69.4686L100.751 87.6078L102.755 85.6041L84.3324 67.1816C84.1511 66.9997 83.9237 66.8709 83.6748 66.8085L78.593 65.5335L73.7666 57.0828L77.9045 52.9448L86.3588 57.7759L87.6343 62.8577C87.6961 63.1072 87.8255 63.3351 88.0068 63.5164L106.43 81.9395L108.434 79.9353L90.2944 61.7961L88.9722 56.5103C88.8784 56.1354 88.6359 55.8148 88.3007 55.623L78.3802 49.9548C77.827 49.64 77.1309 49.7332 76.6797 50.1827L71.0114 55.8515C70.5556 56.2998 70.4565 56.9971 70.7689 57.555Z"/>
</mask>
<path d="M70.7689 57.555L76.4378 67.4748C76.629 67.81 76.949 68.0526 77.3233 68.1464L82.612 69.4686L100.751 87.6078L102.755 85.6041L84.3324 67.1816C84.1511 66.9997 83.9237 66.8709 83.6748 66.8085L78.593 65.5335L73.7666 57.0828L77.9045 52.9448L86.3588 57.7759L87.6343 62.8577C87.6961 63.1072 87.8255 63.3351 88.0068 63.5164L106.43 81.9395L108.434 79.9353L90.2944 61.7961L88.9722 56.5103C88.8784 56.1354 88.6359 55.8148 88.3007 55.623L78.3802 49.9548C77.827 49.64 77.1309 49.7332 76.6797 50.1827L71.0114 55.8515C70.5556 56.2998 70.4565 56.9971 70.7689 57.555Z" fill="#6AEDFC" stroke="#1B1B1B" mask="url(#path-8-inside-2)"/>
<mask id="path-9-inside-3" fill="white">
<path d="M129.687 77.6873L98.5102 108.865L96.506 106.86L127.683 75.6836L129.687 77.6873Z"/>
</mask>
<path d="M129.687 77.6873L98.5102 108.865L96.506 106.86L127.683 75.6836L129.687 77.6873Z" fill="#6AEDFC" stroke="#1B1B1B" mask="url(#path-9-inside-3)"/>
<mask id="path-10-inside-4" fill="white">
<path d="M93.0535 109.968C92.797 109.541 92.3365 109.28 91.8386 109.28H83.336C82.8387 109.28 82.3776 109.541 82.1217 109.968L77.87 117.053C77.6001 117.502 77.6001 118.063 77.87 118.513L82.1217 125.598C82.3776 126.024 82.8387 126.286 83.336 126.286H91.8386C92.3365 126.286 92.797 126.024 93.0535 125.598L97.3046 118.513C97.5745 118.063 97.5745 117.502 97.3046 117.053L93.0535 109.968ZM91.037 123.451H84.1382L80.7371 117.783L84.1382 112.114H91.037L94.4381 117.783L91.037 123.451Z"/>
</mask>
<path d="M93.0535 109.968C92.797 109.541 92.3365 109.28 91.8386 109.28H83.336C82.8387 109.28 82.3776 109.541 82.1217 109.968L77.87 117.053C77.6001 117.502 77.6001 118.063 77.87 118.513L82.1217 125.598C82.3776 126.024 82.8387 126.286 83.336 126.286H91.8386C92.3365 126.286 92.797 126.024 93.0535 125.598L97.3046 118.513C97.5745 118.063 97.5745 117.502 97.3046 117.053L93.0535 109.968ZM91.037 123.451H84.1382L80.7371 117.783L84.1382 112.114H91.037L94.4381 117.783L91.037 123.451Z" fill="#6AEDFC" stroke="#1B1B1B" mask="url(#path-10-inside-4)"/>
<mask id="path-11-inside-5" fill="white">
<path d="M138.605 83.7719C147.965 83.8034 155.578 76.241 155.61 66.8814C155.614 65.4566 155.439 64.0377 155.089 62.6566C154.9 61.897 154.131 61.4347 153.372 61.6236C153.122 61.686 152.895 61.8148 152.713 61.9961L143.891 70.8118L136.892 68.4793L134.558 61.4819L143.38 52.6586C143.933 52.1048 143.932 51.2076 143.378 50.6544C143.196 50.4719 142.966 50.3425 142.715 50.2807C133.638 47.982 124.417 53.4766 122.119 62.5529C121.769 63.9298 121.595 65.3453 121.6 66.766C121.603 67.8818 121.718 68.9941 121.944 70.0866L90.9086 101.122C89.8161 100.896 88.7038 100.781 87.5885 100.777C78.1963 100.777 70.5826 108.391 70.5826 117.783C70.5826 127.175 78.1963 134.788 87.5885 134.788C96.9802 134.788 104.594 127.175 104.594 117.783C104.59 116.667 104.475 115.555 104.249 114.462L111.679 107.032L114.929 110.282C115.483 110.835 116.379 110.835 116.933 110.282L117.641 109.573C118.263 108.956 119.267 108.956 119.889 109.573C120.51 110.192 120.511 111.197 119.892 111.818C119.891 111.819 119.89 111.82 119.889 111.821L119.18 112.529C118.627 113.083 118.627 113.98 119.18 114.533L136.085 131.438C140.532 135.925 147.773 135.958 152.261 131.511C156.747 127.065 156.78 119.823 152.333 115.336C152.31 115.312 152.285 115.287 152.261 115.263L135.356 98.3584C134.802 97.8052 133.905 97.8052 133.352 98.3584L132.644 99.0667C132.022 99.6847 131.018 99.6847 130.396 99.0667C129.775 98.4476 129.774 97.4426 130.393 96.8223C130.394 96.8211 130.395 96.8205 130.396 96.8194L131.104 96.1105C131.658 95.5572 131.658 94.66 131.104 94.1068L127.855 90.8573L135.285 83.4273C136.377 83.653 137.49 83.7684 138.605 83.7719ZM144.173 131.955C143.143 131.953 142.123 131.767 141.159 131.405L152.227 120.336C153.897 124.779 151.65 129.735 147.207 131.405C146.237 131.769 145.21 131.956 144.173 131.955ZM128.119 95.1229C126.549 96.9949 126.795 99.785 128.667 101.354C130.312 102.732 132.71 102.731 134.353 101.35L150.257 117.267C150.429 117.44 150.591 117.623 150.747 117.808L138.631 129.925C138.445 129.769 138.262 129.607 138.089 129.434L122.173 113.517C123.743 111.646 123.497 108.855 121.625 107.287C119.98 105.907 117.581 105.909 115.938 107.29L113.671 105.023L125.851 92.861L128.119 95.1229ZM133.841 80.8698L101.693 113.011C101.34 113.364 101.199 113.875 101.319 114.358C103.263 121.993 98.6493 129.759 91.0135 131.703C83.3783 133.647 75.6125 129.033 73.6683 121.397C71.7247 113.762 76.3383 105.997 83.9741 104.052C86.2838 103.465 88.7038 103.465 91.0135 104.052C91.4968 104.171 92.0069 104.029 92.3602 103.679L124.501 71.5365C124.853 71.1843 124.994 70.6731 124.873 70.1904C122.942 62.6444 127.494 54.962 135.04 53.0306C136.466 52.6662 137.941 52.5263 139.41 52.6178L131.935 60.0962C131.555 60.4751 131.422 61.0365 131.592 61.5455L134.426 70.0487C134.567 70.4714 134.9 70.8037 135.323 70.9442L143.826 73.7786C144.334 73.9482 144.896 73.8159 145.275 73.4369L152.751 65.9615C152.768 66.232 152.776 66.4996 152.776 66.766C152.816 74.5528 146.536 80.8972 138.75 80.9375C137.546 80.9433 136.346 80.7952 135.18 80.4967C134.697 80.3761 134.185 80.5171 133.833 80.8693H133.841V80.8698Z"/>
</mask>
<path d="M138.605 83.7719C147.965 83.8034 155.578 76.241 155.61 66.8814C155.614 65.4566 155.439 64.0377 155.089 62.6566C154.9 61.897 154.131 61.4347 153.372 61.6236C153.122 61.686 152.895 61.8148 152.713 61.9961L143.891 70.8118L136.892 68.4793L134.558 61.4819L143.38 52.6586C143.933 52.1048 143.932 51.2076 143.378 50.6544C143.196 50.4719 142.966 50.3425 142.715 50.2807C133.638 47.982 124.417 53.4766 122.119 62.5529C121.769 63.9298 121.595 65.3453 121.6 66.766C121.603 67.8818 121.718 68.9941 121.944 70.0866L90.9086 101.122C89.8161 100.896 88.7038 100.781 87.5885 100.777C78.1963 100.777 70.5826 108.391 70.5826 117.783C70.5826 127.175 78.1963 134.788 87.5885 134.788C96.9802 134.788 104.594 127.175 104.594 117.783C104.59 116.667 104.475 115.555 104.249 114.462L111.679 107.032L114.929 110.282C115.483 110.835 116.379 110.835 116.933 110.282L117.641 109.573C118.263 108.956 119.267 108.956 119.889 109.573C120.51 110.192 120.511 111.197 119.892 111.818C119.891 111.819 119.89 111.82 119.889 111.821L119.18 112.529C118.627 113.083 118.627 113.98 119.18 114.533L136.085 131.438C140.532 135.925 147.773 135.958 152.261 131.511C156.747 127.065 156.78 119.823 152.333 115.336C152.31 115.312 152.285 115.287 152.261 115.263L135.356 98.3584C134.802 97.8052 133.905 97.8052 133.352 98.3584L132.644 99.0667C132.022 99.6847 131.018 99.6847 130.396 99.0667C129.775 98.4476 129.774 97.4426 130.393 96.8223C130.394 96.8211 130.395 96.8205 130.396 96.8194L131.104 96.1105C131.658 95.5572 131.658 94.66 131.104 94.1068L127.855 90.8573L135.285 83.4273C136.377 83.653 137.49 83.7684 138.605 83.7719ZM144.173 131.955C143.143 131.953 142.123 131.767 141.159 131.405L152.227 120.336C153.897 124.779 151.65 129.735 147.207 131.405C146.237 131.769 145.21 131.956 144.173 131.955ZM128.119 95.1229C126.549 96.9949 126.795 99.785 128.667 101.354C130.312 102.732 132.71 102.731 134.353 101.35L150.257 117.267C150.429 117.44 150.591 117.623 150.747 117.808L138.631 129.925C138.445 129.769 138.262 129.607 138.089 129.434L122.173 113.517C123.743 111.646 123.497 108.855 121.625 107.287C119.98 105.907 117.581 105.909 115.938 107.29L113.671 105.023L125.851 92.861L128.119 95.1229ZM133.841 80.8698L101.693 113.011C101.34 113.364 101.199 113.875 101.319 114.358C103.263 121.993 98.6493 129.759 91.0135 131.703C83.3783 133.647 75.6125 129.033 73.6683 121.397C71.7247 113.762 76.3383 105.997 83.9741 104.052C86.2838 103.465 88.7038 103.465 91.0135 104.052C91.4968 104.171 92.0069 104.029 92.3602 103.679L124.501 71.5365C124.853 71.1843 124.994 70.6731 124.873 70.1904C122.942 62.6444 127.494 54.962 135.04 53.0306C136.466 52.6662 137.941 52.5263 139.41 52.6178L131.935 60.0962C131.555 60.4751 131.422 61.0365 131.592 61.5455L134.426 70.0487C134.567 70.4714 134.9 70.8037 135.323 70.9442L143.826 73.7786C144.334 73.9482 144.896 73.8159 145.275 73.4369L152.751 65.9615C152.768 66.232 152.776 66.4996 152.776 66.766C152.816 74.5528 146.536 80.8972 138.75 80.9375C137.546 80.9433 136.346 80.7952 135.18 80.4967C134.697 80.3761 134.185 80.5171 133.833 80.8693H133.841V80.8698Z" fill="#6AEDFC" stroke="#1B1B1B" mask="url(#path-11-inside-5)"/>
<mask id="path-12-inside-6" fill="white">
<path d="M143.859 121.032L141.855 123.036L127.684 108.865L129.688 106.861L143.859 121.032Z"/>
</mask>
<path d="M143.859 121.032L141.855 123.036L127.684 108.865L129.688 106.861L143.859 121.032Z" fill="#6AEDFC" stroke="#1B1B1B" mask="url(#path-12-inside-6)"/>
</g>
<defs>
<filter id="filter0_d" x="0.572266" y="0.787109" width="211.836" height="181.572" filterUnits="userSpaceOnUse" color-interpolation-filters="sRGB">
<feFlood flood-opacity="0" result="BackgroundImageFix"/>
<feColorMatrix in="SourceAlpha" type="matrix" values="0 0 0 0 0 0 0 0 0 0 0 0 0 0 0 0 0 0 127 0"/>
<feOffset dy="4"/>
<feGaussianBlur stdDeviation="2"/>
<feColorMatrix type="matrix" values="0 0 0 0 0 0 0 0 0 0 0 0 0 0 0 0 0 0 0.25 0"/>
<feBlend mode="normal" in2="BackgroundImageFix" result="effect1_dropShadow"/>
<feBlend mode="normal" in="SourceGraphic" in2="effect1_dropShadow" result="shape"/>
</filter>
<filter id="filter1_d" x="66.5" y="49.7578" width="93" height="93" filterUnits="userSpaceOnUse" color-interpolation-filters="sRGB">
<feFlood flood-opacity="0" result="BackgroundImageFix"/>
<feColorMatrix in="SourceAlpha" type="matrix" values="0 0 0 0 0 0 0 0 0 0 0 0 0 0 0 0 0 0 127 0"/>
<feOffset dy="4"/>
<feGaussianBlur stdDeviation="2"/>
<feColorMatrix type="matrix" values="0 0 0 0 0 0 0 0 0 0 0 0 0 0 0 0 0 0 0.25 0"/>
<feBlend mode="normal" in2="BackgroundImageFix" result="effect1_dropShadow"/>
<feBlend mode="normal" in="SourceGraphic" in2="effect1_dropShadow" result="shape"/>
</filter>
<linearGradient id="paint0_linear" x1="194.514" y1="64.1647" x2="45.421" y2="96.4857" gradientUnits="userSpaceOnUse">
<stop stop-opacity="0"/>
<stop offset="0.770833" stop-color="#6AEDFC"/>
</linearGradient>
<clipPath id="clip0">
<rect width="85" height="85" fill="white" transform="translate(70.5 49.7578)"/>
</clipPath>
</defs>
</svg>
