<svg width="216" height="185" viewBox="0 -40 214 250" fill="none" xmlns="http://www.w3.org/2000/svg">
	<g>
		<animateTransform attributeName="transform" type="rotate" values="0 108.0 92.5; 360 108.0 92.5" calcMode="linear" begin="0s" dur="15s" repeatCount="indefinite"  />
<circle cx="36.4814" cy="11.845" r="2.72923" fill="#6AEDFC"/>
<circle cx="46.9087" cy="14.5185" r="2.67472" fill="#6AEDFC"/>
<circle cx="7.18754" cy="80.3442" r="2.32365" fill="#6AEDFC"/>
<circle cx="206.942" cy="98.3891" r="4.2787" fill="#6AEDFC"/>
<circle cx="177.863" cy="114.316" r="2.77342" fill="#6AEDFC"/>
<circle cx="200.525" cy="140.624" r="2.61506" fill="#6AEDFC"/>
</g>
<g filter="url(#filter0_d)">
<mask id="path-1-inside-1" fill="white">
<path d="M40.9017 40.4771C40.9017 39.3487 41.5349 38.3157 42.5404 37.8037L114.595 1.11356C115.421 0.693189 116.394 0.677811 117.233 1.07189L195.432 37.8279C196.484 38.3224 197.156 39.3804 197.156 40.5429V137.416C197.156 138.586 196.476 139.649 195.413 140.14L117.213 176.236C116.386 176.618 115.429 176.603 114.614 176.196L42.5599 140.165C41.5436 139.656 40.9017 138.618 40.9017 137.481V40.4771Z"/>
</mask>
<path d="M40.9017 40.4771C40.9017 39.3487 41.5349 38.3157 42.5404 37.8037L114.595 1.11356C115.421 0.693189 116.394 0.677811 117.233 1.07189L195.432 37.8279C196.484 38.3224 197.156 39.3804 197.156 40.5429V137.416C197.156 138.586 196.476 139.649 195.413 140.14L117.213 176.236C116.386 176.618 115.429 176.603 114.614 176.196L42.5599 140.165C41.5436 139.656 40.9017 138.618 40.9017 137.481V40.4771Z" stroke="url(#paint0_linear)" stroke-width="4" mask="url(#path-1-inside-1)"/>
</g>
<g clip-path="url(#clip0)" filter="url(#filter1_d)">
<mask id="path-8-inside-2" fill="white">
<path d="M144.14 41.5356C135.432 41.5356 128.348 48.6196 128.348 57.327C128.348 61.8186 130.236 65.8751 133.257 68.7534C133.334 68.8392 133.417 68.9205 133.509 68.9934C136.317 71.5544 140.049 73.1184 144.14 73.1184C148.23 73.1184 151.962 71.5544 154.771 68.9934C154.862 68.9202 154.945 68.8392 155.022 68.7534C158.043 65.8751 159.931 61.8186 159.931 57.327C159.931 48.6196 152.847 41.5356 144.14 41.5356ZM144.14 68.8505C141.678 68.8505 139.396 68.072 137.521 66.7517C138.945 64.5117 141.406 63.1252 144.14 63.1252C146.873 63.1252 149.334 64.5119 150.758 66.7517C148.883 68.072 146.601 68.8505 144.14 68.8505ZM141.943 56.6608V55.5782C141.943 54.3672 142.928 53.382 144.14 53.382C145.351 53.382 146.336 54.3672 146.336 55.5782V56.6608C146.336 57.872 145.351 58.8573 144.14 58.8573C142.928 58.8573 141.943 57.872 141.943 56.6608ZM153.784 63.6233C152.662 62.1447 151.225 60.9569 149.585 60.1368C150.229 59.1322 150.604 57.9397 150.604 56.6608V55.5782C150.604 52.0139 147.704 49.114 144.14 49.114C140.575 49.114 137.675 52.0139 137.675 55.5782V56.6608C137.675 57.9399 138.05 59.1322 138.694 60.1368C137.055 60.9569 135.617 62.1445 134.495 63.6233C133.309 61.812 132.616 59.6494 132.616 57.327C132.616 50.9729 137.785 45.8036 144.14 45.8036C150.494 45.8036 155.663 50.9729 155.663 57.327C155.663 59.6494 154.97 61.812 153.784 63.6233Z"/>
</mask>
<path d="M144.14 41.5356C135.432 41.5356 128.348 48.6196 128.348 57.327C128.348 61.8186 130.236 65.8751 133.257 68.7534C133.334 68.8392 133.417 68.9205 133.509 68.9934C136.317 71.5544 140.049 73.1184 144.14 73.1184C148.23 73.1184 151.962 71.5544 154.771 68.9934C154.862 68.9202 154.945 68.8392 155.022 68.7534C158.043 65.8751 159.931 61.8186 159.931 57.327C159.931 48.6196 152.847 41.5356 144.14 41.5356ZM144.14 68.8505C141.678 68.8505 139.396 68.072 137.521 66.7517C138.945 64.5117 141.406 63.1252 144.14 63.1252C146.873 63.1252 149.334 64.5119 150.758 66.7517C148.883 68.072 146.601 68.8505 144.14 68.8505ZM141.943 56.6608V55.5782C141.943 54.3672 142.928 53.382 144.14 53.382C145.351 53.382 146.336 54.3672 146.336 55.5782V56.6608C146.336 57.872 145.351 58.8573 144.14 58.8573C142.928 58.8573 141.943 57.872 141.943 56.6608ZM153.784 63.6233C152.662 62.1447 151.225 60.9569 149.585 60.1368C150.229 59.1322 150.604 57.9397 150.604 56.6608V55.5782C150.604 52.0139 147.704 49.114 144.14 49.114C140.575 49.114 137.675 52.0139 137.675 55.5782V56.6608C137.675 57.9399 138.05 59.1322 138.694 60.1368C137.055 60.9569 135.617 62.1445 134.495 63.6233C133.309 61.812 132.616 59.6494 132.616 57.327C132.616 50.9729 137.785 45.8036 144.14 45.8036C150.494 45.8036 155.663 50.9729 155.663 57.327C155.663 59.6494 154.97 61.812 153.784 63.6233Z" fill="#6AEDFC" stroke="#1E1E1E" stroke-width="2" mask="url(#path-8-inside-2)"/>
<mask id="path-9-inside-3" fill="white">
<path d="M168.751 115.693C165.935 112.877 161.512 112.474 158.234 114.735C158.209 114.752 158.186 114.769 158.162 114.786L146.2 123.782C145.258 124.49 145.069 125.828 145.777 126.77C146.486 127.712 147.823 127.902 148.765 127.193L160.689 118.226C162.268 117.159 164.383 117.36 165.733 118.711C166.444 119.422 166.807 120.368 166.755 121.373C166.702 122.378 166.243 123.281 165.46 123.914L154.542 132.758C150.375 136.132 145.128 137.991 139.767 137.991H108.183C103.895 137.991 99.6904 136.817 96.023 134.595L87.4293 129.391V102.382H103.886C106.166 102.382 108.309 103.27 109.918 104.879L121.271 116.285C122.883 117.897 125.026 118.785 127.306 118.785H135.679C137.442 118.785 138.876 120.219 138.876 121.982C138.876 123.744 137.442 125.178 135.679 125.178H119.599C118.124 125.178 116.691 124.753 115.455 123.949L108.607 119.495L108.582 119.479C107.595 118.835 106.273 119.112 105.629 120.099C104.984 121.086 105.262 122.409 106.249 123.053L113.128 127.527C115.058 128.783 117.296 129.446 119.599 129.446H135.679C139.795 129.446 143.143 126.098 143.143 121.982C143.143 117.866 139.795 114.517 135.679 114.517H127.442L145.183 104.274H166.759C169.113 104.274 171.027 102.36 171.027 100.006V37.2675C171.027 34.9141 169.113 32.9995 166.759 32.9995H121.519C119.166 32.9995 117.251 34.9141 117.251 37.2675V100.006C117.251 102.36 119.166 104.274 121.519 104.274H136.647L123.115 112.087L123.114 112.087L112.939 101.864C110.521 99.446 107.305 98.1142 103.885 98.1142H87.4291V94.3512C87.4291 91.9978 85.5145 90.0832 83.1611 90.0832H63.902C62.7234 90.0832 61.7681 91.0388 61.7681 92.2172V140.125C61.7681 141.303 62.7234 142.259 63.902 142.259H83.1611C85.5145 142.259 87.4291 140.344 87.4291 137.991V134.38L93.8118 138.246C98.1463 140.871 103.116 142.259 108.183 142.259H139.767C146.103 142.259 152.304 140.062 157.228 136.075L168.147 127.231C169.856 125.846 170.902 123.793 171.017 121.596C171.132 119.4 170.306 117.248 168.751 115.693ZM121.519 100.006V37.2675H166.759L166.762 100.006C166.762 100.006 166.761 100.006 166.759 100.006H121.519ZM83.1611 137.991H66.036V94.3512H83.1611L83.1615 100.241C83.1615 100.243 83.1611 100.246 83.1611 100.248C83.1611 100.251 83.1615 100.253 83.1615 100.256L83.1635 130.489C83.1609 130.543 83.162 130.597 83.1635 130.65L83.1639 137.991C83.1639 137.991 83.163 137.991 83.1611 137.991Z"/>
</mask>
<path d="M168.751 115.693C165.935 112.877 161.512 112.474 158.234 114.735C158.209 114.752 158.186 114.769 158.162 114.786L146.2 123.782C145.258 124.49 145.069 125.828 145.777 126.77C146.486 127.712 147.823 127.902 148.765 127.193L160.689 118.226C162.268 117.159 164.383 117.36 165.733 118.711C166.444 119.422 166.807 120.368 166.755 121.373C166.702 122.378 166.243 123.281 165.46 123.914L154.542 132.758C150.375 136.132 145.128 137.991 139.767 137.991H108.183C103.895 137.991 99.6904 136.817 96.023 134.595L87.4293 129.391V102.382H103.886C106.166 102.382 108.309 103.27 109.918 104.879L121.271 116.285C122.883 117.897 125.026 118.785 127.306 118.785H135.679C137.442 118.785 138.876 120.219 138.876 121.982C138.876 123.744 137.442 125.178 135.679 125.178H119.599C118.124 125.178 116.691 124.753 115.455 123.949L108.607 119.495L108.582 119.479C107.595 118.835 106.273 119.112 105.629 120.099C104.984 121.086 105.262 122.409 106.249 123.053L113.128 127.527C115.058 128.783 117.296 129.446 119.599 129.446H135.679C139.795 129.446 143.143 126.098 143.143 121.982C143.143 117.866 139.795 114.517 135.679 114.517H127.442L145.183 104.274H166.759C169.113 104.274 171.027 102.36 171.027 100.006V37.2675C171.027 34.9141 169.113 32.9995 166.759 32.9995H121.519C119.166 32.9995 117.251 34.9141 117.251 37.2675V100.006C117.251 102.36 119.166 104.274 121.519 104.274H136.647L123.115 112.087L123.114 112.087L112.939 101.864C110.521 99.446 107.305 98.1142 103.885 98.1142H87.4291V94.3512C87.4291 91.9978 85.5145 90.0832 83.1611 90.0832H63.902C62.7234 90.0832 61.7681 91.0388 61.7681 92.2172V140.125C61.7681 141.303 62.7234 142.259 63.902 142.259H83.1611C85.5145 142.259 87.4291 140.344 87.4291 137.991V134.38L93.8118 138.246C98.1463 140.871 103.116 142.259 108.183 142.259H139.767C146.103 142.259 152.304 140.062 157.228 136.075L168.147 127.231C169.856 125.846 170.902 123.793 171.017 121.596C171.132 119.4 170.306 117.248 168.751 115.693ZM121.519 100.006V37.2675H166.759L166.762 100.006C166.762 100.006 166.761 100.006 166.759 100.006H121.519ZM83.1611 137.991H66.036V94.3512H83.1611L83.1615 100.241C83.1615 100.243 83.1611 100.246 83.1611 100.248C83.1611 100.251 83.1615 100.253 83.1615 100.256L83.1635 130.489C83.1609 130.543 83.162 130.597 83.1635 130.65L83.1639 137.991C83.1639 137.991 83.163 137.991 83.1611 137.991Z" fill="#6AEDFC" stroke="#1E1E1E" stroke-width="2" mask="url(#path-9-inside-3)"/>
<mask id="path-10-inside-4" fill="white">
<path d="M111.737 43.7475C111.148 42.7269 109.843 42.3771 108.822 42.9665L89.6114 54.0578C87.5734 55.2347 86.8729 57.8501 88.0493 59.8878L106.694 92.1808C107.089 92.8653 107.806 93.2482 108.544 93.2482C108.905 93.2482 109.272 93.1558 109.609 92.9618C110.629 92.3724 110.979 91.0675 110.39 90.0468L91.7454 57.7538L110.956 46.6625C111.977 46.0733 112.327 44.7682 111.737 43.7475Z"/>
</mask>
<path d="M111.737 43.7475C111.148 42.7269 109.843 42.3771 108.822 42.9665L89.6114 54.0578C87.5734 55.2347 86.8729 57.8501 88.0493 59.8878L106.694 92.1808C107.089 92.8653 107.806 93.2482 108.544 93.2482C108.905 93.2482 109.272 93.1558 109.609 92.9618C110.629 92.3724 110.979 91.0675 110.39 90.0468L91.7454 57.7538L110.956 46.6625C111.977 46.0733 112.327 44.7682 111.737 43.7475Z" fill="#6AEDFC" stroke="#1E1E1E" stroke-width="2" mask="url(#path-10-inside-4)"/>
<mask id="path-11-inside-5" fill="white">
<path d="M157.37 78.2397H132.616C131.437 78.2397 130.482 79.1951 130.482 80.3737C130.482 81.5523 131.437 82.5077 132.616 82.5077H157.37C158.549 82.5077 159.504 81.5523 159.504 80.3737C159.504 79.1951 158.549 78.2397 157.37 78.2397Z"/>
</mask>
<path d="M157.37 78.2397H132.616C131.437 78.2397 130.482 79.1951 130.482 80.3737C130.482 81.5523 131.437 82.5077 132.616 82.5077H157.37C158.549 82.5077 159.504 81.5523 159.504 80.3737C159.504 79.1951 158.549 78.2397 157.37 78.2397Z" fill="#6AEDFC" stroke="#1E1E1E" stroke-width="2" mask="url(#path-11-inside-5)"/>
<mask id="path-12-inside-6" fill="white">
<path d="M158.879 88.2542C158.482 87.8572 157.931 87.6289 157.37 87.6289C156.809 87.6289 156.258 87.857 155.861 88.2542C155.464 88.6511 155.236 89.2016 155.236 89.7629C155.236 90.3241 155.464 90.8747 155.861 91.2714C156.258 91.6683 156.809 91.8969 157.37 91.8969C157.931 91.8969 158.482 91.6685 158.879 91.2714C159.276 90.8747 159.504 90.3241 159.504 89.7629C159.504 89.2016 159.276 88.6511 158.879 88.2542Z"/>
</mask>
<path d="M158.879 88.2542C158.482 87.8572 157.931 87.6289 157.37 87.6289C156.809 87.6289 156.258 87.857 155.861 88.2542C155.464 88.6511 155.236 89.2016 155.236 89.7629C155.236 90.3241 155.464 90.8747 155.861 91.2714C156.258 91.6683 156.809 91.8969 157.37 91.8969C157.931 91.8969 158.482 91.6685 158.879 91.2714C159.276 90.8747 159.504 90.3241 159.504 89.7629C159.504 89.2016 159.276 88.6511 158.879 88.2542Z" fill="#6AEDFC" stroke="#1E1E1E" stroke-width="2" mask="url(#path-12-inside-6)"/>
<mask id="path-13-inside-7" fill="white">
<path d="M148.47 87.6289H132.616C131.437 87.6289 130.482 88.5845 130.482 89.7629C130.482 90.9413 131.437 91.8969 132.616 91.8969H148.47C149.648 91.8969 150.604 90.9413 150.604 89.7629C150.604 88.5845 149.648 87.6289 148.47 87.6289Z"/>
</mask>
<path d="M148.47 87.6289H132.616C131.437 87.6289 130.482 88.5845 130.482 89.7629C130.482 90.9413 131.437 91.8969 132.616 91.8969H148.47C149.648 91.8969 150.604 90.9413 150.604 89.7629C150.604 88.5845 149.648 87.6289 148.47 87.6289Z" fill="#6AEDFC" stroke="#1E1E1E" stroke-width="2" mask="url(#path-13-inside-7)"/>
<mask id="path-14-inside-8" fill="white">
<path d="M74.5988 111.646C73.4202 111.646 72.4648 112.602 72.4648 113.78V122.128C72.4648 123.306 73.4202 124.262 74.5988 124.262C75.7773 124.262 76.7327 123.306 76.7327 122.128V113.78C76.7327 112.601 75.7773 111.646 74.5988 111.646Z"/>
</mask>
<path d="M74.5988 111.646C73.4202 111.646 72.4648 112.602 72.4648 113.78V122.128C72.4648 123.306 73.4202 124.262 74.5988 124.262C75.7773 124.262 76.7327 123.306 76.7327 122.128V113.78C76.7327 112.601 75.7773 111.646 74.5988 111.646Z" fill="#6AEDFC" stroke="#1E1E1E" stroke-width="2" mask="url(#path-14-inside-8)"/>
<mask id="path-15-inside-9" fill="white">
<path d="M76.1084 127.965C75.7094 127.568 75.161 127.34 74.5976 127.34C74.0364 127.34 73.4879 127.568 73.0889 127.965C72.692 128.362 72.4658 128.913 72.4658 129.474C72.4658 130.037 72.692 130.586 73.0889 130.983C73.4858 131.379 74.0364 131.608 74.5976 131.608C75.161 131.608 75.7094 131.379 76.1084 130.983C76.5054 130.586 76.7316 130.037 76.7316 129.474C76.7316 128.913 76.5054 128.362 76.1084 127.965Z"/>
</mask>
<path d="M76.1084 127.965C75.7094 127.568 75.161 127.34 74.5976 127.34C74.0364 127.34 73.4879 127.568 73.0889 127.965C72.692 128.362 72.4658 128.913 72.4658 129.474C72.4658 130.037 72.692 130.586 73.0889 130.983C73.4858 131.379 74.0364 131.608 74.5976 131.608C75.161 131.608 75.7094 131.379 76.1084 130.983C76.5054 130.586 76.7316 130.037 76.7316 129.474C76.7316 128.913 76.5054 128.362 76.1084 127.965Z" fill="#6AEDFC" stroke="#1E1E1E" stroke-width="2" mask="url(#path-15-inside-9)"/>
</g>
<defs>
<filter id="filter0_d" x="0.863892" y="0.787109" width="214.356" height="183.726" filterUnits="userSpaceOnUse" color-interpolation-filters="sRGB">
<feFlood flood-opacity="0" result="BackgroundImageFix"/>
<feColorMatrix in="SourceAlpha" type="matrix" values="0 0 0 0 0 0 0 0 0 0 0 0 0 0 0 0 0 0 127 0"/>
<feOffset dy="4"/>
<feGaussianBlur stdDeviation="2"/>
<feColorMatrix type="matrix" values="0 0 0 0 0 0 0 0 0 0 0 0 0 0 0 0 0 0 0.25 0"/>
<feBlend mode="normal" in2="BackgroundImageFix" result="effect1_dropShadow"/>
<feBlend mode="normal" in="SourceGraphic" in2="effect1_dropShadow" result="shape"/>
</filter>
<filter id="filter1_d" x="57.7681" y="32.9995" width="117.259" height="117.259" filterUnits="userSpaceOnUse" color-interpolation-filters="sRGB">
<feFlood flood-opacity="0" result="BackgroundImageFix"/>
<feColorMatrix in="SourceAlpha" type="matrix" values="0 0 0 0 0 0 0 0 0 0 0 0 0 0 0 0 0 0 127 0"/>
<feOffset dy="4"/>
<feGaussianBlur stdDeviation="2"/>
<feColorMatrix type="matrix" values="0 0 0 0 0 0 0 0 0 0 0 0 0 0 0 0 0 0 0.25 0"/>
<feBlend mode="normal" in2="BackgroundImageFix" result="effect1_dropShadow"/>
<feBlend mode="normal" in="SourceGraphic" in2="effect1_dropShadow" result="shape"/>
</filter>
<linearGradient id="paint0_linear" x1="197.156" y1="64.9524" x2="46.2196" y2="97.673" gradientUnits="userSpaceOnUse">
<stop stop-color="#6AEDFC"/>
<stop offset="1" stop-opacity="0"/>
</linearGradient>
<clipPath id="clip0">
<rect width="109.259" height="109.259" fill="white" transform="translate(61.7681 32.9995)"/>
</clipPath>
</defs>
</svg>
